<svg viewBox="0 0 900 800" xmlns="http://www.w3.org/2000/svg"><rect x="250" y="450" width="150" height="200" fill="#6a5535" /><rect x="250" y="600" width="100" height="150" fill="#8b7048" /><rect x="300" y="550" width="100" height="100" fill="#806235" /><rect x="300" y="600" width="100" height="150" fill="#b0884e" /><rect x="550" y="450" width="150" height="200" fill="#6a5535" /><rect x="550" y="600" width="100" height="150" fill="#8b7048" /><rect x="600" y="550" width="100" height="100" fill="#806235" /><rect x="600" y="600" width="100" height="150" fill="#b0884e" /><rect x="300" y="0" width="150" height="350" fill="#8b7048" /><rect x="400" y="0" width="200" height="350" fill="#b0884e" /><rect x="300" y="100" width="150" height="100" fill="#6a5535" /><rect x="400" y="100" width="200" height="100" fill="#806235" /><rect x="100" y="700" width="150" height="100" fill="#8b7048" /><rect x="200" y="700" width="600" height="100" fill="#b8945f" /><rect x="600" y="700" width="100" height="100" fill="#8c7046" /><rect x="300" y="700" width="100" height="100" fill="#8c7046" /><rect x="0" y="300" width="150" height="200" fill="#8b7048" /><rect x="100" y="300" width="800" height="200" fill="#b8945f" /><rect x="700" y="300" width="100" height="200" fill="#8c7046" /><rect x="200" y="300" width="100" height="200" fill="#8c7046" /></svg>