<?xml version="1.0" encoding="UTF-8"?>
<!DOCTYPE svg PUBLIC "-//W3C//DTD SVG 1.1//EN" "http://www.w3.org/Graphics/SVG/1.1/DTD/svg11.dtd">
<svg xmlns="http://www.w3.org/2000/svg" version="1.1" width="1000px" height="857px" style="shape-rendering:geometricPrecision; text-rendering:geometricPrecision; image-rendering:optimizeQuality; fill-rule:evenodd; clip-rule:evenodd" xmlns:xlink="http://www.w3.org/1999/xlink">
<g><path style="opacity:1" fill="#8ac349" d="M -0.5,-0.5 C 47.5,-0.5 95.5,-0.5 143.5,-0.5C 143.5,47.5 143.5,95.5 143.5,143.5C 95.5,143.5 47.5,143.5 -0.5,143.5C -0.5,95.5 -0.5,47.5 -0.5,-0.5 Z"/></g>
<g><path style="opacity:1" fill="#8ac349" d="M 858.5,-0.5 C 905.5,-0.5 952.5,-0.5 999.5,-0.5C 999.5,47.5 999.5,95.5 999.5,143.5C 952.5,143.5 905.5,143.5 858.5,143.5C 858.5,95.5 858.5,47.5 858.5,-0.5 Z"/></g>
<g><path style="opacity:1" fill="#679236" d="M 143.5,143.5 C 191.167,143.5 238.833,143.5 286.5,143.5C 286.5,191.167 286.5,238.833 286.5,286.5C 238.833,286.5 191.167,286.5 143.5,286.5C 143.5,238.833 143.5,191.167 143.5,143.5 Z"/></g>
<g><path style="opacity:1" fill="#8ac349" d="M 286.5,143.5 C 477.167,143.5 667.833,143.5 858.5,143.5C 858.5,191.167 858.5,238.833 858.5,286.5C 905.5,286.5 952.5,286.5 999.5,286.5C 999.5,381.833 999.5,477.167 999.5,572.5C 714.167,572.5 428.833,572.5 143.5,572.5C 143.5,477.167 143.5,381.833 143.5,286.5C 191.167,286.5 238.833,286.5 286.5,286.5C 286.5,238.833 286.5,191.167 286.5,143.5 Z"/></g>
<g><path style="opacity:1" fill="#679236" d="M -0.5,286.5 C 47.5,286.5 95.5,286.5 143.5,286.5C 143.5,381.833 143.5,477.167 143.5,572.5C 95.5,572.5 47.5,572.5 -0.5,572.5C -0.5,477.167 -0.5,381.833 -0.5,286.5 Z"/></g>
<g><path style="opacity:1" fill="#679236" d="M 286.5,286.5 C 334.167,286.5 381.833,286.5 429.5,286.5C 429.5,334.167 429.5,381.833 429.5,429.5C 381.833,429.5 334.167,429.5 286.5,429.5C 286.5,381.833 286.5,334.167 286.5,286.5 Z"/></g>
<g><path style="opacity:1" fill="#679236" d="M 858.5,286.5 C 858.5,334.167 858.5,381.833 858.5,429.5C 810.833,429.5 763.167,429.5 715.5,429.5C 715.5,381.833 715.5,334.167 715.5,286.5C 763.167,286.5 810.833,286.5 858.5,286.5 Z"/></g>
<g><path style="opacity:1" fill="#679236" d="M -0.5,715.5 C 47.5,715.5 95.5,715.5 143.5,715.5C 143.5,762.5 143.5,809.5 143.5,856.5C 95.5,856.5 47.5,856.5 -0.5,856.5C -0.5,809.5 -0.5,762.5 -0.5,715.5 Z"/></g>
<g><path style="opacity:1" fill="#8ac349" d="M 143.5,715.5 C 428.833,715.5 714.167,715.5 999.5,715.5C 999.5,762.5 999.5,809.5 999.5,856.5C 714.167,856.5 428.833,856.5 143.5,856.5C 143.5,809.5 143.5,762.5 143.5,715.5 Z"/></g>
</svg>
