<?xml version="1.0" encoding="UTF-8"?>
<!DOCTYPE svg PUBLIC "-//W3C//DTD SVG 1.1//EN" "http://www.w3.org/Graphics/SVG/1.1/DTD/svg11.dtd">
<svg xmlns="http://www.w3.org/2000/svg" version="1.1" width="1000px" height="954px" style="shape-rendering:geometricPrecision; text-rendering:geometricPrecision; image-rendering:optimizeQuality; fill-rule:evenodd; clip-rule:evenodd" xmlns:xlink="http://www.w3.org/1999/xlink">
<g><path style="opacity:1" fill="#757675" d="M 499.5,0.5 C 499.5,30.5 499.5,60.5 499.5,90.5C 469.5,90.5 439.5,90.5 409.5,90.5C 394.167,90.5 378.833,90.5 363.5,90.5C 363.5,75.5 363.5,60.5 363.5,45.5C 363.5,30.5 363.5,15.5 363.5,0.5C 408.833,0.5 454.167,0.5 499.5,0.5 Z"/></g>
<g><path style="opacity:1" fill="#a4a5a4" d="M 499.5,0.5 C 529.833,0.5 560.167,0.5 590.5,0.5C 590.5,15.5 590.5,30.5 590.5,45.5C 590.5,60.5 590.5,75.5 590.5,90.5C 560.167,90.5 529.833,90.5 499.5,90.5C 499.5,60.5 499.5,30.5 499.5,0.5 Z"/></g>
<g><path style="opacity:1" fill="#1b1910" d="M 363.5,45.5 C 363.5,60.5 363.5,75.5 363.5,90.5C 348.5,90.5 333.5,90.5 318.5,90.5C 303.167,90.5 287.833,90.5 272.5,90.5C 272.5,241.833 272.5,393.167 272.5,544.5C 287.833,544.5 303.167,544.5 318.5,544.5C 348.833,544.5 379.167,544.5 409.5,544.5C 409.5,529.5 409.5,514.5 409.5,499.5C 485.167,499.5 560.833,499.5 636.5,499.5C 636.5,514.5 636.5,529.5 636.5,544.5C 651.5,544.5 666.5,544.5 681.5,544.5C 696.833,544.5 712.167,544.5 727.5,544.5C 727.5,559.833 727.5,575.167 727.5,590.5C 636.5,590.5 545.5,590.5 454.5,590.5C 454.5,711.5 454.5,832.5 454.5,953.5C 363.5,953.5 272.5,953.5 181.5,953.5C 181.5,832.5 181.5,711.5 181.5,590.5C 121.167,590.5 60.8333,590.5 0.5,590.5C 0.5,408.833 0.5,227.167 0.5,45.5C 121.5,45.5 242.5,45.5 363.5,45.5 Z"/></g>
<g><path style="opacity:1" fill="#1b1910" d="M 590.5,45.5 C 636.167,45.5 681.833,45.5 727.5,45.5C 727.5,60.5 727.5,75.5 727.5,90.5C 712.167,90.5 696.833,90.5 681.5,90.5C 666.5,90.5 651.5,90.5 636.5,90.5C 636.5,105.833 636.5,121.167 636.5,136.5C 560.833,136.5 485.167,136.5 409.5,136.5C 409.5,121.167 409.5,105.833 409.5,90.5C 439.5,90.5 469.5,90.5 499.5,90.5C 529.833,90.5 560.167,90.5 590.5,90.5C 590.5,75.5 590.5,60.5 590.5,45.5 Z"/></g>
<g><path style="opacity:1" fill="#bfc0bf" d="M 318.5,90.5 C 318.5,241.833 318.5,393.167 318.5,544.5C 303.167,544.5 287.833,544.5 272.5,544.5C 272.5,393.167 272.5,241.833 272.5,90.5C 287.833,90.5 303.167,90.5 318.5,90.5 Z"/></g>
<g><path style="opacity:1" fill="#fefffe" d="M 318.5,90.5 C 333.5,90.5 348.5,90.5 363.5,90.5C 378.833,90.5 394.167,90.5 409.5,90.5C 409.5,105.833 409.5,121.167 409.5,136.5C 409.5,151.5 409.5,166.5 409.5,181.5C 439.5,181.5 469.5,181.5 499.5,181.5C 499.5,211.833 499.5,242.167 499.5,272.5C 529.833,272.5 560.167,272.5 590.5,272.5C 590.5,302.833 590.5,333.167 590.5,363.5C 560.167,363.5 529.833,363.5 499.5,363.5C 499.5,393.833 499.5,424.167 499.5,454.5C 469.5,454.5 439.5,454.5 409.5,454.5C 409.5,469.5 409.5,484.5 409.5,499.5C 409.5,514.5 409.5,529.5 409.5,544.5C 379.167,544.5 348.833,544.5 318.5,544.5C 318.5,393.167 318.5,241.833 318.5,90.5 Z"/></g>
<g><path style="opacity:1" fill="#bfc0bf" d="M 681.5,90.5 C 681.5,241.833 681.5,393.167 681.5,544.5C 666.5,544.5 651.5,544.5 636.5,544.5C 636.5,529.5 636.5,514.5 636.5,499.5C 636.5,378.5 636.5,257.5 636.5,136.5C 636.5,121.167 636.5,105.833 636.5,90.5C 651.5,90.5 666.5,90.5 681.5,90.5 Z"/></g>
<g><path style="opacity:1" fill="#fefffe" d="M 681.5,90.5 C 696.833,90.5 712.167,90.5 727.5,90.5C 742.5,90.5 757.5,90.5 772.5,90.5C 772.5,241.833 772.5,393.167 772.5,544.5C 757.5,544.5 742.5,544.5 727.5,544.5C 712.167,544.5 696.833,544.5 681.5,544.5C 681.5,393.167 681.5,241.833 681.5,90.5 Z"/></g>
<g><path style="opacity:1" fill="#bfc0bf" d="M 863.5,90.5 C 863.5,241.833 863.5,393.167 863.5,544.5C 848.5,544.5 833.5,544.5 818.5,544.5C 818.5,393.167 818.5,241.833 818.5,90.5C 833.5,90.5 848.5,90.5 863.5,90.5 Z"/></g>
<g><path style="opacity:1" fill="#fefffe" d="M 863.5,90.5 C 893.833,90.5 924.167,90.5 954.5,90.5C 954.5,241.833 954.5,393.167 954.5,544.5C 924.167,544.5 893.833,544.5 863.5,544.5C 863.5,393.167 863.5,241.833 863.5,90.5 Z"/></g>
<g><path style="opacity:1" fill="#855102" d="M 45.5,136.5 C 75.8333,136.5 106.167,136.5 136.5,136.5C 136.5,257.5 136.5,378.5 136.5,499.5C 106.167,499.5 75.8333,499.5 45.5,499.5C 45.5,378.5 45.5,257.5 45.5,136.5 Z"/></g>
<g><path style="opacity:1" fill="#683f02" d="M 409.5,136.5 C 485.167,136.5 560.833,136.5 636.5,136.5C 636.5,257.5 636.5,378.5 636.5,499.5C 560.833,499.5 485.167,499.5 409.5,499.5C 409.5,484.5 409.5,469.5 409.5,454.5C 439.5,454.5 469.5,454.5 499.5,454.5C 499.5,424.167 499.5,393.833 499.5,363.5C 529.833,363.5 560.167,363.5 590.5,363.5C 590.5,333.167 590.5,302.833 590.5,272.5C 560.167,272.5 529.833,272.5 499.5,272.5C 499.5,242.167 499.5,211.833 499.5,181.5C 469.5,181.5 439.5,181.5 409.5,181.5C 409.5,166.5 409.5,151.5 409.5,136.5 Z"/></g>
<g><path style="opacity:1" fill="#443b2d" d="M 727.5,590.5 C 818.167,590.5 908.833,590.5 999.5,590.5C 999.5,711.5 999.5,832.5 999.5,953.5C 817.833,953.5 636.167,953.5 454.5,953.5C 454.5,832.5 454.5,711.5 454.5,590.5C 545.5,590.5 636.5,590.5 727.5,590.5 Z"/></g>
<g><path style="opacity:1" fill="#855102" d="M 227.5,681.5 C 288.167,681.5 348.833,681.5 409.5,681.5C 409.5,741.833 409.5,802.167 409.5,862.5C 348.833,862.5 288.167,862.5 227.5,862.5C 227.5,802.167 227.5,741.833 227.5,681.5 Z"/></g>
<g><path style="opacity:1" fill="#a66e1c" d="M 545.5,681.5 C 666.5,681.5 787.5,681.5 908.5,681.5C 908.5,741.833 908.5,802.167 908.5,862.5C 787.5,862.5 666.5,862.5 545.5,862.5C 545.5,802.167 545.5,741.833 545.5,681.5 Z"/></g>
</svg>
