<svg viewBox="0 0 1100 1050" xmlns="http://www.w3.org/2000/svg"><rect x="200" y="50" width="600" height="650" fill="#1d1a14" /><rect x="300" y="150" width="400" height="400" fill="#693f05" /><rect x="0" y="50" width="250" height="600" fill="#1d1a14" /><rect x="50" y="150" width="100" height="400" fill="#865107" /><rect x="400" y="0" width="200" height="100" fill="#767676" /><rect x="550" y="0" width="100" height="100" fill="#a5a5a5" /><rect x="450" y="150" width="350" height="100" fill="#c51339" /><rect x="200" y="550" width="350" height="250" fill="#4c3811" /><rect x="200" y="350" width="350" height="250" fill="#408240" /><rect x="200" y="200" width="350" height="200" fill="#582516" /><rect x="200" y="500" width="250" height="100" fill="#a1a1a1" /><rect x="200" y="300" width="250" height="100" fill="#a1a1a1" /><rect x="500" y="550" width="600" height="250" fill="#654b17" /><rect x="500" y="350" width="600" height="250" fill="#56ad56" /><rect x="500" y="200" width="600" height="200" fill="#75321e" /><rect x="200" y="650" width="350" height="400" fill="#1d1a14" /><rect x="250" y="750" width="200" height="200" fill="#865107" /><rect x="500" y="650" width="600" height="400" fill="#453c2f" /><rect x="600" y="750" width="400" height="200" fill="#a76e1f" /><rect x="750" y="150" width="100" height="700" fill="#c51339" /><rect x="750" y="650" width="100" height="100" fill="#d3a216" /></svg>