<?xml version="1.0" encoding="UTF-8"?>
<!DOCTYPE svg PUBLIC "-//W3C//DTD SVG 1.1//EN" "http://www.w3.org/Graphics/SVG/1.1/DTD/svg11.dtd">
<svg xmlns="http://www.w3.org/2000/svg" version="1.1" width="1000px" height="933px" style="shape-rendering:geometricPrecision; text-rendering:geometricPrecision; image-rendering:optimizeQuality; fill-rule:evenodd; clip-rule:evenodd" xmlns:xlink="http://www.w3.org/1999/xlink">
<g><path style="opacity:1" fill="#c41338" d="M 266.5,-0.5 C 422.167,-0.5 577.833,-0.5 733.5,-0.5C 733.5,21.8333 733.5,44.1667 733.5,66.5C 733.5,155.5 733.5,244.5 733.5,333.5C 733.5,422.5 733.5,511.5 733.5,600.5C 733.5,622.5 733.5,644.5 733.5,666.5C 689.167,666.5 644.833,666.5 600.5,666.5C 600.5,644.5 600.5,622.5 600.5,600.5C 600.5,511.5 600.5,422.5 600.5,333.5C 600.5,244.5 600.5,155.5 600.5,66.5C 511.5,66.5 422.5,66.5 333.5,66.5C 311.167,66.5 288.833,66.5 266.5,66.5C 266.5,44.1667 266.5,21.8333 266.5,-0.5 Z"/></g>
<g><path style="opacity:1" fill="#572515" d="M -0.5,66.5 C 88.5,66.5 177.5,66.5 266.5,66.5C 288.833,66.5 311.167,66.5 333.5,66.5C 333.5,155.5 333.5,244.5 333.5,333.5C 311.167,333.5 288.833,333.5 266.5,333.5C 266.5,289.167 266.5,244.833 266.5,200.5C 177.5,200.5 88.5,200.5 -0.5,200.5C -0.5,155.833 -0.5,111.167 -0.5,66.5 Z"/></g>
<g><path style="opacity:1" fill="#74321d" d="M 333.5,66.5 C 422.5,66.5 511.5,66.5 600.5,66.5C 600.5,155.5 600.5,244.5 600.5,333.5C 511.5,333.5 422.5,333.5 333.5,333.5C 333.5,244.5 333.5,155.5 333.5,66.5 Z"/></g>
<g><path style="opacity:1" fill="#74321d" d="M 733.5,66.5 C 822.167,66.5 910.833,66.5 999.5,66.5C 999.5,155.5 999.5,244.5 999.5,333.5C 910.833,333.5 822.167,333.5 733.5,333.5C 733.5,244.5 733.5,155.5 733.5,66.5 Z"/></g>
<g><path style="opacity:1" fill="#a0a1a0" d="M -0.5,200.5 C 88.5,200.5 177.5,200.5 266.5,200.5C 266.5,244.833 266.5,289.167 266.5,333.5C 177.5,333.5 88.5,333.5 -0.5,333.5C -0.5,289.167 -0.5,244.833 -0.5,200.5 Z"/></g>
<g><path style="opacity:1" fill="#40823f" d="M -0.5,333.5 C 88.5,333.5 177.5,333.5 266.5,333.5C 288.833,333.5 311.167,333.5 333.5,333.5C 333.5,422.5 333.5,511.5 333.5,600.5C 311.167,600.5 288.833,600.5 266.5,600.5C 266.5,555.833 266.5,511.167 266.5,466.5C 177.5,466.5 88.5,466.5 -0.5,466.5C -0.5,422.167 -0.5,377.833 -0.5,333.5 Z"/></g>
<g><path style="opacity:1" fill="#56ad55" d="M 333.5,333.5 C 422.5,333.5 511.5,333.5 600.5,333.5C 600.5,422.5 600.5,511.5 600.5,600.5C 511.5,600.5 422.5,600.5 333.5,600.5C 333.5,511.5 333.5,422.5 333.5,333.5 Z"/></g>
<g><path style="opacity:1" fill="#56ad55" d="M 733.5,333.5 C 822.167,333.5 910.833,333.5 999.5,333.5C 999.5,422.5 999.5,511.5 999.5,600.5C 910.833,600.5 822.167,600.5 733.5,600.5C 733.5,511.5 733.5,422.5 733.5,333.5 Z"/></g>
<g><path style="opacity:1" fill="#a0a1a0" d="M -0.5,466.5 C 88.5,466.5 177.5,466.5 266.5,466.5C 266.5,511.167 266.5,555.833 266.5,600.5C 177.5,600.5 88.5,600.5 -0.5,600.5C -0.5,555.833 -0.5,511.167 -0.5,466.5 Z"/></g>
<g><path style="opacity:1" fill="#4b3810" d="M -0.5,600.5 C 88.5,600.5 177.5,600.5 266.5,600.5C 288.833,600.5 311.167,600.5 333.5,600.5C 333.5,689.167 333.5,777.833 333.5,866.5C 311.167,866.5 288.833,866.5 266.5,866.5C 266.5,822.167 266.5,777.833 266.5,733.5C 177.5,733.5 88.5,733.5 -0.5,733.5C -0.5,689.167 -0.5,644.833 -0.5,600.5 Z"/></g>
<g><path style="opacity:1" fill="#644b16" d="M 333.5,600.5 C 422.5,600.5 511.5,600.5 600.5,600.5C 600.5,622.5 600.5,644.5 600.5,666.5C 600.5,711.167 600.5,755.833 600.5,800.5C 600.5,822.5 600.5,844.5 600.5,866.5C 533.833,866.5 467.167,866.5 400.5,866.5C 378.167,866.5 355.833,866.5 333.5,866.5C 333.5,777.833 333.5,689.167 333.5,600.5 Z"/></g>
<g><path style="opacity:1" fill="#644b16" d="M 733.5,600.5 C 822.167,600.5 910.833,600.5 999.5,600.5C 999.5,689.167 999.5,777.833 999.5,866.5C 910.833,866.5 822.167,866.5 733.5,866.5C 733.5,844.5 733.5,822.5 733.5,800.5C 733.5,755.833 733.5,711.167 733.5,666.5C 733.5,644.5 733.5,622.5 733.5,600.5 Z"/></g>
<g><path style="opacity:1" fill="#d2a215" d="M 600.5,666.5 C 644.833,666.5 689.167,666.5 733.5,666.5C 733.5,711.167 733.5,755.833 733.5,800.5C 689.167,800.5 644.833,800.5 600.5,800.5C 600.5,755.833 600.5,711.167 600.5,666.5 Z"/></g>
<g><path style="opacity:1" fill="#a0a1a0" d="M -0.5,733.5 C 88.5,733.5 177.5,733.5 266.5,733.5C 266.5,777.833 266.5,822.167 266.5,866.5C 177.5,866.5 88.5,866.5 -0.5,866.5C -0.5,822.167 -0.5,777.833 -0.5,733.5 Z"/></g>
<g><path style="opacity:1" fill="#c41338" d="M 600.5,800.5 C 644.833,800.5 689.167,800.5 733.5,800.5C 733.5,822.5 733.5,844.5 733.5,866.5C 733.5,888.5 733.5,910.5 733.5,932.5C 689.167,932.5 644.833,932.5 600.5,932.5C 600.5,910.5 600.5,888.5 600.5,866.5C 600.5,844.5 600.5,822.5 600.5,800.5 Z"/></g>
<g><path style="opacity:1" fill="#930e29" d="M 266.5,866.5 C 288.833,866.5 311.167,866.5 333.5,866.5C 355.833,866.5 378.167,866.5 400.5,866.5C 400.5,888.5 400.5,910.5 400.5,932.5C 355.833,932.5 311.167,932.5 266.5,932.5C 266.5,910.5 266.5,888.5 266.5,866.5 Z"/></g>
</svg>
