<?xml version="1.0" encoding="UTF-8"?>
<!DOCTYPE svg PUBLIC "-//W3C//DTD SVG 1.1//EN" "http://www.w3.org/Graphics/SVG/1.1/DTD/svg11.dtd">
<svg xmlns="http://www.w3.org/2000/svg" version="1.1" width="1000px" height="556px" style="shape-rendering:geometricPrecision; text-rendering:geometricPrecision; image-rendering:optimizeQuality; fill-rule:evenodd; clip-rule:evenodd" xmlns:xlink="http://www.w3.org/1999/xlink">
<g><path style="opacity:1" fill="#109398" d="M 111.5,-0.5 C 185.5,-0.5 259.5,-0.5 333.5,-0.5C 333.5,36.8333 333.5,74.1667 333.5,111.5C 259.5,111.5 185.5,111.5 111.5,111.5C 111.5,74.1667 111.5,36.8333 111.5,-0.5 Z"/></g>
<g><path style="opacity:1" fill="#109398" d="M 667.5,-0.5 C 741.5,-0.5 815.5,-0.5 889.5,-0.5C 889.5,36.8333 889.5,74.1667 889.5,111.5C 815.5,111.5 741.5,111.5 667.5,111.5C 667.5,74.1667 667.5,36.8333 667.5,-0.5 Z"/></g>
<g><path style="opacity:1" fill="#109398" d="M -0.5,111.5 C 36.8333,111.5 74.1667,111.5 111.5,111.5C 111.5,222.833 111.5,334.167 111.5,445.5C 74.1667,445.5 36.8333,445.5 -0.5,445.5C -0.5,334.167 -0.5,222.833 -0.5,111.5 Z"/></g>
<g><path style="opacity:1" fill="#109398" d="M 333.5,111.5 C 370.5,111.5 407.5,111.5 444.5,111.5C 444.5,148.5 444.5,185.5 444.5,222.5C 407.5,222.5 370.5,222.5 333.5,222.5C 333.5,185.5 333.5,148.5 333.5,111.5 Z"/></g>
<g><path style="opacity:1" fill="#109398" d="M 667.5,111.5 C 667.5,148.5 667.5,185.5 667.5,222.5C 630.167,222.5 592.833,222.5 555.5,222.5C 555.5,185.5 555.5,148.5 555.5,111.5C 592.833,111.5 630.167,111.5 667.5,111.5 Z"/></g>
<g><path style="opacity:1" fill="#109398" d="M 889.5,111.5 C 926.167,111.5 962.833,111.5 999.5,111.5C 999.5,222.833 999.5,334.167 999.5,445.5C 962.833,445.5 926.167,445.5 889.5,445.5C 889.5,334.167 889.5,222.833 889.5,111.5 Z"/></g>
<g><path style="opacity:1" fill="#109398" d="M 333.5,222.5 C 333.5,259.5 333.5,296.5 333.5,333.5C 314.833,333.5 296.167,333.5 277.5,333.5C 277.5,352.167 277.5,370.833 277.5,389.5C 259.167,389.5 240.833,389.5 222.5,389.5C 222.5,370.833 222.5,352.167 222.5,333.5C 203.833,333.5 185.167,333.5 166.5,333.5C 166.5,296.5 166.5,259.5 166.5,222.5C 185.167,222.5 203.833,222.5 222.5,222.5C 222.5,203.833 222.5,185.167 222.5,166.5C 240.833,166.5 259.167,166.5 277.5,166.5C 277.5,185.167 277.5,203.833 277.5,222.5C 296.167,222.5 314.833,222.5 333.5,222.5 Z"/></g>
<g><path style="opacity:1" fill="#109398" d="M 444.5,222.5 C 481.5,222.5 518.5,222.5 555.5,222.5C 555.5,259.5 555.5,296.5 555.5,333.5C 518.5,333.5 481.5,333.5 444.5,333.5C 444.5,296.5 444.5,259.5 444.5,222.5 Z"/></g>
<g><path style="opacity:1" fill="#109398" d="M 667.5,222.5 C 722.833,222.5 778.167,222.5 833.5,222.5C 833.5,259.5 833.5,296.5 833.5,333.5C 778.167,333.5 722.833,333.5 667.5,333.5C 667.5,296.5 667.5,259.5 667.5,222.5 Z"/></g>
<g><path style="opacity:1" fill="#109398" d="M 333.5,333.5 C 370.5,333.5 407.5,333.5 444.5,333.5C 444.5,370.833 444.5,408.167 444.5,445.5C 407.5,445.5 370.5,445.5 333.5,445.5C 333.5,408.167 333.5,370.833 333.5,333.5 Z"/></g>
<g><path style="opacity:1" fill="#109398" d="M 555.5,333.5 C 592.833,333.5 630.167,333.5 667.5,333.5C 667.5,370.833 667.5,408.167 667.5,445.5C 630.167,445.5 592.833,445.5 555.5,445.5C 555.5,408.167 555.5,370.833 555.5,333.5 Z"/></g>
<g><path style="opacity:1" fill="#109398" d="M 111.5,445.5 C 185.5,445.5 259.5,445.5 333.5,445.5C 333.5,482.167 333.5,518.833 333.5,555.5C 259.5,555.5 185.5,555.5 111.5,555.5C 111.5,518.833 111.5,482.167 111.5,445.5 Z"/></g>
<g><path style="opacity:1" fill="#109398" d="M 667.5,445.5 C 741.5,445.5 815.5,445.5 889.5,445.5C 889.5,482.167 889.5,518.833 889.5,555.5C 815.5,555.5 741.5,555.5 667.5,555.5C 667.5,518.833 667.5,482.167 667.5,445.5 Z"/></g>
</svg>
