<svg viewBox="0 0 900 500" xmlns="http://www.w3.org/2000/svg"><rect x="0" y="100" width="100" height="300" fill="#109399" /><rect x="100" y="0" width="200" height="100" fill="#109399" /><rect x="300" y="100" width="100" height="100" fill="#109399" /><rect x="400" y="200" width="100" height="100" fill="#109399" /><rect x="500" y="300" width="100" height="100" fill="#109399" /><rect x="600" y="400" width="200" height="100" fill="#109399" /><rect x="800" y="100" width="100" height="300" fill="#109399" /><rect x="600" y="0" width="200" height="100" fill="#109399" /><rect x="500" y="100" width="100" height="100" fill="#109399" /><rect x="300" y="300" width="100" height="100" fill="#109399" /><rect x="100" y="400" width="200" height="100" fill="#109399" /><rect x="0" y="100" width="100" height="300" fill="#109399" /><rect x="150" y="200" width="150" height="100" fill="#109399" /><rect x="200" y="150" width="50" height="200" fill="#109399" /><rect x="600" y="200" width="150" height="100" fill="#109399" /></svg>