<svg viewBox="0 0 900 850" xmlns="http://www.w3.org/2000/svg"><rect x="0" y="650" width="350" height="200" fill="#2b7070" /><rect x="50" y="650" width="200" height="100" fill="#337e7e" /><rect x="100" y="500" width="100" height="200" fill="#337e7e" /><rect x="300" y="650" width="600" height="200" fill="#3a9595" /><rect x="400" y="650" width="400" height="100" fill="#45a8a8" /><rect x="500" y="500" width="200" height="200" fill="#45a8a8" /><rect x="0" y="0" width="100" height="400" fill="#337e7e" /><rect x="0" y="0" width="350" height="150" fill="#337e7e" /><rect x="250" y="50" width="100" height="350" fill="#337e7e" /><rect x="50" y="100" width="50" height="300" fill="#519898" /><rect x="50" y="100" width="200" height="100" fill="#519898" /><rect x="200" y="150" width="50" height="250" fill="#519898" /><rect x="300" y="0" width="150" height="400" fill="#45a8a8" /><rect x="300" y="0" width="600" height="150" fill="#45a8a8" /><rect x="750" y="50" width="150" height="350" fill="#45a8a8" /><rect x="400" y="100" width="100" height="300" fill="#6ccbcb" /><rect x="400" y="100" width="400" height="100" fill="#6ccbcb" /><rect x="700" y="150" width="100" height="250" fill="#6ccbcb" /></svg>