<svg viewBox="0 0 1750 500" xmlns="http://www.w3.org/2000/svg"><rect x="0" y="100" width="100" height="400" fill="#98202b" /><rect x="100" y="0" width="100" height="100" fill="#98202b" /><rect x="400" y="100" width="100" height="400" fill="#98202b" /><rect x="50" y="100" width="100" height="400" fill="#cc312b" /><rect x="150" y="0" width="300" height="100" fill="#cc312b" /><rect x="450" y="100" width="100" height="400" fill="#cc312b" /><rect x="100" y="250" width="400" height="100" fill="#cc312b" /><rect x="600" y="400" width="100" height="100" fill="#98202b" /><rect x="1000" y="300" width="100" height="100" fill="#98202b" /><rect x="700" y="200" width="100" height="100" fill="#98202b" /><rect x="600" y="100" width="100" height="100" fill="#98202b" /><rect x="700" y="0" width="100" height="100" fill="#98202b" /><rect x="650" y="400" width="400" height="100" fill="#cc312b" /><rect x="1050" y="300" width="100" height="100" fill="#cc312b" /><rect x="750" y="200" width="300" height="100" fill="#cc312b" /><rect x="650" y="100" width="100" height="100" fill="#cc312b" /><rect x="750" y="0" width="400" height="100" fill="#cc312b" /><rect x="1200" y="0" width="100" height="500" fill="#98202b" /><rect x="1400" y="200" width="100" height="100" fill="#98202b" /><rect x="1500" y="100" width="100" height="100" fill="#98202b" /><rect x="1600" y="0" width="100" height="500" fill="#98202b" /><rect x="1250" y="0" width="100" height="500" fill="#cc312b" /><rect x="1300" y="100" width="150" height="100" fill="#cc312b" /><rect x="1450" y="200" width="100" height="100" fill="#cc312b" /><rect x="1550" y="100" width="150" height="100" fill="#cc312b" /><rect x="1650" y="0" width="100" height="500" fill="#cc312b" /></svg>