<svg viewBox="0 0 900 600" xmlns="http://www.w3.org/2000/svg"><rect x="0" y="0" width="350" height="600" fill="#1e1e18" /><rect x="50" y="100" width="200" height="400" fill="#301e12" /><rect x="150" y="100" width="50" height="400" fill="#6f4630" /><rect x="50" y="100" width="50" height="400" fill="#6f4630" /><rect x="50" y="200" width="200" height="100" fill="#432718" /><rect x="50" y="400" width="200" height="100" fill="#432718" /><rect x="100" y="400" width="50" height="100" fill="#6f4630" /><rect x="100" y="200" width="50" height="100" fill="#6f4630" /><rect x="200" y="200" width="50" height="100" fill="#6f4630" /><rect x="200" y="400" width="50" height="100" fill="#6f4630" /><rect x="300" y="0" width="600" height="600" fill="#292820" /><rect x="400" y="100" width="400" height="400" fill="#412818" /><rect x="600" y="100" width="100" height="350" fill="#945d41" /><rect x="400" y="100" width="100" height="350" fill="#945d41" /><rect x="400" y="200" width="400" height="100" fill="#5a3420" /><rect x="400" y="400" width="400" height="100" fill="#5a3420" /><rect x="500" y="200" width="100" height="100" fill="#945d41" /><rect x="700" y="200" width="100" height="100" fill="#945d41" /><rect x="500" y="400" width="100" height="100" fill="#945d41" /><rect x="700" y="400" width="100" height="100" fill="#945d41" /></svg>