<svg viewBox="0 0 1100 1050" xmlns="http://www.w3.org/2000/svg"><rect x="0" y="50" width="800" height="600" fill="#8a2519" /><rect x="200" y="600" width="600" height="100" fill="#8a2519" /><rect x="50" y="150" width="100" height="400" fill="#7c120d" /><rect x="0" y="300" width="250" height="100" fill="#a4962d" /><rect x="200" y="300" width="600" height="100" fill="#dac83d" /><rect x="450" y="50" width="100" height="600" fill="#dac83d" /><rect x="300" y="150" width="400" height="400" fill="#310604" /><rect x="400" y="0" width="200" height="100" fill="#a4962d" /><rect x="550" y="0" width="100" height="100" fill="#dac83d" /><rect x="200" y="200" width="350" height="600" fill="#1e1e18" /><rect x="250" y="300" width="200" height="400" fill="#301e12" /><rect x="350" y="300" width="50" height="400" fill="#6f4630" /><rect x="250" y="300" width="50" height="400" fill="#6f4630" /><rect x="250" y="400" width="200" height="100" fill="#432718" /><rect x="250" y="600" width="200" height="100" fill="#432718" /><rect x="300" y="600" width="50" height="100" fill="#6f4630" /><rect x="300" y="400" width="50" height="100" fill="#6f4630" /><rect x="400" y="400" width="50" height="100" fill="#6f4630" /><rect x="400" y="600" width="50" height="100" fill="#6f4630" /><rect x="500" y="200" width="600" height="600" fill="#292820" /><rect x="600" y="300" width="400" height="400" fill="#412818" /><rect x="800" y="300" width="100" height="350" fill="#945d41" /><rect x="600" y="300" width="100" height="350" fill="#945d41" /><rect x="600" y="400" width="400" height="100" fill="#5a3420" /><rect x="600" y="600" width="400" height="100" fill="#5a3420" /><rect x="700" y="400" width="100" height="100" fill="#945d41" /><rect x="900" y="400" width="100" height="100" fill="#945d41" /><rect x="700" y="600" width="100" height="100" fill="#945d41" /><rect x="900" y="600" width="100" height="100" fill="#945d41" /><rect x="200" y="650" width="350" height="350" fill="#8a2519" /><rect x="500" y="650" width="600" height="350" fill="#b63021" /><rect x="250" y="750" width="200" height="250" fill="#7c120d" /><rect x="600" y="750" width="400" height="250" fill="#a41711" /><rect x="200" y="950" width="350" height="100" fill="#3a0300" /><rect x="500" y="950" width="600" height="100" fill="#4c0300" /></svg>