<?xml version="1.0" encoding="UTF-8"?>
<!DOCTYPE svg PUBLIC "-//W3C//DTD SVG 1.1//EN" "http://www.w3.org/Graphics/SVG/1.1/DTD/svg11.dtd">
<svg xmlns="http://www.w3.org/2000/svg" version="1.1" width="1000px" height="875px" style="shape-rendering:geometricPrecision; text-rendering:geometricPrecision; image-rendering:optimizeQuality; fill-rule:evenodd; clip-rule:evenodd" xmlns:xlink="http://www.w3.org/1999/xlink">
<g><path style="opacity:1" fill="#27a015" d="M -0.5,-0.5 C 41.5,-0.5 83.5,-0.5 125.5,-0.5C 125.5,291.167 125.5,582.833 125.5,874.5C 83.5,874.5 41.5,874.5 -0.5,874.5C -0.5,582.833 -0.5,291.167 -0.5,-0.5 Z"/></g>
<g><path style="opacity:1" fill="#31c71b" d="M 125.5,-0.5 C 416.833,-0.5 708.167,-0.5 999.5,-0.5C 999.5,291.167 999.5,582.833 999.5,874.5C 708.167,874.5 416.833,874.5 125.5,874.5C 125.5,582.833 125.5,291.167 125.5,-0.5 Z"/></g>
<g><path style="opacity:1" fill="#fefffe" d="M 250.5,125.5 C 292.167,125.5 333.833,125.5 375.5,125.5C 375.5,208.833 375.5,292.167 375.5,375.5C 500.5,375.5 625.5,375.5 750.5,375.5C 750.5,292.167 750.5,208.833 750.5,125.5C 792.167,125.5 833.833,125.5 875.5,125.5C 875.5,333.833 875.5,542.167 875.5,750.5C 833.833,750.5 792.167,750.5 750.5,750.5C 750.5,667.167 750.5,583.833 750.5,500.5C 625.5,500.5 500.5,500.5 375.5,500.5C 375.5,583.833 375.5,667.167 375.5,750.5C 333.833,750.5 292.167,750.5 250.5,750.5C 250.5,542.167 250.5,333.833 250.5,125.5 Z"/></g>
</svg>
