<?xml version="1.0" encoding="UTF-8"?>
<!DOCTYPE svg PUBLIC "-//W3C//DTD SVG 1.1//EN" "http://www.w3.org/Graphics/SVG/1.1/DTD/svg11.dtd">
<svg xmlns="http://www.w3.org/2000/svg" version="1.1" width="256px" height="256px" style="shape-rendering:geometricPrecision; text-rendering:geometricPrecision; image-rendering:optimizeQuality; fill-rule:evenodd; clip-rule:evenodd" xmlns:xlink="http://www.w3.org/1999/xlink">
<g><path style="opacity:1" fill="#533b0b" d="M 104.5,11.5 C 104.5,19.1667 104.5,26.8333 104.5,34.5C 96.8333,34.5 89.1667,34.5 81.5,34.5C 81.5,30.8333 81.5,27.1667 81.5,23.5C 81.5,19.5 81.5,15.5 81.5,11.5C 89.1667,11.5 96.8333,11.5 104.5,11.5 Z"/></g>
<g><path style="opacity:1" fill="#b3b4b3" d="M 104.5,11.5 C 108.5,11.5 112.5,11.5 116.5,11.5C 116.5,58.1667 116.5,104.833 116.5,151.5C 112.5,151.5 108.5,151.5 104.5,151.5C 104.5,147.5 104.5,143.5 104.5,139.5C 104.5,108.5 104.5,77.5 104.5,46.5C 104.5,42.5 104.5,38.5 104.5,34.5C 104.5,26.8333 104.5,19.1667 104.5,11.5 Z"/></g>
<g><path style="opacity:1" fill="#dedfde" d="M 116.5,11.5 C 147.5,11.5 178.5,11.5 209.5,11.5C 209.5,58.1667 209.5,104.833 209.5,151.5C 201.833,151.5 194.167,151.5 186.5,151.5C 178.5,151.5 170.5,151.5 162.5,151.5C 154.833,151.5 147.167,151.5 139.5,151.5C 135.5,151.5 131.5,151.5 127.5,151.5C 123.833,151.5 120.167,151.5 116.5,151.5C 116.5,104.833 116.5,58.1667 116.5,11.5 Z"/></g>
<g><path style="opacity:1" fill="#1c1a13" d="M 81.5,23.5 C 81.5,27.1667 81.5,30.8333 81.5,34.5C 89.1667,34.5 96.8333,34.5 104.5,34.5C 104.5,38.5 104.5,42.5 104.5,46.5C 92.8333,46.5 81.1667,46.5 69.5,46.5C 69.5,77.5 69.5,108.5 69.5,139.5C 81.1667,139.5 92.8333,139.5 104.5,139.5C 104.5,143.5 104.5,147.5 104.5,151.5C 108.5,151.5 112.5,151.5 116.5,151.5C 120.167,151.5 123.833,151.5 127.5,151.5C 127.5,155.167 127.5,158.833 127.5,162.5C 123.833,162.5 120.167,162.5 116.5,162.5C 116.5,193.5 116.5,224.5 116.5,255.5C 93.1667,255.5 69.8333,255.5 46.5,255.5C 46.5,224.5 46.5,193.5 46.5,162.5C 31.1667,162.5 15.8333,162.5 0.5,162.5C 0.5,116.167 0.5,69.8333 0.5,23.5C 27.5,23.5 54.5,23.5 81.5,23.5 Z"/></g>
<g><path style="opacity:1" fill="#855106" d="M 11.5,46.5 C 19.1667,46.5 26.8333,46.5 34.5,46.5C 34.5,77.5 34.5,108.5 34.5,139.5C 26.8333,139.5 19.1667,139.5 11.5,139.5C 11.5,108.5 11.5,77.5 11.5,46.5 Z"/></g>
<g><path style="opacity:1" fill="#683f04" d="M 104.5,46.5 C 104.5,77.5 104.5,108.5 104.5,139.5C 92.8333,139.5 81.1667,139.5 69.5,139.5C 69.5,108.5 69.5,77.5 69.5,46.5C 81.1667,46.5 92.8333,46.5 104.5,46.5 Z"/></g>
<g><path style="opacity:1" fill="#cc9002" d="M 151.5,69.5 C 143.5,69.5 135.5,69.5 127.5,69.5C 127.5,61.8333 127.5,54.1667 127.5,46.5C 135.5,46.5 143.5,46.5 151.5,46.5C 151.5,54.1667 151.5,61.8333 151.5,69.5 Z"/></g>
<g><path style="opacity:1" fill="#cc9002" d="M 174.5,69.5 C 174.5,61.8333 174.5,54.1667 174.5,46.5C 182.167,46.5 189.833,46.5 197.5,46.5C 197.5,54.1667 197.5,61.8333 197.5,69.5C 189.833,69.5 182.167,69.5 174.5,69.5 Z"/></g>
<g><path style="opacity:1" fill="#cc9002" d="M 151.5,69.5 C 159.167,69.5 166.833,69.5 174.5,69.5C 174.5,73.5 174.5,77.5 174.5,81.5C 178.5,81.5 182.5,81.5 186.5,81.5C 186.5,93.1667 186.5,104.833 186.5,116.5C 182.5,116.5 178.5,116.5 174.5,116.5C 174.5,112.5 174.5,108.5 174.5,104.5C 166.833,104.5 159.167,104.5 151.5,104.5C 151.5,108.5 151.5,112.5 151.5,116.5C 147.5,116.5 143.5,116.5 139.5,116.5C 139.5,104.833 139.5,93.1667 139.5,81.5C 143.5,81.5 147.5,81.5 151.5,81.5C 151.5,77.5 151.5,73.5 151.5,69.5 Z"/></g>
<g><path style="opacity:1" fill="#533b0b" d="M 127.5,151.5 C 131.5,151.5 135.5,151.5 139.5,151.5C 139.5,155.167 139.5,158.833 139.5,162.5C 135.5,162.5 131.5,162.5 127.5,162.5C 127.5,158.833 127.5,155.167 127.5,151.5 Z"/></g>
<g><path style="opacity:1" fill="#674e1d" d="M 139.5,151.5 C 147.167,151.5 154.833,151.5 162.5,151.5C 162.5,155.167 162.5,158.833 162.5,162.5C 154.833,162.5 147.167,162.5 139.5,162.5C 139.5,158.833 139.5,155.167 139.5,151.5 Z"/></g>
<g><path style="opacity:1" fill="#1c1a13" d="M 162.5,151.5 C 170.5,151.5 178.5,151.5 186.5,151.5C 186.5,155.167 186.5,158.833 186.5,162.5C 178.5,162.5 170.5,162.5 162.5,162.5C 162.5,158.833 162.5,155.167 162.5,151.5 Z"/></g>
<g><path style="opacity:1" fill="#443c2e" d="M 127.5,162.5 C 131.5,162.5 135.5,162.5 139.5,162.5C 147.167,162.5 154.833,162.5 162.5,162.5C 170.5,162.5 178.5,162.5 186.5,162.5C 209.5,162.5 232.5,162.5 255.5,162.5C 255.5,193.5 255.5,224.5 255.5,255.5C 209.167,255.5 162.833,255.5 116.5,255.5C 116.5,224.5 116.5,193.5 116.5,162.5C 120.167,162.5 123.833,162.5 127.5,162.5 Z"/></g>
<g><path style="opacity:1" fill="#855106" d="M 58.5,186.5 C 73.8333,186.5 89.1667,186.5 104.5,186.5C 104.5,201.833 104.5,217.167 104.5,232.5C 89.1667,232.5 73.8333,232.5 58.5,232.5C 58.5,217.167 58.5,201.833 58.5,186.5 Z"/></g>
<g><path style="opacity:1" fill="#a66e1e" d="M 139.5,186.5 C 170.5,186.5 201.5,186.5 232.5,186.5C 232.5,201.833 232.5,217.167 232.5,232.5C 201.5,232.5 170.5,232.5 139.5,232.5C 139.5,217.167 139.5,201.833 139.5,186.5 Z"/></g>
</svg>
