<?xml version="1.0" encoding="UTF-8"?>
<!DOCTYPE svg PUBLIC "-//W3C//DTD SVG 1.1//EN" "http://www.w3.org/Graphics/SVG/1.1/DTD/svg11.dtd">
<svg xmlns="http://www.w3.org/2000/svg" version="1.1" width="1000px" height="857px" style="shape-rendering:geometricPrecision; text-rendering:geometricPrecision; image-rendering:optimizeQuality; fill-rule:evenodd; clip-rule:evenodd" xmlns:xlink="http://www.w3.org/1999/xlink">
<g><path style="opacity:1" fill="#12547c" d="M -0.5,-0.5 C 47.1667,-0.5 94.8333,-0.5 142.5,-0.5C 142.5,166.167 142.5,332.833 142.5,499.5C 142.5,547.167 142.5,594.833 142.5,642.5C 142.5,713.833 142.5,785.167 142.5,856.5C 94.8333,856.5 47.1667,856.5 -0.5,856.5C -0.5,570.833 -0.5,285.167 -0.5,-0.5 Z"/></g>
<g><path style="opacity:1" fill="#176fa4" d="M 142.5,-0.5 C 428.167,-0.5 713.833,-0.5 999.5,-0.5C 999.5,285.167 999.5,570.833 999.5,856.5C 713.833,856.5 428.167,856.5 142.5,856.5C 142.5,785.167 142.5,713.833 142.5,642.5C 166.167,642.5 189.833,642.5 213.5,642.5C 213.5,690.167 213.5,737.833 213.5,785.5C 261.167,785.5 308.833,785.5 356.5,785.5C 380.5,785.5 404.5,785.5 428.5,785.5C 428.5,737.833 428.5,690.167 428.5,642.5C 452.167,642.5 475.833,642.5 499.5,642.5C 499.5,690.167 499.5,737.833 499.5,785.5C 547.167,785.5 594.833,785.5 642.5,785.5C 666.167,785.5 689.833,785.5 713.5,785.5C 713.5,737.833 713.5,690.167 713.5,642.5C 737.5,642.5 761.5,642.5 785.5,642.5C 785.5,594.833 785.5,547.167 785.5,499.5C 713.833,499.5 642.167,499.5 570.5,499.5C 427.833,499.5 285.167,499.5 142.5,499.5C 142.5,332.833 142.5,166.167 142.5,-0.5 Z"/></g>
<g><path style="opacity:1" fill="#fefffe" d="M 856.5,142.5 C 856.5,237.833 856.5,333.167 856.5,428.5C 689.833,428.5 523.167,428.5 356.5,428.5C 356.5,333.167 356.5,237.833 356.5,142.5C 523.167,142.5 689.833,142.5 856.5,142.5 Z"/></g>
<g><path style="opacity:1" fill="#bfc0bf" d="M 856.5,142.5 C 880.5,142.5 904.5,142.5 928.5,142.5C 928.5,237.833 928.5,333.167 928.5,428.5C 904.5,428.5 880.5,428.5 856.5,428.5C 856.5,333.167 856.5,237.833 856.5,142.5 Z"/></g>
<g><path style="opacity:1" fill="#fefffe" d="M 142.5,499.5 C 285.167,499.5 427.833,499.5 570.5,499.5C 570.5,547.167 570.5,594.833 570.5,642.5C 594.5,642.5 618.5,642.5 642.5,642.5C 642.5,690.167 642.5,737.833 642.5,785.5C 594.833,785.5 547.167,785.5 499.5,785.5C 499.5,737.833 499.5,690.167 499.5,642.5C 475.833,642.5 452.167,642.5 428.5,642.5C 404.5,642.5 380.5,642.5 356.5,642.5C 356.5,690.167 356.5,737.833 356.5,785.5C 308.833,785.5 261.167,785.5 213.5,785.5C 213.5,737.833 213.5,690.167 213.5,642.5C 189.833,642.5 166.167,642.5 142.5,642.5C 142.5,594.833 142.5,547.167 142.5,499.5 Z"/></g>
<g><path style="opacity:1" fill="#bfc0bf" d="M 570.5,499.5 C 642.167,499.5 713.833,499.5 785.5,499.5C 785.5,547.167 785.5,594.833 785.5,642.5C 761.5,642.5 737.5,642.5 713.5,642.5C 713.5,690.167 713.5,737.833 713.5,785.5C 689.833,785.5 666.167,785.5 642.5,785.5C 642.5,737.833 642.5,690.167 642.5,642.5C 618.5,642.5 594.5,642.5 570.5,642.5C 570.5,594.833 570.5,547.167 570.5,499.5 Z"/></g>
<g><path style="opacity:1" fill="#bfc0bf" d="M 428.5,642.5 C 428.5,690.167 428.5,737.833 428.5,785.5C 404.5,785.5 380.5,785.5 356.5,785.5C 356.5,737.833 356.5,690.167 356.5,642.5C 380.5,642.5 404.5,642.5 428.5,642.5 Z"/></g>
</svg>
