<svg viewBox="0 0 950 500" xmlns="http://www.w3.org/2000/svg"><rect x="0" y="100" width="100" height="300" fill="#c0c0c0" /><rect x="100" y="350" width="100" height="150" fill="#c0c0c0" /><rect x="400" y="150" width="100" height="250" fill="#c0c0c0" /><rect x="200" y="200" width="100" height="100" fill="#c0c0c0" /><rect x="300" y="50" width="100" height="150" fill="#c0c0c0" /><rect x="100" y="0" width="100" height="100" fill="#c0c0c0" /><rect x="150" y="400" width="300" height="100" fill="#ffffff" /><rect x="450" y="100" width="100" height="300" fill="#ffffff" /><rect x="50" y="100" width="100" height="300" fill="#ffffff" /><rect x="150" y="0" width="300" height="100" fill="#ffffff" /><rect x="150" y="300" width="100" height="150" fill="#ffffff" /><rect x="100" y="300" width="100" height="100" fill="#ffffff" /><rect x="250" y="200" width="100" height="100" fill="#ffffff" /><rect x="350" y="50" width="100" height="150" fill="#ffffff" /><rect x="350" y="100" width="150" height="100" fill="#ffffff" /><rect x="700" y="0" width="100" height="450" fill="#c0c0c0" /><rect x="600" y="400" width="100" height="100" fill="#c0c0c0" /><rect x="600" y="100" width="100" height="100" fill="#c0c0c0" /><rect x="650" y="400" width="300" height="100" fill="#ffffff" /><rect x="750" y="0" width="100" height="450" fill="#ffffff" /><rect x="650" y="100" width="150" height="100" fill="#ffffff" /></svg>