<?xml version="1.0" encoding="UTF-8"?>
<!DOCTYPE svg PUBLIC "-//W3C//DTD SVG 1.1//EN" "http://www.w3.org/Graphics/SVG/1.1/DTD/svg11.dtd">
<svg xmlns="http://www.w3.org/2000/svg" version="1.1" width="1000px" height="933px" style="shape-rendering:geometricPrecision; text-rendering:geometricPrecision; image-rendering:optimizeQuality; fill-rule:evenodd; clip-rule:evenodd" xmlns:xlink="http://www.w3.org/1999/xlink">
<g><path style="opacity:1" fill="#582b8e" d="M 599.5,-0.5 C 643.833,-0.5 688.167,-0.5 732.5,-0.5C 732.5,43.8333 732.5,88.1667 732.5,132.5C 688.167,132.5 643.833,132.5 599.5,132.5C 599.5,88.1667 599.5,43.8333 599.5,-0.5 Z"/></g>
<g><path style="opacity:1" fill="#34216b" d="M 199.5,132.5 C 199.5,177.167 199.5,221.833 199.5,266.5C 177.167,266.5 154.833,266.5 132.5,266.5C 132.5,221.833 132.5,177.167 132.5,132.5C 154.833,132.5 177.167,132.5 199.5,132.5 Z"/></g>
<g><path style="opacity:1" fill="#582b8e" d="M 199.5,132.5 C 332.833,132.5 466.167,132.5 599.5,132.5C 599.5,177.167 599.5,221.833 599.5,266.5C 577.167,266.5 554.833,266.5 532.5,266.5C 421.5,266.5 310.5,266.5 199.5,266.5C 199.5,221.833 199.5,177.167 199.5,132.5 Z"/></g>
<g><path style="opacity:1" fill="#582b8e" d="M 999.5,132.5 C 999.5,265.833 999.5,399.167 999.5,532.5C 955.167,532.5 910.833,532.5 866.5,532.5C 866.5,576.833 866.5,621.167 866.5,665.5C 688.5,665.5 510.5,665.5 332.5,665.5C 332.5,576.833 332.5,488.167 332.5,399.5C 377.167,399.5 421.833,399.5 466.5,399.5C 466.5,443.833 466.5,488.167 466.5,532.5C 488.5,532.5 510.5,532.5 532.5,532.5C 554.833,532.5 577.167,532.5 599.5,532.5C 599.5,443.833 599.5,355.167 599.5,266.5C 688.5,266.5 777.5,266.5 866.5,266.5C 866.5,221.833 866.5,177.167 866.5,132.5C 910.833,132.5 955.167,132.5 999.5,132.5 Z"/></g>
<g><path style="opacity:1" fill="#34216b" d="M -0.5,266.5 C 21.8333,266.5 44.1667,266.5 66.5,266.5C 66.5,444.167 66.5,621.833 66.5,799.5C 44.1667,799.5 21.8333,799.5 -0.5,799.5C -0.5,621.833 -0.5,444.167 -0.5,266.5 Z"/></g>
<g><path style="opacity:1" fill="#582b8e" d="M 66.5,266.5 C 88.5,266.5 110.5,266.5 132.5,266.5C 154.833,266.5 177.167,266.5 199.5,266.5C 199.5,444.167 199.5,621.833 199.5,799.5C 177.167,799.5 154.833,799.5 132.5,799.5C 110.5,799.5 88.5,799.5 66.5,799.5C 66.5,621.833 66.5,444.167 66.5,266.5 Z"/></g>
<g><path style="opacity:1" fill="#34216b" d="M 532.5,266.5 C 554.833,266.5 577.167,266.5 599.5,266.5C 599.5,355.167 599.5,443.833 599.5,532.5C 577.167,532.5 554.833,532.5 532.5,532.5C 532.5,443.833 532.5,355.167 532.5,266.5 Z"/></g>
<g><path style="opacity:1" fill="#34216b" d="M 332.5,399.5 C 332.5,488.167 332.5,576.833 332.5,665.5C 310.5,665.5 288.5,665.5 266.5,665.5C 266.5,576.833 266.5,488.167 266.5,399.5C 288.5,399.5 310.5,399.5 332.5,399.5 Z"/></g>
<g><path style="opacity:1" fill="#582b8e" d="M 866.5,665.5 C 910.833,665.5 955.167,665.5 999.5,665.5C 999.5,710.167 999.5,754.833 999.5,799.5C 955.167,799.5 910.833,799.5 866.5,799.5C 866.5,754.833 866.5,710.167 866.5,665.5 Z"/></g>
<g><path style="opacity:1" fill="#34216b" d="M 132.5,799.5 C 154.833,799.5 177.167,799.5 199.5,799.5C 199.5,843.833 199.5,888.167 199.5,932.5C 177.167,932.5 154.833,932.5 132.5,932.5C 132.5,888.167 132.5,843.833 132.5,799.5 Z"/></g>
<g><path style="opacity:1" fill="#582b8e" d="M 199.5,799.5 C 421.833,799.5 644.167,799.5 866.5,799.5C 866.5,843.833 866.5,888.167 866.5,932.5C 644.167,932.5 421.833,932.5 199.5,932.5C 199.5,888.167 199.5,843.833 199.5,799.5 Z"/></g>
</svg>
