<svg viewBox="0 0 1100 1050" xmlns="http://www.w3.org/2000/svg"><rect x="200" y="50" width="600" height="650" fill="#1d1a14" /><rect x="300" y="150" width="400" height="400" fill="#693f05" /><rect x="0" y="50" width="250" height="600" fill="#1d1a14" /><rect x="50" y="150" width="100" height="400" fill="#865107" /><rect x="400" y="0" width="200" height="100" fill="#767676" /><rect x="550" y="0" width="100" height="100" fill="#a5a5a5" /><rect x="200" y="200" width="50" height="600" fill="#c0c0c0" /><rect x="200" y="700" width="350" height="100" fill="#c0c0c0" /><rect x="200" y="200" width="350" height="100" fill="#c0c0c0" /><rect x="450" y="200" width="100" height="600" fill="#c0c0c0" /><rect x="500" y="200" width="100" height="600" fill="#ffffff" /><rect x="500" y="200" width="600" height="100" fill="#ffffff" /><rect x="1000" y="200" width="100" height="600" fill="#ffffff" /><rect x="500" y="700" width="600" height="100" fill="#ffffff" /><rect x="200" y="650" width="350" height="400" fill="#1d1a14" /><rect x="250" y="750" width="200" height="200" fill="#865107" /><rect x="500" y="650" width="600" height="400" fill="#453c2f" /><rect x="600" y="750" width="400" height="200" fill="#a76e1f" /></svg>