<?xml version="1.0" encoding="UTF-8"?>
<!DOCTYPE svg PUBLIC "-//W3C//DTD SVG 1.1//EN" "http://www.w3.org/Graphics/SVG/1.1/DTD/svg11.dtd">
<svg xmlns="http://www.w3.org/2000/svg" version="1.1" width="1000px" height="913px" style="shape-rendering:geometricPrecision; text-rendering:geometricPrecision; image-rendering:optimizeQuality; fill-rule:evenodd; clip-rule:evenodd" xmlns:xlink="http://www.w3.org/1999/xlink">
<g><path style="opacity:1" fill="#757675" d="M 478.5,0.5 C 478.5,29.5 478.5,58.5 478.5,87.5C 435.167,87.5 391.833,87.5 348.5,87.5C 348.5,73.1667 348.5,58.8333 348.5,44.5C 348.5,29.8333 348.5,15.1667 348.5,0.5C 391.833,0.5 435.167,0.5 478.5,0.5 Z"/></g>
<g><path style="opacity:1" fill="#a4a5a4" d="M 478.5,0.5 C 507.5,0.5 536.5,0.5 565.5,0.5C 565.5,15.1667 565.5,29.8333 565.5,44.5C 565.5,58.8333 565.5,73.1667 565.5,87.5C 536.5,87.5 507.5,87.5 478.5,87.5C 478.5,58.5 478.5,29.5 478.5,0.5 Z"/></g>
<g><path style="opacity:1" fill="#1c1a13" d="M 348.5,44.5 C 348.5,58.8333 348.5,73.1667 348.5,87.5C 391.833,87.5 435.167,87.5 478.5,87.5C 507.5,87.5 536.5,87.5 565.5,87.5C 565.5,73.1667 565.5,58.8333 565.5,44.5C 608.833,44.5 652.167,44.5 695.5,44.5C 695.5,87.8333 695.5,131.167 695.5,174.5C 681.167,174.5 666.833,174.5 652.5,174.5C 637.833,174.5 623.167,174.5 608.5,174.5C 608.5,160.167 608.5,145.833 608.5,131.5C 492.833,131.5 377.167,131.5 261.5,131.5C 261.5,145.833 261.5,160.167 261.5,174.5C 246.833,174.5 232.167,174.5 217.5,174.5C 217.5,232.5 217.5,290.5 217.5,348.5C 217.5,406.5 217.5,464.5 217.5,522.5C 217.5,536.833 217.5,551.167 217.5,565.5C 145.167,565.5 72.8333,565.5 0.5,565.5C 0.5,391.833 0.5,218.167 0.5,44.5C 116.5,44.5 232.5,44.5 348.5,44.5 Z"/></g>
<g><path style="opacity:1" fill="#855106" d="M 43.5,131.5 C 72.5,131.5 101.5,131.5 130.5,131.5C 130.5,247.167 130.5,362.833 130.5,478.5C 101.5,478.5 72.5,478.5 43.5,478.5C 43.5,362.833 43.5,247.167 43.5,131.5 Z"/></g>
<g><path style="opacity:1" fill="#683f04" d="M 608.5,174.5 C 594.167,174.5 579.833,174.5 565.5,174.5C 536.5,174.5 507.5,174.5 478.5,174.5C 449.5,174.5 420.5,174.5 391.5,174.5C 362.5,174.5 333.5,174.5 304.5,174.5C 290.167,174.5 275.833,174.5 261.5,174.5C 261.5,160.167 261.5,145.833 261.5,131.5C 377.167,131.5 492.833,131.5 608.5,131.5C 608.5,145.833 608.5,160.167 608.5,174.5 Z"/></g>
<g><path style="opacity:1" fill="#494a49" d="M 261.5,174.5 C 261.5,203.5 261.5,232.5 261.5,261.5C 261.5,290.5 261.5,319.5 261.5,348.5C 246.833,348.5 232.167,348.5 217.5,348.5C 217.5,290.5 217.5,232.5 217.5,174.5C 232.167,174.5 246.833,174.5 261.5,174.5 Z"/></g>
<g><path style="opacity:1" fill="#666666" d="M 261.5,174.5 C 275.833,174.5 290.167,174.5 304.5,174.5C 304.5,203.5 304.5,232.5 304.5,261.5C 290.167,261.5 275.833,261.5 261.5,261.5C 261.5,232.5 261.5,203.5 261.5,174.5 Z"/></g>
<g><path style="opacity:1" fill="#7c7d7c" d="M 304.5,174.5 C 333.5,174.5 362.5,174.5 391.5,174.5C 391.5,203.5 391.5,232.5 391.5,261.5C 362.5,261.5 333.5,261.5 304.5,261.5C 304.5,232.5 304.5,203.5 304.5,174.5 Z"/></g>
<g><path style="opacity:1" fill="#666666" d="M 391.5,174.5 C 420.5,174.5 449.5,174.5 478.5,174.5C 478.5,203.5 478.5,232.5 478.5,261.5C 464.167,261.5 449.833,261.5 435.5,261.5C 435.5,290.5 435.5,319.5 435.5,348.5C 406.5,348.5 377.5,348.5 348.5,348.5C 348.5,377.5 348.5,406.5 348.5,435.5C 333.833,435.5 319.167,435.5 304.5,435.5C 304.5,406.5 304.5,377.5 304.5,348.5C 304.5,319.5 304.5,290.5 304.5,261.5C 333.5,261.5 362.5,261.5 391.5,261.5C 391.5,232.5 391.5,203.5 391.5,174.5 Z"/></g>
<g><path style="opacity:1" fill="#606160" d="M 478.5,174.5 C 507.5,174.5 536.5,174.5 565.5,174.5C 565.5,203.5 565.5,232.5 565.5,261.5C 565.5,290.5 565.5,319.5 565.5,348.5C 536.5,348.5 507.5,348.5 478.5,348.5C 478.5,319.5 478.5,290.5 478.5,261.5C 478.5,232.5 478.5,203.5 478.5,174.5 Z"/></g>
<g><path style="opacity:1" fill="#878787" d="M 565.5,174.5 C 579.833,174.5 594.167,174.5 608.5,174.5C 623.167,174.5 637.833,174.5 652.5,174.5C 652.5,203.5 652.5,232.5 652.5,261.5C 623.5,261.5 594.5,261.5 565.5,261.5C 565.5,232.5 565.5,203.5 565.5,174.5 Z"/></g>
<g><path style="opacity:1" fill="#a5a6a5" d="M 652.5,174.5 C 666.833,174.5 681.167,174.5 695.5,174.5C 739.167,174.5 782.833,174.5 826.5,174.5C 826.5,203.5 826.5,232.5 826.5,261.5C 768.5,261.5 710.5,261.5 652.5,261.5C 652.5,232.5 652.5,203.5 652.5,174.5 Z"/></g>
<g><path style="opacity:1" fill="#878787" d="M 826.5,174.5 C 884.167,174.5 941.833,174.5 999.5,174.5C 999.5,203.5 999.5,232.5 999.5,261.5C 970.833,261.5 942.167,261.5 913.5,261.5C 913.5,290.5 913.5,319.5 913.5,348.5C 855.5,348.5 797.5,348.5 739.5,348.5C 739.5,377.5 739.5,406.5 739.5,435.5C 710.5,435.5 681.5,435.5 652.5,435.5C 652.5,406.5 652.5,377.5 652.5,348.5C 652.5,319.5 652.5,290.5 652.5,261.5C 710.5,261.5 768.5,261.5 826.5,261.5C 826.5,232.5 826.5,203.5 826.5,174.5 Z"/></g>
<g><path style="opacity:1" fill="#7c7d7c" d="M 261.5,261.5 C 275.833,261.5 290.167,261.5 304.5,261.5C 304.5,290.5 304.5,319.5 304.5,348.5C 290.167,348.5 275.833,348.5 261.5,348.5C 261.5,319.5 261.5,290.5 261.5,261.5 Z"/></g>
<g><path style="opacity:1" fill="#494a49" d="M 478.5,261.5 C 478.5,290.5 478.5,319.5 478.5,348.5C 464.167,348.5 449.833,348.5 435.5,348.5C 435.5,319.5 435.5,290.5 435.5,261.5C 449.833,261.5 464.167,261.5 478.5,261.5 Z"/></g>
<g><path style="opacity:1" fill="#a5a6a5" d="M 565.5,261.5 C 594.5,261.5 623.5,261.5 652.5,261.5C 652.5,290.5 652.5,319.5 652.5,348.5C 623.5,348.5 594.5,348.5 565.5,348.5C 565.5,319.5 565.5,290.5 565.5,261.5 Z"/></g>
<g><path style="opacity:1" fill="#606160" d="M 999.5,261.5 C 999.5,290.5 999.5,319.5 999.5,348.5C 970.833,348.5 942.167,348.5 913.5,348.5C 913.5,319.5 913.5,290.5 913.5,261.5C 942.167,261.5 970.833,261.5 999.5,261.5 Z"/></g>
<g><path style="opacity:1" fill="#7c7d7c" d="M 217.5,348.5 C 232.167,348.5 246.833,348.5 261.5,348.5C 261.5,377.5 261.5,406.5 261.5,435.5C 261.5,464.5 261.5,493.5 261.5,522.5C 246.833,522.5 232.167,522.5 217.5,522.5C 217.5,464.5 217.5,406.5 217.5,348.5 Z"/></g>
<g><path style="opacity:1" fill="#494a49" d="M 261.5,348.5 C 275.833,348.5 290.167,348.5 304.5,348.5C 304.5,377.5 304.5,406.5 304.5,435.5C 290.167,435.5 275.833,435.5 261.5,435.5C 261.5,406.5 261.5,377.5 261.5,348.5 Z"/></g>
<g><path style="opacity:1" fill="#494a49" d="M 435.5,348.5 C 435.5,377.5 435.5,406.5 435.5,435.5C 420.833,435.5 406.167,435.5 391.5,435.5C 377.167,435.5 362.833,435.5 348.5,435.5C 348.5,406.5 348.5,377.5 348.5,348.5C 377.5,348.5 406.5,348.5 435.5,348.5 Z"/></g>
<g><path style="opacity:1" fill="#666666" d="M 435.5,348.5 C 449.833,348.5 464.167,348.5 478.5,348.5C 478.5,377.5 478.5,406.5 478.5,435.5C 464.167,435.5 449.833,435.5 435.5,435.5C 435.5,406.5 435.5,377.5 435.5,348.5 Z"/></g>
<g><path style="opacity:1" fill="#a5a6a5" d="M 478.5,348.5 C 507.5,348.5 536.5,348.5 565.5,348.5C 565.5,377.5 565.5,406.5 565.5,435.5C 565.5,464.5 565.5,493.5 565.5,522.5C 536.5,522.5 507.5,522.5 478.5,522.5C 478.5,493.5 478.5,464.5 478.5,435.5C 478.5,406.5 478.5,377.5 478.5,348.5 Z"/></g>
<g><path style="opacity:1" fill="#606160" d="M 565.5,348.5 C 594.5,348.5 623.5,348.5 652.5,348.5C 652.5,377.5 652.5,406.5 652.5,435.5C 623.5,435.5 594.5,435.5 565.5,435.5C 565.5,406.5 565.5,377.5 565.5,348.5 Z"/></g>
<g><path style="opacity:1" fill="#606160" d="M 913.5,348.5 C 913.5,377.5 913.5,406.5 913.5,435.5C 884.5,435.5 855.5,435.5 826.5,435.5C 797.5,435.5 768.5,435.5 739.5,435.5C 739.5,406.5 739.5,377.5 739.5,348.5C 797.5,348.5 855.5,348.5 913.5,348.5 Z"/></g>
<g><path style="opacity:1" fill="#878787" d="M 913.5,348.5 C 942.167,348.5 970.833,348.5 999.5,348.5C 999.5,377.5 999.5,406.5 999.5,435.5C 970.833,435.5 942.167,435.5 913.5,435.5C 913.5,406.5 913.5,377.5 913.5,348.5 Z"/></g>
<g><path style="opacity:1" fill="#666666" d="M 261.5,435.5 C 275.833,435.5 290.167,435.5 304.5,435.5C 304.5,464.5 304.5,493.5 304.5,522.5C 290.167,522.5 275.833,522.5 261.5,522.5C 261.5,493.5 261.5,464.5 261.5,435.5 Z"/></g>
<g><path style="opacity:1" fill="#494a49" d="M 304.5,435.5 C 319.167,435.5 333.833,435.5 348.5,435.5C 348.5,464.5 348.5,493.5 348.5,522.5C 333.833,522.5 319.167,522.5 304.5,522.5C 304.5,493.5 304.5,464.5 304.5,435.5 Z"/></g>
<g><path style="opacity:1" fill="#666666" d="M 348.5,435.5 C 362.833,435.5 377.167,435.5 391.5,435.5C 391.5,464.5 391.5,493.5 391.5,522.5C 377.167,522.5 362.833,522.5 348.5,522.5C 348.5,493.5 348.5,464.5 348.5,435.5 Z"/></g>
<g><path style="opacity:1" fill="#7c7d7c" d="M 391.5,435.5 C 406.167,435.5 420.833,435.5 435.5,435.5C 435.5,464.5 435.5,493.5 435.5,522.5C 420.833,522.5 406.167,522.5 391.5,522.5C 391.5,493.5 391.5,464.5 391.5,435.5 Z"/></g>
<g><path style="opacity:1" fill="#494a49" d="M 435.5,435.5 C 449.833,435.5 464.167,435.5 478.5,435.5C 478.5,464.5 478.5,493.5 478.5,522.5C 464.167,522.5 449.833,522.5 435.5,522.5C 435.5,493.5 435.5,464.5 435.5,435.5 Z"/></g>
<g><path style="opacity:1" fill="#878787" d="M 565.5,435.5 C 594.5,435.5 623.5,435.5 652.5,435.5C 652.5,464.5 652.5,493.5 652.5,522.5C 623.5,522.5 594.5,522.5 565.5,522.5C 565.5,493.5 565.5,464.5 565.5,435.5 Z"/></g>
<g><path style="opacity:1" fill="#606160" d="M 652.5,435.5 C 681.5,435.5 710.5,435.5 739.5,435.5C 739.5,464.5 739.5,493.5 739.5,522.5C 710.5,522.5 681.5,522.5 652.5,522.5C 652.5,493.5 652.5,464.5 652.5,435.5 Z"/></g>
<g><path style="opacity:1" fill="#878787" d="M 739.5,435.5 C 768.5,435.5 797.5,435.5 826.5,435.5C 826.5,464.5 826.5,493.5 826.5,522.5C 797.5,522.5 768.5,522.5 739.5,522.5C 739.5,493.5 739.5,464.5 739.5,435.5 Z"/></g>
<g><path style="opacity:1" fill="#a5a6a5" d="M 826.5,435.5 C 855.5,435.5 884.5,435.5 913.5,435.5C 913.5,464.5 913.5,493.5 913.5,522.5C 884.5,522.5 855.5,522.5 826.5,522.5C 826.5,493.5 826.5,464.5 826.5,435.5 Z"/></g>
<g><path style="opacity:1" fill="#606160" d="M 913.5,435.5 C 942.167,435.5 970.833,435.5 999.5,435.5C 999.5,464.5 999.5,493.5 999.5,522.5C 970.833,522.5 942.167,522.5 913.5,522.5C 913.5,493.5 913.5,464.5 913.5,435.5 Z"/></g>
<g><path style="opacity:1" fill="#666666" d="M 217.5,522.5 C 232.167,522.5 246.833,522.5 261.5,522.5C 261.5,536.833 261.5,551.167 261.5,565.5C 246.833,565.5 232.167,565.5 217.5,565.5C 217.5,551.167 217.5,536.833 217.5,522.5 Z"/></g>
<g><path style="opacity:1" fill="#494a49" d="M 261.5,522.5 C 275.833,522.5 290.167,522.5 304.5,522.5C 304.5,536.833 304.5,551.167 304.5,565.5C 290.167,565.5 275.833,565.5 261.5,565.5C 261.5,551.167 261.5,536.833 261.5,522.5 Z"/></g>
<g><path style="opacity:1" fill="#7c7d7c" d="M 304.5,522.5 C 319.167,522.5 333.833,522.5 348.5,522.5C 362.833,522.5 377.167,522.5 391.5,522.5C 391.5,536.833 391.5,551.167 391.5,565.5C 362.5,565.5 333.5,565.5 304.5,565.5C 304.5,551.167 304.5,536.833 304.5,522.5 Z"/></g>
<g><path style="opacity:1" fill="#666666" d="M 391.5,522.5 C 406.167,522.5 420.833,522.5 435.5,522.5C 449.833,522.5 464.167,522.5 478.5,522.5C 478.5,536.833 478.5,551.167 478.5,565.5C 449.5,565.5 420.5,565.5 391.5,565.5C 391.5,551.167 391.5,536.833 391.5,522.5 Z"/></g>
<g><path style="opacity:1" fill="#878787" d="M 478.5,522.5 C 507.5,522.5 536.5,522.5 565.5,522.5C 565.5,536.833 565.5,551.167 565.5,565.5C 536.5,565.5 507.5,565.5 478.5,565.5C 478.5,551.167 478.5,536.833 478.5,522.5 Z"/></g>
<g><path style="opacity:1" fill="#606160" d="M 565.5,522.5 C 594.5,522.5 623.5,522.5 652.5,522.5C 652.5,536.833 652.5,551.167 652.5,565.5C 623.5,565.5 594.5,565.5 565.5,565.5C 565.5,551.167 565.5,536.833 565.5,522.5 Z"/></g>
<g><path style="opacity:1" fill="#a5a6a5" d="M 652.5,522.5 C 681.5,522.5 710.5,522.5 739.5,522.5C 768.5,522.5 797.5,522.5 826.5,522.5C 826.5,536.833 826.5,551.167 826.5,565.5C 768.5,565.5 710.5,565.5 652.5,565.5C 652.5,551.167 652.5,536.833 652.5,522.5 Z"/></g>
<g><path style="opacity:1" fill="#878787" d="M 826.5,522.5 C 855.5,522.5 884.5,522.5 913.5,522.5C 942.167,522.5 970.833,522.5 999.5,522.5C 999.5,536.833 999.5,551.167 999.5,565.5C 941.833,565.5 884.167,565.5 826.5,565.5C 826.5,551.167 826.5,536.833 826.5,522.5 Z"/></g>
<g><path style="opacity:1" fill="#1c1a13" d="M 217.5,565.5 C 232.167,565.5 246.833,565.5 261.5,565.5C 275.833,565.5 290.167,565.5 304.5,565.5C 333.5,565.5 362.5,565.5 391.5,565.5C 420.5,565.5 449.5,565.5 478.5,565.5C 478.5,681.167 478.5,796.833 478.5,912.5C 391.5,912.5 304.5,912.5 217.5,912.5C 217.5,796.833 217.5,681.167 217.5,565.5 Z"/></g>
<g><path style="opacity:1" fill="#443c2e" d="M 478.5,565.5 C 507.5,565.5 536.5,565.5 565.5,565.5C 594.5,565.5 623.5,565.5 652.5,565.5C 710.5,565.5 768.5,565.5 826.5,565.5C 884.167,565.5 941.833,565.5 999.5,565.5C 999.5,681.167 999.5,796.833 999.5,912.5C 825.833,912.5 652.167,912.5 478.5,912.5C 478.5,796.833 478.5,681.167 478.5,565.5 Z"/></g>
<g><path style="opacity:1" fill="#855106" d="M 261.5,652.5 C 319.5,652.5 377.5,652.5 435.5,652.5C 435.5,710.5 435.5,768.5 435.5,826.5C 377.5,826.5 319.5,826.5 261.5,826.5C 261.5,768.5 261.5,710.5 261.5,652.5 Z"/></g>
<g><path style="opacity:1" fill="#a66e1e" d="M 565.5,652.5 C 681.5,652.5 797.5,652.5 913.5,652.5C 913.5,710.5 913.5,768.5 913.5,826.5C 797.5,826.5 681.5,826.5 565.5,826.5C 565.5,768.5 565.5,710.5 565.5,652.5 Z"/></g>
</svg>
