<svg viewBox="0 0 900 600" xmlns="http://www.w3.org/2000/svg"><rect x="550" y="150" width="200" height="100" fill="#9f844d" /><rect x="550" y="350" width="200" height="100" fill="#9f844d" /><rect x="300" y="0" width="150" height="600" fill="#7e6237" /><rect x="400" y="0" width="200" height="600" fill="#c29d62" /><rect x="300" y="100" width="150" height="100" fill="#67502c" /><rect x="400" y="100" width="200" height="100" fill="#9f844d" /><rect x="300" y="300" width="100" height="100" fill="#67502c" /><rect x="400" y="300" width="200" height="100" fill="#9f844d" /><rect x="300" y="500" width="150" height="100" fill="#67502c" /><rect x="400" y="500" width="200" height="100" fill="#9f844d" /><rect x="100" y="150" width="100" height="100" fill="#67502c" /><rect x="150" y="150" width="200" height="100" fill="#9f844d" /><rect x="100" y="350" width="100" height="100" fill="#67502c" /><rect x="150" y="350" width="200" height="100" fill="#9f844d" /><g opacity=".4980392156862745"><rect x="0" y="300" width="450" height="300" fill="#0036bf" /><rect x="400" y="300" width="500" height="300" fill="#0049ff" /></g></svg>