<?xml version="1.0" encoding="UTF-8"?>
<!DOCTYPE svg PUBLIC "-//W3C//DTD SVG 1.1//EN" "http://www.w3.org/Graphics/SVG/1.1/DTD/svg11.dtd">
<svg xmlns="http://www.w3.org/2000/svg" version="1.1" width="1000px" height="666px" style="shape-rendering:geometricPrecision; text-rendering:geometricPrecision; image-rendering:optimizeQuality; fill-rule:evenodd; clip-rule:evenodd" xmlns:xlink="http://www.w3.org/1999/xlink">
<g><path style="opacity:1" fill="#494a49" d="M -0.5,0.5 C 18.1667,0.5 36.8333,0.5 55.5,0.5C 55.5,37.5 55.5,74.5 55.5,111.5C 55.5,148.5 55.5,185.5 55.5,222.5C 36.8333,222.5 18.1667,222.5 -0.5,222.5C -0.5,148.5 -0.5,74.5 -0.5,0.5 Z"/></g>
<g><path style="opacity:1" fill="#666666" d="M 55.5,0.5 C 74.1667,0.5 92.8333,0.5 111.5,0.5C 111.5,37.5 111.5,74.5 111.5,111.5C 92.8333,111.5 74.1667,111.5 55.5,111.5C 55.5,74.5 55.5,37.5 55.5,0.5 Z"/></g>
<g><path style="opacity:1" fill="#7c7d7c" d="M 111.5,0.5 C 148.5,0.5 185.5,0.5 222.5,0.5C 222.5,37.5 222.5,74.5 222.5,111.5C 185.5,111.5 148.5,111.5 111.5,111.5C 111.5,74.5 111.5,37.5 111.5,0.5 Z"/></g>
<g><path style="opacity:1" fill="#666666" d="M 222.5,0.5 C 259.5,0.5 296.5,0.5 333.5,0.5C 333.5,37.5 333.5,74.5 333.5,111.5C 314.833,111.5 296.167,111.5 277.5,111.5C 277.5,148.5 277.5,185.5 277.5,222.5C 240.5,222.5 203.5,222.5 166.5,222.5C 166.5,259.5 166.5,296.5 166.5,333.5C 148.167,333.5 129.833,333.5 111.5,333.5C 111.5,296.5 111.5,259.5 111.5,222.5C 111.5,185.5 111.5,148.5 111.5,111.5C 148.5,111.5 185.5,111.5 222.5,111.5C 222.5,74.5 222.5,37.5 222.5,0.5 Z"/></g>
<g><path style="opacity:1" fill="#606160" d="M 333.5,0.5 C 370.5,0.5 407.5,0.5 444.5,0.5C 444.5,37.5 444.5,74.5 444.5,111.5C 444.5,148.5 444.5,185.5 444.5,222.5C 407.5,222.5 370.5,222.5 333.5,222.5C 333.5,185.5 333.5,148.5 333.5,111.5C 333.5,74.5 333.5,37.5 333.5,0.5 Z"/></g>
<g><path style="opacity:1" fill="#878787" d="M 444.5,0.5 C 481.5,0.5 518.5,0.5 555.5,0.5C 555.5,37.5 555.5,74.5 555.5,111.5C 518.5,111.5 481.5,111.5 444.5,111.5C 444.5,74.5 444.5,37.5 444.5,0.5 Z"/></g>
<g><path style="opacity:1" fill="#a5a6a5" d="M 555.5,0.5 C 629.5,0.5 703.5,0.5 777.5,0.5C 777.5,37.5 777.5,74.5 777.5,111.5C 703.5,111.5 629.5,111.5 555.5,111.5C 555.5,74.5 555.5,37.5 555.5,0.5 Z"/></g>
<g><path style="opacity:1" fill="#878787" d="M 777.5,0.5 C 851.5,0.5 925.5,0.5 999.5,0.5C 999.5,37.5 999.5,74.5 999.5,111.5C 962.5,111.5 925.5,111.5 888.5,111.5C 888.5,148.5 888.5,185.5 888.5,222.5C 814.5,222.5 740.5,222.5 666.5,222.5C 666.5,259.5 666.5,296.5 666.5,333.5C 629.5,333.5 592.5,333.5 555.5,333.5C 555.5,296.5 555.5,259.5 555.5,222.5C 555.5,185.5 555.5,148.5 555.5,111.5C 629.5,111.5 703.5,111.5 777.5,111.5C 777.5,74.5 777.5,37.5 777.5,0.5 Z"/></g>
<g><path style="opacity:1" fill="#7c7d7c" d="M 55.5,111.5 C 74.1667,111.5 92.8333,111.5 111.5,111.5C 111.5,148.5 111.5,185.5 111.5,222.5C 92.8333,222.5 74.1667,222.5 55.5,222.5C 55.5,185.5 55.5,148.5 55.5,111.5 Z"/></g>
<g><path style="opacity:1" fill="#494a49" d="M 333.5,111.5 C 333.5,148.5 333.5,185.5 333.5,222.5C 314.833,222.5 296.167,222.5 277.5,222.5C 277.5,185.5 277.5,148.5 277.5,111.5C 296.167,111.5 314.833,111.5 333.5,111.5 Z"/></g>
<g><path style="opacity:1" fill="#a5a6a5" d="M 444.5,111.5 C 481.5,111.5 518.5,111.5 555.5,111.5C 555.5,148.5 555.5,185.5 555.5,222.5C 518.5,222.5 481.5,222.5 444.5,222.5C 444.5,185.5 444.5,148.5 444.5,111.5 Z"/></g>
<g><path style="opacity:1" fill="#606160" d="M 999.5,111.5 C 999.5,148.5 999.5,185.5 999.5,222.5C 962.5,222.5 925.5,222.5 888.5,222.5C 888.5,185.5 888.5,148.5 888.5,111.5C 925.5,111.5 962.5,111.5 999.5,111.5 Z"/></g>
<g><path style="opacity:1" fill="#7c7d7c" d="M -0.5,222.5 C 18.1667,222.5 36.8333,222.5 55.5,222.5C 55.5,259.5 55.5,296.5 55.5,333.5C 55.5,370.5 55.5,407.5 55.5,444.5C 36.8333,444.5 18.1667,444.5 -0.5,444.5C -0.5,370.5 -0.5,296.5 -0.5,222.5 Z"/></g>
<g><path style="opacity:1" fill="#494a49" d="M 55.5,222.5 C 74.1667,222.5 92.8333,222.5 111.5,222.5C 111.5,259.5 111.5,296.5 111.5,333.5C 92.8333,333.5 74.1667,333.5 55.5,333.5C 55.5,296.5 55.5,259.5 55.5,222.5 Z"/></g>
<g><path style="opacity:1" fill="#494a49" d="M 277.5,222.5 C 277.5,259.5 277.5,296.5 277.5,333.5C 259.167,333.5 240.833,333.5 222.5,333.5C 203.833,333.5 185.167,333.5 166.5,333.5C 166.5,296.5 166.5,259.5 166.5,222.5C 203.5,222.5 240.5,222.5 277.5,222.5 Z"/></g>
<g><path style="opacity:1" fill="#666666" d="M 277.5,222.5 C 296.167,222.5 314.833,222.5 333.5,222.5C 333.5,259.5 333.5,296.5 333.5,333.5C 314.833,333.5 296.167,333.5 277.5,333.5C 277.5,296.5 277.5,259.5 277.5,222.5 Z"/></g>
<g><path style="opacity:1" fill="#a5a6a5" d="M 333.5,222.5 C 370.5,222.5 407.5,222.5 444.5,222.5C 444.5,259.5 444.5,296.5 444.5,333.5C 444.5,370.5 444.5,407.5 444.5,444.5C 407.5,444.5 370.5,444.5 333.5,444.5C 333.5,407.5 333.5,370.5 333.5,333.5C 333.5,296.5 333.5,259.5 333.5,222.5 Z"/></g>
<g><path style="opacity:1" fill="#606160" d="M 444.5,222.5 C 481.5,222.5 518.5,222.5 555.5,222.5C 555.5,259.5 555.5,296.5 555.5,333.5C 518.5,333.5 481.5,333.5 444.5,333.5C 444.5,296.5 444.5,259.5 444.5,222.5 Z"/></g>
<g><path style="opacity:1" fill="#606160" d="M 888.5,222.5 C 888.5,259.5 888.5,296.5 888.5,333.5C 851.5,333.5 814.5,333.5 777.5,333.5C 740.5,333.5 703.5,333.5 666.5,333.5C 666.5,296.5 666.5,259.5 666.5,222.5C 740.5,222.5 814.5,222.5 888.5,222.5 Z"/></g>
<g><path style="opacity:1" fill="#878787" d="M 888.5,222.5 C 925.5,222.5 962.5,222.5 999.5,222.5C 999.5,259.5 999.5,296.5 999.5,333.5C 962.5,333.5 925.5,333.5 888.5,333.5C 888.5,296.5 888.5,259.5 888.5,222.5 Z"/></g>
<g><path style="opacity:1" fill="#666666" d="M 55.5,333.5 C 74.1667,333.5 92.8333,333.5 111.5,333.5C 111.5,370.5 111.5,407.5 111.5,444.5C 92.8333,444.5 74.1667,444.5 55.5,444.5C 55.5,407.5 55.5,370.5 55.5,333.5 Z"/></g>
<g><path style="opacity:1" fill="#494a49" d="M 111.5,333.5 C 129.833,333.5 148.167,333.5 166.5,333.5C 166.5,370.5 166.5,407.5 166.5,444.5C 148.167,444.5 129.833,444.5 111.5,444.5C 111.5,407.5 111.5,370.5 111.5,333.5 Z"/></g>
<g><path style="opacity:1" fill="#666666" d="M 166.5,333.5 C 185.167,333.5 203.833,333.5 222.5,333.5C 222.5,370.5 222.5,407.5 222.5,444.5C 203.833,444.5 185.167,444.5 166.5,444.5C 166.5,407.5 166.5,370.5 166.5,333.5 Z"/></g>
<g><path style="opacity:1" fill="#7c7d7c" d="M 222.5,333.5 C 240.833,333.5 259.167,333.5 277.5,333.5C 277.5,370.5 277.5,407.5 277.5,444.5C 259.167,444.5 240.833,444.5 222.5,444.5C 222.5,407.5 222.5,370.5 222.5,333.5 Z"/></g>
<g><path style="opacity:1" fill="#494a49" d="M 277.5,333.5 C 296.167,333.5 314.833,333.5 333.5,333.5C 333.5,370.5 333.5,407.5 333.5,444.5C 314.833,444.5 296.167,444.5 277.5,444.5C 277.5,407.5 277.5,370.5 277.5,333.5 Z"/></g>
<g><path style="opacity:1" fill="#878787" d="M 444.5,333.5 C 481.5,333.5 518.5,333.5 555.5,333.5C 555.5,370.5 555.5,407.5 555.5,444.5C 518.5,444.5 481.5,444.5 444.5,444.5C 444.5,407.5 444.5,370.5 444.5,333.5 Z"/></g>
<g><path style="opacity:1" fill="#606160" d="M 555.5,333.5 C 592.5,333.5 629.5,333.5 666.5,333.5C 666.5,370.5 666.5,407.5 666.5,444.5C 629.5,444.5 592.5,444.5 555.5,444.5C 555.5,407.5 555.5,370.5 555.5,333.5 Z"/></g>
<g><path style="opacity:1" fill="#878787" d="M 666.5,333.5 C 703.5,333.5 740.5,333.5 777.5,333.5C 777.5,370.5 777.5,407.5 777.5,444.5C 740.5,444.5 703.5,444.5 666.5,444.5C 666.5,407.5 666.5,370.5 666.5,333.5 Z"/></g>
<g><path style="opacity:1" fill="#a5a6a5" d="M 777.5,333.5 C 814.5,333.5 851.5,333.5 888.5,333.5C 888.5,370.5 888.5,407.5 888.5,444.5C 851.5,444.5 814.5,444.5 777.5,444.5C 777.5,407.5 777.5,370.5 777.5,333.5 Z"/></g>
<g><path style="opacity:1" fill="#606160" d="M 888.5,333.5 C 925.5,333.5 962.5,333.5 999.5,333.5C 999.5,370.5 999.5,407.5 999.5,444.5C 962.5,444.5 925.5,444.5 888.5,444.5C 888.5,407.5 888.5,370.5 888.5,333.5 Z"/></g>
<g><path style="opacity:1" fill="#666666" d="M -0.5,444.5 C 18.1667,444.5 36.8333,444.5 55.5,444.5C 55.5,481.5 55.5,518.5 55.5,555.5C 74.1667,555.5 92.8333,555.5 111.5,555.5C 111.5,592.167 111.5,628.833 111.5,665.5C 74.1667,665.5 36.8333,665.5 -0.5,665.5C -0.5,591.833 -0.5,518.167 -0.5,444.5 Z"/></g>
<g><path style="opacity:1" fill="#494a49" d="M 55.5,444.5 C 74.1667,444.5 92.8333,444.5 111.5,444.5C 111.5,481.5 111.5,518.5 111.5,555.5C 92.8333,555.5 74.1667,555.5 55.5,555.5C 55.5,518.5 55.5,481.5 55.5,444.5 Z"/></g>
<g><path style="opacity:1" fill="#7c7d7c" d="M 111.5,444.5 C 129.833,444.5 148.167,444.5 166.5,444.5C 185.167,444.5 203.833,444.5 222.5,444.5C 222.5,481.5 222.5,518.5 222.5,555.5C 203.833,555.5 185.167,555.5 166.5,555.5C 148.167,555.5 129.833,555.5 111.5,555.5C 111.5,518.5 111.5,481.5 111.5,444.5 Z"/></g>
<g><path style="opacity:1" fill="#666666" d="M 222.5,444.5 C 240.833,444.5 259.167,444.5 277.5,444.5C 296.167,444.5 314.833,444.5 333.5,444.5C 333.5,518.167 333.5,591.833 333.5,665.5C 277.833,665.5 222.167,665.5 166.5,665.5C 166.5,628.833 166.5,592.167 166.5,555.5C 185.167,555.5 203.833,555.5 222.5,555.5C 222.5,518.5 222.5,481.5 222.5,444.5 Z"/></g>
<g><path style="opacity:1" fill="#878787" d="M 333.5,444.5 C 370.5,444.5 407.5,444.5 444.5,444.5C 444.5,481.5 444.5,518.5 444.5,555.5C 481.5,555.5 518.5,555.5 555.5,555.5C 555.5,592.167 555.5,628.833 555.5,665.5C 481.5,665.5 407.5,665.5 333.5,665.5C 333.5,591.833 333.5,518.167 333.5,444.5 Z"/></g>
<g><path style="opacity:1" fill="#606160" d="M 444.5,444.5 C 481.5,444.5 518.5,444.5 555.5,444.5C 555.5,481.5 555.5,518.5 555.5,555.5C 518.5,555.5 481.5,555.5 444.5,555.5C 444.5,518.5 444.5,481.5 444.5,444.5 Z"/></g>
<g><path style="opacity:1" fill="#a5a6a5" d="M 555.5,444.5 C 592.5,444.5 629.5,444.5 666.5,444.5C 703.5,444.5 740.5,444.5 777.5,444.5C 777.5,481.5 777.5,518.5 777.5,555.5C 740.5,555.5 703.5,555.5 666.5,555.5C 629.5,555.5 592.5,555.5 555.5,555.5C 555.5,518.5 555.5,481.5 555.5,444.5 Z"/></g>
<g><path style="opacity:1" fill="#878787" d="M 777.5,444.5 C 814.5,444.5 851.5,444.5 888.5,444.5C 925.5,444.5 962.5,444.5 999.5,444.5C 999.5,518.167 999.5,591.833 999.5,665.5C 888.5,665.5 777.5,665.5 666.5,665.5C 666.5,628.833 666.5,592.167 666.5,555.5C 703.5,555.5 740.5,555.5 777.5,555.5C 777.5,518.5 777.5,481.5 777.5,444.5 Z"/></g>
<g><path style="opacity:1" fill="#494a49" d="M 111.5,555.5 C 129.833,555.5 148.167,555.5 166.5,555.5C 166.5,592.167 166.5,628.833 166.5,665.5C 148.167,665.5 129.833,665.5 111.5,665.5C 111.5,628.833 111.5,592.167 111.5,555.5 Z"/></g>
<g><path style="opacity:1" fill="#606160" d="M 555.5,555.5 C 592.5,555.5 629.5,555.5 666.5,555.5C 666.5,592.167 666.5,628.833 666.5,665.5C 629.5,665.5 592.5,665.5 555.5,665.5C 555.5,628.833 555.5,592.167 555.5,555.5 Z"/></g>
</svg>
