<svg viewBox="0 0 900 600" xmlns="http://www.w3.org/2000/svg"><rect x="0" y="0" width="350" height="600" fill="#676667" /><rect x="0" y="100" width="100" height="200" fill="#4a4a4a" /><rect x="0" y="0" width="50" height="150" fill="#4a4a4a" /><rect x="0" y="200" width="50" height="200" fill="#7d7d7d" /><rect x="50" y="100" width="50" height="100" fill="#7d7d7d" /><rect x="100" y="0" width="100" height="100" fill="#7d7d7d" /><rect x="100" y="300" width="50" height="300" fill="#4a4a4a" /><rect x="50" y="400" width="100" height="100" fill="#4a4a4a" /><rect x="100" y="400" width="100" height="100" fill="#7d7d7d" /><rect x="150" y="200" width="100" height="100" fill="#4a4a4a" /><rect x="250" y="100" width="50" height="100" fill="#4a4a4a" /><rect x="250" y="300" width="50" height="100" fill="#4a4a4a" /><rect x="200" y="300" width="50" height="100" fill="#7d7d7d" /><rect x="300" y="0" width="600" height="600" fill="#888788" /><rect x="300" y="200" width="100" height="200" fill="#a6a6a6" /><rect x="300" y="100" width="200" height="200" fill="#a6a6a6" /><rect x="300" y="0" width="100" height="200" fill="#616161" /><rect x="400" y="200" width="100" height="100" fill="#616161" /><rect x="500" y="300" width="100" height="300" fill="#616161" /><rect x="400" y="400" width="150" height="100" fill="#616161" /><rect x="500" y="400" width="200" height="100" fill="#a6a6a6" /><rect x="700" y="300" width="100" height="100" fill="#a6a6a6" /><rect x="800" y="300" width="100" height="100" fill="#616161" /><rect x="600" y="200" width="200" height="100" fill="#616161" /><rect x="800" y="100" width="100" height="100" fill="#616161" /><rect x="500" y="0" width="200" height="100" fill="#a6a6a6" /></svg>