<?xml version="1.0" encoding="UTF-8"?>
<!DOCTYPE svg PUBLIC "-//W3C//DTD SVG 1.1//EN" "http://www.w3.org/Graphics/SVG/1.1/DTD/svg11.dtd">
<svg xmlns="http://www.w3.org/2000/svg" version="1.1" width="1000px" height="800px" style="shape-rendering:geometricPrecision; text-rendering:geometricPrecision; image-rendering:optimizeQuality; fill-rule:evenodd; clip-rule:evenodd" xmlns:xlink="http://www.w3.org/1999/xlink">
<g><path style="opacity:1" fill="#bc4b8d" d="M -0.5,-0.5 C 21.8333,-0.5 44.1667,-0.5 66.5,-0.5C 66.5,43.8333 66.5,88.1667 66.5,132.5C 44.1667,132.5 21.8333,132.5 -0.5,132.5C -0.5,88.1667 -0.5,43.8333 -0.5,-0.5 Z"/></g>
<g><path style="opacity:1" fill="#bc709c" d="M 66.5,-0.5 C 110.833,-0.5 155.167,-0.5 199.5,-0.5C 199.5,88.5 199.5,177.5 199.5,266.5C 177.167,266.5 154.833,266.5 132.5,266.5C 132.5,221.833 132.5,177.167 132.5,132.5C 110.5,132.5 88.5,132.5 66.5,132.5C 66.5,88.1667 66.5,43.8333 66.5,-0.5 Z"/></g>
<g><path style="opacity:1" fill="#fa94cf" d="M 199.5,-0.5 C 243.833,-0.5 288.167,-0.5 332.5,-0.5C 332.5,43.8333 332.5,88.1667 332.5,132.5C 377.167,132.5 421.833,132.5 466.5,132.5C 466.5,88.1667 466.5,43.8333 466.5,-0.5C 510.833,-0.5 555.167,-0.5 599.5,-0.5C 599.5,88.5 599.5,177.5 599.5,266.5C 555.167,266.5 510.833,266.5 466.5,266.5C 466.5,310.833 466.5,355.167 466.5,399.5C 421.833,399.5 377.167,399.5 332.5,399.5C 332.5,355.167 332.5,310.833 332.5,266.5C 288.167,266.5 243.833,266.5 199.5,266.5C 199.5,177.5 199.5,88.5 199.5,-0.5 Z"/></g>
<g><path style="opacity:1" fill="#fa63bb" d="M 332.5,-0.5 C 377.167,-0.5 421.833,-0.5 466.5,-0.5C 466.5,43.8333 466.5,88.1667 466.5,132.5C 421.833,132.5 377.167,132.5 332.5,132.5C 332.5,88.1667 332.5,43.8333 332.5,-0.5 Z"/></g>
<g><path style="opacity:1" fill="#fa63bb" d="M 599.5,-0.5 C 643.833,-0.5 688.167,-0.5 732.5,-0.5C 732.5,43.8333 732.5,88.1667 732.5,132.5C 821.5,132.5 910.5,132.5 999.5,132.5C 999.5,177.167 999.5,221.833 999.5,266.5C 910.5,266.5 821.5,266.5 732.5,266.5C 732.5,310.833 732.5,355.167 732.5,399.5C 643.833,399.5 555.167,399.5 466.5,399.5C 466.5,355.167 466.5,310.833 466.5,266.5C 510.833,266.5 555.167,266.5 599.5,266.5C 599.5,177.5 599.5,88.5 599.5,-0.5 Z"/></g>
<g><path style="opacity:1" fill="#fa94cf" d="M 732.5,-0.5 C 821.5,-0.5 910.5,-0.5 999.5,-0.5C 999.5,43.8333 999.5,88.1667 999.5,132.5C 910.5,132.5 821.5,132.5 732.5,132.5C 732.5,88.1667 732.5,43.8333 732.5,-0.5 Z"/></g>
<g><path style="opacity:1" fill="#bc709c" d="M -0.5,132.5 C 21.8333,132.5 44.1667,132.5 66.5,132.5C 66.5,177.167 66.5,221.833 66.5,266.5C 44.1667,266.5 21.8333,266.5 -0.5,266.5C -0.5,221.833 -0.5,177.167 -0.5,132.5 Z"/></g>
<g><path style="opacity:1" fill="#bc4b8d" d="M 66.5,132.5 C 88.5,132.5 110.5,132.5 132.5,132.5C 132.5,177.167 132.5,221.833 132.5,266.5C 110.5,266.5 88.5,266.5 66.5,266.5C 66.5,221.833 66.5,177.167 66.5,132.5 Z"/></g>
<g><path style="opacity:1" fill="#bc4b8d" d="M -0.5,266.5 C 21.8333,266.5 44.1667,266.5 66.5,266.5C 66.5,310.833 66.5,355.167 66.5,399.5C 44.1667,399.5 21.8333,399.5 -0.5,399.5C -0.5,355.167 -0.5,310.833 -0.5,266.5 Z"/></g>
<g><path style="opacity:1" fill="#bc709c" d="M 66.5,266.5 C 88.5,266.5 110.5,266.5 132.5,266.5C 132.5,310.833 132.5,355.167 132.5,399.5C 154.833,399.5 177.167,399.5 199.5,399.5C 199.5,443.833 199.5,488.167 199.5,532.5C 132.833,532.5 66.1667,532.5 -0.5,532.5C -0.5,488.167 -0.5,443.833 -0.5,399.5C 21.8333,399.5 44.1667,399.5 66.5,399.5C 66.5,355.167 66.5,310.833 66.5,266.5 Z"/></g>
<g><path style="opacity:1" fill="#bc4b8d" d="M 132.5,266.5 C 154.833,266.5 177.167,266.5 199.5,266.5C 199.5,310.833 199.5,355.167 199.5,399.5C 177.167,399.5 154.833,399.5 132.5,399.5C 132.5,355.167 132.5,310.833 132.5,266.5 Z"/></g>
<g><path style="opacity:1" fill="#fa63bb" d="M 199.5,266.5 C 243.833,266.5 288.167,266.5 332.5,266.5C 332.5,310.833 332.5,355.167 332.5,399.5C 288.167,399.5 243.833,399.5 199.5,399.5C 199.5,355.167 199.5,310.833 199.5,266.5 Z"/></g>
<g><path style="opacity:1" fill="#fa94cf" d="M 999.5,266.5 C 999.5,310.833 999.5,355.167 999.5,399.5C 955.167,399.5 910.833,399.5 866.5,399.5C 866.5,443.833 866.5,488.167 866.5,532.5C 777.5,532.5 688.5,532.5 599.5,532.5C 599.5,577.167 599.5,621.833 599.5,666.5C 577.167,666.5 554.833,666.5 532.5,666.5C 510.5,666.5 488.5,666.5 466.5,666.5C 466.5,621.833 466.5,577.167 466.5,532.5C 466.5,488.167 466.5,443.833 466.5,399.5C 555.167,399.5 643.833,399.5 732.5,399.5C 732.5,355.167 732.5,310.833 732.5,266.5C 821.5,266.5 910.5,266.5 999.5,266.5 Z"/></g>
<g><path style="opacity:1" fill="#fa94cf" d="M 199.5,399.5 C 243.833,399.5 288.167,399.5 332.5,399.5C 332.5,443.833 332.5,488.167 332.5,532.5C 310.5,532.5 288.5,532.5 266.5,532.5C 244.167,532.5 221.833,532.5 199.5,532.5C 199.5,488.167 199.5,443.833 199.5,399.5 Z"/></g>
<g><path style="opacity:1" fill="#fa63bb" d="M 332.5,399.5 C 377.167,399.5 421.833,399.5 466.5,399.5C 466.5,443.833 466.5,488.167 466.5,532.5C 444.167,532.5 421.833,532.5 399.5,532.5C 377.167,532.5 354.833,532.5 332.5,532.5C 332.5,488.167 332.5,443.833 332.5,399.5 Z"/></g>
<g><path style="opacity:1" fill="#fa63bb" d="M 999.5,399.5 C 999.5,443.833 999.5,488.167 999.5,532.5C 955.167,532.5 910.833,532.5 866.5,532.5C 866.5,488.167 866.5,443.833 866.5,399.5C 910.833,399.5 955.167,399.5 999.5,399.5 Z"/></g>
<g><path style="opacity:1" fill="#bc709c" d="M 266.5,532.5 C 288.5,532.5 310.5,532.5 332.5,532.5C 332.5,577.167 332.5,621.833 332.5,666.5C 310.5,666.5 288.5,666.5 266.5,666.5C 266.5,621.833 266.5,577.167 266.5,532.5 Z"/></g>
<g><path style="opacity:1" fill="#bc4b8d" d="M 332.5,532.5 C 354.833,532.5 377.167,532.5 399.5,532.5C 399.5,577.167 399.5,621.833 399.5,666.5C 377.167,666.5 354.833,666.5 332.5,666.5C 332.5,621.833 332.5,577.167 332.5,532.5 Z"/></g>
<g><path style="opacity:1" fill="#bc709c" d="M 399.5,532.5 C 421.833,532.5 444.167,532.5 466.5,532.5C 466.5,577.167 466.5,621.833 466.5,666.5C 444.167,666.5 421.833,666.5 399.5,666.5C 399.5,621.833 399.5,577.167 399.5,532.5 Z"/></g>
<g><path style="opacity:1" fill="#fa63bb" d="M 866.5,532.5 C 866.5,577.167 866.5,621.833 866.5,666.5C 844.167,666.5 821.833,666.5 799.5,666.5C 732.833,666.5 666.167,666.5 599.5,666.5C 599.5,621.833 599.5,577.167 599.5,532.5C 688.5,532.5 777.5,532.5 866.5,532.5 Z"/></g>
<g><path style="opacity:1" fill="#fa94cf" d="M 866.5,532.5 C 910.833,532.5 955.167,532.5 999.5,532.5C 999.5,577.167 999.5,621.833 999.5,666.5C 955.167,666.5 910.833,666.5 866.5,666.5C 866.5,621.833 866.5,577.167 866.5,532.5 Z"/></g>
<g><path style="opacity:1" fill="#b6364f" d="M 466.5,666.5 C 488.5,666.5 510.5,666.5 532.5,666.5C 532.5,710.833 532.5,755.167 532.5,799.5C 510.5,799.5 488.5,799.5 466.5,799.5C 466.5,755.167 466.5,710.833 466.5,666.5 Z"/></g>
<g><path style="opacity:1" fill="#f14768" d="M 532.5,666.5 C 554.833,666.5 577.167,666.5 599.5,666.5C 666.167,666.5 732.833,666.5 799.5,666.5C 799.5,710.833 799.5,755.167 799.5,799.5C 710.5,799.5 621.5,799.5 532.5,799.5C 532.5,755.167 532.5,710.833 532.5,666.5 Z"/></g>
</svg>
