<svg viewBox="0 0 750 600" xmlns="http://www.w3.org/2000/svg"><rect x="0" y="0" width="250" height="400" fill="#bd709d" /><rect x="350" y="450" width="100" height="150" fill="#b73650" /><rect x="200" y="300" width="300" height="200" fill="#bd709d" /><rect x="250" y="350" width="50" height="150" fill="#bd4b8e" /><rect x="400" y="450" width="200" height="150" fill="#f24769" /><rect x="350" y="0" width="400" height="500" fill="#fb94d0" /><rect x="150" y="0" width="250" height="400" fill="#fb94d0" /><rect x="100" y="200" width="100" height="100" fill="#bd4b8e" /><rect x="0" y="200" width="50" height="100" fill="#bd4b8e" /><rect x="50" y="100" width="50" height="100" fill="#bd4b8e" /><rect x="0" y="0" width="50" height="100" fill="#bd4b8e" /><rect x="150" y="200" width="100" height="100" fill="#fb63bc" /><rect x="250" y="300" width="100" height="100" fill="#fb63bc" /><rect x="250" y="0" width="100" height="100" fill="#fb63bc" /><rect x="450" y="400" width="200" height="100" fill="#fb63bc" /><rect x="650" y="300" width="100" height="100" fill="#fb63bc" /><rect x="350" y="200" width="200" height="100" fill="#fb63bc" /><rect x="450" y="0" width="100" height="300" fill="#fb63bc" /><rect x="450" y="100" width="300" height="100" fill="#fb63bc" /></svg>