<?xml version="1.0" encoding="UTF-8"?>
<!DOCTYPE svg PUBLIC "-//W3C//DTD SVG 1.1//EN" "http://www.w3.org/Graphics/SVG/1.1/DTD/svg11.dtd">
<svg xmlns="http://www.w3.org/2000/svg" version="1.1" width="1000px" height="954px" style="shape-rendering:geometricPrecision; text-rendering:geometricPrecision; image-rendering:optimizeQuality; fill-rule:evenodd; clip-rule:evenodd" xmlns:xlink="http://www.w3.org/1999/xlink">
<g><path style="opacity:1" fill="#757675" d="M 499.5,0.5 C 499.5,30.8333 499.5,61.1667 499.5,91.5C 454.167,91.5 408.833,91.5 363.5,91.5C 363.5,76.1667 363.5,60.8333 363.5,45.5C 363.5,30.5 363.5,15.5 363.5,0.5C 408.833,0.5 454.167,0.5 499.5,0.5 Z"/></g>
<g><path style="opacity:1" fill="#a4a5a4" d="M 499.5,0.5 C 529.833,0.5 560.167,0.5 590.5,0.5C 590.5,15.5 590.5,30.5 590.5,45.5C 590.5,60.8333 590.5,76.1667 590.5,91.5C 560.167,91.5 529.833,91.5 499.5,91.5C 499.5,61.1667 499.5,30.8333 499.5,0.5 Z"/></g>
<g><path style="opacity:1" fill="#1c1a13" d="M 363.5,45.5 C 363.5,60.8333 363.5,76.1667 363.5,91.5C 408.833,91.5 454.167,91.5 499.5,91.5C 529.833,91.5 560.167,91.5 590.5,91.5C 590.5,76.1667 590.5,60.8333 590.5,45.5C 636.167,45.5 681.833,45.5 727.5,45.5C 727.5,106.167 727.5,166.833 727.5,227.5C 697.167,227.5 666.833,227.5 636.5,227.5C 636.5,197.167 636.5,166.833 636.5,136.5C 515.167,136.5 393.833,136.5 272.5,136.5C 272.5,197.167 272.5,257.833 272.5,318.5C 257.5,318.5 242.5,318.5 227.5,318.5C 227.5,378.833 227.5,439.167 227.5,499.5C 257.833,499.5 288.167,499.5 318.5,499.5C 318.5,514.833 318.5,530.167 318.5,545.5C 363.833,545.5 409.167,545.5 454.5,545.5C 454.5,560.5 454.5,575.5 454.5,590.5C 454.5,711.5 454.5,832.5 454.5,953.5C 363.5,953.5 272.5,953.5 181.5,953.5C 181.5,832.5 181.5,711.5 181.5,590.5C 121.167,590.5 60.8333,590.5 0.5,590.5C 0.5,408.833 0.5,227.167 0.5,45.5C 121.5,45.5 242.5,45.5 363.5,45.5 Z"/></g>
<g><path style="opacity:1" fill="#855106" d="M 45.5,136.5 C 75.8333,136.5 106.167,136.5 136.5,136.5C 136.5,257.5 136.5,378.5 136.5,499.5C 106.167,499.5 75.8333,499.5 45.5,499.5C 45.5,378.5 45.5,257.5 45.5,136.5 Z"/></g>
<g><path style="opacity:1" fill="#683f04" d="M 636.5,227.5 C 621.167,227.5 605.833,227.5 590.5,227.5C 545.167,227.5 499.833,227.5 454.5,227.5C 454.5,242.5 454.5,257.5 454.5,272.5C 409.167,272.5 363.833,272.5 318.5,272.5C 318.5,287.833 318.5,303.167 318.5,318.5C 303.167,318.5 287.833,318.5 272.5,318.5C 272.5,257.833 272.5,197.167 272.5,136.5C 393.833,136.5 515.167,136.5 636.5,136.5C 636.5,166.833 636.5,197.167 636.5,227.5 Z"/></g>
<g><path style="opacity:1" fill="#dd9239" d="M 590.5,227.5 C 590.5,348.5 590.5,469.5 590.5,590.5C 545.167,590.5 499.833,590.5 454.5,590.5C 454.5,575.5 454.5,560.5 454.5,545.5C 454.5,454.5 454.5,363.5 454.5,272.5C 454.5,257.5 454.5,242.5 454.5,227.5C 499.833,227.5 545.167,227.5 590.5,227.5 Z"/></g>
<g><path style="opacity:1" fill="#f3e062" d="M 590.5,227.5 C 605.833,227.5 621.167,227.5 636.5,227.5C 666.833,227.5 697.167,227.5 727.5,227.5C 803.167,227.5 878.833,227.5 954.5,227.5C 954.5,348.5 954.5,469.5 954.5,590.5C 833.167,590.5 711.833,590.5 590.5,590.5C 590.5,469.5 590.5,348.5 590.5,227.5 Z"/></g>
<g><path style="opacity:1" fill="#542924" d="M 454.5,272.5 C 454.5,363.5 454.5,454.5 454.5,545.5C 409.167,545.5 363.833,545.5 318.5,545.5C 318.5,530.167 318.5,514.833 318.5,499.5C 318.5,439.167 318.5,378.833 318.5,318.5C 318.5,303.167 318.5,287.833 318.5,272.5C 363.833,272.5 409.167,272.5 454.5,272.5 Z"/></g>
<g><path style="opacity:1" fill="#bc6a27" d="M 272.5,318.5 C 287.833,318.5 303.167,318.5 318.5,318.5C 318.5,378.833 318.5,439.167 318.5,499.5C 288.167,499.5 257.833,499.5 227.5,499.5C 227.5,439.167 227.5,378.833 227.5,318.5C 242.5,318.5 257.5,318.5 272.5,318.5 Z"/></g>
<g><path style="opacity:1" fill="#fefffe" d="M 772.5,318.5 C 772.5,348.833 772.5,379.167 772.5,409.5C 742.167,409.5 711.833,409.5 681.5,409.5C 681.5,379.167 681.5,348.833 681.5,318.5C 711.833,318.5 742.167,318.5 772.5,318.5 Z"/></g>
<g><path style="opacity:1" fill="#68bdbc" d="M 772.5,318.5 C 802.833,318.5 833.167,318.5 863.5,318.5C 863.5,378.833 863.5,439.167 863.5,499.5C 802.833,499.5 742.167,499.5 681.5,499.5C 681.5,469.5 681.5,439.5 681.5,409.5C 711.833,409.5 742.167,409.5 772.5,409.5C 772.5,379.167 772.5,348.833 772.5,318.5 Z"/></g>
<g><path style="opacity:1" fill="#443c2e" d="M 454.5,590.5 C 499.833,590.5 545.167,590.5 590.5,590.5C 711.833,590.5 833.167,590.5 954.5,590.5C 969.5,590.5 984.5,590.5 999.5,590.5C 999.5,711.5 999.5,832.5 999.5,953.5C 817.833,953.5 636.167,953.5 454.5,953.5C 454.5,832.5 454.5,711.5 454.5,590.5 Z"/></g>
<g><path style="opacity:1" fill="#855106" d="M 227.5,681.5 C 288.167,681.5 348.833,681.5 409.5,681.5C 409.5,742.167 409.5,802.833 409.5,863.5C 348.833,863.5 288.167,863.5 227.5,863.5C 227.5,802.833 227.5,742.167 227.5,681.5 Z"/></g>
<g><path style="opacity:1" fill="#a66e1e" d="M 545.5,681.5 C 666.5,681.5 787.5,681.5 908.5,681.5C 908.5,742.167 908.5,802.833 908.5,863.5C 787.5,863.5 666.5,863.5 545.5,863.5C 545.5,802.833 545.5,742.167 545.5,681.5 Z"/></g>
</svg>
