<?xml version="1.0" encoding="UTF-8"?>
<!DOCTYPE svg PUBLIC "-//W3C//DTD SVG 1.1//EN" "http://www.w3.org/Graphics/SVG/1.1/DTD/svg11.dtd">
<svg xmlns="http://www.w3.org/2000/svg" version="1.1" width="1000px" height="500px" style="shape-rendering:geometricPrecision; text-rendering:geometricPrecision; image-rendering:optimizeQuality; fill-rule:evenodd; clip-rule:evenodd" xmlns:xlink="http://www.w3.org/1999/xlink">
<g><path style="opacity:1" fill="#dd9239" d="M 312.5,-0.5 C 374.833,-0.5 437.167,-0.5 499.5,-0.5C 499.5,166.167 499.5,332.833 499.5,499.5C 437.167,499.5 374.833,499.5 312.5,499.5C 312.5,478.833 312.5,458.167 312.5,437.5C 312.5,312.5 312.5,187.5 312.5,62.5C 312.5,41.5 312.5,20.5 312.5,-0.5 Z"/></g>
<g><path style="opacity:1" fill="#f3e062" d="M 499.5,-0.5 C 666.167,-0.5 832.833,-0.5 999.5,-0.5C 999.5,166.167 999.5,332.833 999.5,499.5C 832.833,499.5 666.167,499.5 499.5,499.5C 499.5,332.833 499.5,166.167 499.5,-0.5 Z"/></g>
<g><path style="opacity:1" fill="#542924" d="M 312.5,62.5 C 312.5,187.5 312.5,312.5 312.5,437.5C 249.833,437.5 187.167,437.5 124.5,437.5C 124.5,416.5 124.5,395.5 124.5,374.5C 124.5,291.167 124.5,207.833 124.5,124.5C 124.5,103.833 124.5,83.1667 124.5,62.5C 187.167,62.5 249.833,62.5 312.5,62.5 Z"/></g>
<g><path style="opacity:1" fill="#bc6a27" d="M -0.5,124.5 C 41.1667,124.5 82.8333,124.5 124.5,124.5C 124.5,207.833 124.5,291.167 124.5,374.5C 82.8333,374.5 41.1667,374.5 -0.5,374.5C -0.5,291.167 -0.5,207.833 -0.5,124.5 Z"/></g>
<g><path style="opacity:1" fill="#fefffe" d="M 749.5,124.5 C 749.5,166.167 749.5,207.833 749.5,249.5C 707.833,249.5 666.167,249.5 624.5,249.5C 624.5,207.833 624.5,166.167 624.5,124.5C 666.167,124.5 707.833,124.5 749.5,124.5 Z"/></g>
<g><path style="opacity:1" fill="#68bdbc" d="M 749.5,124.5 C 791.167,124.5 832.833,124.5 874.5,124.5C 874.5,207.833 874.5,291.167 874.5,374.5C 791.167,374.5 707.833,374.5 624.5,374.5C 624.5,332.833 624.5,291.167 624.5,249.5C 666.167,249.5 707.833,249.5 749.5,249.5C 749.5,207.833 749.5,166.167 749.5,124.5 Z"/></g>
</svg>
