<?xml version="1.0" encoding="utf-8"?>
<!-- Generator: Adobe Illustrator 25.4.1, SVG Export Plug-In . SVG Version: 6.00 Build 0)  -->
<svg version="1.1" id="Слой_1" xmlns="http://www.w3.org/2000/svg" xmlns:xlink="http://www.w3.org/1999/xlink" x="0px" y="0px"
	 viewBox="0 0 1000 666" style="enable-background:new 0 0 1000 666;" xml:space="preserve">
<style type="text/css">
	.st0{fill-rule:evenodd;clip-rule:evenodd;fill:#604728;}
	.st1{fill-rule:evenodd;clip-rule:evenodd;fill:#1E1A15;}
	.st2{fill-rule:evenodd;clip-rule:evenodd;fill:#98713F;}
	.st3{fill-rule:evenodd;clip-rule:evenodd;fill:#3F2C17;}
	.st4{fill-rule:evenodd;clip-rule:evenodd;fill:#6A5331;}
	.st5{fill-rule:evenodd;clip-rule:evenodd;fill:#7F5E35;}
	.st6{fill-rule:evenodd;clip-rule:evenodd;fill:#5A5B5A;}
	.st7{fill-rule:evenodd;clip-rule:evenodd;fill:#797A79;}
</style>
<g>
	<path class="st0" d="M-0.5-0.5c18.7,0,37.3,0,56,0c0,37,0,74,0,111c-18.7,0-37.3,0-56,0C-0.5,73.5-0.5,36.5-0.5-0.5z"/>
</g>
<g>
	<path class="st1" d="M55.5-0.5c18.3,0,36.7,0,55,0c0,37,0,74,0,111s0,74,0,111c0,74,0,148,0,222c0,37,0,74,0,111s0,74,0,111
		c-18.3,0-36.7,0-55,0c0-37,0-74,0-111s0-74,0-111c0-74,0-148,0-222c0-37,0-74,0-111S55.5,36.5,55.5-0.5z"/>
</g>
<g>
	<path class="st0" d="M110.5-0.5c18.7,0,37.3,0,56,0c0,37,0,74,0,111c-18.7,0-37.3,0-56,0C110.5,73.5,110.5,36.5,110.5-0.5z"/>
</g>
<g>
	<path class="st1" d="M166.5-0.5c18.3,0,36.7,0,55,0c0,37,0,74,0,111s0,74,0,111c0,74,0,148,0,222c0,37,0,74,0,111s0,74,0,111
		c-18.3,0-36.7,0-55,0c0-37,0-74,0-111s0-74,0-111c0-74,0-148,0-222c0-37,0-74,0-111S166.5,36.5,166.5-0.5z"/>
</g>
<g>
	<path class="st0" d="M221.5-0.5c37,0,74,0,111,0c0,222,0,444,0,666c-37,0-74,0-111,0c0-37,0-74,0-111c18.7,0,37.3,0,56,0
		c0-37,0-74,0-111c-18.7,0-37.3,0-56,0c0-74,0-148,0-222c18.7,0,37.3,0,56,0c0-37,0-74,0-111c-18.7,0-37.3,0-56,0
		C221.5,73.5,221.5,36.5,221.5-0.5z"/>
</g>
<g>
	<path class="st2" d="M332.5-0.5c222.3,0,444.7,0,667,0c0,222,0,444,0,666c-222.3,0-444.7,0-667,0
		C332.5,443.5,332.5,221.5,332.5-0.5z"/>
</g>
<g>
	<path class="st3" d="M-0.5,110.5c18.7,0,37.3,0,56,0c0,37,0,74,0,111c-18.7,0-37.3,0-56,0C-0.5,184.5-0.5,147.5-0.5,110.5z"/>
</g>
<g>
	<path class="st3" d="M110.5,110.5c18.7,0,37.3,0,56,0c0,37,0,74,0,111c-18.7,0-37.3,0-56,0C110.5,184.5,110.5,147.5,110.5,110.5z"
		/>
</g>
<g>
	<path class="st3" d="M221.5,110.5c18.7,0,37.3,0,56,0c0,37,0,74,0,111c-18.7,0-37.3,0-56,0C221.5,184.5,221.5,147.5,221.5,110.5z"
		/>
</g>
<g>
	<path class="st4" d="M555.5,110.5c0,37,0,74,0,111c-37.3,0-74.7,0-112,0c0-37,0-74,0-111C480.8,110.5,518.2,110.5,555.5,110.5z"/>
</g>
<g>
	<path class="st5" d="M555.5,110.5c74,0,148,0,222,0c0,37,0,74,0,111c37,0,74,0,111,0c0,74,0,148,0,222c-37,0-74,0-111,0
		c0,37,0,74,0,111c-74,0-148,0-222,0c0-37,0-74,0-111c18.3,0,36.7,0,55,0c0-37,0-74,0-111c-37,0-74,0-111,0c-18.7,0-37.3,0-56,0
		c0-37,0-74,0-111c37.3,0,74.7,0,112,0C555.5,184.5,555.5,147.5,555.5,110.5z"/>
</g>
<g>
	<path class="st4" d="M777.5,110.5c37,0,74,0,111,0c0,37,0,74,0,111c0-37,0-74,0-111C851.5,110.5,814.5,110.5,777.5,110.5z"/>
</g>
<g>
	<path class="st0" d="M-0.5,221.5c18.7,0,37.3,0,56,0c0,74,0,148,0,222c-18.7,0-37.3,0-56,0C-0.5,369.5-0.5,295.5-0.5,221.5z"/>
</g>
<g>
	<path class="st0" d="M110.5,221.5c18.7,0,37.3,0,56,0c0,74,0,148,0,222c-18.7,0-37.3,0-56,0C110.5,369.5,110.5,295.5,110.5,221.5z"
		/>
</g>
<g>
	<path class="st6" d="M443.5,332.5c18.7,0,37.3,0,56,0c0,37,0,74,0,111c-18.7,0-37.3,0-56,0C443.5,406.5,443.5,369.5,443.5,332.5z"
		/>
</g>
<g>
	<path class="st7" d="M499.5,332.5c37,0,74,0,111,0c0,37,0,74,0,111c-18.3,0-36.7,0-55,0c-18.7,0-37.3,0-56,0
		C499.5,406.5,499.5,369.5,499.5,332.5z"/>
</g>
<g>
	<path class="st3" d="M-0.5,443.5c18.7,0,37.3,0,56,0c0,37,0,74,0,111c-18.7,0-37.3,0-56,0C-0.5,517.5-0.5,480.5-0.5,443.5z"/>
</g>
<g>
	<path class="st3" d="M110.5,443.5c18.7,0,37.3,0,56,0c0,37,0,74,0,111c-18.7,0-37.3,0-56,0C110.5,517.5,110.5,480.5,110.5,443.5z"
		/>
</g>
<g>
	<path class="st3" d="M221.5,443.5c18.7,0,37.3,0,56,0c0,37,0,74,0,111c-18.7,0-37.3,0-56,0C221.5,517.5,221.5,480.5,221.5,443.5z"
		/>
</g>
<g>
	<path class="st4" d="M443.5,443.5c18.7,0,37.3,0,56,0s37.3,0,56,0c0,37,0,74,0,111c-37.3,0-74.7,0-112,0
		C443.5,517.5,443.5,480.5,443.5,443.5z"/>
</g>
<g>
	<path class="st4" d="M888.5,443.5c0,37,0,74,0,111c-37,0-74,0-111,0c0-37,0-74,0-111C814.5,443.5,851.5,443.5,888.5,443.5z"/>
</g>
<g>
	<path class="st4" d="M888.5,110.5c0,37,0,74,0,111c-37,0-74,0-111,0c0-37,0-74,0-111C814.5,110.5,851.5,110.5,888.5,110.5z"/>
</g>
<g>
	<path class="st0" d="M-0.5,554.5c18.7,0,37.3,0,56,0c0,37,0,74,0,111c-18.7,0-37.3,0-56,0C-0.5,628.5-0.5,591.5-0.5,554.5z"/>
</g>
<g>
	<path class="st0" d="M110.5,554.5c18.7,0,37.3,0,56,0c0,37,0,74,0,111c-18.7,0-37.3,0-56,0C110.5,628.5,110.5,591.5,110.5,554.5z"
		/>
</g>
</svg>
