<svg viewBox="0 0 800 500" xmlns="http://www.w3.org/2000/svg"><rect x="0" y="0" width="150" height="150" fill="#312c20" /><rect x="100" y="0" width="100" height="150" fill="#554c3b" /><rect x="300" y="0" width="100" height="150" fill="#312c20" /><rect x="400" y="0" width="100" height="150" fill="#554c3b" /><rect x="0" y="100" width="350" height="400" fill="#9c958b" /><rect x="200" y="100" width="150" height="300" fill="#312c20" /><rect x="300" y="350" width="500" height="150" fill="#e1d6c3" /><rect x="300" y="100" width="500" height="300" fill="#554c3b" /><rect x="400" y="100" width="300" height="300" fill="#312c20" /><rect x="300" y="200" width="150" height="100" fill="#fffffd" /><rect x="650" y="200" width="150" height="100" fill="#fffffd" /><rect x="400" y="200" width="100" height="150" fill="#0d7fc8" /><rect x="600" y="200" width="100" height="150" fill="#0d7fc8" /><rect x="400" y="350" width="100" height="150" fill="#3d3320" /><rect x="400" y="300" width="100" height="100" fill="#81786b" /><rect x="450" y="350" width="300" height="150" fill="#554c3b" /><rect x="450" y="300" width="300" height="100" fill="#9c958b" /><rect x="550" y="300" width="100" height="200" fill="#312c20" /></svg>