<?xml version="1.0" encoding="UTF-8"?>
<!DOCTYPE svg PUBLIC "-//W3C//DTD SVG 1.1//EN" "http://www.w3.org/Graphics/SVG/1.1/DTD/svg11.dtd">
<svg xmlns="http://www.w3.org/2000/svg" version="1.1" width="1000px" height="625px" style="shape-rendering:geometricPrecision; text-rendering:geometricPrecision; image-rendering:optimizeQuality; fill-rule:evenodd; clip-rule:evenodd" xmlns:xlink="http://www.w3.org/1999/xlink">
<g><path style="opacity:1" fill="#9b958a" d="M -0.5,-0.5 C 41.1667,-0.5 82.8333,-0.5 124.5,-0.5C 124.5,41.1667 124.5,82.8333 124.5,124.5C 82.8333,124.5 41.1667,124.5 -0.5,124.5C -0.5,82.8333 -0.5,41.1667 -0.5,-0.5 Z"/></g>
<g><path style="opacity:1" fill="#544c3a" d="M 124.5,-0.5 C 166.167,-0.5 207.833,-0.5 249.5,-0.5C 249.5,41.1667 249.5,82.8333 249.5,124.5C 207.833,124.5 166.167,124.5 124.5,124.5C 124.5,82.8333 124.5,41.1667 124.5,-0.5 Z"/></g>
<g><path style="opacity:1" fill="#302c1f" d="M 374.5,-0.5 C 416.167,-0.5 457.833,-0.5 499.5,-0.5C 499.5,41.1667 499.5,82.8333 499.5,124.5C 457.833,124.5 416.167,124.5 374.5,124.5C 374.5,82.8333 374.5,41.1667 374.5,-0.5 Z"/></g>
<g><path style="opacity:1" fill="#544c3a" d="M 499.5,-0.5 C 541.167,-0.5 582.833,-0.5 624.5,-0.5C 624.5,41.1667 624.5,82.8333 624.5,124.5C 582.833,124.5 541.167,124.5 499.5,124.5C 499.5,82.8333 499.5,41.1667 499.5,-0.5 Z"/></g>
<g><path style="opacity:1" fill="#918a7d" d="M -0.5,124.5 C 41.1667,124.5 82.8333,124.5 124.5,124.5C 166.167,124.5 207.833,124.5 249.5,124.5C 249.5,166.167 249.5,207.833 249.5,249.5C 166.167,249.5 82.8333,249.5 -0.5,249.5C -0.5,207.833 -0.5,166.167 -0.5,124.5 Z"/></g>
<g><path style="opacity:1" fill="#302c1f" d="M 249.5,124.5 C 291.167,124.5 332.833,124.5 374.5,124.5C 374.5,166.167 374.5,207.833 374.5,249.5C 374.5,291.167 374.5,332.833 374.5,374.5C 374.5,416.167 374.5,457.833 374.5,499.5C 332.833,499.5 291.167,499.5 249.5,499.5C 249.5,416.167 249.5,332.833 249.5,249.5C 249.5,207.833 249.5,166.167 249.5,124.5 Z"/></g>
<g><path style="opacity:1" fill="#544c3a" d="M 374.5,124.5 C 416.167,124.5 457.833,124.5 499.5,124.5C 499.5,166.167 499.5,207.833 499.5,249.5C 457.833,249.5 416.167,249.5 374.5,249.5C 374.5,207.833 374.5,166.167 374.5,124.5 Z"/></g>
<g><path style="opacity:1" fill="#302c1f" d="M 499.5,124.5 C 541.167,124.5 582.833,124.5 624.5,124.5C 707.833,124.5 791.167,124.5 874.5,124.5C 874.5,166.167 874.5,207.833 874.5,249.5C 832.833,249.5 791.167,249.5 749.5,249.5C 749.5,291.167 749.5,332.833 749.5,374.5C 770.167,374.5 790.833,374.5 811.5,374.5C 811.5,416.167 811.5,457.833 811.5,499.5C 811.5,541.167 811.5,582.833 811.5,624.5C 769.833,624.5 728.167,624.5 686.5,624.5C 686.5,582.833 686.5,541.167 686.5,499.5C 686.5,457.833 686.5,416.167 686.5,374.5C 665.833,374.5 645.167,374.5 624.5,374.5C 624.5,332.833 624.5,291.167 624.5,249.5C 582.833,249.5 541.167,249.5 499.5,249.5C 499.5,207.833 499.5,166.167 499.5,124.5 Z"/></g>
<g><path style="opacity:1" fill="#544c3a" d="M 874.5,124.5 C 916.167,124.5 957.833,124.5 999.5,124.5C 999.5,166.167 999.5,207.833 999.5,249.5C 957.833,249.5 916.167,249.5 874.5,249.5C 874.5,207.833 874.5,166.167 874.5,124.5 Z"/></g>
<g><path style="opacity:1" fill="#9b958a" d="M -0.5,249.5 C 82.8333,249.5 166.167,249.5 249.5,249.5C 249.5,332.833 249.5,416.167 249.5,499.5C 291.167,499.5 332.833,499.5 374.5,499.5C 374.5,541.167 374.5,582.833 374.5,624.5C 249.5,624.5 124.5,624.5 -0.5,624.5C -0.5,499.5 -0.5,374.5 -0.5,249.5 Z"/></g>
<g><path style="opacity:1" fill="#fefffc" d="M 374.5,249.5 C 416.167,249.5 457.833,249.5 499.5,249.5C 499.5,291.167 499.5,332.833 499.5,374.5C 457.833,374.5 416.167,374.5 374.5,374.5C 374.5,332.833 374.5,291.167 374.5,249.5 Z"/></g>
<g><path style="opacity:1" fill="#0d7ec8" d="M 499.5,249.5 C 541.167,249.5 582.833,249.5 624.5,249.5C 624.5,291.167 624.5,332.833 624.5,374.5C 603.5,374.5 582.5,374.5 561.5,374.5C 540.833,374.5 520.167,374.5 499.5,374.5C 499.5,332.833 499.5,291.167 499.5,249.5 Z"/></g>
<g><path style="opacity:1" fill="#0d7ec8" d="M 874.5,249.5 C 874.5,291.167 874.5,332.833 874.5,374.5C 853.5,374.5 832.5,374.5 811.5,374.5C 790.833,374.5 770.167,374.5 749.5,374.5C 749.5,332.833 749.5,291.167 749.5,249.5C 791.167,249.5 832.833,249.5 874.5,249.5 Z"/></g>
<g><path style="opacity:1" fill="#fefffc" d="M 874.5,249.5 C 916.167,249.5 957.833,249.5 999.5,249.5C 999.5,291.167 999.5,332.833 999.5,374.5C 978.5,374.5 957.5,374.5 936.5,374.5C 915.833,374.5 895.167,374.5 874.5,374.5C 874.5,332.833 874.5,291.167 874.5,249.5 Z"/></g>
<g><path style="opacity:1" fill="#544c3a" d="M 374.5,374.5 C 416.167,374.5 457.833,374.5 499.5,374.5C 499.5,416.167 499.5,457.833 499.5,499.5C 457.833,499.5 416.167,499.5 374.5,499.5C 374.5,457.833 374.5,416.167 374.5,374.5 Z"/></g>
<g><path style="opacity:1" fill="#80786a" d="M 499.5,374.5 C 520.167,374.5 540.833,374.5 561.5,374.5C 561.5,416.167 561.5,457.833 561.5,499.5C 540.833,499.5 520.167,499.5 499.5,499.5C 499.5,457.833 499.5,416.167 499.5,374.5 Z"/></g>
<g><path style="opacity:1" fill="#9b958a" d="M 561.5,374.5 C 582.5,374.5 603.5,374.5 624.5,374.5C 645.167,374.5 665.833,374.5 686.5,374.5C 686.5,416.167 686.5,457.833 686.5,499.5C 644.833,499.5 603.167,499.5 561.5,499.5C 561.5,457.833 561.5,416.167 561.5,374.5 Z"/></g>
<g><path style="opacity:1" fill="#9b958a" d="M 811.5,374.5 C 832.5,374.5 853.5,374.5 874.5,374.5C 895.167,374.5 915.833,374.5 936.5,374.5C 936.5,416.167 936.5,457.833 936.5,499.5C 894.833,499.5 853.167,499.5 811.5,499.5C 811.5,457.833 811.5,416.167 811.5,374.5 Z"/></g>
<g><path style="opacity:1" fill="#544c3a" d="M 936.5,374.5 C 957.5,374.5 978.5,374.5 999.5,374.5C 999.5,416.167 999.5,457.833 999.5,499.5C 978.5,499.5 957.5,499.5 936.5,499.5C 936.5,457.833 936.5,416.167 936.5,374.5 Z"/></g>
<g><path style="opacity:1" fill="#e0d6c2" d="M 374.5,499.5 C 416.167,499.5 457.833,499.5 499.5,499.5C 499.5,541.167 499.5,582.833 499.5,624.5C 457.833,624.5 416.167,624.5 374.5,624.5C 374.5,582.833 374.5,541.167 374.5,499.5 Z"/></g>
<g><path style="opacity:1" fill="#3c331f" d="M 499.5,499.5 C 520.167,499.5 540.833,499.5 561.5,499.5C 561.5,541.167 561.5,582.833 561.5,624.5C 540.833,624.5 520.167,624.5 499.5,624.5C 499.5,582.833 499.5,541.167 499.5,499.5 Z"/></g>
<g><path style="opacity:1" fill="#544c3a" d="M 561.5,499.5 C 603.167,499.5 644.833,499.5 686.5,499.5C 686.5,541.167 686.5,582.833 686.5,624.5C 644.833,624.5 603.167,624.5 561.5,624.5C 561.5,582.833 561.5,541.167 561.5,499.5 Z"/></g>
<g><path style="opacity:1" fill="#544c3a" d="M 811.5,499.5 C 853.167,499.5 894.833,499.5 936.5,499.5C 936.5,541.167 936.5,582.833 936.5,624.5C 894.833,624.5 853.167,624.5 811.5,624.5C 811.5,582.833 811.5,541.167 811.5,499.5 Z"/></g>
<g><path style="opacity:1" fill="#e0d6c2" d="M 936.5,499.5 C 957.5,499.5 978.5,499.5 999.5,499.5C 999.5,541.167 999.5,582.833 999.5,624.5C 978.5,624.5 957.5,624.5 936.5,624.5C 936.5,582.833 936.5,541.167 936.5,499.5 Z"/></g>
</svg>
