<svg viewBox="0 0 1300 1200" xmlns="http://www.w3.org/2000/svg"><rect x="0" y="200" width="800" height="600" fill="#8a2519" /><rect x="200" y="750" width="600" height="100" fill="#8a2519" /><rect x="50" y="300" width="100" height="400" fill="#7c120d" /><rect x="0" y="450" width="250" height="100" fill="#a4962d" /><rect x="200" y="450" width="600" height="100" fill="#dac83d" /><rect x="450" y="200" width="100" height="600" fill="#dac83d" /><rect x="300" y="300" width="400" height="400" fill="#310604" /><rect x="400" y="150" width="200" height="100" fill="#a4962d" /><rect x="550" y="150" width="100" height="100" fill="#dac83d" /><rect x="600" y="600" width="100" height="100" fill="#bfd4e9" /><rect x="700" y="450" width="200" height="150" fill="#bfd4e9" /><rect x="600" y="0" width="700" height="500" fill="#bfd4e9" /><rect x="700" y="100" width="500" height="300" fill="#dcf2f1" /><rect x="700" y="300" width="300" height="100" fill="#222222" /><rect x="1100" y="300" width="100" height="100" fill="#222222" /><rect x="900" y="100" width="200" height="100" fill="#222222" /><rect x="700" y="100" width="100" height="100" fill="#222222" /><rect x="200" y="800" width="350" height="350" fill="#8a2519" /><rect x="500" y="800" width="600" height="350" fill="#b63021" /><rect x="250" y="900" width="200" height="250" fill="#7c120d" /><rect x="600" y="900" width="400" height="250" fill="#a41711" /><rect x="200" y="1100" width="350" height="100" fill="#3a0300" /><rect x="500" y="1100" width="600" height="100" fill="#4c0300" /></svg>