<?xml version="1.0" encoding="UTF-8"?>
<!DOCTYPE svg PUBLIC "-//W3C//DTD SVG 1.1//EN" "http://www.w3.org/Graphics/SVG/1.1/DTD/svg11.dtd">
<svg xmlns="http://www.w3.org/2000/svg" version="1.1" width="1000px" height="954px" style="shape-rendering:geometricPrecision; text-rendering:geometricPrecision; image-rendering:optimizeQuality; fill-rule:evenodd; clip-rule:evenodd" xmlns:xlink="http://www.w3.org/1999/xlink">
<g><path style="opacity:1" fill="#757675" d="M 363.5,-0.5 C 408.833,-0.5 454.167,-0.5 499.5,-0.5C 499.5,29.8333 499.5,60.1667 499.5,90.5C 454.167,90.5 408.833,90.5 363.5,90.5C 363.5,75.1667 363.5,59.8333 363.5,44.5C 363.5,29.5 363.5,14.5 363.5,-0.5 Z"/></g>
<g><path style="opacity:1" fill="#a4a5a4" d="M 499.5,-0.5 C 529.833,-0.5 560.167,-0.5 590.5,-0.5C 590.5,14.5 590.5,29.5 590.5,44.5C 590.5,59.8333 590.5,75.1667 590.5,90.5C 560.167,90.5 529.833,90.5 499.5,90.5C 499.5,60.1667 499.5,29.8333 499.5,-0.5 Z"/></g>
<g><path style="opacity:1" fill="#1c1a13" d="M -0.5,44.5 C 120.833,44.5 242.167,44.5 363.5,44.5C 363.5,59.8333 363.5,75.1667 363.5,90.5C 408.833,90.5 454.167,90.5 499.5,90.5C 529.833,90.5 560.167,90.5 590.5,90.5C 590.5,75.1667 590.5,59.8333 590.5,44.5C 635.833,44.5 681.167,44.5 726.5,44.5C 726.5,74.8333 726.5,105.167 726.5,135.5C 635.833,135.5 545.167,135.5 454.5,135.5C 393.833,135.5 333.167,135.5 272.5,135.5C 272.5,287.167 272.5,438.833 272.5,590.5C 333.167,590.5 393.833,590.5 454.5,590.5C 454.5,711.5 454.5,832.5 454.5,953.5C 363.5,953.5 272.5,953.5 181.5,953.5C 181.5,832.5 181.5,711.5 181.5,590.5C 120.833,590.5 60.1667,590.5 -0.5,590.5C -0.5,408.5 -0.5,226.5 -0.5,44.5 Z"/></g>
<g><path style="opacity:1" fill="#855106" d="M 44.5,135.5 C 74.8333,135.5 105.167,135.5 135.5,135.5C 135.5,256.833 135.5,378.167 135.5,499.5C 105.167,499.5 74.8333,499.5 44.5,499.5C 44.5,378.167 44.5,256.833 44.5,135.5 Z"/></g>
<g><path style="opacity:1" fill="#bfc0bf" d="M 454.5,135.5 C 454.5,165.833 454.5,196.167 454.5,226.5C 454.5,256.833 454.5,287.167 454.5,317.5C 454.5,347.833 454.5,378.167 454.5,408.5C 454.5,438.833 454.5,469.167 454.5,499.5C 454.5,529.833 454.5,560.167 454.5,590.5C 393.833,590.5 333.167,590.5 272.5,590.5C 272.5,438.833 272.5,287.167 272.5,135.5C 333.167,135.5 393.833,135.5 454.5,135.5 Z"/></g>
<g><path style="opacity:1" fill="#fefffe" d="M 454.5,135.5 C 545.167,135.5 635.833,135.5 726.5,135.5C 756.833,135.5 787.167,135.5 817.5,135.5C 817.5,165.833 817.5,196.167 817.5,226.5C 787.167,226.5 756.833,226.5 726.5,226.5C 726.5,256.833 726.5,287.167 726.5,317.5C 665.833,317.5 605.167,317.5 544.5,317.5C 544.5,287.167 544.5,256.833 544.5,226.5C 514.5,226.5 484.5,226.5 454.5,226.5C 454.5,196.167 454.5,165.833 454.5,135.5 Z"/></g>
<g><path style="opacity:1" fill="#000000" d="M 454.5,226.5 C 484.5,226.5 514.5,226.5 544.5,226.5C 544.5,256.833 544.5,287.167 544.5,317.5C 514.5,317.5 484.5,317.5 454.5,317.5C 454.5,287.167 454.5,256.833 454.5,226.5 Z"/></g>
<g><path style="opacity:1" fill="#000000" d="M 817.5,226.5 C 817.5,256.833 817.5,287.167 817.5,317.5C 787.167,317.5 756.833,317.5 726.5,317.5C 726.5,287.167 726.5,256.833 726.5,226.5C 756.833,226.5 787.167,226.5 817.5,226.5 Z"/></g>
<g><path style="opacity:1" fill="#916f32" d="M 454.5,317.5 C 484.5,317.5 514.5,317.5 544.5,317.5C 544.5,347.833 544.5,378.167 544.5,408.5C 514.5,408.5 484.5,408.5 454.5,408.5C 454.5,378.167 454.5,347.833 454.5,317.5 Z"/></g>
<g><path style="opacity:1" fill="#c09342" d="M 544.5,317.5 C 605.167,317.5 665.833,317.5 726.5,317.5C 756.833,317.5 787.167,317.5 817.5,317.5C 847.833,317.5 878.167,317.5 908.5,317.5C 908.5,347.833 908.5,378.167 908.5,408.5C 787.167,408.5 665.833,408.5 544.5,408.5C 544.5,378.167 544.5,347.833 544.5,317.5 Z"/></g>
<g><path style="opacity:1" fill="#705627" d="M 454.5,408.5 C 484.5,408.5 514.5,408.5 544.5,408.5C 544.5,438.833 544.5,469.167 544.5,499.5C 514.5,499.5 484.5,499.5 454.5,499.5C 454.5,469.167 454.5,438.833 454.5,408.5 Z"/></g>
<g><path style="opacity:1" fill="#957233" d="M 544.5,408.5 C 665.833,408.5 787.167,408.5 908.5,408.5C 908.5,438.833 908.5,469.167 908.5,499.5C 878.167,499.5 847.833,499.5 817.5,499.5C 802.5,499.5 787.5,499.5 772.5,499.5C 711.833,499.5 651.167,499.5 590.5,499.5C 575.167,499.5 559.833,499.5 544.5,499.5C 544.5,469.167 544.5,438.833 544.5,408.5 Z"/></g>
<g><path style="opacity:1" fill="#fefffe" d="M 454.5,499.5 C 484.5,499.5 514.5,499.5 544.5,499.5C 544.5,529.833 544.5,560.167 544.5,590.5C 514.5,590.5 484.5,590.5 454.5,590.5C 454.5,560.167 454.5,529.833 454.5,499.5 Z"/></g>
<g><path style="opacity:1" fill="#bf0000" d="M 544.5,499.5 C 559.833,499.5 575.167,499.5 590.5,499.5C 590.5,529.833 590.5,560.167 590.5,590.5C 575.167,590.5 559.833,590.5 544.5,590.5C 544.5,560.167 544.5,529.833 544.5,499.5 Z"/></g>
<g><path style="opacity:1" fill="#fe0000" d="M 590.5,499.5 C 651.167,499.5 711.833,499.5 772.5,499.5C 772.5,529.833 772.5,560.167 772.5,590.5C 711.833,590.5 651.167,590.5 590.5,590.5C 590.5,560.167 590.5,529.833 590.5,499.5 Z"/></g>
<g><path style="opacity:1" fill="#fefffe" d="M 772.5,499.5 C 787.5,499.5 802.5,499.5 817.5,499.5C 817.5,529.833 817.5,560.167 817.5,590.5C 802.5,590.5 787.5,590.5 772.5,590.5C 772.5,560.167 772.5,529.833 772.5,499.5 Z"/></g>
<g><path style="opacity:1" fill="#443c2e" d="M 454.5,590.5 C 484.5,590.5 514.5,590.5 544.5,590.5C 559.833,590.5 575.167,590.5 590.5,590.5C 651.167,590.5 711.833,590.5 772.5,590.5C 787.5,590.5 802.5,590.5 817.5,590.5C 878.167,590.5 938.833,590.5 999.5,590.5C 999.5,711.5 999.5,832.5 999.5,953.5C 817.833,953.5 636.167,953.5 454.5,953.5C 454.5,832.5 454.5,711.5 454.5,590.5 Z"/></g>
<g><path style="opacity:1" fill="#855106" d="M 226.5,680.5 C 287.167,680.5 347.833,680.5 408.5,680.5C 408.5,741.167 408.5,801.833 408.5,862.5C 347.833,862.5 287.167,862.5 226.5,862.5C 226.5,801.833 226.5,741.167 226.5,680.5 Z"/></g>
<g><path style="opacity:1" fill="#a66e1e" d="M 544.5,680.5 C 665.833,680.5 787.167,680.5 908.5,680.5C 908.5,741.167 908.5,801.833 908.5,862.5C 787.167,862.5 665.833,862.5 544.5,862.5C 544.5,801.833 544.5,741.167 544.5,680.5 Z"/></g>
</svg>
