<?xml version="1.0" encoding="UTF-8"?>
<!DOCTYPE svg PUBLIC "-//W3C//DTD SVG 1.1//EN" "http://www.w3.org/Graphics/SVG/1.1/DTD/svg11.dtd">
<svg xmlns="http://www.w3.org/2000/svg" version="1.1" width="1000px" height="857px" style="shape-rendering:geometricPrecision; text-rendering:geometricPrecision; image-rendering:optimizeQuality; fill-rule:evenodd; clip-rule:evenodd" xmlns:xlink="http://www.w3.org/1999/xlink">
<g><path style="opacity:1" fill="#bfc0bf" d="M -0.5,-0.5 C 94.8333,-0.5 190.167,-0.5 285.5,-0.5C 285.5,47.1667 285.5,94.8333 285.5,142.5C 285.5,190.167 285.5,237.833 285.5,285.5C 285.5,333.167 285.5,380.833 285.5,428.5C 285.5,475.833 285.5,523.167 285.5,570.5C 285.5,665.833 285.5,761.167 285.5,856.5C 190.167,856.5 94.8333,856.5 -0.5,856.5C -0.5,570.833 -0.5,285.167 -0.5,-0.5 Z"/></g>
<g><path style="opacity:1" fill="#fefffe" d="M 285.5,-0.5 C 475.833,-0.5 666.167,-0.5 856.5,-0.5C 856.5,47.1667 856.5,94.8333 856.5,142.5C 808.833,142.5 761.167,142.5 713.5,142.5C 713.5,190.167 713.5,237.833 713.5,285.5C 618.5,285.5 523.5,285.5 428.5,285.5C 428.5,237.833 428.5,190.167 428.5,142.5C 380.833,142.5 333.167,142.5 285.5,142.5C 285.5,94.8333 285.5,47.1667 285.5,-0.5 Z"/></g>
<g><path style="opacity:1" fill="#000000" d="M 285.5,142.5 C 333.167,142.5 380.833,142.5 428.5,142.5C 428.5,190.167 428.5,237.833 428.5,285.5C 380.833,285.5 333.167,285.5 285.5,285.5C 285.5,237.833 285.5,190.167 285.5,142.5 Z"/></g>
<g><path style="opacity:1" fill="#000000" d="M 856.5,142.5 C 856.5,190.167 856.5,237.833 856.5,285.5C 808.833,285.5 761.167,285.5 713.5,285.5C 713.5,237.833 713.5,190.167 713.5,142.5C 761.167,142.5 808.833,142.5 856.5,142.5 Z"/></g>
<g><path style="opacity:1" fill="#916f32" d="M 285.5,285.5 C 333.167,285.5 380.833,285.5 428.5,285.5C 428.5,333.167 428.5,380.833 428.5,428.5C 380.833,428.5 333.167,428.5 285.5,428.5C 285.5,380.833 285.5,333.167 285.5,285.5 Z"/></g>
<g><path style="opacity:1" fill="#c09342" d="M 428.5,285.5 C 523.5,285.5 618.5,285.5 713.5,285.5C 761.167,285.5 808.833,285.5 856.5,285.5C 904.167,285.5 951.833,285.5 999.5,285.5C 999.5,333.167 999.5,380.833 999.5,428.5C 809.167,428.5 618.833,428.5 428.5,428.5C 428.5,380.833 428.5,333.167 428.5,285.5 Z"/></g>
<g><path style="opacity:1" fill="#705627" d="M 285.5,428.5 C 333.167,428.5 380.833,428.5 428.5,428.5C 428.5,475.833 428.5,523.167 428.5,570.5C 380.833,570.5 333.167,570.5 285.5,570.5C 285.5,523.167 285.5,475.833 285.5,428.5 Z"/></g>
<g><path style="opacity:1" fill="#957233" d="M 428.5,428.5 C 618.833,428.5 809.167,428.5 999.5,428.5C 999.5,475.833 999.5,523.167 999.5,570.5C 951.833,570.5 904.167,570.5 856.5,570.5C 832.833,570.5 809.167,570.5 785.5,570.5C 690.167,570.5 594.833,570.5 499.5,570.5C 475.833,570.5 452.167,570.5 428.5,570.5C 428.5,523.167 428.5,475.833 428.5,428.5 Z"/></g>
<g><path style="opacity:1" fill="#fefffe" d="M 285.5,570.5 C 333.167,570.5 380.833,570.5 428.5,570.5C 428.5,665.833 428.5,761.167 428.5,856.5C 380.833,856.5 333.167,856.5 285.5,856.5C 285.5,761.167 285.5,665.833 285.5,570.5 Z"/></g>
<g><path style="opacity:1" fill="#bf0000" d="M 428.5,570.5 C 452.167,570.5 475.833,570.5 499.5,570.5C 499.5,665.833 499.5,761.167 499.5,856.5C 475.833,856.5 452.167,856.5 428.5,856.5C 428.5,761.167 428.5,665.833 428.5,570.5 Z"/></g>
<g><path style="opacity:1" fill="#fe0000" d="M 499.5,570.5 C 594.833,570.5 690.167,570.5 785.5,570.5C 785.5,665.833 785.5,761.167 785.5,856.5C 690.167,856.5 594.833,856.5 499.5,856.5C 499.5,761.167 499.5,665.833 499.5,570.5 Z"/></g>
<g><path style="opacity:1" fill="#fefffe" d="M 785.5,570.5 C 809.167,570.5 832.833,570.5 856.5,570.5C 856.5,665.833 856.5,761.167 856.5,856.5C 832.833,856.5 809.167,856.5 785.5,856.5C 785.5,761.167 785.5,665.833 785.5,570.5 Z"/></g>
</svg>
