<svg viewBox="0 0 650 600" xmlns="http://www.w3.org/2000/svg"><rect x="0" y="400" width="100" height="100" fill="#676667" /><rect x="0" y="200" width="100" height="100" fill="#676667" /><rect x="100" y="0" width="100" height="100" fill="#676667" /><rect x="300" y="0" width="100" height="100" fill="#676667" /><rect x="500" y="100" width="100" height="100" fill="#676667" /><rect x="400" y="500" width="100" height="100" fill="#676667" /><rect x="200" y="450" width="100" height="150" fill="#676667" /><rect x="100" y="200" width="100" height="200" fill="#7d7d7d" /><rect x="200" y="100" width="100" height="100" fill="#7d7d7d" /><rect x="400" y="200" width="100" height="200" fill="#7d7d7d" /><rect x="200" y="400" width="100" height="100" fill="#7d7d7d" /><rect x="50" y="400" width="100" height="100" fill="#888788" /><rect x="50" y="200" width="100" height="100" fill="#888788" /><rect x="150" y="0" width="100" height="100" fill="#888788" /><rect x="350" y="0" width="100" height="100" fill="#888788" /><rect x="550" y="100" width="100" height="100" fill="#888788" /><rect x="500" y="300" width="150" height="100" fill="#888788" /><rect x="450" y="500" width="100" height="100" fill="#888788" /><rect x="250" y="450" width="100" height="150" fill="#888788" /><rect x="150" y="200" width="100" height="200" fill="#a6a6a6" /><rect x="250" y="100" width="200" height="100" fill="#a6a6a6" /><rect x="450" y="200" width="100" height="200" fill="#a6a6a6" /><rect x="250" y="400" width="200" height="100" fill="#a6a6a6" /></svg>