<svg viewBox="0 0 950 900" xmlns="http://www.w3.org/2000/svg"><rect x="0" y="0" width="100" height="900" fill="#c0c0c0" /><rect x="800" y="50" width="100" height="800" fill="#c0c0c0" /><rect x="50" y="0" width="100" height="900" fill="#ffffff" /><rect x="50" y="0" width="900" height="100" fill="#ffffff" /><rect x="850" y="0" width="100" height="900" fill="#ffffff" /><rect x="50" y="800" width="900" height="100" fill="#ffffff" /><rect x="200" y="300" width="100" height="300" fill="#c0c0c0" /><rect x="300" y="600" width="100" height="100" fill="#c0c0c0" /><rect x="600" y="500" width="100" height="100" fill="#c0c0c0" /><rect x="600" y="300" width="100" height="100" fill="#c0c0c0" /><rect x="300" y="200" width="100" height="100" fill="#c0c0c0" /><rect x="250" y="300" width="100" height="300" fill="#ffffff" /><rect x="350" y="600" width="300" height="100" fill="#ffffff" /><rect x="650" y="500" width="100" height="100" fill="#ffffff" /><rect x="650" y="300" width="100" height="100" fill="#ffffff" /><rect x="350" y="200" width="300" height="100" fill="#ffffff" /></svg>