<svg viewBox="0 0 900 700" xmlns="http://www.w3.org/2000/svg"><rect x="650" y="0" width="100" height="150" fill="#1e1e1e" /><rect x="700" y="0" width="100" height="150" fill="#444444" /><rect x="0" y="100" width="350" height="600" fill="#36240e" /><rect x="300" y="100" width="600" height="600" fill="#573921" /><rect x="150" y="200" width="100" height="200" fill="#7c3d3d" /><rect x="100" y="150" width="100" height="150" fill="#7c3d3d" /><rect x="50" y="0" width="100" height="200" fill="#1e1e1e" /><rect x="100" y="0" width="100" height="200" fill="#444444" /><rect x="350" y="500" width="150" height="200" fill="#c9c9c9" /><rect x="450" y="400" width="300" height="150" fill="#c9c9c9" /><rect x="700" y="500" width="150" height="200" fill="#c9c9c9" /><rect x="450" y="500" width="300" height="200" fill="#606060" /><rect x="450" y="500" width="100" height="100" fill="#000000" /><rect x="650" y="500" width="100" height="100" fill="#000000" /><rect x="700" y="200" width="200" height="150" fill="#c9c9c9" /><rect x="300" y="200" width="200" height="150" fill="#c9c9c9" /><rect x="350" y="300" width="150" height="100" fill="#ffffff" /><rect x="700" y="300" width="150" height="100" fill="#ffffff" /><rect x="800" y="300" width="100" height="100" fill="#000000" /><rect x="300" y="300" width="100" height="100" fill="#000000" /><rect x="600" y="100" width="100" height="100" fill="#b3b3b3" /></svg>