<?xml version="1.0" encoding="UTF-8"?>
<!DOCTYPE svg PUBLIC "-//W3C//DTD SVG 1.1//EN" "http://www.w3.org/Graphics/SVG/1.1/DTD/svg11.dtd">
<svg xmlns="http://www.w3.org/2000/svg" version="1.1" width="1000px" height="777px" style="shape-rendering:geometricPrecision; text-rendering:geometricPrecision; image-rendering:optimizeQuality; fill-rule:evenodd; clip-rule:evenodd" xmlns:xlink="http://www.w3.org/1999/xlink">
<g><path style="opacity:1" fill="#1d1e1d" d="M 55.5,-0.5 C 73.8333,-0.5 92.1667,-0.5 110.5,-0.5C 110.5,73.5 110.5,147.5 110.5,221.5C 92.1667,221.5 73.8333,221.5 55.5,221.5C 55.5,184.5 55.5,147.5 55.5,110.5C 55.5,73.5 55.5,36.5 55.5,-0.5 Z"/></g>
<g><path style="opacity:1" fill="#434443" d="M 110.5,-0.5 C 147.5,-0.5 184.5,-0.5 221.5,-0.5C 221.5,36.5 221.5,73.5 221.5,110.5C 221.5,147.5 221.5,184.5 221.5,221.5C 184.5,221.5 147.5,221.5 110.5,221.5C 110.5,147.5 110.5,73.5 110.5,-0.5 Z"/></g>
<g><path style="opacity:1" fill="#1d1e1d" d="M 721.5,-0.5 C 740.167,-0.5 758.833,-0.5 777.5,-0.5C 777.5,36.5 777.5,73.5 777.5,110.5C 758.833,110.5 740.167,110.5 721.5,110.5C 721.5,73.5 721.5,36.5 721.5,-0.5 Z"/></g>
<g><path style="opacity:1" fill="#434443" d="M 777.5,-0.5 C 814.5,-0.5 851.5,-0.5 888.5,-0.5C 888.5,36.5 888.5,73.5 888.5,110.5C 851.5,110.5 814.5,110.5 777.5,110.5C 777.5,73.5 777.5,36.5 777.5,-0.5 Z"/></g>
<g><path style="opacity:1" fill="#35240d" d="M -0.5,110.5 C 18.1667,110.5 36.8333,110.5 55.5,110.5C 55.5,147.5 55.5,184.5 55.5,221.5C 73.8333,221.5 92.1667,221.5 110.5,221.5C 110.5,258.5 110.5,295.5 110.5,332.5C 129.167,332.5 147.833,332.5 166.5,332.5C 166.5,369.5 166.5,406.5 166.5,443.5C 203.5,443.5 240.5,443.5 277.5,443.5C 277.5,369.5 277.5,295.5 277.5,221.5C 258.833,221.5 240.167,221.5 221.5,221.5C 221.5,184.5 221.5,147.5 221.5,110.5C 258.5,110.5 295.5,110.5 332.5,110.5C 332.5,147.5 332.5,184.5 332.5,221.5C 332.5,258.5 332.5,295.5 332.5,332.5C 332.5,369.5 332.5,406.5 332.5,443.5C 332.5,554.5 332.5,665.5 332.5,776.5C 221.5,776.5 110.5,776.5 -0.5,776.5C -0.5,554.5 -0.5,332.5 -0.5,110.5 Z"/></g>
<g><path style="opacity:1" fill="#563920" d="M 332.5,110.5 C 443.833,110.5 555.167,110.5 666.5,110.5C 666.5,147.5 666.5,184.5 666.5,221.5C 703.5,221.5 740.5,221.5 777.5,221.5C 777.5,258.5 777.5,295.5 777.5,332.5C 777.5,369.5 777.5,406.5 777.5,443.5C 703.5,443.5 629.5,443.5 555.5,443.5C 555.5,406.5 555.5,369.5 555.5,332.5C 555.5,295.5 555.5,258.5 555.5,221.5C 481.167,221.5 406.833,221.5 332.5,221.5C 332.5,184.5 332.5,147.5 332.5,110.5 Z"/></g>
<g><path style="opacity:1" fill="#b2b3b2" d="M 666.5,110.5 C 684.833,110.5 703.167,110.5 721.5,110.5C 740.167,110.5 758.833,110.5 777.5,110.5C 777.5,147.5 777.5,184.5 777.5,221.5C 740.5,221.5 703.5,221.5 666.5,221.5C 666.5,184.5 666.5,147.5 666.5,110.5 Z"/></g>
<g><path style="opacity:1" fill="#563920" d="M 777.5,110.5 C 814.5,110.5 851.5,110.5 888.5,110.5C 925.5,110.5 962.5,110.5 999.5,110.5C 999.5,147.5 999.5,184.5 999.5,221.5C 925.5,221.5 851.5,221.5 777.5,221.5C 777.5,184.5 777.5,147.5 777.5,110.5 Z"/></g>
<g><path style="opacity:1" fill="#7b3d3c" d="M 110.5,221.5 C 147.5,221.5 184.5,221.5 221.5,221.5C 240.167,221.5 258.833,221.5 277.5,221.5C 277.5,295.5 277.5,369.5 277.5,443.5C 240.5,443.5 203.5,443.5 166.5,443.5C 166.5,406.5 166.5,369.5 166.5,332.5C 147.833,332.5 129.167,332.5 110.5,332.5C 110.5,295.5 110.5,258.5 110.5,221.5 Z"/></g>
<g><path style="opacity:1" fill="#c8c9c8" d="M 332.5,221.5 C 406.833,221.5 481.167,221.5 555.5,221.5C 555.5,258.5 555.5,295.5 555.5,332.5C 518.167,332.5 480.833,332.5 443.5,332.5C 406.5,332.5 369.5,332.5 332.5,332.5C 332.5,295.5 332.5,258.5 332.5,221.5 Z"/></g>
<g><path style="opacity:1" fill="#c8c9c8" d="M 777.5,221.5 C 851.5,221.5 925.5,221.5 999.5,221.5C 999.5,258.5 999.5,295.5 999.5,332.5C 962.5,332.5 925.5,332.5 888.5,332.5C 851.5,332.5 814.5,332.5 777.5,332.5C 777.5,295.5 777.5,258.5 777.5,221.5 Z"/></g>
<g><path style="opacity:1" fill="#000000" d="M 332.5,332.5 C 369.5,332.5 406.5,332.5 443.5,332.5C 443.5,369.5 443.5,406.5 443.5,443.5C 406.5,443.5 369.5,443.5 332.5,443.5C 332.5,406.5 332.5,369.5 332.5,332.5 Z"/></g>
<g><path style="opacity:1" fill="#fefffe" d="M 443.5,332.5 C 480.833,332.5 518.167,332.5 555.5,332.5C 555.5,369.5 555.5,406.5 555.5,443.5C 536.833,443.5 518.167,443.5 499.5,443.5C 480.833,443.5 462.167,443.5 443.5,443.5C 443.5,406.5 443.5,369.5 443.5,332.5 Z"/></g>
<g><path style="opacity:1" fill="#fefffe" d="M 777.5,332.5 C 814.5,332.5 851.5,332.5 888.5,332.5C 888.5,369.5 888.5,406.5 888.5,443.5C 869.833,443.5 851.167,443.5 832.5,443.5C 814.167,443.5 795.833,443.5 777.5,443.5C 777.5,406.5 777.5,369.5 777.5,332.5 Z"/></g>
<g><path style="opacity:1" fill="#000000" d="M 888.5,332.5 C 925.5,332.5 962.5,332.5 999.5,332.5C 999.5,369.5 999.5,406.5 999.5,443.5C 962.5,443.5 925.5,443.5 888.5,443.5C 888.5,406.5 888.5,369.5 888.5,332.5 Z"/></g>
<g><path style="opacity:1" fill="#563920" d="M 332.5,443.5 C 369.5,443.5 406.5,443.5 443.5,443.5C 462.167,443.5 480.833,443.5 499.5,443.5C 499.5,480.5 499.5,517.5 499.5,554.5C 462.5,554.5 425.5,554.5 388.5,554.5C 388.5,628.5 388.5,702.5 388.5,776.5C 369.833,776.5 351.167,776.5 332.5,776.5C 332.5,665.5 332.5,554.5 332.5,443.5 Z"/></g>
<g><path style="opacity:1" fill="#c8c9c8" d="M 499.5,443.5 C 518.167,443.5 536.833,443.5 555.5,443.5C 629.5,443.5 703.5,443.5 777.5,443.5C 795.833,443.5 814.167,443.5 832.5,443.5C 832.5,480.5 832.5,517.5 832.5,554.5C 795.5,554.5 758.5,554.5 721.5,554.5C 684.5,554.5 647.5,554.5 610.5,554.5C 573.5,554.5 536.5,554.5 499.5,554.5C 499.5,517.5 499.5,480.5 499.5,443.5 Z"/></g>
<g><path style="opacity:1" fill="#563920" d="M 832.5,443.5 C 851.167,443.5 869.833,443.5 888.5,443.5C 925.5,443.5 962.5,443.5 999.5,443.5C 999.5,554.5 999.5,665.5 999.5,776.5C 980.833,776.5 962.167,776.5 943.5,776.5C 943.5,702.5 943.5,628.5 943.5,554.5C 906.5,554.5 869.5,554.5 832.5,554.5C 832.5,517.5 832.5,480.5 832.5,443.5 Z"/></g>
<g><path style="opacity:1" fill="#c8c9c8" d="M 499.5,554.5 C 499.5,591.5 499.5,628.5 499.5,665.5C 499.5,702.5 499.5,739.5 499.5,776.5C 462.5,776.5 425.5,776.5 388.5,776.5C 388.5,702.5 388.5,628.5 388.5,554.5C 425.5,554.5 462.5,554.5 499.5,554.5 Z"/></g>
<g><path style="opacity:1" fill="#000000" d="M 499.5,554.5 C 536.5,554.5 573.5,554.5 610.5,554.5C 610.5,591.5 610.5,628.5 610.5,665.5C 573.5,665.5 536.5,665.5 499.5,665.5C 499.5,628.5 499.5,591.5 499.5,554.5 Z"/></g>
<g><path style="opacity:1" fill="#5f605f" d="M 610.5,554.5 C 647.5,554.5 684.5,554.5 721.5,554.5C 721.5,591.5 721.5,628.5 721.5,665.5C 758.5,665.5 795.5,665.5 832.5,665.5C 832.5,702.5 832.5,739.5 832.5,776.5C 721.5,776.5 610.5,776.5 499.5,776.5C 499.5,739.5 499.5,702.5 499.5,665.5C 536.5,665.5 573.5,665.5 610.5,665.5C 610.5,628.5 610.5,591.5 610.5,554.5 Z"/></g>
<g><path style="opacity:1" fill="#000000" d="M 721.5,554.5 C 758.5,554.5 795.5,554.5 832.5,554.5C 832.5,591.5 832.5,628.5 832.5,665.5C 795.5,665.5 758.5,665.5 721.5,665.5C 721.5,628.5 721.5,591.5 721.5,554.5 Z"/></g>
<g><path style="opacity:1" fill="#c8c9c8" d="M 832.5,554.5 C 869.5,554.5 906.5,554.5 943.5,554.5C 943.5,628.5 943.5,702.5 943.5,776.5C 906.5,776.5 869.5,776.5 832.5,776.5C 832.5,739.5 832.5,702.5 832.5,665.5C 832.5,628.5 832.5,591.5 832.5,554.5 Z"/></g>
</svg>
