<?xml version="1.0" encoding="UTF-8"?>
<!DOCTYPE svg PUBLIC "-//W3C//DTD SVG 1.1//EN" "http://www.w3.org/Graphics/SVG/1.1/DTD/svg11.dtd">
<svg xmlns="http://www.w3.org/2000/svg" version="1.1" width="1000px" height="1000px" style="shape-rendering:geometricPrecision; text-rendering:geometricPrecision; image-rendering:optimizeQuality; fill-rule:evenodd; clip-rule:evenodd" xmlns:xlink="http://www.w3.org/1999/xlink">
<g><path style="opacity:1" fill="#ced8db" d="M 374.5,-0.5 C 457.833,-0.5 541.167,-0.5 624.5,-0.5C 624.5,41.1667 624.5,82.8333 624.5,124.5C 707.833,124.5 791.167,124.5 874.5,124.5C 874.5,166.167 874.5,207.833 874.5,249.5C 916.167,249.5 957.833,249.5 999.5,249.5C 999.5,416.167 999.5,582.833 999.5,749.5C 957.833,749.5 916.167,749.5 874.5,749.5C 874.5,791.167 874.5,832.833 874.5,874.5C 791.167,874.5 707.833,874.5 624.5,874.5C 624.5,916.167 624.5,957.833 624.5,999.5C 541.167,999.5 457.833,999.5 374.5,999.5C 374.5,957.833 374.5,916.167 374.5,874.5C 291.167,874.5 207.833,874.5 124.5,874.5C 124.5,832.833 124.5,791.167 124.5,749.5C 82.8333,749.5 41.1667,749.5 -0.5,749.5C -0.5,582.833 -0.5,416.167 -0.5,249.5C 41.1667,249.5 82.8333,249.5 124.5,249.5C 124.5,207.833 124.5,166.167 124.5,124.5C 207.833,124.5 291.167,124.5 374.5,124.5C 374.5,82.8333 374.5,41.1667 374.5,-0.5 Z M 124.5,249.5 C 332.833,249.5 541.167,249.5 749.5,249.5C 749.5,291.167 749.5,332.833 749.5,374.5C 707.833,374.5 666.167,374.5 624.5,374.5C 624.5,416.167 624.5,457.833 624.5,499.5C 582.833,499.5 541.167,499.5 499.5,499.5C 499.5,541.167 499.5,582.833 499.5,624.5C 457.833,624.5 416.167,624.5 374.5,624.5C 374.5,582.833 374.5,541.167 374.5,499.5C 332.833,499.5 291.167,499.5 249.5,499.5C 249.5,457.833 249.5,416.167 249.5,374.5C 207.833,374.5 166.167,374.5 124.5,374.5C 124.5,332.833 124.5,291.167 124.5,249.5 Z"/></g>
</svg>
