<svg viewBox="0 0 950 850" xmlns="http://www.w3.org/2000/svg"><rect x="0" y="0" width="150" height="850" fill="#4d2774" /><rect x="100" y="0" width="850" height="850" fill="#663399" /><rect x="250" y="700" width="150" height="50" fill="#ffffff" /><rect x="200" y="550" width="50" height="150" fill="#ffffff" /><rect x="250" y="500" width="150" height="50" fill="#ffffff" /><rect x="450" y="700" width="150" height="50" fill="#ffffff" /><rect x="600" y="650" width="50" height="50" fill="#ffffff" /><rect x="500" y="600" width="100" height="50" fill="#ffffff" /><rect x="450" y="550" width="50" height="50" fill="#ffffff" /><rect x="500" y="500" width="150" height="50" fill="#ffffff" /><rect x="700" y="700" width="150" height="50" fill="#ffffff" /><rect x="850" y="650" width="50" height="50" fill="#ffffff" /><rect x="750" y="600" width="100" height="50" fill="#ffffff" /><rect x="700" y="550" width="50" height="50" fill="#ffffff" /><rect x="750" y="500" width="150" height="50" fill="#ffffff" /></svg>