<svg viewBox="0 0 1100 1050" xmlns="http://www.w3.org/2000/svg"><rect x="0" y="50" width="800" height="600" fill="#8a2519" /><rect x="200" y="600" width="600" height="100" fill="#8a2519" /><rect x="50" y="150" width="100" height="400" fill="#7c120d" /><rect x="0" y="300" width="250" height="100" fill="#a4962d" /><rect x="200" y="300" width="600" height="100" fill="#dac83d" /><rect x="450" y="50" width="100" height="600" fill="#dac83d" /><rect x="300" y="150" width="400" height="400" fill="#310604" /><rect x="400" y="0" width="200" height="100" fill="#a4962d" /><rect x="550" y="0" width="100" height="100" fill="#dac83d" /><rect x="200" y="0" width="150" height="750" fill="#4d2774" /><rect x="300" y="0" width="800" height="750" fill="#663399" /><rect x="450" y="600" width="100" height="50" fill="#ffffff" /><rect x="400" y="450" width="50" height="150" fill="#ffffff" /><rect x="450" y="400" width="100" height="50" fill="#ffffff" /><rect x="600" y="600" width="150" height="50" fill="#ffffff" /><rect x="750" y="550" width="50" height="50" fill="#ffffff" /><rect x="650" y="500" width="100" height="50" fill="#ffffff" /><rect x="600" y="450" width="50" height="50" fill="#ffffff" /><rect x="650" y="400" width="150" height="50" fill="#ffffff" /><rect x="850" y="600" width="150" height="50" fill="#ffffff" /><rect x="1000" y="550" width="50" height="50" fill="#ffffff" /><rect x="900" y="500" width="100" height="50" fill="#ffffff" /><rect x="850" y="450" width="50" height="50" fill="#ffffff" /><rect x="900" y="400" width="150" height="50" fill="#ffffff" /><rect x="200" y="650" width="350" height="350" fill="#8a2519" /><rect x="500" y="650" width="600" height="350" fill="#b63021" /><rect x="250" y="750" width="200" height="250" fill="#7c120d" /><rect x="600" y="750" width="400" height="250" fill="#a41711" /><rect x="200" y="950" width="350" height="100" fill="#3a0300" /><rect x="500" y="950" width="600" height="100" fill="#4c0300" /></svg>