<svg viewBox="0 0 1100 1350" xmlns="http://www.w3.org/2000/svg"><rect x="200" y="350" width="600" height="650" fill="#1d1a14" /><rect x="300" y="450" width="400" height="400" fill="#693f05" /><rect x="0" y="350" width="250" height="600" fill="#1d1a14" /><rect x="50" y="450" width="100" height="400" fill="#865107" /><rect x="400" y="300" width="200" height="100" fill="#767676" /><rect x="550" y="300" width="100" height="100" fill="#a5a5a5" /><rect x="500" y="100" width="100" height="650" fill="#c06a72" /><rect x="600" y="0" width="100" height="150" fill="#c06a72" /><rect x="550" y="100" width="300" height="650" fill="#ffccca" /><rect x="650" y="0" width="100" height="250" fill="#ffccca" /><rect x="650" y="200" width="100" height="550" fill="#ffa09d" /><rect x="400" y="700" width="100" height="100" fill="#871822" /><rect x="600" y="750" width="100" height="250" fill="#871822" /><rect x="450" y="700" width="500" height="100" fill="#ff221d" /><rect x="650" y="750" width="100" height="250" fill="#ff221d" /><rect x="200" y="950" width="350" height="400" fill="#1d1a14" /><rect x="250" y="1050" width="200" height="200" fill="#865107" /><rect x="500" y="950" width="600" height="400" fill="#453c2f" /><rect x="600" y="1050" width="400" height="200" fill="#a76e1f" /></svg>