<?xml version="1.0" encoding="UTF-8"?>
<!DOCTYPE svg PUBLIC "-//W3C//DTD SVG 1.1//EN" "http://www.w3.org/Graphics/SVG/1.1/DTD/svg11.dtd">
<svg xmlns="http://www.w3.org/2000/svg" version="1.1" width="1000px" height="1000px" style="shape-rendering:geometricPrecision; text-rendering:geometricPrecision; image-rendering:optimizeQuality; fill-rule:evenodd; clip-rule:evenodd" xmlns:xlink="http://www.w3.org/1999/xlink">
<g><path style="opacity:1" fill="#bf6d69" d="M 444.5,-0.5 C 463.167,-0.5 481.833,-0.5 500.5,-0.5C 500.5,36.8333 500.5,74.1667 500.5,111.5C 481.833,111.5 463.167,111.5 444.5,111.5C 444.5,74.1667 444.5,36.8333 444.5,-0.5 Z"/></g>
<g><path style="opacity:1" fill="#feccc9" d="M 500.5,-0.5 C 537.5,-0.5 574.5,-0.5 611.5,-0.5C 611.5,36.8333 611.5,74.1667 611.5,111.5C 648.5,111.5 685.5,111.5 722.5,111.5C 722.5,296.833 722.5,482.167 722.5,667.5C 685.5,667.5 648.5,667.5 611.5,667.5C 611.5,519.167 611.5,370.833 611.5,222.5C 574.5,222.5 537.5,222.5 500.5,222.5C 500.5,370.833 500.5,519.167 500.5,667.5C 463.5,667.5 426.5,667.5 389.5,667.5C 389.5,482.167 389.5,296.833 389.5,111.5C 407.833,111.5 426.167,111.5 444.5,111.5C 463.167,111.5 481.833,111.5 500.5,111.5C 500.5,74.1667 500.5,36.8333 500.5,-0.5 Z"/></g>
<g><path style="opacity:1" fill="#bf6d69" d="M 389.5,111.5 C 389.5,296.833 389.5,482.167 389.5,667.5C 370.833,667.5 352.167,667.5 333.5,667.5C 333.5,482.167 333.5,296.833 333.5,111.5C 352.167,111.5 370.833,111.5 389.5,111.5 Z"/></g>
<g><path style="opacity:1" fill="#fea09c" d="M 611.5,667.5 C 574.5,667.5 537.5,667.5 500.5,667.5C 500.5,519.167 500.5,370.833 500.5,222.5C 537.5,222.5 574.5,222.5 611.5,222.5C 611.5,370.833 611.5,519.167 611.5,667.5 Z"/></g>
<g><path style="opacity:1" fill="#861a17" d="M 277.5,667.5 C 277.5,704.5 277.5,741.5 277.5,778.5C 259.167,778.5 240.833,778.5 222.5,778.5C 222.5,741.5 222.5,704.5 222.5,667.5C 240.833,667.5 259.167,667.5 277.5,667.5 Z"/></g>
<g><path style="opacity:1" fill="#fe221c" d="M 277.5,667.5 C 296.167,667.5 314.833,667.5 333.5,667.5C 352.167,667.5 370.833,667.5 389.5,667.5C 426.5,667.5 463.5,667.5 500.5,667.5C 537.5,667.5 574.5,667.5 611.5,667.5C 648.5,667.5 685.5,667.5 722.5,667.5C 759.5,667.5 796.5,667.5 833.5,667.5C 833.5,704.5 833.5,741.5 833.5,778.5C 759.5,778.5 685.5,778.5 611.5,778.5C 611.5,852.167 611.5,925.833 611.5,999.5C 574.5,999.5 537.5,999.5 500.5,999.5C 500.5,925.833 500.5,852.167 500.5,778.5C 481.833,778.5 463.167,778.5 444.5,778.5C 388.833,778.5 333.167,778.5 277.5,778.5C 277.5,741.5 277.5,704.5 277.5,667.5 Z"/></g>
<g><path style="opacity:1" fill="#861a17" d="M 444.5,778.5 C 463.167,778.5 481.833,778.5 500.5,778.5C 500.5,852.167 500.5,925.833 500.5,999.5C 481.833,999.5 463.167,999.5 444.5,999.5C 444.5,925.833 444.5,852.167 444.5,778.5 Z"/></g>
</svg>
