<svg viewBox="0 0 1100 1350" xmlns="http://www.w3.org/2000/svg"><rect x="0" y="350" width="800" height="600" fill="#8a2519" /><rect x="200" y="900" width="600" height="100" fill="#8a2519" /><rect x="50" y="450" width="100" height="400" fill="#7c120d" /><rect x="0" y="600" width="250" height="100" fill="#a4962d" /><rect x="200" y="600" width="600" height="100" fill="#dac83d" /><rect x="450" y="350" width="100" height="600" fill="#dac83d" /><rect x="300" y="450" width="400" height="400" fill="#310604" /><rect x="400" y="300" width="200" height="100" fill="#a4962d" /><rect x="550" y="300" width="100" height="100" fill="#dac83d" /><rect x="500" y="100" width="100" height="650" fill="#c06a72" /><rect x="600" y="0" width="100" height="150" fill="#c06a72" /><rect x="550" y="100" width="300" height="650" fill="#ffccca" /><rect x="650" y="0" width="100" height="250" fill="#ffccca" /><rect x="650" y="200" width="100" height="550" fill="#ffa09d" /><rect x="400" y="700" width="100" height="100" fill="#871822" /><rect x="600" y="750" width="100" height="250" fill="#871822" /><rect x="450" y="700" width="500" height="100" fill="#ff221d" /><rect x="650" y="750" width="100" height="250" fill="#ff221d" /><rect x="200" y="950" width="350" height="350" fill="#8a2519" /><rect x="500" y="950" width="600" height="350" fill="#b63021" /><rect x="250" y="1050" width="200" height="250" fill="#7c120d" /><rect x="600" y="1050" width="400" height="250" fill="#a41711" /><rect x="200" y="1250" width="350" height="100" fill="#3a0300" /><rect x="500" y="1250" width="600" height="100" fill="#4c0300" /></svg>