<svg viewBox="0 0 900 850" xmlns="http://www.w3.org/2000/svg"><rect x="0" y="650" width="350" height="200" fill="#7b487b" /><rect x="50" y="650" width="200" height="100" fill="#815481" /><rect x="100" y="500" width="100" height="200" fill="#815481" /><rect x="300" y="650" width="600" height="200" fill="#a25ca2" /><rect x="400" y="650" width="400" height="100" fill="#a370a3" /><rect x="500" y="500" width="200" height="200" fill="#a370a3" /><rect x="0" y="0" width="100" height="400" fill="#875587" /><rect x="0" y="0" width="350" height="150" fill="#875587" /><rect x="50" y="100" width="50" height="300" fill="#8c638c" /><rect x="50" y="100" width="200" height="100" fill="#8c638c" /><rect x="200" y="150" width="100" height="250" fill="#8c638c" /><rect x="250" y="50" width="100" height="350" fill="#875587" /><rect x="300" y="0" width="150" height="400" fill="#a76ca7" /><rect x="300" y="0" width="600" height="150" fill="#a76ca7" /><rect x="750" y="50" width="150" height="350" fill="#a76ca7" /><rect x="400" y="100" width="100" height="300" fill="#aa82aa" /><rect x="400" y="100" width="400" height="100" fill="#aa82aa" /><rect x="700" y="150" width="100" height="250" fill="#aa82aa" /></svg>