<?xml version="1.0" encoding="UTF-8"?>
<!DOCTYPE svg PUBLIC "-//W3C//DTD SVG 1.1//EN" "http://www.w3.org/Graphics/SVG/1.1/DTD/svg11.dtd">
<svg xmlns="http://www.w3.org/2000/svg" version="1.1" width="1000px" height="667px" style="shape-rendering:geometricPrecision; text-rendering:geometricPrecision; image-rendering:optimizeQuality; fill-rule:evenodd; clip-rule:evenodd" xmlns:xlink="http://www.w3.org/1999/xlink">
<g><path style="opacity:1" fill="#85693b" d="M -0.5,-0.5 C 110.833,-0.5 222.167,-0.5 333.5,-0.5C 333.5,221.833 333.5,444.167 333.5,666.5C 222.167,666.5 110.833,666.5 -0.5,666.5C -0.5,444.167 -0.5,221.833 -0.5,-0.5 Z"/></g>
<g><path style="opacity:1" fill="#b28c50" d="M 333.5,-0.5 C 555.5,-0.5 777.5,-0.5 999.5,-0.5C 999.5,221.833 999.5,444.167 999.5,666.5C 777.5,666.5 555.5,666.5 333.5,666.5C 333.5,444.167 333.5,221.833 333.5,-0.5 Z"/></g>
<g><path style="opacity:1" fill="#8c100f" d="M 111.5,111.5 C 111.5,129.833 111.5,148.167 111.5,166.5C 111.5,203.5 111.5,240.5 111.5,277.5C 92.8333,277.5 74.1667,277.5 55.5,277.5C 55.5,222.167 55.5,166.833 55.5,111.5C 74.1667,111.5 92.8333,111.5 111.5,111.5 Z"/></g>
<g><path style="opacity:1" fill="#2f2412" d="M 111.5,111.5 C 148.5,111.5 185.5,111.5 222.5,111.5C 222.5,166.833 222.5,222.167 222.5,277.5C 203.833,277.5 185.167,277.5 166.5,277.5C 166.5,240.5 166.5,203.5 166.5,166.5C 148.167,166.5 129.833,166.5 111.5,166.5C 111.5,148.167 111.5,129.833 111.5,111.5 Z"/></g>
<g><path style="opacity:1" fill="#244a7a" d="M 222.5,111.5 C 240.833,111.5 259.167,111.5 277.5,111.5C 277.5,166.833 277.5,222.167 277.5,277.5C 259.167,277.5 240.833,277.5 222.5,277.5C 222.5,222.167 222.5,166.833 222.5,111.5 Z"/></g>
<g><path style="opacity:1" fill="#bb1615" d="M 555.5,111.5 C 555.5,129.833 555.5,148.167 555.5,166.5C 555.5,203.5 555.5,240.5 555.5,277.5C 518.5,277.5 481.5,277.5 444.5,277.5C 444.5,222.167 444.5,166.833 444.5,111.5C 481.5,111.5 518.5,111.5 555.5,111.5 Z"/></g>
<g><path style="opacity:1" fill="#403119" d="M 555.5,111.5 C 629.833,111.5 704.167,111.5 778.5,111.5C 778.5,166.833 778.5,222.167 778.5,277.5C 741.5,277.5 704.5,277.5 667.5,277.5C 667.5,240.5 667.5,203.5 667.5,166.5C 630.167,166.5 592.833,166.5 555.5,166.5C 555.5,148.167 555.5,129.833 555.5,111.5 Z"/></g>
<g><path style="opacity:1" fill="#3163a3" d="M 778.5,111.5 C 815.5,111.5 852.5,111.5 889.5,111.5C 889.5,166.833 889.5,222.167 889.5,277.5C 852.5,277.5 815.5,277.5 778.5,277.5C 778.5,222.167 778.5,166.833 778.5,111.5 Z"/></g>
<g><path style="opacity:1" fill="#576a0b" d="M 111.5,166.5 C 129.833,166.5 148.167,166.5 166.5,166.5C 166.5,203.5 166.5,240.5 166.5,277.5C 148.167,277.5 129.833,277.5 111.5,277.5C 111.5,240.5 111.5,203.5 111.5,166.5 Z"/></g>
<g><path style="opacity:1" fill="#748e10" d="M 555.5,166.5 C 592.833,166.5 630.167,166.5 667.5,166.5C 667.5,203.5 667.5,240.5 667.5,277.5C 630.167,277.5 592.833,277.5 555.5,277.5C 555.5,240.5 555.5,203.5 555.5,166.5 Z"/></g>
<g><path style="opacity:1" fill="#0c6a4f" d="M 111.5,389.5 C 111.5,444.833 111.5,500.167 111.5,555.5C 92.8333,555.5 74.1667,555.5 55.5,555.5C 55.5,500.167 55.5,444.833 55.5,389.5C 74.1667,389.5 92.8333,389.5 111.5,389.5 Z"/></g>
<g><path style="opacity:1" fill="#8c100f" d="M 111.5,389.5 C 129.833,389.5 148.167,389.5 166.5,389.5C 166.5,407.833 166.5,426.167 166.5,444.5C 166.5,481.5 166.5,518.5 166.5,555.5C 148.167,555.5 129.833,555.5 111.5,555.5C 111.5,500.167 111.5,444.833 111.5,389.5 Z"/></g>
<g><path style="opacity:1" fill="#576a0b" d="M 166.5,389.5 C 185.167,389.5 203.833,389.5 222.5,389.5C 222.5,407.833 222.5,426.167 222.5,444.5C 203.833,444.5 185.167,444.5 166.5,444.5C 166.5,426.167 166.5,407.833 166.5,389.5 Z"/></g>
<g><path style="opacity:1" fill="#2f2412" d="M 222.5,389.5 C 240.833,389.5 259.167,389.5 277.5,389.5C 277.5,407.833 277.5,426.167 277.5,444.5C 259.167,444.5 240.833,444.5 222.5,444.5C 222.5,426.167 222.5,407.833 222.5,389.5 Z"/></g>
<g><path style="opacity:1" fill="#118e6a" d="M 555.5,389.5 C 555.5,444.833 555.5,500.167 555.5,555.5C 518.5,555.5 481.5,555.5 444.5,555.5C 444.5,500.167 444.5,444.833 444.5,389.5C 481.5,389.5 518.5,389.5 555.5,389.5 Z"/></g>
<g><path style="opacity:1" fill="#bb1615" d="M 555.5,389.5 C 592.833,389.5 630.167,389.5 667.5,389.5C 667.5,407.833 667.5,426.167 667.5,444.5C 667.5,481.5 667.5,518.5 667.5,555.5C 630.167,555.5 592.833,555.5 555.5,555.5C 555.5,500.167 555.5,444.833 555.5,389.5 Z"/></g>
<g><path style="opacity:1" fill="#748e10" d="M 667.5,389.5 C 704.5,389.5 741.5,389.5 778.5,389.5C 778.5,407.833 778.5,426.167 778.5,444.5C 741.5,444.5 704.5,444.5 667.5,444.5C 667.5,426.167 667.5,407.833 667.5,389.5 Z"/></g>
<g><path style="opacity:1" fill="#403119" d="M 778.5,389.5 C 815.5,389.5 852.5,389.5 889.5,389.5C 889.5,407.833 889.5,426.167 889.5,444.5C 852.5,444.5 815.5,444.5 778.5,444.5C 778.5,426.167 778.5,407.833 778.5,389.5 Z"/></g>
<g><path style="opacity:1" fill="#2f2412" d="M 166.5,444.5 C 185.167,444.5 203.833,444.5 222.5,444.5C 222.5,481.5 222.5,518.5 222.5,555.5C 203.833,555.5 185.167,555.5 166.5,555.5C 166.5,518.5 166.5,481.5 166.5,444.5 Z"/></g>
<g><path style="opacity:1" fill="#576a0b" d="M 222.5,444.5 C 240.833,444.5 259.167,444.5 277.5,444.5C 277.5,481.5 277.5,518.5 277.5,555.5C 259.167,555.5 240.833,555.5 222.5,555.5C 222.5,518.5 222.5,481.5 222.5,444.5 Z"/></g>
<g><path style="opacity:1" fill="#403119" d="M 667.5,444.5 C 704.5,444.5 741.5,444.5 778.5,444.5C 778.5,481.5 778.5,518.5 778.5,555.5C 741.5,555.5 704.5,555.5 667.5,555.5C 667.5,518.5 667.5,481.5 667.5,444.5 Z"/></g>
<g><path style="opacity:1" fill="#748e10" d="M 778.5,444.5 C 815.5,444.5 852.5,444.5 889.5,444.5C 889.5,481.5 889.5,518.5 889.5,555.5C 852.5,555.5 815.5,555.5 778.5,555.5C 778.5,518.5 778.5,481.5 778.5,444.5 Z"/></g>
</svg>
