<svg viewBox="0 0 900 600" xmlns="http://www.w3.org/2000/svg"><rect x="0" y="0" width="350" height="600" fill="#86693c" /><rect x="50" y="100" width="200" height="400" fill="#302413" /><rect x="50" y="300" width="100" height="200" fill="#0c6a50" /><rect x="100" y="300" width="50" height="200" fill="#8d1010" /><rect x="200" y="400" width="50" height="100" fill="#586a0c" /><rect x="150" y="300" width="50" height="100" fill="#586a0c" /><rect x="50" y="150" width="100" height="150" fill="#586a0c" /><rect x="50" y="100" width="50" height="200" fill="#8d1010" /><rect x="200" y="100" width="50" height="200" fill="#244a7a" /><rect x="0" y="250" width="350" height="100" fill="#86693c" /><rect x="300" y="0" width="600" height="600" fill="#b38c51" /><rect x="400" y="100" width="400" height="400" fill="#41311a" /><rect x="400" y="300" width="150" height="200" fill="#118e6b" /><rect x="550" y="300" width="150" height="100" fill="#758e11" /><rect x="700" y="400" width="100" height="100" fill="#758e11" /><rect x="500" y="300" width="100" height="200" fill="#bc1616" /><rect x="450" y="150" width="150" height="150" fill="#758e11" /><rect x="400" y="100" width="100" height="200" fill="#bc1616" /><rect x="700" y="100" width="100" height="200" fill="#3163a3" /><rect x="300" y="250" width="600" height="100" fill="#b38c51" /></svg>