<svg viewBox="0 0 1100 1050" xmlns="http://www.w3.org/2000/svg"><rect x="0" y="50" width="800" height="600" fill="#8a2519" /><rect x="200" y="600" width="600" height="100" fill="#8a2519" /><rect x="50" y="150" width="100" height="400" fill="#7c120d" /><rect x="0" y="300" width="250" height="100" fill="#a4962d" /><rect x="200" y="300" width="600" height="100" fill="#dac83d" /><rect x="450" y="50" width="100" height="600" fill="#dac83d" /><rect x="300" y="150" width="400" height="400" fill="#310604" /><rect x="400" y="0" width="200" height="100" fill="#a4962d" /><rect x="550" y="0" width="100" height="100" fill="#dac83d" /><g opacity=".7490196078431373"><rect x="700" y="200" width="400" height="500" fill="#492590" /><rect x="700" y="600" width="150" height="100" fill="#af5eee" /><rect x="800" y="600" width="100" height="100" fill="#9848e0" /><rect x="1000" y="350" width="100" height="150" fill="#9848e0" /><rect x="700" y="200" width="300" height="100" fill="#af5eee" /><rect x="1000" y="300" width="100" height="100" fill="#af5eee" /><rect x="800" y="400" width="100" height="100" fill="#af5eee" /><rect x="900" y="500" width="100" height="100" fill="#af5eee" /><rect x="800" y="200" width="200" height="100" fill="#9848e0" /></g><rect x="200" y="200" width="350" height="500" fill="#01060c" /><rect x="250" y="300" width="100" height="100" fill="#060f12" /><rect x="200" y="400" width="100" height="100" fill="#060f12" /><rect x="250" y="450" width="50" height="150" fill="#112421" /><rect x="250" y="400" width="50" height="100" fill="#27293b" /><rect x="300" y="350" width="50" height="150" fill="#112421" /><rect x="300" y="300" width="100" height="100" fill="#0f4952" /><rect x="400" y="400" width="150" height="100" fill="#060f12" /><rect x="400" y="350" width="50" height="150" fill="#0f4952" /><rect x="350" y="300" width="100" height="100" fill="#112421" /><rect x="350" y="200" width="50" height="200" fill="#060f12" /><rect x="450" y="200" width="100" height="100" fill="#060f12" /><rect x="350" y="500" width="50" height="150" fill="#060f12" /><rect x="450" y="500" width="100" height="150" fill="#27293b" /><rect x="200" y="600" width="200" height="150" fill="#061a21" /><rect x="350" y="600" width="100" height="100" fill="#112421" /><rect x="400" y="600" width="150" height="100" fill="#010305" /><rect x="500" y="200" width="250" height="500" fill="#020811" /><rect x="700" y="200" width="50" height="300" fill="#17302c" /><rect x="650" y="300" width="100" height="100" fill="#15626d" /><rect x="600" y="350" width="100" height="150" fill="#15626d" /><rect x="550" y="300" width="150" height="100" fill="#081419" /><rect x="500" y="250" width="100" height="150" fill="#35374f" /><rect x="500" y="200" width="100" height="100" fill="#08232d" /><rect x="500" y="500" width="100" height="100" fill="#35374f" /><rect x="600" y="500" width="100" height="150" fill="#020407" /><rect x="550" y="500" width="100" height="100" fill="#17302c" /><rect x="600" y="600" width="150" height="100" fill="#08232d" /><rect x="200" y="650" width="350" height="350" fill="#8a2519" /><rect x="500" y="650" width="600" height="350" fill="#b63021" /><rect x="250" y="750" width="200" height="250" fill="#7c120d" /><rect x="600" y="750" width="400" height="250" fill="#a41711" /><rect x="200" y="950" width="350" height="100" fill="#3a0300" /><rect x="500" y="950" width="600" height="100" fill="#4c0300" /></svg>