<svg viewBox="0 0 750 500" xmlns="http://www.w3.org/2000/svg"><g opacity=".7490196078431373"><rect x="0" y="0" width="300" height="500" fill="#2b1c6d" /><rect x="200" y="100" width="100" height="150" fill="#8247b4" /><rect x="200" y="200" width="100" height="100" fill="#5c32a5" /><rect x="50" y="0" width="150" height="100" fill="#8247b4" /><rect x="100" y="0" width="50" height="100" fill="#5c32a5" /><rect x="0" y="100" width="50" height="300" fill="#8247b4" /><rect x="0" y="200" width="50" height="100" fill="#5c32a5" /><rect x="50" y="400" width="100" height="100" fill="#8247b4" /><rect x="100" y="400" width="50" height="100" fill="#5c32a5" /><rect x="150" y="300" width="50" height="100" fill="#8247b4" /><rect x="100" y="200" width="50" height="100" fill="#8247b4" /><rect x="250" y="0" width="500" height="500" fill="#492590" /><rect x="650" y="150" width="100" height="150" fill="#9342db" /><rect x="650" y="100" width="100" height="100" fill="#ba5eee" /><rect x="350" y="0" width="300" height="100" fill="#ba5eee" /><rect x="450" y="0" width="100" height="100" fill="#9342db" /><rect x="250" y="100" width="100" height="300" fill="#ba5eee" /><rect x="250" y="200" width="100" height="100" fill="#9342db" /><rect x="350" y="400" width="150" height="100" fill="#ba5eee" /><rect x="450" y="400" width="100" height="100" fill="#9342db" /><rect x="550" y="300" width="100" height="100" fill="#ba5eee" /><rect x="450" y="200" width="100" height="100" fill="#ba5eee" /></g></svg>