<svg viewBox="0 0 700 500" xmlns="http://www.w3.org/2000/svg"><g opacity=".7490196078431373"><rect x="400" y="0" width="300" height="500" fill="#492590" /><rect x="400" y="400" width="100" height="100" fill="#9848e0" /><rect x="600" y="150" width="100" height="150" fill="#9848e0" /><rect x="400" y="0" width="150" height="100" fill="#9848e0" /><rect x="600" y="100" width="100" height="100" fill="#af5eee" /><rect x="400" y="200" width="100" height="100" fill="#af5eee" /><rect x="500" y="300" width="100" height="100" fill="#af5eee" /><rect x="500" y="0" width="100" height="100" fill="#af5eee" /></g><rect x="0" y="0" width="250" height="500" fill="#01060c" /><rect x="0" y="150" width="50" height="150" fill="#112421" /><rect x="0" y="100" width="100" height="100" fill="#0f4952" /><rect x="100" y="200" width="150" height="100" fill="#060f12" /><rect x="100" y="150" width="50" height="150" fill="#0f4952" /><rect x="50" y="100" width="100" height="100" fill="#112421" /><rect x="50" y="0" width="50" height="200" fill="#060f12" /><rect x="150" y="0" width="100" height="100" fill="#060f12" /><rect x="50" y="300" width="50" height="150" fill="#060f12" /><rect x="150" y="300" width="100" height="150" fill="#27293b" /><rect x="0" y="400" width="100" height="100" fill="#061a21" /><rect x="50" y="400" width="100" height="100" fill="#112421" /><rect x="100" y="400" width="150" height="100" fill="#010305" /><rect x="200" y="0" width="250" height="500" fill="#020811" /><rect x="400" y="0" width="50" height="300" fill="#17302c" /><rect x="350" y="100" width="100" height="100" fill="#15626d" /><rect x="300" y="150" width="100" height="150" fill="#15626d" /><rect x="250" y="100" width="150" height="100" fill="#081419" /><rect x="200" y="50" width="100" height="150" fill="#35374f" /><rect x="200" y="0" width="100" height="100" fill="#08232d" /><rect x="200" y="300" width="100" height="100" fill="#35374f" /><rect x="300" y="300" width="100" height="150" fill="#020407" /><rect x="250" y="300" width="100" height="100" fill="#17302c" /><rect x="300" y="400" width="150" height="100" fill="#08232d" /></svg>