<?xml version="1.0" encoding="UTF-8"?>
<!DOCTYPE svg PUBLIC "-//W3C//DTD SVG 1.1//EN" "http://www.w3.org/Graphics/SVG/1.1/DTD/svg11.dtd">
<svg xmlns="http://www.w3.org/2000/svg" version="1.1" width="1000px" height="667px" style="shape-rendering:geometricPrecision; text-rendering:geometricPrecision; image-rendering:optimizeQuality; fill-rule:evenodd; clip-rule:evenodd" xmlns:xlink="http://www.w3.org/1999/xlink">
<g><path style="opacity:0.933" fill="#492590" d="M -0.5,-0.5 C 21.8333,-0.5 44.1667,-0.5 66.5,-0.5C 66.5,44.1667 66.5,88.8333 66.5,133.5C 44.1667,133.5 21.8333,133.5 -0.5,133.5C -0.5,88.8333 -0.5,44.1667 -0.5,-0.5 Z"/></g>
<g><path style="opacity:0.933" fill="#ae5eee" d="M 66.5,-0.5 C 88.8333,-0.5 111.167,-0.5 133.5,-0.5C 133.5,44.1667 133.5,88.8333 133.5,133.5C 111.167,133.5 88.8333,133.5 66.5,133.5C 66.5,88.8333 66.5,44.1667 66.5,-0.5 Z"/></g>
<g><path style="opacity:0.933" fill="#9748e0" d="M 133.5,-0.5 C 155.833,-0.5 178.167,-0.5 200.5,-0.5C 200.5,44.1667 200.5,88.8333 200.5,133.5C 178.167,133.5 155.833,133.5 133.5,133.5C 133.5,88.8333 133.5,44.1667 133.5,-0.5 Z"/></g>
<g><path style="opacity:0.933" fill="#ae5eee" d="M 200.5,-0.5 C 222.5,-0.5 244.5,-0.5 266.5,-0.5C 266.5,44.1667 266.5,88.8333 266.5,133.5C 244.5,133.5 222.5,133.5 200.5,133.5C 200.5,88.8333 200.5,44.1667 200.5,-0.5 Z"/></g>
<g><path style="opacity:0.811" fill="#492590" d="M 266.5,-0.5 C 333.167,-0.5 399.833,-0.5 466.5,-0.5C 466.5,44.1667 466.5,88.8333 466.5,133.5C 399.833,133.5 333.167,133.5 266.5,133.5C 266.5,88.8333 266.5,44.1667 266.5,-0.5 Z"/></g>
<g><path style="opacity:0.749" fill="#ae5eee" d="M 466.5,-0.5 C 511.167,-0.5 555.833,-0.5 600.5,-0.5C 600.5,44.1667 600.5,88.8333 600.5,133.5C 555.833,133.5 511.167,133.5 466.5,133.5C 466.5,88.8333 466.5,44.1667 466.5,-0.5 Z"/></g>
<g><path style="opacity:0.749" fill="#9748e0" d="M 600.5,-0.5 C 644.833,-0.5 689.167,-0.5 733.5,-0.5C 733.5,44.1667 733.5,88.8333 733.5,133.5C 689.167,133.5 644.833,133.5 600.5,133.5C 600.5,88.8333 600.5,44.1667 600.5,-0.5 Z"/></g>
<g><path style="opacity:0.749" fill="#ae5eee" d="M 733.5,-0.5 C 777.833,-0.5 822.167,-0.5 866.5,-0.5C 866.5,44.1667 866.5,88.8333 866.5,133.5C 822.167,133.5 777.833,133.5 733.5,133.5C 733.5,88.8333 733.5,44.1667 733.5,-0.5 Z"/></g>
<g><path style="opacity:0.749" fill="#492590" d="M 866.5,-0.5 C 910.833,-0.5 955.167,-0.5 999.5,-0.5C 999.5,44.1667 999.5,88.8333 999.5,133.5C 955.167,133.5 910.833,133.5 866.5,133.5C 866.5,88.8333 866.5,44.1667 866.5,-0.5 Z"/></g>
<g><path style="opacity:0.933" fill="#ae5eee" d="M -0.5,133.5 C 21.8333,133.5 44.1667,133.5 66.5,133.5C 66.5,177.833 66.5,222.167 66.5,266.5C 44.1667,266.5 21.8333,266.5 -0.5,266.5C -0.5,222.167 -0.5,177.833 -0.5,133.5 Z"/></g>
<g><path style="opacity:0.933" fill="#492590" d="M 66.5,133.5 C 88.8333,133.5 111.167,133.5 133.5,133.5C 133.5,177.833 133.5,222.167 133.5,266.5C 133.5,311.167 133.5,355.833 133.5,400.5C 155.833,400.5 178.167,400.5 200.5,400.5C 200.5,444.833 200.5,489.167 200.5,533.5C 178.167,533.5 155.833,533.5 133.5,533.5C 111.167,533.5 88.8333,533.5 66.5,533.5C 66.5,489.167 66.5,444.833 66.5,400.5C 66.5,355.833 66.5,311.167 66.5,266.5C 66.5,222.167 66.5,177.833 66.5,133.5 Z"/></g>
<g><path style="opacity:0.933" fill="#5325a2" d="M 133.5,133.5 C 155.833,133.5 178.167,133.5 200.5,133.5C 222.5,133.5 244.5,133.5 266.5,133.5C 266.5,177.833 266.5,222.167 266.5,266.5C 266.5,311.167 266.5,355.833 266.5,400.5C 244.5,400.5 222.5,400.5 200.5,400.5C 200.5,355.833 200.5,311.167 200.5,266.5C 178.167,266.5 155.833,266.5 133.5,266.5C 133.5,222.167 133.5,177.833 133.5,133.5 Z"/></g>
<g><path style="opacity:0.811" fill="#ae5eee" d="M 266.5,133.5 C 333.167,133.5 399.833,133.5 466.5,133.5C 466.5,177.833 466.5,222.167 466.5,266.5C 422.167,266.5 377.833,266.5 333.5,266.5C 311.167,266.5 288.833,266.5 266.5,266.5C 266.5,222.167 266.5,177.833 266.5,133.5 Z"/></g>
<g><path style="opacity:0.749" fill="#492590" d="M 466.5,133.5 C 511.167,133.5 555.833,133.5 600.5,133.5C 600.5,177.833 600.5,222.167 600.5,266.5C 600.5,311.167 600.5,355.833 600.5,400.5C 644.833,400.5 689.167,400.5 733.5,400.5C 733.5,444.833 733.5,489.167 733.5,533.5C 689.167,533.5 644.833,533.5 600.5,533.5C 555.833,533.5 511.167,533.5 466.5,533.5C 466.5,489.167 466.5,444.833 466.5,400.5C 466.5,355.833 466.5,311.167 466.5,266.5C 466.5,222.167 466.5,177.833 466.5,133.5 Z"/></g>
<g><path style="opacity:0.749" fill="#5325a2" d="M 600.5,133.5 C 644.833,133.5 689.167,133.5 733.5,133.5C 777.833,133.5 822.167,133.5 866.5,133.5C 866.5,177.833 866.5,222.167 866.5,266.5C 866.5,311.167 866.5,355.833 866.5,400.5C 822.167,400.5 777.833,400.5 733.5,400.5C 733.5,355.833 733.5,311.167 733.5,266.5C 689.167,266.5 644.833,266.5 600.5,266.5C 600.5,222.167 600.5,177.833 600.5,133.5 Z"/></g>
<g><path style="opacity:0.749" fill="#ae5eee" d="M 866.5,133.5 C 910.833,133.5 955.167,133.5 999.5,133.5C 999.5,177.833 999.5,222.167 999.5,266.5C 955.167,266.5 910.833,266.5 866.5,266.5C 866.5,222.167 866.5,177.833 866.5,133.5 Z"/></g>
<g><path style="opacity:0.933" fill="#9748e0" d="M -0.5,266.5 C 21.8333,266.5 44.1667,266.5 66.5,266.5C 66.5,311.167 66.5,355.833 66.5,400.5C 44.1667,400.5 21.8333,400.5 -0.5,400.5C -0.5,355.833 -0.5,311.167 -0.5,266.5 Z"/></g>
<g><path style="opacity:0.933" fill="#ae5eee" d="M 133.5,266.5 C 155.833,266.5 178.167,266.5 200.5,266.5C 200.5,311.167 200.5,355.833 200.5,400.5C 178.167,400.5 155.833,400.5 133.5,400.5C 133.5,355.833 133.5,311.167 133.5,266.5 Z"/></g>
<g><path style="opacity:0.933" fill="#8337d2" d="M 266.5,266.5 C 288.833,266.5 311.167,266.5 333.5,266.5C 333.5,311.167 333.5,355.833 333.5,400.5C 311.167,400.5 288.833,400.5 266.5,400.5C 266.5,355.833 266.5,311.167 266.5,266.5 Z"/></g>
<g><path style="opacity:0.749" fill="#9748e0" d="M 333.5,266.5 C 377.833,266.5 422.167,266.5 466.5,266.5C 466.5,311.167 466.5,355.833 466.5,400.5C 422.167,400.5 377.833,400.5 333.5,400.5C 333.5,355.833 333.5,311.167 333.5,266.5 Z"/></g>
<g><path style="opacity:0.749" fill="#ae5eee" d="M 600.5,266.5 C 644.833,266.5 689.167,266.5 733.5,266.5C 733.5,311.167 733.5,355.833 733.5,400.5C 689.167,400.5 644.833,400.5 600.5,400.5C 600.5,355.833 600.5,311.167 600.5,266.5 Z"/></g>
<g><path style="opacity:0.749" fill="#8337d2" d="M 866.5,266.5 C 910.833,266.5 955.167,266.5 999.5,266.5C 999.5,311.167 999.5,355.833 999.5,400.5C 955.167,400.5 910.833,400.5 866.5,400.5C 866.5,355.833 866.5,311.167 866.5,266.5 Z"/></g>
<g><path style="opacity:0.933" fill="#ae5eee" d="M -0.5,400.5 C 21.8333,400.5 44.1667,400.5 66.5,400.5C 66.5,444.833 66.5,489.167 66.5,533.5C 44.1667,533.5 21.8333,533.5 -0.5,533.5C -0.5,489.167 -0.5,444.833 -0.5,400.5 Z"/></g>
<g><path style="opacity:0.933" fill="#ae5eee" d="M 200.5,400.5 C 222.5,400.5 244.5,400.5 266.5,400.5C 266.5,444.833 266.5,489.167 266.5,533.5C 244.5,533.5 222.5,533.5 200.5,533.5C 200.5,489.167 200.5,444.833 200.5,400.5 Z"/></g>
<g><path style="opacity:0.86" fill="#492590" d="M 266.5,400.5 C 288.833,400.5 311.167,400.5 333.5,400.5C 333.5,444.833 333.5,489.167 333.5,533.5C 377.833,533.5 422.167,533.5 466.5,533.5C 466.5,577.833 466.5,622.167 466.5,666.5C 377.833,666.5 289.167,666.5 200.5,666.5C 200.5,622.167 200.5,577.833 200.5,533.5C 222.5,533.5 244.5,533.5 266.5,533.5C 266.5,489.167 266.5,444.833 266.5,400.5 Z"/></g>
<g><path style="opacity:0.749" fill="#ae5eee" d="M 333.5,400.5 C 377.833,400.5 422.167,400.5 466.5,400.5C 466.5,444.833 466.5,489.167 466.5,533.5C 422.167,533.5 377.833,533.5 333.5,533.5C 333.5,489.167 333.5,444.833 333.5,400.5 Z"/></g>
<g><path style="opacity:0.749" fill="#ae5eee" d="M 733.5,400.5 C 777.833,400.5 822.167,400.5 866.5,400.5C 866.5,444.833 866.5,489.167 866.5,533.5C 822.167,533.5 777.833,533.5 733.5,533.5C 733.5,489.167 733.5,444.833 733.5,400.5 Z"/></g>
<g><path style="opacity:0.749" fill="#492590" d="M 866.5,400.5 C 910.833,400.5 955.167,400.5 999.5,400.5C 999.5,489.167 999.5,577.833 999.5,666.5C 910.833,666.5 822.167,666.5 733.5,666.5C 733.5,622.167 733.5,577.833 733.5,533.5C 777.833,533.5 822.167,533.5 866.5,533.5C 866.5,489.167 866.5,444.833 866.5,400.5 Z"/></g>
<g><path style="opacity:0.933" fill="#492590" d="M -0.5,533.5 C 21.8333,533.5 44.1667,533.5 66.5,533.5C 66.5,577.833 66.5,622.167 66.5,666.5C 44.1667,666.5 21.8333,666.5 -0.5,666.5C -0.5,622.167 -0.5,577.833 -0.5,533.5 Z"/></g>
<g><path style="opacity:0.933" fill="#ae5eee" d="M 66.5,533.5 C 88.8333,533.5 111.167,533.5 133.5,533.5C 133.5,577.833 133.5,622.167 133.5,666.5C 111.167,666.5 88.8333,666.5 66.5,666.5C 66.5,622.167 66.5,577.833 66.5,533.5 Z"/></g>
<g><path style="opacity:0.933" fill="#9748e0" d="M 133.5,533.5 C 155.833,533.5 178.167,533.5 200.5,533.5C 200.5,577.833 200.5,622.167 200.5,666.5C 178.167,666.5 155.833,666.5 133.5,666.5C 133.5,622.167 133.5,577.833 133.5,533.5 Z"/></g>
<g><path style="opacity:0.749" fill="#ae5eee" d="M 466.5,533.5 C 511.167,533.5 555.833,533.5 600.5,533.5C 600.5,577.833 600.5,622.167 600.5,666.5C 555.833,666.5 511.167,666.5 466.5,666.5C 466.5,622.167 466.5,577.833 466.5,533.5 Z"/></g>
<g><path style="opacity:0.749" fill="#9748e0" d="M 600.5,533.5 C 644.833,533.5 689.167,533.5 733.5,533.5C 733.5,577.833 733.5,622.167 733.5,666.5C 689.167,666.5 644.833,666.5 600.5,666.5C 600.5,622.167 600.5,577.833 600.5,533.5 Z"/></g>
</svg>
