<?xml version="1.0" encoding="UTF-8"?>
<!DOCTYPE svg PUBLIC "-//W3C//DTD SVG 1.1//EN" "http://www.w3.org/Graphics/SVG/1.1/DTD/svg11.dtd">
<svg xmlns="http://www.w3.org/2000/svg" version="1.1" width="1000px" height="875px" style="shape-rendering:geometricPrecision; text-rendering:geometricPrecision; image-rendering:optimizeQuality; fill-rule:evenodd; clip-rule:evenodd" xmlns:xlink="http://www.w3.org/1999/xlink">
<g><path style="opacity:1" fill="#a3962c" d="M 332.5,-0.5 C 374.167,-0.5 415.833,-0.5 457.5,-0.5C 457.5,27.1667 457.5,54.8333 457.5,82.5C 429.833,82.5 402.167,82.5 374.5,82.5C 360.5,82.5 346.5,82.5 332.5,82.5C 332.5,68.8333 332.5,55.1667 332.5,41.5C 332.5,27.5 332.5,13.5 332.5,-0.5 Z"/></g>
<g><path style="opacity:1" fill="#d9c83c" d="M 457.5,-0.5 C 485.5,-0.5 513.5,-0.5 541.5,-0.5C 541.5,13.5 541.5,27.5 541.5,41.5C 541.5,55.1667 541.5,68.8333 541.5,82.5C 513.5,82.5 485.5,82.5 457.5,82.5C 457.5,54.8333 457.5,27.1667 457.5,-0.5 Z"/></g>
<g><path style="opacity:1" fill="#892518" d="M -0.5,41.5 C 110.5,41.5 221.5,41.5 332.5,41.5C 332.5,55.1667 332.5,68.8333 332.5,82.5C 346.5,82.5 360.5,82.5 374.5,82.5C 374.5,96.5 374.5,110.5 374.5,124.5C 305.167,124.5 235.833,124.5 166.5,124.5C 166.5,166.167 166.5,207.833 166.5,249.5C 152.5,249.5 138.5,249.5 124.5,249.5C 124.5,207.833 124.5,166.167 124.5,124.5C 96.8333,124.5 69.1667,124.5 41.5,124.5C 41.5,166.167 41.5,207.833 41.5,249.5C 27.5,249.5 13.5,249.5 -0.5,249.5C -0.5,180.167 -0.5,110.833 -0.5,41.5 Z"/></g>
<g><path style="opacity:1" fill="#892518" d="M 541.5,41.5 C 583.167,41.5 624.833,41.5 666.5,41.5C 666.5,69.1667 666.5,96.8333 666.5,124.5C 596.833,124.5 527.167,124.5 457.5,124.5C 457.5,110.5 457.5,96.5 457.5,82.5C 485.5,82.5 513.5,82.5 541.5,82.5C 541.5,68.8333 541.5,55.1667 541.5,41.5 Z"/></g>
<g><path style="opacity:1" fill="#d9c83c" d="M 374.5,82.5 C 402.167,82.5 429.833,82.5 457.5,82.5C 457.5,96.5 457.5,110.5 457.5,124.5C 429.833,124.5 402.167,124.5 374.5,124.5C 374.5,110.5 374.5,96.5 374.5,82.5 Z"/></g>
<g><path style="opacity:1" fill="#7b120c" d="M 124.5,249.5 C 96.8333,249.5 69.1667,249.5 41.5,249.5C 41.5,207.833 41.5,166.167 41.5,124.5C 69.1667,124.5 96.8333,124.5 124.5,124.5C 124.5,166.167 124.5,207.833 124.5,249.5 Z"/></g>
<g><path style="opacity:1" fill="#8494a3" d="M 374.5,124.5 C 402.167,124.5 429.833,124.5 457.5,124.5C 457.5,207.833 457.5,291.167 457.5,374.5C 443.833,374.5 430.167,374.5 416.5,374.5C 416.5,346.833 416.5,319.167 416.5,291.5C 388.5,291.5 360.5,291.5 332.5,291.5C 332.5,319.167 332.5,346.833 332.5,374.5C 277.167,374.5 221.833,374.5 166.5,374.5C 166.5,360.5 166.5,346.5 166.5,332.5C 166.5,304.833 166.5,277.167 166.5,249.5C 166.5,207.833 166.5,166.167 166.5,124.5C 235.833,124.5 305.167,124.5 374.5,124.5 Z"/></g>
<g><path style="opacity:1" fill="#afc4d8" d="M 457.5,124.5 C 527.167,124.5 596.833,124.5 666.5,124.5C 735.833,124.5 805.167,124.5 874.5,124.5C 874.5,207.833 874.5,291.167 874.5,374.5C 735.5,374.5 596.5,374.5 457.5,374.5C 457.5,291.167 457.5,207.833 457.5,124.5 Z"/></g>
<g><path style="opacity:1" fill="#a3962c" d="M -0.5,249.5 C 13.5,249.5 27.5,249.5 41.5,249.5C 69.1667,249.5 96.8333,249.5 124.5,249.5C 138.5,249.5 152.5,249.5 166.5,249.5C 166.5,277.167 166.5,304.833 166.5,332.5C 152.5,332.5 138.5,332.5 124.5,332.5C 96.8333,332.5 69.1667,332.5 41.5,332.5C 27.5,332.5 13.5,332.5 -0.5,332.5C -0.5,304.833 -0.5,277.167 -0.5,249.5 Z"/></g>
<g><path style="opacity:1" fill="#677485" d="M 416.5,374.5 C 402.5,374.5 388.5,374.5 374.5,374.5C 360.5,374.5 346.5,374.5 332.5,374.5C 332.5,346.833 332.5,319.167 332.5,291.5C 360.5,291.5 388.5,291.5 416.5,291.5C 416.5,319.167 416.5,346.833 416.5,374.5 Z"/></g>
<g><path style="opacity:1" fill="#892518" d="M -0.5,332.5 C 13.5,332.5 27.5,332.5 41.5,332.5C 41.5,374.167 41.5,415.833 41.5,457.5C 69.1667,457.5 96.8333,457.5 124.5,457.5C 124.5,415.833 124.5,374.167 124.5,332.5C 138.5,332.5 152.5,332.5 166.5,332.5C 166.5,346.5 166.5,360.5 166.5,374.5C 166.5,402.167 166.5,429.833 166.5,457.5C 166.5,485.5 166.5,513.5 166.5,541.5C 110.833,541.5 55.1667,541.5 -0.5,541.5C -0.5,471.833 -0.5,402.167 -0.5,332.5 Z"/></g>
<g><path style="opacity:1" fill="#7b120c" d="M 41.5,332.5 C 69.1667,332.5 96.8333,332.5 124.5,332.5C 124.5,374.167 124.5,415.833 124.5,457.5C 96.8333,457.5 69.1667,457.5 41.5,457.5C 41.5,415.833 41.5,374.167 41.5,332.5 Z"/></g>
<g><path style="opacity:1" fill="#677485" d="M 166.5,374.5 C 221.833,374.5 277.167,374.5 332.5,374.5C 332.5,402.167 332.5,429.833 332.5,457.5C 277.167,457.5 221.833,457.5 166.5,457.5C 166.5,429.833 166.5,402.167 166.5,374.5 Z"/></g>
<g><path style="opacity:1" fill="#bfc0bf" d="M 332.5,374.5 C 346.5,374.5 360.5,374.5 374.5,374.5C 374.5,402.167 374.5,429.833 374.5,457.5C 360.5,457.5 346.5,457.5 332.5,457.5C 332.5,429.833 332.5,402.167 332.5,374.5 Z"/></g>
<g><path style="opacity:1" fill="#070718" d="M 374.5,374.5 C 388.5,374.5 402.5,374.5 416.5,374.5C 416.5,402.167 416.5,429.833 416.5,457.5C 402.5,457.5 388.5,457.5 374.5,457.5C 374.5,429.833 374.5,402.167 374.5,374.5 Z"/></g>
<g><path style="opacity:1" fill="#677485" d="M 416.5,374.5 C 430.167,374.5 443.833,374.5 457.5,374.5C 457.5,402.167 457.5,429.833 457.5,457.5C 443.833,457.5 430.167,457.5 416.5,457.5C 416.5,429.833 416.5,402.167 416.5,374.5 Z"/></g>
<g><path style="opacity:1" fill="#899ab0" d="M 457.5,374.5 C 596.5,374.5 735.5,374.5 874.5,374.5C 874.5,388.5 874.5,402.5 874.5,416.5C 860.5,416.5 846.5,416.5 832.5,416.5C 763.167,416.5 693.833,416.5 624.5,416.5C 624.5,430.167 624.5,443.833 624.5,457.5C 568.833,457.5 513.167,457.5 457.5,457.5C 457.5,429.833 457.5,402.167 457.5,374.5 Z"/></g>
<g><path style="opacity:1" fill="#8f97a4" d="M 832.5,416.5 C 832.5,458.167 832.5,499.833 832.5,541.5C 763.167,541.5 693.833,541.5 624.5,541.5C 624.5,513.5 624.5,485.5 624.5,457.5C 624.5,443.833 624.5,430.167 624.5,416.5C 693.833,416.5 763.167,416.5 832.5,416.5 Z"/></g>
<g><path style="opacity:1" fill="#bed0da" d="M 832.5,416.5 C 846.5,416.5 860.5,416.5 874.5,416.5C 916.167,416.5 957.833,416.5 999.5,416.5C 999.5,458.167 999.5,499.833 999.5,541.5C 971.833,541.5 944.167,541.5 916.5,541.5C 888.5,541.5 860.5,541.5 832.5,541.5C 832.5,499.833 832.5,458.167 832.5,416.5 Z"/></g>
<g><path style="opacity:1" fill="#8f97a4" d="M 166.5,457.5 C 221.833,457.5 277.167,457.5 332.5,457.5C 346.5,457.5 360.5,457.5 374.5,457.5C 388.5,457.5 402.5,457.5 416.5,457.5C 430.167,457.5 443.833,457.5 457.5,457.5C 457.5,485.5 457.5,513.5 457.5,541.5C 443.833,541.5 430.167,541.5 416.5,541.5C 333.167,541.5 249.833,541.5 166.5,541.5C 166.5,513.5 166.5,485.5 166.5,457.5 Z"/></g>
<g><path style="opacity:1" fill="#bed0da" d="M 457.5,457.5 C 513.167,457.5 568.833,457.5 624.5,457.5C 624.5,485.5 624.5,513.5 624.5,541.5C 568.833,541.5 513.167,541.5 457.5,541.5C 457.5,513.5 457.5,485.5 457.5,457.5 Z"/></g>
<g><path style="opacity:1" fill="#892518" d="M 166.5,541.5 C 249.833,541.5 333.167,541.5 416.5,541.5C 416.5,624.833 416.5,708.167 416.5,791.5C 402.5,791.5 388.5,791.5 374.5,791.5C 374.5,735.833 374.5,680.167 374.5,624.5C 318.833,624.5 263.167,624.5 207.5,624.5C 207.5,680.167 207.5,735.833 207.5,791.5C 193.833,791.5 180.167,791.5 166.5,791.5C 166.5,708.167 166.5,624.833 166.5,541.5 Z"/></g>
<g><path style="opacity:1" fill="#b53020" d="M 416.5,541.5 C 430.167,541.5 443.833,541.5 457.5,541.5C 513.167,541.5 568.833,541.5 624.5,541.5C 693.833,541.5 763.167,541.5 832.5,541.5C 860.5,541.5 888.5,541.5 916.5,541.5C 916.5,624.833 916.5,708.167 916.5,791.5C 888.5,791.5 860.5,791.5 832.5,791.5C 832.5,735.833 832.5,680.167 832.5,624.5C 721.5,624.5 610.5,624.5 499.5,624.5C 499.5,680.167 499.5,735.833 499.5,791.5C 471.833,791.5 444.167,791.5 416.5,791.5C 416.5,708.167 416.5,624.833 416.5,541.5 Z"/></g>
<g><path style="opacity:1" fill="#7b120c" d="M 374.5,791.5 C 318.833,791.5 263.167,791.5 207.5,791.5C 207.5,735.833 207.5,680.167 207.5,624.5C 263.167,624.5 318.833,624.5 374.5,624.5C 374.5,680.167 374.5,735.833 374.5,791.5 Z"/></g>
<g><path style="opacity:1" fill="#a31710" d="M 832.5,791.5 C 721.5,791.5 610.5,791.5 499.5,791.5C 499.5,735.833 499.5,680.167 499.5,624.5C 610.5,624.5 721.5,624.5 832.5,624.5C 832.5,680.167 832.5,735.833 832.5,791.5 Z"/></g>
<g><path style="opacity:1" fill="#390300" d="M 166.5,791.5 C 180.167,791.5 193.833,791.5 207.5,791.5C 263.167,791.5 318.833,791.5 374.5,791.5C 388.5,791.5 402.5,791.5 416.5,791.5C 416.5,819.167 416.5,846.833 416.5,874.5C 333.167,874.5 249.833,874.5 166.5,874.5C 166.5,846.833 166.5,819.167 166.5,791.5 Z"/></g>
<g><path style="opacity:1" fill="#4b0300" d="M 416.5,791.5 C 444.167,791.5 471.833,791.5 499.5,791.5C 610.5,791.5 721.5,791.5 832.5,791.5C 860.5,791.5 888.5,791.5 916.5,791.5C 916.5,819.167 916.5,846.833 916.5,874.5C 749.833,874.5 583.167,874.5 416.5,874.5C 416.5,846.833 416.5,819.167 416.5,791.5 Z"/></g>
</svg>
