<?xml version="1.0" encoding="UTF-8"?>
<!DOCTYPE svg PUBLIC "-//W3C//DTD SVG 1.1//EN" "http://www.w3.org/Graphics/SVG/1.1/DTD/svg11.dtd">
<svg xmlns="http://www.w3.org/2000/svg" version="1.1" width="909px" height="1000px" style="shape-rendering:geometricPrecision; text-rendering:geometricPrecision; image-rendering:optimizeQuality; fill-rule:evenodd; clip-rule:evenodd" xmlns:xlink="http://www.w3.org/1999/xlink">
<g><path style="opacity:1" fill="#1c1a13" d="M -0.5,-0.5 C 90.5,-0.5 181.5,-0.5 272.5,-0.5C 272.5,181.167 272.5,362.833 272.5,544.5C 181.5,544.5 90.5,544.5 -0.5,544.5C -0.5,362.833 -0.5,181.167 -0.5,-0.5 Z"/></g>
<g><path style="opacity:1" fill="#443c2e" d="M 272.5,-0.5 C 454.167,-0.5 635.833,-0.5 817.5,-0.5C 817.5,181.167 817.5,362.833 817.5,544.5C 802.5,544.5 787.5,544.5 772.5,544.5C 620.833,544.5 469.167,544.5 317.5,544.5C 302.5,544.5 287.5,544.5 272.5,544.5C 272.5,362.833 272.5,181.167 272.5,-0.5 Z"/></g>
<g><path style="opacity:1" fill="#855106" d="M 44.5,90.5 C 105.167,90.5 165.833,90.5 226.5,90.5C 226.5,120.833 226.5,151.167 226.5,181.5C 165.833,181.5 105.167,181.5 44.5,181.5C 44.5,151.167 44.5,120.833 44.5,90.5 Z"/></g>
<g><path style="opacity:1" fill="#a66e1e" d="M 635.5,181.5 C 605.167,181.5 574.833,181.5 544.5,181.5C 529.5,181.5 514.5,181.5 499.5,181.5C 484.167,181.5 468.833,181.5 453.5,181.5C 423.5,181.5 393.5,181.5 363.5,181.5C 363.5,151.167 363.5,120.833 363.5,90.5C 484.5,90.5 605.5,90.5 726.5,90.5C 726.5,120.833 726.5,151.167 726.5,181.5C 696.167,181.5 665.833,181.5 635.5,181.5 Z"/></g>
<g><path style="opacity:1" fill="#1c1a13" d="M 453.5,181.5 C 468.833,181.5 484.167,181.5 499.5,181.5C 499.5,211.833 499.5,242.167 499.5,272.5C 484.167,272.5 468.833,272.5 453.5,272.5C 453.5,242.167 453.5,211.833 453.5,181.5 Z"/></g>
<g><path style="opacity:1" fill="#757675" d="M 499.5,181.5 C 514.5,181.5 529.5,181.5 544.5,181.5C 544.5,242.167 544.5,302.833 544.5,363.5C 529.5,363.5 514.5,363.5 499.5,363.5C 499.5,333.167 499.5,302.833 499.5,272.5C 499.5,242.167 499.5,211.833 499.5,181.5 Z"/></g>
<g><path style="opacity:1" fill="#a4a5a4" d="M 544.5,181.5 C 574.833,181.5 605.167,181.5 635.5,181.5C 635.5,211.833 635.5,242.167 635.5,272.5C 635.5,302.833 635.5,333.167 635.5,363.5C 605.167,363.5 574.833,363.5 544.5,363.5C 544.5,302.833 544.5,242.167 544.5,181.5 Z"/></g>
<g><path style="opacity:1" fill="#855106" d="M 44.5,272.5 C 105.167,272.5 165.833,272.5 226.5,272.5C 226.5,333.167 226.5,393.833 226.5,454.5C 165.833,454.5 105.167,454.5 44.5,454.5C 44.5,393.833 44.5,333.167 44.5,272.5 Z"/></g>
<g><path style="opacity:1" fill="#a66e1e" d="M 453.5,272.5 C 468.833,272.5 484.167,272.5 499.5,272.5C 499.5,302.833 499.5,333.167 499.5,363.5C 514.5,363.5 529.5,363.5 544.5,363.5C 574.833,363.5 605.167,363.5 635.5,363.5C 635.5,333.167 635.5,302.833 635.5,272.5C 665.833,272.5 696.167,272.5 726.5,272.5C 726.5,333.167 726.5,393.833 726.5,454.5C 605.5,454.5 484.5,454.5 363.5,454.5C 363.5,393.833 363.5,333.167 363.5,272.5C 393.5,272.5 423.5,272.5 453.5,272.5 Z"/></g>
<g><path style="opacity:1" fill="#8494a3" d="M -0.5,544.5 C 90.5,544.5 181.5,544.5 272.5,544.5C 287.5,544.5 302.5,544.5 317.5,544.5C 317.5,635.5 317.5,726.5 317.5,817.5C 302.5,817.5 287.5,817.5 272.5,817.5C 272.5,787.167 272.5,756.833 272.5,726.5C 242.167,726.5 211.833,726.5 181.5,726.5C 181.5,756.833 181.5,787.167 181.5,817.5C 120.833,817.5 60.1667,817.5 -0.5,817.5C -0.5,726.5 -0.5,635.5 -0.5,544.5 Z"/></g>
<g><path style="opacity:1" fill="#afc4d8" d="M 317.5,544.5 C 469.167,544.5 620.833,544.5 772.5,544.5C 772.5,635.5 772.5,726.5 772.5,817.5C 620.833,817.5 469.167,817.5 317.5,817.5C 317.5,726.5 317.5,635.5 317.5,544.5 Z"/></g>
<g><path style="opacity:1" fill="#677485" d="M 272.5,817.5 C 257.167,817.5 241.833,817.5 226.5,817.5C 211.5,817.5 196.5,817.5 181.5,817.5C 181.5,787.167 181.5,756.833 181.5,726.5C 211.833,726.5 242.167,726.5 272.5,726.5C 272.5,756.833 272.5,787.167 272.5,817.5 Z"/></g>
<g><path style="opacity:1" fill="#677485" d="M -0.5,817.5 C 60.1667,817.5 120.833,817.5 181.5,817.5C 181.5,847.833 181.5,878.167 181.5,908.5C 120.833,908.5 60.1667,908.5 -0.5,908.5C -0.5,878.167 -0.5,847.833 -0.5,817.5 Z"/></g>
<g><path style="opacity:1" fill="#bfc0bf" d="M 181.5,817.5 C 196.5,817.5 211.5,817.5 226.5,817.5C 226.5,847.833 226.5,878.167 226.5,908.5C 211.5,908.5 196.5,908.5 181.5,908.5C 181.5,878.167 181.5,847.833 181.5,817.5 Z"/></g>
<g><path style="opacity:1" fill="#070718" d="M 226.5,817.5 C 241.833,817.5 257.167,817.5 272.5,817.5C 272.5,847.833 272.5,878.167 272.5,908.5C 257.167,908.5 241.833,908.5 226.5,908.5C 226.5,878.167 226.5,847.833 226.5,817.5 Z"/></g>
<g><path style="opacity:1" fill="#677485" d="M 272.5,817.5 C 287.5,817.5 302.5,817.5 317.5,817.5C 317.5,847.833 317.5,878.167 317.5,908.5C 302.5,908.5 287.5,908.5 272.5,908.5C 272.5,878.167 272.5,847.833 272.5,817.5 Z"/></g>
<g><path style="opacity:1" fill="#899ab0" d="M 317.5,817.5 C 469.167,817.5 620.833,817.5 772.5,817.5C 772.5,832.833 772.5,848.167 772.5,863.5C 757.167,863.5 741.833,863.5 726.5,863.5C 650.833,863.5 575.167,863.5 499.5,863.5C 499.5,878.5 499.5,893.5 499.5,908.5C 438.833,908.5 378.167,908.5 317.5,908.5C 317.5,878.167 317.5,847.833 317.5,817.5 Z"/></g>
<g><path style="opacity:1" fill="#8f97a4" d="M 726.5,863.5 C 726.5,908.833 726.5,954.167 726.5,999.5C 650.833,999.5 575.167,999.5 499.5,999.5C 499.5,969.167 499.5,938.833 499.5,908.5C 499.5,893.5 499.5,878.5 499.5,863.5C 575.167,863.5 650.833,863.5 726.5,863.5 Z"/></g>
<g><path style="opacity:1" fill="#bed0da" d="M 726.5,863.5 C 741.833,863.5 757.167,863.5 772.5,863.5C 817.833,863.5 863.167,863.5 908.5,863.5C 908.5,908.833 908.5,954.167 908.5,999.5C 847.833,999.5 787.167,999.5 726.5,999.5C 726.5,954.167 726.5,908.833 726.5,863.5 Z"/></g>
<g><path style="opacity:1" fill="#8f97a4" d="M -0.5,908.5 C 60.1667,908.5 120.833,908.5 181.5,908.5C 196.5,908.5 211.5,908.5 226.5,908.5C 241.833,908.5 257.167,908.5 272.5,908.5C 287.5,908.5 302.5,908.5 317.5,908.5C 317.5,938.833 317.5,969.167 317.5,999.5C 211.5,999.5 105.5,999.5 -0.5,999.5C -0.5,969.167 -0.5,938.833 -0.5,908.5 Z"/></g>
<g><path style="opacity:1" fill="#bed0da" d="M 317.5,908.5 C 378.167,908.5 438.833,908.5 499.5,908.5C 499.5,938.833 499.5,969.167 499.5,999.5C 438.833,999.5 378.167,999.5 317.5,999.5C 317.5,969.167 317.5,938.833 317.5,908.5 Z"/></g>
</svg>
