<svg viewBox="0 0 1200 1050" xmlns="http://www.w3.org/2000/svg"><rect x="200" y="50" width="600" height="650" fill="#1d1a14" /><rect x="300" y="150" width="400" height="400" fill="#693f05" /><rect x="0" y="50" width="250" height="600" fill="#1d1a14" /><rect x="50" y="150" width="100" height="400" fill="#865107" /><rect x="400" y="0" width="200" height="100" fill="#767676" /><rect x="550" y="0" width="100" height="100" fill="#a5a5a5" /><rect x="200" y="150" width="400" height="500" fill="#8594a4" /><rect x="200" y="550" width="400" height="100" fill="#9097a5" /><rect x="550" y="150" width="500" height="500" fill="#b0c4d9" /><rect x="550" y="550" width="500" height="100" fill="#bfd0db" /><rect x="200" y="450" width="400" height="100" fill="#687486" /><rect x="400" y="350" width="100" height="200" fill="#687486" /><rect x="400" y="450" width="100" height="100" fill="#c0c0c0" /><rect x="450" y="450" width="50" height="100" fill="#070718" /><rect x="550" y="450" width="500" height="100" fill="#8a9ab1" /><rect x="750" y="500" width="300" height="150" fill="#9097a5" /><rect x="1000" y="500" width="200" height="150" fill="#bfd0db" /><rect x="200" y="650" width="350" height="400" fill="#1d1a14" /><rect x="250" y="750" width="200" height="200" fill="#865107" /><rect x="500" y="650" width="600" height="400" fill="#453c2f" /><rect x="600" y="750" width="400" height="200" fill="#a76e1f" /></svg>