<?xml version="1.0" encoding="UTF-8"?>
<!DOCTYPE svg PUBLIC "-//W3C//DTD SVG 1.1//EN" "http://www.w3.org/Graphics/SVG/1.1/DTD/svg11.dtd">
<svg xmlns="http://www.w3.org/2000/svg" version="1.1" width="1000px" height="533px" style="shape-rendering:geometricPrecision; text-rendering:geometricPrecision; image-rendering:optimizeQuality; fill-rule:evenodd; clip-rule:evenodd" xmlns:xlink="http://www.w3.org/1999/xlink">
<g><path style="opacity:1" fill="#787978" d="M 132.5,-0.5 C 154.833,-0.5 177.167,-0.5 199.5,-0.5C 199.5,43.8333 199.5,88.1667 199.5,132.5C 243.833,132.5 288.167,132.5 332.5,132.5C 354.833,132.5 377.167,132.5 399.5,132.5C 399.5,177.167 399.5,221.833 399.5,266.5C 377.167,266.5 354.833,266.5 332.5,266.5C 332.5,310.833 332.5,355.167 332.5,399.5C 354.833,399.5 377.167,399.5 399.5,399.5C 399.5,443.833 399.5,488.167 399.5,532.5C 266.167,532.5 132.833,532.5 -0.5,532.5C -0.5,399.167 -0.5,265.833 -0.5,132.5C 43.8333,132.5 88.1667,132.5 132.5,132.5C 132.5,88.1667 132.5,43.8333 132.5,-0.5 Z"/></g>
<g><path style="opacity:1" fill="#d18a89" d="M 199.5,-0.5 C 243.833,-0.5 288.167,-0.5 332.5,-0.5C 332.5,43.8333 332.5,88.1667 332.5,132.5C 288.167,132.5 243.833,132.5 199.5,132.5C 199.5,88.1667 199.5,43.8333 199.5,-0.5 Z"/></g>
<g><path style="opacity:1" fill="#787978" d="M 466.5,-0.5 C 488.5,-0.5 510.5,-0.5 532.5,-0.5C 532.5,43.8333 532.5,88.1667 532.5,132.5C 510.5,132.5 488.5,132.5 466.5,132.5C 466.5,88.1667 466.5,43.8333 466.5,-0.5 Z"/></g>
<g><path style="opacity:1" fill="#d18a89" d="M 532.5,-0.5 C 577.167,-0.5 621.833,-0.5 666.5,-0.5C 666.5,43.8333 666.5,88.1667 666.5,132.5C 621.833,132.5 577.167,132.5 532.5,132.5C 532.5,88.1667 532.5,43.8333 532.5,-0.5 Z"/></g>
<g><path style="opacity:1" fill="#a0a1a0" d="M 399.5,132.5 C 421.833,132.5 444.167,132.5 466.5,132.5C 488.5,132.5 510.5,132.5 532.5,132.5C 577.167,132.5 621.833,132.5 666.5,132.5C 710.833,132.5 755.167,132.5 799.5,132.5C 799.5,177.167 799.5,221.833 799.5,266.5C 777.167,266.5 754.833,266.5 732.5,266.5C 710.5,266.5 688.5,266.5 666.5,266.5C 621.833,266.5 577.167,266.5 532.5,266.5C 488.167,266.5 443.833,266.5 399.5,266.5C 399.5,221.833 399.5,177.167 399.5,132.5 Z"/></g>
<g><path style="opacity:1" fill="#000000" d="M 399.5,266.5 C 443.833,266.5 488.167,266.5 532.5,266.5C 532.5,310.833 532.5,355.167 532.5,399.5C 488.167,399.5 443.833,399.5 399.5,399.5C 377.167,399.5 354.833,399.5 332.5,399.5C 332.5,355.167 332.5,310.833 332.5,266.5C 354.833,266.5 377.167,266.5 399.5,266.5 Z"/></g>
<g><path style="opacity:1" fill="#787978" d="M 532.5,266.5 C 577.167,266.5 621.833,266.5 666.5,266.5C 666.5,310.833 666.5,355.167 666.5,399.5C 688.5,399.5 710.5,399.5 732.5,399.5C 732.5,443.833 732.5,488.167 732.5,532.5C 665.833,532.5 599.167,532.5 532.5,532.5C 532.5,488.167 532.5,443.833 532.5,399.5C 532.5,355.167 532.5,310.833 532.5,266.5 Z"/></g>
<g><path style="opacity:1" fill="#b27883" d="M 666.5,266.5 C 688.5,266.5 710.5,266.5 732.5,266.5C 732.5,310.833 732.5,355.167 732.5,399.5C 710.5,399.5 688.5,399.5 666.5,399.5C 666.5,355.167 666.5,310.833 666.5,266.5 Z"/></g>
<g><path style="opacity:1" fill="#d18a89" d="M 732.5,266.5 C 754.833,266.5 777.167,266.5 799.5,266.5C 866.167,266.5 932.833,266.5 999.5,266.5C 999.5,310.833 999.5,355.167 999.5,399.5C 977.167,399.5 954.833,399.5 932.5,399.5C 932.5,443.833 932.5,488.167 932.5,532.5C 888.167,532.5 843.833,532.5 799.5,532.5C 799.5,488.167 799.5,443.833 799.5,399.5C 777.167,399.5 754.833,399.5 732.5,399.5C 732.5,355.167 732.5,310.833 732.5,266.5 Z"/></g>
<g><path style="opacity:1" fill="#a0a1a0" d="M 399.5,399.5 C 443.833,399.5 488.167,399.5 532.5,399.5C 532.5,443.833 532.5,488.167 532.5,532.5C 488.167,532.5 443.833,532.5 399.5,532.5C 399.5,488.167 399.5,443.833 399.5,399.5 Z"/></g>
<g><path style="opacity:1" fill="#a0a1a0" d="M 732.5,399.5 C 754.833,399.5 777.167,399.5 799.5,399.5C 799.5,443.833 799.5,488.167 799.5,532.5C 777.167,532.5 754.833,532.5 732.5,532.5C 732.5,488.167 732.5,443.833 732.5,399.5 Z"/></g>
<g><path style="opacity:1" fill="#a0a1a0" d="M 999.5,399.5 C 999.5,443.833 999.5,488.167 999.5,532.5C 977.167,532.5 954.833,532.5 932.5,532.5C 932.5,488.167 932.5,443.833 932.5,399.5C 954.833,399.5 977.167,399.5 999.5,399.5 Z"/></g>
</svg>
