<?xml version="1.0" encoding="UTF-8"?>
<!DOCTYPE svg PUBLIC "-//W3C//DTD SVG 1.1//EN" "http://www.w3.org/Graphics/SVG/1.1/DTD/svg11.dtd">
<svg xmlns="http://www.w3.org/2000/svg" version="1.1" width="999px" height="526px" style="shape-rendering:geometricPrecision; text-rendering:geometricPrecision; image-rendering:optimizeQuality; fill-rule:evenodd; clip-rule:evenodd" xmlns:xlink="http://www.w3.org/1999/xlink">
<g><path style="opacity:1" fill="#8f1a2e" d="M 209.5,-0.5 C 227.167,-0.5 244.833,-0.5 262.5,-0.5C 262.5,34.5 262.5,69.5 262.5,104.5C 244.833,104.5 227.167,104.5 209.5,104.5C 209.5,69.5 209.5,34.5 209.5,-0.5 Z"/></g>
<g><path style="opacity:1" fill="#be2259" d="M 262.5,-0.5 C 297.5,-0.5 332.5,-0.5 367.5,-0.5C 367.5,34.5 367.5,69.5 367.5,104.5C 332.5,104.5 297.5,104.5 262.5,104.5C 262.5,69.5 262.5,34.5 262.5,-0.5 Z"/></g>
<g><path style="opacity:1" fill="#70994c" d="M 420.5,-0.5 C 437.833,-0.5 455.167,-0.5 472.5,-0.5C 472.5,69.5 472.5,139.5 472.5,209.5C 455.167,209.5 437.833,209.5 420.5,209.5C 420.5,139.5 420.5,69.5 420.5,-0.5 Z"/></g>
<g><path style="opacity:1" fill="#b3ca64" d="M 472.5,-0.5 C 542.833,-0.5 613.167,-0.5 683.5,-0.5C 683.5,69.5 683.5,139.5 683.5,209.5C 665.833,209.5 648.167,209.5 630.5,209.5C 577.833,209.5 525.167,209.5 472.5,209.5C 472.5,139.5 472.5,69.5 472.5,-0.5 Z"/></g>
<g><path style="opacity:1" fill="#70994c" d="M 840.5,-0.5 C 858.167,-0.5 875.833,-0.5 893.5,-0.5C 893.5,34.5 893.5,69.5 893.5,104.5C 875.833,104.5 858.167,104.5 840.5,104.5C 840.5,69.5 840.5,34.5 840.5,-0.5 Z"/></g>
<g><path style="opacity:1" fill="#b3ca64" d="M 893.5,-0.5 C 928.5,-0.5 963.5,-0.5 998.5,-0.5C 998.5,34.5 998.5,69.5 998.5,104.5C 963.5,104.5 928.5,104.5 893.5,104.5C 893.5,69.5 893.5,34.5 893.5,-0.5 Z"/></g>
<g><path style="opacity:1" fill="#8f1a2e" d="M 157.5,104.5 C 157.5,139.5 157.5,174.5 157.5,209.5C 139.833,209.5 122.167,209.5 104.5,209.5C 104.5,174.5 104.5,139.5 104.5,104.5C 122.167,104.5 139.833,104.5 157.5,104.5 Z"/></g>
<g><path style="opacity:1" fill="#be2259" d="M 157.5,104.5 C 174.833,104.5 192.167,104.5 209.5,104.5C 227.167,104.5 244.833,104.5 262.5,104.5C 262.5,139.5 262.5,174.5 262.5,209.5C 227.5,209.5 192.5,209.5 157.5,209.5C 157.5,174.5 157.5,139.5 157.5,104.5 Z"/></g>
<g><path style="opacity:1" fill="#70994c" d="M 788.5,104.5 C 788.5,139.5 788.5,174.5 788.5,209.5C 770.833,209.5 753.167,209.5 735.5,209.5C 735.5,174.5 735.5,139.5 735.5,104.5C 753.167,104.5 770.833,104.5 788.5,104.5 Z"/></g>
<g><path style="opacity:1" fill="#b3ca64" d="M 788.5,104.5 C 805.833,104.5 823.167,104.5 840.5,104.5C 858.167,104.5 875.833,104.5 893.5,104.5C 893.5,139.5 893.5,174.5 893.5,209.5C 858.5,209.5 823.5,209.5 788.5,209.5C 788.5,174.5 788.5,139.5 788.5,104.5 Z"/></g>
<g><path style="opacity:1" fill="#8f1a2e" d="M -0.5,209.5 C 17.1667,209.5 34.8333,209.5 52.5,209.5C 52.5,244.833 52.5,280.167 52.5,315.5C 34.8333,315.5 17.1667,315.5 -0.5,315.5C -0.5,280.167 -0.5,244.833 -0.5,209.5 Z"/></g>
<g><path style="opacity:1" fill="#be2259" d="M 52.5,209.5 C 69.8333,209.5 87.1667,209.5 104.5,209.5C 122.167,209.5 139.833,209.5 157.5,209.5C 157.5,244.833 157.5,280.167 157.5,315.5C 139.833,315.5 122.167,315.5 104.5,315.5C 87.1667,315.5 69.8333,315.5 52.5,315.5C 52.5,280.167 52.5,244.833 52.5,209.5 Z"/></g>
<g><path style="opacity:1" fill="#70994c" d="M 630.5,209.5 C 648.167,209.5 665.833,209.5 683.5,209.5C 683.5,244.833 683.5,280.167 683.5,315.5C 665.833,315.5 648.167,315.5 630.5,315.5C 630.5,280.167 630.5,244.833 630.5,209.5 Z"/></g>
<g><path style="opacity:1" fill="#b3ca64" d="M 683.5,209.5 C 700.833,209.5 718.167,209.5 735.5,209.5C 753.167,209.5 770.833,209.5 788.5,209.5C 788.5,244.833 788.5,280.167 788.5,315.5C 770.833,315.5 753.167,315.5 735.5,315.5C 718.167,315.5 700.833,315.5 683.5,315.5C 683.5,280.167 683.5,244.833 683.5,209.5 Z"/></g>
<g><path style="opacity:1" fill="#8f1a2e" d="M 104.5,315.5 C 122.167,315.5 139.833,315.5 157.5,315.5C 157.5,350.5 157.5,385.5 157.5,420.5C 139.833,420.5 122.167,420.5 104.5,420.5C 104.5,385.5 104.5,350.5 104.5,315.5 Z"/></g>
<g><path style="opacity:1" fill="#be2259" d="M 157.5,315.5 C 192.5,315.5 227.5,315.5 262.5,315.5C 262.5,350.5 262.5,385.5 262.5,420.5C 244.833,420.5 227.167,420.5 209.5,420.5C 192.167,420.5 174.833,420.5 157.5,420.5C 157.5,385.5 157.5,350.5 157.5,315.5 Z"/></g>
<g><path style="opacity:1" fill="#70994c" d="M 577.5,315.5 C 577.5,350.5 577.5,385.5 577.5,420.5C 560.167,420.5 542.833,420.5 525.5,420.5C 525.5,385.5 525.5,350.5 525.5,315.5C 542.833,315.5 560.167,315.5 577.5,315.5 Z"/></g>
<g><path style="opacity:1" fill="#b3ca64" d="M 577.5,315.5 C 595.167,315.5 612.833,315.5 630.5,315.5C 648.167,315.5 665.833,315.5 683.5,315.5C 683.5,350.5 683.5,385.5 683.5,420.5C 648.167,420.5 612.833,420.5 577.5,420.5C 577.5,385.5 577.5,350.5 577.5,315.5 Z"/></g>
<g><path style="opacity:1" fill="#70994c" d="M 735.5,315.5 C 753.167,315.5 770.833,315.5 788.5,315.5C 788.5,385.5 788.5,455.5 788.5,525.5C 770.833,525.5 753.167,525.5 735.5,525.5C 735.5,455.5 735.5,385.5 735.5,315.5 Z"/></g>
<g><path style="opacity:1" fill="#b3ca64" d="M 788.5,315.5 C 858.5,315.5 928.5,315.5 998.5,315.5C 998.5,385.5 998.5,455.5 998.5,525.5C 928.5,525.5 858.5,525.5 788.5,525.5C 788.5,455.5 788.5,385.5 788.5,315.5 Z"/></g>
<g><path style="opacity:1" fill="#8f1a2e" d="M 209.5,420.5 C 227.167,420.5 244.833,420.5 262.5,420.5C 262.5,455.5 262.5,490.5 262.5,525.5C 244.833,525.5 227.167,525.5 209.5,525.5C 209.5,490.5 209.5,455.5 209.5,420.5 Z"/></g>
<g><path style="opacity:1" fill="#be2259" d="M 262.5,420.5 C 297.5,420.5 332.5,420.5 367.5,420.5C 367.5,455.5 367.5,490.5 367.5,525.5C 332.5,525.5 297.5,525.5 262.5,525.5C 262.5,490.5 262.5,455.5 262.5,420.5 Z"/></g>
<g><path style="opacity:1" fill="#70994c" d="M 472.5,420.5 C 472.5,455.5 472.5,490.5 472.5,525.5C 455.167,525.5 437.833,525.5 420.5,525.5C 420.5,490.5 420.5,455.5 420.5,420.5C 437.833,420.5 455.167,420.5 472.5,420.5 Z"/></g>
<g><path style="opacity:1" fill="#b3ca64" d="M 472.5,420.5 C 490.167,420.5 507.833,420.5 525.5,420.5C 542.833,420.5 560.167,420.5 577.5,420.5C 577.5,455.5 577.5,490.5 577.5,525.5C 542.5,525.5 507.5,525.5 472.5,525.5C 472.5,490.5 472.5,455.5 472.5,420.5 Z"/></g>
</svg>
