<svg viewBox="0 0 950 500" xmlns="http://www.w3.org/2000/svg"><rect x="200" y="400" width="100" height="100" fill="#901a2f" /><rect x="100" y="300" width="100" height="100" fill="#901a2f" /><rect x="0" y="200" width="100" height="100" fill="#901a2f" /><rect x="100" y="100" width="100" height="100" fill="#901a2f" /><rect x="200" y="0" width="100" height="100" fill="#901a2f" /><rect x="250" y="0" width="100" height="100" fill="#bf225a" /><rect x="150" y="100" width="100" height="100" fill="#bf225a" /><rect x="50" y="200" width="100" height="100" fill="#bf225a" /><rect x="150" y="300" width="100" height="100" fill="#bf225a" /><rect x="250" y="400" width="100" height="100" fill="#bf225a" /><rect x="400" y="400" width="100" height="100" fill="#71994d" /><rect x="500" y="300" width="100" height="100" fill="#71994d" /><rect x="600" y="200" width="100" height="100" fill="#71994d" /><rect x="700" y="100" width="100" height="100" fill="#71994d" /><rect x="800" y="0" width="100" height="100" fill="#71994d" /><rect x="400" y="0" width="100" height="200" fill="#71994d" /><rect x="700" y="300" width="100" height="200" fill="#71994d" /><rect x="450" y="400" width="100" height="100" fill="#b4ca65" /><rect x="550" y="300" width="100" height="100" fill="#b4ca65" /><rect x="650" y="200" width="100" height="100" fill="#b4ca65" /><rect x="750" y="100" width="100" height="100" fill="#b4ca65" /><rect x="850" y="0" width="100" height="100" fill="#b4ca65" /><rect x="450" y="0" width="200" height="200" fill="#b4ca65" /><rect x="750" y="300" width="200" height="200" fill="#b4ca65" /></svg>