<?xml version="1.0" encoding="UTF-8"?>
<!DOCTYPE svg PUBLIC "-//W3C//DTD SVG 1.1//EN" "http://www.w3.org/Graphics/SVG/1.1/DTD/svg11.dtd">
<svg xmlns="http://www.w3.org/2000/svg" version="1.1" width="1000px" height="777px" style="shape-rendering:geometricPrecision; text-rendering:geometricPrecision; image-rendering:optimizeQuality; fill-rule:evenodd; clip-rule:evenodd" xmlns:xlink="http://www.w3.org/1999/xlink">
<g><path style="opacity:1" fill="#9f4036" d="M 332.5,-0.5 C 369.5,-0.5 406.5,-0.5 443.5,-0.5C 443.5,36.5 443.5,73.5 443.5,110.5C 425.167,110.5 406.833,110.5 388.5,110.5C 369.833,110.5 351.167,110.5 332.5,110.5C 332.5,73.5 332.5,36.5 332.5,-0.5 Z"/></g>
<g><path style="opacity:1" fill="#d36d48" d="M 443.5,-0.5 C 517.833,-0.5 592.167,-0.5 666.5,-0.5C 666.5,36.5 666.5,73.5 666.5,110.5C 592.167,110.5 517.833,110.5 443.5,110.5C 443.5,73.5 443.5,36.5 443.5,-0.5 Z"/></g>
<g><path style="opacity:1" fill="#9fa1b9" d="M 332.5,110.5 C 351.167,110.5 369.833,110.5 388.5,110.5C 388.5,147.5 388.5,184.5 388.5,221.5C 406.833,221.5 425.167,221.5 443.5,221.5C 443.5,258.5 443.5,295.5 443.5,332.5C 406.5,332.5 369.5,332.5 332.5,332.5C 332.5,295.5 332.5,258.5 332.5,221.5C 277.167,221.5 221.833,221.5 166.5,221.5C 166.5,184.5 166.5,147.5 166.5,110.5C 221.833,110.5 277.167,110.5 332.5,110.5 Z"/></g>
<g><path style="opacity:1" fill="#d3e5f6" d="M 388.5,110.5 C 406.833,110.5 425.167,110.5 443.5,110.5C 517.833,110.5 592.167,110.5 666.5,110.5C 721.833,110.5 777.167,110.5 832.5,110.5C 832.5,147.5 832.5,184.5 832.5,221.5C 777.167,221.5 721.833,221.5 666.5,221.5C 666.5,258.5 666.5,295.5 666.5,332.5C 777.5,332.5 888.5,332.5 999.5,332.5C 999.5,480.5 999.5,628.5 999.5,776.5C 777.167,776.5 554.833,776.5 332.5,776.5C 332.5,628.5 332.5,480.5 332.5,332.5C 369.5,332.5 406.5,332.5 443.5,332.5C 443.5,295.5 443.5,258.5 443.5,221.5C 425.167,221.5 406.833,221.5 388.5,221.5C 388.5,184.5 388.5,147.5 388.5,110.5 Z"/></g>
<g><path style="opacity:1" fill="#9fa1b9" d="M -0.5,332.5 C 110.5,332.5 221.5,332.5 332.5,332.5C 332.5,480.5 332.5,628.5 332.5,776.5C 221.5,776.5 110.5,776.5 -0.5,776.5C -0.5,628.5 -0.5,480.5 -0.5,332.5 Z"/></g>
<g><path style="opacity:1" fill="#a41654" d="M 55.5,443.5 C 129.5,443.5 203.5,443.5 277.5,443.5C 277.5,517.5 277.5,591.5 277.5,665.5C 203.5,665.5 129.5,665.5 55.5,665.5C 55.5,591.5 55.5,517.5 55.5,443.5 Z"/></g>
<g><path style="opacity:1" fill="#da1d81" d="M 443.5,443.5 C 591.833,443.5 740.167,443.5 888.5,443.5C 888.5,517.5 888.5,591.5 888.5,665.5C 740.167,665.5 591.833,665.5 443.5,665.5C 443.5,591.5 443.5,517.5 443.5,443.5 Z"/></g>
</svg>
