<?xml version="1.0" encoding="UTF-8"?>
<!DOCTYPE svg PUBLIC "-//W3C//DTD SVG 1.1//EN" "http://www.w3.org/Graphics/SVG/1.1/DTD/svg11.dtd">
<svg xmlns="http://www.w3.org/2000/svg" version="1.1" width="1000px" height="857px" style="shape-rendering:geometricPrecision; text-rendering:geometricPrecision; image-rendering:optimizeQuality; fill-rule:evenodd; clip-rule:evenodd" xmlns:xlink="http://www.w3.org/1999/xlink">
<g><path style="opacity:1" fill="#4b9f30" d="M -0.5,-0.5 C 47.1667,-0.5 94.8333,-0.5 142.5,-0.5C 142.5,47.1667 142.5,94.8333 142.5,142.5C 94.8333,142.5 47.1667,142.5 -0.5,142.5C -0.5,94.8333 -0.5,47.1667 -0.5,-0.5 Z"/></g>
<g><path style="opacity:1" fill="#82d240" d="M 142.5,-0.5 C 285.167,-0.5 427.833,-0.5 570.5,-0.5C 570.5,47.1667 570.5,94.8333 570.5,142.5C 618.167,142.5 665.833,142.5 713.5,142.5C 713.5,190.167 713.5,237.833 713.5,285.5C 618.5,285.5 523.5,285.5 428.5,285.5C 380.833,285.5 333.167,285.5 285.5,285.5C 285.5,237.833 285.5,190.167 285.5,142.5C 237.833,142.5 190.167,142.5 142.5,142.5C 142.5,94.8333 142.5,47.1667 142.5,-0.5 Z"/></g>
<g><path style="opacity:1" fill="#65b7cd" d="M 570.5,-0.5 C 713.5,-0.5 856.5,-0.5 999.5,-0.5C 999.5,142.5 999.5,285.5 999.5,428.5C 951.833,428.5 904.167,428.5 856.5,428.5C 856.5,380.833 856.5,333.167 856.5,285.5C 808.833,285.5 761.167,285.5 713.5,285.5C 713.5,237.833 713.5,190.167 713.5,142.5C 665.833,142.5 618.167,142.5 570.5,142.5C 570.5,94.8333 570.5,47.1667 570.5,-0.5 Z"/></g>
<g><path style="opacity:1" fill="#474b5d" d="M -0.5,142.5 C 47.1667,142.5 94.8333,142.5 142.5,142.5C 142.5,332.833 142.5,523.167 142.5,713.5C 94.8333,713.5 47.1667,713.5 -0.5,713.5C -0.5,523.167 -0.5,332.833 -0.5,142.5 Z"/></g>
<g><path style="opacity:1" fill="#5e687b" d="M 142.5,142.5 C 190.167,142.5 237.833,142.5 285.5,142.5C 285.5,190.167 285.5,237.833 285.5,285.5C 333.167,285.5 380.833,285.5 428.5,285.5C 428.5,333.167 428.5,380.833 428.5,428.5C 428.5,475.833 428.5,523.167 428.5,570.5C 380.833,570.5 333.167,570.5 285.5,570.5C 285.5,618.167 285.5,665.833 285.5,713.5C 237.833,713.5 190.167,713.5 142.5,713.5C 142.5,523.167 142.5,332.833 142.5,142.5 Z"/></g>
<g><path style="opacity:1" fill="#efb007" d="M 428.5,285.5 C 523.5,285.5 618.5,285.5 713.5,285.5C 761.167,285.5 808.833,285.5 856.5,285.5C 856.5,333.167 856.5,380.833 856.5,428.5C 808.833,428.5 761.167,428.5 713.5,428.5C 713.5,475.833 713.5,523.167 713.5,570.5C 665.833,570.5 618.167,570.5 570.5,570.5C 570.5,523.167 570.5,475.833 570.5,428.5C 523.167,428.5 475.833,428.5 428.5,428.5C 428.5,380.833 428.5,333.167 428.5,285.5 Z"/></g>
<g><path style="opacity:1" fill="#65b7cd" d="M 428.5,428.5 C 475.833,428.5 523.167,428.5 570.5,428.5C 570.5,475.833 570.5,523.167 570.5,570.5C 618.167,570.5 665.833,570.5 713.5,570.5C 713.5,618.167 713.5,665.833 713.5,713.5C 761.167,713.5 808.833,713.5 856.5,713.5C 856.5,761.167 856.5,808.833 856.5,856.5C 618.5,856.5 380.5,856.5 142.5,856.5C 142.5,808.833 142.5,761.167 142.5,713.5C 190.167,713.5 237.833,713.5 285.5,713.5C 285.5,665.833 285.5,618.167 285.5,570.5C 333.167,570.5 380.833,570.5 428.5,570.5C 428.5,523.167 428.5,475.833 428.5,428.5 Z"/></g>
<g><path style="opacity:1" fill="#82d240" d="M 856.5,428.5 C 856.5,475.833 856.5,523.167 856.5,570.5C 808.833,570.5 761.167,570.5 713.5,570.5C 713.5,523.167 713.5,475.833 713.5,428.5C 761.167,428.5 808.833,428.5 856.5,428.5 Z"/></g>
<g><path style="opacity:1" fill="#efb007" d="M 856.5,428.5 C 904.167,428.5 951.833,428.5 999.5,428.5C 999.5,571.167 999.5,713.833 999.5,856.5C 951.833,856.5 904.167,856.5 856.5,856.5C 856.5,808.833 856.5,761.167 856.5,713.5C 808.833,713.5 761.167,713.5 713.5,713.5C 713.5,665.833 713.5,618.167 713.5,570.5C 761.167,570.5 808.833,570.5 856.5,570.5C 856.5,523.167 856.5,475.833 856.5,428.5 Z"/></g>
<g><path style="opacity:1" fill="#4d799c" d="M -0.5,713.5 C 47.1667,713.5 94.8333,713.5 142.5,713.5C 142.5,761.167 142.5,808.833 142.5,856.5C 94.8333,856.5 47.1667,856.5 -0.5,856.5C -0.5,808.833 -0.5,761.167 -0.5,713.5 Z"/></g>
</svg>
