<?xml version="1.0" encoding="UTF-8"?>
<!DOCTYPE svg PUBLIC "-//W3C//DTD SVG 1.1//EN" "http://www.w3.org/Graphics/SVG/1.1/DTD/svg11.dtd">
<svg xmlns="http://www.w3.org/2000/svg" version="1.1" width="1000px" height="954px" style="shape-rendering:geometricPrecision; text-rendering:geometricPrecision; image-rendering:optimizeQuality; fill-rule:evenodd; clip-rule:evenodd" xmlns:xlink="http://www.w3.org/1999/xlink">
<g><path style="opacity:1" fill="#757675" d="M 499.5,0.5 C 499.5,30.8333 499.5,61.1667 499.5,91.5C 454.167,91.5 408.833,91.5 363.5,91.5C 363.5,76.1667 363.5,60.8333 363.5,45.5C 363.5,30.5 363.5,15.5 363.5,0.5C 408.833,0.5 454.167,0.5 499.5,0.5 Z"/></g>
<g><path style="opacity:1" fill="#a4a5a4" d="M 499.5,0.5 C 529.833,0.5 560.167,0.5 590.5,0.5C 590.5,15.5 590.5,30.5 590.5,45.5C 590.5,60.8333 590.5,76.1667 590.5,91.5C 560.167,91.5 529.833,91.5 499.5,91.5C 499.5,61.1667 499.5,30.8333 499.5,0.5 Z"/></g>
<g><path style="opacity:1" fill="#1c1a13" d="M 363.5,45.5 C 363.5,60.8333 363.5,76.1667 363.5,91.5C 408.833,91.5 454.167,91.5 499.5,91.5C 529.833,91.5 560.167,91.5 590.5,91.5C 590.5,76.1667 590.5,60.8333 590.5,45.5C 636.167,45.5 681.833,45.5 727.5,45.5C 727.5,91.1667 727.5,136.833 727.5,182.5C 697.167,182.5 666.833,182.5 636.5,182.5C 636.5,167.167 636.5,151.833 636.5,136.5C 515.167,136.5 393.833,136.5 272.5,136.5C 272.5,151.833 272.5,167.167 272.5,182.5C 242.167,182.5 211.833,182.5 181.5,182.5C 181.5,318.5 181.5,454.5 181.5,590.5C 121.167,590.5 60.8333,590.5 0.5,590.5C 0.5,408.833 0.5,227.167 0.5,45.5C 121.5,45.5 242.5,45.5 363.5,45.5 Z"/></g>
<g><path style="opacity:1" fill="#855106" d="M 45.5,136.5 C 75.8333,136.5 106.167,136.5 136.5,136.5C 136.5,257.5 136.5,378.5 136.5,499.5C 106.167,499.5 75.8333,499.5 45.5,499.5C 45.5,378.5 45.5,257.5 45.5,136.5 Z"/></g>
<g><path style="opacity:1" fill="#683f04" d="M 636.5,182.5 C 575.833,182.5 515.167,182.5 454.5,182.5C 393.833,182.5 333.167,182.5 272.5,182.5C 272.5,167.167 272.5,151.833 272.5,136.5C 393.833,136.5 515.167,136.5 636.5,136.5C 636.5,151.833 636.5,167.167 636.5,182.5 Z"/></g>
<g><path style="opacity:1" fill="#b57772" d="M 272.5,182.5 C 333.167,182.5 393.833,182.5 454.5,182.5C 454.5,242.833 454.5,303.167 454.5,363.5C 454.5,393.833 454.5,424.167 454.5,454.5C 454.5,499.833 454.5,545.167 454.5,590.5C 363.5,590.5 272.5,590.5 181.5,590.5C 181.5,454.5 181.5,318.5 181.5,182.5C 211.833,182.5 242.167,182.5 272.5,182.5 Z"/></g>
<g><path style="opacity:1" fill="#f09e97" d="M 454.5,182.5 C 515.167,182.5 575.833,182.5 636.5,182.5C 666.833,182.5 697.167,182.5 727.5,182.5C 727.5,273.167 727.5,363.833 727.5,454.5C 697.167,454.5 666.833,454.5 636.5,454.5C 636.5,424.167 636.5,393.833 636.5,363.5C 606.167,363.5 575.833,363.5 545.5,363.5C 515.167,363.5 484.833,363.5 454.5,363.5C 454.5,303.167 454.5,242.833 454.5,182.5 Z"/></g>
<g><path style="opacity:1" fill="#4ccb3c" d="M 727.5,182.5 C 818.167,182.5 908.833,182.5 999.5,182.5C 999.5,212.5 999.5,242.5 999.5,272.5C 984.5,272.5 969.5,272.5 954.5,272.5C 909.167,272.5 863.833,272.5 818.5,272.5C 818.5,333.167 818.5,393.833 818.5,454.5C 803.167,454.5 787.833,454.5 772.5,454.5C 757.5,454.5 742.5,454.5 727.5,454.5C 727.5,363.833 727.5,273.167 727.5,182.5 Z"/></g>
<g><path style="opacity:1" fill="#000000" d="M 954.5,272.5 C 954.5,333.167 954.5,393.833 954.5,454.5C 909.167,454.5 863.833,454.5 818.5,454.5C 818.5,393.833 818.5,333.167 818.5,272.5C 863.833,272.5 909.167,272.5 954.5,272.5 Z"/></g>
<g><path style="opacity:1" fill="#1e4e17" d="M 954.5,272.5 C 969.5,272.5 984.5,272.5 999.5,272.5C 999.5,333.167 999.5,393.833 999.5,454.5C 984.5,454.5 969.5,454.5 954.5,454.5C 954.5,393.833 954.5,333.167 954.5,272.5 Z"/></g>
<g><path style="opacity:1" fill="#000000" d="M 454.5,363.5 C 484.833,363.5 515.167,363.5 545.5,363.5C 545.5,393.833 545.5,424.167 545.5,454.5C 515.167,454.5 484.833,454.5 454.5,454.5C 454.5,424.167 454.5,393.833 454.5,363.5 Z"/></g>
<g><path style="opacity:1" fill="#fefffe" d="M 545.5,363.5 C 575.833,363.5 606.167,363.5 636.5,363.5C 636.5,393.833 636.5,424.167 636.5,454.5C 621.167,454.5 605.833,454.5 590.5,454.5C 575.5,454.5 560.5,454.5 545.5,454.5C 545.5,424.167 545.5,393.833 545.5,363.5 Z"/></g>
<g><path style="opacity:1" fill="#f09e97" d="M 454.5,454.5 C 484.833,454.5 515.167,454.5 545.5,454.5C 560.5,454.5 575.5,454.5 590.5,454.5C 590.5,499.833 590.5,545.167 590.5,590.5C 545.167,590.5 499.833,590.5 454.5,590.5C 454.5,545.167 454.5,499.833 454.5,454.5 Z"/></g>
<g><path style="opacity:1" fill="#e57972" d="M 590.5,454.5 C 605.833,454.5 621.167,454.5 636.5,454.5C 636.5,469.5 636.5,484.5 636.5,499.5C 636.5,529.833 636.5,560.167 636.5,590.5C 621.167,590.5 605.833,590.5 590.5,590.5C 590.5,545.167 590.5,499.833 590.5,454.5 Z"/></g>
<g><path style="opacity:1" fill="#f7bbb9" d="M 636.5,454.5 C 666.833,454.5 697.167,454.5 727.5,454.5C 727.5,469.5 727.5,484.5 727.5,499.5C 697.167,499.5 666.833,499.5 636.5,499.5C 636.5,484.5 636.5,469.5 636.5,454.5 Z"/></g>
<g><path style="opacity:1" fill="#000000" d="M 727.5,454.5 C 742.5,454.5 757.5,454.5 772.5,454.5C 772.5,484.833 772.5,515.167 772.5,545.5C 787.833,545.5 803.167,545.5 818.5,545.5C 833.5,545.5 848.5,545.5 863.5,545.5C 863.5,560.5 863.5,575.5 863.5,590.5C 818.167,590.5 772.833,590.5 727.5,590.5C 727.5,560.167 727.5,529.833 727.5,499.5C 727.5,484.5 727.5,469.5 727.5,454.5 Z"/></g>
<g><path style="opacity:1" fill="#1e4e17" d="M 772.5,454.5 C 787.833,454.5 803.167,454.5 818.5,454.5C 818.5,484.833 818.5,515.167 818.5,545.5C 803.167,545.5 787.833,545.5 772.5,545.5C 772.5,515.167 772.5,484.833 772.5,454.5 Z"/></g>
<g><path style="opacity:1" fill="#4ccb3c" d="M 818.5,454.5 C 863.833,454.5 909.167,454.5 954.5,454.5C 969.5,454.5 984.5,454.5 999.5,454.5C 999.5,499.833 999.5,545.167 999.5,590.5C 969.167,590.5 938.833,590.5 908.5,590.5C 908.5,575.5 908.5,560.5 908.5,545.5C 893.5,545.5 878.5,545.5 863.5,545.5C 848.5,545.5 833.5,545.5 818.5,545.5C 818.5,515.167 818.5,484.833 818.5,454.5 Z"/></g>
<g><path style="opacity:1" fill="#884745" d="M 636.5,499.5 C 666.833,499.5 697.167,499.5 727.5,499.5C 727.5,529.833 727.5,560.167 727.5,590.5C 697.167,590.5 666.833,590.5 636.5,590.5C 636.5,560.167 636.5,529.833 636.5,499.5 Z"/></g>
<g><path style="opacity:1" fill="#1e4e17" d="M 863.5,545.5 C 878.5,545.5 893.5,545.5 908.5,545.5C 908.5,560.5 908.5,575.5 908.5,590.5C 893.5,590.5 878.5,590.5 863.5,590.5C 863.5,575.5 863.5,560.5 863.5,545.5 Z"/></g>
<g><path style="opacity:1" fill="#1c1a13" d="M 181.5,590.5 C 272.5,590.5 363.5,590.5 454.5,590.5C 454.5,711.5 454.5,832.5 454.5,953.5C 363.5,953.5 272.5,953.5 181.5,953.5C 181.5,832.5 181.5,711.5 181.5,590.5 Z"/></g>
<g><path style="opacity:1" fill="#443c2e" d="M 454.5,590.5 C 499.833,590.5 545.167,590.5 590.5,590.5C 605.833,590.5 621.167,590.5 636.5,590.5C 666.833,590.5 697.167,590.5 727.5,590.5C 772.833,590.5 818.167,590.5 863.5,590.5C 878.5,590.5 893.5,590.5 908.5,590.5C 938.833,590.5 969.167,590.5 999.5,590.5C 999.5,711.5 999.5,832.5 999.5,953.5C 817.833,953.5 636.167,953.5 454.5,953.5C 454.5,832.5 454.5,711.5 454.5,590.5 Z"/></g>
<g><path style="opacity:1" fill="#855106" d="M 227.5,681.5 C 288.167,681.5 348.833,681.5 409.5,681.5C 409.5,742.167 409.5,802.833 409.5,863.5C 348.833,863.5 288.167,863.5 227.5,863.5C 227.5,802.833 227.5,742.167 227.5,681.5 Z"/></g>
<g><path style="opacity:1" fill="#a66e1e" d="M 545.5,681.5 C 666.5,681.5 787.5,681.5 908.5,681.5C 908.5,742.167 908.5,802.833 908.5,863.5C 787.5,863.5 666.5,863.5 545.5,863.5C 545.5,802.833 545.5,742.167 545.5,681.5 Z"/></g>
</svg>
