<svg viewBox="0 0 900 600" xmlns="http://www.w3.org/2000/svg"><rect x="0" y="0" width="350" height="600" fill="#b67773" /><rect x="300" y="0" width="350" height="600" fill="#f19e98" /><rect x="300" y="200" width="150" height="100" fill="#000000" /><rect x="400" y="200" width="100" height="100" fill="#ffffff" /><rect x="450" y="300" width="100" height="200" fill="#e67973" /><rect x="500" y="300" width="150" height="200" fill="#f8bbba" /><rect x="500" y="350" width="150" height="100" fill="#894746" /><rect x="600" y="0" width="300" height="600" fill="#4ccb3d" /><rect x="600" y="300" width="100" height="200" fill="#000000" /><rect x="700" y="400" width="100" height="200" fill="#000000" /><rect x="650" y="400" width="100" height="100" fill="#000000" /><rect x="750" y="400" width="50" height="200" fill="#1e4e18" /><rect x="650" y="300" width="50" height="100" fill="#1e4e18" /><rect x="700" y="100" width="200" height="200" fill="#1e4e18" /><rect x="700" y="100" width="150" height="200" fill="#000000" /></svg>