<?xml version="1.0" encoding="UTF-8"?>
<!DOCTYPE svg PUBLIC "-//W3C//DTD SVG 1.1//EN" "http://www.w3.org/Graphics/SVG/1.1/DTD/svg11.dtd">
<svg xmlns="http://www.w3.org/2000/svg" version="1.1" width="1000px" height="631px" style="shape-rendering:geometricPrecision; text-rendering:geometricPrecision; image-rendering:optimizeQuality; fill-rule:evenodd; clip-rule:evenodd" xmlns:xlink="http://www.w3.org/1999/xlink">
<g><path style="opacity:1" fill="#2dc4b1" d="M 158.5,0.5 C 158.5,35.5 158.5,70.5 158.5,105.5C 158.5,140.5 158.5,175.5 158.5,210.5C 105.833,210.5 53.1667,210.5 0.5,210.5C 0.5,140.5 0.5,70.5 0.5,0.5C 53.1667,0.5 105.833,0.5 158.5,0.5 Z"/></g>
<g><path style="opacity:1" fill="#4aedd8" d="M 158.5,0.5 C 211.167,0.5 263.833,0.5 316.5,0.5C 316.5,70.5 316.5,140.5 316.5,210.5C 298.833,210.5 281.167,210.5 263.5,210.5C 263.5,175.5 263.5,140.5 263.5,105.5C 228.5,105.5 193.5,105.5 158.5,105.5C 158.5,70.5 158.5,35.5 158.5,0.5 Z"/></g>
<g><path style="opacity:1" fill="#2dc4b1" d="M 316.5,0.5 C 333.833,0.5 351.167,0.5 368.5,0.5C 368.5,70.5 368.5,140.5 368.5,210.5C 368.5,245.833 368.5,281.167 368.5,316.5C 368.5,386.5 368.5,456.5 368.5,526.5C 315.833,526.5 263.167,526.5 210.5,526.5C 210.5,421.167 210.5,315.833 210.5,210.5C 228.167,210.5 245.833,210.5 263.5,210.5C 281.167,210.5 298.833,210.5 316.5,210.5C 316.5,140.5 316.5,70.5 316.5,0.5 Z"/></g>
<g><path style="opacity:1" fill="#4aedd8" d="M 368.5,0.5 C 403.5,0.5 438.5,0.5 473.5,0.5C 473.5,35.5 473.5,70.5 473.5,105.5C 508.833,105.5 544.167,105.5 579.5,105.5C 614.5,105.5 649.5,105.5 684.5,105.5C 684.5,70.5 684.5,35.5 684.5,0.5C 719.5,0.5 754.5,0.5 789.5,0.5C 789.5,70.5 789.5,140.5 789.5,210.5C 789.5,315.833 789.5,421.167 789.5,526.5C 754.5,526.5 719.5,526.5 684.5,526.5C 684.5,561.167 684.5,595.833 684.5,630.5C 614.167,630.5 543.833,630.5 473.5,630.5C 473.5,595.833 473.5,561.167 473.5,526.5C 438.5,526.5 403.5,526.5 368.5,526.5C 368.5,456.5 368.5,386.5 368.5,316.5C 403.5,316.5 438.5,316.5 473.5,316.5C 473.5,281.167 473.5,245.833 473.5,210.5C 438.5,210.5 403.5,210.5 368.5,210.5C 368.5,140.5 368.5,70.5 368.5,0.5 Z"/></g>
<g><path style="opacity:1" fill="#2dc4b1" d="M 684.5,0.5 C 684.5,35.5 684.5,70.5 684.5,105.5C 649.5,105.5 614.5,105.5 579.5,105.5C 579.5,70.5 579.5,35.5 579.5,0.5C 614.5,0.5 649.5,0.5 684.5,0.5 Z"/></g>
<g><path style="opacity:1" fill="#2dc4b1" d="M 789.5,0.5 C 807.167,0.5 824.833,0.5 842.5,0.5C 842.5,70.5 842.5,140.5 842.5,210.5C 824.833,210.5 807.167,210.5 789.5,210.5C 789.5,140.5 789.5,70.5 789.5,0.5 Z"/></g>
<g><path style="opacity:1" fill="#4aedd8" d="M 842.5,0.5 C 894.833,0.5 947.167,0.5 999.5,0.5C 999.5,70.5 999.5,140.5 999.5,210.5C 947.167,210.5 894.833,210.5 842.5,210.5C 842.5,140.5 842.5,70.5 842.5,0.5 Z"/></g>
<g><path style="opacity:1" fill="#fefffe" d="M 158.5,105.5 C 193.5,105.5 228.5,105.5 263.5,105.5C 263.5,140.5 263.5,175.5 263.5,210.5C 245.833,210.5 228.167,210.5 210.5,210.5C 193.167,210.5 175.833,210.5 158.5,210.5C 158.5,175.5 158.5,140.5 158.5,105.5 Z"/></g>
<g><path style="opacity:1" fill="#fefffe" d="M 368.5,210.5 C 403.5,210.5 438.5,210.5 473.5,210.5C 473.5,245.833 473.5,281.167 473.5,316.5C 438.5,316.5 403.5,316.5 368.5,316.5C 368.5,281.167 368.5,245.833 368.5,210.5 Z"/></g>
<g><path style="opacity:1" fill="#2dc4b1" d="M 368.5,526.5 C 403.5,526.5 438.5,526.5 473.5,526.5C 473.5,561.167 473.5,595.833 473.5,630.5C 438.5,630.5 403.5,630.5 368.5,630.5C 368.5,595.833 368.5,561.167 368.5,526.5 Z"/></g>
</svg>
