<?xml version="1.0" encoding="UTF-8"?>
<!DOCTYPE svg PUBLIC "-//W3C//DTD SVG 1.1//EN" "http://www.w3.org/Graphics/SVG/1.1/DTD/svg11.dtd">
<svg xmlns="http://www.w3.org/2000/svg" version="1.1" width="958px" height="1000px" style="shape-rendering:geometricPrecision; text-rendering:geometricPrecision; image-rendering:optimizeQuality; fill-rule:evenodd; clip-rule:evenodd" xmlns:xlink="http://www.w3.org/1999/xlink">
<g><path style="opacity:1" fill="#367025" d="M 291.5,-0.5 C 374.833,-0.5 458.167,-0.5 541.5,-0.5C 541.5,82.8333 541.5,166.167 541.5,249.5C 513.5,249.5 485.5,249.5 457.5,249.5C 402.167,249.5 346.833,249.5 291.5,249.5C 291.5,221.833 291.5,194.167 291.5,166.5C 291.5,110.833 291.5,55.1667 291.5,-0.5 Z"/></g>
<g><path style="opacity:1" fill="#35ac16" d="M 541.5,-0.5 C 652.5,-0.5 763.5,-0.5 874.5,-0.5C 874.5,82.8333 874.5,166.167 874.5,249.5C 763.5,249.5 652.5,249.5 541.5,249.5C 541.5,166.167 541.5,82.8333 541.5,-0.5 Z"/></g>
<g><path style="opacity:1" fill="#1c1a13" d="M 291.5,166.5 C 291.5,194.167 291.5,221.833 291.5,249.5C 263.833,249.5 236.167,249.5 208.5,249.5C 208.5,332.833 208.5,416.167 208.5,499.5C 222.167,499.5 235.833,499.5 249.5,499.5C 249.5,527.5 249.5,555.5 249.5,583.5C 318.833,583.5 388.167,583.5 457.5,583.5C 457.5,611.167 457.5,638.833 457.5,666.5C 457.5,777.5 457.5,888.5 457.5,999.5C 374.5,999.5 291.5,999.5 208.5,999.5C 208.5,888.5 208.5,777.5 208.5,666.5C 139.167,666.5 69.8333,666.5 0.5,666.5C 0.5,499.833 0.5,333.167 0.5,166.5C 97.5,166.5 194.5,166.5 291.5,166.5 Z"/></g>
<g><path style="opacity:1" fill="#855106" d="M 41.5,249.5 C 69.1667,249.5 96.8333,249.5 124.5,249.5C 124.5,360.833 124.5,472.167 124.5,583.5C 96.8333,583.5 69.1667,583.5 41.5,583.5C 41.5,472.167 41.5,360.833 41.5,249.5 Z"/></g>
<g><path style="opacity:1" fill="#2f6021" d="M 291.5,249.5 C 346.833,249.5 402.167,249.5 457.5,249.5C 457.5,332.833 457.5,416.167 457.5,499.5C 388.167,499.5 318.833,499.5 249.5,499.5C 235.833,499.5 222.167,499.5 208.5,499.5C 208.5,416.167 208.5,332.833 208.5,249.5C 236.167,249.5 263.833,249.5 291.5,249.5 Z"/></g>
<g><path style="opacity:1" fill="#2f9816" d="M 457.5,249.5 C 485.5,249.5 513.5,249.5 541.5,249.5C 652.5,249.5 763.5,249.5 874.5,249.5C 902.167,249.5 929.833,249.5 957.5,249.5C 957.5,332.833 957.5,416.167 957.5,499.5C 874.167,499.5 790.833,499.5 707.5,499.5C 624.167,499.5 540.833,499.5 457.5,499.5C 457.5,416.167 457.5,332.833 457.5,249.5 Z"/></g>
<g><path style="opacity:1" fill="#683f04" d="M 249.5,499.5 C 318.833,499.5 388.167,499.5 457.5,499.5C 457.5,527.5 457.5,555.5 457.5,583.5C 388.167,583.5 318.833,583.5 249.5,583.5C 249.5,555.5 249.5,527.5 249.5,499.5 Z"/></g>
<g><path style="opacity:1" fill="#4d361d" d="M 457.5,499.5 C 540.833,499.5 624.167,499.5 707.5,499.5C 707.5,513.5 707.5,527.5 707.5,541.5C 652.167,541.5 596.833,541.5 541.5,541.5C 541.5,583.167 541.5,624.833 541.5,666.5C 513.5,666.5 485.5,666.5 457.5,666.5C 457.5,638.833 457.5,611.167 457.5,583.5C 457.5,555.5 457.5,527.5 457.5,499.5 Z"/></g>
<g><path style="opacity:1" fill="#7d5020" d="M 707.5,541.5 C 707.5,583.167 707.5,624.833 707.5,666.5C 652.167,666.5 596.833,666.5 541.5,666.5C 541.5,624.833 541.5,583.167 541.5,541.5C 596.833,541.5 652.167,541.5 707.5,541.5 Z"/></g>
<g><path style="opacity:1" fill="#443c2e" d="M 457.5,666.5 C 485.5,666.5 513.5,666.5 541.5,666.5C 596.833,666.5 652.167,666.5 707.5,666.5C 790.833,666.5 874.167,666.5 957.5,666.5C 957.5,777.5 957.5,888.5 957.5,999.5C 790.833,999.5 624.167,999.5 457.5,999.5C 457.5,888.5 457.5,777.5 457.5,666.5 Z"/></g>
<g><path style="opacity:1" fill="#855106" d="M 249.5,749.5 C 305.167,749.5 360.833,749.5 416.5,749.5C 416.5,805.167 416.5,860.833 416.5,916.5C 360.833,916.5 305.167,916.5 249.5,916.5C 249.5,860.833 249.5,805.167 249.5,749.5 Z"/></g>
<g><path style="opacity:1" fill="#a66e1e" d="M 541.5,749.5 C 652.5,749.5 763.5,749.5 874.5,749.5C 874.5,805.167 874.5,860.833 874.5,916.5C 763.5,916.5 652.5,916.5 541.5,916.5C 541.5,860.833 541.5,805.167 541.5,749.5 Z"/></g>
</svg>
