<?xml version="1.0" encoding="UTF-8"?>
<!DOCTYPE svg PUBLIC "-//W3C//DTD SVG 1.1//EN" "http://www.w3.org/Graphics/SVG/1.1/DTD/svg11.dtd">
<svg xmlns="http://www.w3.org/2000/svg" version="1.1" width="916px" height="1000px" style="shape-rendering:geometricPrecision; text-rendering:geometricPrecision; image-rendering:optimizeQuality; fill-rule:evenodd; clip-rule:evenodd" xmlns:xlink="http://www.w3.org/1999/xlink">
<g><path style="opacity:1" fill="#367025" d="M 249.5,-0.5 C 332.833,-0.5 416.167,-0.5 499.5,-0.5C 499.5,82.8333 499.5,166.167 499.5,249.5C 471.5,249.5 443.5,249.5 415.5,249.5C 360.167,249.5 304.833,249.5 249.5,249.5C 249.5,221.833 249.5,194.167 249.5,166.5C 249.5,110.833 249.5,55.1667 249.5,-0.5 Z"/></g>
<g><path style="opacity:1" fill="#35ac16" d="M 499.5,-0.5 C 610.5,-0.5 721.5,-0.5 832.5,-0.5C 832.5,82.8333 832.5,166.167 832.5,249.5C 721.5,249.5 610.5,249.5 499.5,249.5C 499.5,166.167 499.5,82.8333 499.5,-0.5 Z"/></g>
<g><path style="opacity:1" fill="#892518" d="M -0.5,166.5 C 82.8333,166.5 166.167,166.5 249.5,166.5C 249.5,194.167 249.5,221.833 249.5,249.5C 221.833,249.5 194.167,249.5 166.5,249.5C 166.5,291.167 166.5,332.833 166.5,374.5C 152.5,374.5 138.5,374.5 124.5,374.5C 124.5,332.833 124.5,291.167 124.5,249.5C 96.8333,249.5 69.1667,249.5 41.5,249.5C 41.5,291.167 41.5,332.833 41.5,374.5C 27.5,374.5 13.5,374.5 -0.5,374.5C -0.5,305.167 -0.5,235.833 -0.5,166.5 Z"/></g>
<g><path style="opacity:1" fill="#7b120c" d="M 124.5,374.5 C 96.8333,374.5 69.1667,374.5 41.5,374.5C 41.5,332.833 41.5,291.167 41.5,249.5C 69.1667,249.5 96.8333,249.5 124.5,249.5C 124.5,291.167 124.5,332.833 124.5,374.5 Z"/></g>
<g><path style="opacity:1" fill="#2f6021" d="M 249.5,249.5 C 304.833,249.5 360.167,249.5 415.5,249.5C 415.5,332.833 415.5,416.167 415.5,499.5C 346.167,499.5 276.833,499.5 207.5,499.5C 193.833,499.5 180.167,499.5 166.5,499.5C 166.5,485.5 166.5,471.5 166.5,457.5C 166.5,429.833 166.5,402.167 166.5,374.5C 166.5,332.833 166.5,291.167 166.5,249.5C 194.167,249.5 221.833,249.5 249.5,249.5 Z"/></g>
<g><path style="opacity:1" fill="#2f9816" d="M 415.5,249.5 C 443.5,249.5 471.5,249.5 499.5,249.5C 610.5,249.5 721.5,249.5 832.5,249.5C 860.167,249.5 887.833,249.5 915.5,249.5C 915.5,332.833 915.5,416.167 915.5,499.5C 832.167,499.5 748.833,499.5 665.5,499.5C 582.167,499.5 498.833,499.5 415.5,499.5C 415.5,416.167 415.5,332.833 415.5,249.5 Z"/></g>
<g><path style="opacity:1" fill="#a3962c" d="M -0.5,374.5 C 13.5,374.5 27.5,374.5 41.5,374.5C 69.1667,374.5 96.8333,374.5 124.5,374.5C 138.5,374.5 152.5,374.5 166.5,374.5C 166.5,402.167 166.5,429.833 166.5,457.5C 152.5,457.5 138.5,457.5 124.5,457.5C 96.8333,457.5 69.1667,457.5 41.5,457.5C 27.5,457.5 13.5,457.5 -0.5,457.5C -0.5,429.833 -0.5,402.167 -0.5,374.5 Z"/></g>
<g><path style="opacity:1" fill="#892518" d="M -0.5,457.5 C 13.5,457.5 27.5,457.5 41.5,457.5C 41.5,499.167 41.5,540.833 41.5,582.5C 69.1667,582.5 96.8333,582.5 124.5,582.5C 124.5,540.833 124.5,499.167 124.5,457.5C 138.5,457.5 152.5,457.5 166.5,457.5C 166.5,471.5 166.5,485.5 166.5,499.5C 180.167,499.5 193.833,499.5 207.5,499.5C 207.5,527.167 207.5,554.833 207.5,582.5C 263.167,582.5 318.833,582.5 374.5,582.5C 374.5,610.5 374.5,638.5 374.5,666.5C 388.167,666.5 401.833,666.5 415.5,666.5C 415.5,749.833 415.5,833.167 415.5,916.5C 401.833,916.5 388.167,916.5 374.5,916.5C 374.5,860.833 374.5,805.167 374.5,749.5C 318.833,749.5 263.167,749.5 207.5,749.5C 207.5,805.167 207.5,860.833 207.5,916.5C 193.833,916.5 180.167,916.5 166.5,916.5C 166.5,833.167 166.5,749.833 166.5,666.5C 110.833,666.5 55.1667,666.5 -0.5,666.5C -0.5,596.833 -0.5,527.167 -0.5,457.5 Z"/></g>
<g><path style="opacity:1" fill="#7b120c" d="M 41.5,457.5 C 69.1667,457.5 96.8333,457.5 124.5,457.5C 124.5,499.167 124.5,540.833 124.5,582.5C 96.8333,582.5 69.1667,582.5 41.5,582.5C 41.5,540.833 41.5,499.167 41.5,457.5 Z"/></g>
<g><path style="opacity:1" fill="#300603" d="M 207.5,499.5 C 276.833,499.5 346.167,499.5 415.5,499.5C 415.5,527.167 415.5,554.833 415.5,582.5C 401.833,582.5 388.167,582.5 374.5,582.5C 318.833,582.5 263.167,582.5 207.5,582.5C 207.5,554.833 207.5,527.167 207.5,499.5 Z"/></g>
<g><path style="opacity:1" fill="#4d361d" d="M 415.5,499.5 C 498.833,499.5 582.167,499.5 665.5,499.5C 665.5,513.5 665.5,527.5 665.5,541.5C 610.167,541.5 554.833,541.5 499.5,541.5C 499.5,583.167 499.5,624.833 499.5,666.5C 471.5,666.5 443.5,666.5 415.5,666.5C 415.5,638.5 415.5,610.5 415.5,582.5C 415.5,554.833 415.5,527.167 415.5,499.5 Z"/></g>
<g><path style="opacity:1" fill="#7d5020" d="M 665.5,541.5 C 665.5,583.167 665.5,624.833 665.5,666.5C 610.167,666.5 554.833,666.5 499.5,666.5C 499.5,624.833 499.5,583.167 499.5,541.5C 554.833,541.5 610.167,541.5 665.5,541.5 Z"/></g>
<g><path style="opacity:1" fill="#d9c83c" d="M 374.5,582.5 C 388.167,582.5 401.833,582.5 415.5,582.5C 415.5,610.5 415.5,638.5 415.5,666.5C 401.833,666.5 388.167,666.5 374.5,666.5C 374.5,638.5 374.5,610.5 374.5,582.5 Z"/></g>
<g><path style="opacity:1" fill="#b53020" d="M 415.5,666.5 C 443.5,666.5 471.5,666.5 499.5,666.5C 554.833,666.5 610.167,666.5 665.5,666.5C 748.833,666.5 832.167,666.5 915.5,666.5C 915.5,749.833 915.5,833.167 915.5,916.5C 887.833,916.5 860.167,916.5 832.5,916.5C 832.5,860.833 832.5,805.167 832.5,749.5C 721.5,749.5 610.5,749.5 499.5,749.5C 499.5,805.167 499.5,860.833 499.5,916.5C 471.5,916.5 443.5,916.5 415.5,916.5C 415.5,833.167 415.5,749.833 415.5,666.5 Z"/></g>
<g><path style="opacity:1" fill="#7b120c" d="M 374.5,916.5 C 318.833,916.5 263.167,916.5 207.5,916.5C 207.5,860.833 207.5,805.167 207.5,749.5C 263.167,749.5 318.833,749.5 374.5,749.5C 374.5,805.167 374.5,860.833 374.5,916.5 Z"/></g>
<g><path style="opacity:1" fill="#a31710" d="M 832.5,916.5 C 721.5,916.5 610.5,916.5 499.5,916.5C 499.5,860.833 499.5,805.167 499.5,749.5C 610.5,749.5 721.5,749.5 832.5,749.5C 832.5,805.167 832.5,860.833 832.5,916.5 Z"/></g>
<g><path style="opacity:1" fill="#390300" d="M 166.5,916.5 C 180.167,916.5 193.833,916.5 207.5,916.5C 263.167,916.5 318.833,916.5 374.5,916.5C 388.167,916.5 401.833,916.5 415.5,916.5C 415.5,944.167 415.5,971.833 415.5,999.5C 332.5,999.5 249.5,999.5 166.5,999.5C 166.5,971.833 166.5,944.167 166.5,916.5 Z"/></g>
<g><path style="opacity:1" fill="#4b0300" d="M 415.5,916.5 C 443.5,916.5 471.5,916.5 499.5,916.5C 610.5,916.5 721.5,916.5 832.5,916.5C 860.167,916.5 887.833,916.5 915.5,916.5C 915.5,944.167 915.5,971.833 915.5,999.5C 748.833,999.5 582.167,999.5 415.5,999.5C 415.5,971.833 415.5,944.167 415.5,916.5 Z"/></g>
</svg>
