<?xml version="1.0" encoding="UTF-8"?>
<!DOCTYPE svg PUBLIC "-//W3C//DTD SVG 1.1//EN" "http://www.w3.org/Graphics/SVG/1.1/DTD/svg11.dtd">
<svg xmlns="http://www.w3.org/2000/svg" version="1.1" width="1000px" height="916px" style="shape-rendering:geometricPrecision; text-rendering:geometricPrecision; image-rendering:optimizeQuality; fill-rule:evenodd; clip-rule:evenodd" xmlns:xlink="http://www.w3.org/1999/xlink">
<g><path style="opacity:1" fill="#22872d" d="M 166.5,-0.5 C 194.167,-0.5 221.833,-0.5 249.5,-0.5C 249.5,138.167 249.5,276.833 249.5,415.5C 221.833,415.5 194.167,415.5 166.5,415.5C 166.5,276.833 166.5,138.167 166.5,-0.5 Z"/></g>
<g><path style="opacity:1" fill="#40b32c" d="M 249.5,-0.5 C 305.167,-0.5 360.833,-0.5 416.5,-0.5C 416.5,82.8333 416.5,166.167 416.5,249.5C 416.5,304.833 416.5,360.167 416.5,415.5C 388.5,415.5 360.5,415.5 332.5,415.5C 304.833,415.5 277.167,415.5 249.5,415.5C 249.5,276.833 249.5,138.167 249.5,-0.5 Z"/></g>
<g><path style="opacity:1" fill="#22872d" d="M 666.5,82.5 C 666.5,138.167 666.5,193.833 666.5,249.5C 638.5,249.5 610.5,249.5 582.5,249.5C 582.5,193.833 582.5,138.167 582.5,82.5C 610.5,82.5 638.5,82.5 666.5,82.5 Z"/></g>
<g><path style="opacity:1" fill="#40b32c" d="M 666.5,82.5 C 721.833,82.5 777.167,82.5 832.5,82.5C 832.5,193.5 832.5,304.5 832.5,415.5C 721.5,415.5 610.5,415.5 499.5,415.5C 499.5,360.167 499.5,304.833 499.5,249.5C 527.167,249.5 554.833,249.5 582.5,249.5C 610.5,249.5 638.5,249.5 666.5,249.5C 666.5,193.833 666.5,138.167 666.5,82.5 Z"/></g>
<g><path style="opacity:1" fill="#22872d" d="M 416.5,249.5 C 444.167,249.5 471.833,249.5 499.5,249.5C 499.5,304.833 499.5,360.167 499.5,415.5C 471.833,415.5 444.167,415.5 416.5,415.5C 416.5,360.167 416.5,304.833 416.5,249.5 Z"/></g>
<g><path style="opacity:1" fill="#9db08b" d="M -0.5,415.5 C 55.1667,415.5 110.833,415.5 166.5,415.5C 194.167,415.5 221.833,415.5 249.5,415.5C 277.167,415.5 304.833,415.5 332.5,415.5C 332.5,582.167 332.5,748.833 332.5,915.5C 221.5,915.5 110.5,915.5 -0.5,915.5C -0.5,748.833 -0.5,582.167 -0.5,415.5 Z"/></g>
<g><path style="opacity:1" fill="#e5e9b8" d="M 332.5,415.5 C 360.5,415.5 388.5,415.5 416.5,415.5C 444.167,415.5 471.833,415.5 499.5,415.5C 610.5,415.5 721.5,415.5 832.5,415.5C 888.167,415.5 943.833,415.5 999.5,415.5C 999.5,471.167 999.5,526.833 999.5,582.5C 943.833,582.5 888.167,582.5 832.5,582.5C 832.5,637.833 832.5,693.167 832.5,748.5C 888.167,748.5 943.833,748.5 999.5,748.5C 999.5,804.167 999.5,859.833 999.5,915.5C 777.167,915.5 554.833,915.5 332.5,915.5C 332.5,748.833 332.5,582.167 332.5,415.5 Z"/></g>
<g><path style="opacity:1" fill="#000000" d="M 499.5,582.5 C 555.167,582.5 610.833,582.5 666.5,582.5C 666.5,637.833 666.5,693.167 666.5,748.5C 610.833,748.5 555.167,748.5 499.5,748.5C 499.5,693.167 499.5,637.833 499.5,582.5 Z"/></g>
<g><path style="opacity:1" fill="#000000" d="M 999.5,582.5 C 999.5,637.833 999.5,693.167 999.5,748.5C 943.833,748.5 888.167,748.5 832.5,748.5C 832.5,693.167 832.5,637.833 832.5,582.5C 888.167,582.5 943.833,582.5 999.5,582.5 Z"/></g>
</svg>
