<svg viewBox="0 0 1100 1050" xmlns="http://www.w3.org/2000/svg"><rect x="200" y="50" width="600" height="650" fill="#1d1a14" /><rect x="300" y="150" width="400" height="400" fill="#693f05" /><rect x="0" y="50" width="250" height="600" fill="#1d1a14" /><rect x="50" y="150" width="100" height="400" fill="#865107" /><rect x="400" y="0" width="200" height="100" fill="#767676" /><rect x="550" y="0" width="100" height="100" fill="#a5a5a5" /><rect x="250" y="100" width="550" height="250" fill="#496e1b" /><rect x="300" y="200" width="500" height="150" fill="#a9924c" /><rect x="400" y="150" width="150" height="150" fill="#c1af67" /><rect x="500" y="150" width="200" height="150" fill="#472928" /><rect x="400" y="100" width="300" height="100" fill="#63932b" /><rect x="750" y="150" width="100" height="150" fill="#c1af67" /><rect x="850" y="150" width="200" height="150" fill="#472928" /><rect x="750" y="100" width="300" height="100" fill="#63932b" /><rect x="200" y="300" width="350" height="400" fill="#496e1b" /><rect x="400" y="450" width="150" height="250" fill="#a9924c" /><rect x="400" y="400" width="150" height="100" fill="#3a5c17" /><rect x="500" y="300" width="600" height="250" fill="#63932b" /><rect x="500" y="500" width="600" height="200" fill="#c1af67" /><rect x="500" y="400" width="600" height="100" fill="#496e1b" /><rect x="700" y="450" width="200" height="150" fill="#496e1b" /><rect x="700" y="350" width="200" height="150" fill="#63932b" /><rect x="200" y="650" width="350" height="400" fill="#1d1a14" /><rect x="250" y="750" width="200" height="200" fill="#865107" /><rect x="500" y="650" width="600" height="400" fill="#453c2f" /><rect x="600" y="750" width="400" height="200" fill="#a76e1f" /></svg>