<svg viewBox="0 0 900 600" xmlns="http://www.w3.org/2000/svg"><rect x="50" y="0" width="550" height="250" fill="#496e1b" /><rect x="100" y="100" width="500" height="150" fill="#a9924c" /><rect x="200" y="50" width="150" height="150" fill="#c1af67" /><rect x="300" y="50" width="200" height="150" fill="#472928" /><rect x="200" y="0" width="300" height="100" fill="#63932b" /><rect x="550" y="50" width="100" height="150" fill="#c1af67" /><rect x="650" y="50" width="200" height="150" fill="#472928" /><rect x="550" y="0" width="300" height="100" fill="#63932b" /><rect x="0" y="200" width="350" height="400" fill="#496e1b" /><rect x="200" y="350" width="150" height="250" fill="#a9924c" /><rect x="200" y="300" width="150" height="100" fill="#3a5c17" /><rect x="300" y="200" width="600" height="250" fill="#63932b" /><rect x="300" y="400" width="600" height="200" fill="#c1af67" /><rect x="300" y="300" width="600" height="100" fill="#496e1b" /><rect x="500" y="350" width="200" height="150" fill="#496e1b" /><rect x="500" y="250" width="200" height="150" fill="#63932b" /></svg>