<?xml version="1.0" encoding="UTF-8"?>
<!DOCTYPE svg PUBLIC "-//W3C//DTD SVG 1.1//EN" "http://www.w3.org/Graphics/SVG/1.1/DTD/svg11.dtd">
<svg xmlns="http://www.w3.org/2000/svg" version="1.1" width="1000px" height="666px" style="shape-rendering:geometricPrecision; text-rendering:geometricPrecision; image-rendering:optimizeQuality; fill-rule:evenodd; clip-rule:evenodd" xmlns:xlink="http://www.w3.org/1999/xlink">
<g><path style="opacity:1" fill="#486e1a" d="M 55.5,-0.5 C 110.833,-0.5 166.167,-0.5 221.5,-0.5C 221.5,36.5 221.5,73.5 221.5,110.5C 184.5,110.5 147.5,110.5 110.5,110.5C 110.5,147.5 110.5,184.5 110.5,221.5C 147.5,221.5 184.5,221.5 221.5,221.5C 258.5,221.5 295.5,221.5 332.5,221.5C 332.5,258.5 332.5,295.5 332.5,332.5C 295.5,332.5 258.5,332.5 221.5,332.5C 221.5,369.5 221.5,406.5 221.5,443.5C 221.5,517.5 221.5,591.5 221.5,665.5C 147.5,665.5 73.5,665.5 -0.5,665.5C -0.5,517.5 -0.5,369.5 -0.5,221.5C 18.1667,221.5 36.8333,221.5 55.5,221.5C 55.5,147.5 55.5,73.5 55.5,-0.5 Z"/></g>
<g><path style="opacity:1" fill="#62932a" d="M 221.5,-0.5 C 332.833,-0.5 444.167,-0.5 555.5,-0.5C 555.5,36.5 555.5,73.5 555.5,110.5C 481.167,110.5 406.833,110.5 332.5,110.5C 295.5,110.5 258.5,110.5 221.5,110.5C 221.5,73.5 221.5,36.5 221.5,-0.5 Z"/></g>
<g><path style="opacity:1" fill="#486e1a" d="M 555.5,-0.5 C 573.833,-0.5 592.167,-0.5 610.5,-0.5C 610.5,36.5 610.5,73.5 610.5,110.5C 592.167,110.5 573.833,110.5 555.5,110.5C 555.5,73.5 555.5,36.5 555.5,-0.5 Z"/></g>
<g><path style="opacity:1" fill="#62932a" d="M 610.5,-0.5 C 721.5,-0.5 832.5,-0.5 943.5,-0.5C 943.5,36.5 943.5,73.5 943.5,110.5C 869.5,110.5 795.5,110.5 721.5,110.5C 684.5,110.5 647.5,110.5 610.5,110.5C 610.5,73.5 610.5,36.5 610.5,-0.5 Z"/></g>
<g><path style="opacity:1" fill="#a8924b" d="M 221.5,110.5 C 221.5,147.5 221.5,184.5 221.5,221.5C 184.5,221.5 147.5,221.5 110.5,221.5C 110.5,184.5 110.5,147.5 110.5,110.5C 147.5,110.5 184.5,110.5 221.5,110.5 Z"/></g>
<g><path style="opacity:1" fill="#c0af66" d="M 221.5,110.5 C 258.5,110.5 295.5,110.5 332.5,110.5C 332.5,147.5 332.5,184.5 332.5,221.5C 295.5,221.5 258.5,221.5 221.5,221.5C 221.5,184.5 221.5,147.5 221.5,110.5 Z"/></g>
<g><path style="opacity:1" fill="#462927" d="M 332.5,110.5 C 406.833,110.5 481.167,110.5 555.5,110.5C 555.5,147.5 555.5,184.5 555.5,221.5C 481.167,221.5 406.833,221.5 332.5,221.5C 332.5,184.5 332.5,147.5 332.5,110.5 Z"/></g>
<g><path style="opacity:1" fill="#a8924b" d="M 555.5,110.5 C 573.833,110.5 592.167,110.5 610.5,110.5C 610.5,147.5 610.5,184.5 610.5,221.5C 592.167,221.5 573.833,221.5 555.5,221.5C 555.5,184.5 555.5,147.5 555.5,110.5 Z"/></g>
<g><path style="opacity:1" fill="#c0af66" d="M 610.5,110.5 C 647.5,110.5 684.5,110.5 721.5,110.5C 721.5,147.5 721.5,184.5 721.5,221.5C 684.5,221.5 647.5,221.5 610.5,221.5C 610.5,184.5 610.5,147.5 610.5,110.5 Z"/></g>
<g><path style="opacity:1" fill="#462927" d="M 721.5,110.5 C 795.5,110.5 869.5,110.5 943.5,110.5C 943.5,147.5 943.5,184.5 943.5,221.5C 869.5,221.5 795.5,221.5 721.5,221.5C 721.5,184.5 721.5,147.5 721.5,110.5 Z"/></g>
<g><path style="opacity:1" fill="#62932a" d="M 332.5,221.5 C 406.833,221.5 481.167,221.5 555.5,221.5C 573.833,221.5 592.167,221.5 610.5,221.5C 647.5,221.5 684.5,221.5 721.5,221.5C 795.5,221.5 869.5,221.5 943.5,221.5C 962.167,221.5 980.833,221.5 999.5,221.5C 999.5,258.5 999.5,295.5 999.5,332.5C 925.5,332.5 851.5,332.5 777.5,332.5C 777.5,369.5 777.5,406.5 777.5,443.5C 703.5,443.5 629.5,443.5 555.5,443.5C 555.5,406.5 555.5,369.5 555.5,332.5C 481.167,332.5 406.833,332.5 332.5,332.5C 332.5,295.5 332.5,258.5 332.5,221.5 Z"/></g>
<g><path style="opacity:1" fill="#395c16" d="M 332.5,332.5 C 332.5,369.5 332.5,406.5 332.5,443.5C 295.5,443.5 258.5,443.5 221.5,443.5C 221.5,406.5 221.5,369.5 221.5,332.5C 258.5,332.5 295.5,332.5 332.5,332.5 Z"/></g>
<g><path style="opacity:1" fill="#486e1a" d="M 332.5,332.5 C 406.833,332.5 481.167,332.5 555.5,332.5C 555.5,369.5 555.5,406.5 555.5,443.5C 481.167,443.5 406.833,443.5 332.5,443.5C 332.5,406.5 332.5,369.5 332.5,332.5 Z"/></g>
<g><path style="opacity:1" fill="#486e1a" d="M 999.5,332.5 C 999.5,369.5 999.5,406.5 999.5,443.5C 925.5,443.5 851.5,443.5 777.5,443.5C 777.5,406.5 777.5,369.5 777.5,332.5C 851.5,332.5 925.5,332.5 999.5,332.5 Z"/></g>
<g><path style="opacity:1" fill="#a8924b" d="M 221.5,443.5 C 258.5,443.5 295.5,443.5 332.5,443.5C 332.5,517.5 332.5,591.5 332.5,665.5C 295.5,665.5 258.5,665.5 221.5,665.5C 221.5,591.5 221.5,517.5 221.5,443.5 Z"/></g>
<g><path style="opacity:1" fill="#c0af66" d="M 332.5,443.5 C 406.833,443.5 481.167,443.5 555.5,443.5C 555.5,480.5 555.5,517.5 555.5,554.5C 629.5,554.5 703.5,554.5 777.5,554.5C 777.5,517.5 777.5,480.5 777.5,443.5C 851.5,443.5 925.5,443.5 999.5,443.5C 999.5,517.5 999.5,591.5 999.5,665.5C 777.167,665.5 554.833,665.5 332.5,665.5C 332.5,591.5 332.5,517.5 332.5,443.5 Z"/></g>
<g><path style="opacity:1" fill="#486e1a" d="M 555.5,443.5 C 629.5,443.5 703.5,443.5 777.5,443.5C 777.5,480.5 777.5,517.5 777.5,554.5C 703.5,554.5 629.5,554.5 555.5,554.5C 555.5,517.5 555.5,480.5 555.5,443.5 Z"/></g>
</svg>
