<svg viewBox="0 0 700 600" xmlns="http://www.w3.org/2000/svg"><rect x="100" y="0" width="450" height="100" fill="#d2d2b2" /><rect x="100" y="50" width="100" height="500" fill="#897e4e" /><rect x="0" y="50" width="150" height="100" fill="#897e4e" /><rect x="50" y="0" width="50" height="100" fill="#897e4e" /><rect x="50" y="50" width="50" height="100" fill="#74693b" /><rect x="150" y="500" width="100" height="100" fill="#897e4e" /><rect x="200" y="500" width="450" height="100" fill="#bebe9e" /><rect x="150" y="50" width="450" height="500" fill="#bebe9e" /><rect x="200" y="500" width="100" height="50" fill="#897e4e" /><rect x="250" y="500" width="450" height="50" fill="#d2d2b2" /><rect x="200" y="100" width="100" height="100" fill="#006a00" /><rect x="200" y="150" width="100" height="100" fill="#0e4e26" /><rect x="250" y="100" width="100" height="100" fill="#007400" /><rect x="200" y="200" width="100" height="100" fill="#153547" /><rect x="250" y="150" width="100" height="100" fill="#115823" /><rect x="300" y="100" width="100" height="100" fill="#007c00" /><rect x="200" y="250" width="100" height="100" fill="#141f5f" /><rect x="250" y="200" width="100" height="100" fill="#1c4040" /><rect x="300" y="150" width="100" height="100" fill="#145f1f" /><rect x="350" y="100" width="100" height="100" fill="#008000" /><rect x="400" y="100" width="100" height="100" fill="#007f00" /><rect x="350" y="150" width="100" height="100" fill="#18631c" /><rect x="300" y="200" width="100" height="100" fill="#234638" /><rect x="250" y="250" width="100" height="100" fill="#1f2a54" /><rect x="200" y="300" width="100" height="100" fill="#0e0e71" /><rect x="450" y="100" width="100" height="100" fill="#007c00" /><rect x="400" y="150" width="100" height="100" fill="#1c6318" /><rect x="350" y="200" width="100" height="100" fill="#2a4a31" /><rect x="300" y="250" width="100" height="100" fill="#2a314a" /><rect x="250" y="300" width="100" height="100" fill="#1c1863" /><rect x="200" y="350" width="100" height="100" fill="#00007c" /><rect x="500" y="100" width="50" height="50" fill="#007500" /><rect x="450" y="150" width="100" height="100" fill="#1f5f15" /><rect x="400" y="200" width="100" height="100" fill="#314a2a" /><rect x="350" y="250" width="100" height="100" fill="#34353f" /><rect x="300" y="300" width="100" height="100" fill="#2a2055" /><rect x="250" y="350" width="100" height="100" fill="#110a6a" /><rect x="200" y="400" width="100" height="50" fill="#000080" /><rect x="500" y="150" width="50" height="100" fill="#235811" /><rect x="450" y="200" width="100" height="100" fill="#384623" /><rect x="400" y="250" width="100" height="100" fill="#3f3434" /><rect x="350" y="300" width="100" height="100" fill="#382346" /><rect x="300" y="350" width="100" height="100" fill="#231158" /><rect x="250" y="400" width="100" height="50" fill="#00006a" /><rect x="500" y="200" width="50" height="100" fill="#3f3f1c" /><rect x="450" y="250" width="100" height="100" fill="#4a312a" /><rect x="400" y="300" width="100" height="100" fill="#462338" /><rect x="350" y="350" width="100" height="100" fill="#351547" /><rect x="300" y="400" width="100" height="50" fill="#150755" /><rect x="500" y="250" width="50" height="100" fill="#542a1f" /><rect x="450" y="300" width="100" height="100" fill="#541f2a" /><rect x="400" y="350" width="100" height="100" fill="#471535" /><rect x="350" y="400" width="100" height="50" fill="#2a0a40" /><rect x="500" y="300" width="50" height="100" fill="#63181c" /><rect x="450" y="350" width="100" height="100" fill="#581123" /><rect x="400" y="400" width="100" height="50" fill="#400a2a" /><rect x="500" y="350" width="50" height="100" fill="#6a0a11" /><rect x="450" y="400" width="100" height="50" fill="#550715" /><rect x="500" y="400" width="50" height="50" fill="#6a0000" /></svg>