<svg viewBox="0 0 750 600" xmlns="http://www.w3.org/2000/svg"><rect x="0" y="200" width="150" height="200" fill="#2e608e" /><rect x="100" y="100" width="100" height="100" fill="#2e608e" /><rect x="100" y="400" width="100" height="100" fill="#2e608e" /><rect x="200" y="0" width="100" height="100" fill="#2e608e" /><rect x="200" y="500" width="100" height="100" fill="#2e608e" /><rect x="250" y="150" width="100" height="300" fill="#2e608e" /><rect x="150" y="250" width="200" height="100" fill="#2e608e" /><rect x="400" y="500" width="100" height="100" fill="#298da6" /><rect x="500" y="400" width="100" height="100" fill="#298da6" /><rect x="600" y="200" width="100" height="200" fill="#298da6" /><rect x="500" y="100" width="100" height="100" fill="#298da6" /><rect x="400" y="0" width="100" height="100" fill="#298da6" /><rect x="300" y="150" width="100" height="300" fill="#3d8fbc" /><rect x="200" y="250" width="200" height="100" fill="#3d8fbc" /><rect x="250" y="0" width="100" height="100" fill="#3d8fbc" /><rect x="150" y="100" width="100" height="100" fill="#3d8fbc" /><rect x="50" y="200" width="100" height="200" fill="#3d8fbc" /><rect x="150" y="400" width="100" height="100" fill="#3d8fbc" /><rect x="250" y="500" width="100" height="100" fill="#3d8fbc" /><rect x="450" y="500" width="100" height="100" fill="#36bbdc" /><rect x="550" y="400" width="100" height="100" fill="#36bbdc" /><rect x="650" y="200" width="100" height="200" fill="#36bbdc" /><rect x="550" y="100" width="100" height="100" fill="#36bbdc" /><rect x="450" y="0" width="100" height="100" fill="#36bbdc" /></svg>