<svg viewBox="0 0 1100 1050" xmlns="http://www.w3.org/2000/svg"><rect x="200" y="50" width="600" height="650" fill="#1d1a14" /><rect x="300" y="150" width="400" height="400" fill="#693f05" /><rect x="0" y="50" width="250" height="600" fill="#1d1a14" /><rect x="50" y="150" width="100" height="400" fill="#865107" /><rect x="400" y="0" width="200" height="100" fill="#767676" /><rect x="550" y="0" width="100" height="100" fill="#a5a5a5" /><rect x="200" y="200" width="350" height="600" fill="#9e6f50" /><rect x="500" y="200" width="600" height="600" fill="#c98d66" /><rect x="300" y="200" width="100" height="600" fill="#9c633e" /><rect x="200" y="400" width="350" height="200" fill="#9c633e" /><rect x="500" y="400" width="600" height="200" fill="#c77e4f" /><rect x="700" y="200" width="200" height="600" fill="#c77e4f" /><rect x="250" y="300" width="200" height="400" fill="#8d8a91" /><rect x="250" y="300" width="150" height="300" fill="#a7a5ae" /><rect x="300" y="400" width="150" height="300" fill="#5d5b64" /><rect x="300" y="400" width="100" height="200" fill="#8d8a91" /><rect x="300" y="500" width="50" height="100" fill="#497123" /><rect x="350" y="400" width="50" height="100" fill="#661d1b" /><rect x="600" y="300" width="400" height="400" fill="#b3b0b9" /><rect x="700" y="400" width="300" height="300" fill="#777480" /><rect x="600" y="300" width="300" height="300" fill="#d5d2dd" /><rect x="700" y="400" width="200" height="200" fill="#b3b0b9" /><rect x="700" y="500" width="100" height="100" fill="#5d902d" /><rect x="800" y="400" width="100" height="100" fill="#822523" /><rect x="200" y="650" width="350" height="400" fill="#1d1a14" /><rect x="250" y="750" width="200" height="200" fill="#865107" /><rect x="500" y="650" width="600" height="400" fill="#453c2f" /><rect x="600" y="750" width="400" height="200" fill="#a76e1f" /></svg>