<svg viewBox="0 0 1100 1050" xmlns="http://www.w3.org/2000/svg"><rect x="0" y="50" width="800" height="600" fill="#8a2519" /><rect x="200" y="600" width="600" height="100" fill="#8a2519" /><rect x="50" y="150" width="100" height="400" fill="#7c120d" /><rect x="0" y="300" width="250" height="100" fill="#a4962d" /><rect x="200" y="300" width="600" height="100" fill="#dac83d" /><rect x="450" y="50" width="100" height="600" fill="#dac83d" /><rect x="300" y="150" width="400" height="400" fill="#310604" /><rect x="400" y="0" width="200" height="100" fill="#a4962d" /><rect x="550" y="0" width="100" height="100" fill="#dac83d" /><rect x="200" y="200" width="350" height="600" fill="#9e6f50" /><rect x="500" y="200" width="600" height="600" fill="#c98d66" /><rect x="300" y="200" width="100" height="600" fill="#9c633e" /><rect x="200" y="400" width="350" height="200" fill="#9c633e" /><rect x="500" y="400" width="600" height="200" fill="#c77e4f" /><rect x="700" y="200" width="200" height="600" fill="#c77e4f" /><rect x="250" y="300" width="200" height="400" fill="#8d8a91" /><rect x="250" y="300" width="150" height="300" fill="#a7a5ae" /><rect x="300" y="400" width="150" height="300" fill="#5d5b64" /><rect x="300" y="400" width="100" height="200" fill="#8d8a91" /><rect x="300" y="500" width="50" height="100" fill="#497123" /><rect x="350" y="400" width="50" height="100" fill="#661d1b" /><rect x="600" y="300" width="400" height="400" fill="#b3b0b9" /><rect x="700" y="400" width="300" height="300" fill="#777480" /><rect x="600" y="300" width="300" height="300" fill="#d5d2dd" /><rect x="700" y="400" width="200" height="200" fill="#b3b0b9" /><rect x="700" y="500" width="100" height="100" fill="#5d902d" /><rect x="800" y="400" width="100" height="100" fill="#822523" /><rect x="200" y="650" width="350" height="350" fill="#8a2519" /><rect x="500" y="650" width="600" height="350" fill="#b63021" /><rect x="250" y="750" width="200" height="250" fill="#7c120d" /><rect x="600" y="750" width="400" height="250" fill="#a41711" /><rect x="200" y="950" width="350" height="100" fill="#3a0300" /><rect x="500" y="950" width="600" height="100" fill="#4c0300" /></svg>