<?xml version="1.0" encoding="UTF-8"?>
<!DOCTYPE svg PUBLIC "-//W3C//DTD SVG 1.1//EN" "http://www.w3.org/Graphics/SVG/1.1/DTD/svg11.dtd">
<svg xmlns="http://www.w3.org/2000/svg" version="1.1" width="2300px" height="1462px" style="shape-rendering:geometricPrecision; text-rendering:geometricPrecision; image-rendering:optimizeQuality; fill-rule:evenodd; clip-rule:evenodd" xmlns:xlink="http://www.w3.org/1999/xlink">
<g><path style="opacity:1" fill="#1c1a13" d="M -0.5,-0.5 C 254.833,-0.5 510.167,-0.5 765.5,-0.5C 765.5,486.833 765.5,974.167 765.5,1461.5C 510.167,1461.5 254.833,1461.5 -0.5,1461.5C -0.5,974.167 -0.5,486.833 -0.5,-0.5 Z"/></g>
<g><path style="opacity:1" fill="#443c2e" d="M 765.5,-0.5 C 1276.83,-0.5 1788.17,-0.5 2299.5,-0.5C 2299.5,486.833 2299.5,974.167 2299.5,1461.5C 1788.17,1461.5 1276.83,1461.5 765.5,1461.5C 765.5,974.167 765.5,486.833 765.5,-0.5 Z"/></g>
<g><path style="opacity:1" fill="#855106" d="M 125.5,218.5 C 296.167,218.5 466.833,218.5 637.5,218.5C 637.5,303.833 637.5,389.167 637.5,474.5C 466.833,474.5 296.167,474.5 125.5,474.5C 125.5,389.167 125.5,303.833 125.5,218.5 Z"/></g>
<g><path style="opacity:1" fill="#a66e1e" d="M 1789.5,474.5 C 1704.17,474.5 1618.83,474.5 1533.5,474.5C 1490.83,474.5 1448.17,474.5 1405.5,474.5C 1362.83,474.5 1320.17,474.5 1277.5,474.5C 1192.17,474.5 1106.83,474.5 1021.5,474.5C 1021.5,389.167 1021.5,303.833 1021.5,218.5C 1362.83,218.5 1704.17,218.5 2045.5,218.5C 2045.5,303.833 2045.5,389.167 2045.5,474.5C 1960.17,474.5 1874.83,474.5 1789.5,474.5 Z"/></g>
<g><path style="opacity:1" fill="#1c1a13" d="M 1277.5,474.5 C 1320.17,474.5 1362.83,474.5 1405.5,474.5C 1405.5,559.833 1405.5,645.167 1405.5,730.5C 1362.83,730.5 1320.17,730.5 1277.5,730.5C 1277.5,645.167 1277.5,559.833 1277.5,474.5 Z"/></g>
<g><path style="opacity:1" fill="#757675" d="M 1405.5,474.5 C 1448.17,474.5 1490.83,474.5 1533.5,474.5C 1533.5,645.167 1533.5,815.833 1533.5,986.5C 1490.83,986.5 1448.17,986.5 1405.5,986.5C 1405.5,901.167 1405.5,815.833 1405.5,730.5C 1405.5,645.167 1405.5,559.833 1405.5,474.5 Z"/></g>
<g><path style="opacity:1" fill="#a4a5a4" d="M 1533.5,474.5 C 1618.83,474.5 1704.17,474.5 1789.5,474.5C 1789.5,559.833 1789.5,645.167 1789.5,730.5C 1789.5,815.833 1789.5,901.167 1789.5,986.5C 1704.17,986.5 1618.83,986.5 1533.5,986.5C 1533.5,815.833 1533.5,645.167 1533.5,474.5 Z"/></g>
<g><path style="opacity:1" fill="#855106" d="M 125.5,730.5 C 296.167,730.5 466.833,730.5 637.5,730.5C 637.5,901.167 637.5,1071.83 637.5,1242.5C 466.833,1242.5 296.167,1242.5 125.5,1242.5C 125.5,1071.83 125.5,901.167 125.5,730.5 Z"/></g>
<g><path style="opacity:1" fill="#a66e1e" d="M 1277.5,730.5 C 1320.17,730.5 1362.83,730.5 1405.5,730.5C 1405.5,815.833 1405.5,901.167 1405.5,986.5C 1448.17,986.5 1490.83,986.5 1533.5,986.5C 1618.83,986.5 1704.17,986.5 1789.5,986.5C 1789.5,901.167 1789.5,815.833 1789.5,730.5C 1874.83,730.5 1960.17,730.5 2045.5,730.5C 2045.5,901.167 2045.5,1071.83 2045.5,1242.5C 1704.17,1242.5 1362.83,1242.5 1021.5,1242.5C 1021.5,1071.83 1021.5,901.167 1021.5,730.5C 1106.83,730.5 1192.17,730.5 1277.5,730.5 Z"/></g>
</svg>
