<svg viewBox="0 0 1100 1150" xmlns="http://www.w3.org/2000/svg"><rect x="0" y="150" width="800" height="600" fill="#8a2519" /><rect x="200" y="700" width="600" height="100" fill="#8a2519" /><rect x="50" y="250" width="100" height="400" fill="#7c120d" /><rect x="0" y="400" width="250" height="100" fill="#a4962d" /><rect x="200" y="400" width="600" height="100" fill="#dac83d" /><rect x="450" y="150" width="100" height="600" fill="#dac83d" /><rect x="300" y="250" width="400" height="400" fill="#310604" /><rect x="400" y="100" width="200" height="100" fill="#a4962d" /><rect x="550" y="100" width="100" height="100" fill="#dac83d" /><rect x="600" y="700" width="200" height="100" fill="#e64a19" /><rect x="500" y="600" width="100" height="100" fill="#e64a19" /><rect x="300" y="300" width="300" height="200" fill="#e64a19" /><rect x="400" y="450" width="100" height="150" fill="#e64a19" /><rect x="400" y="200" width="200" height="150" fill="#e64a19" /><rect x="600" y="0" width="200" height="100" fill="#e64a19" /><rect x="700" y="50" width="100" height="150" fill="#e64a19" /><rect x="700" y="100" width="200" height="100" fill="#e64a19" /><rect x="800" y="150" width="100" height="150" fill="#e64a19" /><rect x="800" y="200" width="200" height="100" fill="#e64a19" /><rect x="700" y="300" width="100" height="200" fill="#e64a19" /><rect x="700" y="400" width="200" height="100" fill="#e64a19" /><rect x="800" y="400" width="100" height="200" fill="#e64a19" /><rect x="850" y="500" width="150" height="100" fill="#e64a19" /><rect x="1000" y="400" width="100" height="100" fill="#e64a19" /><rect x="700" y="600" width="200" height="100" fill="#e64a19" /><rect x="700" y="650" width="100" height="100" fill="#e64a19" /><rect x="800" y="550" width="100" height="100" fill="#e64a19" /><rect x="200" y="750" width="350" height="350" fill="#8a2519" /><rect x="500" y="750" width="600" height="350" fill="#b63021" /><rect x="250" y="850" width="200" height="250" fill="#7c120d" /><rect x="600" y="850" width="400" height="250" fill="#a41711" /><rect x="200" y="1050" width="350" height="100" fill="#3a0300" /><rect x="500" y="1050" width="600" height="100" fill="#4c0300" /></svg>