<svg viewBox="0 0 800 800" xmlns="http://www.w3.org/2000/svg"><rect x="300" y="700" width="200" height="100" fill="#717171" /><rect x="200" y="600" width="100" height="100" fill="#717171" /><rect x="0" y="300" width="300" height="200" fill="#717171" /><rect x="100" y="450" width="100" height="150" fill="#717171" /><rect x="100" y="200" width="200" height="150" fill="#717171" /><rect x="300" y="0" width="200" height="100" fill="#717171" /><rect x="400" y="50" width="100" height="150" fill="#717171" /><rect x="400" y="100" width="200" height="100" fill="#717171" /><rect x="500" y="150" width="100" height="150" fill="#717171" /><rect x="500" y="200" width="200" height="100" fill="#717171" /><rect x="400" y="300" width="100" height="200" fill="#717171" /><rect x="400" y="400" width="200" height="100" fill="#717171" /><rect x="500" y="400" width="100" height="200" fill="#717171" /><rect x="550" y="500" width="150" height="100" fill="#717171" /><rect x="700" y="400" width="100" height="100" fill="#717171" /><rect x="400" y="600" width="200" height="100" fill="#717171" /><rect x="400" y="650" width="100" height="100" fill="#717171" /><rect x="500" y="550" width="100" height="100" fill="#717171" /></svg>