<svg viewBox="0 0 700 600" xmlns="http://www.w3.org/2000/svg"><rect x="100" y="0" width="450" height="100" fill="#d2d2b2" /><rect x="100" y="50" width="100" height="500" fill="#897e4e" /><rect x="0" y="50" width="150" height="100" fill="#897e4e" /><rect x="50" y="0" width="50" height="100" fill="#897e4e" /><rect x="50" y="50" width="50" height="100" fill="#74693b" /><rect x="150" y="500" width="100" height="100" fill="#897e4e" /><rect x="200" y="500" width="450" height="100" fill="#bebe9e" /><rect x="150" y="50" width="450" height="500" fill="#bebe9e" /><rect x="200" y="500" width="100" height="50" fill="#897e4e" /><rect x="250" y="500" width="450" height="50" fill="#d2d2b2" /><rect x="250" y="200" width="100" height="150" fill="#ffff00" /><rect x="400" y="200" width="100" height="150" fill="#00ffff" /><rect x="350" y="100" width="50" height="100" fill="#00ff00" /><rect x="300" y="150" width="150" height="100" fill="#00ff00" /><rect x="300" y="250" width="150" height="150" fill="#a100ff" /><rect x="300" y="250" width="150" height="100" fill="#ffffff" /><rect x="350" y="200" width="50" height="100" fill="#ffffff" /><rect x="200" y="300" width="150" height="100" fill="#ff0000" /><rect x="400" y="300" width="150" height="100" fill="#0000ff" /><rect x="300" y="300" width="150" height="50" fill="#a100ff" /></svg>