<svg viewBox="0 0 1200 500" xmlns="http://www.w3.org/2000/svg"><rect x="0" y="100" width="150" height="400" fill="#006491" /><rect x="100" y="0" width="150" height="100" fill="#006491" /><rect x="300" y="200" width="150" height="100" fill="#006491" /><rect x="400" y="250" width="150" height="150" fill="#006491" /><rect x="400" y="350" width="100" height="100" fill="#006491" /><rect x="200" y="0" width="400" height="100" fill="#00acc1" /><rect x="100" y="100" width="100" height="400" fill="#00acc1" /><rect x="150" y="400" width="350" height="100" fill="#00acc1" /><rect x="500" y="200" width="100" height="200" fill="#00acc1" /><rect x="400" y="200" width="150" height="100" fill="#00acc1" /><rect x="600" y="100" width="150" height="400" fill="#006491" /><rect x="700" y="0" width="150" height="100" fill="#006491" /><rect x="1000" y="100" width="150" height="300" fill="#006491" /><rect x="1000" y="50" width="100" height="400" fill="#006491" /><rect x="700" y="100" width="100" height="400" fill="#00acc1" /><rect x="800" y="0" width="300" height="100" fill="#00acc1" /><rect x="750" y="400" width="350" height="100" fill="#00acc1" /><rect x="1100" y="100" width="100" height="300" fill="#00acc1" /></svg>