<svg viewBox="0 0 900 750" xmlns="http://www.w3.org/2000/svg"><rect x="400" y="150" width="150" height="200" fill="#a25d45" /><rect x="450" y="250" width="100" height="100" fill="#bf6f54" /><rect x="300" y="0" width="150" height="200" fill="#a25d45" /><rect x="400" y="0" width="200" height="200" fill="#bf6f54" /><rect x="300" y="0" width="150" height="100" fill="#ab6252" /><rect x="400" y="0" width="100" height="100" fill="#e3826c" /><rect x="0" y="300" width="350" height="400" fill="#ab6252" /><rect x="50" y="400" width="200" height="300" fill="#905440" /><rect x="300" y="300" width="600" height="400" fill="#e3826c" /><rect x="400" y="400" width="400" height="300" fill="#bf6f54" /><rect x="300" y="400" width="200" height="200" fill="#8a4730" /><rect x="400" y="500" width="150" height="100" fill="#ffd174" /><rect x="700" y="400" width="200" height="200" fill="#8a4730" /><rect x="700" y="500" width="100" height="100" fill="#ffd174" /><rect x="500" y="500" width="150" height="250" fill="#905440" /><rect x="600" y="500" width="150" height="250" fill="#bf6f54" /></svg>