<?xml version="1.0" encoding="UTF-8"?>
<!DOCTYPE svg PUBLIC "-//W3C//DTD SVG 1.1//EN" "http://www.w3.org/Graphics/SVG/1.1/DTD/svg11.dtd">
<svg xmlns="http://www.w3.org/2000/svg" version="1.1" width="1000px" height="833px" style="shape-rendering:geometricPrecision; text-rendering:geometricPrecision; image-rendering:optimizeQuality; fill-rule:evenodd; clip-rule:evenodd" xmlns:xlink="http://www.w3.org/1999/xlink">
<g><path style="opacity:1" fill="#aa6251" d="M 332.5,-0.5 C 369.5,-0.5 406.5,-0.5 443.5,-0.5C 443.5,36.5 443.5,73.5 443.5,110.5C 406.5,110.5 369.5,110.5 332.5,110.5C 332.5,73.5 332.5,36.5 332.5,-0.5 Z"/></g>
<g><path style="opacity:1" fill="#e2826b" d="M 443.5,-0.5 C 480.833,-0.5 518.167,-0.5 555.5,-0.5C 555.5,36.5 555.5,73.5 555.5,110.5C 518.167,110.5 480.833,110.5 443.5,110.5C 443.5,73.5 443.5,36.5 443.5,-0.5 Z"/></g>
<g><path style="opacity:1" fill="#be6f53" d="M 555.5,-0.5 C 592.5,-0.5 629.5,-0.5 666.5,-0.5C 666.5,73.5 666.5,147.5 666.5,221.5C 647.833,221.5 629.167,221.5 610.5,221.5C 554.833,221.5 499.167,221.5 443.5,221.5C 443.5,184.5 443.5,147.5 443.5,110.5C 480.833,110.5 518.167,110.5 555.5,110.5C 555.5,73.5 555.5,36.5 555.5,-0.5 Z"/></g>
<g><path style="opacity:1" fill="#a15d44" d="M 332.5,110.5 C 369.5,110.5 406.5,110.5 443.5,110.5C 443.5,147.5 443.5,184.5 443.5,221.5C 406.5,221.5 369.5,221.5 332.5,221.5C 332.5,184.5 332.5,147.5 332.5,110.5 Z"/></g>
<g><path style="opacity:1" fill="#a15d44" d="M 443.5,221.5 C 499.167,221.5 554.833,221.5 610.5,221.5C 610.5,240.167 610.5,258.833 610.5,277.5C 573.5,277.5 536.5,277.5 499.5,277.5C 499.5,295.833 499.5,314.167 499.5,332.5C 480.833,332.5 462.167,332.5 443.5,332.5C 443.5,295.5 443.5,258.5 443.5,221.5 Z"/></g>
<g><path style="opacity:1" fill="#be6f53" d="M 610.5,277.5 C 610.5,295.833 610.5,314.167 610.5,332.5C 573.5,332.5 536.5,332.5 499.5,332.5C 499.5,314.167 499.5,295.833 499.5,277.5C 536.5,277.5 573.5,277.5 610.5,277.5 Z"/></g>
<g><path style="opacity:1" fill="#aa6251" d="M -0.5,332.5 C 110.5,332.5 221.5,332.5 332.5,332.5C 332.5,369.5 332.5,406.5 332.5,443.5C 332.5,517.5 332.5,591.5 332.5,665.5C 332.5,702.5 332.5,739.5 332.5,776.5C 314.167,776.5 295.833,776.5 277.5,776.5C 277.5,665.5 277.5,554.5 277.5,443.5C 203.5,443.5 129.5,443.5 55.5,443.5C 55.5,554.5 55.5,665.5 55.5,776.5C 36.8333,776.5 18.1667,776.5 -0.5,776.5C -0.5,628.5 -0.5,480.5 -0.5,332.5 Z"/></g>
<g><path style="opacity:1" fill="#e2826b" d="M 332.5,332.5 C 369.5,332.5 406.5,332.5 443.5,332.5C 462.167,332.5 480.833,332.5 499.5,332.5C 536.5,332.5 573.5,332.5 610.5,332.5C 740.167,332.5 869.833,332.5 999.5,332.5C 999.5,369.5 999.5,406.5 999.5,443.5C 925.5,443.5 851.5,443.5 777.5,443.5C 703.5,443.5 629.5,443.5 555.5,443.5C 481.167,443.5 406.833,443.5 332.5,443.5C 332.5,406.5 332.5,369.5 332.5,332.5 Z"/></g>
<g><path style="opacity:1" fill="#8f543f" d="M 277.5,776.5 C 203.5,776.5 129.5,776.5 55.5,776.5C 55.5,665.5 55.5,554.5 55.5,443.5C 129.5,443.5 203.5,443.5 277.5,443.5C 277.5,554.5 277.5,665.5 277.5,776.5 Z"/></g>
<g><path style="opacity:1" fill="#89472f" d="M 332.5,443.5 C 406.833,443.5 481.167,443.5 555.5,443.5C 555.5,480.5 555.5,517.5 555.5,554.5C 518.167,554.5 480.833,554.5 443.5,554.5C 443.5,591.5 443.5,628.5 443.5,665.5C 406.5,665.5 369.5,665.5 332.5,665.5C 332.5,591.5 332.5,517.5 332.5,443.5 Z"/></g>
<g><path style="opacity:1" fill="#be6f53" d="M 555.5,443.5 C 629.5,443.5 703.5,443.5 777.5,443.5C 777.5,480.5 777.5,517.5 777.5,554.5C 795.833,554.5 814.167,554.5 832.5,554.5C 832.5,591.5 832.5,628.5 832.5,665.5C 851.167,665.5 869.833,665.5 888.5,665.5C 888.5,702.5 888.5,739.5 888.5,776.5C 869.833,776.5 851.167,776.5 832.5,776.5C 832.5,795.167 832.5,813.833 832.5,832.5C 777.167,832.5 721.833,832.5 666.5,832.5C 666.5,739.833 666.5,647.167 666.5,554.5C 629.5,554.5 592.5,554.5 555.5,554.5C 555.5,517.5 555.5,480.5 555.5,443.5 Z"/></g>
<g><path style="opacity:1" fill="#89472f" d="M 777.5,443.5 C 851.5,443.5 925.5,443.5 999.5,443.5C 999.5,517.5 999.5,591.5 999.5,665.5C 962.5,665.5 925.5,665.5 888.5,665.5C 888.5,628.5 888.5,591.5 888.5,554.5C 869.833,554.5 851.167,554.5 832.5,554.5C 814.167,554.5 795.833,554.5 777.5,554.5C 777.5,517.5 777.5,480.5 777.5,443.5 Z"/></g>
<g><path style="opacity:1" fill="#fed173" d="M 555.5,554.5 C 555.5,591.5 555.5,628.5 555.5,665.5C 518.167,665.5 480.833,665.5 443.5,665.5C 443.5,628.5 443.5,591.5 443.5,554.5C 480.833,554.5 518.167,554.5 555.5,554.5 Z"/></g>
<g><path style="opacity:1" fill="#8f543f" d="M 555.5,554.5 C 592.5,554.5 629.5,554.5 666.5,554.5C 666.5,647.167 666.5,739.833 666.5,832.5C 629.5,832.5 592.5,832.5 555.5,832.5C 555.5,813.833 555.5,795.167 555.5,776.5C 555.5,739.5 555.5,702.5 555.5,665.5C 555.5,628.5 555.5,591.5 555.5,554.5 Z"/></g>
<g><path style="opacity:1" fill="#fed173" d="M 832.5,554.5 C 851.167,554.5 869.833,554.5 888.5,554.5C 888.5,591.5 888.5,628.5 888.5,665.5C 869.833,665.5 851.167,665.5 832.5,665.5C 832.5,628.5 832.5,591.5 832.5,554.5 Z"/></g>
<g><path style="opacity:1" fill="#e2826b" d="M 332.5,665.5 C 369.5,665.5 406.5,665.5 443.5,665.5C 443.5,702.5 443.5,739.5 443.5,776.5C 406.5,776.5 369.5,776.5 332.5,776.5C 332.5,739.5 332.5,702.5 332.5,665.5 Z"/></g>
<g><path style="opacity:1" fill="#be6f53" d="M 443.5,665.5 C 480.833,665.5 518.167,665.5 555.5,665.5C 555.5,702.5 555.5,739.5 555.5,776.5C 518.167,776.5 480.833,776.5 443.5,776.5C 443.5,739.5 443.5,702.5 443.5,665.5 Z"/></g>
<g><path style="opacity:1" fill="#e2826b" d="M 888.5,665.5 C 925.5,665.5 962.5,665.5 999.5,665.5C 999.5,702.5 999.5,739.5 999.5,776.5C 962.5,776.5 925.5,776.5 888.5,776.5C 888.5,739.5 888.5,702.5 888.5,665.5 Z"/></g>
</svg>
