<svg viewBox="0 0 900 750" xmlns="http://www.w3.org/2000/svg"><rect x="400" y="150" width="150" height="200" fill="#696969" /><rect x="450" y="250" width="100" height="100" fill="#7e7e7e" /><rect x="300" y="0" width="150" height="200" fill="#696969" /><rect x="400" y="0" width="200" height="200" fill="#7e7e7e" /><rect x="300" y="0" width="150" height="100" fill="#707070" /><rect x="400" y="0" width="100" height="100" fill="#959595" /><rect x="0" y="300" width="350" height="400" fill="#707070" /><rect x="50" y="400" width="200" height="300" fill="#5f5f5f" /><rect x="300" y="300" width="600" height="400" fill="#959595" /><rect x="400" y="400" width="400" height="300" fill="#7e7e7e" /><rect x="300" y="400" width="200" height="200" fill="#535353" /><rect x="400" y="500" width="150" height="100" fill="#d4d4d4" /><rect x="700" y="400" width="200" height="200" fill="#535353" /><rect x="700" y="500" width="100" height="100" fill="#d4d4d4" /><rect x="500" y="500" width="150" height="250" fill="#5f5f5f" /><rect x="600" y="500" width="150" height="250" fill="#7e7e7e" /></svg>