<?xml version="1.0" encoding="UTF-8"?>
<!DOCTYPE svg PUBLIC "-//W3C//DTD SVG 1.1//EN" "http://www.w3.org/Graphics/SVG/1.1/DTD/svg11.dtd">
<svg xmlns="http://www.w3.org/2000/svg" version="1.1" width="1000px" height="954px" style="shape-rendering:geometricPrecision; text-rendering:geometricPrecision; image-rendering:optimizeQuality; fill-rule:evenodd; clip-rule:evenodd" xmlns:xlink="http://www.w3.org/1999/xlink">
<g><path style="opacity:1" fill="#a3962c" d="M 363.5,-0.5 C 408.833,-0.5 454.167,-0.5 499.5,-0.5C 499.5,29.8333 499.5,60.1667 499.5,90.5C 454.167,90.5 408.833,90.5 363.5,90.5C 363.5,75.1667 363.5,59.8333 363.5,44.5C 363.5,29.5 363.5,14.5 363.5,-0.5 Z"/></g>
<g><path style="opacity:1" fill="#d9c83c" d="M 499.5,-0.5 C 529.833,-0.5 560.167,-0.5 590.5,-0.5C 590.5,14.5 590.5,29.5 590.5,44.5C 590.5,59.8333 590.5,75.1667 590.5,90.5C 560.167,90.5 529.833,90.5 499.5,90.5C 499.5,60.1667 499.5,29.8333 499.5,-0.5 Z"/></g>
<g><path style="opacity:1" fill="#892518" d="M -0.5,44.5 C 120.833,44.5 242.167,44.5 363.5,44.5C 363.5,59.8333 363.5,75.1667 363.5,90.5C 317.833,90.5 272.167,90.5 226.5,90.5C 226.5,135.833 226.5,181.167 226.5,226.5C 196.167,226.5 165.833,226.5 135.5,226.5C 135.5,196.167 135.5,165.833 135.5,135.5C 105.167,135.5 74.8333,135.5 44.5,135.5C 44.5,165.833 44.5,196.167 44.5,226.5C 44.5,241.833 44.5,257.167 44.5,272.5C 29.5,272.5 14.5,272.5 -0.5,272.5C -0.5,196.5 -0.5,120.5 -0.5,44.5 Z"/></g>
<g><path style="opacity:1" fill="#892518" d="M 590.5,44.5 C 635.833,44.5 681.167,44.5 726.5,44.5C 726.5,59.8333 726.5,75.1667 726.5,90.5C 681.167,90.5 635.833,90.5 590.5,90.5C 590.5,75.1667 590.5,59.8333 590.5,44.5 Z"/></g>
<g><path style="opacity:1" fill="#56524f" d="M 363.5,90.5 C 408.833,90.5 454.167,90.5 499.5,90.5C 499.5,151.167 499.5,211.833 499.5,272.5C 438.833,272.5 378.167,272.5 317.5,272.5C 317.5,257.167 317.5,241.833 317.5,226.5C 287.167,226.5 256.833,226.5 226.5,226.5C 226.5,181.167 226.5,135.833 226.5,90.5C 272.167,90.5 317.833,90.5 363.5,90.5 Z"/></g>
<g><path style="opacity:1" fill="#726d68" d="M 499.5,90.5 C 529.833,90.5 560.167,90.5 590.5,90.5C 635.833,90.5 681.167,90.5 726.5,90.5C 802.5,90.5 878.5,90.5 954.5,90.5C 954.5,257.167 954.5,423.833 954.5,590.5C 939.167,590.5 923.833,590.5 908.5,590.5C 908.5,575.167 908.5,559.833 908.5,544.5C 908.5,514.167 908.5,483.833 908.5,453.5C 908.5,423.167 908.5,392.833 908.5,362.5C 908.5,332.5 908.5,302.5 908.5,272.5C 847.833,272.5 787.167,272.5 726.5,272.5C 696.167,272.5 665.833,272.5 635.5,272.5C 635.5,302.5 635.5,332.5 635.5,362.5C 635.5,392.833 635.5,423.167 635.5,453.5C 635.5,483.833 635.5,514.167 635.5,544.5C 635.5,559.833 635.5,575.167 635.5,590.5C 590.167,590.5 544.833,590.5 499.5,590.5C 499.5,514.5 499.5,438.5 499.5,362.5C 499.5,332.5 499.5,302.5 499.5,272.5C 499.5,211.833 499.5,151.167 499.5,90.5 Z"/></g>
<g><path style="opacity:1" fill="#7b120c" d="M 135.5,226.5 C 120.5,226.5 105.5,226.5 90.5,226.5C 75.1667,226.5 59.8333,226.5 44.5,226.5C 44.5,196.167 44.5,165.833 44.5,135.5C 74.8333,135.5 105.167,135.5 135.5,135.5C 135.5,165.833 135.5,196.167 135.5,226.5 Z"/></g>
<g><path style="opacity:1" fill="#615e5b" d="M 44.5,226.5 C 59.8333,226.5 75.1667,226.5 90.5,226.5C 90.5,347.833 90.5,469.167 90.5,590.5C 75.1667,590.5 59.8333,590.5 44.5,590.5C 44.5,514.5 44.5,438.5 44.5,362.5C 44.5,332.5 44.5,302.5 44.5,272.5C 44.5,257.167 44.5,241.833 44.5,226.5 Z"/></g>
<g><path style="opacity:1" fill="#817d79" d="M 90.5,226.5 C 105.5,226.5 120.5,226.5 135.5,226.5C 165.833,226.5 196.167,226.5 226.5,226.5C 256.833,226.5 287.167,226.5 317.5,226.5C 317.5,241.833 317.5,257.167 317.5,272.5C 317.5,302.5 317.5,332.5 317.5,362.5C 317.5,438.5 317.5,514.5 317.5,590.5C 272.167,590.5 226.833,590.5 181.5,590.5C 151.167,590.5 120.833,590.5 90.5,590.5C 90.5,469.167 90.5,347.833 90.5,226.5 Z"/></g>
<g><path style="opacity:1" fill="#a3962c" d="M -0.5,272.5 C 14.5,272.5 29.5,272.5 44.5,272.5C 44.5,302.5 44.5,332.5 44.5,362.5C 29.5,362.5 14.5,362.5 -0.5,362.5C -0.5,332.5 -0.5,302.5 -0.5,272.5 Z"/></g>
<g><path style="opacity:1" fill="#453c39" d="M 317.5,272.5 C 378.167,272.5 438.833,272.5 499.5,272.5C 499.5,302.5 499.5,332.5 499.5,362.5C 484.5,362.5 469.5,362.5 454.5,362.5C 439.167,362.5 423.833,362.5 408.5,362.5C 393.5,362.5 378.5,362.5 363.5,362.5C 348.167,362.5 332.833,362.5 317.5,362.5C 317.5,332.5 317.5,302.5 317.5,272.5 Z"/></g>
<g><path style="opacity:1" fill="#615e5b" d="M 726.5,272.5 C 726.5,302.5 726.5,332.5 726.5,362.5C 696.167,362.5 665.833,362.5 635.5,362.5C 635.5,332.5 635.5,302.5 635.5,272.5C 665.833,272.5 696.167,272.5 726.5,272.5 Z"/></g>
<g><path style="opacity:1" fill="#817d79" d="M 726.5,272.5 C 787.167,272.5 847.833,272.5 908.5,272.5C 908.5,302.5 908.5,332.5 908.5,362.5C 847.833,362.5 787.167,362.5 726.5,362.5C 726.5,332.5 726.5,302.5 726.5,272.5 Z"/></g>
<g><path style="opacity:1" fill="#892518" d="M -0.5,362.5 C 14.5,362.5 29.5,362.5 44.5,362.5C 44.5,438.5 44.5,514.5 44.5,590.5C 29.5,590.5 14.5,590.5 -0.5,590.5C -0.5,514.5 -0.5,438.5 -0.5,362.5 Z"/></g>
<g><path style="opacity:1" fill="#56524f" d="M 317.5,362.5 C 332.833,362.5 348.167,362.5 363.5,362.5C 363.5,392.833 363.5,423.167 363.5,453.5C 378.5,453.5 393.5,453.5 408.5,453.5C 423.833,453.5 439.167,453.5 454.5,453.5C 454.5,423.167 454.5,392.833 454.5,362.5C 469.5,362.5 484.5,362.5 499.5,362.5C 499.5,438.5 499.5,514.5 499.5,590.5C 484.5,590.5 469.5,590.5 454.5,590.5C 408.833,590.5 363.167,590.5 317.5,590.5C 317.5,514.5 317.5,438.5 317.5,362.5 Z"/></g>
<g><path style="opacity:1" fill="#bfc0bf" d="M 363.5,362.5 C 378.5,362.5 393.5,362.5 408.5,362.5C 408.5,392.833 408.5,423.167 408.5,453.5C 393.5,453.5 378.5,453.5 363.5,453.5C 363.5,423.167 363.5,392.833 363.5,362.5 Z"/></g>
<g><path style="opacity:1" fill="#000000" d="M 408.5,362.5 C 423.833,362.5 439.167,362.5 454.5,362.5C 454.5,392.833 454.5,423.167 454.5,453.5C 439.167,453.5 423.833,453.5 408.5,453.5C 408.5,423.167 408.5,392.833 408.5,362.5 Z"/></g>
<g><path style="opacity:1" fill="#453c39" d="M 635.5,362.5 C 665.833,362.5 696.167,362.5 726.5,362.5C 726.5,392.833 726.5,423.167 726.5,453.5C 696.167,453.5 665.833,453.5 635.5,453.5C 635.5,423.167 635.5,392.833 635.5,362.5 Z"/></g>
<g><path style="opacity:1" fill="#5b4f4c" d="M 726.5,362.5 C 787.167,362.5 847.833,362.5 908.5,362.5C 908.5,392.833 908.5,423.167 908.5,453.5C 847.833,453.5 787.167,453.5 726.5,453.5C 726.5,423.167 726.5,392.833 726.5,362.5 Z"/></g>
<g><path style="opacity:1" fill="#615e5b" d="M 635.5,453.5 C 665.833,453.5 696.167,453.5 726.5,453.5C 726.5,483.833 726.5,514.167 726.5,544.5C 696.167,544.5 665.833,544.5 635.5,544.5C 635.5,514.167 635.5,483.833 635.5,453.5 Z"/></g>
<g><path style="opacity:1" fill="#817d79" d="M 726.5,453.5 C 787.167,453.5 847.833,453.5 908.5,453.5C 908.5,483.833 908.5,514.167 908.5,544.5C 847.833,544.5 787.167,544.5 726.5,544.5C 726.5,514.167 726.5,483.833 726.5,453.5 Z"/></g>
<g><path style="opacity:1" fill="#453c39" d="M 635.5,544.5 C 665.833,544.5 696.167,544.5 726.5,544.5C 726.5,574.833 726.5,605.167 726.5,635.5C 696.167,635.5 665.833,635.5 635.5,635.5C 635.5,620.5 635.5,605.5 635.5,590.5C 635.5,575.167 635.5,559.833 635.5,544.5 Z"/></g>
<g><path style="opacity:1" fill="#5b4f4c" d="M 726.5,544.5 C 787.167,544.5 847.833,544.5 908.5,544.5C 908.5,559.833 908.5,575.167 908.5,590.5C 908.5,605.5 908.5,620.5 908.5,635.5C 847.833,635.5 787.167,635.5 726.5,635.5C 726.5,605.167 726.5,574.833 726.5,544.5 Z"/></g>
<g><path style="opacity:1" fill="#892518" d="M 181.5,590.5 C 226.833,590.5 272.167,590.5 317.5,590.5C 363.167,590.5 408.833,590.5 454.5,590.5C 454.5,681.167 454.5,771.833 454.5,862.5C 439.167,862.5 423.833,862.5 408.5,862.5C 408.5,801.833 408.5,741.167 408.5,680.5C 347.833,680.5 287.167,680.5 226.5,680.5C 226.5,741.167 226.5,801.833 226.5,862.5C 211.5,862.5 196.5,862.5 181.5,862.5C 181.5,771.833 181.5,681.167 181.5,590.5 Z"/></g>
<g><path style="opacity:1" fill="#b53020" d="M 454.5,590.5 C 469.5,590.5 484.5,590.5 499.5,590.5C 544.833,590.5 590.167,590.5 635.5,590.5C 635.5,605.5 635.5,620.5 635.5,635.5C 635.5,650.5 635.5,665.5 635.5,680.5C 605.167,680.5 574.833,680.5 544.5,680.5C 544.5,741.167 544.5,801.833 544.5,862.5C 514.5,862.5 484.5,862.5 454.5,862.5C 454.5,771.833 454.5,681.167 454.5,590.5 Z"/></g>
<g><path style="opacity:1" fill="#b53020" d="M 908.5,590.5 C 923.833,590.5 939.167,590.5 954.5,590.5C 969.5,590.5 984.5,590.5 999.5,590.5C 999.5,681.167 999.5,771.833 999.5,862.5C 969.167,862.5 938.833,862.5 908.5,862.5C 908.5,817.167 908.5,771.833 908.5,726.5C 908.5,696.167 908.5,665.833 908.5,635.5C 908.5,620.5 908.5,605.5 908.5,590.5 Z"/></g>
<g><path style="opacity:1" fill="#615e5b" d="M 635.5,635.5 C 665.833,635.5 696.167,635.5 726.5,635.5C 726.5,665.833 726.5,696.167 726.5,726.5C 696.167,726.5 665.833,726.5 635.5,726.5C 635.5,711.167 635.5,695.833 635.5,680.5C 635.5,665.5 635.5,650.5 635.5,635.5 Z"/></g>
<g><path style="opacity:1" fill="#817d79" d="M 726.5,635.5 C 787.167,635.5 847.833,635.5 908.5,635.5C 908.5,665.833 908.5,696.167 908.5,726.5C 847.833,726.5 787.167,726.5 726.5,726.5C 726.5,696.167 726.5,665.833 726.5,635.5 Z"/></g>
<g><path style="opacity:1" fill="#7b120c" d="M 408.5,862.5 C 347.833,862.5 287.167,862.5 226.5,862.5C 226.5,801.833 226.5,741.167 226.5,680.5C 287.167,680.5 347.833,680.5 408.5,680.5C 408.5,741.167 408.5,801.833 408.5,862.5 Z"/></g>
<g><path style="opacity:1" fill="#a31710" d="M 635.5,680.5 C 635.5,695.833 635.5,711.167 635.5,726.5C 665.833,726.5 696.167,726.5 726.5,726.5C 787.167,726.5 847.833,726.5 908.5,726.5C 908.5,771.833 908.5,817.167 908.5,862.5C 787.167,862.5 665.833,862.5 544.5,862.5C 544.5,801.833 544.5,741.167 544.5,680.5C 574.833,680.5 605.167,680.5 635.5,680.5 Z"/></g>
<g><path style="opacity:1" fill="#390300" d="M 181.5,862.5 C 196.5,862.5 211.5,862.5 226.5,862.5C 287.167,862.5 347.833,862.5 408.5,862.5C 423.833,862.5 439.167,862.5 454.5,862.5C 454.5,892.833 454.5,923.167 454.5,953.5C 363.5,953.5 272.5,953.5 181.5,953.5C 181.5,923.167 181.5,892.833 181.5,862.5 Z"/></g>
<g><path style="opacity:1" fill="#4b0300" d="M 454.5,862.5 C 484.5,862.5 514.5,862.5 544.5,862.5C 665.833,862.5 787.167,862.5 908.5,862.5C 938.833,862.5 969.167,862.5 999.5,862.5C 999.5,892.833 999.5,923.167 999.5,953.5C 817.833,953.5 636.167,953.5 454.5,953.5C 454.5,923.167 454.5,892.833 454.5,862.5 Z"/></g>
</svg>
