<?xml version="1.0" encoding="UTF-8"?>
<!DOCTYPE svg PUBLIC "-//W3C//DTD SVG 1.1//EN" "http://www.w3.org/Graphics/SVG/1.1/DTD/svg11.dtd">
<svg xmlns="http://www.w3.org/2000/svg" version="1.1" width="1000px" height="700px" style="shape-rendering:geometricPrecision; text-rendering:geometricPrecision; image-rendering:optimizeQuality; fill-rule:evenodd; clip-rule:evenodd" xmlns:xlink="http://www.w3.org/1999/xlink">
<g><path style="opacity:1" fill="#56524f" d="M 199.5,-0.5 C 299.5,-0.5 399.5,-0.5 499.5,-0.5C 499.5,66.1667 499.5,132.833 499.5,199.5C 432.833,199.5 366.167,199.5 299.5,199.5C 299.5,182.833 299.5,166.167 299.5,149.5C 266.167,149.5 232.833,149.5 199.5,149.5C 199.5,99.5 199.5,49.5 199.5,-0.5 Z"/></g>
<g><path style="opacity:1" fill="#726d68" d="M 499.5,-0.5 C 666.167,-0.5 832.833,-0.5 999.5,-0.5C 999.5,199.5 999.5,399.5 999.5,599.5C 982.833,599.5 966.167,599.5 949.5,599.5C 949.5,566.167 949.5,532.833 949.5,499.5C 949.5,466.167 949.5,432.833 949.5,399.5C 949.5,366.167 949.5,332.833 949.5,299.5C 949.5,266.167 949.5,232.833 949.5,199.5C 882.833,199.5 816.167,199.5 749.5,199.5C 716.167,199.5 682.833,199.5 649.5,199.5C 649.5,232.833 649.5,266.167 649.5,299.5C 649.5,332.833 649.5,366.167 649.5,399.5C 649.5,432.833 649.5,466.167 649.5,499.5C 649.5,532.833 649.5,566.167 649.5,599.5C 599.5,599.5 549.5,599.5 499.5,599.5C 499.5,499.5 499.5,399.5 499.5,299.5C 499.5,266.167 499.5,232.833 499.5,199.5C 499.5,132.833 499.5,66.1667 499.5,-0.5 Z"/></g>
<g><path style="opacity:1" fill="#615e5b" d="M -0.5,149.5 C 16.1667,149.5 32.8333,149.5 49.5,149.5C 49.5,282.833 49.5,416.167 49.5,549.5C 32.8333,549.5 16.1667,549.5 -0.5,549.5C -0.5,416.167 -0.5,282.833 -0.5,149.5 Z"/></g>
<g><path style="opacity:1" fill="#817d79" d="M 49.5,149.5 C 99.5,149.5 149.5,149.5 199.5,149.5C 232.833,149.5 266.167,149.5 299.5,149.5C 299.5,166.167 299.5,182.833 299.5,199.5C 299.5,232.833 299.5,266.167 299.5,299.5C 299.5,382.833 299.5,466.167 299.5,549.5C 266.167,549.5 232.833,549.5 199.5,549.5C 149.5,549.5 99.5,549.5 49.5,549.5C 49.5,416.167 49.5,282.833 49.5,149.5 Z"/></g>
<g><path style="opacity:1" fill="#453c39" d="M 299.5,199.5 C 366.167,199.5 432.833,199.5 499.5,199.5C 499.5,232.833 499.5,266.167 499.5,299.5C 482.833,299.5 466.167,299.5 449.5,299.5C 432.833,299.5 416.167,299.5 399.5,299.5C 382.833,299.5 366.167,299.5 349.5,299.5C 332.833,299.5 316.167,299.5 299.5,299.5C 299.5,266.167 299.5,232.833 299.5,199.5 Z"/></g>
<g><path style="opacity:1" fill="#615e5b" d="M 749.5,199.5 C 749.5,232.833 749.5,266.167 749.5,299.5C 716.167,299.5 682.833,299.5 649.5,299.5C 649.5,266.167 649.5,232.833 649.5,199.5C 682.833,199.5 716.167,199.5 749.5,199.5 Z"/></g>
<g><path style="opacity:1" fill="#817d79" d="M 749.5,199.5 C 816.167,199.5 882.833,199.5 949.5,199.5C 949.5,232.833 949.5,266.167 949.5,299.5C 882.833,299.5 816.167,299.5 749.5,299.5C 749.5,266.167 749.5,232.833 749.5,199.5 Z"/></g>
<g><path style="opacity:1" fill="#56524f" d="M 299.5,299.5 C 316.167,299.5 332.833,299.5 349.5,299.5C 349.5,332.833 349.5,366.167 349.5,399.5C 366.167,399.5 382.833,399.5 399.5,399.5C 416.167,399.5 432.833,399.5 449.5,399.5C 449.5,366.167 449.5,332.833 449.5,299.5C 466.167,299.5 482.833,299.5 499.5,299.5C 499.5,399.5 499.5,499.5 499.5,599.5C 399.5,599.5 299.5,599.5 199.5,599.5C 199.5,582.833 199.5,566.167 199.5,549.5C 232.833,549.5 266.167,549.5 299.5,549.5C 299.5,466.167 299.5,382.833 299.5,299.5 Z"/></g>
<g><path style="opacity:1" fill="#bfc0bf" d="M 349.5,299.5 C 366.167,299.5 382.833,299.5 399.5,299.5C 399.5,332.833 399.5,366.167 399.5,399.5C 382.833,399.5 366.167,399.5 349.5,399.5C 349.5,366.167 349.5,332.833 349.5,299.5 Z"/></g>
<g><path style="opacity:1" fill="#000000" d="M 399.5,299.5 C 416.167,299.5 432.833,299.5 449.5,299.5C 449.5,332.833 449.5,366.167 449.5,399.5C 432.833,399.5 416.167,399.5 399.5,399.5C 399.5,366.167 399.5,332.833 399.5,299.5 Z"/></g>
<g><path style="opacity:1" fill="#453c39" d="M 649.5,299.5 C 682.833,299.5 716.167,299.5 749.5,299.5C 749.5,332.833 749.5,366.167 749.5,399.5C 716.167,399.5 682.833,399.5 649.5,399.5C 649.5,366.167 649.5,332.833 649.5,299.5 Z"/></g>
<g><path style="opacity:1" fill="#5b4f4c" d="M 749.5,299.5 C 816.167,299.5 882.833,299.5 949.5,299.5C 949.5,332.833 949.5,366.167 949.5,399.5C 882.833,399.5 816.167,399.5 749.5,399.5C 749.5,366.167 749.5,332.833 749.5,299.5 Z"/></g>
<g><path style="opacity:1" fill="#615e5b" d="M 649.5,399.5 C 682.833,399.5 716.167,399.5 749.5,399.5C 749.5,432.833 749.5,466.167 749.5,499.5C 716.167,499.5 682.833,499.5 649.5,499.5C 649.5,466.167 649.5,432.833 649.5,399.5 Z"/></g>
<g><path style="opacity:1" fill="#817d79" d="M 749.5,399.5 C 816.167,399.5 882.833,399.5 949.5,399.5C 949.5,432.833 949.5,466.167 949.5,499.5C 882.833,499.5 816.167,499.5 749.5,499.5C 749.5,466.167 749.5,432.833 749.5,399.5 Z"/></g>
<g><path style="opacity:1" fill="#453c39" d="M 649.5,499.5 C 682.833,499.5 716.167,499.5 749.5,499.5C 749.5,532.833 749.5,566.167 749.5,599.5C 716.167,599.5 682.833,599.5 649.5,599.5C 649.5,566.167 649.5,532.833 649.5,499.5 Z"/></g>
<g><path style="opacity:1" fill="#5b4f4c" d="M 749.5,499.5 C 816.167,499.5 882.833,499.5 949.5,499.5C 949.5,532.833 949.5,566.167 949.5,599.5C 882.833,599.5 816.167,599.5 749.5,599.5C 749.5,566.167 749.5,532.833 749.5,499.5 Z"/></g>
<g><path style="opacity:1" fill="#615e5b" d="M 649.5,599.5 C 682.833,599.5 716.167,599.5 749.5,599.5C 749.5,632.833 749.5,666.167 749.5,699.5C 716.167,699.5 682.833,699.5 649.5,699.5C 649.5,666.167 649.5,632.833 649.5,599.5 Z"/></g>
<g><path style="opacity:1" fill="#817d79" d="M 749.5,599.5 C 816.167,599.5 882.833,599.5 949.5,599.5C 949.5,632.833 949.5,666.167 949.5,699.5C 882.833,699.5 816.167,699.5 749.5,699.5C 749.5,666.167 749.5,632.833 749.5,599.5 Z"/></g>
</svg>
