<svg viewBox="0 0 1100 1050" xmlns="http://www.w3.org/2000/svg"><rect x="200" y="50" width="600" height="650" fill="#1d1a14" /><rect x="300" y="150" width="400" height="400" fill="#693f05" /><rect x="0" y="50" width="250" height="600" fill="#1d1a14" /><rect x="50" y="150" width="100" height="400" fill="#865107" /><rect x="400" y="0" width="200" height="100" fill="#767676" /><rect x="550" y="0" width="100" height="100" fill="#a5a5a5" /><rect x="250" y="100" width="350" height="600" fill="#575250" /><rect x="400" y="350" width="100" height="150" fill="#c0c0c0" /><rect x="450" y="350" width="50" height="150" fill="#000000" /><rect x="300" y="300" width="300" height="100" fill="#463c3a" /><rect x="550" y="100" width="500" height="600" fill="#736d69" /><rect x="200" y="650" width="350" height="400" fill="#1d1a14" /><rect x="250" y="750" width="200" height="200" fill="#865107" /><rect x="500" y="650" width="600" height="400" fill="#453c2f" /><rect x="600" y="750" width="400" height="200" fill="#a76e1f" /><rect x="700" y="300" width="150" height="500" fill="#625e5c" /><rect x="800" y="300" width="200" height="500" fill="#827d7a" /><rect x="700" y="600" width="150" height="100" fill="#463c3a" /><rect x="700" y="400" width="150" height="100" fill="#463c3a" /><rect x="800" y="600" width="200" height="100" fill="#5c4f4d" /><rect x="800" y="400" width="200" height="100" fill="#5c4f4d" /><rect x="50" y="250" width="100" height="400" fill="#625e5c" /><rect x="100" y="250" width="250" height="400" fill="#827d7a" /></svg>