<?xml version="1.0" encoding="UTF-8"?>
<!DOCTYPE svg PUBLIC "-//W3C//DTD SVG 1.1//EN" "http://www.w3.org/Graphics/SVG/1.1/DTD/svg11.dtd">
<svg xmlns="http://www.w3.org/2000/svg" version="1.1" width="1000px" height="923px" style="shape-rendering:geometricPrecision; text-rendering:geometricPrecision; image-rendering:optimizeQuality; fill-rule:evenodd; clip-rule:evenodd" xmlns:xlink="http://www.w3.org/1999/xlink">
<g><path style="opacity:1" fill="#ad2655" d="M 307.5,-0.5 C 333.167,-0.5 358.833,-0.5 384.5,-0.5C 384.5,50.8333 384.5,102.167 384.5,153.5C 358.833,153.5 333.167,153.5 307.5,153.5C 307.5,102.167 307.5,50.8333 307.5,-0.5 Z"/></g>
<g><path style="opacity:1" fill="#e532ac" d="M 384.5,-0.5 C 486.833,-0.5 589.167,-0.5 691.5,-0.5C 691.5,50.8333 691.5,102.167 691.5,153.5C 794.167,153.5 896.833,153.5 999.5,153.5C 999.5,204.833 999.5,256.167 999.5,307.5C 948.167,307.5 896.833,307.5 845.5,307.5C 845.5,409.833 845.5,512.167 845.5,614.5C 896.833,614.5 948.167,614.5 999.5,614.5C 999.5,665.833 999.5,717.167 999.5,768.5C 896.833,768.5 794.167,768.5 691.5,768.5C 691.5,819.833 691.5,871.167 691.5,922.5C 589.167,922.5 486.833,922.5 384.5,922.5C 384.5,871.167 384.5,819.833 384.5,768.5C 358.833,768.5 333.167,768.5 307.5,768.5C 230.5,768.5 153.5,768.5 76.5,768.5C 76.5,717.167 76.5,665.833 76.5,614.5C 102.167,614.5 127.833,614.5 153.5,614.5C 179.167,614.5 204.833,614.5 230.5,614.5C 230.5,512.167 230.5,409.833 230.5,307.5C 204.833,307.5 179.167,307.5 153.5,307.5C 127.833,307.5 102.167,307.5 76.5,307.5C 76.5,256.167 76.5,204.833 76.5,153.5C 153.5,153.5 230.5,153.5 307.5,153.5C 333.167,153.5 358.833,153.5 384.5,153.5C 384.5,102.167 384.5,50.8333 384.5,-0.5 Z M 614.5,307.5 C 614.5,409.833 614.5,512.167 614.5,614.5C 537.833,614.5 461.167,614.5 384.5,614.5C 384.5,512.167 384.5,409.833 384.5,307.5C 461.167,307.5 537.833,307.5 614.5,307.5 Z"/></g>
<g><path style="opacity:1" fill="#ad2655" d="M -0.5,153.5 C 25.1667,153.5 50.8333,153.5 76.5,153.5C 76.5,204.833 76.5,256.167 76.5,307.5C 50.8333,307.5 25.1667,307.5 -0.5,307.5C -0.5,256.167 -0.5,204.833 -0.5,153.5 Z"/></g>
<g><path style="opacity:1" fill="#ad2655" d="M 153.5,307.5 C 179.167,307.5 204.833,307.5 230.5,307.5C 230.5,409.833 230.5,512.167 230.5,614.5C 204.833,614.5 179.167,614.5 153.5,614.5C 153.5,512.167 153.5,409.833 153.5,307.5 Z"/></g>
<g><path style="opacity:1" fill="#ad2655" d="M 614.5,307.5 C 640.167,307.5 665.833,307.5 691.5,307.5C 691.5,409.833 691.5,512.167 691.5,614.5C 665.833,614.5 640.167,614.5 614.5,614.5C 614.5,512.167 614.5,409.833 614.5,307.5 Z"/></g>
<g><path style="opacity:1" fill="#ad2655" d="M -0.5,614.5 C 25.1667,614.5 50.8333,614.5 76.5,614.5C 76.5,665.833 76.5,717.167 76.5,768.5C 50.8333,768.5 25.1667,768.5 -0.5,768.5C -0.5,717.167 -0.5,665.833 -0.5,614.5 Z"/></g>
<g><path style="opacity:1" fill="#ad2655" d="M 307.5,768.5 C 333.167,768.5 358.833,768.5 384.5,768.5C 384.5,819.833 384.5,871.167 384.5,922.5C 358.833,922.5 333.167,922.5 307.5,922.5C 307.5,871.167 307.5,819.833 307.5,768.5 Z"/></g>
</svg>
