<?xml version="1.0" encoding="UTF-8"?>
<!DOCTYPE svg PUBLIC "-//W3C//DTD SVG 1.1//EN" "http://www.w3.org/Graphics/SVG/1.1/DTD/svg11.dtd">
<svg xmlns="http://www.w3.org/2000/svg" version="1.1" width="1000px" height="769px" style="shape-rendering:geometricPrecision; text-rendering:geometricPrecision; image-rendering:optimizeQuality; fill-rule:evenodd; clip-rule:evenodd" xmlns:xlink="http://www.w3.org/1999/xlink">
<g><path style="opacity:1" fill="#000000" d="M 307.5,-0.5 C 435.5,-0.5 563.5,-0.5 691.5,-0.5C 691.5,50.8333 691.5,102.167 691.5,153.5C 794.167,153.5 896.833,153.5 999.5,153.5C 999.5,255.833 999.5,358.167 999.5,460.5C 948.167,460.5 896.833,460.5 845.5,460.5C 845.5,563.167 845.5,665.833 845.5,768.5C 614.833,768.5 384.167,768.5 153.5,768.5C 153.5,665.833 153.5,563.167 153.5,460.5C 102.167,460.5 50.8333,460.5 -0.5,460.5C -0.5,358.167 -0.5,255.833 -0.5,153.5C 102.167,153.5 204.833,153.5 307.5,153.5C 307.5,102.167 307.5,50.8333 307.5,-0.5 Z"/></g>
<g><path style="opacity:1" fill="#4d6d90" d="M 461.5,76.5 C 461.5,127.833 461.5,179.167 461.5,230.5C 435.833,230.5 410.167,230.5 384.5,230.5C 384.5,179.167 384.5,127.833 384.5,76.5C 410.167,76.5 435.833,76.5 461.5,76.5 Z"/></g>
<g><path style="opacity:1" fill="#669fbe" d="M 461.5,76.5 C 512.5,76.5 563.5,76.5 614.5,76.5C 614.5,127.833 614.5,179.167 614.5,230.5C 717.167,230.5 819.833,230.5 922.5,230.5C 922.5,281.5 922.5,332.5 922.5,383.5C 871.167,383.5 819.833,383.5 768.5,383.5C 768.5,486.167 768.5,588.833 768.5,691.5C 717.167,691.5 665.833,691.5 614.5,691.5C 614.5,640.167 614.5,588.833 614.5,537.5C 588.833,537.5 563.167,537.5 537.5,537.5C 512.167,537.5 486.833,537.5 461.5,537.5C 461.5,588.833 461.5,640.167 461.5,691.5C 410.167,691.5 358.833,691.5 307.5,691.5C 307.5,588.833 307.5,486.167 307.5,383.5C 281.833,383.5 256.167,383.5 230.5,383.5C 204.833,383.5 179.167,383.5 153.5,383.5C 153.5,332.5 153.5,281.5 153.5,230.5C 230.5,230.5 307.5,230.5 384.5,230.5C 410.167,230.5 435.833,230.5 461.5,230.5C 461.5,179.167 461.5,127.833 461.5,76.5 Z"/></g>
<g><path style="opacity:1" fill="#4d6d90" d="M 153.5,230.5 C 153.5,281.5 153.5,332.5 153.5,383.5C 127.833,383.5 102.167,383.5 76.5,383.5C 76.5,332.5 76.5,281.5 76.5,230.5C 102.167,230.5 127.833,230.5 153.5,230.5 Z"/></g>
<g><path style="opacity:1" fill="#4d6d90" d="M 230.5,383.5 C 256.167,383.5 281.833,383.5 307.5,383.5C 307.5,486.167 307.5,588.833 307.5,691.5C 281.833,691.5 256.167,691.5 230.5,691.5C 230.5,588.833 230.5,486.167 230.5,383.5 Z"/></g>
<g><path style="opacity:1" fill="#4d6d90" d="M 537.5,537.5 C 563.167,537.5 588.833,537.5 614.5,537.5C 614.5,588.833 614.5,640.167 614.5,691.5C 588.833,691.5 563.167,691.5 537.5,691.5C 537.5,640.167 537.5,588.833 537.5,537.5 Z"/></g>
</svg>
