<?xml version="1.0" encoding="UTF-8"?>
<!DOCTYPE svg PUBLIC "-//W3C//DTD SVG 1.1//EN" "http://www.w3.org/Graphics/SVG/1.1/DTD/svg11.dtd">
<svg xmlns="http://www.w3.org/2000/svg" version="1.1" width="1000px" height="714px" style="shape-rendering:geometricPrecision; text-rendering:geometricPrecision; image-rendering:optimizeQuality; fill-rule:evenodd; clip-rule:evenodd" xmlns:xlink="http://www.w3.org/1999/xlink">
<g><path style="opacity:1" fill="#4a4067" d="M -0.5,-0.5 C 47.1667,-0.5 94.8333,-0.5 142.5,-0.5C 142.5,47.1667 142.5,94.8333 142.5,142.5C 94.8333,142.5 47.1667,142.5 -0.5,142.5C -0.5,94.8333 -0.5,47.1667 -0.5,-0.5 Z"/></g>
<g><path style="opacity:1" fill="#62558a" d="M 142.5,-0.5 C 190.167,-0.5 237.833,-0.5 285.5,-0.5C 285.5,47.1667 285.5,94.8333 285.5,142.5C 237.833,142.5 190.167,142.5 142.5,142.5C 142.5,94.8333 142.5,47.1667 142.5,-0.5 Z"/></g>
<g><path style="opacity:1" fill="#4a4067" d="M 142.5,142.5 C 190.167,142.5 237.833,142.5 285.5,142.5C 285.5,190.167 285.5,237.833 285.5,285.5C 237.833,285.5 190.167,285.5 142.5,285.5C 142.5,237.833 142.5,190.167 142.5,142.5 Z"/></g>
<g><path style="opacity:1" fill="#62558a" d="M 285.5,142.5 C 333.167,142.5 380.833,142.5 428.5,142.5C 428.5,190.167 428.5,237.833 428.5,285.5C 380.833,285.5 333.167,285.5 285.5,285.5C 285.5,237.833 285.5,190.167 285.5,142.5 Z"/></g>
<g><path style="opacity:1" fill="#6e406b" d="M 570.5,142.5 C 570.5,190.167 570.5,237.833 570.5,285.5C 546.833,285.5 523.167,285.5 499.5,285.5C 499.5,237.833 499.5,190.167 499.5,142.5C 523.167,142.5 546.833,142.5 570.5,142.5 Z"/></g>
<g><path style="opacity:1" fill="#92548e" d="M 570.5,142.5 C 713.5,142.5 856.5,142.5 999.5,142.5C 999.5,190.167 999.5,237.833 999.5,285.5C 856.5,285.5 713.5,285.5 570.5,285.5C 570.5,237.833 570.5,190.167 570.5,142.5 Z"/></g>
<g><path style="opacity:1" fill="#4a4067" d="M 285.5,285.5 C 333.167,285.5 380.833,285.5 428.5,285.5C 428.5,332.833 428.5,380.167 428.5,427.5C 380.833,427.5 333.167,427.5 285.5,427.5C 285.5,380.167 285.5,332.833 285.5,285.5 Z"/></g>
<g><path style="opacity:1" fill="#62558a" d="M 428.5,285.5 C 452.167,285.5 475.833,285.5 499.5,285.5C 523.167,285.5 546.833,285.5 570.5,285.5C 570.5,332.833 570.5,380.167 570.5,427.5C 546.833,427.5 523.167,427.5 499.5,427.5C 475.833,427.5 452.167,427.5 428.5,427.5C 428.5,380.167 428.5,332.833 428.5,285.5 Z"/></g>
<g><path style="opacity:1" fill="#4a4067" d="M 285.5,427.5 C 285.5,475.167 285.5,522.833 285.5,570.5C 237.833,570.5 190.167,570.5 142.5,570.5C 142.5,522.833 142.5,475.167 142.5,427.5C 190.167,427.5 237.833,427.5 285.5,427.5 Z"/></g>
<g><path style="opacity:1" fill="#62558a" d="M 285.5,427.5 C 333.167,427.5 380.833,427.5 428.5,427.5C 428.5,475.167 428.5,522.833 428.5,570.5C 380.833,570.5 333.167,570.5 285.5,570.5C 285.5,522.833 285.5,475.167 285.5,427.5 Z"/></g>
<g><path style="opacity:1" fill="#4a4067" d="M 499.5,427.5 C 523.167,427.5 546.833,427.5 570.5,427.5C 570.5,475.167 570.5,522.833 570.5,570.5C 546.833,570.5 523.167,570.5 499.5,570.5C 499.5,522.833 499.5,475.167 499.5,427.5 Z"/></g>
<g><path style="opacity:1" fill="#62558a" d="M 570.5,427.5 C 618.167,427.5 665.833,427.5 713.5,427.5C 713.5,475.167 713.5,522.833 713.5,570.5C 689.833,570.5 666.167,570.5 642.5,570.5C 618.5,570.5 594.5,570.5 570.5,570.5C 570.5,522.833 570.5,475.167 570.5,427.5 Z"/></g>
<g><path style="opacity:1" fill="#6e406b" d="M 856.5,427.5 C 856.5,475.167 856.5,522.833 856.5,570.5C 832.833,570.5 809.167,570.5 785.5,570.5C 785.5,522.833 785.5,475.167 785.5,427.5C 809.167,427.5 832.833,427.5 856.5,427.5 Z"/></g>
<g><path style="opacity:1" fill="#92548e" d="M 856.5,427.5 C 904.167,427.5 951.833,427.5 999.5,427.5C 999.5,475.167 999.5,522.833 999.5,570.5C 951.833,570.5 904.167,570.5 856.5,570.5C 856.5,522.833 856.5,475.167 856.5,427.5 Z"/></g>
<g><path style="opacity:1" fill="#4a4067" d="M -0.5,570.5 C 47.1667,570.5 94.8333,570.5 142.5,570.5C 142.5,618.167 142.5,665.833 142.5,713.5C 94.8333,713.5 47.1667,713.5 -0.5,713.5C -0.5,665.833 -0.5,618.167 -0.5,570.5 Z"/></g>
<g><path style="opacity:1" fill="#62558a" d="M 142.5,570.5 C 190.167,570.5 237.833,570.5 285.5,570.5C 285.5,618.167 285.5,665.833 285.5,713.5C 237.833,713.5 190.167,713.5 142.5,713.5C 142.5,665.833 142.5,618.167 142.5,570.5 Z"/></g>
<g><path style="opacity:1" fill="#4a4067" d="M 642.5,570.5 C 666.167,570.5 689.833,570.5 713.5,570.5C 713.5,618.167 713.5,665.833 713.5,713.5C 689.833,713.5 666.167,713.5 642.5,713.5C 642.5,665.833 642.5,618.167 642.5,570.5 Z"/></g>
<g><path style="opacity:1" fill="#62558a" d="M 713.5,570.5 C 737.5,570.5 761.5,570.5 785.5,570.5C 809.167,570.5 832.833,570.5 856.5,570.5C 856.5,618.167 856.5,665.833 856.5,713.5C 808.833,713.5 761.167,713.5 713.5,713.5C 713.5,665.833 713.5,618.167 713.5,570.5 Z"/></g>
</svg>
