<svg viewBox="0 0 700 500" xmlns="http://www.w3.org/2000/svg"><rect x="0" y="400" width="150" height="100" fill="#4b4067" /><rect x="100" y="300" width="150" height="100" fill="#4b4067" /><rect x="0" y="0" width="150" height="100" fill="#4b4067" /><rect x="100" y="100" width="150" height="100" fill="#4b4067" /><rect x="200" y="200" width="150" height="100" fill="#4b4067" /><rect x="350" y="300" width="100" height="100" fill="#4b4067" /><rect x="450" y="400" width="100" height="100" fill="#4b4067" /><rect x="100" y="400" width="100" height="100" fill="#63558a" /><rect x="200" y="300" width="100" height="100" fill="#63558a" /><rect x="300" y="200" width="100" height="100" fill="#63558a" /><rect x="200" y="100" width="100" height="100" fill="#63558a" /><rect x="100" y="0" width="100" height="100" fill="#63558a" /><rect x="400" y="300" width="100" height="100" fill="#63558a" /><rect x="500" y="400" width="100" height="100" fill="#63558a" /><rect x="550" y="300" width="100" height="100" fill="#6f406c" /><rect x="600" y="300" width="100" height="100" fill="#93548f" /><rect x="350" y="100" width="100" height="100" fill="#6f406c" /><rect x="400" y="100" width="300" height="100" fill="#93548f" /></svg>