<?xml version="1.0" encoding="UTF-8"?>
<!DOCTYPE svg PUBLIC "-//W3C//DTD SVG 1.1//EN" "http://www.w3.org/Graphics/SVG/1.1/DTD/svg11.dtd">
<svg xmlns="http://www.w3.org/2000/svg" version="1.1" width="1000px" height="909px" style="shape-rendering:geometricPrecision; text-rendering:geometricPrecision; image-rendering:optimizeQuality; fill-rule:evenodd; clip-rule:evenodd" xmlns:xlink="http://www.w3.org/1999/xlink">
<g><path style="opacity:1" fill="#bc8008" d="M -0.5,-0.5 C 29.8333,-0.5 60.1667,-0.5 90.5,-0.5C 90.5,120.833 90.5,242.167 90.5,363.5C 60.1667,363.5 29.8333,363.5 -0.5,363.5C -0.5,242.167 -0.5,120.833 -0.5,-0.5 Z"/></g>
<g><path style="opacity:1" fill="#f9b20a" d="M 90.5,-0.5 C 211.833,-0.5 333.167,-0.5 454.5,-0.5C 454.5,60.1667 454.5,120.833 454.5,181.5C 393.833,181.5 333.167,181.5 272.5,181.5C 272.5,242.167 272.5,302.833 272.5,363.5C 242.167,363.5 211.833,363.5 181.5,363.5C 151.167,363.5 120.833,363.5 90.5,363.5C 90.5,242.167 90.5,120.833 90.5,-0.5 Z"/></g>
<g><path style="opacity:1" fill="#b64312" d="M 544.5,-0.5 C 574.833,-0.5 605.167,-0.5 635.5,-0.5C 635.5,60.1667 635.5,120.833 635.5,181.5C 605.167,181.5 574.833,181.5 544.5,181.5C 544.5,120.833 544.5,60.1667 544.5,-0.5 Z"/></g>
<g><path style="opacity:1" fill="#f15c18" d="M 635.5,-0.5 C 756.833,-0.5 878.167,-0.5 999.5,-0.5C 999.5,120.833 999.5,242.167 999.5,363.5C 938.833,363.5 878.167,363.5 817.5,363.5C 817.5,302.833 817.5,242.167 817.5,181.5C 756.833,181.5 696.167,181.5 635.5,181.5C 635.5,120.833 635.5,60.1667 635.5,-0.5 Z"/></g>
<g><path style="opacity:1" fill="#f58711" d="M 454.5,181.5 C 484.5,181.5 514.5,181.5 544.5,181.5C 574.833,181.5 605.167,181.5 635.5,181.5C 696.167,181.5 756.833,181.5 817.5,181.5C 817.5,242.167 817.5,302.833 817.5,363.5C 817.5,423.833 817.5,484.167 817.5,544.5C 817.5,605.167 817.5,665.833 817.5,726.5C 756.833,726.5 696.167,726.5 635.5,726.5C 605.167,726.5 574.833,726.5 544.5,726.5C 514.5,726.5 484.5,726.5 454.5,726.5C 393.833,726.5 333.167,726.5 272.5,726.5C 272.5,665.833 272.5,605.167 272.5,544.5C 272.5,484.167 272.5,423.833 272.5,363.5C 272.5,302.833 272.5,242.167 272.5,181.5C 333.167,181.5 393.833,181.5 454.5,181.5 Z"/></g>
<g><path style="opacity:1" fill="#b95a0d" d="M 181.5,363.5 C 211.833,363.5 242.167,363.5 272.5,363.5C 272.5,423.833 272.5,484.167 272.5,544.5C 242.167,544.5 211.833,544.5 181.5,544.5C 181.5,484.167 181.5,423.833 181.5,363.5 Z"/></g>
<g><path style="opacity:1" fill="#bc8008" d="M -0.5,544.5 C 29.8333,544.5 60.1667,544.5 90.5,544.5C 90.5,665.833 90.5,787.167 90.5,908.5C 60.1667,908.5 29.8333,908.5 -0.5,908.5C -0.5,787.167 -0.5,665.833 -0.5,544.5 Z"/></g>
<g><path style="opacity:1" fill="#f9b20a" d="M 90.5,544.5 C 120.833,544.5 151.167,544.5 181.5,544.5C 211.833,544.5 242.167,544.5 272.5,544.5C 272.5,605.167 272.5,665.833 272.5,726.5C 333.167,726.5 393.833,726.5 454.5,726.5C 454.5,787.167 454.5,847.833 454.5,908.5C 333.167,908.5 211.833,908.5 90.5,908.5C 90.5,787.167 90.5,665.833 90.5,544.5 Z"/></g>
<g><path style="opacity:1" fill="#f15c18" d="M 817.5,544.5 C 878.167,544.5 938.833,544.5 999.5,544.5C 999.5,665.833 999.5,787.167 999.5,908.5C 878.167,908.5 756.833,908.5 635.5,908.5C 635.5,847.833 635.5,787.167 635.5,726.5C 696.167,726.5 756.833,726.5 817.5,726.5C 817.5,665.833 817.5,605.167 817.5,544.5 Z"/></g>
<g><path style="opacity:1" fill="#b64312" d="M 544.5,726.5 C 574.833,726.5 605.167,726.5 635.5,726.5C 635.5,787.167 635.5,847.833 635.5,908.5C 605.167,908.5 574.833,908.5 544.5,908.5C 544.5,847.833 544.5,787.167 544.5,726.5 Z"/></g>
</svg>
