<?xml version="1.0" encoding="UTF-8"?>
<!DOCTYPE svg PUBLIC "-//W3C//DTD SVG 1.1//EN" "http://www.w3.org/Graphics/SVG/1.1/DTD/svg11.dtd">
<svg xmlns="http://www.w3.org/2000/svg" version="1.1" width="1000px" height="889px" style="shape-rendering:geometricPrecision; text-rendering:geometricPrecision; image-rendering:optimizeQuality; fill-rule:evenodd; clip-rule:evenodd" xmlns:xlink="http://www.w3.org/1999/xlink">
<g><path style="opacity:1" fill="#a9391b" d="M -0.5,-0.5 C 36.8333,-0.5 74.1667,-0.5 111.5,-0.5C 111.5,110.833 111.5,222.167 111.5,333.5C 74.1667,333.5 36.8333,333.5 -0.5,333.5C -0.5,222.167 -0.5,110.833 -0.5,-0.5 Z"/></g>
<g><path style="opacity:1" fill="#e34d25" d="M 111.5,-0.5 C 407.5,-0.5 703.5,-0.5 999.5,-0.5C 999.5,110.833 999.5,222.167 999.5,333.5C 962.833,333.5 926.167,333.5 889.5,333.5C 889.5,481.833 889.5,630.167 889.5,778.5C 815.5,778.5 741.5,778.5 667.5,778.5C 667.5,815.167 667.5,851.833 667.5,888.5C 593.167,888.5 518.833,888.5 444.5,888.5C 444.5,851.833 444.5,815.167 444.5,778.5C 407.5,778.5 370.5,778.5 333.5,778.5C 296.5,778.5 259.5,778.5 222.5,778.5C 222.5,630.167 222.5,481.833 222.5,333.5C 185.5,333.5 148.5,333.5 111.5,333.5C 111.5,222.167 111.5,110.833 111.5,-0.5 Z"/></g>
<g><path style="opacity:1" fill="#fefffe" d="M 333.5,111.5 C 481.833,111.5 630.167,111.5 778.5,111.5C 778.5,148.5 778.5,185.5 778.5,222.5C 667.167,222.5 555.833,222.5 444.5,222.5C 444.5,259.5 444.5,296.5 444.5,333.5C 555.833,333.5 667.167,333.5 778.5,333.5C 778.5,444.833 778.5,556.167 778.5,667.5C 630.167,667.5 481.833,667.5 333.5,667.5C 333.5,630.167 333.5,592.833 333.5,555.5C 444.833,555.5 556.167,555.5 667.5,555.5C 667.5,518.5 667.5,481.5 667.5,444.5C 556.167,444.5 444.833,444.5 333.5,444.5C 333.5,333.5 333.5,222.5 333.5,111.5 Z"/></g>
<g><path style="opacity:1" fill="#a9391b" d="M 111.5,333.5 C 148.5,333.5 185.5,333.5 222.5,333.5C 222.5,481.833 222.5,630.167 222.5,778.5C 185.5,778.5 148.5,778.5 111.5,778.5C 111.5,630.167 111.5,481.833 111.5,333.5 Z"/></g>
<g><path style="opacity:1" fill="#a9391b" d="M 333.5,778.5 C 370.5,778.5 407.5,778.5 444.5,778.5C 444.5,815.167 444.5,851.833 444.5,888.5C 407.5,888.5 370.5,888.5 333.5,888.5C 333.5,851.833 333.5,815.167 333.5,778.5 Z"/></g>
</svg>
