<svg viewBox="0 0 1100 1150" xmlns="http://www.w3.org/2000/svg"><rect x="0" y="150" width="800" height="600" fill="#8a2519" /><rect x="200" y="700" width="600" height="100" fill="#8a2519" /><rect x="50" y="250" width="100" height="400" fill="#7c120d" /><rect x="0" y="400" width="250" height="100" fill="#a4962d" /><rect x="200" y="400" width="600" height="100" fill="#dac83d" /><rect x="450" y="150" width="100" height="600" fill="#dac83d" /><rect x="300" y="250" width="400" height="400" fill="#310604" /><rect x="400" y="100" width="200" height="100" fill="#a4962d" /><rect x="550" y="100" width="100" height="100" fill="#dac83d" /><rect x="250" y="350" width="100" height="450" fill="#462408" /><rect x="250" y="200" width="100" height="200" fill="#55422b" /><rect x="500" y="100" width="100" height="150" fill="#272727" /><rect x="700" y="100" width="100" height="150" fill="#272727" /><rect x="600" y="0" width="100" height="100" fill="#272727" /><rect x="550" y="100" width="100" height="100" fill="#353535" /><rect x="650" y="0" width="100" height="100" fill="#353535" /><rect x="750" y="100" width="100" height="150" fill="#353535" /><rect x="600" y="200" width="500" height="600" fill="#633c15" /><rect x="300" y="350" width="300" height="450" fill="#78440f" /><rect x="300" y="200" width="400" height="200" fill="#93724a" /><rect x="700" y="200" width="300" height="200" fill="#78440f" /><rect x="400" y="300" width="600" height="400" fill="#9e968b" /><rect x="500" y="300" width="400" height="400" fill="#b3ae9f" /><rect x="400" y="400" width="600" height="200" fill="#b3ae9f" /><rect x="500" y="400" width="400" height="200" fill="#c8c5bd" /><rect x="200" y="750" width="350" height="350" fill="#8a2519" /><rect x="500" y="750" width="600" height="350" fill="#b63021" /><rect x="250" y="850" width="200" height="250" fill="#7c120d" /><rect x="600" y="850" width="400" height="250" fill="#a41711" /><rect x="200" y="1050" width="350" height="100" fill="#3a0300" /><rect x="500" y="1050" width="600" height="100" fill="#4c0300" /></svg>