<svg viewBox="0 0 950 800" xmlns="http://www.w3.org/2000/svg"><rect x="0" y="350" width="100" height="450" fill="#462408" /><rect x="0" y="200" width="100" height="200" fill="#55422b" /><rect x="300" y="100" width="100" height="150" fill="#272727" /><rect x="500" y="100" width="100" height="150" fill="#272727" /><rect x="400" y="0" width="100" height="100" fill="#272727" /><rect x="350" y="100" width="100" height="100" fill="#353535" /><rect x="450" y="0" width="100" height="100" fill="#353535" /><rect x="550" y="100" width="100" height="150" fill="#353535" /><rect x="350" y="200" width="600" height="600" fill="#633c15" /><rect x="50" y="350" width="300" height="450" fill="#78440f" /><rect x="50" y="200" width="400" height="200" fill="#93724a" /><rect x="450" y="200" width="400" height="200" fill="#78440f" /><rect x="150" y="300" width="700" height="400" fill="#9e968b" /><rect x="250" y="300" width="500" height="400" fill="#b3ae9f" /><rect x="150" y="400" width="700" height="200" fill="#b3ae9f" /><rect x="250" y="400" width="500" height="200" fill="#c8c5bd" /></svg>