<?xml version="1.0" encoding="UTF-8"?>
<!DOCTYPE svg PUBLIC "-//W3C//DTD SVG 1.1//EN" "http://www.w3.org/Graphics/SVG/1.1/DTD/svg11.dtd">
<svg xmlns="http://www.w3.org/2000/svg" version="1.1" width="1000px" height="954px" style="shape-rendering:geometricPrecision; text-rendering:geometricPrecision; image-rendering:optimizeQuality; fill-rule:evenodd; clip-rule:evenodd" xmlns:xlink="http://www.w3.org/1999/xlink">
<g><path style="opacity:1" fill="#757675" d="M 499.5,0.5 C 499.5,30.8333 499.5,61.1667 499.5,91.5C 454.167,91.5 408.833,91.5 363.5,91.5C 363.5,76.1667 363.5,60.8333 363.5,45.5C 363.5,30.5 363.5,15.5 363.5,0.5C 408.833,0.5 454.167,0.5 499.5,0.5 Z"/></g>
<g><path style="opacity:1" fill="#a4a5a4" d="M 499.5,0.5 C 529.833,0.5 560.167,0.5 590.5,0.5C 590.5,15.5 590.5,30.5 590.5,45.5C 590.5,60.8333 590.5,76.1667 590.5,91.5C 560.167,91.5 529.833,91.5 499.5,91.5C 499.5,61.1667 499.5,30.8333 499.5,0.5 Z"/></g>
<g><path style="opacity:1" fill="#1c1a13" d="M 363.5,45.5 C 363.5,60.8333 363.5,76.1667 363.5,91.5C 408.833,91.5 454.167,91.5 499.5,91.5C 529.833,91.5 560.167,91.5 590.5,91.5C 590.5,76.1667 590.5,60.8333 590.5,45.5C 636.167,45.5 681.833,45.5 727.5,45.5C 727.5,60.8333 727.5,76.1667 727.5,91.5C 712.167,91.5 696.833,91.5 681.5,91.5C 681.5,121.833 681.5,152.167 681.5,182.5C 681.5,212.5 681.5,242.5 681.5,272.5C 681.5,302.833 681.5,333.167 681.5,363.5C 666.5,363.5 651.5,363.5 636.5,363.5C 636.5,287.833 636.5,212.167 636.5,136.5C 515.167,136.5 393.833,136.5 272.5,136.5C 272.5,257.5 272.5,378.5 272.5,499.5C 348.167,499.5 423.833,499.5 499.5,499.5C 499.5,514.833 499.5,530.167 499.5,545.5C 514.833,545.5 530.167,545.5 545.5,545.5C 575.833,545.5 606.167,545.5 636.5,545.5C 666.833,545.5 697.167,545.5 727.5,545.5C 727.5,560.5 727.5,575.5 727.5,590.5C 636.5,590.5 545.5,590.5 454.5,590.5C 454.5,711.5 454.5,832.5 454.5,953.5C 363.5,953.5 272.5,953.5 181.5,953.5C 181.5,832.5 181.5,711.5 181.5,590.5C 121.167,590.5 60.8333,590.5 0.5,590.5C 0.5,408.833 0.5,227.167 0.5,45.5C 121.5,45.5 242.5,45.5 363.5,45.5 Z"/></g>
<g><path style="opacity:1" fill="#41403f" d="M 727.5,91.5 C 742.5,91.5 757.5,91.5 772.5,91.5C 772.5,121.833 772.5,152.167 772.5,182.5C 742.167,182.5 711.833,182.5 681.5,182.5C 681.5,152.167 681.5,121.833 681.5,91.5C 696.833,91.5 712.167,91.5 727.5,91.5 Z"/></g>
<g><path style="opacity:1" fill="#565453" d="M 772.5,91.5 C 833.167,91.5 893.833,91.5 954.5,91.5C 954.5,121.833 954.5,152.167 954.5,182.5C 893.833,182.5 833.167,182.5 772.5,182.5C 772.5,152.167 772.5,121.833 772.5,91.5 Z"/></g>
<g><path style="opacity:1" fill="#855106" d="M 45.5,136.5 C 75.8333,136.5 106.167,136.5 136.5,136.5C 136.5,257.5 136.5,378.5 136.5,499.5C 106.167,499.5 75.8333,499.5 45.5,499.5C 45.5,378.5 45.5,257.5 45.5,136.5 Z"/></g>
<g><path style="opacity:1" fill="#683f04" d="M 636.5,363.5 C 606.167,363.5 575.833,363.5 545.5,363.5C 545.5,333.167 545.5,302.833 545.5,272.5C 515.167,272.5 484.833,272.5 454.5,272.5C 439.5,272.5 424.5,272.5 409.5,272.5C 409.5,302.833 409.5,333.167 409.5,363.5C 409.5,393.833 409.5,424.167 409.5,454.5C 424.5,454.5 439.5,454.5 454.5,454.5C 469.5,454.5 484.5,454.5 499.5,454.5C 499.5,469.5 499.5,484.5 499.5,499.5C 423.833,499.5 348.167,499.5 272.5,499.5C 272.5,378.5 272.5,257.5 272.5,136.5C 393.833,136.5 515.167,136.5 636.5,136.5C 636.5,212.167 636.5,287.833 636.5,363.5 Z"/></g>
<g><path style="opacity:1" fill="#302f2e" d="M 681.5,182.5 C 711.833,182.5 742.167,182.5 772.5,182.5C 772.5,212.5 772.5,242.5 772.5,272.5C 742.167,272.5 711.833,272.5 681.5,272.5C 681.5,242.5 681.5,212.5 681.5,182.5 Z"/></g>
<g><path style="opacity:1" fill="#3f3e3d" d="M 772.5,182.5 C 833.167,182.5 893.833,182.5 954.5,182.5C 954.5,212.5 954.5,242.5 954.5,272.5C 893.833,272.5 833.167,272.5 772.5,272.5C 772.5,242.5 772.5,212.5 772.5,182.5 Z"/></g>
<g><path style="opacity:1" fill="#302f2e" d="M 454.5,272.5 C 454.5,302.833 454.5,333.167 454.5,363.5C 439.5,363.5 424.5,363.5 409.5,363.5C 409.5,333.167 409.5,302.833 409.5,272.5C 424.5,272.5 439.5,272.5 454.5,272.5 Z"/></g>
<g><path style="opacity:1" fill="#3f3e3d" d="M 454.5,272.5 C 484.833,272.5 515.167,272.5 545.5,272.5C 545.5,302.833 545.5,333.167 545.5,363.5C 515.167,363.5 484.833,363.5 454.5,363.5C 454.5,333.167 454.5,302.833 454.5,272.5 Z"/></g>
<g><path style="opacity:1" fill="#41403f" d="M 681.5,272.5 C 711.833,272.5 742.167,272.5 772.5,272.5C 772.5,302.833 772.5,333.167 772.5,363.5C 757.5,363.5 742.5,363.5 727.5,363.5C 712.167,363.5 696.833,363.5 681.5,363.5C 681.5,333.167 681.5,302.833 681.5,272.5 Z"/></g>
<g><path style="opacity:1" fill="#565453" d="M 772.5,272.5 C 833.167,272.5 893.833,272.5 954.5,272.5C 954.5,302.833 954.5,333.167 954.5,363.5C 939.167,363.5 923.833,363.5 908.5,363.5C 863.167,363.5 817.833,363.5 772.5,363.5C 772.5,333.167 772.5,302.833 772.5,272.5 Z"/></g>
<g><path style="opacity:1" fill="#242423" d="M 409.5,363.5 C 424.5,363.5 439.5,363.5 454.5,363.5C 454.5,393.833 454.5,424.167 454.5,454.5C 439.5,454.5 424.5,454.5 409.5,454.5C 409.5,424.167 409.5,393.833 409.5,363.5 Z"/></g>
<g><path style="opacity:1" fill="#302f2e" d="M 454.5,363.5 C 484.833,363.5 515.167,363.5 545.5,363.5C 545.5,393.833 545.5,424.167 545.5,454.5C 530.167,454.5 514.833,454.5 499.5,454.5C 484.5,454.5 469.5,454.5 454.5,454.5C 454.5,424.167 454.5,393.833 454.5,363.5 Z"/></g>
<g><path style="opacity:1" fill="#3f3e3d" d="M 545.5,363.5 C 575.833,363.5 606.167,363.5 636.5,363.5C 636.5,424.167 636.5,484.833 636.5,545.5C 606.167,545.5 575.833,545.5 545.5,545.5C 545.5,515.167 545.5,484.833 545.5,454.5C 545.5,424.167 545.5,393.833 545.5,363.5 Z"/></g>
<g><path style="opacity:1" fill="#302f2e" d="M 636.5,363.5 C 651.5,363.5 666.5,363.5 681.5,363.5C 696.833,363.5 712.167,363.5 727.5,363.5C 727.5,393.833 727.5,424.167 727.5,454.5C 757.833,454.5 788.167,454.5 818.5,454.5C 818.5,484.833 818.5,515.167 818.5,545.5C 788.167,545.5 757.833,545.5 727.5,545.5C 697.167,545.5 666.833,545.5 636.5,545.5C 636.5,484.833 636.5,424.167 636.5,363.5 Z"/></g>
<g><path style="opacity:1" fill="#3f3e3d" d="M 727.5,363.5 C 742.5,363.5 757.5,363.5 772.5,363.5C 817.833,363.5 863.167,363.5 908.5,363.5C 908.5,393.833 908.5,424.167 908.5,454.5C 878.5,454.5 848.5,454.5 818.5,454.5C 788.167,454.5 757.833,454.5 727.5,454.5C 727.5,424.167 727.5,393.833 727.5,363.5 Z"/></g>
<g><path style="opacity:1" fill="#3a3635" d="M 499.5,454.5 C 514.833,454.5 530.167,454.5 545.5,454.5C 545.5,484.833 545.5,515.167 545.5,545.5C 530.167,545.5 514.833,545.5 499.5,545.5C 499.5,530.167 499.5,514.833 499.5,499.5C 499.5,484.5 499.5,469.5 499.5,454.5 Z"/></g>
<g><path style="opacity:1" fill="#443c2e" d="M 727.5,590.5 C 818.167,590.5 908.833,590.5 999.5,590.5C 999.5,711.5 999.5,832.5 999.5,953.5C 817.833,953.5 636.167,953.5 454.5,953.5C 454.5,832.5 454.5,711.5 454.5,590.5C 545.5,590.5 636.5,590.5 727.5,590.5 Z"/></g>
<g><path style="opacity:1" fill="#855106" d="M 227.5,681.5 C 288.167,681.5 348.833,681.5 409.5,681.5C 409.5,742.167 409.5,802.833 409.5,863.5C 348.833,863.5 288.167,863.5 227.5,863.5C 227.5,802.833 227.5,742.167 227.5,681.5 Z"/></g>
<g><path style="opacity:1" fill="#a66e1e" d="M 545.5,681.5 C 666.5,681.5 787.5,681.5 908.5,681.5C 908.5,742.167 908.5,802.833 908.5,863.5C 787.5,863.5 666.5,863.5 545.5,863.5C 545.5,802.833 545.5,742.167 545.5,681.5 Z"/></g>
</svg>
