<?xml version="1.0" encoding="UTF-8"?>
<!DOCTYPE svg PUBLIC "-//W3C//DTD SVG 1.1//EN" "http://www.w3.org/Graphics/SVG/1.1/DTD/svg11.dtd">
<svg xmlns="http://www.w3.org/2000/svg" version="1.1" width="1000px" height="913px" style="shape-rendering:geometricPrecision; text-rendering:geometricPrecision; image-rendering:optimizeQuality; fill-rule:evenodd; clip-rule:evenodd" xmlns:xlink="http://www.w3.org/1999/xlink">
<g><path style="opacity:1" fill="#a3962c" d="M 347.5,-0.5 C 390.833,-0.5 434.167,-0.5 477.5,-0.5C 477.5,28.5 477.5,57.5 477.5,86.5C 448.5,86.5 419.5,86.5 390.5,86.5C 376.167,86.5 361.833,86.5 347.5,86.5C 347.5,71.8333 347.5,57.1667 347.5,42.5C 347.5,28.1667 347.5,13.8333 347.5,-0.5 Z"/></g>
<g><path style="opacity:1" fill="#d9c83c" d="M 477.5,-0.5 C 506.5,-0.5 535.5,-0.5 564.5,-0.5C 564.5,13.8333 564.5,28.1667 564.5,42.5C 564.5,57.1667 564.5,71.8333 564.5,86.5C 535.5,86.5 506.5,86.5 477.5,86.5C 477.5,57.5 477.5,28.5 477.5,-0.5 Z"/></g>
<g><path style="opacity:1" fill="#892518" d="M -0.5,42.5 C 115.5,42.5 231.5,42.5 347.5,42.5C 347.5,57.1667 347.5,71.8333 347.5,86.5C 361.833,86.5 376.167,86.5 390.5,86.5C 390.5,100.833 390.5,115.167 390.5,129.5C 347.167,129.5 303.833,129.5 260.5,129.5C 260.5,173.167 260.5,216.833 260.5,260.5C 231.5,260.5 202.5,260.5 173.5,260.5C 158.833,260.5 144.167,260.5 129.5,260.5C 129.5,216.833 129.5,173.167 129.5,129.5C 100.5,129.5 71.5,129.5 42.5,129.5C 42.5,173.167 42.5,216.833 42.5,260.5C 28.1667,260.5 13.8333,260.5 -0.5,260.5C -0.5,187.833 -0.5,115.167 -0.5,42.5 Z"/></g>
<g><path style="opacity:1" fill="#892518" d="M 564.5,42.5 C 608.167,42.5 651.833,42.5 695.5,42.5C 695.5,57.1667 695.5,71.8333 695.5,86.5C 680.833,86.5 666.167,86.5 651.5,86.5C 637.167,86.5 622.833,86.5 608.5,86.5C 608.5,100.833 608.5,115.167 608.5,129.5C 564.833,129.5 521.167,129.5 477.5,129.5C 477.5,115.167 477.5,100.833 477.5,86.5C 506.5,86.5 535.5,86.5 564.5,86.5C 564.5,71.8333 564.5,57.1667 564.5,42.5 Z"/></g>
<g><path style="opacity:1" fill="#d9c83c" d="M 390.5,86.5 C 419.5,86.5 448.5,86.5 477.5,86.5C 477.5,100.833 477.5,115.167 477.5,129.5C 448.5,129.5 419.5,129.5 390.5,129.5C 390.5,115.167 390.5,100.833 390.5,86.5 Z"/></g>
<g><path style="opacity:1" fill="#533b0b" d="M 651.5,86.5 C 651.5,115.5 651.5,144.5 651.5,173.5C 637.167,173.5 622.833,173.5 608.5,173.5C 608.5,158.833 608.5,144.167 608.5,129.5C 608.5,115.167 608.5,100.833 608.5,86.5C 622.833,86.5 637.167,86.5 651.5,86.5 Z"/></g>
<g><path style="opacity:1" fill="#674e1d" d="M 651.5,86.5 C 666.167,86.5 680.833,86.5 695.5,86.5C 709.833,86.5 724.167,86.5 738.5,86.5C 738.5,115.5 738.5,144.5 738.5,173.5C 709.5,173.5 680.5,173.5 651.5,173.5C 651.5,144.5 651.5,115.5 651.5,86.5 Z"/></g>
<g><path style="opacity:1" fill="#7b120c" d="M 129.5,260.5 C 100.5,260.5 71.5,260.5 42.5,260.5C 42.5,216.833 42.5,173.167 42.5,129.5C 71.5,129.5 100.5,129.5 129.5,129.5C 129.5,173.167 129.5,216.833 129.5,260.5 Z"/></g>
<g><path style="opacity:1" fill="#300603" d="M 390.5,129.5 C 419.5,129.5 448.5,129.5 477.5,129.5C 521.167,129.5 564.833,129.5 608.5,129.5C 608.5,144.167 608.5,158.833 608.5,173.5C 564.833,173.5 521.167,173.5 477.5,173.5C 463.167,173.5 448.833,173.5 434.5,173.5C 434.5,202.5 434.5,231.5 434.5,260.5C 419.833,260.5 405.167,260.5 390.5,260.5C 376.167,260.5 361.833,260.5 347.5,260.5C 347.5,289.5 347.5,318.5 347.5,347.5C 361.833,347.5 376.167,347.5 390.5,347.5C 448.5,347.5 506.5,347.5 564.5,347.5C 564.5,318.5 564.5,289.5 564.5,260.5C 579.167,260.5 593.833,260.5 608.5,260.5C 608.5,332.833 608.5,405.167 608.5,477.5C 564.833,477.5 521.167,477.5 477.5,477.5C 448.5,477.5 419.5,477.5 390.5,477.5C 347.167,477.5 303.833,477.5 260.5,477.5C 260.5,434.167 260.5,390.833 260.5,347.5C 260.5,318.5 260.5,289.5 260.5,260.5C 260.5,216.833 260.5,173.167 260.5,129.5C 303.833,129.5 347.167,129.5 390.5,129.5 Z"/></g>
<g><path style="opacity:1" fill="#20c5b4" d="M 477.5,173.5 C 477.5,202.5 477.5,231.5 477.5,260.5C 463.167,260.5 448.833,260.5 434.5,260.5C 434.5,231.5 434.5,202.5 434.5,173.5C 448.833,173.5 463.167,173.5 477.5,173.5 Z"/></g>
<g><path style="opacity:1" fill="#4aedd8" d="M 477.5,173.5 C 521.167,173.5 564.833,173.5 608.5,173.5C 622.833,173.5 637.167,173.5 651.5,173.5C 680.5,173.5 709.5,173.5 738.5,173.5C 796.5,173.5 854.5,173.5 912.5,173.5C 912.5,202.5 912.5,231.5 912.5,260.5C 941.5,260.5 970.5,260.5 999.5,260.5C 999.5,289.5 999.5,318.5 999.5,347.5C 941.5,347.5 883.5,347.5 825.5,347.5C 825.5,318.5 825.5,289.5 825.5,260.5C 811.167,260.5 796.833,260.5 782.5,260.5C 767.833,260.5 753.167,260.5 738.5,260.5C 695.167,260.5 651.833,260.5 608.5,260.5C 593.833,260.5 579.167,260.5 564.5,260.5C 564.5,289.5 564.5,318.5 564.5,347.5C 506.5,347.5 448.5,347.5 390.5,347.5C 390.5,318.5 390.5,289.5 390.5,260.5C 405.167,260.5 419.833,260.5 434.5,260.5C 448.833,260.5 463.167,260.5 477.5,260.5C 477.5,231.5 477.5,202.5 477.5,173.5 Z"/></g>
<g><path style="opacity:1" fill="#a3962c" d="M -0.5,260.5 C 13.8333,260.5 28.1667,260.5 42.5,260.5C 71.5,260.5 100.5,260.5 129.5,260.5C 144.167,260.5 158.833,260.5 173.5,260.5C 173.5,289.5 173.5,318.5 173.5,347.5C 158.833,347.5 144.167,347.5 129.5,347.5C 100.5,347.5 71.5,347.5 42.5,347.5C 28.1667,347.5 13.8333,347.5 -0.5,347.5C -0.5,318.5 -0.5,289.5 -0.5,260.5 Z"/></g>
<g><path style="opacity:1" fill="#d9c83c" d="M 173.5,260.5 C 202.5,260.5 231.5,260.5 260.5,260.5C 260.5,289.5 260.5,318.5 260.5,347.5C 231.5,347.5 202.5,347.5 173.5,347.5C 173.5,318.5 173.5,289.5 173.5,260.5 Z"/></g>
<g><path style="opacity:1" fill="#20c5b4" d="M 390.5,260.5 C 390.5,289.5 390.5,318.5 390.5,347.5C 376.167,347.5 361.833,347.5 347.5,347.5C 347.5,318.5 347.5,289.5 347.5,260.5C 361.833,260.5 376.167,260.5 390.5,260.5 Z"/></g>
<g><path style="opacity:1" fill="#533b0b" d="M 608.5,260.5 C 651.833,260.5 695.167,260.5 738.5,260.5C 738.5,274.833 738.5,289.167 738.5,303.5C 709.5,303.5 680.5,303.5 651.5,303.5C 651.5,390.5 651.5,477.5 651.5,564.5C 637.167,564.5 622.833,564.5 608.5,564.5C 608.5,535.5 608.5,506.5 608.5,477.5C 608.5,405.167 608.5,332.833 608.5,260.5 Z"/></g>
<g><path style="opacity:1" fill="#20c5b4" d="M 782.5,260.5 C 796.833,260.5 811.167,260.5 825.5,260.5C 825.5,289.5 825.5,318.5 825.5,347.5C 811.167,347.5 796.833,347.5 782.5,347.5C 782.5,318.5 782.5,289.5 782.5,260.5 Z"/></g>
<g><path style="opacity:1" fill="#674e1d" d="M 738.5,303.5 C 738.5,390.5 738.5,477.5 738.5,564.5C 709.5,564.5 680.5,564.5 651.5,564.5C 651.5,477.5 651.5,390.5 651.5,303.5C 680.5,303.5 709.5,303.5 738.5,303.5 Z"/></g>
<g><path style="opacity:1" fill="#892518" d="M -0.5,347.5 C 13.8333,347.5 28.1667,347.5 42.5,347.5C 42.5,390.833 42.5,434.167 42.5,477.5C 71.5,477.5 100.5,477.5 129.5,477.5C 129.5,434.167 129.5,390.833 129.5,347.5C 144.167,347.5 158.833,347.5 173.5,347.5C 202.5,347.5 231.5,347.5 260.5,347.5C 260.5,390.833 260.5,434.167 260.5,477.5C 303.833,477.5 347.167,477.5 390.5,477.5C 390.5,506.5 390.5,535.5 390.5,564.5C 405.167,564.5 419.833,564.5 434.5,564.5C 434.5,651.5 434.5,738.5 434.5,825.5C 419.833,825.5 405.167,825.5 390.5,825.5C 390.5,767.5 390.5,709.5 390.5,651.5C 332.5,651.5 274.5,651.5 216.5,651.5C 216.5,709.5 216.5,767.5 216.5,825.5C 202.167,825.5 187.833,825.5 173.5,825.5C 173.5,738.5 173.5,651.5 173.5,564.5C 115.5,564.5 57.5,564.5 -0.5,564.5C -0.5,492.167 -0.5,419.833 -0.5,347.5 Z"/></g>
<g><path style="opacity:1" fill="#7b120c" d="M 42.5,347.5 C 71.5,347.5 100.5,347.5 129.5,347.5C 129.5,390.833 129.5,434.167 129.5,477.5C 100.5,477.5 71.5,477.5 42.5,477.5C 42.5,434.167 42.5,390.833 42.5,347.5 Z"/></g>
<g><path style="opacity:1" fill="#d9c83c" d="M 390.5,477.5 C 419.5,477.5 448.5,477.5 477.5,477.5C 477.5,506.5 477.5,535.5 477.5,564.5C 463.167,564.5 448.833,564.5 434.5,564.5C 419.833,564.5 405.167,564.5 390.5,564.5C 390.5,535.5 390.5,506.5 390.5,477.5 Z"/></g>
<g><path style="opacity:1" fill="#892518" d="M 477.5,477.5 C 521.167,477.5 564.833,477.5 608.5,477.5C 608.5,506.5 608.5,535.5 608.5,564.5C 564.833,564.5 521.167,564.5 477.5,564.5C 477.5,535.5 477.5,506.5 477.5,477.5 Z"/></g>
<g><path style="opacity:1" fill="#b53020" d="M 434.5,564.5 C 448.833,564.5 463.167,564.5 477.5,564.5C 521.167,564.5 564.833,564.5 608.5,564.5C 622.833,564.5 637.167,564.5 651.5,564.5C 680.5,564.5 709.5,564.5 738.5,564.5C 811.167,564.5 883.833,564.5 956.5,564.5C 956.5,651.5 956.5,738.5 956.5,825.5C 927.5,825.5 898.5,825.5 869.5,825.5C 869.5,767.5 869.5,709.5 869.5,651.5C 753.5,651.5 637.5,651.5 521.5,651.5C 521.5,709.5 521.5,767.5 521.5,825.5C 492.5,825.5 463.5,825.5 434.5,825.5C 434.5,738.5 434.5,651.5 434.5,564.5 Z"/></g>
<g><path style="opacity:1" fill="#7b120c" d="M 390.5,825.5 C 332.5,825.5 274.5,825.5 216.5,825.5C 216.5,767.5 216.5,709.5 216.5,651.5C 274.5,651.5 332.5,651.5 390.5,651.5C 390.5,709.5 390.5,767.5 390.5,825.5 Z"/></g>
<g><path style="opacity:1" fill="#a31710" d="M 869.5,825.5 C 753.5,825.5 637.5,825.5 521.5,825.5C 521.5,767.5 521.5,709.5 521.5,651.5C 637.5,651.5 753.5,651.5 869.5,651.5C 869.5,709.5 869.5,767.5 869.5,825.5 Z"/></g>
<g><path style="opacity:1" fill="#390300" d="M 173.5,825.5 C 187.833,825.5 202.167,825.5 216.5,825.5C 274.5,825.5 332.5,825.5 390.5,825.5C 405.167,825.5 419.833,825.5 434.5,825.5C 434.5,854.5 434.5,883.5 434.5,912.5C 347.5,912.5 260.5,912.5 173.5,912.5C 173.5,883.5 173.5,854.5 173.5,825.5 Z"/></g>
<g><path style="opacity:1" fill="#4b0300" d="M 434.5,825.5 C 463.5,825.5 492.5,825.5 521.5,825.5C 637.5,825.5 753.5,825.5 869.5,825.5C 898.5,825.5 927.5,825.5 956.5,825.5C 956.5,854.5 956.5,883.5 956.5,912.5C 782.5,912.5 608.5,912.5 434.5,912.5C 434.5,883.5 434.5,854.5 434.5,825.5 Z"/></g>
</svg>
