<?xml version="1.0" encoding="UTF-8"?>
<!DOCTYPE svg PUBLIC "-//W3C//DTD SVG 1.1//EN" "http://www.w3.org/Graphics/SVG/1.1/DTD/svg11.dtd">
<svg xmlns="http://www.w3.org/2000/svg" version="1.1" width="1000px" height="933px" style="shape-rendering:geometricPrecision; text-rendering:geometricPrecision; image-rendering:optimizeQuality; fill-rule:evenodd; clip-rule:evenodd" xmlns:xlink="http://www.w3.org/1999/xlink">
<g><path style="opacity:1" fill="#533b0b" d="M 399.5,-0.5 C 421.833,-0.5 444.167,-0.5 466.5,-0.5C 466.5,43.8333 466.5,88.1667 466.5,132.5C 444.167,132.5 421.833,132.5 399.5,132.5C 399.5,88.1667 399.5,43.8333 399.5,-0.5 Z"/></g>
<g><path style="opacity:1" fill="#674e1d" d="M 466.5,-0.5 C 510.833,-0.5 555.167,-0.5 599.5,-0.5C 599.5,43.8333 599.5,88.1667 599.5,132.5C 555.167,132.5 510.833,132.5 466.5,132.5C 466.5,88.1667 466.5,43.8333 466.5,-0.5 Z"/></g>
<g><path style="opacity:1" fill="#a2a3a2" d="M 199.5,132.5 C 199.5,177.167 199.5,221.833 199.5,266.5C 177.5,266.5 155.5,266.5 133.5,266.5C 133.5,221.833 133.5,177.167 133.5,132.5C 155.5,132.5 177.5,132.5 199.5,132.5 Z"/></g>
<g><path style="opacity:1" fill="#d7d8d7" d="M 199.5,132.5 C 266.167,132.5 332.833,132.5 399.5,132.5C 421.833,132.5 444.167,132.5 466.5,132.5C 510.833,132.5 555.167,132.5 599.5,132.5C 688.5,132.5 777.5,132.5 866.5,132.5C 866.5,177.167 866.5,221.833 866.5,266.5C 910.833,266.5 955.167,266.5 999.5,266.5C 999.5,310.833 999.5,355.167 999.5,399.5C 910.833,399.5 822.167,399.5 733.5,399.5C 733.5,355.167 733.5,310.833 733.5,266.5C 711.167,266.5 688.833,266.5 666.5,266.5C 644.167,266.5 621.833,266.5 599.5,266.5C 532.833,266.5 466.167,266.5 399.5,266.5C 377.5,266.5 355.5,266.5 333.5,266.5C 333.5,310.833 333.5,355.167 333.5,399.5C 244.5,399.5 155.5,399.5 66.5,399.5C 66.5,355.167 66.5,310.833 66.5,266.5C 88.8333,266.5 111.167,266.5 133.5,266.5C 155.5,266.5 177.5,266.5 199.5,266.5C 199.5,221.833 199.5,177.167 199.5,132.5 Z"/></g>
<g><path style="opacity:1" fill="#a2a3a2" d="M -0.5,266.5 C 21.8333,266.5 44.1667,266.5 66.5,266.5C 66.5,310.833 66.5,355.167 66.5,399.5C 44.1667,399.5 21.8333,399.5 -0.5,399.5C -0.5,355.167 -0.5,310.833 -0.5,266.5 Z"/></g>
<g><path style="opacity:1" fill="#533b0b" d="M 399.5,266.5 C 466.167,266.5 532.833,266.5 599.5,266.5C 599.5,288.5 599.5,310.5 599.5,332.5C 555.167,332.5 510.833,332.5 466.5,332.5C 466.5,532.5 466.5,732.5 466.5,932.5C 444.167,932.5 421.833,932.5 399.5,932.5C 399.5,710.5 399.5,488.5 399.5,266.5 Z"/></g>
<g><path style="opacity:1" fill="#a2a3a2" d="M 666.5,266.5 C 688.833,266.5 711.167,266.5 733.5,266.5C 733.5,310.833 733.5,355.167 733.5,399.5C 711.167,399.5 688.833,399.5 666.5,399.5C 666.5,355.167 666.5,310.833 666.5,266.5 Z"/></g>
<g><path style="opacity:1" fill="#674e1d" d="M 599.5,332.5 C 599.5,532.5 599.5,732.5 599.5,932.5C 555.167,932.5 510.833,932.5 466.5,932.5C 466.5,732.5 466.5,532.5 466.5,332.5C 510.833,332.5 555.167,332.5 599.5,332.5 Z"/></g>
</svg>
