<svg viewBox="0 0 850 850" xmlns="http://www.w3.org/2000/svg"><rect x="250" y="750" width="200" height="100" fill="#045290" /><rect x="400" y="750" width="300" height="100" fill="#056cbf" /><rect x="100" y="600" width="150" height="150" fill="#045290" /><rect x="0" y="550" width="400" height="100" fill="#045290" /><rect x="150" y="550" width="100" height="200" fill="#056cbf" /><rect x="50" y="550" width="200" height="100" fill="#056cbf" /><rect x="350" y="550" width="500" height="100" fill="#056cbf" /><rect x="300" y="100" width="100" height="400" fill="#da2122" /><rect x="200" y="200" width="200" height="200" fill="#da2122" /><rect x="300" y="100" width="200" height="100" fill="#da2122" /><rect x="400" y="0" width="100" height="200" fill="#da2122" /><rect x="600" y="300" width="100" height="200" fill="#da2122" /><rect x="500" y="200" width="100" height="200" fill="#da2122" /><rect x="600" y="100" width="100" height="100" fill="#da2122" /><rect x="550" y="300" width="100" height="100" fill="#da2122" /></svg>