<?xml version="1.0" encoding="UTF-8"?>
<!DOCTYPE svg PUBLIC "-//W3C//DTD SVG 1.1//EN" "http://www.w3.org/Graphics/SVG/1.1/DTD/svg11.dtd">
<svg xmlns="http://www.w3.org/2000/svg" version="1.1" width="1000px" height="1000px" style="shape-rendering:geometricPrecision; text-rendering:geometricPrecision; image-rendering:optimizeQuality; fill-rule:evenodd; clip-rule:evenodd" xmlns:xlink="http://www.w3.org/1999/xlink">
<g><path style="opacity:1" fill="#d92121" d="M 470.5,-0.5 C 509.5,-0.5 548.5,-0.5 587.5,-0.5C 587.5,77.8333 587.5,156.167 587.5,234.5C 548.5,234.5 509.5,234.5 470.5,234.5C 470.5,352.167 470.5,469.833 470.5,587.5C 431.167,587.5 391.833,587.5 352.5,587.5C 352.5,548.5 352.5,509.5 352.5,470.5C 313.167,470.5 273.833,470.5 234.5,470.5C 234.5,391.833 234.5,313.167 234.5,234.5C 273.833,234.5 313.167,234.5 352.5,234.5C 352.5,195.5 352.5,156.5 352.5,117.5C 391.833,117.5 431.167,117.5 470.5,117.5C 470.5,78.1667 470.5,38.8333 470.5,-0.5 Z"/></g>
<g><path style="opacity:1" fill="#d92121" d="M 705.5,234.5 C 705.5,195.5 705.5,156.5 705.5,117.5C 744.833,117.5 784.167,117.5 823.5,117.5C 823.5,156.5 823.5,195.5 823.5,234.5C 784.167,234.5 744.833,234.5 705.5,234.5 Z"/></g>
<g><path style="opacity:1" fill="#d92121" d="M 587.5,234.5 C 626.833,234.5 666.167,234.5 705.5,234.5C 705.5,273.833 705.5,313.167 705.5,352.5C 744.833,352.5 784.167,352.5 823.5,352.5C 823.5,430.833 823.5,509.167 823.5,587.5C 784.167,587.5 744.833,587.5 705.5,587.5C 705.5,548.5 705.5,509.5 705.5,470.5C 666.167,470.5 626.833,470.5 587.5,470.5C 587.5,391.833 587.5,313.167 587.5,234.5 Z"/></g>
<g><path style="opacity:1" fill="#045190" d="M -0.5,646.5 C 19.1667,646.5 38.8333,646.5 58.5,646.5C 58.5,685.833 58.5,725.167 58.5,764.5C 38.8333,764.5 19.1667,764.5 -0.5,764.5C -0.5,725.167 -0.5,685.833 -0.5,646.5 Z"/></g>
<g><path style="opacity:1" fill="#056bbf" d="M 58.5,646.5 C 136.833,646.5 215.167,646.5 293.5,646.5C 293.5,685.833 293.5,725.167 293.5,764.5C 293.5,803.5 293.5,842.5 293.5,881.5C 254.167,881.5 214.833,881.5 175.5,881.5C 175.5,842.5 175.5,803.5 175.5,764.5C 156.167,764.5 136.833,764.5 117.5,764.5C 97.8333,764.5 78.1667,764.5 58.5,764.5C 58.5,725.167 58.5,685.833 58.5,646.5 Z"/></g>
<g><path style="opacity:1" fill="#045190" d="M 293.5,646.5 C 332.833,646.5 372.167,646.5 411.5,646.5C 411.5,685.833 411.5,725.167 411.5,764.5C 372.167,764.5 332.833,764.5 293.5,764.5C 293.5,725.167 293.5,685.833 293.5,646.5 Z"/></g>
<g><path style="opacity:1" fill="#056bbf" d="M 411.5,646.5 C 607.5,646.5 803.5,646.5 999.5,646.5C 999.5,685.833 999.5,725.167 999.5,764.5C 803.5,764.5 607.5,764.5 411.5,764.5C 411.5,725.167 411.5,685.833 411.5,646.5 Z"/></g>
<g><path style="opacity:1" fill="#045190" d="M 117.5,764.5 C 136.833,764.5 156.167,764.5 175.5,764.5C 175.5,803.5 175.5,842.5 175.5,881.5C 156.167,881.5 136.833,881.5 117.5,881.5C 117.5,842.5 117.5,803.5 117.5,764.5 Z"/></g>
<g><path style="opacity:1" fill="#045190" d="M 293.5,881.5 C 352.5,881.5 411.5,881.5 470.5,881.5C 470.5,920.833 470.5,960.167 470.5,999.5C 411.5,999.5 352.5,999.5 293.5,999.5C 293.5,960.167 293.5,920.833 293.5,881.5 Z"/></g>
<g><path style="opacity:1" fill="#056bbf" d="M 470.5,881.5 C 588.167,881.5 705.833,881.5 823.5,881.5C 823.5,920.833 823.5,960.167 823.5,999.5C 705.833,999.5 588.167,999.5 470.5,999.5C 470.5,960.167 470.5,920.833 470.5,881.5 Z"/></g>
</svg>
