<?xml version="1.0" encoding="UTF-8"?>
<!DOCTYPE svg PUBLIC "-//W3C//DTD SVG 1.1//EN" "http://www.w3.org/Graphics/SVG/1.1/DTD/svg11.dtd">
<svg xmlns="http://www.w3.org/2000/svg" version="1.1" width="1000px" height="875px" style="shape-rendering:geometricPrecision; text-rendering:geometricPrecision; image-rendering:optimizeQuality; fill-rule:evenodd; clip-rule:evenodd" xmlns:xlink="http://www.w3.org/1999/xlink">
<g><path style="opacity:1" fill="#bbc000" d="M -0.5,-0.5 C 41.5,-0.5 83.5,-0.5 125.5,-0.5C 125.5,291.167 125.5,582.833 125.5,874.5C 83.5,874.5 41.5,874.5 -0.5,874.5C -0.5,582.833 -0.5,291.167 -0.5,-0.5 Z"/></g>
<g><path style="opacity:1" fill="#faff00" d="M 125.5,-0.5 C 416.833,-0.5 708.167,-0.5 999.5,-0.5C 999.5,291.167 999.5,582.833 999.5,874.5C 708.167,874.5 416.833,874.5 125.5,874.5C 125.5,582.833 125.5,291.167 125.5,-0.5 Z"/></g>
<g><path style="opacity:1" fill="#000000" d="M 500.5,687.5 C 500.5,625.167 500.5,562.833 500.5,500.5C 437.833,500.5 375.167,500.5 312.5,500.5C 312.5,479.5 312.5,458.5 312.5,437.5C 395.833,437.5 479.167,437.5 562.5,437.5C 562.5,520.833 562.5,604.167 562.5,687.5C 541.833,687.5 521.167,687.5 500.5,687.5 Z"/></g>
<g><path style="opacity:1" fill="#000000" d="M 687.5,500.5 C 687.5,479.5 687.5,458.5 687.5,437.5C 771.167,437.5 854.833,437.5 938.5,437.5C 938.5,458.5 938.5,479.5 938.5,500.5C 854.833,500.5 771.167,500.5 687.5,500.5 Z"/></g>
<g><path style="opacity:1" fill="#000000" d="M 687.5,500.5 C 687.5,521.167 687.5,541.833 687.5,562.5C 666.833,562.5 646.167,562.5 625.5,562.5C 625.5,541.833 625.5,521.167 625.5,500.5C 646.167,500.5 666.833,500.5 687.5,500.5 Z"/></g>
<g><path style="opacity:1" fill="#000000" d="M 687.5,562.5 C 750.167,562.5 812.833,562.5 875.5,562.5C 875.5,583.5 875.5,604.5 875.5,625.5C 812.833,625.5 750.167,625.5 687.5,625.5C 687.5,604.5 687.5,583.5 687.5,562.5 Z"/></g>
<g><path style="opacity:1" fill="#000000" d="M 312.5,687.5 C 291.833,687.5 271.167,687.5 250.5,687.5C 250.5,666.833 250.5,646.167 250.5,625.5C 271.167,625.5 291.833,625.5 312.5,625.5C 312.5,646.167 312.5,666.833 312.5,687.5 Z"/></g>
<g><path style="opacity:1" fill="#000000" d="M 875.5,625.5 C 896.5,625.5 917.5,625.5 938.5,625.5C 938.5,646.167 938.5,666.833 938.5,687.5C 917.5,687.5 896.5,687.5 875.5,687.5C 875.5,666.833 875.5,646.167 875.5,625.5 Z"/></g>
<g><path style="opacity:1" fill="#000000" d="M 312.5,687.5 C 375.167,687.5 437.833,687.5 500.5,687.5C 500.5,708.5 500.5,729.5 500.5,750.5C 437.833,750.5 375.167,750.5 312.5,750.5C 312.5,729.5 312.5,708.5 312.5,687.5 Z"/></g>
<g><path style="opacity:1" fill="#000000" d="M 875.5,687.5 C 875.5,708.5 875.5,729.5 875.5,750.5C 792.167,750.5 708.833,750.5 625.5,750.5C 625.5,729.5 625.5,708.5 625.5,687.5C 708.833,687.5 792.167,687.5 875.5,687.5 Z"/></g>
</svg>
