<?xml version="1.0" encoding="UTF-8"?>
<!DOCTYPE svg PUBLIC "-//W3C//DTD SVG 1.1//EN" "http://www.w3.org/Graphics/SVG/1.1/DTD/svg11.dtd">
<svg xmlns="http://www.w3.org/2000/svg" version="1.1" width="1000px" height="954px" style="shape-rendering:geometricPrecision; text-rendering:geometricPrecision; image-rendering:optimizeQuality; fill-rule:evenodd; clip-rule:evenodd" xmlns:xlink="http://www.w3.org/1999/xlink">
<g><path style="opacity:1" fill="#a3962c" d="M 363.5,-0.5 C 393.833,-0.5 424.167,-0.5 454.5,-0.5C 454.5,29.8333 454.5,60.1667 454.5,90.5C 439.167,90.5 423.833,90.5 408.5,90.5C 393.5,90.5 378.5,90.5 363.5,90.5C 363.5,75.1667 363.5,59.8333 363.5,44.5C 363.5,29.5 363.5,14.5 363.5,-0.5 Z"/></g>
<g><path style="opacity:1" fill="#bf0000" d="M 454.5,-0.5 C 469.5,-0.5 484.5,-0.5 499.5,-0.5C 499.5,29.8333 499.5,60.1667 499.5,90.5C 484.5,90.5 469.5,90.5 454.5,90.5C 454.5,60.1667 454.5,29.8333 454.5,-0.5 Z"/></g>
<g><path style="opacity:1" fill="#fe0000" d="M 499.5,-0.5 C 529.833,-0.5 560.167,-0.5 590.5,-0.5C 590.5,29.8333 590.5,60.1667 590.5,90.5C 560.167,90.5 529.833,90.5 499.5,90.5C 499.5,60.1667 499.5,29.8333 499.5,-0.5 Z"/></g>
<g><path style="opacity:1" fill="#fe0063" d="M 590.5,-0.5 C 651.167,-0.5 711.833,-0.5 772.5,-0.5C 772.5,29.8333 772.5,60.1667 772.5,90.5C 711.833,90.5 651.167,90.5 590.5,90.5C 590.5,60.1667 590.5,29.8333 590.5,-0.5 Z"/></g>
<g><path style="opacity:1" fill="#e900ff" d="M 772.5,-0.5 C 833.167,-0.5 893.833,-0.5 954.5,-0.5C 954.5,60.1667 954.5,120.833 954.5,181.5C 924.167,181.5 893.833,181.5 863.5,181.5C 863.5,151.167 863.5,120.833 863.5,90.5C 833.167,90.5 802.833,90.5 772.5,90.5C 772.5,60.1667 772.5,29.8333 772.5,-0.5 Z"/></g>
<g><path style="opacity:1" fill="#892518" d="M -0.5,44.5 C 120.833,44.5 242.167,44.5 363.5,44.5C 363.5,59.8333 363.5,75.1667 363.5,90.5C 378.5,90.5 393.5,90.5 408.5,90.5C 408.5,105.5 408.5,120.5 408.5,135.5C 363.167,135.5 317.833,135.5 272.5,135.5C 272.5,150.833 272.5,166.167 272.5,181.5C 272.5,211.833 272.5,242.167 272.5,272.5C 242.167,272.5 211.833,272.5 181.5,272.5C 166.167,272.5 150.833,272.5 135.5,272.5C 135.5,226.833 135.5,181.167 135.5,135.5C 105.167,135.5 74.8333,135.5 44.5,135.5C 44.5,181.167 44.5,226.833 44.5,272.5C 29.5,272.5 14.5,272.5 -0.5,272.5C -0.5,196.5 -0.5,120.5 -0.5,44.5 Z"/></g>
<g><path style="opacity:1" fill="#000000" d="M 408.5,90.5 C 423.833,90.5 439.167,90.5 454.5,90.5C 469.5,90.5 484.5,90.5 499.5,90.5C 529.833,90.5 560.167,90.5 590.5,90.5C 651.167,90.5 711.833,90.5 772.5,90.5C 802.833,90.5 833.167,90.5 863.5,90.5C 863.5,120.833 863.5,151.167 863.5,181.5C 863.5,241.833 863.5,302.167 863.5,362.5C 863.5,392.833 863.5,423.167 863.5,453.5C 863.5,483.833 863.5,514.167 863.5,544.5C 833.167,544.5 802.833,544.5 772.5,544.5C 742.167,544.5 711.833,544.5 681.5,544.5C 620.833,544.5 560.167,544.5 499.5,544.5C 469.167,544.5 438.833,544.5 408.5,544.5C 408.5,514.167 408.5,483.833 408.5,453.5C 408.5,393.167 408.5,332.833 408.5,272.5C 408.5,242.167 408.5,211.833 408.5,181.5C 408.5,166.167 408.5,150.833 408.5,135.5C 408.5,120.5 408.5,105.5 408.5,90.5 Z"/></g>
<g><path style="opacity:1" fill="#7b120c" d="M 135.5,272.5 C 105.167,272.5 74.8333,272.5 44.5,272.5C 44.5,226.833 44.5,181.167 44.5,135.5C 74.8333,135.5 105.167,135.5 135.5,135.5C 135.5,181.167 135.5,226.833 135.5,272.5 Z"/></g>
<g><path style="opacity:1" fill="#300603" d="M 408.5,135.5 C 408.5,150.833 408.5,166.167 408.5,181.5C 378.167,181.5 347.833,181.5 317.5,181.5C 302.5,181.5 287.5,181.5 272.5,181.5C 272.5,166.167 272.5,150.833 272.5,135.5C 317.833,135.5 363.167,135.5 408.5,135.5 Z"/></g>
<g><path style="opacity:1" fill="#bf3900" d="M 272.5,181.5 C 287.5,181.5 302.5,181.5 317.5,181.5C 317.5,211.833 317.5,242.167 317.5,272.5C 302.5,272.5 287.5,272.5 272.5,272.5C 272.5,242.167 272.5,211.833 272.5,181.5 Z"/></g>
<g><path style="opacity:1" fill="#fe4b00" d="M 317.5,181.5 C 347.833,181.5 378.167,181.5 408.5,181.5C 408.5,211.833 408.5,242.167 408.5,272.5C 378.167,272.5 347.833,272.5 317.5,272.5C 317.5,242.167 317.5,211.833 317.5,181.5 Z"/></g>
<g><path style="opacity:1" fill="#fe0063" d="M 863.5,181.5 C 893.833,181.5 924.167,181.5 954.5,181.5C 954.5,241.833 954.5,302.167 954.5,362.5C 924.167,362.5 893.833,362.5 863.5,362.5C 863.5,302.167 863.5,241.833 863.5,181.5 Z"/></g>
<g><path style="opacity:1" fill="#a3962c" d="M -0.5,272.5 C 14.5,272.5 29.5,272.5 44.5,272.5C 74.8333,272.5 105.167,272.5 135.5,272.5C 150.833,272.5 166.167,272.5 181.5,272.5C 181.5,302.5 181.5,332.5 181.5,362.5C 166.167,362.5 150.833,362.5 135.5,362.5C 105.167,362.5 74.8333,362.5 44.5,362.5C 29.5,362.5 14.5,362.5 -0.5,362.5C -0.5,332.5 -0.5,302.5 -0.5,272.5 Z"/></g>
<g><path style="opacity:1" fill="#d9c83c" d="M 181.5,272.5 C 211.833,272.5 242.167,272.5 272.5,272.5C 272.5,302.5 272.5,332.5 272.5,362.5C 242.167,362.5 211.833,362.5 181.5,362.5C 181.5,332.5 181.5,302.5 181.5,272.5 Z"/></g>
<g><path style="opacity:1" fill="#bf7100" d="M 272.5,272.5 C 287.5,272.5 302.5,272.5 317.5,272.5C 317.5,332.833 317.5,393.167 317.5,453.5C 302.5,453.5 287.5,453.5 272.5,453.5C 272.5,423.167 272.5,392.833 272.5,362.5C 272.5,332.5 272.5,302.5 272.5,272.5 Z"/></g>
<g><path style="opacity:1" fill="#fe9600" d="M 317.5,272.5 C 347.833,272.5 378.167,272.5 408.5,272.5C 408.5,332.833 408.5,393.167 408.5,453.5C 378.167,453.5 347.833,453.5 317.5,453.5C 317.5,393.167 317.5,332.833 317.5,272.5 Z"/></g>
<g><path style="opacity:1" fill="#892518" d="M -0.5,362.5 C 14.5,362.5 29.5,362.5 44.5,362.5C 44.5,408.167 44.5,453.833 44.5,499.5C 74.8333,499.5 105.167,499.5 135.5,499.5C 135.5,453.833 135.5,408.167 135.5,362.5C 150.833,362.5 166.167,362.5 181.5,362.5C 211.833,362.5 242.167,362.5 272.5,362.5C 272.5,392.833 272.5,423.167 272.5,453.5C 272.5,499.167 272.5,544.833 272.5,590.5C 287.5,590.5 302.5,590.5 317.5,590.5C 363.167,590.5 408.833,590.5 454.5,590.5C 454.5,681.167 454.5,771.833 454.5,862.5C 439.167,862.5 423.833,862.5 408.5,862.5C 408.5,801.833 408.5,741.167 408.5,680.5C 347.833,680.5 287.167,680.5 226.5,680.5C 226.5,741.167 226.5,801.833 226.5,862.5C 211.5,862.5 196.5,862.5 181.5,862.5C 181.5,771.833 181.5,681.167 181.5,590.5C 120.833,590.5 60.1667,590.5 -0.5,590.5C -0.5,514.5 -0.5,438.5 -0.5,362.5 Z"/></g>
<g><path style="opacity:1" fill="#7b120c" d="M 44.5,362.5 C 74.8333,362.5 105.167,362.5 135.5,362.5C 135.5,408.167 135.5,453.833 135.5,499.5C 105.167,499.5 74.8333,499.5 44.5,499.5C 44.5,453.833 44.5,408.167 44.5,362.5 Z"/></g>
<g><path style="opacity:1" fill="#fefffe" d="M 499.5,362.5 C 560.167,362.5 620.833,362.5 681.5,362.5C 681.5,392.833 681.5,423.167 681.5,453.5C 620.833,453.5 560.167,453.5 499.5,453.5C 499.5,423.167 499.5,392.833 499.5,362.5 Z"/></g>
<g><path style="opacity:1" fill="#fe0000" d="M 863.5,362.5 C 893.833,362.5 924.167,362.5 954.5,362.5C 954.5,392.833 954.5,423.167 954.5,453.5C 924.167,453.5 893.833,453.5 863.5,453.5C 863.5,423.167 863.5,392.833 863.5,362.5 Z"/></g>
<g><path style="opacity:1" fill="#bfab00" d="M 272.5,453.5 C 287.5,453.5 302.5,453.5 317.5,453.5C 317.5,499.167 317.5,544.833 317.5,590.5C 302.5,590.5 287.5,590.5 272.5,590.5C 272.5,544.833 272.5,499.167 272.5,453.5 Z"/></g>
<g><path style="opacity:1" fill="#fee200" d="M 317.5,453.5 C 347.833,453.5 378.167,453.5 408.5,453.5C 408.5,483.833 408.5,514.167 408.5,544.5C 438.833,544.5 469.167,544.5 499.5,544.5C 499.5,559.833 499.5,575.167 499.5,590.5C 484.5,590.5 469.5,590.5 454.5,590.5C 408.833,590.5 363.167,590.5 317.5,590.5C 317.5,544.833 317.5,499.167 317.5,453.5 Z"/></g>
<g><path style="opacity:1" fill="#fe9600" d="M 499.5,544.5 C 560.167,544.5 620.833,544.5 681.5,544.5C 681.5,559.833 681.5,575.167 681.5,590.5C 620.833,590.5 560.167,590.5 499.5,590.5C 499.5,575.167 499.5,559.833 499.5,544.5 Z"/></g>
<g><path style="opacity:1" fill="#fe4b00" d="M 681.5,544.5 C 711.833,544.5 742.167,544.5 772.5,544.5C 772.5,559.833 772.5,575.167 772.5,590.5C 742.167,590.5 711.833,590.5 681.5,590.5C 681.5,575.167 681.5,559.833 681.5,544.5 Z"/></g>
<g><path style="opacity:1" fill="#b53020" d="M 454.5,590.5 C 469.5,590.5 484.5,590.5 499.5,590.5C 560.167,590.5 620.833,590.5 681.5,590.5C 711.833,590.5 742.167,590.5 772.5,590.5C 848.167,590.5 923.833,590.5 999.5,590.5C 999.5,681.167 999.5,771.833 999.5,862.5C 969.167,862.5 938.833,862.5 908.5,862.5C 908.5,801.833 908.5,741.167 908.5,680.5C 787.167,680.5 665.833,680.5 544.5,680.5C 544.5,741.167 544.5,801.833 544.5,862.5C 514.5,862.5 484.5,862.5 454.5,862.5C 454.5,771.833 454.5,681.167 454.5,590.5 Z"/></g>
<g><path style="opacity:1" fill="#7b120c" d="M 408.5,862.5 C 347.833,862.5 287.167,862.5 226.5,862.5C 226.5,801.833 226.5,741.167 226.5,680.5C 287.167,680.5 347.833,680.5 408.5,680.5C 408.5,741.167 408.5,801.833 408.5,862.5 Z"/></g>
<g><path style="opacity:1" fill="#a31710" d="M 908.5,862.5 C 787.167,862.5 665.833,862.5 544.5,862.5C 544.5,801.833 544.5,741.167 544.5,680.5C 665.833,680.5 787.167,680.5 908.5,680.5C 908.5,741.167 908.5,801.833 908.5,862.5 Z"/></g>
<g><path style="opacity:1" fill="#390300" d="M 181.5,862.5 C 196.5,862.5 211.5,862.5 226.5,862.5C 287.167,862.5 347.833,862.5 408.5,862.5C 423.833,862.5 439.167,862.5 454.5,862.5C 454.5,892.833 454.5,923.167 454.5,953.5C 363.5,953.5 272.5,953.5 181.5,953.5C 181.5,923.167 181.5,892.833 181.5,862.5 Z"/></g>
<g><path style="opacity:1" fill="#4b0300" d="M 454.5,862.5 C 484.5,862.5 514.5,862.5 544.5,862.5C 665.833,862.5 787.167,862.5 908.5,862.5C 938.833,862.5 969.167,862.5 999.5,862.5C 999.5,892.833 999.5,923.167 999.5,953.5C 817.833,953.5 636.167,953.5 454.5,953.5C 454.5,923.167 454.5,892.833 454.5,862.5 Z"/></g>
</svg>
