<svg viewBox="0 0 1000 900" xmlns="http://www.w3.org/2000/svg"><rect x="0" y="250" width="150" height="650" fill="#5a382b" /><rect x="100" y="250" width="900" height="650" fill="#79553a" /><rect x="0" y="0" width="150" height="300" fill="#368334" /><rect x="100" y="0" width="900" height="300" fill="#70b046" /><rect x="200" y="200" width="100" height="150" fill="#79553a" /><rect x="400" y="200" width="200" height="150" fill="#79553a" /><rect x="400" y="100" width="100" height="150" fill="#79553a" /><rect x="700" y="200" width="100" height="150" fill="#79553a" /><rect x="100" y="700" width="50" height="50" fill="#fcfbfb" /><rect x="150" y="750" width="150" height="50" fill="#fcfbfb" /><rect x="300" y="550" width="50" height="200" fill="#fcfbfb" /><rect x="150" y="550" width="200" height="50" fill="#fcfbfb" /><rect x="400" y="550" width="50" height="250" fill="#fcfbfb" /><rect x="400" y="600" width="100" height="50" fill="#fcfbfb" /><rect x="500" y="650" width="50" height="50" fill="#fcfbfb" /><rect x="550" y="600" width="100" height="50" fill="#fcfbfb" /><rect x="600" y="550" width="50" height="250" fill="#fcfbfb" /><rect x="700" y="600" width="50" height="150" fill="#fcfbfb" /><rect x="750" y="750" width="150" height="50" fill="#fcfbfb" /><rect x="900" y="700" width="50" height="50" fill="#fcfbfb" /><rect x="900" y="600" width="50" height="50" fill="#fcfbfb" /><rect x="750" y="550" width="150" height="50" fill="#fcfbfb" /></svg>