<?xml version="1.0" encoding="UTF-8"?>
<!DOCTYPE svg PUBLIC "-//W3C//DTD SVG 1.1//EN" "http://www.w3.org/Graphics/SVG/1.1/DTD/svg11.dtd">
<svg xmlns="http://www.w3.org/2000/svg" version="1.1" width="1000px" height="714px" style="shape-rendering:geometricPrecision; text-rendering:geometricPrecision; image-rendering:optimizeQuality; fill-rule:evenodd; clip-rule:evenodd" xmlns:xlink="http://www.w3.org/1999/xlink">
<g><path style="opacity:1" fill="#2b724b" d="M 285.5,-0.5 C 333.167,-0.5 380.833,-0.5 428.5,-0.5C 428.5,94.8333 428.5,190.167 428.5,285.5C 380.833,285.5 333.167,285.5 285.5,285.5C 285.5,190.167 285.5,94.8333 285.5,-0.5 Z"/></g>
<g><path style="opacity:1" fill="#399745" d="M 428.5,-0.5 C 523.5,-0.5 618.5,-0.5 713.5,-0.5C 713.5,94.8333 713.5,190.167 713.5,285.5C 618.5,285.5 523.5,285.5 428.5,285.5C 428.5,190.167 428.5,94.8333 428.5,-0.5 Z"/></g>
<g><path style="opacity:1" fill="#98263c" d="M -0.5,427.5 C 47.1667,427.5 94.8333,427.5 142.5,427.5C 142.5,522.833 142.5,618.167 142.5,713.5C 94.8333,713.5 47.1667,713.5 -0.5,713.5C -0.5,618.167 -0.5,522.833 -0.5,427.5 Z"/></g>
<g><path style="opacity:1" fill="#c93c31" d="M 142.5,427.5 C 237.833,427.5 333.167,427.5 428.5,427.5C 428.5,522.833 428.5,618.167 428.5,713.5C 333.167,713.5 237.833,713.5 142.5,713.5C 142.5,618.167 142.5,522.833 142.5,427.5 Z"/></g>
<g><path style="opacity:1" fill="#7a4474" d="M 713.5,427.5 C 713.5,522.833 713.5,618.167 713.5,713.5C 665.833,713.5 618.167,713.5 570.5,713.5C 570.5,618.167 570.5,522.833 570.5,427.5C 618.167,427.5 665.833,427.5 713.5,427.5 Z"/></g>
<g><path style="opacity:1" fill="#9159a3" d="M 713.5,427.5 C 808.833,427.5 904.167,427.5 999.5,427.5C 999.5,522.833 999.5,618.167 999.5,713.5C 904.167,713.5 808.833,713.5 713.5,713.5C 713.5,618.167 713.5,522.833 713.5,427.5 Z"/></g>
</svg>
