<?xml version="1.0" encoding="UTF-8"?>
<!DOCTYPE svg PUBLIC "-//W3C//DTD SVG 1.1//EN" "http://www.w3.org/Graphics/SVG/1.1/DTD/svg11.dtd">
<svg xmlns="http://www.w3.org/2000/svg" version="1.1" width="1000px" height="954px" style="shape-rendering:geometricPrecision; text-rendering:geometricPrecision; image-rendering:optimizeQuality; fill-rule:evenodd; clip-rule:evenodd" xmlns:xlink="http://www.w3.org/1999/xlink">
<g><path style="opacity:1" fill="#a3962c" d="M 363.5,-0.5 C 408.833,-0.5 454.167,-0.5 499.5,-0.5C 499.5,14.5 499.5,29.5 499.5,44.5C 484.5,44.5 469.5,44.5 454.5,44.5C 454.5,59.8333 454.5,75.1667 454.5,90.5C 439.167,90.5 423.833,90.5 408.5,90.5C 393.5,90.5 378.5,90.5 363.5,90.5C 363.5,75.1667 363.5,59.8333 363.5,44.5C 363.5,29.5 363.5,14.5 363.5,-0.5 Z"/></g>
<g><path style="opacity:1" fill="#d9c83c" d="M 499.5,-0.5 C 529.833,-0.5 560.167,-0.5 590.5,-0.5C 590.5,14.5 590.5,29.5 590.5,44.5C 575.167,44.5 559.833,44.5 544.5,44.5C 529.5,44.5 514.5,44.5 499.5,44.5C 499.5,29.5 499.5,14.5 499.5,-0.5 Z"/></g>
<g><path style="opacity:1" fill="#892518" d="M -0.5,44.5 C 120.833,44.5 242.167,44.5 363.5,44.5C 363.5,59.8333 363.5,75.1667 363.5,90.5C 378.5,90.5 393.5,90.5 408.5,90.5C 408.5,105.5 408.5,120.5 408.5,135.5C 363.167,135.5 317.833,135.5 272.5,135.5C 272.5,181.167 272.5,226.833 272.5,272.5C 242.167,272.5 211.833,272.5 181.5,272.5C 166.167,272.5 150.833,272.5 135.5,272.5C 135.5,226.833 135.5,181.167 135.5,135.5C 105.167,135.5 74.8333,135.5 44.5,135.5C 44.5,181.167 44.5,226.833 44.5,272.5C 29.5,272.5 14.5,272.5 -0.5,272.5C -0.5,196.5 -0.5,120.5 -0.5,44.5 Z"/></g>
<g><path style="opacity:1" fill="#2b724b" d="M 499.5,44.5 C 514.5,44.5 529.5,44.5 544.5,44.5C 544.5,120.5 544.5,196.5 544.5,272.5C 514.5,272.5 484.5,272.5 454.5,272.5C 454.5,226.833 454.5,181.167 454.5,135.5C 454.5,120.5 454.5,105.5 454.5,90.5C 454.5,75.1667 454.5,59.8333 454.5,44.5C 469.5,44.5 484.5,44.5 499.5,44.5 Z"/></g>
<g><path style="opacity:1" fill="#399745" d="M 544.5,44.5 C 559.833,44.5 575.167,44.5 590.5,44.5C 651.167,44.5 711.833,44.5 772.5,44.5C 772.5,120.5 772.5,196.5 772.5,272.5C 757.167,272.5 741.833,272.5 726.5,272.5C 696.167,272.5 665.833,272.5 635.5,272.5C 605.167,272.5 574.833,272.5 544.5,272.5C 544.5,196.5 544.5,120.5 544.5,44.5 Z"/></g>
<g><path style="opacity:1" fill="#d9c83c" d="M 408.5,90.5 C 423.833,90.5 439.167,90.5 454.5,90.5C 454.5,105.5 454.5,120.5 454.5,135.5C 439.167,135.5 423.833,135.5 408.5,135.5C 408.5,120.5 408.5,105.5 408.5,90.5 Z"/></g>
<g><path style="opacity:1" fill="#7b120c" d="M 135.5,272.5 C 105.167,272.5 74.8333,272.5 44.5,272.5C 44.5,226.833 44.5,181.167 44.5,135.5C 74.8333,135.5 105.167,135.5 135.5,135.5C 135.5,181.167 135.5,226.833 135.5,272.5 Z"/></g>
<g><path style="opacity:1" fill="#300603" d="M 408.5,135.5 C 423.833,135.5 439.167,135.5 454.5,135.5C 454.5,181.167 454.5,226.833 454.5,272.5C 484.5,272.5 514.5,272.5 544.5,272.5C 574.833,272.5 605.167,272.5 635.5,272.5C 635.5,302.5 635.5,332.5 635.5,362.5C 635.5,408.167 635.5,453.833 635.5,499.5C 620.5,499.5 605.5,499.5 590.5,499.5C 590.5,453.833 590.5,408.167 590.5,362.5C 514.833,362.5 439.167,362.5 363.5,362.5C 333.167,362.5 302.833,362.5 272.5,362.5C 272.5,332.5 272.5,302.5 272.5,272.5C 272.5,226.833 272.5,181.167 272.5,135.5C 317.833,135.5 363.167,135.5 408.5,135.5 Z"/></g>
<g><path style="opacity:1" fill="#a3962c" d="M -0.5,272.5 C 14.5,272.5 29.5,272.5 44.5,272.5C 74.8333,272.5 105.167,272.5 135.5,272.5C 150.833,272.5 166.167,272.5 181.5,272.5C 181.5,302.5 181.5,332.5 181.5,362.5C 166.167,362.5 150.833,362.5 135.5,362.5C 105.167,362.5 74.8333,362.5 44.5,362.5C 29.5,362.5 14.5,362.5 -0.5,362.5C -0.5,332.5 -0.5,302.5 -0.5,272.5 Z"/></g>
<g><path style="opacity:1" fill="#d9c83c" d="M 181.5,272.5 C 211.833,272.5 242.167,272.5 272.5,272.5C 272.5,302.5 272.5,332.5 272.5,362.5C 242.167,362.5 211.833,362.5 181.5,362.5C 181.5,332.5 181.5,302.5 181.5,272.5 Z"/></g>
<g><path style="opacity:1" fill="#d9c83c" d="M 635.5,272.5 C 665.833,272.5 696.167,272.5 726.5,272.5C 726.5,302.5 726.5,332.5 726.5,362.5C 711.5,362.5 696.5,362.5 681.5,362.5C 666.167,362.5 650.833,362.5 635.5,362.5C 635.5,332.5 635.5,302.5 635.5,272.5 Z"/></g>
<g><path style="opacity:1" fill="#892518" d="M -0.5,362.5 C 14.5,362.5 29.5,362.5 44.5,362.5C 44.5,408.167 44.5,453.833 44.5,499.5C 74.8333,499.5 105.167,499.5 135.5,499.5C 135.5,453.833 135.5,408.167 135.5,362.5C 150.833,362.5 166.167,362.5 181.5,362.5C 211.833,362.5 242.167,362.5 272.5,362.5C 272.5,438.5 272.5,514.5 272.5,590.5C 302.833,590.5 333.167,590.5 363.5,590.5C 393.833,590.5 424.167,590.5 454.5,590.5C 454.5,681.167 454.5,771.833 454.5,862.5C 439.167,862.5 423.833,862.5 408.5,862.5C 408.5,801.833 408.5,741.167 408.5,680.5C 347.833,680.5 287.167,680.5 226.5,680.5C 226.5,741.167 226.5,801.833 226.5,862.5C 211.5,862.5 196.5,862.5 181.5,862.5C 181.5,771.833 181.5,681.167 181.5,590.5C 120.833,590.5 60.1667,590.5 -0.5,590.5C -0.5,514.5 -0.5,438.5 -0.5,362.5 Z"/></g>
<g><path style="opacity:1" fill="#7b120c" d="M 44.5,362.5 C 74.8333,362.5 105.167,362.5 135.5,362.5C 135.5,408.167 135.5,453.833 135.5,499.5C 105.167,499.5 74.8333,499.5 44.5,499.5C 44.5,453.833 44.5,408.167 44.5,362.5 Z"/></g>
<g><path style="opacity:1" fill="#98263c" d="M 272.5,362.5 C 302.833,362.5 333.167,362.5 363.5,362.5C 363.5,438.5 363.5,514.5 363.5,590.5C 333.167,590.5 302.833,590.5 272.5,590.5C 272.5,514.5 272.5,438.5 272.5,362.5 Z"/></g>
<g><path style="opacity:1" fill="#c93c31" d="M 363.5,362.5 C 439.167,362.5 514.833,362.5 590.5,362.5C 590.5,408.167 590.5,453.833 590.5,499.5C 590.5,529.833 590.5,560.167 590.5,590.5C 545.167,590.5 499.833,590.5 454.5,590.5C 424.167,590.5 393.833,590.5 363.5,590.5C 363.5,514.5 363.5,438.5 363.5,362.5 Z"/></g>
<g><path style="opacity:1" fill="#892518" d="M 635.5,362.5 C 650.833,362.5 666.167,362.5 681.5,362.5C 681.5,438.5 681.5,514.5 681.5,590.5C 651.167,590.5 620.833,590.5 590.5,590.5C 590.5,560.167 590.5,529.833 590.5,499.5C 605.5,499.5 620.5,499.5 635.5,499.5C 635.5,453.833 635.5,408.167 635.5,362.5 Z"/></g>
<g><path style="opacity:1" fill="#7a4474" d="M 681.5,362.5 C 696.5,362.5 711.5,362.5 726.5,362.5C 741.833,362.5 757.167,362.5 772.5,362.5C 772.5,438.5 772.5,514.5 772.5,590.5C 742.167,590.5 711.833,590.5 681.5,590.5C 681.5,514.5 681.5,438.5 681.5,362.5 Z"/></g>
<g><path style="opacity:1" fill="#9159a3" d="M 772.5,362.5 C 848.167,362.5 923.833,362.5 999.5,362.5C 999.5,438.5 999.5,514.5 999.5,590.5C 923.833,590.5 848.167,590.5 772.5,590.5C 772.5,514.5 772.5,438.5 772.5,362.5 Z"/></g>
<g><path style="opacity:1" fill="#b53020" d="M 454.5,590.5 C 499.833,590.5 545.167,590.5 590.5,590.5C 620.833,590.5 651.167,590.5 681.5,590.5C 711.833,590.5 742.167,590.5 772.5,590.5C 848.167,590.5 923.833,590.5 999.5,590.5C 999.5,681.167 999.5,771.833 999.5,862.5C 969.167,862.5 938.833,862.5 908.5,862.5C 908.5,801.833 908.5,741.167 908.5,680.5C 787.167,680.5 665.833,680.5 544.5,680.5C 544.5,741.167 544.5,801.833 544.5,862.5C 514.5,862.5 484.5,862.5 454.5,862.5C 454.5,771.833 454.5,681.167 454.5,590.5 Z"/></g>
<g><path style="opacity:1" fill="#7b120c" d="M 408.5,862.5 C 347.833,862.5 287.167,862.5 226.5,862.5C 226.5,801.833 226.5,741.167 226.5,680.5C 287.167,680.5 347.833,680.5 408.5,680.5C 408.5,741.167 408.5,801.833 408.5,862.5 Z"/></g>
<g><path style="opacity:1" fill="#a31710" d="M 908.5,862.5 C 787.167,862.5 665.833,862.5 544.5,862.5C 544.5,801.833 544.5,741.167 544.5,680.5C 665.833,680.5 787.167,680.5 908.5,680.5C 908.5,741.167 908.5,801.833 908.5,862.5 Z"/></g>
<g><path style="opacity:1" fill="#390300" d="M 181.5,862.5 C 196.5,862.5 211.5,862.5 226.5,862.5C 287.167,862.5 347.833,862.5 408.5,862.5C 423.833,862.5 439.167,862.5 454.5,862.5C 454.5,892.833 454.5,923.167 454.5,953.5C 363.5,953.5 272.5,953.5 181.5,953.5C 181.5,923.167 181.5,892.833 181.5,862.5 Z"/></g>
<g><path style="opacity:1" fill="#4b0300" d="M 454.5,862.5 C 484.5,862.5 514.5,862.5 544.5,862.5C 665.833,862.5 787.167,862.5 908.5,862.5C 938.833,862.5 969.167,862.5 999.5,862.5C 999.5,892.833 999.5,923.167 999.5,953.5C 817.833,953.5 636.167,953.5 454.5,953.5C 454.5,923.167 454.5,892.833 454.5,862.5 Z"/></g>
</svg>
