<?xml version="1.0" encoding="UTF-8"?>
<!DOCTYPE svg PUBLIC "-//W3C//DTD SVG 1.1//EN" "http://www.w3.org/Graphics/SVG/1.1/DTD/svg11.dtd">
<svg xmlns="http://www.w3.org/2000/svg" version="1.1" width="1000px" height="667px" style="shape-rendering:geometricPrecision; text-rendering:geometricPrecision; image-rendering:optimizeQuality; fill-rule:evenodd; clip-rule:evenodd" xmlns:xlink="http://www.w3.org/1999/xlink">
<g><path style="opacity:1" fill="#729d52" d="M -0.5,-0.5 C 55.1667,-0.5 110.833,-0.5 166.5,-0.5C 166.5,36.8333 166.5,74.1667 166.5,111.5C 148.167,111.5 129.833,111.5 111.5,111.5C 111.5,185.5 111.5,259.5 111.5,333.5C 92.8333,333.5 74.1667,333.5 55.5,333.5C 55.5,296.5 55.5,259.5 55.5,222.5C 36.8333,222.5 18.1667,222.5 -0.5,222.5C -0.5,148.167 -0.5,73.8333 -0.5,-0.5 Z"/></g>
<g><path style="opacity:1" fill="#3385b0" d="M 166.5,-0.5 C 222.167,-0.5 277.833,-0.5 333.5,-0.5C 333.5,36.8333 333.5,74.1667 333.5,111.5C 314.833,111.5 296.167,111.5 277.5,111.5C 277.5,148.5 277.5,185.5 277.5,222.5C 296.167,222.5 314.833,222.5 333.5,222.5C 333.5,259.5 333.5,296.5 333.5,333.5C 333.5,444.5 333.5,555.5 333.5,666.5C 296.5,666.5 259.5,666.5 222.5,666.5C 222.5,629.5 222.5,592.5 222.5,555.5C 240.833,555.5 259.167,555.5 277.5,555.5C 277.5,518.5 277.5,481.5 277.5,444.5C 259.167,444.5 240.833,444.5 222.5,444.5C 222.5,407.5 222.5,370.5 222.5,333.5C 185.5,333.5 148.5,333.5 111.5,333.5C 111.5,259.5 111.5,185.5 111.5,111.5C 129.833,111.5 148.167,111.5 166.5,111.5C 166.5,74.1667 166.5,36.8333 166.5,-0.5 Z"/></g>
<g><path style="opacity:1" fill="#98d16e" d="M 333.5,-0.5 C 370.5,-0.5 407.5,-0.5 444.5,-0.5C 444.5,36.8333 444.5,74.1667 444.5,111.5C 518.833,111.5 593.167,111.5 667.5,111.5C 667.5,222.5 667.5,333.5 667.5,444.5C 630.167,444.5 592.833,444.5 555.5,444.5C 555.5,481.5 555.5,518.5 555.5,555.5C 518.5,555.5 481.5,555.5 444.5,555.5C 444.5,481.5 444.5,407.5 444.5,333.5C 407.5,333.5 370.5,333.5 333.5,333.5C 333.5,296.5 333.5,259.5 333.5,222.5C 333.5,185.5 333.5,148.5 333.5,111.5C 333.5,74.1667 333.5,36.8333 333.5,-0.5 Z"/></g>
<g><path style="opacity:1" fill="#44b1ea" d="M 444.5,-0.5 C 555.833,-0.5 667.167,-0.5 778.5,-0.5C 778.5,73.8333 778.5,148.167 778.5,222.5C 815.5,222.5 852.5,222.5 889.5,222.5C 889.5,259.5 889.5,296.5 889.5,333.5C 926.167,333.5 962.833,333.5 999.5,333.5C 999.5,444.5 999.5,555.5 999.5,666.5C 962.833,666.5 926.167,666.5 889.5,666.5C 889.5,592.5 889.5,518.5 889.5,444.5C 852.5,444.5 815.5,444.5 778.5,444.5C 778.5,481.5 778.5,518.5 778.5,555.5C 741.5,555.5 704.5,555.5 667.5,555.5C 667.5,592.5 667.5,629.5 667.5,666.5C 556.167,666.5 444.833,666.5 333.5,666.5C 333.5,555.5 333.5,444.5 333.5,333.5C 370.5,333.5 407.5,333.5 444.5,333.5C 444.5,407.5 444.5,481.5 444.5,555.5C 481.5,555.5 518.5,555.5 555.5,555.5C 555.5,518.5 555.5,481.5 555.5,444.5C 592.833,444.5 630.167,444.5 667.5,444.5C 667.5,333.5 667.5,222.5 667.5,111.5C 593.167,111.5 518.833,111.5 444.5,111.5C 444.5,74.1667 444.5,36.8333 444.5,-0.5 Z"/></g>
<g><path style="opacity:1" fill="#98d16e" d="M 778.5,-0.5 C 852.167,-0.5 925.833,-0.5 999.5,-0.5C 999.5,110.833 999.5,222.167 999.5,333.5C 962.833,333.5 926.167,333.5 889.5,333.5C 889.5,296.5 889.5,259.5 889.5,222.5C 852.5,222.5 815.5,222.5 778.5,222.5C 778.5,148.167 778.5,73.8333 778.5,-0.5 Z"/></g>
<g><path style="opacity:1" fill="#729d52" d="M 333.5,111.5 C 333.5,148.5 333.5,185.5 333.5,222.5C 314.833,222.5 296.167,222.5 277.5,222.5C 277.5,185.5 277.5,148.5 277.5,111.5C 296.167,111.5 314.833,111.5 333.5,111.5 Z"/></g>
<g><path style="opacity:1" fill="#3385b0" d="M -0.5,222.5 C 18.1667,222.5 36.8333,222.5 55.5,222.5C 55.5,259.5 55.5,296.5 55.5,333.5C 74.1667,333.5 92.8333,333.5 111.5,333.5C 111.5,370.5 111.5,407.5 111.5,444.5C 92.8333,444.5 74.1667,444.5 55.5,444.5C 55.5,481.5 55.5,518.5 55.5,555.5C 92.5,555.5 129.5,555.5 166.5,555.5C 166.5,592.5 166.5,629.5 166.5,666.5C 110.833,666.5 55.1667,666.5 -0.5,666.5C -0.5,518.5 -0.5,370.5 -0.5,222.5 Z"/></g>
<g><path style="opacity:1" fill="#729d52" d="M 111.5,333.5 C 148.5,333.5 185.5,333.5 222.5,333.5C 222.5,370.5 222.5,407.5 222.5,444.5C 240.833,444.5 259.167,444.5 277.5,444.5C 277.5,481.5 277.5,518.5 277.5,555.5C 259.167,555.5 240.833,555.5 222.5,555.5C 222.5,592.5 222.5,629.5 222.5,666.5C 203.833,666.5 185.167,666.5 166.5,666.5C 166.5,629.5 166.5,592.5 166.5,555.5C 129.5,555.5 92.5,555.5 55.5,555.5C 55.5,518.5 55.5,481.5 55.5,444.5C 74.1667,444.5 92.8333,444.5 111.5,444.5C 111.5,407.5 111.5,370.5 111.5,333.5 Z"/></g>
<g><path style="opacity:1" fill="#98d16e" d="M 889.5,666.5 C 815.5,666.5 741.5,666.5 667.5,666.5C 667.5,629.5 667.5,592.5 667.5,555.5C 704.5,555.5 741.5,555.5 778.5,555.5C 778.5,518.5 778.5,481.5 778.5,444.5C 815.5,444.5 852.5,444.5 889.5,444.5C 889.5,518.5 889.5,592.5 889.5,666.5 Z"/></g>
</svg>
