<svg viewBox="0 0 900 600" xmlns="http://www.w3.org/2000/svg"><rect x="0" y="0" width="350" height="600" fill="#3385b0" /><rect x="0" y="0" width="100" height="200" fill="#739d53" /><rect x="50" y="150" width="50" height="150" fill="#739d53" /><rect x="50" y="0" width="100" height="100" fill="#739d53" /><rect x="50" y="400" width="200" height="100" fill="#739d53" /><rect x="150" y="450" width="50" height="150" fill="#739d53" /><rect x="100" y="300" width="100" height="150" fill="#739d53" /><rect x="250" y="100" width="100" height="100" fill="#739d53" /><rect x="300" y="0" width="600" height="600" fill="#44b1ea" /><rect x="300" y="0" width="100" height="300" fill="#99d16f" /><rect x="350" y="100" width="250" height="200" fill="#99d16f" /><rect x="400" y="250" width="200" height="150" fill="#99d16f" /><rect x="400" y="350" width="100" height="150" fill="#99d16f" /><rect x="600" y="500" width="150" height="100" fill="#99d16f" /><rect x="700" y="400" width="100" height="200" fill="#99d16f" /><rect x="700" y="0" width="200" height="200" fill="#99d16f" /><rect x="800" y="150" width="100" height="150" fill="#99d16f" /></svg>