<?xml version="1.0" encoding="UTF-8"?>
<!DOCTYPE svg PUBLIC "-//W3C//DTD SVG 1.1//EN" "http://www.w3.org/Graphics/SVG/1.1/DTD/svg11.dtd">
<svg xmlns="http://www.w3.org/2000/svg" version="1.1" width="916px" height="1000px" style="shape-rendering:geometricPrecision; text-rendering:geometricPrecision; image-rendering:optimizeQuality; fill-rule:evenodd; clip-rule:evenodd" xmlns:xlink="http://www.w3.org/1999/xlink">
<g><path style="opacity:1" fill="#00908f" d="M 499.5,-0.5 C 527.167,-0.5 554.833,-0.5 582.5,-0.5C 582.5,55.1667 582.5,110.833 582.5,166.5C 554.833,166.5 527.167,166.5 499.5,166.5C 499.5,110.833 499.5,55.1667 499.5,-0.5 Z"/></g>
<g><path style="opacity:1" fill="#00bfa4" d="M 582.5,-0.5 C 637.833,-0.5 693.167,-0.5 748.5,-0.5C 748.5,55.1667 748.5,110.833 748.5,166.5C 804.167,166.5 859.833,166.5 915.5,166.5C 915.5,221.833 915.5,277.167 915.5,332.5C 859.833,332.5 804.167,332.5 748.5,332.5C 748.5,443.833 748.5,555.167 748.5,666.5C 693.167,666.5 637.833,666.5 582.5,666.5C 582.5,555.167 582.5,443.833 582.5,332.5C 526.833,332.5 471.167,332.5 415.5,332.5C 415.5,277.167 415.5,221.833 415.5,166.5C 443.5,166.5 471.5,166.5 499.5,166.5C 527.167,166.5 554.833,166.5 582.5,166.5C 582.5,110.833 582.5,55.1667 582.5,-0.5 Z"/></g>
<g><path style="opacity:1" fill="#00908f" d="M 415.5,166.5 C 415.5,221.833 415.5,277.167 415.5,332.5C 387.833,332.5 360.167,332.5 332.5,332.5C 332.5,277.167 332.5,221.833 332.5,166.5C 360.167,166.5 387.833,166.5 415.5,166.5 Z"/></g>
<g><path style="opacity:1" fill="#00908f" d="M 249.5,332.5 C 249.5,443.833 249.5,555.167 249.5,666.5C 221.833,666.5 194.167,666.5 166.5,666.5C 166.5,555.167 166.5,443.833 166.5,332.5C 194.167,332.5 221.833,332.5 249.5,332.5 Z"/></g>
<g><path style="opacity:1" fill="#00bfa4" d="M 249.5,332.5 C 277.167,332.5 304.833,332.5 332.5,332.5C 360.167,332.5 387.833,332.5 415.5,332.5C 415.5,443.833 415.5,555.167 415.5,666.5C 360.167,666.5 304.833,666.5 249.5,666.5C 249.5,555.167 249.5,443.833 249.5,332.5 Z"/></g>
<g><path style="opacity:1" fill="#175870" d="M 415.5,332.5 C 471.167,332.5 526.833,332.5 582.5,332.5C 582.5,443.833 582.5,555.167 582.5,666.5C 526.833,666.5 471.167,666.5 415.5,666.5C 415.5,555.167 415.5,443.833 415.5,332.5 Z"/></g>
<g><path style="opacity:1" fill="#00908f" d="M -0.5,666.5 C 27.1667,666.5 54.8333,666.5 82.5,666.5C 82.5,721.833 82.5,777.167 82.5,832.5C 54.8333,832.5 27.1667,832.5 -0.5,832.5C -0.5,777.167 -0.5,721.833 -0.5,666.5 Z"/></g>
<g><path style="opacity:1" fill="#00bfa4" d="M 82.5,666.5 C 110.5,666.5 138.5,666.5 166.5,666.5C 194.167,666.5 221.833,666.5 249.5,666.5C 249.5,721.833 249.5,777.167 249.5,832.5C 193.833,832.5 138.167,832.5 82.5,832.5C 82.5,777.167 82.5,721.833 82.5,666.5 Z"/></g>
<g><path style="opacity:1" fill="#175870" d="M 249.5,666.5 C 304.833,666.5 360.167,666.5 415.5,666.5C 415.5,721.833 415.5,777.167 415.5,832.5C 360.167,832.5 304.833,832.5 249.5,832.5C 249.5,777.167 249.5,721.833 249.5,666.5 Z"/></g>
<g><path style="opacity:1" fill="#00bfa4" d="M 415.5,666.5 C 471.167,666.5 526.833,666.5 582.5,666.5C 582.5,721.833 582.5,777.167 582.5,832.5C 526.833,832.5 471.167,832.5 415.5,832.5C 415.5,777.167 415.5,721.833 415.5,666.5 Z"/></g>
<g><path style="opacity:1" fill="#134062" d="M -0.5,832.5 C 27.1667,832.5 54.8333,832.5 82.5,832.5C 82.5,888.167 82.5,943.833 82.5,999.5C 54.8333,999.5 27.1667,999.5 -0.5,999.5C -0.5,943.833 -0.5,888.167 -0.5,832.5 Z"/></g>
<g><path style="opacity:1" fill="#175870" d="M 82.5,832.5 C 138.167,832.5 193.833,832.5 249.5,832.5C 249.5,888.167 249.5,943.833 249.5,999.5C 193.833,999.5 138.167,999.5 82.5,999.5C 82.5,943.833 82.5,888.167 82.5,832.5 Z"/></g>
</svg>
