<svg viewBox="0 0 1000 1000" xmlns="http://www.w3.org/2000/svg"><rect x="750" y="400" width="100" height="150" fill="#24120c" /><rect x="750" y="500" width="100" height="100" fill="#006868" /><rect x="750" y="550" width="100" height="100" fill="#995a3c" /><rect x="750" y="600" width="100" height="100" fill="#302872" /><rect x="700" y="350" width="100" height="150" fill="#372011" /><rect x="700" y="450" width="100" height="100" fill="#b07e64" /><rect x="700" y="500" width="100" height="150" fill="#00afaf" /><rect x="700" y="600" width="100" height="100" fill="#463aa5" /><rect x="150" y="550" width="50" height="150" fill="#c4a093" /><rect x="100" y="500" width="150" height="100" fill="#e0380a" /><rect x="200" y="500" width="50" height="50" fill="#c4a093" /><rect x="100" y="500" width="50" height="50" fill="#ffdccf" /><rect x="400" y="350" width="150" height="350" fill="#4e361e" /><rect x="0" y="650" width="1000" height="350" fill="#4e361e" /><rect x="450" y="450" width="100" height="250" fill="#7e5021" /><rect x="0" y="650" width="1000" height="100" fill="#2f9817" /><rect x="200" y="700" width="100" height="150" fill="#2f9817" /><rect x="800" y="700" width="100" height="150" fill="#2f9817" /><rect x="250" y="0" width="200" height="250" fill="#367026" /><rect x="400" y="0" width="300" height="250" fill="#35ac17" /><rect x="150" y="200" width="250" height="200" fill="#2f6022" /><rect x="350" y="200" width="450" height="200" fill="#2f9817" /></svg>