<?xml version="1.0" encoding="UTF-8"?>
<!DOCTYPE svg PUBLIC "-//W3C//DTD SVG 1.1//EN" "http://www.w3.org/Graphics/SVG/1.1/DTD/svg11.dtd">
<svg xmlns="http://www.w3.org/2000/svg" version="1.1" width="256px" height="256px" style="shape-rendering:geometricPrecision; text-rendering:geometricPrecision; image-rendering:optimizeQuality; fill-rule:evenodd; clip-rule:evenodd" xmlns:xlink="http://www.w3.org/1999/xlink">
<g><path style="opacity:1" fill="#515650" d="M 54.5,-0.5 C 60.5,-0.5 66.5,-0.5 72.5,-0.5C 72.5,11.8333 72.5,24.1667 72.5,36.5C 66.5,36.5 60.5,36.5 54.5,36.5C 54.5,24.1667 54.5,11.8333 54.5,-0.5 Z"/></g>
<g><path style="opacity:1" fill="#6b716a" d="M 72.5,-0.5 C 109.167,-0.5 145.833,-0.5 182.5,-0.5C 182.5,11.8333 182.5,24.1667 182.5,36.5C 194.5,36.5 206.5,36.5 218.5,36.5C 218.5,60.8333 218.5,85.1667 218.5,109.5C 206.5,109.5 194.5,109.5 182.5,109.5C 170.167,109.5 157.833,109.5 145.5,109.5C 133.5,109.5 121.5,109.5 109.5,109.5C 97.1667,109.5 84.8333,109.5 72.5,109.5C 66.5,109.5 60.5,109.5 54.5,109.5C 48.5,109.5 42.5,109.5 36.5,109.5C 36.5,85.1667 36.5,60.8333 36.5,36.5C 42.5,36.5 48.5,36.5 54.5,36.5C 60.5,36.5 66.5,36.5 72.5,36.5C 72.5,24.1667 72.5,11.8333 72.5,-0.5 Z"/></g>
<g><path style="opacity:1" fill="#515650" d="M 36.5,36.5 C 36.5,60.8333 36.5,85.1667 36.5,109.5C 30.1667,109.5 23.8333,109.5 17.5,109.5C 17.5,85.1667 17.5,60.8333 17.5,36.5C 23.8333,36.5 30.1667,36.5 36.5,36.5 Z"/></g>
<g><path style="opacity:1" fill="#fe9950" d="M 72.5,36.5 C 84.8333,36.5 97.1667,36.5 109.5,36.5C 109.5,48.8333 109.5,61.1667 109.5,73.5C 97.1667,73.5 84.8333,73.5 72.5,73.5C 72.5,61.1667 72.5,48.8333 72.5,36.5 Z"/></g>
<g><path style="opacity:1" fill="#fe9950" d="M 182.5,36.5 C 182.5,48.8333 182.5,61.1667 182.5,73.5C 170.167,73.5 157.833,73.5 145.5,73.5C 145.5,61.1667 145.5,48.8333 145.5,36.5C 157.833,36.5 170.167,36.5 182.5,36.5 Z"/></g>
<g><path style="opacity:1" fill="#3d443c" d="M 54.5,109.5 C 60.5,109.5 66.5,109.5 72.5,109.5C 72.5,121.833 72.5,134.167 72.5,146.5C 66.5,146.5 60.5,146.5 54.5,146.5C 54.5,134.167 54.5,121.833 54.5,109.5 Z"/></g>
<g><path style="opacity:1" fill="#515a50" d="M 72.5,109.5 C 84.8333,109.5 97.1667,109.5 109.5,109.5C 109.5,121.833 109.5,134.167 109.5,146.5C 103.5,146.5 97.5,146.5 91.5,146.5C 85.1667,146.5 78.8333,146.5 72.5,146.5C 72.5,134.167 72.5,121.833 72.5,109.5 Z"/></g>
<g><path style="opacity:1" fill="#d57b5a" d="M 109.5,109.5 C 121.5,109.5 133.5,109.5 145.5,109.5C 145.5,121.833 145.5,134.167 145.5,146.5C 157.833,146.5 170.167,146.5 182.5,146.5C 182.5,158.5 182.5,170.5 182.5,182.5C 170.167,182.5 157.833,182.5 145.5,182.5C 133.5,182.5 121.5,182.5 109.5,182.5C 109.5,170.5 109.5,158.5 109.5,146.5C 109.5,134.167 109.5,121.833 109.5,109.5 Z"/></g>
<g><path style="opacity:1" fill="#515a50" d="M 145.5,109.5 C 157.833,109.5 170.167,109.5 182.5,109.5C 182.5,121.833 182.5,134.167 182.5,146.5C 170.167,146.5 157.833,146.5 145.5,146.5C 145.5,134.167 145.5,121.833 145.5,109.5 Z"/></g>
<g><path style="opacity:1" fill="#a15d44" d="M 91.5,146.5 C 97.5,146.5 103.5,146.5 109.5,146.5C 109.5,158.5 109.5,170.5 109.5,182.5C 103.5,182.5 97.5,182.5 91.5,182.5C 91.5,170.5 91.5,158.5 91.5,146.5 Z"/></g>
<g><path style="opacity:1" fill="#914428" d="M 91.5,182.5 C 97.5,182.5 103.5,182.5 109.5,182.5C 109.5,206.833 109.5,231.167 109.5,255.5C 103.5,255.5 97.5,255.5 91.5,255.5C 91.5,231.167 91.5,206.833 91.5,182.5 Z"/></g>
<g><path style="opacity:1" fill="#c05a35" d="M 109.5,182.5 C 121.5,182.5 133.5,182.5 145.5,182.5C 145.5,194.833 145.5,207.167 145.5,219.5C 157.833,219.5 170.167,219.5 182.5,219.5C 182.5,231.5 182.5,243.5 182.5,255.5C 158.167,255.5 133.833,255.5 109.5,255.5C 109.5,231.167 109.5,206.833 109.5,182.5 Z"/></g>
</svg>
