<svg viewBox="0 0 1250 1050" xmlns="http://www.w3.org/2000/svg"><rect x="200" y="50" width="600" height="650" fill="#1d1a14" /><rect x="300" y="150" width="400" height="400" fill="#693f05" /><rect x="0" y="50" width="250" height="600" fill="#1d1a14" /><rect x="50" y="150" width="100" height="400" fill="#865107" /><rect x="400" y="0" width="200" height="100" fill="#767676" /><rect x="550" y="0" width="100" height="100" fill="#a5a5a5" /><rect x="150" y="150" width="350" height="500" fill="#2a2c3d" /><rect x="1100" y="50" width="150" height="300" fill="#dfb534" /><rect x="950" y="50" width="200" height="150" fill="#a88928" /><rect x="450" y="150" width="700" height="500" fill="#373a50" /><rect x="400" y="350" width="100" height="100" fill="#aead9c" /><rect x="450" y="350" width="200" height="100" fill="#e6e5ce" /><rect x="550" y="350" width="100" height="100" fill="#181423" /><rect x="950" y="300" width="200" height="150" fill="#e6e5ce" /><rect x="900" y="350" width="150" height="100" fill="#181423" /><rect x="100" y="50" width="300" height="100" fill="#a88928" /><rect x="150" y="100" width="50" height="150" fill="#a88928" /><rect x="250" y="100" width="50" height="150" fill="#a88928" /><rect x="350" y="50" width="100" height="300" fill="#dfb534" /><rect x="350" y="250" width="300" height="100" fill="#dfb534" /><rect x="950" y="250" width="300" height="100" fill="#dfb534" /><rect x="750" y="350" width="100" height="100" fill="#8e1f29" /><rect x="800" y="350" width="100" height="200" fill="#8e1f29" /><rect x="850" y="350" width="100" height="200" fill="#bc3329" /><rect x="200" y="650" width="350" height="400" fill="#1d1a14" /><rect x="250" y="750" width="200" height="200" fill="#865107" /><rect x="500" y="650" width="600" height="400" fill="#453c2f" /><rect x="600" y="750" width="400" height="200" fill="#a76e1f" /></svg>