<svg viewBox="0 0 1150 600" xmlns="http://www.w3.org/2000/svg"><rect x="50" y="100" width="350" height="500" fill="#2a2c3d" /><rect x="1000" y="0" width="150" height="300" fill="#dfb534" /><rect x="850" y="0" width="200" height="150" fill="#a88928" /><rect x="350" y="100" width="700" height="500" fill="#373a50" /><rect x="300" y="300" width="100" height="100" fill="#aead9c" /><rect x="350" y="300" width="200" height="100" fill="#e6e5ce" /><rect x="450" y="300" width="100" height="100" fill="#181423" /><rect x="850" y="250" width="200" height="150" fill="#e6e5ce" /><rect x="800" y="300" width="150" height="100" fill="#181423" /><rect x="0" y="0" width="300" height="100" fill="#a88928" /><rect x="50" y="50" width="50" height="150" fill="#a88928" /><rect x="150" y="50" width="50" height="150" fill="#a88928" /><rect x="250" y="0" width="100" height="300" fill="#dfb534" /><rect x="250" y="200" width="300" height="100" fill="#dfb534" /><rect x="850" y="200" width="300" height="100" fill="#dfb534" /><rect x="650" y="300" width="100" height="100" fill="#8e1f29" /><rect x="700" y="300" width="100" height="200" fill="#8e1f29" /><rect x="750" y="300" width="100" height="200" fill="#bc3329" /></svg>