<svg viewBox="0 0 900 600" xmlns="http://www.w3.org/2000/svg"><rect x="0" y="0" width="350" height="600" fill="#564328" /><rect x="0" y="500" width="50" height="100" fill="#715936" /><rect x="100" y="450" width="100" height="150" fill="#382d1c" /><rect x="50" y="400" width="150" height="100" fill="#715936" /><rect x="250" y="400" width="100" height="100" fill="#715936" /><rect x="200" y="250" width="50" height="150" fill="#382d1c" /><rect x="0" y="200" width="50" height="150" fill="#715936" /><rect x="0" y="300" width="100" height="100" fill="#382d1c" /><rect x="100" y="200" width="150" height="100" fill="#715936" /><rect x="200" y="100" width="150" height="100" fill="#382d1c" /><rect x="50" y="100" width="100" height="100" fill="#382d1c" /><rect x="0" y="0" width="50" height="100" fill="#705835" /><rect x="100" y="0" width="150" height="100" fill="#705835" /><rect x="300" y="0" width="600" height="600" fill="#735935" /><rect x="700" y="450" width="100" height="150" fill="#987849" /><rect x="750" y="400" width="150" height="100" fill="#987849" /><rect x="400" y="450" width="100" height="150" fill="#4c3d26" /><rect x="300" y="400" width="150" height="100" fill="#987849" /><rect x="400" y="0" width="100" height="150" fill="#987849" /><rect x="300" y="100" width="150" height="100" fill="#4b3c25" /><rect x="700" y="0" width="100" height="150" fill="#4b3c25" /><rect x="750" y="100" width="150" height="100" fill="#4b3c25" /><rect x="400" y="100" width="400" height="400" fill="#c29d62" /><rect x="500" y="200" width="200" height="200" fill="#aa8651" /></svg>