<?xml version="1.0" encoding="UTF-8"?>
<!DOCTYPE svg PUBLIC "-//W3C//DTD SVG 1.1//EN" "http://www.w3.org/Graphics/SVG/1.1/DTD/svg11.dtd">
<svg xmlns="http://www.w3.org/2000/svg" version="1.1" width="1000px" height="667px" style="shape-rendering:geometricPrecision; text-rendering:geometricPrecision; image-rendering:optimizeQuality; fill-rule:evenodd; clip-rule:evenodd" xmlns:xlink="http://www.w3.org/1999/xlink">
<g><path style="opacity:1" fill="#705935" d="M -0.5,-0.5 C 18.1667,-0.5 36.8333,-0.5 55.5,-0.5C 55.5,36.8333 55.5,74.1667 55.5,111.5C 36.8333,111.5 18.1667,111.5 -0.5,111.5C -0.5,74.1667 -0.5,36.8333 -0.5,-0.5 Z"/></g>
<g><path style="opacity:1" fill="#554327" d="M 55.5,-0.5 C 74.1667,-0.5 92.8333,-0.5 111.5,-0.5C 111.5,36.8333 111.5,74.1667 111.5,111.5C 92.8333,111.5 74.1667,111.5 55.5,111.5C 55.5,74.1667 55.5,36.8333 55.5,-0.5 Z"/></g>
<g><path style="opacity:1" fill="#705935" d="M 111.5,-0.5 C 166.833,-0.5 222.167,-0.5 277.5,-0.5C 277.5,36.8333 277.5,74.1667 277.5,111.5C 259.167,111.5 240.833,111.5 222.5,111.5C 203.833,111.5 185.167,111.5 166.5,111.5C 148.167,111.5 129.833,111.5 111.5,111.5C 111.5,74.1667 111.5,36.8333 111.5,-0.5 Z"/></g>
<g><path style="opacity:1" fill="#554327" d="M 277.5,-0.5 C 296.167,-0.5 314.833,-0.5 333.5,-0.5C 333.5,36.8333 333.5,74.1667 333.5,111.5C 314.833,111.5 296.167,111.5 277.5,111.5C 277.5,74.1667 277.5,36.8333 277.5,-0.5 Z"/></g>
<g><path style="opacity:1" fill="#735a35" d="M 333.5,-0.5 C 370.5,-0.5 407.5,-0.5 444.5,-0.5C 444.5,36.8333 444.5,74.1667 444.5,111.5C 407.5,111.5 370.5,111.5 333.5,111.5C 333.5,74.1667 333.5,36.8333 333.5,-0.5 Z"/></g>
<g><path style="opacity:1" fill="#977848" d="M 444.5,-0.5 C 481.5,-0.5 518.5,-0.5 555.5,-0.5C 555.5,36.8333 555.5,74.1667 555.5,111.5C 518.5,111.5 481.5,111.5 444.5,111.5C 444.5,74.1667 444.5,36.8333 444.5,-0.5 Z"/></g>
<g><path style="opacity:1" fill="#735a35" d="M 555.5,-0.5 C 629.833,-0.5 704.167,-0.5 778.5,-0.5C 778.5,36.8333 778.5,74.1667 778.5,111.5C 704.167,111.5 629.833,111.5 555.5,111.5C 555.5,74.1667 555.5,36.8333 555.5,-0.5 Z"/></g>
<g><path style="opacity:1" fill="#4b3d25" d="M 778.5,-0.5 C 815.5,-0.5 852.5,-0.5 889.5,-0.5C 889.5,36.8333 889.5,74.1667 889.5,111.5C 852.5,111.5 815.5,111.5 778.5,111.5C 778.5,74.1667 778.5,36.8333 778.5,-0.5 Z"/></g>
<g><path style="opacity:1" fill="#735a35" d="M 889.5,-0.5 C 926.167,-0.5 962.833,-0.5 999.5,-0.5C 999.5,36.8333 999.5,74.1667 999.5,111.5C 962.833,111.5 926.167,111.5 889.5,111.5C 889.5,74.1667 889.5,36.8333 889.5,-0.5 Z"/></g>
<g><path style="opacity:1" fill="#554327" d="M -0.5,111.5 C 18.1667,111.5 36.8333,111.5 55.5,111.5C 55.5,148.5 55.5,185.5 55.5,222.5C 36.8333,222.5 18.1667,222.5 -0.5,222.5C -0.5,185.5 -0.5,148.5 -0.5,111.5 Z"/></g>
<g><path style="opacity:1" fill="#372d1b" d="M 55.5,111.5 C 74.1667,111.5 92.8333,111.5 111.5,111.5C 129.833,111.5 148.167,111.5 166.5,111.5C 166.5,148.5 166.5,185.5 166.5,222.5C 148.167,222.5 129.833,222.5 111.5,222.5C 92.8333,222.5 74.1667,222.5 55.5,222.5C 55.5,185.5 55.5,148.5 55.5,111.5 Z"/></g>
<g><path style="opacity:1" fill="#554327" d="M 166.5,111.5 C 185.167,111.5 203.833,111.5 222.5,111.5C 222.5,148.5 222.5,185.5 222.5,222.5C 203.833,222.5 185.167,222.5 166.5,222.5C 166.5,185.5 166.5,148.5 166.5,111.5 Z"/></g>
<g><path style="opacity:1" fill="#372d1b" d="M 222.5,111.5 C 240.833,111.5 259.167,111.5 277.5,111.5C 296.167,111.5 314.833,111.5 333.5,111.5C 333.5,148.5 333.5,185.5 333.5,222.5C 314.833,222.5 296.167,222.5 277.5,222.5C 259.167,222.5 240.833,222.5 222.5,222.5C 222.5,185.5 222.5,148.5 222.5,111.5 Z"/></g>
<g><path style="opacity:1" fill="#4b3d25" d="M 333.5,111.5 C 370.5,111.5 407.5,111.5 444.5,111.5C 444.5,148.5 444.5,185.5 444.5,222.5C 407.5,222.5 370.5,222.5 333.5,222.5C 333.5,185.5 333.5,148.5 333.5,111.5 Z"/></g>
<g><path style="opacity:1" fill="#c19d61" d="M 444.5,111.5 C 481.5,111.5 518.5,111.5 555.5,111.5C 629.833,111.5 704.167,111.5 778.5,111.5C 815.5,111.5 852.5,111.5 889.5,111.5C 889.5,148.5 889.5,185.5 889.5,222.5C 889.5,296.5 889.5,370.5 889.5,444.5C 889.5,481.5 889.5,518.5 889.5,555.5C 852.5,555.5 815.5,555.5 778.5,555.5C 704.167,555.5 629.833,555.5 555.5,555.5C 518.5,555.5 481.5,555.5 444.5,555.5C 444.5,518.5 444.5,481.5 444.5,444.5C 444.5,370.5 444.5,296.5 444.5,222.5C 444.5,185.5 444.5,148.5 444.5,111.5 Z"/></g>
<g><path style="opacity:1" fill="#4b3d25" d="M 889.5,111.5 C 926.167,111.5 962.833,111.5 999.5,111.5C 999.5,148.5 999.5,185.5 999.5,222.5C 962.833,222.5 926.167,222.5 889.5,222.5C 889.5,185.5 889.5,148.5 889.5,111.5 Z"/></g>
<g><path style="opacity:1" fill="#705935" d="M -0.5,222.5 C 18.1667,222.5 36.8333,222.5 55.5,222.5C 55.5,259.5 55.5,296.5 55.5,333.5C 36.8333,333.5 18.1667,333.5 -0.5,333.5C -0.5,296.5 -0.5,259.5 -0.5,222.5 Z"/></g>
<g><path style="opacity:1" fill="#554327" d="M 55.5,222.5 C 74.1667,222.5 92.8333,222.5 111.5,222.5C 111.5,259.5 111.5,296.5 111.5,333.5C 92.8333,333.5 74.1667,333.5 55.5,333.5C 55.5,296.5 55.5,259.5 55.5,222.5 Z"/></g>
<g><path style="opacity:1" fill="#705935" d="M 111.5,222.5 C 129.833,222.5 148.167,222.5 166.5,222.5C 185.167,222.5 203.833,222.5 222.5,222.5C 240.833,222.5 259.167,222.5 277.5,222.5C 277.5,259.5 277.5,296.5 277.5,333.5C 259.167,333.5 240.833,333.5 222.5,333.5C 185.5,333.5 148.5,333.5 111.5,333.5C 111.5,296.5 111.5,259.5 111.5,222.5 Z"/></g>
<g><path style="opacity:1" fill="#554327" d="M 277.5,222.5 C 296.167,222.5 314.833,222.5 333.5,222.5C 333.5,296.5 333.5,370.5 333.5,444.5C 314.833,444.5 296.167,444.5 277.5,444.5C 277.5,407.5 277.5,370.5 277.5,333.5C 277.5,296.5 277.5,259.5 277.5,222.5 Z"/></g>
<g><path style="opacity:1" fill="#735a35" d="M 333.5,222.5 C 370.5,222.5 407.5,222.5 444.5,222.5C 444.5,296.5 444.5,370.5 444.5,444.5C 407.5,444.5 370.5,444.5 333.5,444.5C 333.5,370.5 333.5,296.5 333.5,222.5 Z"/></g>
<g><path style="opacity:1" fill="#ae8f54" d="M 555.5,222.5 C 629.833,222.5 704.167,222.5 778.5,222.5C 778.5,296.5 778.5,370.5 778.5,444.5C 704.167,444.5 629.833,444.5 555.5,444.5C 555.5,370.5 555.5,296.5 555.5,222.5 Z"/></g>
<g><path style="opacity:1" fill="#735a35" d="M 889.5,222.5 C 926.167,222.5 962.833,222.5 999.5,222.5C 999.5,296.5 999.5,370.5 999.5,444.5C 962.833,444.5 926.167,444.5 889.5,444.5C 889.5,370.5 889.5,296.5 889.5,222.5 Z"/></g>
<g><path style="opacity:1" fill="#372d1b" d="M -0.5,333.5 C 18.1667,333.5 36.8333,333.5 55.5,333.5C 74.1667,333.5 92.8333,333.5 111.5,333.5C 111.5,370.5 111.5,407.5 111.5,444.5C 92.8333,444.5 74.1667,444.5 55.5,444.5C 36.8333,444.5 18.1667,444.5 -0.5,444.5C -0.5,407.5 -0.5,370.5 -0.5,333.5 Z"/></g>
<g><path style="opacity:1" fill="#554327" d="M 111.5,333.5 C 148.5,333.5 185.5,333.5 222.5,333.5C 222.5,370.5 222.5,407.5 222.5,444.5C 185.5,444.5 148.5,444.5 111.5,444.5C 111.5,407.5 111.5,370.5 111.5,333.5 Z"/></g>
<g><path style="opacity:1" fill="#372d1b" d="M 222.5,333.5 C 240.833,333.5 259.167,333.5 277.5,333.5C 277.5,370.5 277.5,407.5 277.5,444.5C 259.167,444.5 240.833,444.5 222.5,444.5C 222.5,407.5 222.5,370.5 222.5,333.5 Z"/></g>
<g><path style="opacity:1" fill="#554327" d="M -0.5,444.5 C 18.1667,444.5 36.8333,444.5 55.5,444.5C 55.5,481.5 55.5,518.5 55.5,555.5C 36.8333,555.5 18.1667,555.5 -0.5,555.5C -0.5,518.5 -0.5,481.5 -0.5,444.5 Z"/></g>
<g><path style="opacity:1" fill="#705935" d="M 55.5,444.5 C 74.1667,444.5 92.8333,444.5 111.5,444.5C 148.5,444.5 185.5,444.5 222.5,444.5C 222.5,481.5 222.5,518.5 222.5,555.5C 185.5,555.5 148.5,555.5 111.5,555.5C 92.8333,555.5 74.1667,555.5 55.5,555.5C 55.5,518.5 55.5,481.5 55.5,444.5 Z"/></g>
<g><path style="opacity:1" fill="#554327" d="M 222.5,444.5 C 240.833,444.5 259.167,444.5 277.5,444.5C 277.5,481.5 277.5,518.5 277.5,555.5C 296.167,555.5 314.833,555.5 333.5,555.5C 333.5,592.5 333.5,629.5 333.5,666.5C 296.5,666.5 259.5,666.5 222.5,666.5C 222.5,629.5 222.5,592.5 222.5,555.5C 222.5,518.5 222.5,481.5 222.5,444.5 Z"/></g>
<g><path style="opacity:1" fill="#705935" d="M 277.5,444.5 C 296.167,444.5 314.833,444.5 333.5,444.5C 333.5,481.5 333.5,518.5 333.5,555.5C 314.833,555.5 296.167,555.5 277.5,555.5C 277.5,518.5 277.5,481.5 277.5,444.5 Z"/></g>
<g><path style="opacity:1" fill="#977848" d="M 333.5,444.5 C 370.5,444.5 407.5,444.5 444.5,444.5C 444.5,481.5 444.5,518.5 444.5,555.5C 407.5,555.5 370.5,555.5 333.5,555.5C 333.5,518.5 333.5,481.5 333.5,444.5 Z"/></g>
<g><path style="opacity:1" fill="#977848" d="M 889.5,444.5 C 926.167,444.5 962.833,444.5 999.5,444.5C 999.5,481.5 999.5,518.5 999.5,555.5C 962.833,555.5 926.167,555.5 889.5,555.5C 889.5,518.5 889.5,481.5 889.5,444.5 Z"/></g>
<g><path style="opacity:1" fill="#705935" d="M -0.5,555.5 C 18.1667,555.5 36.8333,555.5 55.5,555.5C 55.5,592.5 55.5,629.5 55.5,666.5C 36.8333,666.5 18.1667,666.5 -0.5,666.5C -0.5,629.5 -0.5,592.5 -0.5,555.5 Z"/></g>
<g><path style="opacity:1" fill="#554327" d="M 55.5,555.5 C 74.1667,555.5 92.8333,555.5 111.5,555.5C 111.5,592.5 111.5,629.5 111.5,666.5C 92.8333,666.5 74.1667,666.5 55.5,666.5C 55.5,629.5 55.5,592.5 55.5,555.5 Z"/></g>
<g><path style="opacity:1" fill="#372d1b" d="M 111.5,555.5 C 148.5,555.5 185.5,555.5 222.5,555.5C 222.5,592.5 222.5,629.5 222.5,666.5C 185.5,666.5 148.5,666.5 111.5,666.5C 111.5,629.5 111.5,592.5 111.5,555.5 Z"/></g>
<g><path style="opacity:1" fill="#735a35" d="M 333.5,555.5 C 370.5,555.5 407.5,555.5 444.5,555.5C 444.5,592.5 444.5,629.5 444.5,666.5C 407.5,666.5 370.5,666.5 333.5,666.5C 333.5,629.5 333.5,592.5 333.5,555.5 Z"/></g>
<g><path style="opacity:1" fill="#4b3d25" d="M 444.5,555.5 C 481.5,555.5 518.5,555.5 555.5,555.5C 555.5,592.5 555.5,629.5 555.5,666.5C 518.5,666.5 481.5,666.5 444.5,666.5C 444.5,629.5 444.5,592.5 444.5,555.5 Z"/></g>
<g><path style="opacity:1" fill="#735a35" d="M 555.5,555.5 C 629.833,555.5 704.167,555.5 778.5,555.5C 778.5,592.5 778.5,629.5 778.5,666.5C 704.167,666.5 629.833,666.5 555.5,666.5C 555.5,629.5 555.5,592.5 555.5,555.5 Z"/></g>
<g><path style="opacity:1" fill="#977848" d="M 778.5,555.5 C 815.5,555.5 852.5,555.5 889.5,555.5C 889.5,592.5 889.5,629.5 889.5,666.5C 852.5,666.5 815.5,666.5 778.5,666.5C 778.5,629.5 778.5,592.5 778.5,555.5 Z"/></g>
<g><path style="opacity:1" fill="#735a35" d="M 889.5,555.5 C 926.167,555.5 962.833,555.5 999.5,555.5C 999.5,592.5 999.5,629.5 999.5,666.5C 962.833,666.5 926.167,666.5 889.5,666.5C 889.5,629.5 889.5,592.5 889.5,555.5 Z"/></g>
</svg>
