<svg viewBox="0 0 1100 1100" xmlns="http://www.w3.org/2000/svg"><rect x="200" y="100" width="600" height="650" fill="#1d1a14" /><rect x="300" y="200" width="400" height="400" fill="#693f05" /><rect x="0" y="100" width="250" height="600" fill="#1d1a14" /><rect x="50" y="200" width="100" height="400" fill="#865107" /><rect x="400" y="50" width="200" height="100" fill="#767676" /><rect x="550" y="50" width="100" height="100" fill="#a5a5a5" /><rect x="550" y="450" width="100" height="150" fill="#008035" /><rect x="450" y="100" width="100" height="400" fill="#11a65d" /><rect x="550" y="0" width="100" height="150" fill="#11a65d" /><rect x="500" y="100" width="150" height="400" fill="#17dd62" /><rect x="600" y="0" width="300" height="150" fill="#17dd62" /><rect x="600" y="450" width="300" height="150" fill="#00aa2c" /><rect x="850" y="100" width="150" height="400" fill="#00aa2c" /><rect x="600" y="100" width="300" height="400" fill="#007b18" /><rect x="600" y="100" width="200" height="300" fill="#dbffeb" /><rect x="700" y="200" width="100" height="200" fill="#00aa2c" /><rect x="200" y="700" width="350" height="400" fill="#1d1a14" /><rect x="250" y="800" width="200" height="200" fill="#865107" /><rect x="500" y="700" width="600" height="400" fill="#453c2f" /><rect x="600" y="800" width="400" height="200" fill="#a76e1f" /></svg>