<?xml version="1.0" encoding="UTF-8"?>
<!DOCTYPE svg PUBLIC "-//W3C//DTD SVG 1.1//EN" "http://www.w3.org/Graphics/SVG/1.1/DTD/svg11.dtd">
<svg xmlns="http://www.w3.org/2000/svg" version="1.1" width="1000px" height="947px" style="shape-rendering:geometricPrecision; text-rendering:geometricPrecision; image-rendering:optimizeQuality; fill-rule:evenodd; clip-rule:evenodd" xmlns:xlink="http://www.w3.org/1999/xlink">
<g><path style="opacity:1" fill="#3c738b" d="M 631.5,-0.5 C 649.167,-0.5 666.833,-0.5 684.5,-0.5C 684.5,34.8333 684.5,70.1667 684.5,105.5C 666.833,105.5 649.167,105.5 631.5,105.5C 631.5,70.1667 631.5,34.8333 631.5,-0.5 Z"/></g>
<g><path style="opacity:1" fill="#519aba" d="M 684.5,-0.5 C 789.5,-0.5 894.5,-0.5 999.5,-0.5C 999.5,104.833 999.5,210.167 999.5,315.5C 964.5,315.5 929.5,315.5 894.5,315.5C 894.5,525.833 894.5,736.167 894.5,946.5C 613.833,946.5 333.167,946.5 52.5,946.5C 52.5,666.167 52.5,385.833 52.5,105.5C 245.5,105.5 438.5,105.5 631.5,105.5C 649.167,105.5 666.833,105.5 684.5,105.5C 684.5,70.1667 684.5,34.8333 684.5,-0.5 Z M 631.5,210.5 C 631.5,245.5 631.5,280.5 631.5,315.5C 508.833,315.5 386.167,315.5 263.5,315.5C 245.833,315.5 228.167,315.5 210.5,315.5C 210.5,455.833 210.5,596.167 210.5,736.5C 228.167,736.5 245.833,736.5 263.5,736.5C 403.833,736.5 544.167,736.5 684.5,736.5C 684.5,596.167 684.5,455.833 684.5,315.5C 701.833,315.5 719.167,315.5 736.5,315.5C 736.5,491.167 736.5,666.833 736.5,842.5C 543.5,842.5 350.5,842.5 157.5,842.5C 157.5,631.833 157.5,421.167 157.5,210.5C 315.5,210.5 473.5,210.5 631.5,210.5 Z"/></g>
<g><path style="opacity:1" fill="#3c738b" d="M -0.5,105.5 C 17.1667,105.5 34.8333,105.5 52.5,105.5C 52.5,385.833 52.5,666.167 52.5,946.5C 34.8333,946.5 17.1667,946.5 -0.5,946.5C -0.5,666.167 -0.5,385.833 -0.5,105.5 Z"/></g>
<g><path style="opacity:1" fill="#3c738b" d="M 631.5,210.5 C 649.167,210.5 666.833,210.5 684.5,210.5C 684.5,245.5 684.5,280.5 684.5,315.5C 666.833,315.5 649.167,315.5 631.5,315.5C 631.5,280.5 631.5,245.5 631.5,210.5 Z"/></g>
<g><path style="opacity:1" fill="#3c738b" d="M 263.5,315.5 C 263.5,455.833 263.5,596.167 263.5,736.5C 245.833,736.5 228.167,736.5 210.5,736.5C 210.5,596.167 210.5,455.833 210.5,315.5C 228.167,315.5 245.833,315.5 263.5,315.5 Z"/></g>
<g><path style="opacity:1" fill="#519aba" d="M 263.5,315.5 C 386.167,315.5 508.833,315.5 631.5,315.5C 649.167,315.5 666.833,315.5 684.5,315.5C 684.5,455.833 684.5,596.167 684.5,736.5C 544.167,736.5 403.833,736.5 263.5,736.5C 263.5,596.167 263.5,455.833 263.5,315.5 Z"/></g>
<g><path style="opacity:1" fill="#3c738b" d="M 736.5,315.5 C 754.167,315.5 771.833,315.5 789.5,315.5C 789.5,491.167 789.5,666.833 789.5,842.5C 771.833,842.5 754.167,842.5 736.5,842.5C 736.5,666.833 736.5,491.167 736.5,315.5 Z"/></g>
<g><path style="opacity:1" fill="#fefffe" d="M 368.5,421.5 C 438.833,421.5 509.167,421.5 579.5,421.5C 579.5,491.5 579.5,561.5 579.5,631.5C 509.167,631.5 438.833,631.5 368.5,631.5C 368.5,561.5 368.5,491.5 368.5,421.5 Z"/></g>
</svg>
