<svg viewBox="0 0 850 800" xmlns="http://www.w3.org/2000/svg"><rect x="600" y="0" width="100" height="200" fill="#0d2c8d" /><rect x="650" y="0" width="200" height="200" fill="#1148ba" /><rect x="600" y="300" width="100" height="150" fill="#0d2c8d" /><rect x="200" y="100" width="100" height="150" fill="#0d2c8d" /><rect x="100" y="200" width="100" height="500" fill="#0d2c8d" /><rect x="200" y="650" width="100" height="150" fill="#0d2c8d" /><rect x="0" y="300" width="100" height="300" fill="#0d2c8d" /><rect x="50" y="300" width="150" height="300" fill="#1148ba" /><rect x="150" y="200" width="250" height="500" fill="#1148ba" /><rect x="150" y="400" width="500" height="300" fill="#1148ba" /><rect x="250" y="650" width="300" height="150" fill="#1148ba" /><rect x="650" y="300" width="100" height="300" fill="#1148ba" /><rect x="600" y="400" width="100" height="200" fill="#1148ba" /><rect x="250" y="100" width="300" height="100" fill="#1148ba" /><rect x="250" y="150" width="150" height="100" fill="#1148ba" /></svg>