<svg viewBox="0 0 750 600" xmlns="http://www.w3.org/2000/svg"><rect x="300" y="450" width="100" height="150" fill="#c0c0c0" /><rect x="350" y="450" width="100" height="150" fill="#ffffff" /><rect x="100" y="350" width="100" height="150" fill="#621f61" /><rect x="400" y="150" width="100" height="300" fill="#9a1a1a" /><rect x="150" y="400" width="500" height="100" fill="#82287a" /><rect x="0" y="150" width="100" height="250" fill="#9a1a1a" /><rect x="250" y="350" width="100" height="150" fill="#ffffff" /><rect x="450" y="350" width="100" height="150" fill="#ffffff" /><rect x="50" y="150" width="300" height="250" fill="#cc2236" /><rect x="450" y="150" width="300" height="250" fill="#cc2236" /><rect x="0" y="100" width="100" height="100" fill="#ba691b" /><rect x="100" y="0" width="100" height="150" fill="#ba691b" /><rect x="500" y="0" width="100" height="150" fill="#ba691b" /><rect x="400" y="100" width="100" height="100" fill="#ba691b" /><rect x="50" y="100" width="300" height="100" fill="#f69923" /><rect x="450" y="100" width="300" height="100" fill="#f69923" /><rect x="550" y="0" width="100" height="150" fill="#f69923" /><rect x="150" y="0" width="100" height="150" fill="#f69923" /><rect x="150" y="100" width="100" height="300" fill="#ffffff" /><rect x="550" y="100" width="100" height="300" fill="#ffffff" /></svg>