<?xml version="1.0" encoding="UTF-8"?>
<!DOCTYPE svg PUBLIC "-//W3C//DTD SVG 1.1//EN" "http://www.w3.org/Graphics/SVG/1.1/DTD/svg11.dtd">
<svg xmlns="http://www.w3.org/2000/svg" version="1.1" width="1000px" height="1000px" style="shape-rendering:geometricPrecision; text-rendering:geometricPrecision; image-rendering:optimizeQuality; fill-rule:evenodd; clip-rule:evenodd" xmlns:xlink="http://www.w3.org/1999/xlink">
<g><path style="opacity:1" fill="#b8961f" d="M 55.5,-0.5 C 73.8333,-0.5 92.1667,-0.5 110.5,-0.5C 110.5,36.5 110.5,73.5 110.5,110.5C 129.167,110.5 147.833,110.5 166.5,110.5C 166.5,73.5 166.5,36.5 166.5,-0.5C 184.833,-0.5 203.167,-0.5 221.5,-0.5C 221.5,36.5 221.5,73.5 221.5,110.5C 240.167,110.5 258.833,110.5 277.5,110.5C 277.5,73.5 277.5,36.5 277.5,-0.5C 295.833,-0.5 314.167,-0.5 332.5,-0.5C 332.5,110.5 332.5,221.5 332.5,332.5C 295.5,332.5 258.5,332.5 221.5,332.5C 184.5,332.5 147.5,332.5 110.5,332.5C 92.1667,332.5 73.8333,332.5 55.5,332.5C 55.5,221.5 55.5,110.5 55.5,-0.5 Z"/></g>
<g><path style="opacity:1" fill="#a56e1f" d="M 110.5,-0.5 C 129.167,-0.5 147.833,-0.5 166.5,-0.5C 166.5,36.5 166.5,73.5 166.5,110.5C 147.833,110.5 129.167,110.5 110.5,110.5C 110.5,73.5 110.5,36.5 110.5,-0.5 Z"/></g>
<g><path style="opacity:1" fill="#a56e1f" d="M 221.5,-0.5 C 240.167,-0.5 258.833,-0.5 277.5,-0.5C 277.5,36.5 277.5,73.5 277.5,110.5C 258.833,110.5 240.167,110.5 221.5,110.5C 221.5,73.5 221.5,36.5 221.5,-0.5 Z"/></g>
<g><path style="opacity:1" fill="#f4da29" d="M 332.5,-0.5 C 369.5,-0.5 406.5,-0.5 443.5,-0.5C 443.5,36.5 443.5,73.5 443.5,110.5C 462.167,110.5 480.833,110.5 499.5,110.5C 518.167,110.5 536.833,110.5 555.5,110.5C 555.5,73.5 555.5,36.5 555.5,-0.5C 592.5,-0.5 629.5,-0.5 666.5,-0.5C 666.5,36.5 666.5,73.5 666.5,110.5C 684.833,110.5 703.167,110.5 721.5,110.5C 740.167,110.5 758.833,110.5 777.5,110.5C 777.5,73.5 777.5,36.5 777.5,-0.5C 814.5,-0.5 851.5,-0.5 888.5,-0.5C 888.5,110.5 888.5,221.5 888.5,332.5C 851.5,332.5 814.5,332.5 777.5,332.5C 703.5,332.5 629.5,332.5 555.5,332.5C 481.167,332.5 406.833,332.5 332.5,332.5C 332.5,221.5 332.5,110.5 332.5,-0.5 Z"/></g>
<g><path style="opacity:1" fill="#b8961f" d="M 499.5,-0.5 C 518.167,-0.5 536.833,-0.5 555.5,-0.5C 555.5,36.5 555.5,73.5 555.5,110.5C 536.833,110.5 518.167,110.5 499.5,110.5C 499.5,73.5 499.5,36.5 499.5,-0.5 Z"/></g>
<g><path style="opacity:1" fill="#b8961f" d="M 721.5,-0.5 C 740.167,-0.5 758.833,-0.5 777.5,-0.5C 777.5,36.5 777.5,73.5 777.5,110.5C 758.833,110.5 740.167,110.5 721.5,110.5C 721.5,73.5 721.5,36.5 721.5,-0.5 Z"/></g>
<g><path style="opacity:1" fill="#6a9782" d="M -0.5,332.5 C 18.1667,332.5 36.8333,332.5 55.5,332.5C 73.8333,332.5 92.1667,332.5 110.5,332.5C 110.5,369.5 110.5,406.5 110.5,443.5C 92.1667,443.5 73.8333,443.5 55.5,443.5C 55.5,480.833 55.5,518.167 55.5,555.5C 36.8333,555.5 18.1667,555.5 -0.5,555.5C -0.5,481.167 -0.5,406.833 -0.5,332.5 Z"/></g>
<g><path style="opacity:1" fill="#5c8c76" d="M 110.5,332.5 C 147.5,332.5 184.5,332.5 221.5,332.5C 221.5,369.5 221.5,406.5 221.5,443.5C 184.5,443.5 147.5,443.5 110.5,443.5C 110.5,406.5 110.5,369.5 110.5,332.5 Z"/></g>
<g><path style="opacity:1" fill="#6a9782" d="M 221.5,332.5 C 258.5,332.5 295.5,332.5 332.5,332.5C 332.5,406.833 332.5,481.167 332.5,555.5C 314.167,555.5 295.833,555.5 277.5,555.5C 277.5,518.167 277.5,480.833 277.5,443.5C 258.833,443.5 240.167,443.5 221.5,443.5C 221.5,406.5 221.5,369.5 221.5,332.5 Z"/></g>
<g><path style="opacity:1" fill="#87c0a6" d="M 332.5,332.5 C 406.833,332.5 481.167,332.5 555.5,332.5C 555.5,369.5 555.5,406.5 555.5,443.5C 518.167,443.5 480.833,443.5 443.5,443.5C 443.5,480.833 443.5,518.167 443.5,555.5C 406.5,555.5 369.5,555.5 332.5,555.5C 332.5,481.167 332.5,406.833 332.5,332.5 Z"/></g>
<g><path style="opacity:1" fill="#75b296" d="M 555.5,332.5 C 629.5,332.5 703.5,332.5 777.5,332.5C 777.5,369.5 777.5,406.5 777.5,443.5C 703.5,443.5 629.5,443.5 555.5,443.5C 555.5,406.5 555.5,369.5 555.5,332.5 Z"/></g>
<g><path style="opacity:1" fill="#87c0a6" d="M 777.5,332.5 C 814.5,332.5 851.5,332.5 888.5,332.5C 925.5,332.5 962.5,332.5 999.5,332.5C 999.5,406.833 999.5,481.167 999.5,555.5C 962.5,555.5 925.5,555.5 888.5,555.5C 888.5,518.167 888.5,480.833 888.5,443.5C 851.5,443.5 814.5,443.5 777.5,443.5C 777.5,406.5 777.5,369.5 777.5,332.5 Z"/></g>
<g><path style="opacity:1" fill="#a6a5ad" d="M 110.5,443.5 C 147.5,443.5 184.5,443.5 221.5,443.5C 221.5,480.833 221.5,518.167 221.5,555.5C 203.167,555.5 184.833,555.5 166.5,555.5C 147.833,555.5 129.167,555.5 110.5,555.5C 110.5,592.5 110.5,629.5 110.5,666.5C 92.1667,666.5 73.8333,666.5 55.5,666.5C 55.5,629.5 55.5,592.5 55.5,555.5C 55.5,518.167 55.5,480.833 55.5,443.5C 73.8333,443.5 92.1667,443.5 110.5,443.5 Z"/></g>
<g><path style="opacity:1" fill="#8c8a90" d="M 221.5,443.5 C 240.167,443.5 258.833,443.5 277.5,443.5C 277.5,480.833 277.5,518.167 277.5,555.5C 258.833,555.5 240.167,555.5 221.5,555.5C 221.5,518.167 221.5,480.833 221.5,443.5 Z"/></g>
<g><path style="opacity:1" fill="#d4d2dc" d="M 555.5,443.5 C 629.5,443.5 703.5,443.5 777.5,443.5C 777.5,480.833 777.5,518.167 777.5,555.5C 740.5,555.5 703.5,555.5 666.5,555.5C 629.5,555.5 592.5,555.5 555.5,555.5C 555.5,592.5 555.5,629.5 555.5,666.5C 555.5,703.5 555.5,740.5 555.5,777.5C 518.167,777.5 480.833,777.5 443.5,777.5C 443.5,703.5 443.5,629.5 443.5,555.5C 443.5,518.167 443.5,480.833 443.5,443.5C 480.833,443.5 518.167,443.5 555.5,443.5 Z"/></g>
<g><path style="opacity:1" fill="#b2b0b8" d="M 777.5,443.5 C 814.5,443.5 851.5,443.5 888.5,443.5C 888.5,480.833 888.5,518.167 888.5,555.5C 851.5,555.5 814.5,555.5 777.5,555.5C 777.5,518.167 777.5,480.833 777.5,443.5 Z"/></g>
<g><path style="opacity:1" fill="#5c8c76" d="M -0.5,555.5 C 18.1667,555.5 36.8333,555.5 55.5,555.5C 55.5,592.5 55.5,629.5 55.5,666.5C 55.5,703.5 55.5,740.5 55.5,777.5C 36.8333,777.5 18.1667,777.5 -0.5,777.5C -0.5,703.5 -0.5,629.5 -0.5,555.5 Z"/></g>
<g><path style="opacity:1" fill="#8c8a90" d="M 166.5,555.5 C 166.5,592.5 166.5,629.5 166.5,666.5C 147.833,666.5 129.167,666.5 110.5,666.5C 110.5,629.5 110.5,592.5 110.5,555.5C 129.167,555.5 147.833,555.5 166.5,555.5 Z"/></g>
<g><path style="opacity:1" fill="#651d1a" d="M 166.5,555.5 C 184.833,555.5 203.167,555.5 221.5,555.5C 221.5,592.5 221.5,629.5 221.5,666.5C 203.167,666.5 184.833,666.5 166.5,666.5C 166.5,629.5 166.5,592.5 166.5,555.5 Z"/></g>
<g><path style="opacity:1" fill="#5c5b63" d="M 221.5,555.5 C 240.167,555.5 258.833,555.5 277.5,555.5C 277.5,629.5 277.5,703.5 277.5,777.5C 277.5,814.5 277.5,851.5 277.5,888.5C 258.833,888.5 240.167,888.5 221.5,888.5C 184.5,888.5 147.5,888.5 110.5,888.5C 92.1667,888.5 73.8333,888.5 55.5,888.5C 55.5,851.5 55.5,814.5 55.5,777.5C 73.8333,777.5 92.1667,777.5 110.5,777.5C 129.167,777.5 147.833,777.5 166.5,777.5C 184.833,777.5 203.167,777.5 221.5,777.5C 221.5,740.5 221.5,703.5 221.5,666.5C 221.5,629.5 221.5,592.5 221.5,555.5 Z"/></g>
<g><path style="opacity:1" fill="#5c8c76" d="M 277.5,555.5 C 295.833,555.5 314.167,555.5 332.5,555.5C 332.5,629.5 332.5,703.5 332.5,777.5C 314.167,777.5 295.833,777.5 277.5,777.5C 277.5,703.5 277.5,629.5 277.5,555.5 Z"/></g>
<g><path style="opacity:1" fill="#75b296" d="M 332.5,555.5 C 369.5,555.5 406.5,555.5 443.5,555.5C 443.5,629.5 443.5,703.5 443.5,777.5C 406.5,777.5 369.5,777.5 332.5,777.5C 332.5,703.5 332.5,629.5 332.5,555.5 Z"/></g>
<g><path style="opacity:1" fill="#b2b0b8" d="M 666.5,555.5 C 666.5,592.5 666.5,629.5 666.5,666.5C 629.5,666.5 592.5,666.5 555.5,666.5C 555.5,629.5 555.5,592.5 555.5,555.5C 592.5,555.5 629.5,555.5 666.5,555.5 Z"/></g>
<g><path style="opacity:1" fill="#812522" d="M 666.5,555.5 C 703.5,555.5 740.5,555.5 777.5,555.5C 777.5,592.5 777.5,629.5 777.5,666.5C 740.5,666.5 703.5,666.5 666.5,666.5C 666.5,629.5 666.5,592.5 666.5,555.5 Z"/></g>
<g><path style="opacity:1" fill="#76747f" d="M 777.5,555.5 C 814.5,555.5 851.5,555.5 888.5,555.5C 888.5,629.5 888.5,703.5 888.5,777.5C 888.5,814.5 888.5,851.5 888.5,888.5C 851.5,888.5 814.5,888.5 777.5,888.5C 703.5,888.5 629.5,888.5 555.5,888.5C 555.5,851.5 555.5,814.5 555.5,777.5C 592.5,777.5 629.5,777.5 666.5,777.5C 703.5,777.5 740.5,777.5 777.5,777.5C 777.5,740.5 777.5,703.5 777.5,666.5C 777.5,629.5 777.5,592.5 777.5,555.5 Z"/></g>
<g><path style="opacity:1" fill="#75b296" d="M 888.5,555.5 C 925.5,555.5 962.5,555.5 999.5,555.5C 999.5,629.5 999.5,703.5 999.5,777.5C 962.5,777.5 925.5,777.5 888.5,777.5C 888.5,703.5 888.5,629.5 888.5,555.5 Z"/></g>
<g><path style="opacity:1" fill="#8c8a90" d="M 55.5,666.5 C 73.8333,666.5 92.1667,666.5 110.5,666.5C 110.5,703.5 110.5,740.5 110.5,777.5C 92.1667,777.5 73.8333,777.5 55.5,777.5C 55.5,740.5 55.5,703.5 55.5,666.5 Z"/></g>
<g><path style="opacity:1" fill="#487122" d="M 110.5,666.5 C 129.167,666.5 147.833,666.5 166.5,666.5C 166.5,703.5 166.5,740.5 166.5,777.5C 147.833,777.5 129.167,777.5 110.5,777.5C 110.5,740.5 110.5,703.5 110.5,666.5 Z"/></g>
<g><path style="opacity:1" fill="#8c8a90" d="M 166.5,666.5 C 184.833,666.5 203.167,666.5 221.5,666.5C 221.5,703.5 221.5,740.5 221.5,777.5C 203.167,777.5 184.833,777.5 166.5,777.5C 166.5,740.5 166.5,703.5 166.5,666.5 Z"/></g>
<g><path style="opacity:1" fill="#5c902c" d="M 555.5,666.5 C 592.5,666.5 629.5,666.5 666.5,666.5C 666.5,703.5 666.5,740.5 666.5,777.5C 629.5,777.5 592.5,777.5 555.5,777.5C 555.5,740.5 555.5,703.5 555.5,666.5 Z"/></g>
<g><path style="opacity:1" fill="#b2b0b8" d="M 666.5,666.5 C 703.5,666.5 740.5,666.5 777.5,666.5C 777.5,703.5 777.5,740.5 777.5,777.5C 740.5,777.5 703.5,777.5 666.5,777.5C 666.5,740.5 666.5,703.5 666.5,666.5 Z"/></g>
<g><path style="opacity:1" fill="#6a9782" d="M -0.5,777.5 C 18.1667,777.5 36.8333,777.5 55.5,777.5C 55.5,814.5 55.5,851.5 55.5,888.5C 73.8333,888.5 92.1667,888.5 110.5,888.5C 110.5,925.5 110.5,962.5 110.5,999.5C 73.5,999.5 36.5,999.5 -0.5,999.5C -0.5,925.5 -0.5,851.5 -0.5,777.5 Z"/></g>
<g><path style="opacity:1" fill="#6a9782" d="M 277.5,777.5 C 295.833,777.5 314.167,777.5 332.5,777.5C 332.5,851.5 332.5,925.5 332.5,999.5C 295.5,999.5 258.5,999.5 221.5,999.5C 221.5,962.5 221.5,925.5 221.5,888.5C 240.167,888.5 258.833,888.5 277.5,888.5C 277.5,851.5 277.5,814.5 277.5,777.5 Z"/></g>
<g><path style="opacity:1" fill="#87c0a6" d="M 332.5,777.5 C 369.5,777.5 406.5,777.5 443.5,777.5C 443.5,814.5 443.5,851.5 443.5,888.5C 480.833,888.5 518.167,888.5 555.5,888.5C 555.5,925.5 555.5,962.5 555.5,999.5C 481.167,999.5 406.833,999.5 332.5,999.5C 332.5,925.5 332.5,851.5 332.5,777.5 Z"/></g>
<g><path style="opacity:1" fill="#b2b0b8" d="M 443.5,777.5 C 480.833,777.5 518.167,777.5 555.5,777.5C 555.5,814.5 555.5,851.5 555.5,888.5C 518.167,888.5 480.833,888.5 443.5,888.5C 443.5,851.5 443.5,814.5 443.5,777.5 Z"/></g>
<g><path style="opacity:1" fill="#87c0a6" d="M 888.5,777.5 C 925.5,777.5 962.5,777.5 999.5,777.5C 999.5,851.5 999.5,925.5 999.5,999.5C 925.5,999.5 851.5,999.5 777.5,999.5C 777.5,962.5 777.5,925.5 777.5,888.5C 814.5,888.5 851.5,888.5 888.5,888.5C 888.5,851.5 888.5,814.5 888.5,777.5 Z"/></g>
<g><path style="opacity:1" fill="#5c8c76" d="M 110.5,888.5 C 147.5,888.5 184.5,888.5 221.5,888.5C 221.5,925.5 221.5,962.5 221.5,999.5C 184.5,999.5 147.5,999.5 110.5,999.5C 110.5,962.5 110.5,925.5 110.5,888.5 Z"/></g>
<g><path style="opacity:1" fill="#75b296" d="M 555.5,888.5 C 629.5,888.5 703.5,888.5 777.5,888.5C 777.5,925.5 777.5,962.5 777.5,999.5C 703.5,999.5 629.5,999.5 555.5,999.5C 555.5,962.5 555.5,925.5 555.5,888.5 Z"/></g>
</svg>
