<svg viewBox="0 0 900 600" xmlns="http://www.w3.org/2000/svg"><rect x="0" y="0" width="350" height="600" fill="#62509e" /><rect x="300" y="0" width="600" height="600" fill="#7d66c9" /><rect x="100" y="0" width="100" height="600" fill="#533e9c" /><rect x="0" y="200" width="350" height="200" fill="#533e9c" /><rect x="300" y="200" width="600" height="200" fill="#6a4fc7" /><rect x="500" y="0" width="200" height="600" fill="#6a4fc7" /><rect x="50" y="100" width="200" height="400" fill="#8d8a91" /><rect x="50" y="100" width="150" height="300" fill="#a7a5ae" /><rect x="100" y="200" width="150" height="300" fill="#5d5b64" /><rect x="100" y="200" width="100" height="200" fill="#8d8a91" /><rect x="100" y="300" width="50" height="100" fill="#497123" /><rect x="150" y="200" width="50" height="100" fill="#661d1b" /><rect x="400" y="100" width="400" height="400" fill="#b3b0b9" /><rect x="500" y="200" width="300" height="300" fill="#777480" /><rect x="400" y="100" width="300" height="300" fill="#d5d2dd" /><rect x="500" y="200" width="200" height="200" fill="#b3b0b9" /><rect x="500" y="300" width="100" height="100" fill="#5d902d" /><rect x="600" y="200" width="100" height="100" fill="#822523" /></svg>