<?xml version="1.0" encoding="UTF-8"?>
<!DOCTYPE svg PUBLIC "-//W3C//DTD SVG 1.1//EN" "http://www.w3.org/Graphics/SVG/1.1/DTD/svg11.dtd">
<svg xmlns="http://www.w3.org/2000/svg" version="1.1" width="785px" height="1000px" style="shape-rendering:geometricPrecision; text-rendering:geometricPrecision; image-rendering:optimizeQuality; fill-rule:evenodd; clip-rule:evenodd" xmlns:xlink="http://www.w3.org/1999/xlink">
<g><path style="opacity:1" fill="#06823b" d="M 284.5,-0.5 C 308.5,-0.5 332.5,-0.5 356.5,-0.5C 356.5,47.1667 356.5,94.8333 356.5,142.5C 332.5,142.5 308.5,142.5 284.5,142.5C 284.5,94.8333 284.5,47.1667 284.5,-0.5 Z"/></g>
<g><path style="opacity:1" fill="#09934d" d="M 356.5,-0.5 C 404.167,-0.5 451.833,-0.5 499.5,-0.5C 499.5,47.1667 499.5,94.8333 499.5,142.5C 546.833,142.5 594.167,142.5 641.5,142.5C 641.5,190.167 641.5,237.833 641.5,285.5C 689.167,285.5 736.833,285.5 784.5,285.5C 784.5,428.167 784.5,570.833 784.5,713.5C 736.833,713.5 689.167,713.5 641.5,713.5C 641.5,761.167 641.5,808.833 641.5,856.5C 594.167,856.5 546.833,856.5 499.5,856.5C 499.5,761.167 499.5,665.833 499.5,570.5C 451.833,570.5 404.167,570.5 356.5,570.5C 356.5,427.833 356.5,285.167 356.5,142.5C 356.5,94.8333 356.5,47.1667 356.5,-0.5 Z"/></g>
<g><path style="opacity:1" fill="#06823b" d="M 213.5,142.5 C 213.5,190.167 213.5,237.833 213.5,285.5C 189.833,285.5 166.167,285.5 142.5,285.5C 142.5,237.833 142.5,190.167 142.5,142.5C 166.167,142.5 189.833,142.5 213.5,142.5 Z"/></g>
<g><path style="opacity:1" fill="#07ac4e" d="M 213.5,142.5 C 237.167,142.5 260.833,142.5 284.5,142.5C 308.5,142.5 332.5,142.5 356.5,142.5C 356.5,285.167 356.5,427.833 356.5,570.5C 356.5,665.833 356.5,761.167 356.5,856.5C 332.5,856.5 308.5,856.5 284.5,856.5C 260.833,856.5 237.167,856.5 213.5,856.5C 213.5,808.833 213.5,761.167 213.5,713.5C 189.833,713.5 166.167,713.5 142.5,713.5C 118.5,713.5 94.5,713.5 70.5,713.5C 70.5,570.833 70.5,428.167 70.5,285.5C 94.5,285.5 118.5,285.5 142.5,285.5C 166.167,285.5 189.833,285.5 213.5,285.5C 213.5,237.833 213.5,190.167 213.5,142.5 Z"/></g>
<g><path style="opacity:1" fill="#06823b" d="M -0.5,285.5 C 23.1667,285.5 46.8333,285.5 70.5,285.5C 70.5,428.167 70.5,570.833 70.5,713.5C 46.8333,713.5 23.1667,713.5 -0.5,713.5C -0.5,570.833 -0.5,428.167 -0.5,285.5 Z"/></g>
<g><path style="opacity:1" fill="#1d593b" d="M 356.5,570.5 C 404.167,570.5 451.833,570.5 499.5,570.5C 499.5,665.833 499.5,761.167 499.5,856.5C 499.5,904.167 499.5,951.833 499.5,999.5C 451.833,999.5 404.167,999.5 356.5,999.5C 356.5,951.833 356.5,904.167 356.5,856.5C 356.5,761.167 356.5,665.833 356.5,570.5 Z"/></g>
<g><path style="opacity:1" fill="#06823b" d="M 142.5,713.5 C 166.167,713.5 189.833,713.5 213.5,713.5C 213.5,761.167 213.5,808.833 213.5,856.5C 189.833,856.5 166.167,856.5 142.5,856.5C 142.5,808.833 142.5,761.167 142.5,713.5 Z"/></g>
<g><path style="opacity:1" fill="#16442d" d="M 284.5,856.5 C 308.5,856.5 332.5,856.5 356.5,856.5C 356.5,904.167 356.5,951.833 356.5,999.5C 332.5,999.5 308.5,999.5 284.5,999.5C 284.5,951.833 284.5,904.167 284.5,856.5 Z"/></g>
</svg>
