<?xml version="1.0" encoding="UTF-8"?>
<!DOCTYPE svg PUBLIC "-//W3C//DTD SVG 1.1//EN" "http://www.w3.org/Graphics/SVG/1.1/DTD/svg11.dtd">
<svg xmlns="http://www.w3.org/2000/svg" version="1.1" width="1000px" height="1000px" style="shape-rendering:geometricPrecision; text-rendering:geometricPrecision; image-rendering:optimizeQuality; fill-rule:evenodd; clip-rule:evenodd" xmlns:xlink="http://www.w3.org/1999/xlink">
<g><path style="opacity:1" fill="#d8e4fe" d="M -0.5,-0.5 C 132.833,-0.5 266.167,-0.5 399.5,-0.5C 399.5,66.1667 399.5,132.833 399.5,199.5C 332.833,199.5 266.167,199.5 199.5,199.5C 199.5,266.167 199.5,332.833 199.5,399.5C 199.5,466.167 199.5,532.833 199.5,599.5C 132.833,599.5 66.1667,599.5 -0.5,599.5C -0.5,399.5 -0.5,199.5 -0.5,-0.5 Z"/></g>
<g><path style="opacity:1" fill="#aeb8cb" d="M 399.5,-0.5 C 466.167,-0.5 532.833,-0.5 599.5,-0.5C 599.5,66.1667 599.5,132.833 599.5,199.5C 532.833,199.5 466.167,199.5 399.5,199.5C 399.5,132.833 399.5,66.1667 399.5,-0.5 Z"/></g>
<g><path style="opacity:1" fill="#8f97a4" d="M 599.5,-0.5 C 666.167,-0.5 732.833,-0.5 799.5,-0.5C 799.5,66.1667 799.5,132.833 799.5,199.5C 732.833,199.5 666.167,199.5 599.5,199.5C 599.5,132.833 599.5,66.1667 599.5,-0.5 Z"/></g>
<g><path style="opacity:1" fill="#5e6779" d="M 799.5,-0.5 C 866.167,-0.5 932.833,-0.5 999.5,-0.5C 999.5,66.1667 999.5,132.833 999.5,199.5C 932.833,199.5 866.167,199.5 799.5,199.5C 799.5,132.833 799.5,66.1667 799.5,-0.5 Z"/></g>
<g><path style="opacity:1" fill="#aeb8cb" d="M 399.5,199.5 C 399.5,266.167 399.5,332.833 399.5,399.5C 332.833,399.5 266.167,399.5 199.5,399.5C 199.5,332.833 199.5,266.167 199.5,199.5C 266.167,199.5 332.833,199.5 399.5,199.5 Z"/></g>
<g><path style="opacity:1" fill="#d8e4fe" d="M 399.5,199.5 C 466.167,199.5 532.833,199.5 599.5,199.5C 666.167,199.5 732.833,199.5 799.5,199.5C 799.5,266.167 799.5,332.833 799.5,399.5C 732.833,399.5 666.167,399.5 599.5,399.5C 599.5,466.167 599.5,532.833 599.5,599.5C 532.833,599.5 466.167,599.5 399.5,599.5C 399.5,532.833 399.5,466.167 399.5,399.5C 399.5,332.833 399.5,266.167 399.5,199.5 Z"/></g>
<g><path style="opacity:1" fill="#737d92" d="M 799.5,199.5 C 866.167,199.5 932.833,199.5 999.5,199.5C 999.5,266.167 999.5,332.833 999.5,399.5C 932.833,399.5 866.167,399.5 799.5,399.5C 799.5,332.833 799.5,266.167 799.5,199.5 Z"/></g>
<g><path style="opacity:1" fill="#8f97a4" d="M 199.5,399.5 C 266.167,399.5 332.833,399.5 399.5,399.5C 399.5,466.167 399.5,532.833 399.5,599.5C 332.833,599.5 266.167,599.5 199.5,599.5C 199.5,532.833 199.5,466.167 199.5,399.5 Z"/></g>
<g><path style="opacity:1" fill="#aeb8cb" d="M 799.5,399.5 C 799.5,532.833 799.5,666.167 799.5,799.5C 732.833,799.5 666.167,799.5 599.5,799.5C 599.5,732.833 599.5,666.167 599.5,599.5C 599.5,532.833 599.5,466.167 599.5,399.5C 666.167,399.5 732.833,399.5 799.5,399.5 Z"/></g>
<g><path style="opacity:1" fill="#5e6779" d="M 799.5,399.5 C 866.167,399.5 932.833,399.5 999.5,399.5C 999.5,599.5 999.5,799.5 999.5,999.5C 799.5,999.5 599.5,999.5 399.5,999.5C 399.5,932.833 399.5,866.167 399.5,799.5C 466.167,799.5 532.833,799.5 599.5,799.5C 666.167,799.5 732.833,799.5 799.5,799.5C 799.5,666.167 799.5,532.833 799.5,399.5 Z"/></g>
<g><path style="opacity:1" fill="#aeb8cb" d="M -0.5,599.5 C 66.1667,599.5 132.833,599.5 199.5,599.5C 199.5,666.167 199.5,732.833 199.5,799.5C 132.833,799.5 66.1667,799.5 -0.5,799.5C -0.5,732.833 -0.5,666.167 -0.5,599.5 Z"/></g>
<g><path style="opacity:1" fill="#d8e4fe" d="M 199.5,599.5 C 266.167,599.5 332.833,599.5 399.5,599.5C 399.5,666.167 399.5,732.833 399.5,799.5C 332.833,799.5 266.167,799.5 199.5,799.5C 199.5,732.833 199.5,666.167 199.5,599.5 Z"/></g>
<g><path style="opacity:1" fill="#8f97a4" d="M 399.5,599.5 C 466.167,599.5 532.833,599.5 599.5,599.5C 599.5,666.167 599.5,732.833 599.5,799.5C 532.833,799.5 466.167,799.5 399.5,799.5C 399.5,732.833 399.5,666.167 399.5,599.5 Z"/></g>
<g><path style="opacity:1" fill="#5e6779" d="M -0.5,799.5 C 66.1667,799.5 132.833,799.5 199.5,799.5C 199.5,866.167 199.5,932.833 199.5,999.5C 132.833,999.5 66.1667,999.5 -0.5,999.5C -0.5,932.833 -0.5,866.167 -0.5,799.5 Z"/></g>
<g><path style="opacity:1" fill="#737d92" d="M 199.5,799.5 C 266.167,799.5 332.833,799.5 399.5,799.5C 399.5,866.167 399.5,932.833 399.5,999.5C 332.833,999.5 266.167,999.5 199.5,999.5C 199.5,932.833 199.5,866.167 199.5,799.5 Z"/></g>
</svg>
