<svg viewBox="0 0 1100 1050" xmlns="http://www.w3.org/2000/svg"><rect x="0" y="50" width="250" height="600" fill="#567124" /><rect x="200" y="50" width="600" height="650" fill="#567124" /><rect x="50" y="150" width="100" height="400" fill="#37510c" /><rect x="0" y="300" width="250" height="100" fill="#b8b599" /><rect x="200" y="300" width="600" height="100" fill="#f4f0cb" /><rect x="450" y="50" width="100" height="600" fill="#f4f0cb" /><rect x="300" y="150" width="400" height="400" fill="#182305" /><rect x="400" y="0" width="200" height="100" fill="#84130d" /><rect x="550" y="0" width="100" height="100" fill="#af1810" /><rect x="200" y="650" width="350" height="350" fill="#37510c" /><rect x="250" y="750" width="200" height="250" fill="#273907" /><rect x="500" y="650" width="600" height="350" fill="#496b0f" /><rect x="600" y="750" width="400" height="250" fill="#334b09" /><rect x="200" y="950" width="350" height="100" fill="#1f3103" /><rect x="500" y="950" width="600" height="100" fill="#294003" /></svg>