<?xml version="1.0" encoding="UTF-8"?>
<!DOCTYPE svg PUBLIC "-//W3C//DTD SVG 1.1//EN" "http://www.w3.org/Graphics/SVG/1.1/DTD/svg11.dtd">
<svg xmlns="http://www.w3.org/2000/svg" version="1.1" width="1000px" height="875px" style="shape-rendering:geometricPrecision; text-rendering:geometricPrecision; image-rendering:optimizeQuality; fill-rule:evenodd; clip-rule:evenodd" xmlns:xlink="http://www.w3.org/1999/xlink">
<g><path style="opacity:1" fill="#67065e" d="M -0.5,-0.5 C 41.1667,-0.5 82.8333,-0.5 124.5,-0.5C 124.5,124.5 124.5,249.5 124.5,374.5C 124.5,416.167 124.5,457.833 124.5,499.5C 124.5,624.5 124.5,749.5 124.5,874.5C 82.8333,874.5 41.1667,874.5 -0.5,874.5C -0.5,582.833 -0.5,291.167 -0.5,-0.5 Z"/></g>
<g><path style="opacity:1" fill="#880754" d="M 124.5,-0.5 C 416.167,-0.5 707.833,-0.5 999.5,-0.5C 999.5,124.5 999.5,249.5 999.5,374.5C 957.833,374.5 916.167,374.5 874.5,374.5C 874.5,291.167 874.5,207.833 874.5,124.5C 791.167,124.5 707.833,124.5 624.5,124.5C 624.5,166.167 624.5,207.833 624.5,249.5C 666.167,249.5 707.833,249.5 749.5,249.5C 749.5,374.5 749.5,499.5 749.5,624.5C 707.833,624.5 666.167,624.5 624.5,624.5C 624.5,666.167 624.5,707.833 624.5,749.5C 707.833,749.5 791.167,749.5 874.5,749.5C 874.5,666.167 874.5,582.833 874.5,499.5C 916.167,499.5 957.833,499.5 999.5,499.5C 999.5,624.5 999.5,749.5 999.5,874.5C 707.833,874.5 416.167,874.5 124.5,874.5C 124.5,749.5 124.5,624.5 124.5,499.5C 166.167,499.5 207.833,499.5 249.5,499.5C 249.5,582.833 249.5,666.167 249.5,749.5C 332.833,749.5 416.167,749.5 499.5,749.5C 499.5,707.833 499.5,666.167 499.5,624.5C 457.833,624.5 416.167,624.5 374.5,624.5C 374.5,499.5 374.5,374.5 374.5,249.5C 416.167,249.5 457.833,249.5 499.5,249.5C 499.5,207.833 499.5,166.167 499.5,124.5C 416.167,124.5 332.833,124.5 249.5,124.5C 249.5,207.833 249.5,291.167 249.5,374.5C 207.833,374.5 166.167,374.5 124.5,374.5C 124.5,249.5 124.5,124.5 124.5,-0.5 Z"/></g>
<g><path style="opacity:1" fill="#fefffe" d="M 124.5,499.5 C 124.5,457.833 124.5,416.167 124.5,374.5C 166.167,374.5 207.833,374.5 249.5,374.5C 249.5,291.167 249.5,207.833 249.5,124.5C 332.833,124.5 416.167,124.5 499.5,124.5C 499.5,166.167 499.5,207.833 499.5,249.5C 457.833,249.5 416.167,249.5 374.5,249.5C 374.5,374.5 374.5,499.5 374.5,624.5C 416.167,624.5 457.833,624.5 499.5,624.5C 499.5,666.167 499.5,707.833 499.5,749.5C 416.167,749.5 332.833,749.5 249.5,749.5C 249.5,666.167 249.5,582.833 249.5,499.5C 207.833,499.5 166.167,499.5 124.5,499.5 Z"/></g>
<g><path style="opacity:1" fill="#fefffe" d="M 999.5,374.5 C 999.5,416.167 999.5,457.833 999.5,499.5C 957.833,499.5 916.167,499.5 874.5,499.5C 874.5,582.833 874.5,666.167 874.5,749.5C 791.167,749.5 707.833,749.5 624.5,749.5C 624.5,707.833 624.5,666.167 624.5,624.5C 666.167,624.5 707.833,624.5 749.5,624.5C 749.5,499.5 749.5,374.5 749.5,249.5C 707.833,249.5 666.167,249.5 624.5,249.5C 624.5,207.833 624.5,166.167 624.5,124.5C 707.833,124.5 791.167,124.5 874.5,124.5C 874.5,207.833 874.5,291.167 874.5,374.5C 916.167,374.5 957.833,374.5 999.5,374.5 Z"/></g>
</svg>
