<?xml version="1.0" encoding="UTF-8"?>
<!DOCTYPE svg PUBLIC "-//W3C//DTD SVG 1.1//EN" "http://www.w3.org/Graphics/SVG/1.1/DTD/svg11.dtd">
<svg xmlns="http://www.w3.org/2000/svg" version="1.1" width="1000px" height="923px" style="shape-rendering:geometricPrecision; text-rendering:geometricPrecision; image-rendering:optimizeQuality; fill-rule:evenodd; clip-rule:evenodd" xmlns:xlink="http://www.w3.org/1999/xlink">
<g><path style="opacity:1" fill="#477727" d="M 153.5,-0.5 C 179.167,-0.5 204.833,-0.5 230.5,-0.5C 230.5,50.8333 230.5,102.167 230.5,153.5C 204.833,153.5 179.167,153.5 153.5,153.5C 153.5,102.167 153.5,50.8333 153.5,-0.5 Z"/></g>
<g><path style="opacity:1" fill="#5e9e34" d="M 230.5,-0.5 C 281.833,-0.5 333.167,-0.5 384.5,-0.5C 384.5,50.8333 384.5,102.167 384.5,153.5C 435.5,153.5 486.5,153.5 537.5,153.5C 537.5,204.833 537.5,256.167 537.5,307.5C 563.167,307.5 588.833,307.5 614.5,307.5C 640.167,307.5 665.833,307.5 691.5,307.5C 691.5,409.833 691.5,512.167 691.5,614.5C 742.833,614.5 794.167,614.5 845.5,614.5C 845.5,665.833 845.5,717.167 845.5,768.5C 845.5,819.833 845.5,871.167 845.5,922.5C 794.167,922.5 742.833,922.5 691.5,922.5C 691.5,871.167 691.5,819.833 691.5,768.5C 665.833,768.5 640.167,768.5 614.5,768.5C 588.833,768.5 563.167,768.5 537.5,768.5C 537.5,717.167 537.5,665.833 537.5,614.5C 512.167,614.5 486.833,614.5 461.5,614.5C 435.833,614.5 410.167,614.5 384.5,614.5C 384.5,512.167 384.5,409.833 384.5,307.5C 333.167,307.5 281.833,307.5 230.5,307.5C 230.5,256.167 230.5,204.833 230.5,153.5C 230.5,102.167 230.5,50.8333 230.5,-0.5 Z"/></g>
<g><path style="opacity:1" fill="#4a8742" d="M 614.5,-0.5 C 640.167,-0.5 665.833,-0.5 691.5,-0.5C 691.5,102.167 691.5,204.833 691.5,307.5C 665.833,307.5 640.167,307.5 614.5,307.5C 614.5,204.833 614.5,102.167 614.5,-0.5 Z"/></g>
<g><path style="opacity:1" fill="#62b257" d="M 691.5,-0.5 C 742.833,-0.5 794.167,-0.5 845.5,-0.5C 845.5,50.8333 845.5,102.167 845.5,153.5C 896.833,153.5 948.167,153.5 999.5,153.5C 999.5,358.5 999.5,563.5 999.5,768.5C 948.167,768.5 896.833,768.5 845.5,768.5C 845.5,717.167 845.5,665.833 845.5,614.5C 794.167,614.5 742.833,614.5 691.5,614.5C 691.5,512.167 691.5,409.833 691.5,307.5C 691.5,204.833 691.5,102.167 691.5,-0.5 Z"/></g>
<g><path style="opacity:1" fill="#064f84" d="M -0.5,153.5 C 25.1667,153.5 50.8333,153.5 76.5,153.5C 76.5,358.5 76.5,563.5 76.5,768.5C 50.8333,768.5 25.1667,768.5 -0.5,768.5C -0.5,563.5 -0.5,358.5 -0.5,153.5 Z"/></g>
<g><path style="opacity:1" fill="#0768af" d="M 76.5,153.5 C 102.167,153.5 127.833,153.5 153.5,153.5C 179.167,153.5 204.833,153.5 230.5,153.5C 230.5,204.833 230.5,256.167 230.5,307.5C 281.833,307.5 333.167,307.5 384.5,307.5C 384.5,409.833 384.5,512.167 384.5,614.5C 384.5,717.167 384.5,819.833 384.5,922.5C 333.167,922.5 281.833,922.5 230.5,922.5C 230.5,871.167 230.5,819.833 230.5,768.5C 204.833,768.5 179.167,768.5 153.5,768.5C 127.833,768.5 102.167,768.5 76.5,768.5C 76.5,563.5 76.5,358.5 76.5,153.5 Z"/></g>
<g><path style="opacity:1" fill="#477727" d="M 461.5,614.5 C 486.833,614.5 512.167,614.5 537.5,614.5C 537.5,665.833 537.5,717.167 537.5,768.5C 512.167,768.5 486.833,768.5 461.5,768.5C 461.5,717.167 461.5,665.833 461.5,614.5 Z"/></g>
<g><path style="opacity:1" fill="#064f84" d="M 153.5,768.5 C 179.167,768.5 204.833,768.5 230.5,768.5C 230.5,819.833 230.5,871.167 230.5,922.5C 204.833,922.5 179.167,922.5 153.5,922.5C 153.5,871.167 153.5,819.833 153.5,768.5 Z"/></g>
<g><path style="opacity:1" fill="#477727" d="M 614.5,768.5 C 640.167,768.5 665.833,768.5 691.5,768.5C 691.5,819.833 691.5,871.167 691.5,922.5C 665.833,922.5 640.167,922.5 614.5,922.5C 614.5,871.167 614.5,819.833 614.5,768.5 Z"/></g>
</svg>
