<svg viewBox="0 0 1100 1050" xmlns="http://www.w3.org/2000/svg"><rect x="200" y="50" width="600" height="650" fill="#1d1a14" /><rect x="300" y="150" width="400" height="400" fill="#693f05" /><rect x="0" y="50" width="250" height="600" fill="#1d1a14" /><rect x="50" y="150" width="100" height="400" fill="#865107" /><rect x="400" y="0" width="200" height="100" fill="#767676" /><rect x="550" y="0" width="100" height="100" fill="#a5a5a5" /><rect x="700" y="500" width="100" height="150" fill="#487728" /><rect x="600" y="400" width="100" height="150" fill="#487728" /><rect x="700" y="50" width="100" height="250" fill="#4b8743" /><rect x="650" y="250" width="150" height="300" fill="#5f9e35" /><rect x="750" y="50" width="100" height="400" fill="#63b258" /><rect x="800" y="150" width="150" height="400" fill="#63b258" /><rect x="300" y="150" width="100" height="400" fill="#065084" /><rect x="400" y="500" width="100" height="150" fill="#065084" /><rect x="500" y="150" width="150" height="300" fill="#5f9e35" /><rect x="450" y="250" width="100" height="400" fill="#0769af" /><rect x="400" y="50" width="100" height="150" fill="#487728" /><rect x="350" y="150" width="150" height="400" fill="#0769af" /><rect x="450" y="50" width="100" height="200" fill="#5f9e35" /><rect x="750" y="450" width="100" height="200" fill="#5f9e35" /><rect x="200" y="650" width="350" height="400" fill="#1d1a14" /><rect x="250" y="750" width="200" height="200" fill="#865107" /><rect x="500" y="650" width="600" height="400" fill="#453c2f" /><rect x="600" y="750" width="400" height="200" fill="#a76e1f" /></svg>