<svg viewBox="0 0 1150 500" xmlns="http://www.w3.org/2000/svg"><rect x="0" y="0" width="100" height="500" fill="#2830b3" /><rect x="50" y="400" width="200" height="100" fill="#3561ed" /><rect x="50" y="0" width="100" height="500" fill="#3561ed" /><rect x="50" y="0" width="200" height="100" fill="#3561ed" /><rect x="300" y="100" width="100" height="300" fill="#2830b3" /><rect x="400" y="0" width="100" height="100" fill="#2830b3" /><rect x="400" y="400" width="100" height="100" fill="#2830b3" /><rect x="700" y="300" width="100" height="100" fill="#2830b3" /><rect x="700" y="100" width="100" height="100" fill="#2830b3" /><rect x="450" y="400" width="300" height="100" fill="#3561ed" /><rect x="350" y="100" width="100" height="300" fill="#3561ed" /><rect x="450" y="0" width="300" height="100" fill="#3561ed" /><rect x="750" y="100" width="100" height="100" fill="#3561ed" /><rect x="750" y="300" width="100" height="100" fill="#3561ed" /><rect x="900" y="400" width="100" height="100" fill="#2830b3" /><rect x="1000" y="50" width="100" height="400" fill="#2830b3" /><rect x="900" y="0" width="100" height="100" fill="#2830b3" /><rect x="950" y="0" width="200" height="100" fill="#3561ed" /><rect x="1050" y="50" width="100" height="450" fill="#3561ed" /><rect x="950" y="400" width="150" height="100" fill="#3561ed" /></svg>