<svg viewBox="0 0 1150 700" xmlns="http://www.w3.org/2000/svg"><rect x="0" y="100" width="350" height="600" fill="#b08338" /><rect x="400" y="0" width="150" height="150" fill="#bd8f50" /><rect x="500" y="0" width="100" height="150" fill="#fbc269" /><rect x="300" y="100" width="600" height="600" fill="#e9ad4a" /><rect x="200" y="200" width="150" height="100" fill="#241f16" /><rect x="300" y="200" width="150" height="100" fill="#2f281c" /><rect x="50" y="0" width="150" height="150" fill="#bd8f50" /><rect x="150" y="0" width="100" height="150" fill="#fbc269" /><rect x="400" y="100" width="400" height="400" fill="#b08338" /><rect x="750" y="100" width="400" height="400" fill="#e9ad4a" /><rect x="700" y="100" width="100" height="100" fill="#48371b" /><rect x="750" y="100" width="400" height="100" fill="#5f4823" /><rect x="850" y="100" width="200" height="250" fill="#9c7f50" /><rect x="600" y="200" width="50" height="200" fill="#48371b" /><rect x="600" y="300" width="200" height="100" fill="#48371b" /><rect x="750" y="300" width="400" height="100" fill="#5f4823" /></svg>