<?xml version="1.0" encoding="UTF-8"?>
<!DOCTYPE svg PUBLIC "-//W3C//DTD SVG 1.1//EN" "http://www.w3.org/Graphics/SVG/1.1/DTD/svg11.dtd">
<svg xmlns="http://www.w3.org/2000/svg" version="1.1" width="1000px" height="909px" style="shape-rendering:geometricPrecision; text-rendering:geometricPrecision; image-rendering:optimizeQuality; fill-rule:evenodd; clip-rule:evenodd" xmlns:xlink="http://www.w3.org/1999/xlink">
<g><path style="opacity:1" fill="#173365" d="M 181.5,-0.5 C 211.833,-0.5 242.167,-0.5 272.5,-0.5C 272.5,60.1667 272.5,120.833 272.5,181.5C 242.167,181.5 211.833,181.5 181.5,181.5C 181.5,120.833 181.5,60.1667 181.5,-0.5 Z"/></g>
<g><path style="opacity:1" fill="#1e5085" d="M 272.5,-0.5 C 454.167,-0.5 635.833,-0.5 817.5,-0.5C 817.5,60.1667 817.5,120.833 817.5,181.5C 787.167,181.5 756.833,181.5 726.5,181.5C 575.167,181.5 423.833,181.5 272.5,181.5C 272.5,120.833 272.5,60.1667 272.5,-0.5 Z"/></g>
<g><path style="opacity:1" fill="#173365" d="M -0.5,181.5 C 29.8333,181.5 60.1667,181.5 90.5,181.5C 90.5,363.167 90.5,544.833 90.5,726.5C 60.1667,726.5 29.8333,726.5 -0.5,726.5C -0.5,544.833 -0.5,363.167 -0.5,181.5 Z"/></g>
<g><path style="opacity:1" fill="#1e5085" d="M 90.5,181.5 C 120.833,181.5 151.167,181.5 181.5,181.5C 211.833,181.5 242.167,181.5 272.5,181.5C 272.5,363.167 272.5,544.833 272.5,726.5C 242.167,726.5 211.833,726.5 181.5,726.5C 151.167,726.5 120.833,726.5 90.5,726.5C 90.5,544.833 90.5,363.167 90.5,181.5 Z"/></g>
<g><path style="opacity:1" fill="#173365" d="M 726.5,181.5 C 756.833,181.5 787.167,181.5 817.5,181.5C 817.5,363.167 817.5,544.833 817.5,726.5C 787.167,726.5 756.833,726.5 726.5,726.5C 726.5,544.833 726.5,363.167 726.5,181.5 Z"/></g>
<g><path style="opacity:1" fill="#1e5085" d="M 817.5,181.5 C 878.167,181.5 938.833,181.5 999.5,181.5C 999.5,363.167 999.5,544.833 999.5,726.5C 938.833,726.5 878.167,726.5 817.5,726.5C 817.5,544.833 817.5,363.167 817.5,181.5 Z"/></g>
<g><path style="opacity:1" fill="#173365" d="M 181.5,726.5 C 211.833,726.5 242.167,726.5 272.5,726.5C 272.5,787.167 272.5,847.833 272.5,908.5C 242.167,908.5 211.833,908.5 181.5,908.5C 181.5,847.833 181.5,787.167 181.5,726.5 Z"/></g>
<g><path style="opacity:1" fill="#1e5085" d="M 272.5,726.5 C 423.833,726.5 575.167,726.5 726.5,726.5C 756.833,726.5 787.167,726.5 817.5,726.5C 817.5,787.167 817.5,847.833 817.5,908.5C 635.833,908.5 454.167,908.5 272.5,908.5C 272.5,847.833 272.5,787.167 272.5,726.5 Z"/></g>
</svg>
