<?xml version="1.0" encoding="UTF-8"?>
<!DOCTYPE svg PUBLIC "-//W3C//DTD SVG 1.1//EN" "http://www.w3.org/Graphics/SVG/1.1/DTD/svg11.dtd">
<svg xmlns="http://www.w3.org/2000/svg" version="1.1" width="1000px" height="666px" style="shape-rendering:geometricPrecision; text-rendering:geometricPrecision; image-rendering:optimizeQuality; fill-rule:evenodd; clip-rule:evenodd" xmlns:xlink="http://www.w3.org/1999/xlink">
<g><path style="opacity:1" fill="#9cb1af" d="M -0.5,-0.5 C 110.5,-0.5 221.5,-0.5 332.5,-0.5C 332.5,147.5 332.5,295.5 332.5,443.5C 314.167,443.5 295.833,443.5 277.5,443.5C 277.5,406.5 277.5,369.5 277.5,332.5C 203.5,332.5 129.5,332.5 55.5,332.5C 55.5,295.5 55.5,258.5 55.5,221.5C 129.5,221.5 203.5,221.5 277.5,221.5C 277.5,184.5 277.5,147.5 277.5,110.5C 203.5,110.5 129.5,110.5 55.5,110.5C 36.8333,110.5 18.1667,110.5 -0.5,110.5C -0.5,73.5 -0.5,36.5 -0.5,-0.5 Z"/></g>
<g><path style="opacity:1" fill="#cfeae8" d="M 332.5,-0.5 C 554.833,-0.5 777.167,-0.5 999.5,-0.5C 999.5,36.5 999.5,73.5 999.5,110.5C 962.5,110.5 925.5,110.5 888.5,110.5C 740.167,110.5 591.833,110.5 443.5,110.5C 443.5,147.5 443.5,184.5 443.5,221.5C 499.167,221.5 554.833,221.5 610.5,221.5C 610.5,258.5 610.5,295.5 610.5,332.5C 554.833,332.5 499.167,332.5 443.5,332.5C 443.5,369.5 443.5,406.5 443.5,443.5C 406.5,443.5 369.5,443.5 332.5,443.5C 332.5,295.5 332.5,147.5 332.5,-0.5 Z"/></g>
<g><path style="opacity:1" fill="#7e9da3" d="M -0.5,110.5 C 18.1667,110.5 36.8333,110.5 55.5,110.5C 55.5,147.5 55.5,184.5 55.5,221.5C 55.5,258.5 55.5,295.5 55.5,332.5C 36.8333,332.5 18.1667,332.5 -0.5,332.5C -0.5,258.5 -0.5,184.5 -0.5,110.5 Z"/></g>
<g><path style="opacity:1" fill="#a7d0d8" d="M 888.5,110.5 C 925.5,110.5 962.5,110.5 999.5,110.5C 999.5,184.5 999.5,258.5 999.5,332.5C 962.5,332.5 925.5,332.5 888.5,332.5C 888.5,295.5 888.5,258.5 888.5,221.5C 888.5,184.5 888.5,147.5 888.5,110.5 Z"/></g>
<g><path style="opacity:1" fill="#69929a" d="M 610.5,221.5 C 629.167,221.5 647.833,221.5 666.5,221.5C 666.5,295.5 666.5,369.5 666.5,443.5C 647.833,443.5 629.167,443.5 610.5,443.5C 610.5,406.5 610.5,369.5 610.5,332.5C 610.5,295.5 610.5,258.5 610.5,221.5 Z"/></g>
<g><path style="opacity:1" fill="#8bc1cc" d="M 666.5,221.5 C 703.5,221.5 740.5,221.5 777.5,221.5C 777.5,258.5 777.5,295.5 777.5,332.5C 777.5,369.5 777.5,406.5 777.5,443.5C 740.5,443.5 703.5,443.5 666.5,443.5C 666.5,369.5 666.5,295.5 666.5,221.5 Z"/></g>
<g><path style="opacity:1" fill="#cfeae8" d="M 777.5,221.5 C 814.5,221.5 851.5,221.5 888.5,221.5C 888.5,258.5 888.5,295.5 888.5,332.5C 851.5,332.5 814.5,332.5 777.5,332.5C 777.5,295.5 777.5,258.5 777.5,221.5 Z"/></g>
<g><path style="opacity:1" fill="#69929a" d="M -0.5,332.5 C 18.1667,332.5 36.8333,332.5 55.5,332.5C 55.5,406.5 55.5,480.5 55.5,554.5C 110.833,554.5 166.167,554.5 221.5,554.5C 221.5,591.5 221.5,628.5 221.5,665.5C 147.5,665.5 73.5,665.5 -0.5,665.5C -0.5,554.5 -0.5,443.5 -0.5,332.5 Z"/></g>
<g><path style="opacity:1" fill="#8bc1cc" d="M 888.5,332.5 C 925.5,332.5 962.5,332.5 999.5,332.5C 999.5,443.5 999.5,554.5 999.5,665.5C 851.5,665.5 703.5,665.5 555.5,665.5C 555.5,628.5 555.5,591.5 555.5,554.5C 666.5,554.5 777.5,554.5 888.5,554.5C 888.5,480.5 888.5,406.5 888.5,332.5 Z"/></g>
<g><path style="opacity:1" fill="#7e9da3" d="M 277.5,443.5 C 295.833,443.5 314.167,443.5 332.5,443.5C 332.5,517.5 332.5,591.5 332.5,665.5C 295.5,665.5 258.5,665.5 221.5,665.5C 221.5,628.5 221.5,591.5 221.5,554.5C 240.167,554.5 258.833,554.5 277.5,554.5C 277.5,517.5 277.5,480.5 277.5,443.5 Z"/></g>
<g><path style="opacity:1" fill="#a7d0d8" d="M 332.5,443.5 C 369.5,443.5 406.5,443.5 443.5,443.5C 443.5,480.5 443.5,517.5 443.5,554.5C 480.833,554.5 518.167,554.5 555.5,554.5C 555.5,591.5 555.5,628.5 555.5,665.5C 481.167,665.5 406.833,665.5 332.5,665.5C 332.5,591.5 332.5,517.5 332.5,443.5 Z"/></g>
</svg>
