<svg viewBox="0 0 900 600" xmlns="http://www.w3.org/2000/svg"><rect x="0" y="250" width="50" height="350" fill="#69929b" /><rect x="0" y="500" width="250" height="100" fill="#69929b" /><rect x="200" y="500" width="150" height="100" fill="#7f9da4" /><rect x="250" y="350" width="100" height="250" fill="#7f9da4" /><rect x="250" y="0" width="100" height="400" fill="#9db1b0" /><rect x="0" y="50" width="50" height="250" fill="#7f9da4" /><rect x="0" y="0" width="350" height="100" fill="#9db1b0" /><rect x="50" y="200" width="300" height="100" fill="#9db1b0" /><rect x="300" y="350" width="100" height="250" fill="#a8d0d9" /><rect x="300" y="500" width="250" height="100" fill="#a8d0d9" /><rect x="500" y="500" width="400" height="100" fill="#8bc1cd" /><rect x="800" y="250" width="100" height="350" fill="#8bc1cd" /><rect x="300" y="0" width="100" height="400" fill="#d0eae9" /><rect x="300" y="200" width="550" height="100" fill="#d0eae9" /><rect x="800" y="50" width="100" height="250" fill="#a8d0d9" /><rect x="350" y="0" width="550" height="100" fill="#d0eae9" /><rect x="550" y="200" width="100" height="200" fill="#69929b" /><rect x="600" y="200" width="100" height="200" fill="#8bc1cd" /></svg>