<svg viewBox="0 0 1100 1050" xmlns="http://www.w3.org/2000/svg"><rect x="0" y="250" width="50" height="400" fill="#69929b" /><rect x="0" y="550" width="150" height="100" fill="#69929b" /><rect x="100" y="550" width="150" height="100" fill="#7f9da4" /><rect x="150" y="400" width="100" height="250" fill="#7f9da4" /><rect x="150" y="50" width="100" height="400" fill="#9db1b0" /><rect x="0" y="50" width="200" height="100" fill="#9db1b0" /><rect x="0" y="50" width="50" height="200" fill="#7f9da4" /><rect x="350" y="550" width="450" height="150" fill="#8bc1cd" /><rect x="700" y="200" width="100" height="400" fill="#8bc1cd" /><rect x="200" y="50" width="550" height="100" fill="#d0eae9" /><rect x="700" y="50" width="100" height="200" fill="#a8d0d9" /><rect x="200" y="50" width="100" height="450" fill="#d0eae9" /><rect x="200" y="450" width="100" height="200" fill="#a8d0d9" /><rect x="200" y="550" width="200" height="150" fill="#a8d0d9" /><rect x="450" y="700" width="100" height="200" fill="#9db1b0" /><rect x="200" y="700" width="50" height="350" fill="#69929b" /><rect x="200" y="650" width="100" height="100" fill="#7f9da4" /><rect x="250" y="650" width="300" height="100" fill="#9db1b0" /><rect x="200" y="950" width="250" height="100" fill="#69929b" /><rect x="400" y="950" width="150" height="100" fill="#7f9da4" /><rect x="450" y="850" width="100" height="200" fill="#7f9da4" /><rect x="500" y="800" width="100" height="250" fill="#a8d0d9" /><rect x="500" y="950" width="250" height="100" fill="#a8d0d9" /><rect x="700" y="950" width="400" height="100" fill="#8bc1cd" /><rect x="1000" y="700" width="100" height="300" fill="#8bc1cd" /><rect x="500" y="650" width="100" height="200" fill="#d0eae9" /><rect x="500" y="650" width="550" height="100" fill="#d0eae9" /><rect x="1000" y="650" width="100" height="100" fill="#a8d0d9" /><rect x="400" y="0" width="200" height="100" fill="#69929b" /><rect x="550" y="0" width="100" height="100" fill="#8bc1cd" /></svg>