<?xml version="1.0" encoding="UTF-8"?>
<!DOCTYPE svg PUBLIC "-//W3C//DTD SVG 1.1//EN" "http://www.w3.org/Graphics/SVG/1.1/DTD/svg11.dtd">
<svg xmlns="http://www.w3.org/2000/svg" version="1.1" width="1000px" height="954px" style="shape-rendering:geometricPrecision; text-rendering:geometricPrecision; image-rendering:optimizeQuality; fill-rule:evenodd; clip-rule:evenodd" xmlns:xlink="http://www.w3.org/1999/xlink">
<g><path style="opacity:1" fill="#69929a" d="M 363.5,-0.5 C 408.833,-0.5 454.167,-0.5 499.5,-0.5C 499.5,29.8333 499.5,60.1667 499.5,90.5C 454.167,90.5 408.833,90.5 363.5,90.5C 363.5,75.1667 363.5,59.8333 363.5,44.5C 363.5,29.5 363.5,14.5 363.5,-0.5 Z"/></g>
<g><path style="opacity:1" fill="#8bc1cc" d="M 499.5,-0.5 C 529.833,-0.5 560.167,-0.5 590.5,-0.5C 590.5,14.5 590.5,29.5 590.5,44.5C 590.5,59.8333 590.5,75.1667 590.5,90.5C 560.167,90.5 529.833,90.5 499.5,90.5C 499.5,60.1667 499.5,29.8333 499.5,-0.5 Z"/></g>
<g><path style="opacity:1" fill="#7e9da3" d="M -0.5,44.5 C 14.5,44.5 29.5,44.5 44.5,44.5C 44.5,74.8333 44.5,105.167 44.5,135.5C 44.5,165.833 44.5,196.167 44.5,226.5C 29.5,226.5 14.5,226.5 -0.5,226.5C -0.5,165.833 -0.5,105.167 -0.5,44.5 Z"/></g>
<g><path style="opacity:1" fill="#9cb1af" d="M 44.5,44.5 C 90.1667,44.5 135.833,44.5 181.5,44.5C 181.5,165.833 181.5,287.167 181.5,408.5C 166.167,408.5 150.833,408.5 135.5,408.5C 135.5,317.5 135.5,226.5 135.5,135.5C 105.167,135.5 74.8333,135.5 44.5,135.5C 44.5,105.167 44.5,74.8333 44.5,44.5 Z"/></g>
<g><path style="opacity:1" fill="#cfeae8" d="M 181.5,44.5 C 242.167,44.5 302.833,44.5 363.5,44.5C 363.5,59.8333 363.5,75.1667 363.5,90.5C 408.833,90.5 454.167,90.5 499.5,90.5C 529.833,90.5 560.167,90.5 590.5,90.5C 590.5,75.1667 590.5,59.8333 590.5,44.5C 605.5,44.5 620.5,44.5 635.5,44.5C 635.5,74.8333 635.5,105.167 635.5,135.5C 514.5,135.5 393.5,135.5 272.5,135.5C 272.5,226.5 272.5,317.5 272.5,408.5C 242.167,408.5 211.833,408.5 181.5,408.5C 181.5,287.167 181.5,165.833 181.5,44.5 Z"/></g>
<g><path style="opacity:1" fill="#a7d0d8" d="M 635.5,44.5 C 665.833,44.5 696.167,44.5 726.5,44.5C 726.5,105.167 726.5,165.833 726.5,226.5C 696.167,226.5 665.833,226.5 635.5,226.5C 635.5,196.167 635.5,165.833 635.5,135.5C 635.5,105.167 635.5,74.8333 635.5,44.5 Z"/></g>
<g><path style="opacity:1" fill="#69929a" d="M -0.5,226.5 C 14.5,226.5 29.5,226.5 44.5,226.5C 44.5,317.5 44.5,408.5 44.5,499.5C 59.8333,499.5 75.1667,499.5 90.5,499.5C 90.5,529.833 90.5,560.167 90.5,590.5C 60.1667,590.5 29.8333,590.5 -0.5,590.5C -0.5,469.167 -0.5,347.833 -0.5,226.5 Z"/></g>
<g><path style="opacity:1" fill="#8bc1cc" d="M 635.5,226.5 C 665.833,226.5 696.167,226.5 726.5,226.5C 726.5,347.833 726.5,469.167 726.5,590.5C 635.833,590.5 545.167,590.5 454.5,590.5C 424.167,590.5 393.833,590.5 363.5,590.5C 363.5,560.167 363.5,529.833 363.5,499.5C 454.167,499.5 544.833,499.5 635.5,499.5C 635.5,408.5 635.5,317.5 635.5,226.5 Z"/></g>
<g><path style="opacity:1" fill="#7e9da3" d="M 135.5,408.5 C 150.833,408.5 166.167,408.5 181.5,408.5C 181.5,469.167 181.5,529.833 181.5,590.5C 151.167,590.5 120.833,590.5 90.5,590.5C 90.5,560.167 90.5,529.833 90.5,499.5C 105.5,499.5 120.5,499.5 135.5,499.5C 135.5,469.167 135.5,438.833 135.5,408.5 Z"/></g>
<g><path style="opacity:1" fill="#a7d0d8" d="M 181.5,408.5 C 211.833,408.5 242.167,408.5 272.5,408.5C 272.5,438.833 272.5,469.167 272.5,499.5C 302.833,499.5 333.167,499.5 363.5,499.5C 363.5,529.833 363.5,560.167 363.5,590.5C 317.833,590.5 272.167,590.5 226.5,590.5C 211.5,590.5 196.5,590.5 181.5,590.5C 181.5,529.833 181.5,469.167 181.5,408.5 Z"/></g>
<g><path style="opacity:1" fill="#7e9da3" d="M 181.5,590.5 C 196.5,590.5 211.5,590.5 226.5,590.5C 226.5,620.5 226.5,650.5 226.5,680.5C 211.5,680.5 196.5,680.5 181.5,680.5C 181.5,650.5 181.5,620.5 181.5,590.5 Z"/></g>
<g><path style="opacity:1" fill="#9cb1af" d="M 226.5,590.5 C 272.167,590.5 317.833,590.5 363.5,590.5C 393.833,590.5 424.167,590.5 454.5,590.5C 454.5,650.833 454.5,711.167 454.5,771.5C 439.167,771.5 423.833,771.5 408.5,771.5C 408.5,741.167 408.5,710.833 408.5,680.5C 347.833,680.5 287.167,680.5 226.5,680.5C 226.5,650.5 226.5,620.5 226.5,590.5 Z"/></g>
<g><path style="opacity:1" fill="#cfeae8" d="M 454.5,590.5 C 545.167,590.5 635.833,590.5 726.5,590.5C 787.167,590.5 847.833,590.5 908.5,590.5C 908.5,620.5 908.5,650.5 908.5,680.5C 787.167,680.5 665.833,680.5 544.5,680.5C 544.5,710.833 544.5,741.167 544.5,771.5C 514.5,771.5 484.5,771.5 454.5,771.5C 454.5,711.167 454.5,650.833 454.5,590.5 Z"/></g>
<g><path style="opacity:1" fill="#a7d0d8" d="M 908.5,590.5 C 938.833,590.5 969.167,590.5 999.5,590.5C 999.5,620.5 999.5,650.5 999.5,680.5C 969.167,680.5 938.833,680.5 908.5,680.5C 908.5,650.5 908.5,620.5 908.5,590.5 Z"/></g>
<g><path style="opacity:1" fill="#69929a" d="M 181.5,680.5 C 196.5,680.5 211.5,680.5 226.5,680.5C 226.5,741.167 226.5,801.833 226.5,862.5C 272.167,862.5 317.833,862.5 363.5,862.5C 363.5,892.833 363.5,923.167 363.5,953.5C 302.833,953.5 242.167,953.5 181.5,953.5C 181.5,862.5 181.5,771.5 181.5,680.5 Z"/></g>
<g><path style="opacity:1" fill="#8bc1cc" d="M 908.5,680.5 C 938.833,680.5 969.167,680.5 999.5,680.5C 999.5,771.5 999.5,862.5 999.5,953.5C 878.167,953.5 756.833,953.5 635.5,953.5C 635.5,923.167 635.5,892.833 635.5,862.5C 726.5,862.5 817.5,862.5 908.5,862.5C 908.5,801.833 908.5,741.167 908.5,680.5 Z"/></g>
<g><path style="opacity:1" fill="#7e9da3" d="M 408.5,771.5 C 423.833,771.5 439.167,771.5 454.5,771.5C 454.5,832.167 454.5,892.833 454.5,953.5C 424.167,953.5 393.833,953.5 363.5,953.5C 363.5,923.167 363.5,892.833 363.5,862.5C 378.5,862.5 393.5,862.5 408.5,862.5C 408.5,832.167 408.5,801.833 408.5,771.5 Z"/></g>
<g><path style="opacity:1" fill="#a7d0d8" d="M 454.5,771.5 C 484.5,771.5 514.5,771.5 544.5,771.5C 544.5,801.833 544.5,832.167 544.5,862.5C 574.833,862.5 605.167,862.5 635.5,862.5C 635.5,892.833 635.5,923.167 635.5,953.5C 575.167,953.5 514.833,953.5 454.5,953.5C 454.5,892.833 454.5,832.167 454.5,771.5 Z"/></g>
</svg>
