<svg viewBox="0 0 750 600" xmlns="http://www.w3.org/2000/svg"><rect x="200" y="350" width="100" height="150" fill="#777777" /><rect x="250" y="150" width="200" height="350" fill="#9d9d9d" /><rect x="300" y="300" width="100" height="300" fill="#c0c0c0" /><rect x="400" y="150" width="100" height="200" fill="#c0c0c0" /><rect x="0" y="200" width="100" height="100" fill="#c0c0c0" /><rect x="100" y="250" width="100" height="150" fill="#c0c0c0" /><rect x="200" y="100" width="100" height="100" fill="#c0c0c0" /><rect x="400" y="0" width="100" height="100" fill="#c0c0c0" /><rect x="350" y="300" width="100" height="300" fill="#ffffff" /><rect x="400" y="300" width="150" height="200" fill="#ffffff" /><rect x="150" y="200" width="100" height="200" fill="#ffffff" /><rect x="50" y="200" width="300" height="100" fill="#ffffff" /><rect x="250" y="100" width="400" height="100" fill="#ffffff" /><rect x="250" y="150" width="100" height="100" fill="#ffffff" /><rect x="450" y="0" width="300" height="100" fill="#ffffff" /><rect x="450" y="50" width="200" height="250" fill="#ffffff" /><rect x="450" y="250" width="100" height="100" fill="#ffffff" /></svg>