<?xml version="1.0" encoding="UTF-8"?>
<!DOCTYPE svg PUBLIC "-//W3C//DTD SVG 1.1//EN" "http://www.w3.org/Graphics/SVG/1.1/DTD/svg11.dtd">
<svg xmlns="http://www.w3.org/2000/svg" version="1.1" width="1000px" height="833px" style="shape-rendering:geometricPrecision; text-rendering:geometricPrecision; image-rendering:optimizeQuality; fill-rule:evenodd; clip-rule:evenodd" xmlns:xlink="http://www.w3.org/1999/xlink">
<g><path style="opacity:1" fill="#229b85" d="M -0.5,-0.5 C 55.1667,-0.5 110.833,-0.5 166.5,-0.5C 166.5,55.1667 166.5,110.833 166.5,166.5C 110.833,166.5 55.1667,166.5 -0.5,166.5C -0.5,110.833 -0.5,55.1667 -0.5,-0.5 Z"/></g>
<g><path style="opacity:1" fill="#2ccdb0" d="M 166.5,-0.5 C 221.833,-0.5 277.167,-0.5 332.5,-0.5C 332.5,55.1667 332.5,110.833 332.5,166.5C 277.167,166.5 221.833,166.5 166.5,166.5C 166.5,110.833 166.5,55.1667 166.5,-0.5 Z"/></g>
<g><path style="opacity:1" fill="#349987" d="M 332.5,-0.5 C 443.833,-0.5 555.167,-0.5 666.5,-0.5C 666.5,55.1667 666.5,110.833 666.5,166.5C 555.167,166.5 443.833,166.5 332.5,166.5C 332.5,110.833 332.5,55.1667 332.5,-0.5 Z"/></g>
<g><path style="opacity:1" fill="#105e50" d="M 666.5,-0.5 C 777.5,-0.5 888.5,-0.5 999.5,-0.5C 999.5,110.5 999.5,221.5 999.5,332.5C 943.833,332.5 888.167,332.5 832.5,332.5C 832.5,277.167 832.5,221.833 832.5,166.5C 777.167,166.5 721.833,166.5 666.5,166.5C 666.5,110.833 666.5,55.1667 666.5,-0.5 Z"/></g>
<g><path style="opacity:1" fill="#287466" d="M -0.5,166.5 C 55.1667,166.5 110.833,166.5 166.5,166.5C 166.5,221.833 166.5,277.167 166.5,332.5C 110.833,332.5 55.1667,332.5 -0.5,332.5C -0.5,277.167 -0.5,221.833 -0.5,166.5 Z"/></g>
<g><path style="opacity:1" fill="#349987" d="M 166.5,166.5 C 221.833,166.5 277.167,166.5 332.5,166.5C 332.5,221.833 332.5,277.167 332.5,332.5C 277.167,332.5 221.833,332.5 166.5,332.5C 166.5,277.167 166.5,221.833 166.5,166.5 Z"/></g>
<g><path style="opacity:1" fill="#03261f" d="M 332.5,166.5 C 443.833,166.5 555.167,166.5 666.5,166.5C 721.833,166.5 777.167,166.5 832.5,166.5C 832.5,221.833 832.5,277.167 832.5,332.5C 832.5,388.167 832.5,443.833 832.5,499.5C 832.5,554.833 832.5,610.167 832.5,665.5C 777.167,665.5 721.833,665.5 666.5,665.5C 610.833,665.5 555.167,665.5 499.5,665.5C 443.833,665.5 388.167,665.5 332.5,665.5C 332.5,554.5 332.5,443.5 332.5,332.5C 332.5,277.167 332.5,221.833 332.5,166.5 Z"/></g>
<g><path style="opacity:1" fill="#0d473c" d="M -0.5,332.5 C 55.1667,332.5 110.833,332.5 166.5,332.5C 166.5,499.167 166.5,665.833 166.5,832.5C 110.833,832.5 55.1667,832.5 -0.5,832.5C -0.5,665.833 -0.5,499.167 -0.5,332.5 Z"/></g>
<g><path style="opacity:1" fill="#105e50" d="M 166.5,332.5 C 221.833,332.5 277.167,332.5 332.5,332.5C 332.5,443.5 332.5,554.5 332.5,665.5C 388.167,665.5 443.833,665.5 499.5,665.5C 499.5,721.167 499.5,776.833 499.5,832.5C 388.5,832.5 277.5,832.5 166.5,832.5C 166.5,665.833 166.5,499.167 166.5,332.5 Z"/></g>
<g><path style="opacity:1" fill="#349987" d="M 832.5,332.5 C 888.167,332.5 943.833,332.5 999.5,332.5C 999.5,388.167 999.5,443.833 999.5,499.5C 943.833,499.5 888.167,499.5 832.5,499.5C 832.5,443.833 832.5,388.167 832.5,332.5 Z"/></g>
<g><path style="opacity:1" fill="#2ccdb0" d="M 832.5,499.5 C 888.167,499.5 943.833,499.5 999.5,499.5C 999.5,554.833 999.5,610.167 999.5,665.5C 943.833,665.5 888.167,665.5 832.5,665.5C 832.5,610.167 832.5,554.833 832.5,499.5 Z"/></g>
<g><path style="opacity:1" fill="#349987" d="M 499.5,665.5 C 555.167,665.5 610.833,665.5 666.5,665.5C 666.5,721.167 666.5,776.833 666.5,832.5C 610.833,832.5 555.167,832.5 499.5,832.5C 499.5,776.833 499.5,721.167 499.5,665.5 Z"/></g>
<g><path style="opacity:1" fill="#2ccdb0" d="M 666.5,665.5 C 721.833,665.5 777.167,665.5 832.5,665.5C 832.5,721.167 832.5,776.833 832.5,832.5C 777.167,832.5 721.833,832.5 666.5,832.5C 666.5,776.833 666.5,721.167 666.5,665.5 Z"/></g>
<g><path style="opacity:1" fill="#8cf4e1" d="M 832.5,665.5 C 888.167,665.5 943.833,665.5 999.5,665.5C 999.5,721.167 999.5,776.833 999.5,832.5C 943.833,832.5 888.167,832.5 832.5,832.5C 832.5,776.833 832.5,721.167 832.5,665.5 Z"/></g>
</svg>
