<?xml version="1.0" encoding="UTF-8"?>
<!DOCTYPE svg PUBLIC "-//W3C//DTD SVG 1.1//EN" "http://www.w3.org/Graphics/SVG/1.1/DTD/svg11.dtd">
<svg xmlns="http://www.w3.org/2000/svg" version="1.1" width="1000px" height="286px" style="shape-rendering:geometricPrecision; text-rendering:geometricPrecision; image-rendering:optimizeQuality; fill-rule:evenodd; clip-rule:evenodd" xmlns:xlink="http://www.w3.org/1999/xlink">
<g><path style="opacity:1" fill="#0056b3" d="M -0.5,-0.5 C 9.16667,-0.5 18.8333,-0.5 28.5,-0.5C 28.5,94.8333 28.5,190.167 28.5,285.5C 18.8333,285.5 9.16667,285.5 -0.5,285.5C -0.5,190.167 -0.5,94.8333 -0.5,-0.5 Z"/></g>
<g><path style="opacity:1" fill="#0174ef" d="M 28.5,-0.5 C 104.833,-0.5 181.167,-0.5 257.5,-0.5C 257.5,18.8333 257.5,38.1667 257.5,57.5C 247.833,57.5 238.167,57.5 228.5,57.5C 180.833,57.5 133.167,57.5 85.5,57.5C 85.5,76.5 85.5,95.5 85.5,114.5C 133.167,114.5 180.833,114.5 228.5,114.5C 238.167,114.5 247.833,114.5 257.5,114.5C 257.5,133.5 257.5,152.5 257.5,171.5C 200.167,171.5 142.833,171.5 85.5,171.5C 85.5,209.5 85.5,247.5 85.5,285.5C 66.5,285.5 47.5,285.5 28.5,285.5C 28.5,190.167 28.5,94.8333 28.5,-0.5 Z"/></g>
<g><path style="opacity:1" fill="#0056b3" d="M 342.5,-0.5 C 352.167,-0.5 361.833,-0.5 371.5,-0.5C 371.5,94.8333 371.5,190.167 371.5,285.5C 361.833,285.5 352.167,285.5 342.5,285.5C 342.5,190.167 342.5,94.8333 342.5,-0.5 Z"/></g>
<g><path style="opacity:1" fill="#0174ef" d="M 371.5,-0.5 C 390.5,-0.5 409.5,-0.5 428.5,-0.5C 428.5,37.8333 428.5,76.1667 428.5,114.5C 476.167,114.5 523.833,114.5 571.5,114.5C 581.167,114.5 590.833,114.5 600.5,114.5C 600.5,76.1667 600.5,37.8333 600.5,-0.5C 619.5,-0.5 638.5,-0.5 657.5,-0.5C 657.5,94.8333 657.5,190.167 657.5,285.5C 638.5,285.5 619.5,285.5 600.5,285.5C 600.5,247.5 600.5,209.5 600.5,171.5C 590.833,171.5 581.167,171.5 571.5,171.5C 523.833,171.5 476.167,171.5 428.5,171.5C 428.5,209.5 428.5,247.5 428.5,285.5C 409.5,285.5 390.5,285.5 371.5,285.5C 371.5,190.167 371.5,94.8333 371.5,-0.5 Z"/></g>
<g><path style="opacity:1" fill="#0056b3" d="M 571.5,-0.5 C 581.167,-0.5 590.833,-0.5 600.5,-0.5C 600.5,37.8333 600.5,76.1667 600.5,114.5C 590.833,114.5 581.167,114.5 571.5,114.5C 571.5,76.1667 571.5,37.8333 571.5,-0.5 Z"/></g>
<g><path style="opacity:1" fill="#0056b3" d="M 685.5,-0.5 C 695.167,-0.5 704.833,-0.5 714.5,-0.5C 714.5,94.8333 714.5,190.167 714.5,285.5C 704.833,285.5 695.167,285.5 685.5,285.5C 685.5,190.167 685.5,94.8333 685.5,-0.5 Z"/></g>
<g><path style="opacity:1" fill="#0174ef" d="M 714.5,-0.5 C 790.833,-0.5 867.167,-0.5 943.5,-0.5C 943.5,18.8333 943.5,38.1667 943.5,57.5C 933.833,57.5 924.167,57.5 914.5,57.5C 866.833,57.5 819.167,57.5 771.5,57.5C 771.5,76.5 771.5,95.5 771.5,114.5C 819.167,114.5 866.833,114.5 914.5,114.5C 924.167,114.5 933.833,114.5 943.5,114.5C 943.5,133.5 943.5,152.5 943.5,171.5C 886.167,171.5 828.833,171.5 771.5,171.5C 771.5,209.5 771.5,247.5 771.5,285.5C 752.5,285.5 733.5,285.5 714.5,285.5C 714.5,190.167 714.5,94.8333 714.5,-0.5 Z"/></g>
<g><path style="opacity:1" fill="#0056b3" d="M 228.5,57.5 C 238.167,57.5 247.833,57.5 257.5,57.5C 257.5,76.5 257.5,95.5 257.5,114.5C 247.833,114.5 238.167,114.5 228.5,114.5C 228.5,95.5 228.5,76.5 228.5,57.5 Z"/></g>
<g><path style="opacity:1" fill="#0174ef" d="M 257.5,57.5 C 276.5,57.5 295.5,57.5 314.5,57.5C 314.5,76.5 314.5,95.5 314.5,114.5C 295.5,114.5 276.5,114.5 257.5,114.5C 257.5,95.5 257.5,76.5 257.5,57.5 Z"/></g>
<g><path style="opacity:1" fill="#0056b3" d="M 914.5,57.5 C 924.167,57.5 933.833,57.5 943.5,57.5C 943.5,76.5 943.5,95.5 943.5,114.5C 933.833,114.5 924.167,114.5 914.5,114.5C 914.5,95.5 914.5,76.5 914.5,57.5 Z"/></g>
<g><path style="opacity:1" fill="#0174ef" d="M 943.5,57.5 C 962.167,57.5 980.833,57.5 999.5,57.5C 999.5,76.5 999.5,95.5 999.5,114.5C 980.833,114.5 962.167,114.5 943.5,114.5C 943.5,95.5 943.5,76.5 943.5,57.5 Z"/></g>
<g><path style="opacity:1" fill="#0056b3" d="M 571.5,171.5 C 581.167,171.5 590.833,171.5 600.5,171.5C 600.5,209.5 600.5,247.5 600.5,285.5C 590.833,285.5 581.167,285.5 571.5,285.5C 571.5,247.5 571.5,209.5 571.5,171.5 Z"/></g>
</svg>
