<svg viewBox="0 0 1750 500" xmlns="http://www.w3.org/2000/svg"><rect x="0" y="0" width="100" height="500" fill="#0057b3" /><rect x="400" y="100" width="100" height="100" fill="#0057b3" /><rect x="50" y="0" width="100" height="500" fill="#0175ef" /><rect x="100" y="0" width="350" height="100" fill="#0175ef" /><rect x="100" y="200" width="350" height="100" fill="#0175ef" /><rect x="450" y="100" width="100" height="100" fill="#0175ef" /><rect x="600" y="0" width="100" height="500" fill="#0057b3" /><rect x="1000" y="0" width="100" height="500" fill="#0057b3" /><rect x="650" y="0" width="100" height="500" fill="#0175ef" /><rect x="700" y="200" width="400" height="100" fill="#0175ef" /><rect x="1050" y="0" width="100" height="500" fill="#0175ef" /><rect x="1200" y="0" width="100" height="500" fill="#0057b3" /><rect x="1600" y="100" width="100" height="100" fill="#0057b3" /><rect x="1250" y="0" width="100" height="500" fill="#0175ef" /><rect x="1300" y="0" width="350" height="100" fill="#0175ef" /><rect x="1300" y="200" width="350" height="100" fill="#0175ef" /><rect x="1650" y="100" width="100" height="100" fill="#0175ef" /></svg>