<?xml version="1.0" encoding="UTF-8"?>
<!DOCTYPE svg PUBLIC "-//W3C//DTD SVG 1.1//EN" "http://www.w3.org/Graphics/SVG/1.1/DTD/svg11.dtd">
<svg xmlns="http://www.w3.org/2000/svg" version="1.1" width="1000px" height="954px" style="shape-rendering:geometricPrecision; text-rendering:geometricPrecision; image-rendering:optimizeQuality; fill-rule:evenodd; clip-rule:evenodd" xmlns:xlink="http://www.w3.org/1999/xlink">
<g><path style="opacity:1" fill="#757675" d="M 363.5,-0.5 C 408.833,-0.5 454.167,-0.5 499.5,-0.5C 499.5,29.8333 499.5,60.1667 499.5,90.5C 484.5,90.5 469.5,90.5 454.5,90.5C 424.167,90.5 393.833,90.5 363.5,90.5C 363.5,75.1667 363.5,59.8333 363.5,44.5C 363.5,29.5 363.5,14.5 363.5,-0.5 Z"/></g>
<g><path style="opacity:1" fill="#a4a5a4" d="M 499.5,-0.5 C 529.833,-0.5 560.167,-0.5 590.5,-0.5C 590.5,14.5 590.5,29.5 590.5,44.5C 590.5,59.8333 590.5,75.1667 590.5,90.5C 560.167,90.5 529.833,90.5 499.5,90.5C 499.5,60.1667 499.5,29.8333 499.5,-0.5 Z"/></g>
<g><path style="opacity:1" fill="#1c1a13" d="M -0.5,44.5 C 120.833,44.5 242.167,44.5 363.5,44.5C 363.5,59.8333 363.5,75.1667 363.5,90.5C 302.833,90.5 242.167,90.5 181.5,90.5C 181.5,257.167 181.5,423.833 181.5,590.5C 120.833,590.5 60.1667,590.5 -0.5,590.5C -0.5,408.5 -0.5,226.5 -0.5,44.5 Z"/></g>
<g><path style="opacity:1" fill="#1c1a13" d="M 590.5,44.5 C 635.833,44.5 681.167,44.5 726.5,44.5C 726.5,59.8333 726.5,75.1667 726.5,90.5C 681.167,90.5 635.833,90.5 590.5,90.5C 590.5,75.1667 590.5,59.8333 590.5,44.5 Z"/></g>
<g><path style="opacity:1" fill="#b57772" d="M 363.5,90.5 C 393.833,90.5 424.167,90.5 454.5,90.5C 454.5,151.167 454.5,211.833 454.5,272.5C 454.5,302.5 454.5,332.5 454.5,362.5C 454.5,438.5 454.5,514.5 454.5,590.5C 363.5,590.5 272.5,590.5 181.5,590.5C 181.5,423.833 181.5,257.167 181.5,90.5C 242.167,90.5 302.833,90.5 363.5,90.5 Z"/></g>
<g><path style="opacity:1" fill="#f09e97" d="M 454.5,90.5 C 469.5,90.5 484.5,90.5 499.5,90.5C 529.833,90.5 560.167,90.5 590.5,90.5C 635.833,90.5 681.167,90.5 726.5,90.5C 817.5,90.5 908.5,90.5 999.5,90.5C 999.5,151.167 999.5,211.833 999.5,272.5C 969.167,272.5 938.833,272.5 908.5,272.5C 878.167,272.5 847.833,272.5 817.5,272.5C 817.5,302.5 817.5,332.5 817.5,362.5C 756.833,362.5 696.167,362.5 635.5,362.5C 635.5,332.5 635.5,302.5 635.5,272.5C 605.167,272.5 574.833,272.5 544.5,272.5C 514.5,272.5 484.5,272.5 454.5,272.5C 454.5,211.833 454.5,151.167 454.5,90.5 Z"/></g>
<g><path style="opacity:1" fill="#855106" d="M 44.5,135.5 C 74.8333,135.5 105.167,135.5 135.5,135.5C 135.5,256.833 135.5,378.167 135.5,499.5C 105.167,499.5 74.8333,499.5 44.5,499.5C 44.5,378.167 44.5,256.833 44.5,135.5 Z"/></g>
<g><path style="opacity:1" fill="#ad5c56" d="M 272.5,181.5 C 302.833,181.5 333.167,181.5 363.5,181.5C 363.5,211.833 363.5,242.167 363.5,272.5C 378.5,272.5 393.5,272.5 408.5,272.5C 408.5,302.5 408.5,332.5 408.5,362.5C 393.5,362.5 378.5,362.5 363.5,362.5C 363.5,392.833 363.5,423.167 363.5,453.5C 348.167,453.5 332.833,453.5 317.5,453.5C 317.5,423.167 317.5,392.833 317.5,362.5C 302.5,362.5 287.5,362.5 272.5,362.5C 272.5,302.167 272.5,241.833 272.5,181.5 Z"/></g>
<g><path style="opacity:1" fill="#000000" d="M 454.5,272.5 C 484.5,272.5 514.5,272.5 544.5,272.5C 544.5,302.5 544.5,332.5 544.5,362.5C 514.5,362.5 484.5,362.5 454.5,362.5C 454.5,332.5 454.5,302.5 454.5,272.5 Z"/></g>
<g><path style="opacity:1" fill="#fefffe" d="M 544.5,272.5 C 574.833,272.5 605.167,272.5 635.5,272.5C 635.5,302.5 635.5,332.5 635.5,362.5C 620.5,362.5 605.5,362.5 590.5,362.5C 575.167,362.5 559.833,362.5 544.5,362.5C 544.5,332.5 544.5,302.5 544.5,272.5 Z"/></g>
<g><path style="opacity:1" fill="#fefffe" d="M 908.5,272.5 C 908.5,302.5 908.5,332.5 908.5,362.5C 878.167,362.5 847.833,362.5 817.5,362.5C 817.5,332.5 817.5,302.5 817.5,272.5C 847.833,272.5 878.167,272.5 908.5,272.5 Z"/></g>
<g><path style="opacity:1" fill="#000000" d="M 908.5,272.5 C 938.833,272.5 969.167,272.5 999.5,272.5C 999.5,302.5 999.5,332.5 999.5,362.5C 969.167,362.5 938.833,362.5 908.5,362.5C 908.5,332.5 908.5,302.5 908.5,272.5 Z"/></g>
<g><path style="opacity:1" fill="#f09e97" d="M 454.5,362.5 C 484.5,362.5 514.5,362.5 544.5,362.5C 559.833,362.5 575.167,362.5 590.5,362.5C 590.5,423.167 590.5,483.833 590.5,544.5C 605.5,544.5 620.5,544.5 635.5,544.5C 726.5,544.5 817.5,544.5 908.5,544.5C 908.5,529.5 908.5,514.5 908.5,499.5C 908.5,469.167 908.5,438.833 908.5,408.5C 908.5,393.167 908.5,377.833 908.5,362.5C 938.833,362.5 969.167,362.5 999.5,362.5C 999.5,438.5 999.5,514.5 999.5,590.5C 817.833,590.5 636.167,590.5 454.5,590.5C 454.5,514.5 454.5,438.5 454.5,362.5 Z"/></g>
<g><path style="opacity:1" fill="#e57972" d="M 590.5,362.5 C 605.5,362.5 620.5,362.5 635.5,362.5C 635.5,377.833 635.5,393.167 635.5,408.5C 635.5,438.833 635.5,469.167 635.5,499.5C 635.5,514.5 635.5,529.5 635.5,544.5C 620.5,544.5 605.5,544.5 590.5,544.5C 590.5,483.833 590.5,423.167 590.5,362.5 Z"/></g>
<g><path style="opacity:1" fill="#f7bbb9" d="M 635.5,362.5 C 696.167,362.5 756.833,362.5 817.5,362.5C 847.833,362.5 878.167,362.5 908.5,362.5C 908.5,377.833 908.5,393.167 908.5,408.5C 878.167,408.5 847.833,408.5 817.5,408.5C 787.167,408.5 756.833,408.5 726.5,408.5C 696.167,408.5 665.833,408.5 635.5,408.5C 635.5,393.167 635.5,377.833 635.5,362.5 Z"/></g>
<g><path style="opacity:1" fill="#884745" d="M 635.5,408.5 C 665.833,408.5 696.167,408.5 726.5,408.5C 726.5,438.833 726.5,469.167 726.5,499.5C 696.167,499.5 665.833,499.5 635.5,499.5C 635.5,469.167 635.5,438.833 635.5,408.5 Z"/></g>
<g><path style="opacity:1" fill="#f09e97" d="M 726.5,408.5 C 756.833,408.5 787.167,408.5 817.5,408.5C 817.5,438.833 817.5,469.167 817.5,499.5C 787.167,499.5 756.833,499.5 726.5,499.5C 726.5,469.167 726.5,438.833 726.5,408.5 Z"/></g>
<g><path style="opacity:1" fill="#884745" d="M 817.5,408.5 C 847.833,408.5 878.167,408.5 908.5,408.5C 908.5,438.833 908.5,469.167 908.5,499.5C 878.167,499.5 847.833,499.5 817.5,499.5C 817.5,469.167 817.5,438.833 817.5,408.5 Z"/></g>
<g><path style="opacity:1" fill="#f7bbb9" d="M 635.5,499.5 C 665.833,499.5 696.167,499.5 726.5,499.5C 756.833,499.5 787.167,499.5 817.5,499.5C 847.833,499.5 878.167,499.5 908.5,499.5C 908.5,514.5 908.5,529.5 908.5,544.5C 817.5,544.5 726.5,544.5 635.5,544.5C 635.5,529.5 635.5,514.5 635.5,499.5 Z"/></g>
<g><path style="opacity:1" fill="#1c1a13" d="M 181.5,590.5 C 272.5,590.5 363.5,590.5 454.5,590.5C 454.5,711.5 454.5,832.5 454.5,953.5C 363.5,953.5 272.5,953.5 181.5,953.5C 181.5,832.5 181.5,711.5 181.5,590.5 Z"/></g>
<g><path style="opacity:1" fill="#443c2e" d="M 454.5,590.5 C 636.167,590.5 817.833,590.5 999.5,590.5C 999.5,711.5 999.5,832.5 999.5,953.5C 817.833,953.5 636.167,953.5 454.5,953.5C 454.5,832.5 454.5,711.5 454.5,590.5 Z"/></g>
<g><path style="opacity:1" fill="#855106" d="M 226.5,680.5 C 287.167,680.5 347.833,680.5 408.5,680.5C 408.5,741.167 408.5,801.833 408.5,862.5C 347.833,862.5 287.167,862.5 226.5,862.5C 226.5,801.833 226.5,741.167 226.5,680.5 Z"/></g>
<g><path style="opacity:1" fill="#a66e1e" d="M 544.5,680.5 C 665.833,680.5 787.167,680.5 908.5,680.5C 908.5,741.167 908.5,801.833 908.5,862.5C 787.167,862.5 665.833,862.5 544.5,862.5C 544.5,801.833 544.5,741.167 544.5,680.5 Z"/></g>
</svg>
