<?xml version="1.0" encoding="UTF-8"?>
<!DOCTYPE svg PUBLIC "-//W3C//DTD SVG 1.1//EN" "http://www.w3.org/Graphics/SVG/1.1/DTD/svg11.dtd">
<svg xmlns="http://www.w3.org/2000/svg" version="1.1" width="1000px" height="889px" style="shape-rendering:geometricPrecision; text-rendering:geometricPrecision; image-rendering:optimizeQuality; fill-rule:evenodd; clip-rule:evenodd" xmlns:xlink="http://www.w3.org/1999/xlink">
<g><path style="opacity:1" fill="#358b56" d="M 222.5,-0.5 C 259.5,-0.5 296.5,-0.5 333.5,-0.5C 333.5,73.8333 333.5,148.167 333.5,222.5C 296.5,222.5 259.5,222.5 222.5,222.5C 222.5,148.167 222.5,73.8333 222.5,-0.5 Z"/></g>
<g><path style="opacity:1" fill="#46b771" d="M 333.5,-0.5 C 481.833,-0.5 630.167,-0.5 778.5,-0.5C 778.5,73.8333 778.5,148.167 778.5,222.5C 778.5,296.833 778.5,371.167 778.5,445.5C 630.167,445.5 481.833,445.5 333.5,445.5C 333.5,519.5 333.5,593.5 333.5,667.5C 296.5,667.5 259.5,667.5 222.5,667.5C 185.5,667.5 148.5,667.5 111.5,667.5C 111.5,519.167 111.5,370.833 111.5,222.5C 148.5,222.5 185.5,222.5 222.5,222.5C 259.5,222.5 296.5,222.5 333.5,222.5C 333.5,148.167 333.5,73.8333 333.5,-0.5 Z"/></g>
<g><path style="opacity:1" fill="#358b56" d="M 445.5,111.5 C 482.5,111.5 519.5,111.5 556.5,111.5C 556.5,148.5 556.5,185.5 556.5,222.5C 519.5,222.5 482.5,222.5 445.5,222.5C 445.5,185.5 445.5,148.5 445.5,111.5 Z"/></g>
<g><path style="opacity:1" fill="#358b56" d="M -0.5,222.5 C 36.8333,222.5 74.1667,222.5 111.5,222.5C 111.5,370.833 111.5,519.167 111.5,667.5C 74.1667,667.5 36.8333,667.5 -0.5,667.5C -0.5,519.167 -0.5,370.833 -0.5,222.5 Z"/></g>
<g><path style="opacity:1" fill="#707170" d="M 778.5,222.5 C 852.167,222.5 925.833,222.5 999.5,222.5C 999.5,370.833 999.5,519.167 999.5,667.5C 925.833,667.5 852.167,667.5 778.5,667.5C 778.5,741.167 778.5,814.833 778.5,888.5C 630.167,888.5 481.833,888.5 333.5,888.5C 333.5,814.833 333.5,741.167 333.5,667.5C 333.5,593.5 333.5,519.5 333.5,445.5C 481.833,445.5 630.167,445.5 778.5,445.5C 778.5,371.167 778.5,296.833 778.5,222.5 Z"/></g>
<g><path style="opacity:1" fill="#555655" d="M 222.5,667.5 C 259.5,667.5 296.5,667.5 333.5,667.5C 333.5,741.167 333.5,814.833 333.5,888.5C 296.5,888.5 259.5,888.5 222.5,888.5C 222.5,814.833 222.5,741.167 222.5,667.5 Z"/></g>
<g><path style="opacity:1" fill="#555655" d="M 556.5,667.5 C 593.5,667.5 630.5,667.5 667.5,667.5C 667.5,704.5 667.5,741.5 667.5,778.5C 630.5,778.5 593.5,778.5 556.5,778.5C 556.5,741.5 556.5,704.5 556.5,667.5 Z"/></g>
</svg>
