<svg viewBox="0 0 800 650" xmlns="http://www.w3.org/2000/svg"><rect x="0" y="0" width="100" height="600" fill="#5a1ac0" /><rect x="0" y="200" width="100" height="200" fill="#9d1fa7" /><rect x="200" y="0" width="150" height="250" fill="#9d1fa7" /><rect x="200" y="350" width="150" height="250" fill="#4727c0" /><rect x="200" y="200" width="150" height="200" fill="#1e53bf" /><rect x="450" y="150" width="150" height="250" fill="#4727c0" /><rect x="450" y="0" width="150" height="200" fill="#1e53bf" /><rect x="550" y="450" width="100" height="200" fill="#5a1ac0" /><rect x="50" y="0" width="200" height="600" fill="#9722ff" /><rect x="50" y="200" width="200" height="200" fill="#dc29dd" /><rect x="300" y="0" width="200" height="200" fill="#dc29dd" /><rect x="300" y="200" width="200" height="200" fill="#27a2fd" /><rect x="300" y="400" width="200" height="200" fill="#3344ff" /><rect x="550" y="0" width="200" height="200" fill="#27a2fd" /><rect x="550" y="200" width="200" height="200" fill="#3344ff" /><rect x="600" y="450" width="200" height="200" fill="#9722ff" /></svg>