<?xml version="1.0" encoding="UTF-8"?>
<!DOCTYPE svg PUBLIC "-//W3C//DTD SVG 1.1//EN" "http://www.w3.org/Graphics/SVG/1.1/DTD/svg11.dtd">
<svg xmlns="http://www.w3.org/2000/svg" version="1.1" width="1000px" height="667px" style="shape-rendering:geometricPrecision; text-rendering:geometricPrecision; image-rendering:optimizeQuality; fill-rule:evenodd; clip-rule:evenodd" xmlns:xlink="http://www.w3.org/1999/xlink">
<g><path style="opacity:1" fill="#4c3c20" d="M -0.5,-0.5 C 18.1667,-0.5 36.8333,-0.5 55.5,-0.5C 55.5,36.8333 55.5,74.1667 55.5,111.5C 74.1667,111.5 92.8333,111.5 111.5,111.5C 111.5,148.5 111.5,185.5 111.5,222.5C 92.8333,222.5 74.1667,222.5 55.5,222.5C 55.5,296.5 55.5,370.5 55.5,444.5C 74.1667,444.5 92.8333,444.5 111.5,444.5C 111.5,481.5 111.5,518.5 111.5,555.5C 92.8333,555.5 74.1667,555.5 55.5,555.5C 55.5,592.5 55.5,629.5 55.5,666.5C 36.8333,666.5 18.1667,666.5 -0.5,666.5C -0.5,444.167 -0.5,221.833 -0.5,-0.5 Z"/></g>
<g><path style="opacity:1" fill="#362116" d="M 55.5,-0.5 C 74.1667,-0.5 92.8333,-0.5 111.5,-0.5C 111.5,36.8333 111.5,74.1667 111.5,111.5C 92.8333,111.5 74.1667,111.5 55.5,111.5C 55.5,74.1667 55.5,36.8333 55.5,-0.5 Z"/></g>
<g><path style="opacity:1" fill="#552a17" d="M 111.5,-0.5 C 148.5,-0.5 185.5,-0.5 222.5,-0.5C 222.5,36.8333 222.5,74.1667 222.5,111.5C 185.5,111.5 148.5,111.5 111.5,111.5C 111.5,74.1667 111.5,36.8333 111.5,-0.5 Z"/></g>
<g><path style="opacity:1" fill="#362116" d="M 222.5,-0.5 C 240.833,-0.5 259.167,-0.5 277.5,-0.5C 277.5,36.8333 277.5,74.1667 277.5,111.5C 259.167,111.5 240.833,111.5 222.5,111.5C 222.5,74.1667 222.5,36.8333 222.5,-0.5 Z"/></g>
<g><path style="opacity:1" fill="#4c3c20" d="M 277.5,-0.5 C 296.167,-0.5 314.833,-0.5 333.5,-0.5C 333.5,110.833 333.5,222.167 333.5,333.5C 314.833,333.5 296.167,333.5 277.5,333.5C 277.5,296.5 277.5,259.5 277.5,222.5C 259.167,222.5 240.833,222.5 222.5,222.5C 222.5,185.5 222.5,148.5 222.5,111.5C 240.833,111.5 259.167,111.5 277.5,111.5C 277.5,74.1667 277.5,36.8333 277.5,-0.5 Z"/></g>
<g><path style="opacity:1" fill="#66502b" d="M 333.5,-0.5 C 370.5,-0.5 407.5,-0.5 444.5,-0.5C 444.5,36.8333 444.5,74.1667 444.5,111.5C 426.167,111.5 407.833,111.5 389.5,111.5C 389.5,185.5 389.5,259.5 389.5,333.5C 370.833,333.5 352.167,333.5 333.5,333.5C 333.5,222.167 333.5,110.833 333.5,-0.5 Z"/></g>
<g><path style="opacity:1" fill="#b7945e" d="M 444.5,-0.5 C 463.167,-0.5 481.833,-0.5 500.5,-0.5C 500.5,36.8333 500.5,74.1667 500.5,111.5C 481.833,111.5 463.167,111.5 444.5,111.5C 444.5,74.1667 444.5,36.8333 444.5,-0.5 Z"/></g>
<g><path style="opacity:1" fill="#492d1e" d="M 500.5,-0.5 C 537.5,-0.5 574.5,-0.5 611.5,-0.5C 611.5,36.8333 611.5,74.1667 611.5,111.5C 592.833,111.5 574.167,111.5 555.5,111.5C 537.167,111.5 518.833,111.5 500.5,111.5C 500.5,74.1667 500.5,36.8333 500.5,-0.5 Z"/></g>
<g><path style="opacity:1" fill="#72391f" d="M 611.5,-0.5 C 648.5,-0.5 685.5,-0.5 722.5,-0.5C 722.5,36.8333 722.5,74.1667 722.5,111.5C 685.5,111.5 648.5,111.5 611.5,111.5C 611.5,74.1667 611.5,36.8333 611.5,-0.5 Z"/></g>
<g><path style="opacity:1" fill="#492d1e" d="M 722.5,-0.5 C 759.5,-0.5 796.5,-0.5 833.5,-0.5C 833.5,36.8333 833.5,74.1667 833.5,111.5C 815.167,111.5 796.833,111.5 778.5,111.5C 759.833,111.5 741.167,111.5 722.5,111.5C 722.5,74.1667 722.5,36.8333 722.5,-0.5 Z"/></g>
<g><path style="opacity:1" fill="#b7945e" d="M 833.5,-0.5 C 852.167,-0.5 870.833,-0.5 889.5,-0.5C 889.5,36.8333 889.5,74.1667 889.5,111.5C 870.833,111.5 852.167,111.5 833.5,111.5C 833.5,74.1667 833.5,36.8333 833.5,-0.5 Z"/></g>
<g><path style="opacity:1" fill="#66502b" d="M 889.5,-0.5 C 926.167,-0.5 962.833,-0.5 999.5,-0.5C 999.5,221.833 999.5,444.167 999.5,666.5C 962.833,666.5 926.167,666.5 889.5,666.5C 889.5,629.5 889.5,592.5 889.5,555.5C 907.833,555.5 926.167,555.5 944.5,555.5C 944.5,481.5 944.5,407.5 944.5,333.5C 944.5,259.5 944.5,185.5 944.5,111.5C 926.167,111.5 907.833,111.5 889.5,111.5C 889.5,74.1667 889.5,36.8333 889.5,-0.5 Z"/></g>
<g><path style="opacity:1" fill="#362116" d="M 111.5,111.5 C 148.5,111.5 185.5,111.5 222.5,111.5C 222.5,148.5 222.5,185.5 222.5,222.5C 222.5,296.5 222.5,370.5 222.5,444.5C 222.5,481.5 222.5,518.5 222.5,555.5C 222.5,592.5 222.5,629.5 222.5,666.5C 185.5,666.5 148.5,666.5 111.5,666.5C 111.5,629.5 111.5,592.5 111.5,555.5C 111.5,518.5 111.5,481.5 111.5,444.5C 111.5,370.5 111.5,296.5 111.5,222.5C 111.5,185.5 111.5,148.5 111.5,111.5 Z"/></g>
<g><path style="opacity:1" fill="#382012" d="M 444.5,111.5 C 444.5,185.5 444.5,259.5 444.5,333.5C 426.167,333.5 407.833,333.5 389.5,333.5C 389.5,259.5 389.5,185.5 389.5,111.5C 407.833,111.5 426.167,111.5 444.5,111.5 Z"/></g>
<g><path style="opacity:1" fill="#573422" d="M 444.5,111.5 C 463.167,111.5 481.833,111.5 500.5,111.5C 518.833,111.5 537.167,111.5 555.5,111.5C 555.5,148.5 555.5,185.5 555.5,222.5C 555.5,259.5 555.5,296.5 555.5,333.5C 518.5,333.5 481.5,333.5 444.5,333.5C 444.5,259.5 444.5,185.5 444.5,111.5 Z"/></g>
<g><path style="opacity:1" fill="#66502b" d="M 555.5,111.5 C 574.167,111.5 592.833,111.5 611.5,111.5C 611.5,148.5 611.5,185.5 611.5,222.5C 592.833,222.5 574.167,222.5 555.5,222.5C 555.5,185.5 555.5,148.5 555.5,111.5 Z"/></g>
<g><path style="opacity:1" fill="#492d1e" d="M 611.5,111.5 C 648.5,111.5 685.5,111.5 722.5,111.5C 722.5,148.5 722.5,185.5 722.5,222.5C 722.5,296.5 722.5,370.5 722.5,444.5C 722.5,481.5 722.5,518.5 722.5,555.5C 722.5,592.5 722.5,629.5 722.5,666.5C 685.5,666.5 648.5,666.5 611.5,666.5C 611.5,629.5 611.5,592.5 611.5,555.5C 611.5,518.5 611.5,481.5 611.5,444.5C 630.167,444.5 648.833,444.5 667.5,444.5C 667.5,407.5 667.5,370.5 667.5,333.5C 648.833,333.5 630.167,333.5 611.5,333.5C 611.5,296.5 611.5,259.5 611.5,222.5C 611.5,185.5 611.5,148.5 611.5,111.5 Z"/></g>
<g><path style="opacity:1" fill="#66502b" d="M 722.5,111.5 C 741.167,111.5 759.833,111.5 778.5,111.5C 778.5,148.5 778.5,185.5 778.5,222.5C 759.833,222.5 741.167,222.5 722.5,222.5C 722.5,185.5 722.5,148.5 722.5,111.5 Z"/></g>
<g><path style="opacity:1" fill="#382012" d="M 778.5,111.5 C 796.833,111.5 815.167,111.5 833.5,111.5C 833.5,185.5 833.5,259.5 833.5,333.5C 815.167,333.5 796.833,333.5 778.5,333.5C 778.5,296.5 778.5,259.5 778.5,222.5C 778.5,185.5 778.5,148.5 778.5,111.5 Z"/></g>
<g><path style="opacity:1" fill="#573422" d="M 833.5,111.5 C 852.167,111.5 870.833,111.5 889.5,111.5C 907.833,111.5 926.167,111.5 944.5,111.5C 944.5,185.5 944.5,259.5 944.5,333.5C 907.5,333.5 870.5,333.5 833.5,333.5C 833.5,259.5 833.5,185.5 833.5,111.5 Z"/></g>
<g><path style="opacity:1" fill="#896f46" d="M 111.5,222.5 C 111.5,296.5 111.5,370.5 111.5,444.5C 92.8333,444.5 74.1667,444.5 55.5,444.5C 55.5,370.5 55.5,296.5 55.5,222.5C 74.1667,222.5 92.8333,222.5 111.5,222.5 Z"/></g>
<g><path style="opacity:1" fill="#896f46" d="M 222.5,222.5 C 240.833,222.5 259.167,222.5 277.5,222.5C 277.5,259.5 277.5,296.5 277.5,333.5C 277.5,370.5 277.5,407.5 277.5,444.5C 259.167,444.5 240.833,444.5 222.5,444.5C 222.5,370.5 222.5,296.5 222.5,222.5 Z"/></g>
<g><path style="opacity:1" fill="#b7945e" d="M 555.5,222.5 C 574.167,222.5 592.833,222.5 611.5,222.5C 611.5,259.5 611.5,296.5 611.5,333.5C 592.833,333.5 574.167,333.5 555.5,333.5C 555.5,296.5 555.5,259.5 555.5,222.5 Z"/></g>
<g><path style="opacity:1" fill="#b7945e" d="M 722.5,222.5 C 741.167,222.5 759.833,222.5 778.5,222.5C 778.5,259.5 778.5,296.5 778.5,333.5C 778.5,370.5 778.5,407.5 778.5,444.5C 759.833,444.5 741.167,444.5 722.5,444.5C 722.5,370.5 722.5,296.5 722.5,222.5 Z"/></g>
<g><path style="opacity:1" fill="#b4b5b4" d="M 277.5,333.5 C 296.167,333.5 314.833,333.5 333.5,333.5C 333.5,407.5 333.5,481.5 333.5,555.5C 314.833,555.5 296.167,555.5 277.5,555.5C 277.5,518.5 277.5,481.5 277.5,444.5C 277.5,407.5 277.5,370.5 277.5,333.5 Z"/></g>
<g><path style="opacity:1" fill="#d7d8d7" d="M 333.5,333.5 C 352.167,333.5 370.833,333.5 389.5,333.5C 407.833,333.5 426.167,333.5 444.5,333.5C 481.5,333.5 518.5,333.5 555.5,333.5C 574.167,333.5 592.833,333.5 611.5,333.5C 630.167,333.5 648.833,333.5 667.5,333.5C 667.5,370.5 667.5,407.5 667.5,444.5C 648.833,444.5 630.167,444.5 611.5,444.5C 555.833,444.5 500.167,444.5 444.5,444.5C 444.5,481.5 444.5,518.5 444.5,555.5C 407.5,555.5 370.5,555.5 333.5,555.5C 333.5,481.5 333.5,407.5 333.5,333.5 Z"/></g>
<g><path style="opacity:1" fill="#b4b5b4" d="M 778.5,333.5 C 796.833,333.5 815.167,333.5 833.5,333.5C 833.5,407.5 833.5,481.5 833.5,555.5C 815.167,555.5 796.833,555.5 778.5,555.5C 778.5,518.5 778.5,481.5 778.5,444.5C 778.5,407.5 778.5,370.5 778.5,333.5 Z"/></g>
<g><path style="opacity:1" fill="#d7d8d7" d="M 833.5,333.5 C 870.5,333.5 907.5,333.5 944.5,333.5C 944.5,407.5 944.5,481.5 944.5,555.5C 926.167,555.5 907.833,555.5 889.5,555.5C 870.833,555.5 852.167,555.5 833.5,555.5C 833.5,481.5 833.5,407.5 833.5,333.5 Z"/></g>
<g><path style="opacity:1" fill="#4c3c20" d="M 222.5,444.5 C 240.833,444.5 259.167,444.5 277.5,444.5C 277.5,481.5 277.5,518.5 277.5,555.5C 259.167,555.5 240.833,555.5 222.5,555.5C 222.5,518.5 222.5,481.5 222.5,444.5 Z"/></g>
<g><path style="opacity:1" fill="#66502b" d="M 611.5,444.5 C 611.5,481.5 611.5,518.5 611.5,555.5C 555.833,555.5 500.167,555.5 444.5,555.5C 444.5,518.5 444.5,481.5 444.5,444.5C 500.167,444.5 555.833,444.5 611.5,444.5 Z"/></g>
<g><path style="opacity:1" fill="#66502b" d="M 722.5,444.5 C 741.167,444.5 759.833,444.5 778.5,444.5C 778.5,481.5 778.5,518.5 778.5,555.5C 759.833,555.5 741.167,555.5 722.5,555.5C 722.5,518.5 722.5,481.5 722.5,444.5 Z"/></g>
<g><path style="opacity:1" fill="#896f46" d="M 111.5,555.5 C 111.5,592.5 111.5,629.5 111.5,666.5C 92.8333,666.5 74.1667,666.5 55.5,666.5C 55.5,629.5 55.5,592.5 55.5,555.5C 74.1667,555.5 92.8333,555.5 111.5,555.5 Z"/></g>
<g><path style="opacity:1" fill="#896f46" d="M 222.5,555.5 C 240.833,555.5 259.167,555.5 277.5,555.5C 277.5,592.5 277.5,629.5 277.5,666.5C 259.167,666.5 240.833,666.5 222.5,666.5C 222.5,629.5 222.5,592.5 222.5,555.5 Z"/></g>
<g><path style="opacity:1" fill="#4c3c20" d="M 277.5,555.5 C 296.167,555.5 314.833,555.5 333.5,555.5C 333.5,592.5 333.5,629.5 333.5,666.5C 314.833,666.5 296.167,666.5 277.5,666.5C 277.5,629.5 277.5,592.5 277.5,555.5 Z"/></g>
<g><path style="opacity:1" fill="#66502b" d="M 333.5,555.5 C 370.5,555.5 407.5,555.5 444.5,555.5C 444.5,592.5 444.5,629.5 444.5,666.5C 407.5,666.5 370.5,666.5 333.5,666.5C 333.5,629.5 333.5,592.5 333.5,555.5 Z"/></g>
<g><path style="opacity:1" fill="#b7945e" d="M 444.5,555.5 C 500.167,555.5 555.833,555.5 611.5,555.5C 611.5,592.5 611.5,629.5 611.5,666.5C 555.833,666.5 500.167,666.5 444.5,666.5C 444.5,629.5 444.5,592.5 444.5,555.5 Z"/></g>
<g><path style="opacity:1" fill="#b7945e" d="M 722.5,555.5 C 741.167,555.5 759.833,555.5 778.5,555.5C 796.833,555.5 815.167,555.5 833.5,555.5C 852.167,555.5 870.833,555.5 889.5,555.5C 889.5,592.5 889.5,629.5 889.5,666.5C 833.833,666.5 778.167,666.5 722.5,666.5C 722.5,629.5 722.5,592.5 722.5,555.5 Z"/></g>
</svg>
