<svg viewBox="0 0 900 600" xmlns="http://www.w3.org/2000/svg"><rect x="0" y="0" width="350" height="600" fill="#4d3c21" /><rect x="50" y="200" width="200" height="200" fill="#8a6f47" /><rect x="50" y="500" width="200" height="100" fill="#8a6f47" /><rect x="50" y="0" width="200" height="100" fill="#372117" /><rect x="100" y="50" width="100" height="550" fill="#372117" /><rect x="100" y="0" width="100" height="100" fill="#562a18" /><rect x="300" y="0" width="600" height="600" fill="#67502c" /><rect x="400" y="0" width="400" height="100" fill="#b8945f" /><rect x="400" y="200" width="400" height="200" fill="#b8945f" /><rect x="400" y="500" width="400" height="100" fill="#b8945f" /><rect x="450" y="0" width="300" height="100" fill="#4a2d1f" /><rect x="550" y="50" width="100" height="550" fill="#4a2d1f" /><rect x="550" y="0" width="100" height="100" fill="#733920" /><rect x="250" y="300" width="100" height="200" fill="#b5b5b5" /><rect x="350" y="100" width="100" height="250" fill="#392013" /><rect x="400" y="100" width="100" height="250" fill="#583423" /><rect x="300" y="300" width="100" height="200" fill="#d8d8d8" /><rect x="350" y="300" width="250" height="100" fill="#d8d8d8" /><rect x="700" y="100" width="100" height="250" fill="#392013" /><rect x="700" y="300" width="100" height="200" fill="#b5b5b5" /><rect x="750" y="100" width="100" height="250" fill="#583423" /><rect x="750" y="300" width="100" height="200" fill="#d8d8d8" /></svg>