<?xml version="1.0" encoding="UTF-8"?>
<!DOCTYPE svg PUBLIC "-//W3C//DTD SVG 1.1//EN" "http://www.w3.org/Graphics/SVG/1.1/DTD/svg11.dtd">
<svg xmlns="http://www.w3.org/2000/svg" version="1.1" width="1000px" height="913px" style="shape-rendering:geometricPrecision; text-rendering:geometricPrecision; image-rendering:optimizeQuality; fill-rule:evenodd; clip-rule:evenodd" xmlns:xlink="http://www.w3.org/1999/xlink">
<g><path style="opacity:1" fill="#0faaa3" d="M 391.5,0.5 C 391.5,29.5 391.5,58.5 391.5,87.5C 377.167,87.5 362.833,87.5 348.5,87.5C 290.5,87.5 232.5,87.5 174.5,87.5C 174.5,145.5 174.5,203.5 174.5,261.5C 174.5,290.5 174.5,319.5 174.5,348.5C 159.833,348.5 145.167,348.5 130.5,348.5C 130.5,276.167 130.5,203.833 130.5,131.5C 130.5,102.5 130.5,73.5 130.5,44.5C 130.5,29.8333 130.5,15.1667 130.5,0.5C 217.5,0.5 304.5,0.5 391.5,0.5 Z"/></g>
<g><path style="opacity:1" fill="#fefffe" d="M 391.5,0.5 C 420.5,0.5 449.5,0.5 478.5,0.5C 478.5,29.5 478.5,58.5 478.5,87.5C 449.5,87.5 420.5,87.5 391.5,87.5C 391.5,58.5 391.5,29.5 391.5,0.5 Z"/></g>
<g><path style="opacity:1" fill="#d4fff5" d="M 478.5,0.5 C 652.167,0.5 825.833,0.5 999.5,0.5C 999.5,29.5 999.5,58.5 999.5,87.5C 970.833,87.5 942.167,87.5 913.5,87.5C 768.5,87.5 623.5,87.5 478.5,87.5C 478.5,58.5 478.5,29.5 478.5,0.5 Z"/></g>
<g><path style="opacity:1" fill="#1c1a13" d="M 130.5,44.5 C 130.5,73.5 130.5,102.5 130.5,131.5C 101.5,131.5 72.5,131.5 43.5,131.5C 43.5,247.167 43.5,362.833 43.5,478.5C 72.5,478.5 101.5,478.5 130.5,478.5C 130.5,435.167 130.5,391.833 130.5,348.5C 145.167,348.5 159.833,348.5 174.5,348.5C 174.5,420.833 174.5,493.167 174.5,565.5C 116.5,565.5 58.5,565.5 0.5,565.5C 0.5,391.833 0.5,218.167 0.5,44.5C 43.8333,44.5 87.1667,44.5 130.5,44.5 Z"/></g>
<g><path style="opacity:1" fill="#17887b" d="M 348.5,87.5 C 348.5,145.5 348.5,203.5 348.5,261.5C 290.5,261.5 232.5,261.5 174.5,261.5C 174.5,203.5 174.5,145.5 174.5,87.5C 232.5,87.5 290.5,87.5 348.5,87.5 Z"/></g>
<g><path style="opacity:1" fill="#0099a1" d="M 348.5,87.5 C 362.833,87.5 377.167,87.5 391.5,87.5C 391.5,174.5 391.5,261.5 391.5,348.5C 362.5,348.5 333.5,348.5 304.5,348.5C 261.167,348.5 217.833,348.5 174.5,348.5C 174.5,319.5 174.5,290.5 174.5,261.5C 232.5,261.5 290.5,261.5 348.5,261.5C 348.5,203.5 348.5,145.5 348.5,87.5 Z"/></g>
<g><path style="opacity:1" fill="#d4fff5" d="M 391.5,87.5 C 420.5,87.5 449.5,87.5 478.5,87.5C 478.5,145.5 478.5,203.5 478.5,261.5C 478.5,290.5 478.5,319.5 478.5,348.5C 464.167,348.5 449.833,348.5 435.5,348.5C 420.833,348.5 406.167,348.5 391.5,348.5C 391.5,261.5 391.5,174.5 391.5,87.5 Z"/></g>
<g><path style="opacity:1" fill="#3af4e2" d="M 478.5,87.5 C 623.5,87.5 768.5,87.5 913.5,87.5C 913.5,145.5 913.5,203.5 913.5,261.5C 898.833,261.5 884.167,261.5 869.5,261.5C 840.5,261.5 811.5,261.5 782.5,261.5C 782.5,290.5 782.5,319.5 782.5,348.5C 782.5,377.5 782.5,406.5 782.5,435.5C 739.167,435.5 695.833,435.5 652.5,435.5C 652.5,377.5 652.5,319.5 652.5,261.5C 637.833,261.5 623.167,261.5 608.5,261.5C 565.167,261.5 521.833,261.5 478.5,261.5C 478.5,203.5 478.5,145.5 478.5,87.5 Z"/></g>
<g><path style="opacity:1" fill="#a1fbe7" d="M 913.5,87.5 C 942.167,87.5 970.833,87.5 999.5,87.5C 999.5,174.5 999.5,261.5 999.5,348.5C 985.167,348.5 970.833,348.5 956.5,348.5C 942.167,348.5 927.833,348.5 913.5,348.5C 913.5,319.5 913.5,290.5 913.5,261.5C 913.5,203.5 913.5,145.5 913.5,87.5 Z"/></g>
<g><path style="opacity:1" fill="#855106" d="M 130.5,131.5 C 130.5,203.833 130.5,276.167 130.5,348.5C 130.5,391.833 130.5,435.167 130.5,478.5C 101.5,478.5 72.5,478.5 43.5,478.5C 43.5,362.833 43.5,247.167 43.5,131.5C 72.5,131.5 101.5,131.5 130.5,131.5 Z"/></g>
<g><path style="opacity:1" fill="#65a643" d="M 478.5,261.5 C 521.833,261.5 565.167,261.5 608.5,261.5C 608.5,290.5 608.5,319.5 608.5,348.5C 565.167,348.5 521.833,348.5 478.5,348.5C 478.5,319.5 478.5,290.5 478.5,261.5 Z"/></g>
<g><path style="opacity:1" fill="#0099a1" d="M 608.5,261.5 C 623.167,261.5 637.833,261.5 652.5,261.5C 652.5,319.5 652.5,377.5 652.5,435.5C 637.833,435.5 623.167,435.5 608.5,435.5C 608.5,406.5 608.5,377.5 608.5,348.5C 608.5,319.5 608.5,290.5 608.5,261.5 Z"/></g>
<g><path style="opacity:1" fill="#65a643" d="M 869.5,261.5 C 869.5,290.5 869.5,319.5 869.5,348.5C 840.5,348.5 811.5,348.5 782.5,348.5C 782.5,319.5 782.5,290.5 782.5,261.5C 811.5,261.5 840.5,261.5 869.5,261.5 Z"/></g>
<g><path style="opacity:1" fill="#0099a1" d="M 869.5,261.5 C 884.167,261.5 898.833,261.5 913.5,261.5C 913.5,290.5 913.5,319.5 913.5,348.5C 898.833,348.5 884.167,348.5 869.5,348.5C 869.5,319.5 869.5,290.5 869.5,261.5 Z"/></g>
<g><path style="opacity:1" fill="#2b561e" d="M 174.5,348.5 C 217.833,348.5 261.167,348.5 304.5,348.5C 304.5,377.5 304.5,406.5 304.5,435.5C 290.167,435.5 275.833,435.5 261.5,435.5C 261.5,464.5 261.5,493.5 261.5,522.5C 246.833,522.5 232.167,522.5 217.5,522.5C 217.5,536.833 217.5,551.167 217.5,565.5C 203.167,565.5 188.833,565.5 174.5,565.5C 174.5,493.167 174.5,420.833 174.5,348.5 Z"/></g>
<g><path style="opacity:1" fill="#4c7d33" d="M 304.5,348.5 C 333.5,348.5 362.5,348.5 391.5,348.5C 406.167,348.5 420.833,348.5 435.5,348.5C 435.5,377.5 435.5,406.5 435.5,435.5C 435.5,478.833 435.5,522.167 435.5,565.5C 362.833,565.5 290.167,565.5 217.5,565.5C 217.5,551.167 217.5,536.833 217.5,522.5C 232.167,522.5 246.833,522.5 261.5,522.5C 261.5,493.5 261.5,464.5 261.5,435.5C 275.833,435.5 290.167,435.5 304.5,435.5C 304.5,406.5 304.5,377.5 304.5,348.5 Z"/></g>
<g><path style="opacity:1" fill="#1b1c1b" d="M 435.5,348.5 C 449.833,348.5 464.167,348.5 478.5,348.5C 521.833,348.5 565.167,348.5 608.5,348.5C 608.5,377.5 608.5,406.5 608.5,435.5C 550.833,435.5 493.167,435.5 435.5,435.5C 435.5,406.5 435.5,377.5 435.5,348.5 Z"/></g>
<g><path style="opacity:1" fill="#1b1c1b" d="M 782.5,348.5 C 811.5,348.5 840.5,348.5 869.5,348.5C 884.167,348.5 898.833,348.5 913.5,348.5C 927.833,348.5 942.167,348.5 956.5,348.5C 956.5,377.5 956.5,406.5 956.5,435.5C 898.5,435.5 840.5,435.5 782.5,435.5C 782.5,406.5 782.5,377.5 782.5,348.5 Z"/></g>
<g><path style="opacity:1" fill="#65a643" d="M 435.5,435.5 C 493.167,435.5 550.833,435.5 608.5,435.5C 608.5,464.5 608.5,493.5 608.5,522.5C 579.5,522.5 550.5,522.5 521.5,522.5C 521.5,536.833 521.5,551.167 521.5,565.5C 492.833,565.5 464.167,565.5 435.5,565.5C 435.5,522.167 435.5,478.833 435.5,435.5 Z"/></g>
<g><path style="opacity:1" fill="#397128" d="M 608.5,435.5 C 623.167,435.5 637.833,435.5 652.5,435.5C 695.833,435.5 739.167,435.5 782.5,435.5C 782.5,464.5 782.5,493.5 782.5,522.5C 811.5,522.5 840.5,522.5 869.5,522.5C 869.5,536.833 869.5,551.167 869.5,565.5C 753.5,565.5 637.5,565.5 521.5,565.5C 521.5,551.167 521.5,536.833 521.5,522.5C 550.5,522.5 579.5,522.5 608.5,522.5C 608.5,493.5 608.5,464.5 608.5,435.5 Z"/></g>
<g><path style="opacity:1" fill="#65a643" d="M 782.5,435.5 C 840.5,435.5 898.5,435.5 956.5,435.5C 956.5,478.833 956.5,522.167 956.5,565.5C 927.5,565.5 898.5,565.5 869.5,565.5C 869.5,551.167 869.5,536.833 869.5,522.5C 840.5,522.5 811.5,522.5 782.5,522.5C 782.5,493.5 782.5,464.5 782.5,435.5 Z"/></g>
<g><path style="opacity:1" fill="#1c1a13" d="M 174.5,565.5 C 188.833,565.5 203.167,565.5 217.5,565.5C 290.167,565.5 362.833,565.5 435.5,565.5C 435.5,681.167 435.5,796.833 435.5,912.5C 348.5,912.5 261.5,912.5 174.5,912.5C 174.5,796.833 174.5,681.167 174.5,565.5 Z"/></g>
<g><path style="opacity:1" fill="#443c2e" d="M 435.5,565.5 C 464.167,565.5 492.833,565.5 521.5,565.5C 637.5,565.5 753.5,565.5 869.5,565.5C 898.5,565.5 927.5,565.5 956.5,565.5C 956.5,681.167 956.5,796.833 956.5,912.5C 782.833,912.5 609.167,912.5 435.5,912.5C 435.5,796.833 435.5,681.167 435.5,565.5 Z"/></g>
<g><path style="opacity:1" fill="#855106" d="M 217.5,652.5 C 275.5,652.5 333.5,652.5 391.5,652.5C 391.5,710.5 391.5,768.5 391.5,826.5C 333.5,826.5 275.5,826.5 217.5,826.5C 217.5,768.5 217.5,710.5 217.5,652.5 Z"/></g>
<g><path style="opacity:1" fill="#a66e1e" d="M 521.5,652.5 C 637.5,652.5 753.5,652.5 869.5,652.5C 869.5,710.5 869.5,768.5 869.5,826.5C 753.5,826.5 637.5,826.5 521.5,826.5C 521.5,768.5 521.5,710.5 521.5,652.5 Z"/></g>
</svg>
