<svg viewBox="0 0 1000 700" xmlns="http://www.w3.org/2000/svg"><rect x="50" y="250" width="350" height="450" fill="#4d7d34" /><rect x="50" y="350" width="150" height="150" fill="#2c561f" /><rect x="50" y="450" width="100" height="150" fill="#2c561f" /><rect x="50" y="550" width="50" height="150" fill="#2c561f" /><rect x="350" y="250" width="600" height="450" fill="#66a644" /><rect x="350" y="400" width="600" height="100" fill="#1c1c1c" /><rect x="450" y="600" width="400" height="100" fill="#3a7129" /><rect x="550" y="450" width="200" height="200" fill="#3a7129" /><rect x="0" y="0" width="350" height="400" fill="#0faaa4" /><rect x="50" y="100" width="300" height="300" fill="#0099a2" /><rect x="50" y="100" width="200" height="200" fill="#17887c" /><rect x="550" y="250" width="100" height="250" fill="#0099a2" /><rect x="850" y="250" width="100" height="150" fill="#0099a2" /><rect x="600" y="250" width="150" height="250" fill="#3af4e3" /><rect x="350" y="50" width="600" height="250" fill="#3af4e3" /><rect x="300" y="50" width="100" height="350" fill="#d5fff6" /><rect x="900" y="50" width="100" height="350" fill="#a1fbe8" /><rect x="350" y="0" width="650" height="100" fill="#d5fff6" /><rect x="300" y="0" width="100" height="100" fill="#ffffff" /></svg>