<?xml version="1.0" encoding="UTF-8"?>
<!DOCTYPE svg PUBLIC "-//W3C//DTD SVG 1.1//EN" "http://www.w3.org/Graphics/SVG/1.1/DTD/svg11.dtd">
<svg xmlns="http://www.w3.org/2000/svg" version="1.1" width="1000px" height="866px" style="shape-rendering:geometricPrecision; text-rendering:geometricPrecision; image-rendering:optimizeQuality; fill-rule:evenodd; clip-rule:evenodd" xmlns:xlink="http://www.w3.org/1999/xlink">
<g><path style="opacity:1" fill="#887e4d" d="M 66.5,-0.5 C 88.5,-0.5 110.5,-0.5 132.5,-0.5C 132.5,21.8333 132.5,44.1667 132.5,66.5C 110.5,66.5 88.5,66.5 66.5,66.5C 66.5,44.1667 66.5,21.8333 66.5,-0.5 Z"/></g>
<g><path style="opacity:1" fill="#d1d2b1" d="M 132.5,-0.5 C 354.833,-0.5 577.167,-0.5 799.5,-0.5C 799.5,21.8333 799.5,44.1667 799.5,66.5C 599.5,66.5 399.5,66.5 199.5,66.5C 177.167,66.5 154.833,66.5 132.5,66.5C 132.5,44.1667 132.5,21.8333 132.5,-0.5 Z"/></g>
<g><path style="opacity:1" fill="#887e4d" d="M -0.5,66.5 C 21.8333,66.5 44.1667,66.5 66.5,66.5C 66.5,110.833 66.5,155.167 66.5,199.5C 44.1667,199.5 21.8333,199.5 -0.5,199.5C -0.5,155.167 -0.5,110.833 -0.5,66.5 Z"/></g>
<g><path style="opacity:1" fill="#73693a" d="M 66.5,66.5 C 88.5,66.5 110.5,66.5 132.5,66.5C 132.5,110.833 132.5,155.167 132.5,199.5C 110.5,199.5 88.5,199.5 66.5,199.5C 66.5,155.167 66.5,110.833 66.5,66.5 Z"/></g>
<g><path style="opacity:1" fill="#887e4d" d="M 132.5,66.5 C 154.833,66.5 177.167,66.5 199.5,66.5C 199.5,310.5 199.5,554.5 199.5,798.5C 177.167,798.5 154.833,798.5 132.5,798.5C 132.5,598.833 132.5,399.167 132.5,199.5C 132.5,155.167 132.5,110.833 132.5,66.5 Z"/></g>
<g><path style="opacity:1" fill="#bdbe9d" d="M 199.5,66.5 C 399.5,66.5 599.5,66.5 799.5,66.5C 821.833,66.5 844.167,66.5 866.5,66.5C 866.5,288.5 866.5,510.5 866.5,732.5C 688.5,732.5 510.5,732.5 332.5,732.5C 310.5,732.5 288.5,732.5 266.5,732.5C 266.5,754.5 266.5,776.5 266.5,798.5C 244.167,798.5 221.833,798.5 199.5,798.5C 199.5,554.5 199.5,310.5 199.5,66.5 Z"/></g>
<g><path style="opacity:1" fill="#4685b7" d="M 666.5,265.5 C 666.5,310.167 666.5,354.833 666.5,399.5C 577.5,399.5 488.5,399.5 399.5,399.5C 399.5,443.833 399.5,488.167 399.5,532.5C 355.167,532.5 310.833,532.5 266.5,532.5C 266.5,443.5 266.5,354.5 266.5,265.5C 310.833,265.5 355.167,265.5 399.5,265.5C 399.5,221.167 399.5,176.833 399.5,132.5C 488.5,132.5 577.5,132.5 666.5,132.5C 666.5,176.833 666.5,221.167 666.5,265.5 Z"/></g>
<g><path style="opacity:1" fill="#bdbe9d" d="M 466.5,199.5 C 488.5,199.5 510.5,199.5 532.5,199.5C 532.5,221.5 532.5,243.5 532.5,265.5C 510.5,265.5 488.5,265.5 466.5,265.5C 466.5,243.5 466.5,221.5 466.5,199.5 Z"/></g>
<g><path style="opacity:1" fill="#fed948" d="M 666.5,265.5 C 710.833,265.5 755.167,265.5 799.5,265.5C 799.5,354.5 799.5,443.5 799.5,532.5C 755.167,532.5 710.833,532.5 666.5,532.5C 666.5,576.833 666.5,621.167 666.5,665.5C 577.5,665.5 488.5,665.5 399.5,665.5C 399.5,621.167 399.5,576.833 399.5,532.5C 399.5,488.167 399.5,443.833 399.5,399.5C 488.5,399.5 577.5,399.5 666.5,399.5C 666.5,354.833 666.5,310.167 666.5,265.5 Z"/></g>
<g><path style="opacity:1" fill="#bdbe9d" d="M 532.5,532.5 C 554.833,532.5 577.167,532.5 599.5,532.5C 599.5,554.833 599.5,577.167 599.5,599.5C 577.167,599.5 554.833,599.5 532.5,599.5C 532.5,577.167 532.5,554.833 532.5,532.5 Z"/></g>
<g><path style="opacity:1" fill="#887e4d" d="M 332.5,732.5 C 332.5,754.5 332.5,776.5 332.5,798.5C 310.5,798.5 288.5,798.5 266.5,798.5C 266.5,776.5 266.5,754.5 266.5,732.5C 288.5,732.5 310.5,732.5 332.5,732.5 Z"/></g>
<g><path style="opacity:1" fill="#d1d2b1" d="M 332.5,732.5 C 510.5,732.5 688.5,732.5 866.5,732.5C 910.833,732.5 955.167,732.5 999.5,732.5C 999.5,754.5 999.5,776.5 999.5,798.5C 977.167,798.5 954.833,798.5 932.5,798.5C 732.5,798.5 532.5,798.5 332.5,798.5C 332.5,776.5 332.5,754.5 332.5,732.5 Z"/></g>
<g><path style="opacity:1" fill="#887e4d" d="M 199.5,798.5 C 221.833,798.5 244.167,798.5 266.5,798.5C 266.5,820.833 266.5,843.167 266.5,865.5C 244.167,865.5 221.833,865.5 199.5,865.5C 199.5,843.167 199.5,820.833 199.5,798.5 Z"/></g>
<g><path style="opacity:1" fill="#bdbe9d" d="M 266.5,798.5 C 288.5,798.5 310.5,798.5 332.5,798.5C 532.5,798.5 732.5,798.5 932.5,798.5C 932.5,820.833 932.5,843.167 932.5,865.5C 710.5,865.5 488.5,865.5 266.5,865.5C 266.5,843.167 266.5,820.833 266.5,798.5 Z"/></g>
</svg>
