<svg viewBox="0 0 750 650" xmlns="http://www.w3.org/2000/svg"><rect x="100" y="0" width="500" height="100" fill="#d2d2b2" /><rect x="100" y="50" width="100" height="550" fill="#897e4e" /><rect x="0" y="50" width="150" height="100" fill="#897e4e" /><rect x="50" y="0" width="50" height="100" fill="#897e4e" /><rect x="50" y="50" width="50" height="100" fill="#74693b" /><rect x="150" y="550" width="100" height="100" fill="#897e4e" /><rect x="200" y="550" width="500" height="100" fill="#bebe9e" /><rect x="150" y="50" width="500" height="550" fill="#bebe9e" /><rect x="200" y="550" width="100" height="50" fill="#897e4e" /><rect x="200" y="200" width="150" height="200" fill="#4685b7" /><rect x="250" y="550" width="500" height="50" fill="#d2d2b2" /><rect x="300" y="200" width="300" height="300" fill="#ffd949" /><rect x="300" y="100" width="200" height="200" fill="#4685b7" /><rect x="500" y="400" width="100" height="100" fill="#bebe9e" /><rect x="400" y="400" width="50" height="50" fill="#bebe9e" /><rect x="350" y="150" width="50" height="50" fill="#bebe9e" /></svg>