<?xml version="1.0" encoding="UTF-8"?>
<!DOCTYPE svg PUBLIC "-//W3C//DTD SVG 1.1//EN" "http://www.w3.org/Graphics/SVG/1.1/DTD/svg11.dtd">
<svg xmlns="http://www.w3.org/2000/svg" version="1.1" width="1000px" height="857px" style="shape-rendering:geometricPrecision; text-rendering:geometricPrecision; image-rendering:optimizeQuality; fill-rule:evenodd; clip-rule:evenodd" xmlns:xlink="http://www.w3.org/1999/xlink">
<g><path style="opacity:1" fill="#ab3c0d" d="M -0.5,-0.5 C 47.1667,-0.5 94.8333,-0.5 142.5,-0.5C 142.5,285.167 142.5,570.833 142.5,856.5C 94.8333,856.5 47.1667,856.5 -0.5,856.5C -0.5,570.833 -0.5,285.167 -0.5,-0.5 Z"/></g>
<g><path style="opacity:1" fill="#e36711" d="M 142.5,-0.5 C 428.167,-0.5 713.833,-0.5 999.5,-0.5C 999.5,285.167 999.5,570.833 999.5,856.5C 713.833,856.5 428.167,856.5 142.5,856.5C 142.5,570.833 142.5,285.167 142.5,-0.5 Z"/></g>
<g><path style="opacity:1" fill="#fefffe" d="M 213.5,70.5 C 451.833,70.5 690.167,70.5 928.5,70.5C 928.5,308.833 928.5,547.167 928.5,785.5C 880.833,785.5 833.167,785.5 785.5,785.5C 785.5,594.833 785.5,404.167 785.5,213.5C 594.833,213.5 404.167,213.5 213.5,213.5C 213.5,165.833 213.5,118.167 213.5,70.5 Z"/></g>
<g><path style="opacity:1" fill="#fefffe" d="M 213.5,356.5 C 356.5,356.5 499.5,356.5 642.5,356.5C 642.5,499.5 642.5,642.5 642.5,785.5C 594.833,785.5 547.167,785.5 499.5,785.5C 499.5,690.167 499.5,594.833 499.5,499.5C 404.167,499.5 308.833,499.5 213.5,499.5C 213.5,451.833 213.5,404.167 213.5,356.5 Z"/></g>
<g><path style="opacity:1" fill="#fefffe" d="M 213.5,642.5 C 261.167,642.5 308.833,642.5 356.5,642.5C 356.5,690.167 356.5,737.833 356.5,785.5C 308.833,785.5 261.167,785.5 213.5,785.5C 213.5,737.833 213.5,690.167 213.5,642.5 Z"/></g>
</svg>
