<svg viewBox="0 0 1000 900" xmlns="http://www.w3.org/2000/svg"><rect x="0" y="0" width="150" height="900" fill="#a70f0f" /><rect x="150" y="200" width="200" height="500" fill="#a70f0f" /><rect x="300" y="200" width="100" height="500" fill="#df3615" /><rect x="600" y="500" width="150" height="200" fill="#a70f0f" /><rect x="600" y="300" width="150" height="100" fill="#a70f0f" /><rect x="600" y="250" width="100" height="300" fill="#a70f0f" /><rect x="350" y="400" width="350" height="100" fill="#df3615" /><rect x="350" y="200" width="350" height="100" fill="#df3615" /><rect x="700" y="300" width="150" height="100" fill="#df3615" /><rect x="700" y="500" width="150" height="200" fill="#df3615" /><rect x="800" y="50" width="150" height="800" fill="#a70f0f" /><rect x="100" y="0" width="100" height="900" fill="#df3615" /><rect x="100" y="0" width="900" height="100" fill="#df3615" /><rect x="900" y="0" width="100" height="900" fill="#df3615" /><rect x="100" y="800" width="900" height="100" fill="#df3615" /></svg>