<?xml version="1.0" encoding="utf-8"?>
<!-- Generator: Adobe Illustrator 25.4.1, SVG Export Plug-In . SVG Version: 6.00 Build 0)  -->
<svg version="1.1" id="Слой_1" xmlns="http://www.w3.org/2000/svg" xmlns:xlink="http://www.w3.org/1999/xlink" x="0px" y="0px"
	 viewBox="0 0 1000 947" style="enable-background:new 0 0 1000 947;" xml:space="preserve">
<style type="text/css">
	.st0{fill-rule:evenodd;clip-rule:evenodd;fill:#A6280E;}
	.st1{fill-rule:evenodd;clip-rule:evenodd;fill:#DE3614;}
</style>
<g>
	<path class="st0" d="M-0.5-0.5c17.7,0,35.3,0,53,0c0,315.7,0,631.3,0,947c-17.7,0-35.3,0-53,0C-0.5,630.8-0.5,315.2-0.5-0.5z"/>
</g>
<g>
	<path class="st1" d="M52.5-0.5c315.7,0,631.3,0,947,0c0,315.7,0,631.3,0,947c-315.7,0-631.3,0-947,0
		C52.5,630.8,52.5,315.2,52.5-0.5z M842.5,105.5c0,245.7,0,491.3,0,737c-228.3,0-456.7,0-685,0c0-245.7,0-491.3,0-737
		C385.8,105.5,614.2,105.5,842.5,105.5z"/>
</g>
<g>
	<path class="st0" d="M842.5,105.5c17.3,0,34.7,0,52,0c0,245.7,0,491.3,0,737c-17.3,0-34.7,0-52,0
		C842.5,596.8,842.5,351.2,842.5,105.5z"/>
</g>
<g>
	<path class="st0" d="M263.5,210.5c0,175.3,0,350.7,0,526c-17.7,0-35.3,0-53,0c0-175.3,0-350.7,0-526
		C228.2,210.5,245.8,210.5,263.5,210.5z"/>
</g>
<g>
	<path class="st1" d="M263.5,210.5c140.3,0,280.7,0,421,0c0,35,0,70,0,105c-17.7,0-35.3,0-53,0c-87.7,0-175.3,0-263,0
		c0,35.3,0,70.7,0,106c87.7,0,175.3,0,263,0c17.7,0,35.3,0,53,0c0,35,0,70,0,105c-17.7,0-35.3,0-53,0c-87.7,0-175.3,0-263,0
		c0,70,0,140,0,210c-35,0-70,0-105,0C263.5,561.2,263.5,385.8,263.5,210.5z"/>
</g>
<g>
	<path class="st0" d="M631.5,315.5c17.7,0,35.3,0,53,0c0,35.3,0,70.7,0,106c-17.7,0-35.3,0-53,0
		C631.5,386.2,631.5,350.8,631.5,315.5z"/>
</g>
<g>
	<path class="st1" d="M684.5,315.5c35,0,70,0,105,0c0,35.3,0,70.7,0,106c-35,0-70,0-105,0C684.5,386.2,684.5,350.8,684.5,315.5z"/>
</g>
<g>
	<path class="st0" d="M631.5,526.5c17.7,0,35.3,0,53,0c0,70,0,140,0,210c-17.7,0-35.3,0-53,0C631.5,666.5,631.5,596.5,631.5,526.5z"
		/>
</g>
<g>
	<path class="st1" d="M684.5,526.5c35,0,70,0,105,0c0,70,0,140,0,210c-35,0-70,0-105,0C684.5,666.5,684.5,596.5,684.5,526.5z"/>
</g>
</svg>
