<svg viewBox="0 0 900 600" xmlns="http://www.w3.org/2000/svg"><rect x="0" y="50" width="350" height="550" fill="#967356" /><rect x="0" y="0" width="350" height="100" fill="#aeab8d" /><rect x="100" y="250" width="50" height="150" fill="#a5957b" /><rect x="50" y="200" width="150" height="100" fill="#aeab8d" /><rect x="250" y="250" width="100" height="250" fill="#a5957b" /><rect x="200" y="300" width="150" height="100" fill="#a5957b" /><rect x="250" y="200" width="100" height="100" fill="#aeab8d" /><rect x="0" y="400" width="100" height="100" fill="#aeab8d" /><rect x="0" y="300" width="50" height="200" fill="#aeab8d" /><rect x="0" y="400" width="50" height="200" fill="#a5957b" /><rect x="150" y="500" width="100" height="100" fill="#aeab8d" /><rect x="150" y="400" width="50" height="200" fill="#aeab8d" /><rect x="100" y="500" width="100" height="100" fill="#a5957b" /><rect x="300" y="50" width="600" height="550" fill="#c6a671" /><rect x="300" y="0" width="600" height="100" fill="#e7e6bb" /><rect x="600" y="250" width="100" height="150" fill="#dad2a3" /><rect x="500" y="200" width="300" height="100" fill="#e7e6bb" /><rect x="300" y="250" width="100" height="250" fill="#dad2a3" /><rect x="350" y="300" width="150" height="100" fill="#dad2a3" /><rect x="300" y="200" width="100" height="100" fill="#e7e6bb" /><rect x="400" y="500" width="150" height="100" fill="#e7e6bb" /><rect x="500" y="400" width="100" height="150" fill="#e7e6bb" /><rect x="500" y="500" width="200" height="100" fill="#dad2a3" /><rect x="800" y="300" width="100" height="150" fill="#e7e6bb" /><rect x="700" y="400" width="150" height="100" fill="#e7e6bb" /><rect x="800" y="400" width="100" height="200" fill="#dad2a3" /></svg>