<?xml version="1.0" encoding="UTF-8"?>
<!DOCTYPE svg PUBLIC "-//W3C//DTD SVG 1.1//EN" "http://www.w3.org/Graphics/SVG/1.1/DTD/svg11.dtd">
<svg xmlns="http://www.w3.org/2000/svg" version="1.1" width="1000px" height="954px" style="shape-rendering:geometricPrecision; text-rendering:geometricPrecision; image-rendering:optimizeQuality; fill-rule:evenodd; clip-rule:evenodd" xmlns:xlink="http://www.w3.org/1999/xlink">
<g><path style="opacity:1" fill="#757675" d="M 363.5,-0.5 C 408.833,-0.5 454.167,-0.5 499.5,-0.5C 499.5,14.5 499.5,29.5 499.5,44.5C 454.167,44.5 408.833,44.5 363.5,44.5C 363.5,29.5 363.5,14.5 363.5,-0.5 Z"/></g>
<g><path style="opacity:1" fill="#a4a5a4" d="M 499.5,-0.5 C 529.833,-0.5 560.167,-0.5 590.5,-0.5C 590.5,14.5 590.5,29.5 590.5,44.5C 560.167,44.5 529.833,44.5 499.5,44.5C 499.5,29.5 499.5,14.5 499.5,-0.5 Z"/></g>
<g><path style="opacity:1" fill="#1c1a13" d="M -0.5,44.5 C 75.1667,44.5 150.833,44.5 226.5,44.5C 226.5,226.5 226.5,408.5 226.5,590.5C 256.833,590.5 287.167,590.5 317.5,590.5C 363.167,590.5 408.833,590.5 454.5,590.5C 454.5,711.5 454.5,832.5 454.5,953.5C 363.5,953.5 272.5,953.5 181.5,953.5C 181.5,832.5 181.5,711.5 181.5,590.5C 120.833,590.5 60.1667,590.5 -0.5,590.5C -0.5,408.5 -0.5,226.5 -0.5,44.5 Z"/></g>
<g><path style="opacity:1" fill="#bbc000" d="M 226.5,44.5 C 256.833,44.5 287.167,44.5 317.5,44.5C 317.5,226.5 317.5,408.5 317.5,590.5C 287.167,590.5 256.833,590.5 226.5,590.5C 226.5,408.5 226.5,226.5 226.5,44.5 Z"/></g>
<g><path style="opacity:1" fill="#faff00" d="M 317.5,44.5 C 332.833,44.5 348.167,44.5 363.5,44.5C 408.833,44.5 454.167,44.5 499.5,44.5C 529.833,44.5 560.167,44.5 590.5,44.5C 711.833,44.5 833.167,44.5 954.5,44.5C 954.5,226.5 954.5,408.5 954.5,590.5C 924.167,590.5 893.833,590.5 863.5,590.5C 863.5,575.167 863.5,559.833 863.5,544.5C 802.833,544.5 742.167,544.5 681.5,544.5C 681.5,559.833 681.5,575.167 681.5,590.5C 651.167,590.5 620.833,590.5 590.5,590.5C 590.5,575.167 590.5,559.833 590.5,544.5C 545.167,544.5 499.833,544.5 454.5,544.5C 454.5,559.833 454.5,575.167 454.5,590.5C 408.833,590.5 363.167,590.5 317.5,590.5C 317.5,408.5 317.5,226.5 317.5,44.5 Z"/></g>
<g><path style="opacity:1" fill="#855106" d="M 44.5,135.5 C 74.8333,135.5 105.167,135.5 135.5,135.5C 135.5,256.833 135.5,378.167 135.5,499.5C 105.167,499.5 74.8333,499.5 44.5,499.5C 44.5,378.167 44.5,256.833 44.5,135.5 Z"/></g>
<g><path style="opacity:1" fill="#000000" d="M 590.5,544.5 C 590.5,499.167 590.5,453.833 590.5,408.5C 545.167,408.5 499.833,408.5 454.5,408.5C 454.5,393.167 454.5,377.833 454.5,362.5C 514.833,362.5 575.167,362.5 635.5,362.5C 635.5,423.167 635.5,483.833 635.5,544.5C 620.5,544.5 605.5,544.5 590.5,544.5 Z"/></g>
<g><path style="opacity:1" fill="#000000" d="M 726.5,408.5 C 726.5,393.167 726.5,377.833 726.5,362.5C 787.167,362.5 847.833,362.5 908.5,362.5C 908.5,377.833 908.5,393.167 908.5,408.5C 847.833,408.5 787.167,408.5 726.5,408.5 Z"/></g>
<g><path style="opacity:1" fill="#000000" d="M 726.5,408.5 C 726.5,423.5 726.5,438.5 726.5,453.5C 711.5,453.5 696.5,453.5 681.5,453.5C 681.5,438.5 681.5,423.5 681.5,408.5C 696.5,408.5 711.5,408.5 726.5,408.5 Z"/></g>
<g><path style="opacity:1" fill="#000000" d="M 726.5,453.5 C 772.167,453.5 817.833,453.5 863.5,453.5C 863.5,468.833 863.5,484.167 863.5,499.5C 817.833,499.5 772.167,499.5 726.5,499.5C 726.5,484.167 726.5,468.833 726.5,453.5 Z"/></g>
<g><path style="opacity:1" fill="#000000" d="M 454.5,544.5 C 439.167,544.5 423.833,544.5 408.5,544.5C 408.5,529.5 408.5,514.5 408.5,499.5C 423.833,499.5 439.167,499.5 454.5,499.5C 454.5,514.5 454.5,529.5 454.5,544.5 Z"/></g>
<g><path style="opacity:1" fill="#000000" d="M 863.5,499.5 C 878.5,499.5 893.5,499.5 908.5,499.5C 908.5,514.5 908.5,529.5 908.5,544.5C 893.5,544.5 878.5,544.5 863.5,544.5C 863.5,529.5 863.5,514.5 863.5,499.5 Z"/></g>
<g><path style="opacity:1" fill="#000000" d="M 454.5,544.5 C 499.833,544.5 545.167,544.5 590.5,544.5C 590.5,559.833 590.5,575.167 590.5,590.5C 545.167,590.5 499.833,590.5 454.5,590.5C 454.5,575.167 454.5,559.833 454.5,544.5 Z"/></g>
<g><path style="opacity:1" fill="#000000" d="M 863.5,544.5 C 863.5,559.833 863.5,575.167 863.5,590.5C 802.833,590.5 742.167,590.5 681.5,590.5C 681.5,575.167 681.5,559.833 681.5,544.5C 742.167,544.5 802.833,544.5 863.5,544.5 Z"/></g>
<g><path style="opacity:1" fill="#443c2e" d="M 454.5,590.5 C 499.833,590.5 545.167,590.5 590.5,590.5C 620.833,590.5 651.167,590.5 681.5,590.5C 742.167,590.5 802.833,590.5 863.5,590.5C 893.833,590.5 924.167,590.5 954.5,590.5C 969.5,590.5 984.5,590.5 999.5,590.5C 999.5,711.5 999.5,832.5 999.5,953.5C 817.833,953.5 636.167,953.5 454.5,953.5C 454.5,832.5 454.5,711.5 454.5,590.5 Z"/></g>
<g><path style="opacity:1" fill="#855106" d="M 226.5,680.5 C 287.167,680.5 347.833,680.5 408.5,680.5C 408.5,741.167 408.5,801.833 408.5,862.5C 347.833,862.5 287.167,862.5 226.5,862.5C 226.5,801.833 226.5,741.167 226.5,680.5 Z"/></g>
<g><path style="opacity:1" fill="#a66e1e" d="M 544.5,680.5 C 665.833,680.5 787.167,680.5 908.5,680.5C 908.5,741.167 908.5,801.833 908.5,862.5C 787.167,862.5 665.833,862.5 544.5,862.5C 544.5,801.833 544.5,741.167 544.5,680.5 Z"/></g>
</svg>
