<svg viewBox="0 0 800 600" xmlns="http://www.w3.org/2000/svg"><rect x="0" y="0" width="250" height="600" fill="#9f9992" /><rect x="0" y="0" width="250" height="100" fill="#9f6060" /><rect x="0" y="300" width="250" height="100" fill="#9f6060" /><rect x="200" y="0" width="300" height="600" fill="#d4ccc3" /><rect x="450" y="0" width="350" height="500" fill="#d4ccc3" /><rect x="650" y="400" width="150" height="100" fill="#d48080" /><rect x="650" y="100" width="150" height="100" fill="#d48080" /><rect x="500" y="0" width="100" height="150" fill="#d48080" /><rect x="200" y="0" width="100" height="100" fill="#d48080" /><rect x="200" y="300" width="150" height="100" fill="#d48080" /><rect x="300" y="450" width="100" height="150" fill="#d48080" /><rect x="300" y="100" width="400" height="400" fill="#a6846a" /><rect x="400" y="400" width="300" height="100" fill="#baad96" /><rect x="400" y="250" width="100" height="200" fill="#baad96" /><rect x="400" y="200" width="200" height="100" fill="#baad96" /></svg>