<?xml version="1.0" encoding="UTF-8"?>
<!DOCTYPE svg PUBLIC "-//W3C//DTD SVG 1.1//EN" "http://www.w3.org/Graphics/SVG/1.1/DTD/svg11.dtd">
<svg xmlns="http://www.w3.org/2000/svg" version="1.1" width="1000px" height="750px" style="shape-rendering:geometricPrecision; text-rendering:geometricPrecision; image-rendering:optimizeQuality; fill-rule:evenodd; clip-rule:evenodd" xmlns:xlink="http://www.w3.org/1999/xlink">
<g><path style="opacity:1" fill="#9e605f" d="M -0.5,-0.5 C 83.1667,-0.5 166.833,-0.5 250.5,-0.5C 250.5,41.5 250.5,83.5 250.5,125.5C 166.833,125.5 83.1667,125.5 -0.5,125.5C -0.5,83.5 -0.5,41.5 -0.5,-0.5 Z"/></g>
<g><path style="opacity:1" fill="#d3807f" d="M 250.5,-0.5 C 292.167,-0.5 333.833,-0.5 375.5,-0.5C 375.5,41.5 375.5,83.5 375.5,125.5C 333.833,125.5 292.167,125.5 250.5,125.5C 250.5,83.5 250.5,41.5 250.5,-0.5 Z"/></g>
<g><path style="opacity:1" fill="#d3ccc2" d="M 375.5,-0.5 C 458.833,-0.5 542.167,-0.5 625.5,-0.5C 625.5,41.5 625.5,83.5 625.5,125.5C 542.167,125.5 458.833,125.5 375.5,125.5C 375.5,83.5 375.5,41.5 375.5,-0.5 Z"/></g>
<g><path style="opacity:1" fill="#d3807f" d="M 625.5,-0.5 C 667.167,-0.5 708.833,-0.5 750.5,-0.5C 750.5,41.5 750.5,83.5 750.5,125.5C 708.833,125.5 667.167,125.5 625.5,125.5C 625.5,83.5 625.5,41.5 625.5,-0.5 Z"/></g>
<g><path style="opacity:1" fill="#d3ccc2" d="M 750.5,-0.5 C 833.5,-0.5 916.5,-0.5 999.5,-0.5C 999.5,41.5 999.5,83.5 999.5,125.5C 958.167,125.5 916.833,125.5 875.5,125.5C 833.833,125.5 792.167,125.5 750.5,125.5C 750.5,83.5 750.5,41.5 750.5,-0.5 Z"/></g>
<g><path style="opacity:1" fill="#9e9991" d="M -0.5,125.5 C 83.1667,125.5 166.833,125.5 250.5,125.5C 250.5,208.833 250.5,292.167 250.5,375.5C 166.833,375.5 83.1667,375.5 -0.5,375.5C -0.5,292.167 -0.5,208.833 -0.5,125.5 Z"/></g>
<g><path style="opacity:1" fill="#d3ccc2" d="M 250.5,125.5 C 292.167,125.5 333.833,125.5 375.5,125.5C 375.5,208.833 375.5,292.167 375.5,375.5C 333.833,375.5 292.167,375.5 250.5,375.5C 250.5,292.167 250.5,208.833 250.5,125.5 Z"/></g>
<g><path style="opacity:1" fill="#a58469" d="M 375.5,125.5 C 458.833,125.5 542.167,125.5 625.5,125.5C 667.167,125.5 708.833,125.5 750.5,125.5C 792.167,125.5 833.833,125.5 875.5,125.5C 875.5,167.167 875.5,208.833 875.5,250.5C 875.5,333.833 875.5,417.167 875.5,500.5C 792.167,500.5 708.833,500.5 625.5,500.5C 625.5,458.833 625.5,417.167 625.5,375.5C 667.167,375.5 708.833,375.5 750.5,375.5C 750.5,333.833 750.5,292.167 750.5,250.5C 667.167,250.5 583.833,250.5 500.5,250.5C 500.5,375.5 500.5,500.5 500.5,625.5C 458.833,625.5 417.167,625.5 375.5,625.5C 375.5,583.833 375.5,542.167 375.5,500.5C 375.5,458.833 375.5,417.167 375.5,375.5C 375.5,292.167 375.5,208.833 375.5,125.5 Z"/></g>
<g><path style="opacity:1" fill="#d3807f" d="M 875.5,125.5 C 916.833,125.5 958.167,125.5 999.5,125.5C 999.5,167.167 999.5,208.833 999.5,250.5C 958.167,250.5 916.833,250.5 875.5,250.5C 875.5,208.833 875.5,167.167 875.5,125.5 Z"/></g>
<g><path style="opacity:1" fill="#b9ad95" d="M 875.5,500.5 C 875.5,542.167 875.5,583.833 875.5,625.5C 792.167,625.5 708.833,625.5 625.5,625.5C 583.833,625.5 542.167,625.5 500.5,625.5C 500.5,500.5 500.5,375.5 500.5,250.5C 583.833,250.5 667.167,250.5 750.5,250.5C 750.5,292.167 750.5,333.833 750.5,375.5C 708.833,375.5 667.167,375.5 625.5,375.5C 625.5,417.167 625.5,458.833 625.5,500.5C 708.833,500.5 792.167,500.5 875.5,500.5 Z"/></g>
<g><path style="opacity:1" fill="#d3ccc2" d="M 875.5,250.5 C 916.833,250.5 958.167,250.5 999.5,250.5C 999.5,333.833 999.5,417.167 999.5,500.5C 958.167,500.5 916.833,500.5 875.5,500.5C 875.5,417.167 875.5,333.833 875.5,250.5 Z"/></g>
<g><path style="opacity:1" fill="#9e605f" d="M -0.5,375.5 C 83.1667,375.5 166.833,375.5 250.5,375.5C 250.5,417.167 250.5,458.833 250.5,500.5C 166.833,500.5 83.1667,500.5 -0.5,500.5C -0.5,458.833 -0.5,417.167 -0.5,375.5 Z"/></g>
<g><path style="opacity:1" fill="#d3807f" d="M 250.5,375.5 C 292.167,375.5 333.833,375.5 375.5,375.5C 375.5,417.167 375.5,458.833 375.5,500.5C 333.833,500.5 292.167,500.5 250.5,500.5C 250.5,458.833 250.5,417.167 250.5,375.5 Z"/></g>
<g><path style="opacity:1" fill="#9e9991" d="M -0.5,500.5 C 83.1667,500.5 166.833,500.5 250.5,500.5C 250.5,583.5 250.5,666.5 250.5,749.5C 166.833,749.5 83.1667,749.5 -0.5,749.5C -0.5,666.5 -0.5,583.5 -0.5,500.5 Z"/></g>
<g><path style="opacity:1" fill="#d3ccc2" d="M 250.5,500.5 C 292.167,500.5 333.833,500.5 375.5,500.5C 375.5,542.167 375.5,583.833 375.5,625.5C 375.5,666.833 375.5,708.167 375.5,749.5C 333.833,749.5 292.167,749.5 250.5,749.5C 250.5,666.5 250.5,583.5 250.5,500.5 Z"/></g>
<g><path style="opacity:1" fill="#d3807f" d="M 875.5,500.5 C 916.833,500.5 958.167,500.5 999.5,500.5C 999.5,542.167 999.5,583.833 999.5,625.5C 958.167,625.5 916.833,625.5 875.5,625.5C 875.5,583.833 875.5,542.167 875.5,500.5 Z"/></g>
<g><path style="opacity:1" fill="#d3807f" d="M 375.5,625.5 C 417.167,625.5 458.833,625.5 500.5,625.5C 500.5,666.833 500.5,708.167 500.5,749.5C 458.833,749.5 417.167,749.5 375.5,749.5C 375.5,708.167 375.5,666.833 375.5,625.5 Z"/></g>
<g><path style="opacity:1" fill="#d3ccc2" d="M 500.5,625.5 C 542.167,625.5 583.833,625.5 625.5,625.5C 625.5,666.833 625.5,708.167 625.5,749.5C 583.833,749.5 542.167,749.5 500.5,749.5C 500.5,708.167 500.5,666.833 500.5,625.5 Z"/></g>
</svg>
