<?xml version="1.0" encoding="UTF-8"?>
<!DOCTYPE svg PUBLIC "-//W3C//DTD SVG 1.1//EN" "http://www.w3.org/Graphics/SVG/1.1/DTD/svg11.dtd">
<svg xmlns="http://www.w3.org/2000/svg" version="1.1" width="1000px" height="954px" style="shape-rendering:geometricPrecision; text-rendering:geometricPrecision; image-rendering:optimizeQuality; fill-rule:evenodd; clip-rule:evenodd" xmlns:xlink="http://www.w3.org/1999/xlink">
<g><path style="opacity:1" fill="#a3962c" d="M 363.5,-0.5 C 408.833,-0.5 454.167,-0.5 499.5,-0.5C 499.5,29.8333 499.5,60.1667 499.5,90.5C 469.167,90.5 438.833,90.5 408.5,90.5C 393.5,90.5 378.5,90.5 363.5,90.5C 363.5,75.1667 363.5,59.8333 363.5,44.5C 363.5,29.5 363.5,14.5 363.5,-0.5 Z"/></g>
<g><path style="opacity:1" fill="#d9c83c" d="M 499.5,-0.5 C 529.833,-0.5 560.167,-0.5 590.5,-0.5C 590.5,14.5 590.5,29.5 590.5,44.5C 590.5,59.8333 590.5,75.1667 590.5,90.5C 560.167,90.5 529.833,90.5 499.5,90.5C 499.5,60.1667 499.5,29.8333 499.5,-0.5 Z"/></g>
<g><path style="opacity:1" fill="#892518" d="M -0.5,44.5 C 120.833,44.5 242.167,44.5 363.5,44.5C 363.5,59.8333 363.5,75.1667 363.5,90.5C 378.5,90.5 393.5,90.5 408.5,90.5C 408.5,105.5 408.5,120.5 408.5,135.5C 363.167,135.5 317.833,135.5 272.5,135.5C 272.5,150.833 272.5,166.167 272.5,181.5C 257.167,181.5 241.833,181.5 226.5,181.5C 226.5,211.833 226.5,242.167 226.5,272.5C 211.5,272.5 196.5,272.5 181.5,272.5C 166.167,272.5 150.833,272.5 135.5,272.5C 135.5,226.833 135.5,181.167 135.5,135.5C 105.167,135.5 74.8333,135.5 44.5,135.5C 44.5,181.167 44.5,226.833 44.5,272.5C 29.5,272.5 14.5,272.5 -0.5,272.5C -0.5,196.5 -0.5,120.5 -0.5,44.5 Z"/></g>
<g><path style="opacity:1" fill="#892518" d="M 590.5,44.5 C 635.833,44.5 681.167,44.5 726.5,44.5C 726.5,90.1667 726.5,135.833 726.5,181.5C 711.5,181.5 696.5,181.5 681.5,181.5C 666.167,181.5 650.833,181.5 635.5,181.5C 635.5,166.167 635.5,150.833 635.5,135.5C 590.167,135.5 544.833,135.5 499.5,135.5C 499.5,120.5 499.5,105.5 499.5,90.5C 529.833,90.5 560.167,90.5 590.5,90.5C 590.5,75.1667 590.5,59.8333 590.5,44.5 Z"/></g>
<g><path style="opacity:1" fill="#d9c83c" d="M 408.5,90.5 C 438.833,90.5 469.167,90.5 499.5,90.5C 499.5,105.5 499.5,120.5 499.5,135.5C 469.167,135.5 438.833,135.5 408.5,135.5C 408.5,120.5 408.5,105.5 408.5,90.5 Z"/></g>
<g><path style="opacity:1" fill="#7b120c" d="M 135.5,272.5 C 105.167,272.5 74.8333,272.5 44.5,272.5C 44.5,226.833 44.5,181.167 44.5,135.5C 74.8333,135.5 105.167,135.5 135.5,135.5C 135.5,181.167 135.5,226.833 135.5,272.5 Z"/></g>
<g><path style="opacity:1" fill="#300603" d="M 408.5,135.5 C 438.833,135.5 469.167,135.5 499.5,135.5C 544.833,135.5 590.167,135.5 635.5,135.5C 635.5,150.833 635.5,166.167 635.5,181.5C 590.167,181.5 544.833,181.5 499.5,181.5C 469.167,181.5 438.833,181.5 408.5,181.5C 363.167,181.5 317.833,181.5 272.5,181.5C 272.5,166.167 272.5,150.833 272.5,135.5C 317.833,135.5 363.167,135.5 408.5,135.5 Z"/></g>
<g><path style="opacity:1" fill="#9e605f" d="M 272.5,181.5 C 317.833,181.5 363.167,181.5 408.5,181.5C 408.5,211.833 408.5,242.167 408.5,272.5C 347.833,272.5 287.167,272.5 226.5,272.5C 226.5,242.167 226.5,211.833 226.5,181.5C 241.833,181.5 257.167,181.5 272.5,181.5 Z"/></g>
<g><path style="opacity:1" fill="#d3807f" d="M 408.5,181.5 C 438.833,181.5 469.167,181.5 499.5,181.5C 499.5,211.833 499.5,242.167 499.5,272.5C 469.167,272.5 438.833,272.5 408.5,272.5C 408.5,242.167 408.5,211.833 408.5,181.5 Z"/></g>
<g><path style="opacity:1" fill="#d3ccc2" d="M 499.5,181.5 C 544.833,181.5 590.167,181.5 635.5,181.5C 650.833,181.5 666.167,181.5 681.5,181.5C 681.5,211.833 681.5,242.167 681.5,272.5C 620.833,272.5 560.167,272.5 499.5,272.5C 499.5,242.167 499.5,211.833 499.5,181.5 Z"/></g>
<g><path style="opacity:1" fill="#d3807f" d="M 681.5,181.5 C 696.5,181.5 711.5,181.5 726.5,181.5C 741.833,181.5 757.167,181.5 772.5,181.5C 772.5,211.833 772.5,242.167 772.5,272.5C 742.167,272.5 711.833,272.5 681.5,272.5C 681.5,242.167 681.5,211.833 681.5,181.5 Z"/></g>
<g><path style="opacity:1" fill="#d3ccc2" d="M 772.5,181.5 C 833.167,181.5 893.833,181.5 954.5,181.5C 954.5,211.833 954.5,242.167 954.5,272.5C 924.167,272.5 893.833,272.5 863.5,272.5C 833.167,272.5 802.833,272.5 772.5,272.5C 772.5,242.167 772.5,211.833 772.5,181.5 Z"/></g>
<g><path style="opacity:1" fill="#a3962c" d="M -0.5,272.5 C 14.5,272.5 29.5,272.5 44.5,272.5C 74.8333,272.5 105.167,272.5 135.5,272.5C 150.833,272.5 166.167,272.5 181.5,272.5C 181.5,302.5 181.5,332.5 181.5,362.5C 166.167,362.5 150.833,362.5 135.5,362.5C 105.167,362.5 74.8333,362.5 44.5,362.5C 29.5,362.5 14.5,362.5 -0.5,362.5C -0.5,332.5 -0.5,302.5 -0.5,272.5 Z"/></g>
<g><path style="opacity:1" fill="#d9c83c" d="M 181.5,272.5 C 196.5,272.5 211.5,272.5 226.5,272.5C 226.5,302.5 226.5,332.5 226.5,362.5C 211.5,362.5 196.5,362.5 181.5,362.5C 181.5,332.5 181.5,302.5 181.5,272.5 Z"/></g>
<g><path style="opacity:1" fill="#9e9991" d="M 226.5,272.5 C 287.167,272.5 347.833,272.5 408.5,272.5C 408.5,332.833 408.5,393.167 408.5,453.5C 347.833,453.5 287.167,453.5 226.5,453.5C 226.5,423.167 226.5,392.833 226.5,362.5C 226.5,332.5 226.5,302.5 226.5,272.5 Z"/></g>
<g><path style="opacity:1" fill="#d3ccc2" d="M 408.5,272.5 C 438.833,272.5 469.167,272.5 499.5,272.5C 499.5,332.833 499.5,393.167 499.5,453.5C 469.167,453.5 438.833,453.5 408.5,453.5C 408.5,393.167 408.5,332.833 408.5,272.5 Z"/></g>
<g><path style="opacity:1" fill="#a58469" d="M 499.5,272.5 C 560.167,272.5 620.833,272.5 681.5,272.5C 711.833,272.5 742.167,272.5 772.5,272.5C 802.833,272.5 833.167,272.5 863.5,272.5C 863.5,302.5 863.5,332.5 863.5,362.5C 863.5,423.167 863.5,483.833 863.5,544.5C 802.833,544.5 742.167,544.5 681.5,544.5C 681.5,514.167 681.5,483.833 681.5,453.5C 711.833,453.5 742.167,453.5 772.5,453.5C 772.5,423.167 772.5,392.833 772.5,362.5C 711.833,362.5 651.167,362.5 590.5,362.5C 590.5,438.5 590.5,514.5 590.5,590.5C 560.167,590.5 529.833,590.5 499.5,590.5C 499.5,575.167 499.5,559.833 499.5,544.5C 499.5,514.167 499.5,483.833 499.5,453.5C 499.5,393.167 499.5,332.833 499.5,272.5 Z"/></g>
<g><path style="opacity:1" fill="#d3807f" d="M 863.5,272.5 C 893.833,272.5 924.167,272.5 954.5,272.5C 954.5,302.5 954.5,332.5 954.5,362.5C 924.167,362.5 893.833,362.5 863.5,362.5C 863.5,332.5 863.5,302.5 863.5,272.5 Z"/></g>
<g><path style="opacity:1" fill="#892518" d="M -0.5,362.5 C 14.5,362.5 29.5,362.5 44.5,362.5C 44.5,408.167 44.5,453.833 44.5,499.5C 74.8333,499.5 105.167,499.5 135.5,499.5C 135.5,453.833 135.5,408.167 135.5,362.5C 150.833,362.5 166.167,362.5 181.5,362.5C 196.5,362.5 211.5,362.5 226.5,362.5C 226.5,392.833 226.5,423.167 226.5,453.5C 226.5,483.833 226.5,514.167 226.5,544.5C 226.5,559.833 226.5,575.167 226.5,590.5C 287.167,590.5 347.833,590.5 408.5,590.5C 423.833,590.5 439.167,590.5 454.5,590.5C 454.5,681.167 454.5,771.833 454.5,862.5C 439.167,862.5 423.833,862.5 408.5,862.5C 408.5,801.833 408.5,741.167 408.5,680.5C 347.833,680.5 287.167,680.5 226.5,680.5C 226.5,741.167 226.5,801.833 226.5,862.5C 211.5,862.5 196.5,862.5 181.5,862.5C 181.5,771.833 181.5,681.167 181.5,590.5C 120.833,590.5 60.1667,590.5 -0.5,590.5C -0.5,514.5 -0.5,438.5 -0.5,362.5 Z"/></g>
<g><path style="opacity:1" fill="#7b120c" d="M 44.5,362.5 C 74.8333,362.5 105.167,362.5 135.5,362.5C 135.5,408.167 135.5,453.833 135.5,499.5C 105.167,499.5 74.8333,499.5 44.5,499.5C 44.5,453.833 44.5,408.167 44.5,362.5 Z"/></g>
<g><path style="opacity:1" fill="#b9ad95" d="M 863.5,544.5 C 863.5,559.833 863.5,575.167 863.5,590.5C 772.5,590.5 681.5,590.5 590.5,590.5C 590.5,514.5 590.5,438.5 590.5,362.5C 651.167,362.5 711.833,362.5 772.5,362.5C 772.5,392.833 772.5,423.167 772.5,453.5C 742.167,453.5 711.833,453.5 681.5,453.5C 681.5,483.833 681.5,514.167 681.5,544.5C 742.167,544.5 802.833,544.5 863.5,544.5 Z"/></g>
<g><path style="opacity:1" fill="#d3ccc2" d="M 863.5,362.5 C 893.833,362.5 924.167,362.5 954.5,362.5C 954.5,423.167 954.5,483.833 954.5,544.5C 924.167,544.5 893.833,544.5 863.5,544.5C 863.5,483.833 863.5,423.167 863.5,362.5 Z"/></g>
<g><path style="opacity:1" fill="#9e605f" d="M 226.5,453.5 C 287.167,453.5 347.833,453.5 408.5,453.5C 408.5,483.833 408.5,514.167 408.5,544.5C 347.833,544.5 287.167,544.5 226.5,544.5C 226.5,514.167 226.5,483.833 226.5,453.5 Z"/></g>
<g><path style="opacity:1" fill="#d3807f" d="M 408.5,453.5 C 438.833,453.5 469.167,453.5 499.5,453.5C 499.5,483.833 499.5,514.167 499.5,544.5C 469.167,544.5 438.833,544.5 408.5,544.5C 408.5,514.167 408.5,483.833 408.5,453.5 Z"/></g>
<g><path style="opacity:1" fill="#9e9991" d="M 226.5,544.5 C 287.167,544.5 347.833,544.5 408.5,544.5C 408.5,559.833 408.5,575.167 408.5,590.5C 347.833,590.5 287.167,590.5 226.5,590.5C 226.5,575.167 226.5,559.833 226.5,544.5 Z"/></g>
<g><path style="opacity:1" fill="#d3ccc2" d="M 408.5,544.5 C 438.833,544.5 469.167,544.5 499.5,544.5C 499.5,559.833 499.5,575.167 499.5,590.5C 484.5,590.5 469.5,590.5 454.5,590.5C 439.167,590.5 423.833,590.5 408.5,590.5C 408.5,575.167 408.5,559.833 408.5,544.5 Z"/></g>
<g><path style="opacity:1" fill="#d3807f" d="M 863.5,544.5 C 893.833,544.5 924.167,544.5 954.5,544.5C 954.5,559.833 954.5,575.167 954.5,590.5C 924.167,590.5 893.833,590.5 863.5,590.5C 863.5,575.167 863.5,559.833 863.5,544.5 Z"/></g>
<g><path style="opacity:1" fill="#b53020" d="M 454.5,590.5 C 469.5,590.5 484.5,590.5 499.5,590.5C 529.833,590.5 560.167,590.5 590.5,590.5C 681.5,590.5 772.5,590.5 863.5,590.5C 893.833,590.5 924.167,590.5 954.5,590.5C 969.5,590.5 984.5,590.5 999.5,590.5C 999.5,681.167 999.5,771.833 999.5,862.5C 969.167,862.5 938.833,862.5 908.5,862.5C 908.5,801.833 908.5,741.167 908.5,680.5C 787.167,680.5 665.833,680.5 544.5,680.5C 544.5,741.167 544.5,801.833 544.5,862.5C 514.5,862.5 484.5,862.5 454.5,862.5C 454.5,771.833 454.5,681.167 454.5,590.5 Z"/></g>
<g><path style="opacity:1" fill="#7b120c" d="M 408.5,862.5 C 347.833,862.5 287.167,862.5 226.5,862.5C 226.5,801.833 226.5,741.167 226.5,680.5C 287.167,680.5 347.833,680.5 408.5,680.5C 408.5,741.167 408.5,801.833 408.5,862.5 Z"/></g>
<g><path style="opacity:1" fill="#a31710" d="M 908.5,862.5 C 787.167,862.5 665.833,862.5 544.5,862.5C 544.5,801.833 544.5,741.167 544.5,680.5C 665.833,680.5 787.167,680.5 908.5,680.5C 908.5,741.167 908.5,801.833 908.5,862.5 Z"/></g>
<g><path style="opacity:1" fill="#390300" d="M 181.5,862.5 C 196.5,862.5 211.5,862.5 226.5,862.5C 287.167,862.5 347.833,862.5 408.5,862.5C 423.833,862.5 439.167,862.5 454.5,862.5C 454.5,892.833 454.5,923.167 454.5,953.5C 363.5,953.5 272.5,953.5 181.5,953.5C 181.5,923.167 181.5,892.833 181.5,862.5 Z"/></g>
<g><path style="opacity:1" fill="#4b0300" d="M 454.5,862.5 C 484.5,862.5 514.5,862.5 544.5,862.5C 665.833,862.5 787.167,862.5 908.5,862.5C 938.833,862.5 969.167,862.5 999.5,862.5C 999.5,892.833 999.5,923.167 999.5,953.5C 817.833,953.5 636.167,953.5 454.5,953.5C 454.5,923.167 454.5,892.833 454.5,862.5 Z"/></g>
</svg>
