<?xml version="1.0" encoding="UTF-8"?>
<!DOCTYPE svg PUBLIC "-//W3C//DTD SVG 1.1//EN" "http://www.w3.org/Graphics/SVG/1.1/DTD/svg11.dtd">
<svg xmlns="http://www.w3.org/2000/svg" version="1.1" width="1000px" height="833px" style="shape-rendering:geometricPrecision; text-rendering:geometricPrecision; image-rendering:optimizeQuality; fill-rule:evenodd; clip-rule:evenodd" xmlns:xlink="http://www.w3.org/1999/xlink">
<g><path style="opacity:1" fill="#887e4d" d="M 167.5,0.5 C 167.5,28.1667 167.5,55.8333 167.5,83.5C 139.5,83.5 111.5,83.5 83.5,83.5C 83.5,55.8333 83.5,28.1667 83.5,0.5C 111.5,0.5 139.5,0.5 167.5,0.5 Z"/></g>
<g><path style="opacity:1" fill="#d1d2b1" d="M 167.5,0.5 C 361.833,0.5 556.167,0.5 750.5,0.5C 750.5,28.1667 750.5,55.8333 750.5,83.5C 583.833,83.5 417.167,83.5 250.5,83.5C 222.833,83.5 195.167,83.5 167.5,83.5C 167.5,55.8333 167.5,28.1667 167.5,0.5 Z"/></g>
<g><path style="opacity:1" fill="#887e4d" d="M 83.5,83.5 C 83.5,138.833 83.5,194.167 83.5,249.5C 55.8333,249.5 28.1667,249.5 0.5,249.5C 0.5,194.167 0.5,138.833 0.5,83.5C 28.1667,83.5 55.8333,83.5 83.5,83.5 Z"/></g>
<g><path style="opacity:1" fill="#73693a" d="M 83.5,83.5 C 111.5,83.5 139.5,83.5 167.5,83.5C 167.5,138.833 167.5,194.167 167.5,249.5C 139.5,249.5 111.5,249.5 83.5,249.5C 83.5,194.167 83.5,138.833 83.5,83.5 Z"/></g>
<g><path style="opacity:1" fill="#887e4d" d="M 167.5,83.5 C 195.167,83.5 222.833,83.5 250.5,83.5C 250.5,305.5 250.5,527.5 250.5,749.5C 222.833,749.5 195.167,749.5 167.5,749.5C 167.5,582.833 167.5,416.167 167.5,249.5C 167.5,194.167 167.5,138.833 167.5,83.5 Z"/></g>
<g><path style="opacity:1" fill="#bdbe9d" d="M 250.5,83.5 C 417.167,83.5 583.833,83.5 750.5,83.5C 778.167,83.5 805.833,83.5 833.5,83.5C 833.5,277.833 833.5,472.167 833.5,666.5C 694.5,666.5 555.5,666.5 416.5,666.5C 388.833,666.5 361.167,666.5 333.5,666.5C 333.5,694.167 333.5,721.833 333.5,749.5C 305.833,749.5 278.167,749.5 250.5,749.5C 250.5,527.5 250.5,305.5 250.5,83.5 Z"/></g>
<g><path style="opacity:1" fill="#615932" d="M 416.5,249.5 C 416.5,221.833 416.5,194.167 416.5,166.5C 527.833,166.5 639.167,166.5 750.5,166.5C 750.5,194.167 750.5,221.833 750.5,249.5C 639.167,249.5 527.833,249.5 416.5,249.5 Z"/></g>
<g><path style="opacity:1" fill="#615932" d="M 416.5,249.5 C 416.5,277.5 416.5,305.5 416.5,333.5C 388.833,333.5 361.167,333.5 333.5,333.5C 333.5,305.5 333.5,277.5 333.5,249.5C 361.167,249.5 388.833,249.5 416.5,249.5 Z"/></g>
<g><path style="opacity:1" fill="#615932" d="M 416.5,333.5 C 499.833,333.5 583.167,333.5 666.5,333.5C 666.5,361.167 666.5,388.833 666.5,416.5C 583.167,416.5 499.833,416.5 416.5,416.5C 416.5,388.833 416.5,361.167 416.5,333.5 Z"/></g>
<g><path style="opacity:1" fill="#615932" d="M 666.5,416.5 C 694.5,416.5 722.5,416.5 750.5,416.5C 750.5,444.167 750.5,471.833 750.5,499.5C 722.5,499.5 694.5,499.5 666.5,499.5C 666.5,471.833 666.5,444.167 666.5,416.5 Z"/></g>
<g><path style="opacity:1" fill="#615932" d="M 666.5,499.5 C 666.5,527.5 666.5,555.5 666.5,583.5C 555.5,583.5 444.5,583.5 333.5,583.5C 333.5,555.5 333.5,527.5 333.5,499.5C 444.5,499.5 555.5,499.5 666.5,499.5 Z"/></g>
<g><path style="opacity:1" fill="#887e4d" d="M 416.5,666.5 C 416.5,694.167 416.5,721.833 416.5,749.5C 388.833,749.5 361.167,749.5 333.5,749.5C 333.5,721.833 333.5,694.167 333.5,666.5C 361.167,666.5 388.833,666.5 416.5,666.5 Z"/></g>
<g><path style="opacity:1" fill="#d1d2b1" d="M 416.5,666.5 C 555.5,666.5 694.5,666.5 833.5,666.5C 888.833,666.5 944.167,666.5 999.5,666.5C 999.5,694.167 999.5,721.833 999.5,749.5C 971.833,749.5 944.167,749.5 916.5,749.5C 749.833,749.5 583.167,749.5 416.5,749.5C 416.5,721.833 416.5,694.167 416.5,666.5 Z"/></g>
<g><path style="opacity:1" fill="#887e4d" d="M 250.5,749.5 C 278.167,749.5 305.833,749.5 333.5,749.5C 333.5,777.167 333.5,804.833 333.5,832.5C 305.833,832.5 278.167,832.5 250.5,832.5C 250.5,804.833 250.5,777.167 250.5,749.5 Z"/></g>
<g><path style="opacity:1" fill="#bdbe9d" d="M 333.5,749.5 C 361.167,749.5 388.833,749.5 416.5,749.5C 583.167,749.5 749.833,749.5 916.5,749.5C 916.5,777.167 916.5,804.833 916.5,832.5C 722.167,832.5 527.833,832.5 333.5,832.5C 333.5,804.833 333.5,777.167 333.5,749.5 Z"/></g>
</svg>
