<svg viewBox="0 0 600 500" xmlns="http://www.w3.org/2000/svg"><rect x="100" y="0" width="350" height="100" fill="#d2d2b2" /><rect x="100" y="50" width="100" height="400" fill="#897e4e" /><rect x="0" y="50" width="150" height="100" fill="#897e4e" /><rect x="50" y="0" width="50" height="100" fill="#897e4e" /><rect x="50" y="50" width="50" height="100" fill="#74693b" /><rect x="150" y="400" width="100" height="100" fill="#897e4e" /><rect x="200" y="400" width="350" height="100" fill="#bebe9e" /><rect x="150" y="50" width="350" height="400" fill="#bebe9e" /><rect x="200" y="400" width="100" height="50" fill="#897e4e" /><rect x="250" y="400" width="350" height="50" fill="#d2d2b2" /><rect x="200" y="300" width="200" height="50" fill="#625933" /><rect x="400" y="250" width="50" height="50" fill="#625933" /><rect x="250" y="200" width="150" height="50" fill="#625933" /><rect x="200" y="150" width="50" height="50" fill="#625933" /><rect x="250" y="100" width="200" height="50" fill="#625933" /></svg>