<svg viewBox="0 0 900 600" xmlns="http://www.w3.org/2000/svg"><rect x="0" y="0" width="350" height="600" fill="#9d8f39" /><rect x="300" y="0" width="600" height="600" fill="#cdce4a" /><rect x="250" y="500" width="100" height="100" fill="#796a10" /><rect x="200" y="100" width="150" height="100" fill="#796a10" /><rect x="250" y="0" width="100" height="150" fill="#796a10" /><rect x="150" y="300" width="100" height="200" fill="#796a10" /><rect x="0" y="500" width="100" height="100" fill="#796a10" /><rect x="50" y="400" width="50" height="150" fill="#796a10" /><rect x="0" y="100" width="100" height="200" fill="#796a10" /><rect x="100" y="0" width="50" height="100" fill="#796a10" /><rect x="300" y="100" width="200" height="100" fill="#867b36" /><rect x="300" y="0" width="100" height="150" fill="#867b36" /><rect x="700" y="100" width="200" height="200" fill="#867b36" /><rect x="600" y="0" width="100" height="100" fill="#867b36" /><rect x="400" y="300" width="200" height="200" fill="#867b36" /><rect x="700" y="400" width="100" height="200" fill="#867b36" /><rect x="700" y="500" width="200" height="100" fill="#867b36" /><rect x="300" y="500" width="100" height="100" fill="#867b36" /></svg>