<?xml version="1.0" encoding="UTF-8"?>
<!DOCTYPE svg PUBLIC "-//W3C//DTD SVG 1.1//EN" "http://www.w3.org/Graphics/SVG/1.1/DTD/svg11.dtd">
<svg xmlns="http://www.w3.org/2000/svg" version="1.1" width="1000px" height="955px" style="shape-rendering:geometricPrecision; text-rendering:geometricPrecision; image-rendering:optimizeQuality; fill-rule:evenodd; clip-rule:evenodd" xmlns:xlink="http://www.w3.org/1999/xlink">
<g><path style="opacity:1" fill="#757675" d="M 363.5,-0.5 C 409.167,-0.5 454.833,-0.5 500.5,-0.5C 500.5,29.8333 500.5,60.1667 500.5,90.5C 454.833,90.5 409.167,90.5 363.5,90.5C 363.5,75.5 363.5,60.5 363.5,45.5C 363.5,30.1667 363.5,14.8333 363.5,-0.5 Z"/></g>
<g><path style="opacity:1" fill="#a4a5a4" d="M 500.5,-0.5 C 530.833,-0.5 561.167,-0.5 591.5,-0.5C 591.5,14.8333 591.5,30.1667 591.5,45.5C 591.5,60.5 591.5,75.5 591.5,90.5C 561.167,90.5 530.833,90.5 500.5,90.5C 500.5,60.1667 500.5,29.8333 500.5,-0.5 Z"/></g>
<g><path style="opacity:1" fill="#1c1a13" d="M -0.5,45.5 C 120.833,45.5 242.167,45.5 363.5,45.5C 363.5,60.5 363.5,75.5 363.5,90.5C 409.167,90.5 454.833,90.5 500.5,90.5C 530.833,90.5 561.167,90.5 591.5,90.5C 591.5,75.5 591.5,60.5 591.5,45.5C 636.833,45.5 682.167,45.5 727.5,45.5C 727.5,227.5 727.5,409.5 727.5,591.5C 636.5,591.5 545.5,591.5 454.5,591.5C 454.5,712.5 454.5,833.5 454.5,954.5C 363.5,954.5 272.5,954.5 181.5,954.5C 181.5,833.5 181.5,712.5 181.5,591.5C 120.833,591.5 60.1667,591.5 -0.5,591.5C -0.5,409.5 -0.5,227.5 -0.5,45.5 Z"/></g>
<g><path style="opacity:1" fill="#37a7a4" d="M 45.5,136.5 C 75.8333,136.5 106.167,136.5 136.5,136.5C 136.5,257.833 136.5,379.167 136.5,500.5C 106.167,500.5 75.8333,500.5 45.5,500.5C 45.5,379.167 45.5,257.833 45.5,136.5 Z"/></g>
<g><path style="opacity:1" fill="#297d7b" d="M 272.5,136.5 C 393.833,136.5 515.167,136.5 636.5,136.5C 636.5,257.833 636.5,379.167 636.5,500.5C 515.167,500.5 393.833,500.5 272.5,500.5C 272.5,379.167 272.5,257.833 272.5,136.5 Z"/></g>
<g><path style="opacity:1" fill="#443c2e" d="M 727.5,591.5 C 818.167,591.5 908.833,591.5 999.5,591.5C 999.5,712.5 999.5,833.5 999.5,954.5C 817.833,954.5 636.167,954.5 454.5,954.5C 454.5,833.5 454.5,712.5 454.5,591.5C 545.5,591.5 636.5,591.5 727.5,591.5 Z"/></g>
<g><path style="opacity:1" fill="#297d7b" d="M 227.5,682.5 C 288.167,682.5 348.833,682.5 409.5,682.5C 409.5,743.167 409.5,803.833 409.5,864.5C 348.833,864.5 288.167,864.5 227.5,864.5C 227.5,803.833 227.5,743.167 227.5,682.5 Z"/></g>
<g><path style="opacity:1" fill="#37a7a4" d="M 545.5,682.5 C 666.833,682.5 788.167,682.5 909.5,682.5C 909.5,743.167 909.5,803.833 909.5,864.5C 788.167,864.5 666.833,864.5 545.5,864.5C 545.5,803.833 545.5,743.167 545.5,682.5 Z"/></g>
</svg>
