<?xml version="1.0" encoding="UTF-8"?>
<!DOCTYPE svg PUBLIC "-//W3C//DTD SVG 1.1//EN" "http://www.w3.org/Graphics/SVG/1.1/DTD/svg11.dtd">
<svg xmlns="http://www.w3.org/2000/svg" version="1.1" width="1000px" height="867px" style="shape-rendering:geometricPrecision; text-rendering:geometricPrecision; image-rendering:optimizeQuality; fill-rule:evenodd; clip-rule:evenodd" xmlns:xlink="http://www.w3.org/1999/xlink">
<g><path style="opacity:1" fill="#887e4d" d="M 66.5,-0.5 C 88.8333,-0.5 111.167,-0.5 133.5,-0.5C 133.5,21.8333 133.5,44.1667 133.5,66.5C 111.167,66.5 88.8333,66.5 66.5,66.5C 66.5,44.1667 66.5,21.8333 66.5,-0.5 Z"/></g>
<g><path style="opacity:1" fill="#d1d2b1" d="M 133.5,-0.5 C 355.833,-0.5 578.167,-0.5 800.5,-0.5C 800.5,21.8333 800.5,44.1667 800.5,66.5C 600.5,66.5 400.5,66.5 200.5,66.5C 178.167,66.5 155.833,66.5 133.5,66.5C 133.5,44.1667 133.5,21.8333 133.5,-0.5 Z"/></g>
<g><path style="opacity:1" fill="#887e4d" d="M -0.5,66.5 C 21.8333,66.5 44.1667,66.5 66.5,66.5C 66.5,111.167 66.5,155.833 66.5,200.5C 44.1667,200.5 21.8333,200.5 -0.5,200.5C -0.5,155.833 -0.5,111.167 -0.5,66.5 Z"/></g>
<g><path style="opacity:1" fill="#73693a" d="M 66.5,66.5 C 88.8333,66.5 111.167,66.5 133.5,66.5C 133.5,111.167 133.5,155.833 133.5,200.5C 111.167,200.5 88.8333,200.5 66.5,200.5C 66.5,155.833 66.5,111.167 66.5,66.5 Z"/></g>
<g><path style="opacity:1" fill="#887e4d" d="M 133.5,66.5 C 155.833,66.5 178.167,66.5 200.5,66.5C 200.5,311.167 200.5,555.833 200.5,800.5C 178.167,800.5 155.833,800.5 133.5,800.5C 133.5,600.5 133.5,400.5 133.5,200.5C 133.5,155.833 133.5,111.167 133.5,66.5 Z"/></g>
<g><path style="opacity:1" fill="#bdbe9d" d="M 200.5,66.5 C 400.5,66.5 600.5,66.5 800.5,66.5C 822.5,66.5 844.5,66.5 866.5,66.5C 866.5,289.167 866.5,511.833 866.5,734.5C 688.833,734.5 511.167,734.5 333.5,734.5C 311.167,734.5 288.833,734.5 266.5,734.5C 266.5,756.5 266.5,778.5 266.5,800.5C 244.5,800.5 222.5,800.5 200.5,800.5C 200.5,555.833 200.5,311.167 200.5,66.5 Z"/></g>
<g><path style="opacity:1" fill="#fe9800" d="M 666.5,400.5 C 577.833,400.5 489.167,400.5 400.5,400.5C 355.833,400.5 311.167,400.5 266.5,400.5C 266.5,355.833 266.5,311.167 266.5,266.5C 355.5,266.5 444.5,266.5 533.5,266.5C 533.5,222.167 533.5,177.833 533.5,133.5C 622.5,133.5 711.5,133.5 800.5,133.5C 800.5,177.833 800.5,222.167 800.5,266.5C 755.833,266.5 711.167,266.5 666.5,266.5C 666.5,311.167 666.5,355.833 666.5,400.5 Z"/></g>
<g><path style="opacity:1" fill="#ec8800" d="M 400.5,400.5 C 489.167,400.5 577.833,400.5 666.5,400.5C 711.167,400.5 755.833,400.5 800.5,400.5C 800.5,444.833 800.5,489.167 800.5,533.5C 711.5,533.5 622.5,533.5 533.5,533.5C 533.5,578.167 533.5,622.833 533.5,667.5C 444.5,667.5 355.5,667.5 266.5,667.5C 266.5,622.833 266.5,578.167 266.5,533.5C 311.167,533.5 355.833,533.5 400.5,533.5C 400.5,489.167 400.5,444.833 400.5,400.5 Z"/></g>
<g><path style="opacity:1" fill="#887e4d" d="M 333.5,734.5 C 333.5,756.5 333.5,778.5 333.5,800.5C 311.167,800.5 288.833,800.5 266.5,800.5C 266.5,778.5 266.5,756.5 266.5,734.5C 288.833,734.5 311.167,734.5 333.5,734.5 Z"/></g>
<g><path style="opacity:1" fill="#d1d2b1" d="M 333.5,734.5 C 511.167,734.5 688.833,734.5 866.5,734.5C 910.833,734.5 955.167,734.5 999.5,734.5C 999.5,756.5 999.5,778.5 999.5,800.5C 977.5,800.5 955.5,800.5 933.5,800.5C 733.5,800.5 533.5,800.5 333.5,800.5C 333.5,778.5 333.5,756.5 333.5,734.5 Z"/></g>
<g><path style="opacity:1" fill="#887e4d" d="M 200.5,800.5 C 222.5,800.5 244.5,800.5 266.5,800.5C 266.5,822.5 266.5,844.5 266.5,866.5C 244.5,866.5 222.5,866.5 200.5,866.5C 200.5,844.5 200.5,822.5 200.5,800.5 Z"/></g>
<g><path style="opacity:1" fill="#bdbe9d" d="M 266.5,800.5 C 288.833,800.5 311.167,800.5 333.5,800.5C 533.5,800.5 733.5,800.5 933.5,800.5C 933.5,822.5 933.5,844.5 933.5,866.5C 711.167,866.5 488.833,866.5 266.5,866.5C 266.5,844.5 266.5,822.5 266.5,800.5 Z"/></g>
</svg>
