<svg viewBox="0 0 1000 700" xmlns="http://www.w3.org/2000/svg"><rect x="50" y="50" width="350" height="600" fill="#afa16e" /><rect x="50" y="550" width="250" height="100" fill="#9e8168" /><rect x="100" y="450" width="150" height="150" fill="#9e8168" /><rect x="100" y="200" width="50" height="150" fill="#9e8168" /><rect x="300" y="300" width="150" height="150" fill="#bcc0b1" /><rect x="200" y="200" width="250" height="150" fill="#bcc0b1" /><rect x="100" y="100" width="350" height="150" fill="#bcc0b1" /><rect x="50" y="50" width="400" height="100" fill="#bcc0b1" /><rect x="350" y="50" width="600" height="600" fill="#e8e292" /><rect x="350" y="50" width="600" height="400" fill="#edffea" /><rect x="450" y="350" width="500" height="150" fill="#e8e292" /><rect x="550" y="250" width="200" height="150" fill="#e8e292" /><rect x="450" y="550" width="500" height="100" fill="#d1af8a" /><rect x="550" y="450" width="200" height="150" fill="#d1af8a" /><g opacity=".5019607843137255"><rect x="0" y="0" width="350" height="700" fill="#b9b592" /><rect x="300" y="0" width="700" height="700" fill="#eef5c1" /></g><rect x="400" y="350" width="150" height="150" fill="#524437" /><rect x="750" y="350" width="150" height="150" fill="#524437" /><rect x="600" y="550" width="100" height="50" fill="#524437" /></svg>