<svg viewBox="0 0 1150 1050" xmlns="http://www.w3.org/2000/svg"><rect x="200" y="50" width="600" height="650" fill="#1d1a14" /><rect x="300" y="150" width="400" height="400" fill="#693f05" /><rect x="0" y="50" width="250" height="600" fill="#1d1a14" /><rect x="50" y="150" width="100" height="400" fill="#865107" /><rect x="400" y="0" width="200" height="100" fill="#767676" /><rect x="550" y="0" width="100" height="100" fill="#a5a5a5" /><rect x="200" y="150" width="350" height="600" fill="#afa16e" /><rect x="200" y="650" width="250" height="100" fill="#9e8168" /><rect x="250" y="550" width="150" height="150" fill="#9e8168" /><rect x="250" y="300" width="50" height="150" fill="#9e8168" /><rect x="450" y="400" width="150" height="150" fill="#bcc0b1" /><rect x="350" y="300" width="250" height="150" fill="#bcc0b1" /><rect x="250" y="200" width="350" height="150" fill="#bcc0b1" /><rect x="200" y="150" width="400" height="100" fill="#bcc0b1" /><rect x="500" y="150" width="600" height="600" fill="#e8e292" /><rect x="500" y="150" width="600" height="400" fill="#edffea" /><rect x="600" y="450" width="500" height="150" fill="#e8e292" /><rect x="700" y="350" width="200" height="150" fill="#e8e292" /><rect x="700" y="550" width="200" height="150" fill="#d1af8a" /><g opacity=".5019607843137255"><rect x="150" y="100" width="350" height="550" fill="#b9b592" /><rect x="450" y="100" width="700" height="550" fill="#eef5c1" /></g><rect x="550" y="450" width="150" height="150" fill="#524437" /><rect x="900" y="450" width="150" height="150" fill="#524437" /><rect x="750" y="650" width="100" height="50" fill="#524437" /><rect x="200" y="650" width="350" height="400" fill="#1d1a14" /><rect x="250" y="750" width="200" height="200" fill="#865107" /><rect x="500" y="650" width="600" height="400" fill="#453c2f" /><rect x="600" y="750" width="400" height="200" fill="#a76e1f" /></svg>