<?xml version="1.0" encoding="UTF-8"?>
<!DOCTYPE svg PUBLIC "-//W3C//DTD SVG 1.1//EN" "http://www.w3.org/Graphics/SVG/1.1/DTD/svg11.dtd">
<svg xmlns="http://www.w3.org/2000/svg" version="1.1" width="1000px" height="857px" style="shape-rendering:geometricPrecision; text-rendering:geometricPrecision; image-rendering:optimizeQuality; fill-rule:evenodd; clip-rule:evenodd" xmlns:xlink="http://www.w3.org/1999/xlink">
<g><path style="opacity:1" fill="#be2f00" d="M 429.5,0.5 C 429.5,47.8333 429.5,95.1667 429.5,142.5C 381.833,142.5 334.167,142.5 286.5,142.5C 286.5,95.1667 286.5,47.8333 286.5,0.5C 334.167,0.5 381.833,0.5 429.5,0.5 Z"/></g>
<g><path style="opacity:1" fill="#fd3e00" d="M 429.5,0.5 C 619.5,0.5 809.5,0.5 999.5,0.5C 999.5,95.5 999.5,190.5 999.5,285.5C 952.167,285.5 904.833,285.5 857.5,285.5C 857.5,237.833 857.5,190.167 857.5,142.5C 762.167,142.5 666.833,142.5 571.5,142.5C 571.5,190.167 571.5,237.833 571.5,285.5C 476.5,285.5 381.5,285.5 286.5,285.5C 286.5,333.167 286.5,380.833 286.5,428.5C 238.833,428.5 191.167,428.5 143.5,428.5C 143.5,333.167 143.5,237.833 143.5,142.5C 191.167,142.5 238.833,142.5 286.5,142.5C 334.167,142.5 381.833,142.5 429.5,142.5C 429.5,95.1667 429.5,47.8333 429.5,0.5 Z"/></g>
<g><path style="opacity:1" fill="#be2f00" d="M 143.5,142.5 C 143.5,237.833 143.5,333.167 143.5,428.5C 95.8333,428.5 48.1667,428.5 0.5,428.5C 0.5,333.167 0.5,237.833 0.5,142.5C 48.1667,142.5 95.8333,142.5 143.5,142.5 Z"/></g>
<g><path style="opacity:1" fill="#fefffe" d="M 857.5,285.5 C 809.833,285.5 762.167,285.5 714.5,285.5C 714.5,333.167 714.5,380.833 714.5,428.5C 762.167,428.5 809.833,428.5 857.5,428.5C 857.5,476.167 857.5,523.833 857.5,571.5C 762.167,571.5 666.833,571.5 571.5,571.5C 571.5,619.167 571.5,666.833 571.5,714.5C 476.5,714.5 381.5,714.5 286.5,714.5C 286.5,666.833 286.5,619.167 286.5,571.5C 334.167,571.5 381.833,571.5 429.5,571.5C 429.5,523.833 429.5,476.167 429.5,428.5C 381.833,428.5 334.167,428.5 286.5,428.5C 286.5,380.833 286.5,333.167 286.5,285.5C 381.5,285.5 476.5,285.5 571.5,285.5C 571.5,237.833 571.5,190.167 571.5,142.5C 666.833,142.5 762.167,142.5 857.5,142.5C 857.5,190.167 857.5,237.833 857.5,285.5 Z"/></g>
<g><path style="opacity:1" fill="#fd3e00" d="M 857.5,285.5 C 857.5,333.167 857.5,380.833 857.5,428.5C 809.833,428.5 762.167,428.5 714.5,428.5C 714.5,380.833 714.5,333.167 714.5,285.5C 762.167,285.5 809.833,285.5 857.5,285.5 Z"/></g>
<g><path style="opacity:1" fill="#be2f00" d="M 143.5,428.5 C 191.167,428.5 238.833,428.5 286.5,428.5C 286.5,476.167 286.5,523.833 286.5,571.5C 238.833,571.5 191.167,571.5 143.5,571.5C 143.5,523.833 143.5,476.167 143.5,428.5 Z"/></g>
<g><path style="opacity:1" fill="#fd3e00" d="M 286.5,428.5 C 334.167,428.5 381.833,428.5 429.5,428.5C 429.5,476.167 429.5,523.833 429.5,571.5C 381.833,571.5 334.167,571.5 286.5,571.5C 286.5,523.833 286.5,476.167 286.5,428.5 Z"/></g>
<g><path style="opacity:1" fill="#fd3e00" d="M 857.5,428.5 C 904.833,428.5 952.167,428.5 999.5,428.5C 999.5,523.833 999.5,619.167 999.5,714.5C 904.5,714.5 809.5,714.5 714.5,714.5C 714.5,761.833 714.5,809.167 714.5,856.5C 524.167,856.5 333.833,856.5 143.5,856.5C 143.5,761.5 143.5,666.5 143.5,571.5C 191.167,571.5 238.833,571.5 286.5,571.5C 286.5,619.167 286.5,666.833 286.5,714.5C 381.5,714.5 476.5,714.5 571.5,714.5C 571.5,666.833 571.5,619.167 571.5,571.5C 666.833,571.5 762.167,571.5 857.5,571.5C 857.5,523.833 857.5,476.167 857.5,428.5 Z"/></g>
<g><path style="opacity:1" fill="#be2f00" d="M 143.5,571.5 C 143.5,666.5 143.5,761.5 143.5,856.5C 95.8333,856.5 48.1667,856.5 0.5,856.5C 0.5,761.5 0.5,666.5 0.5,571.5C 48.1667,571.5 95.8333,571.5 143.5,571.5 Z"/></g>
</svg>
