<?xml version="1.0" encoding="UTF-8"?>
<!DOCTYPE svg PUBLIC "-//W3C//DTD SVG 1.1//EN" "http://www.w3.org/Graphics/SVG/1.1/DTD/svg11.dtd">
<svg xmlns="http://www.w3.org/2000/svg" version="1.1" width="1000px" height="1000px" style="shape-rendering:geometricPrecision; text-rendering:geometricPrecision; image-rendering:optimizeQuality; fill-rule:evenodd; clip-rule:evenodd" xmlns:xlink="http://www.w3.org/1999/xlink">
<g><path style="opacity:1" fill="#93a2a1" d="M 444.5,0.5 C 444.5,74.5 444.5,148.5 444.5,222.5C 426.167,222.5 407.833,222.5 389.5,222.5C 389.5,148.5 389.5,74.5 389.5,0.5C 407.833,0.5 426.167,0.5 444.5,0.5 Z"/></g>
<g><path style="opacity:1" fill="#c3d6d5" d="M 444.5,0.5 C 555.833,0.5 667.167,0.5 778.5,0.5C 778.5,111.5 778.5,222.5 778.5,333.5C 741.5,333.5 704.5,333.5 667.5,333.5C 667.5,296.5 667.5,259.5 667.5,222.5C 667.5,185.5 667.5,148.5 667.5,111.5C 648.833,111.5 630.167,111.5 611.5,111.5C 593.167,111.5 574.833,111.5 556.5,111.5C 556.5,148.5 556.5,185.5 556.5,222.5C 556.5,259.5 556.5,296.5 556.5,333.5C 519.167,333.5 481.833,333.5 444.5,333.5C 444.5,296.5 444.5,259.5 444.5,222.5C 444.5,148.5 444.5,74.5 444.5,0.5 Z M 611.5,111.5 C 611.5,148.5 611.5,185.5 611.5,222.5C"/></g>
<g><path style="opacity:1" fill="#93a2a1" d="M 611.5,111.5 C 630.167,111.5 648.833,111.5 667.5,111.5C 667.5,148.5 667.5,185.5 667.5,222.5C 648.833,222.5 630.167,222.5 611.5,222.5C 611.5,185.5 611.5,148.5 611.5,111.5 Z"/></g>
<g><path style="opacity:1" fill="#9b8252" d="M 333.5,222.5 C 333.5,481.5 333.5,740.5 333.5,999.5C 315.167,999.5 296.833,999.5 278.5,999.5C 278.5,740.5 278.5,481.5 278.5,222.5C 296.833,222.5 315.167,222.5 333.5,222.5 Z"/></g>
<g><path style="opacity:1" fill="#cdac6c" d="M 333.5,222.5 C 352.167,222.5 370.833,222.5 389.5,222.5C 407.833,222.5 426.167,222.5 444.5,222.5C 444.5,259.5 444.5,296.5 444.5,333.5C 426.167,333.5 407.833,333.5 389.5,333.5C 389.5,370.5 389.5,407.5 389.5,444.5C 463.5,444.5 537.5,444.5 611.5,444.5C 611.5,407.5 611.5,370.5 611.5,333.5C 593.167,333.5 574.833,333.5 556.5,333.5C 556.5,296.5 556.5,259.5 556.5,222.5C 574.833,222.5 593.167,222.5 611.5,222.5C 630.167,222.5 648.833,222.5 667.5,222.5C 667.5,259.5 667.5,296.5 667.5,333.5C 667.5,555.5 667.5,777.5 667.5,999.5C 556.167,999.5 444.833,999.5 333.5,999.5C 333.5,740.5 333.5,481.5 333.5,222.5 Z"/></g>
<g><path style="opacity:1" fill="#7b623d" d="M 444.5,333.5 C 481.833,333.5 519.167,333.5 556.5,333.5C 574.833,333.5 593.167,333.5 611.5,333.5C 611.5,370.5 611.5,407.5 611.5,444.5C 537.5,444.5 463.5,444.5 389.5,444.5C 389.5,407.5 389.5,370.5 389.5,333.5C 407.833,333.5 426.167,333.5 444.5,333.5 Z"/></g>
<g><path style="opacity:1" fill="#7b623d" d="M 500.5,556.5 C 537.5,556.5 574.5,556.5 611.5,556.5C 611.5,667.5 611.5,778.5 611.5,889.5C 537.5,889.5 463.5,889.5 389.5,889.5C 389.5,852.5 389.5,815.5 389.5,778.5C 426.5,778.5 463.5,778.5 500.5,778.5C 500.5,704.5 500.5,630.5 500.5,556.5 Z"/></g>
</svg>
