<svg viewBox="0 0 1100 1250" xmlns="http://www.w3.org/2000/svg"><rect x="0" y="250" width="800" height="600" fill="#8a2519" /><rect x="200" y="800" width="600" height="100" fill="#8a2519" /><rect x="50" y="350" width="100" height="400" fill="#7c120d" /><rect x="0" y="500" width="250" height="100" fill="#a4962d" /><rect x="200" y="500" width="600" height="100" fill="#dac83d" /><rect x="450" y="250" width="100" height="600" fill="#dac83d" /><rect x="300" y="350" width="400" height="400" fill="#310604" /><rect x="400" y="200" width="200" height="100" fill="#a4962d" /><rect x="550" y="200" width="100" height="100" fill="#dac83d" /><rect x="750" y="50" width="100" height="250" fill="#94a2a2" /><rect x="800" y="0" width="100" height="300" fill="#c4d6d6" /><rect x="550" y="0" width="100" height="250" fill="#94a2a2" /><rect x="600" y="0" width="300" height="100" fill="#c4d6d6" /><rect x="450" y="200" width="100" height="700" fill="#9c7a53" /><rect x="500" y="200" width="300" height="700" fill="#ceac6d" /><rect x="550" y="700" width="200" height="100" fill="#7c623e" /><rect x="650" y="500" width="100" height="250" fill="#7c623e" /><rect x="550" y="300" width="200" height="100" fill="#7c623e" /><rect x="600" y="0" width="100" height="300" fill="#c4d6d6" /><rect x="200" y="850" width="350" height="350" fill="#8a2519" /><rect x="500" y="850" width="600" height="350" fill="#b63021" /><rect x="250" y="950" width="200" height="250" fill="#7c120d" /><rect x="600" y="950" width="400" height="250" fill="#a41711" /><rect x="200" y="1150" width="350" height="100" fill="#3a0300" /><rect x="500" y="1150" width="600" height="100" fill="#4c0300" /></svg>