<?xml version="1.0" encoding="UTF-8"?>
<!DOCTYPE svg PUBLIC "-//W3C//DTD SVG 1.1//EN" "http://www.w3.org/Graphics/SVG/1.1/DTD/svg11.dtd">
<svg xmlns="http://www.w3.org/2000/svg" version="1.1" width="880px" height="1000px" style="shape-rendering:geometricPrecision; text-rendering:geometricPrecision; image-rendering:optimizeQuality; fill-rule:evenodd; clip-rule:evenodd" xmlns:xlink="http://www.w3.org/1999/xlink">
<g><path style="opacity:1" fill="#93a2a1" d="M 439.5,-0.5 C 452.833,-0.5 466.167,-0.5 479.5,-0.5C 479.5,52.8333 479.5,106.167 479.5,159.5C 466.167,159.5 452.833,159.5 439.5,159.5C 439.5,106.167 439.5,52.8333 439.5,-0.5 Z"/></g>
<g><path style="opacity:1" fill="#c3d6d5" d="M 479.5,-0.5 C 559.5,-0.5 639.5,-0.5 719.5,-0.5C 719.5,79.5 719.5,159.5 719.5,239.5C 692.833,239.5 666.167,239.5 639.5,239.5C 639.5,212.833 639.5,186.167 639.5,159.5C 639.5,132.833 639.5,106.167 639.5,79.5C 626.167,79.5 612.833,79.5 599.5,79.5C 586.167,79.5 572.833,79.5 559.5,79.5C 559.5,106.167 559.5,132.833 559.5,159.5C 559.5,186.167 559.5,212.833 559.5,239.5C 532.833,239.5 506.167,239.5 479.5,239.5C 479.5,212.833 479.5,186.167 479.5,159.5C 479.5,106.167 479.5,52.8333 479.5,-0.5 Z M 599.5,79.5 C 599.5,106.167 599.5,132.833 599.5,159.5C 586.167,159.5 572.833,159.5 559.5,159.5C 559.5,132.833 559.5,106.167 559.5,79.5C 572.833,79.5 586.167,79.5 599.5,79.5 Z"/></g>
<g><path style="opacity:1" fill="#93a2a1" d="M 599.5,79.5 C 612.833,79.5 626.167,79.5 639.5,79.5C 639.5,106.167 639.5,132.833 639.5,159.5C 626.167,159.5 612.833,159.5 599.5,159.5C 599.5,132.833 599.5,106.167 599.5,79.5 Z"/></g>
<g><path style="opacity:1" fill="#a3962c" d="M 359.5,159.5 C 359.5,186.167 359.5,212.833 359.5,239.5C 346.167,239.5 332.833,239.5 319.5,239.5C 319.5,226.167 319.5,212.833 319.5,199.5C 319.5,186.167 319.5,172.833 319.5,159.5C 332.833,159.5 346.167,159.5 359.5,159.5 Z"/></g>
<g><path style="opacity:1" fill="#9b8252" d="M 359.5,159.5 C 372.833,159.5 386.167,159.5 399.5,159.5C 399.5,332.833 399.5,506.167 399.5,679.5C 386.167,679.5 372.833,679.5 359.5,679.5C 359.5,652.833 359.5,626.167 359.5,599.5C 359.5,492.833 359.5,386.167 359.5,279.5C 359.5,266.167 359.5,252.833 359.5,239.5C 359.5,212.833 359.5,186.167 359.5,159.5 Z"/></g>
<g><path style="opacity:1" fill="#cdac6c" d="M 399.5,159.5 C 412.833,159.5 426.167,159.5 439.5,159.5C 452.833,159.5 466.167,159.5 479.5,159.5C 479.5,186.167 479.5,212.833 479.5,239.5C 466.167,239.5 452.833,239.5 439.5,239.5C 439.5,266.167 439.5,292.833 439.5,319.5C 492.833,319.5 546.167,319.5 599.5,319.5C 599.5,292.833 599.5,266.167 599.5,239.5C 586.167,239.5 572.833,239.5 559.5,239.5C 559.5,212.833 559.5,186.167 559.5,159.5C 572.833,159.5 586.167,159.5 599.5,159.5C 612.833,159.5 626.167,159.5 639.5,159.5C 639.5,186.167 639.5,212.833 639.5,239.5C 639.5,386.167 639.5,532.833 639.5,679.5C 559.5,679.5 479.5,679.5 399.5,679.5C 399.5,506.167 399.5,332.833 399.5,159.5 Z"/></g>
<g><path style="opacity:1" fill="#892518" d="M -0.5,199.5 C 106.167,199.5 212.833,199.5 319.5,199.5C 319.5,212.833 319.5,226.167 319.5,239.5C 332.833,239.5 346.167,239.5 359.5,239.5C 359.5,252.833 359.5,266.167 359.5,279.5C 319.5,279.5 279.5,279.5 239.5,279.5C 239.5,319.5 239.5,359.5 239.5,399.5C 212.833,399.5 186.167,399.5 159.5,399.5C 146.167,399.5 132.833,399.5 119.5,399.5C 119.5,359.5 119.5,319.5 119.5,279.5C 92.8333,279.5 66.1667,279.5 39.5,279.5C 39.5,319.5 39.5,359.5 39.5,399.5C 26.1667,399.5 12.8333,399.5 -0.5,399.5C -0.5,332.833 -0.5,266.167 -0.5,199.5 Z"/></g>
<g><path style="opacity:1" fill="#7b623d" d="M 479.5,239.5 C 506.167,239.5 532.833,239.5 559.5,239.5C 572.833,239.5 586.167,239.5 599.5,239.5C 599.5,266.167 599.5,292.833 599.5,319.5C 546.167,319.5 492.833,319.5 439.5,319.5C 439.5,292.833 439.5,266.167 439.5,239.5C 452.833,239.5 466.167,239.5 479.5,239.5 Z"/></g>
<g><path style="opacity:1" fill="#7b120c" d="M 119.5,399.5 C 92.8333,399.5 66.1667,399.5 39.5,399.5C 39.5,359.5 39.5,319.5 39.5,279.5C 66.1667,279.5 92.8333,279.5 119.5,279.5C 119.5,319.5 119.5,359.5 119.5,399.5 Z"/></g>
<g><path style="opacity:1" fill="#300603" d="M 359.5,279.5 C 359.5,386.167 359.5,492.833 359.5,599.5C 319.5,599.5 279.5,599.5 239.5,599.5C 239.5,559.5 239.5,519.5 239.5,479.5C 239.5,452.833 239.5,426.167 239.5,399.5C 239.5,359.5 239.5,319.5 239.5,279.5C 279.5,279.5 319.5,279.5 359.5,279.5 Z"/></g>
<g><path style="opacity:1" fill="#a3962c" d="M -0.5,399.5 C 12.8333,399.5 26.1667,399.5 39.5,399.5C 66.1667,399.5 92.8333,399.5 119.5,399.5C 132.833,399.5 146.167,399.5 159.5,399.5C 159.5,426.167 159.5,452.833 159.5,479.5C 146.167,479.5 132.833,479.5 119.5,479.5C 92.8333,479.5 66.1667,479.5 39.5,479.5C 26.1667,479.5 12.8333,479.5 -0.5,479.5C -0.5,452.833 -0.5,426.167 -0.5,399.5 Z"/></g>
<g><path style="opacity:1" fill="#d9c83c" d="M 159.5,399.5 C 186.167,399.5 212.833,399.5 239.5,399.5C 239.5,426.167 239.5,452.833 239.5,479.5C 212.833,479.5 186.167,479.5 159.5,479.5C 159.5,452.833 159.5,426.167 159.5,399.5 Z"/></g>
<g><path style="opacity:1" fill="#7b623d" d="M 519.5,399.5 C 546.167,399.5 572.833,399.5 599.5,399.5C 599.5,479.5 599.5,559.5 599.5,639.5C 546.167,639.5 492.833,639.5 439.5,639.5C 439.5,612.833 439.5,586.167 439.5,559.5C 466.167,559.5 492.833,559.5 519.5,559.5C 519.5,506.167 519.5,452.833 519.5,399.5 Z"/></g>
<g><path style="opacity:1" fill="#892518" d="M -0.5,479.5 C 12.8333,479.5 26.1667,479.5 39.5,479.5C 39.5,519.5 39.5,559.5 39.5,599.5C 66.1667,599.5 92.8333,599.5 119.5,599.5C 119.5,559.5 119.5,519.5 119.5,479.5C 132.833,479.5 146.167,479.5 159.5,479.5C 186.167,479.5 212.833,479.5 239.5,479.5C 239.5,519.5 239.5,559.5 239.5,599.5C 279.5,599.5 319.5,599.5 359.5,599.5C 359.5,626.167 359.5,652.833 359.5,679.5C 372.833,679.5 386.167,679.5 399.5,679.5C 399.5,759.5 399.5,839.5 399.5,919.5C 386.167,919.5 372.833,919.5 359.5,919.5C 359.5,866.167 359.5,812.833 359.5,759.5C 306.167,759.5 252.833,759.5 199.5,759.5C 199.5,812.833 199.5,866.167 199.5,919.5C 186.167,919.5 172.833,919.5 159.5,919.5C 159.5,839.5 159.5,759.5 159.5,679.5C 106.167,679.5 52.8333,679.5 -0.5,679.5C -0.5,612.833 -0.5,546.167 -0.5,479.5 Z"/></g>
<g><path style="opacity:1" fill="#7b120c" d="M 39.5,479.5 C 66.1667,479.5 92.8333,479.5 119.5,479.5C 119.5,519.5 119.5,559.5 119.5,599.5C 92.8333,599.5 66.1667,599.5 39.5,599.5C 39.5,559.5 39.5,519.5 39.5,479.5 Z"/></g>
<g><path style="opacity:1" fill="#b53020" d="M 399.5,679.5 C 479.5,679.5 559.5,679.5 639.5,679.5C 719.5,679.5 799.5,679.5 879.5,679.5C 879.5,759.5 879.5,839.5 879.5,919.5C 852.833,919.5 826.167,919.5 799.5,919.5C 799.5,866.167 799.5,812.833 799.5,759.5C 692.833,759.5 586.167,759.5 479.5,759.5C 479.5,812.833 479.5,866.167 479.5,919.5C 452.833,919.5 426.167,919.5 399.5,919.5C 399.5,839.5 399.5,759.5 399.5,679.5 Z"/></g>
<g><path style="opacity:1" fill="#7b120c" d="M 359.5,919.5 C 306.167,919.5 252.833,919.5 199.5,919.5C 199.5,866.167 199.5,812.833 199.5,759.5C 252.833,759.5 306.167,759.5 359.5,759.5C 359.5,812.833 359.5,866.167 359.5,919.5 Z"/></g>
<g><path style="opacity:1" fill="#a31710" d="M 799.5,919.5 C 692.833,919.5 586.167,919.5 479.5,919.5C 479.5,866.167 479.5,812.833 479.5,759.5C 586.167,759.5 692.833,759.5 799.5,759.5C 799.5,812.833 799.5,866.167 799.5,919.5 Z"/></g>
<g><path style="opacity:1" fill="#390300" d="M 159.5,919.5 C 172.833,919.5 186.167,919.5 199.5,919.5C 252.833,919.5 306.167,919.5 359.5,919.5C 372.833,919.5 386.167,919.5 399.5,919.5C 399.5,946.167 399.5,972.833 399.5,999.5C 319.5,999.5 239.5,999.5 159.5,999.5C 159.5,972.833 159.5,946.167 159.5,919.5 Z"/></g>
<g><path style="opacity:1" fill="#4b0300" d="M 399.5,919.5 C 426.167,919.5 452.833,919.5 479.5,919.5C 586.167,919.5 692.833,919.5 799.5,919.5C 826.167,919.5 852.833,919.5 879.5,919.5C 879.5,946.167 879.5,972.833 879.5,999.5C 719.5,999.5 559.5,999.5 399.5,999.5C 399.5,972.833 399.5,946.167 399.5,919.5 Z"/></g>
</svg>
