<?xml version="1.0" encoding="UTF-8"?>
<!DOCTYPE svg PUBLIC "-//W3C//DTD SVG 1.1//EN" "http://www.w3.org/Graphics/SVG/1.1/DTD/svg11.dtd">
<svg xmlns="http://www.w3.org/2000/svg" version="1.1" width="1000px" height="846px" style="shape-rendering:geometricPrecision; text-rendering:geometricPrecision; image-rendering:optimizeQuality; fill-rule:evenodd; clip-rule:evenodd" xmlns:xlink="http://www.w3.org/1999/xlink">
<g><path style="opacity:1" fill="#887e4d" d="M 77.5,-0.5 C 103.167,-0.5 128.833,-0.5 154.5,-0.5C 154.5,25.1667 154.5,50.8333 154.5,76.5C 128.833,76.5 103.167,76.5 77.5,76.5C 77.5,50.8333 77.5,25.1667 77.5,-0.5 Z"/></g>
<g><path style="opacity:1" fill="#d1d2b1" d="M 154.5,-0.5 C 359.833,-0.5 565.167,-0.5 770.5,-0.5C 770.5,25.1667 770.5,50.8333 770.5,76.5C 590.833,76.5 411.167,76.5 231.5,76.5C 205.833,76.5 180.167,76.5 154.5,76.5C 154.5,50.8333 154.5,25.1667 154.5,-0.5 Z"/></g>
<g><path style="opacity:1" fill="#887e4d" d="M -0.5,76.5 C 25.5,76.5 51.5,76.5 77.5,76.5C 77.5,127.833 77.5,179.167 77.5,230.5C 51.5,230.5 25.5,230.5 -0.5,230.5C -0.5,179.167 -0.5,127.833 -0.5,76.5 Z"/></g>
<g><path style="opacity:1" fill="#73693a" d="M 77.5,76.5 C 103.167,76.5 128.833,76.5 154.5,76.5C 154.5,127.833 154.5,179.167 154.5,230.5C 128.833,230.5 103.167,230.5 77.5,230.5C 77.5,179.167 77.5,127.833 77.5,76.5 Z"/></g>
<g><path style="opacity:1" fill="#887e4d" d="M 154.5,76.5 C 180.167,76.5 205.833,76.5 231.5,76.5C 231.5,307.5 231.5,538.5 231.5,769.5C 205.833,769.5 180.167,769.5 154.5,769.5C 154.5,589.833 154.5,410.167 154.5,230.5C 154.5,179.167 154.5,127.833 154.5,76.5 Z"/></g>
<g><path style="opacity:1" fill="#bdbe9d" d="M 231.5,76.5 C 411.167,76.5 590.833,76.5 770.5,76.5C 796.167,76.5 821.833,76.5 847.5,76.5C 847.5,281.833 847.5,487.167 847.5,692.5C 693.5,692.5 539.5,692.5 385.5,692.5C 359.833,692.5 334.167,692.5 308.5,692.5C 308.5,718.167 308.5,743.833 308.5,769.5C 282.833,769.5 257.167,769.5 231.5,769.5C 231.5,538.5 231.5,307.5 231.5,76.5 Z"/></g>
<g><path style="opacity:1" fill="#7c66c9" d="M 462.5,153.5 C 462.5,179.167 462.5,204.833 462.5,230.5C 436.833,230.5 411.167,230.5 385.5,230.5C 385.5,256.167 385.5,281.833 385.5,307.5C 359.833,307.5 334.167,307.5 308.5,307.5C 308.5,256.167 308.5,204.833 308.5,153.5C 359.833,153.5 411.167,153.5 462.5,153.5 Z"/></g>
<g><path style="opacity:1" fill="#6a4fc7" d="M 462.5,153.5 C 513.833,153.5 565.167,153.5 616.5,153.5C 616.5,179.167 616.5,204.833 616.5,230.5C 565.167,230.5 513.833,230.5 462.5,230.5C 462.5,204.833 462.5,179.167 462.5,153.5 Z"/></g>
<g><path style="opacity:1" fill="#7c66c9" d="M 616.5,153.5 C 667.833,153.5 719.167,153.5 770.5,153.5C 770.5,204.833 770.5,256.167 770.5,307.5C 744.833,307.5 719.167,307.5 693.5,307.5C 693.5,281.833 693.5,256.167 693.5,230.5C 667.833,230.5 642.167,230.5 616.5,230.5C 616.5,204.833 616.5,179.167 616.5,153.5 Z"/></g>
<g><path style="opacity:1" fill="#d4d2dc" d="M 462.5,230.5 C 513.833,230.5 565.167,230.5 616.5,230.5C 642.167,230.5 667.833,230.5 693.5,230.5C 693.5,256.167 693.5,281.833 693.5,307.5C 667.833,307.5 642.167,307.5 616.5,307.5C 590.833,307.5 565.167,307.5 539.5,307.5C 513.833,307.5 488.167,307.5 462.5,307.5C 462.5,333.167 462.5,358.833 462.5,384.5C 462.5,410.167 462.5,435.833 462.5,461.5C 462.5,487.167 462.5,512.833 462.5,538.5C 436.833,538.5 411.167,538.5 385.5,538.5C 385.5,512.833 385.5,487.167 385.5,461.5C 385.5,410.167 385.5,358.833 385.5,307.5C 385.5,281.833 385.5,256.167 385.5,230.5C 411.167,230.5 436.833,230.5 462.5,230.5 Z"/></g>
<g><path style="opacity:1" fill="#6a4fc7" d="M 308.5,307.5 C 334.167,307.5 359.833,307.5 385.5,307.5C 385.5,358.833 385.5,410.167 385.5,461.5C 359.833,461.5 334.167,461.5 308.5,461.5C 308.5,410.167 308.5,358.833 308.5,307.5 Z"/></g>
<g><path style="opacity:1" fill="#b2b0b8" d="M 539.5,307.5 C 539.5,333.167 539.5,358.833 539.5,384.5C 513.833,384.5 488.167,384.5 462.5,384.5C 462.5,358.833 462.5,333.167 462.5,307.5C 488.167,307.5 513.833,307.5 539.5,307.5 Z"/></g>
<g><path style="opacity:1" fill="#812522" d="M 539.5,307.5 C 565.167,307.5 590.833,307.5 616.5,307.5C 616.5,333.167 616.5,358.833 616.5,384.5C 590.833,384.5 565.167,384.5 539.5,384.5C 539.5,358.833 539.5,333.167 539.5,307.5 Z"/></g>
<g><path style="opacity:1" fill="#76747f" d="M 616.5,307.5 C 642.167,307.5 667.833,307.5 693.5,307.5C 693.5,358.833 693.5,410.167 693.5,461.5C 693.5,487.167 693.5,512.833 693.5,538.5C 667.833,538.5 642.167,538.5 616.5,538.5C 565.167,538.5 513.833,538.5 462.5,538.5C 462.5,512.833 462.5,487.167 462.5,461.5C 488.167,461.5 513.833,461.5 539.5,461.5C 565.167,461.5 590.833,461.5 616.5,461.5C 616.5,435.833 616.5,410.167 616.5,384.5C 616.5,358.833 616.5,333.167 616.5,307.5 Z"/></g>
<g><path style="opacity:1" fill="#6a4fc7" d="M 693.5,307.5 C 719.167,307.5 744.833,307.5 770.5,307.5C 770.5,358.833 770.5,410.167 770.5,461.5C 744.833,461.5 719.167,461.5 693.5,461.5C 693.5,410.167 693.5,358.833 693.5,307.5 Z"/></g>
<g><path style="opacity:1" fill="#5c902c" d="M 462.5,384.5 C 488.167,384.5 513.833,384.5 539.5,384.5C 539.5,410.167 539.5,435.833 539.5,461.5C 513.833,461.5 488.167,461.5 462.5,461.5C 462.5,435.833 462.5,410.167 462.5,384.5 Z"/></g>
<g><path style="opacity:1" fill="#b2b0b8" d="M 539.5,384.5 C 565.167,384.5 590.833,384.5 616.5,384.5C 616.5,410.167 616.5,435.833 616.5,461.5C 590.833,461.5 565.167,461.5 539.5,461.5C 539.5,435.833 539.5,410.167 539.5,384.5 Z"/></g>
<g><path style="opacity:1" fill="#7c66c9" d="M 308.5,461.5 C 334.167,461.5 359.833,461.5 385.5,461.5C 385.5,487.167 385.5,512.833 385.5,538.5C 411.167,538.5 436.833,538.5 462.5,538.5C 462.5,564.167 462.5,589.833 462.5,615.5C 411.167,615.5 359.833,615.5 308.5,615.5C 308.5,564.167 308.5,512.833 308.5,461.5 Z"/></g>
<g><path style="opacity:1" fill="#7c66c9" d="M 693.5,461.5 C 719.167,461.5 744.833,461.5 770.5,461.5C 770.5,512.833 770.5,564.167 770.5,615.5C 719.167,615.5 667.833,615.5 616.5,615.5C 616.5,589.833 616.5,564.167 616.5,538.5C 642.167,538.5 667.833,538.5 693.5,538.5C 693.5,512.833 693.5,487.167 693.5,461.5 Z"/></g>
<g><path style="opacity:1" fill="#6a4fc7" d="M 462.5,538.5 C 513.833,538.5 565.167,538.5 616.5,538.5C 616.5,564.167 616.5,589.833 616.5,615.5C 565.167,615.5 513.833,615.5 462.5,615.5C 462.5,589.833 462.5,564.167 462.5,538.5 Z"/></g>
<g><path style="opacity:1" fill="#887e4d" d="M 385.5,692.5 C 385.5,718.167 385.5,743.833 385.5,769.5C 359.833,769.5 334.167,769.5 308.5,769.5C 308.5,743.833 308.5,718.167 308.5,692.5C 334.167,692.5 359.833,692.5 385.5,692.5 Z"/></g>
<g><path style="opacity:1" fill="#d1d2b1" d="M 385.5,692.5 C 539.5,692.5 693.5,692.5 847.5,692.5C 898.167,692.5 948.833,692.5 999.5,692.5C 999.5,718.167 999.5,743.833 999.5,769.5C 974.5,769.5 949.5,769.5 924.5,769.5C 744.833,769.5 565.167,769.5 385.5,769.5C 385.5,743.833 385.5,718.167 385.5,692.5 Z"/></g>
<g><path style="opacity:1" fill="#887e4d" d="M 231.5,769.5 C 257.167,769.5 282.833,769.5 308.5,769.5C 308.5,794.833 308.5,820.167 308.5,845.5C 282.833,845.5 257.167,845.5 231.5,845.5C 231.5,820.167 231.5,794.833 231.5,769.5 Z"/></g>
<g><path style="opacity:1" fill="#bdbe9d" d="M 308.5,769.5 C 334.167,769.5 359.833,769.5 385.5,769.5C 565.167,769.5 744.833,769.5 924.5,769.5C 924.5,794.833 924.5,820.167 924.5,845.5C 719.167,845.5 513.833,845.5 308.5,845.5C 308.5,820.167 308.5,794.833 308.5,769.5 Z"/></g>
</svg>
