<?xml version="1.0" encoding="UTF-8"?>
<!DOCTYPE svg PUBLIC "-//W3C//DTD SVG 1.1//EN" "http://www.w3.org/Graphics/SVG/1.1/DTD/svg11.dtd">
<svg xmlns="http://www.w3.org/2000/svg" version="1.1" width="1000px" height="857px" style="shape-rendering:geometricPrecision; text-rendering:geometricPrecision; image-rendering:optimizeQuality; fill-rule:evenodd; clip-rule:evenodd" xmlns:xlink="http://www.w3.org/1999/xlink">
<g><path style="opacity:1" fill="#b6842e" d="M -0.5,-0.5 C 47.1667,-0.5 94.8333,-0.5 142.5,-0.5C 142.5,285.167 142.5,570.833 142.5,856.5C 94.8333,856.5 47.1667,856.5 -0.5,856.5C -0.5,570.833 -0.5,285.167 -0.5,-0.5 Z"/></g>
<g><path style="opacity:1" fill="#f9d649" d="M 142.5,-0.5 C 428.167,-0.5 713.833,-0.5 999.5,-0.5C 999.5,285.167 999.5,570.833 999.5,856.5C 713.833,856.5 428.167,856.5 142.5,856.5C 142.5,570.833 142.5,285.167 142.5,-0.5 Z"/></g>
<g><path style="opacity:1" fill="#4968d8" d="M 570.5,142.5 C 570.5,237.833 570.5,333.167 570.5,428.5C 523.167,428.5 475.833,428.5 428.5,428.5C 428.5,380.833 428.5,333.167 428.5,285.5C 380.833,285.5 333.167,285.5 285.5,285.5C 285.5,237.833 285.5,190.167 285.5,142.5C 380.5,142.5 475.5,142.5 570.5,142.5 Z"/></g>
<g><path style="opacity:1" fill="#171615" d="M 570.5,142.5 C 665.833,142.5 761.167,142.5 856.5,142.5C 856.5,285.167 856.5,427.833 856.5,570.5C 808.833,570.5 761.167,570.5 713.5,570.5C 713.5,523.167 713.5,475.833 713.5,428.5C 665.833,428.5 618.167,428.5 570.5,428.5C 570.5,333.167 570.5,237.833 570.5,142.5 Z"/></g>
<g><path style="opacity:1" fill="#feff00" d="M 285.5,285.5 C 333.167,285.5 380.833,285.5 428.5,285.5C 428.5,333.167 428.5,380.833 428.5,428.5C 404.5,428.5 380.5,428.5 356.5,428.5C 332.833,428.5 309.167,428.5 285.5,428.5C 285.5,380.833 285.5,333.167 285.5,285.5 Z"/></g>
<g><path style="opacity:1" fill="#4968d8" d="M 285.5,428.5 C 309.167,428.5 332.833,428.5 356.5,428.5C 356.5,475.833 356.5,523.167 356.5,570.5C 332.833,570.5 309.167,570.5 285.5,570.5C 285.5,523.167 285.5,475.833 285.5,428.5 Z"/></g>
<g><path style="opacity:1" fill="#b6842e" d="M 356.5,428.5 C 380.5,428.5 404.5,428.5 428.5,428.5C 428.5,475.833 428.5,523.167 428.5,570.5C 404.5,570.5 380.5,570.5 356.5,570.5C 356.5,523.167 356.5,475.833 356.5,428.5 Z"/></g>
</svg>
