<?xml version="1.0" encoding="UTF-8"?>
<!DOCTYPE svg PUBLIC "-//W3C//DTD SVG 1.1//EN" "http://www.w3.org/Graphics/SVG/1.1/DTD/svg11.dtd">
<svg xmlns="http://www.w3.org/2000/svg" version="1.1" width="1000px" height="846px" style="shape-rendering:geometricPrecision; text-rendering:geometricPrecision; image-rendering:optimizeQuality; fill-rule:evenodd; clip-rule:evenodd" xmlns:xlink="http://www.w3.org/1999/xlink">
<g><path style="opacity:1" fill="#887e4d" d="M 76.5,-0.5 C 102.167,-0.5 127.833,-0.5 153.5,-0.5C 153.5,25.1667 153.5,50.8333 153.5,76.5C 127.833,76.5 102.167,76.5 76.5,76.5C 76.5,50.8333 76.5,25.1667 76.5,-0.5 Z"/></g>
<g><path style="opacity:1" fill="#d1d2b1" d="M 153.5,-0.5 C 358.5,-0.5 563.5,-0.5 768.5,-0.5C 768.5,25.1667 768.5,50.8333 768.5,76.5C 589.167,76.5 409.833,76.5 230.5,76.5C 204.833,76.5 179.167,76.5 153.5,76.5C 153.5,50.8333 153.5,25.1667 153.5,-0.5 Z"/></g>
<g><path style="opacity:1" fill="#887e4d" d="M -0.5,76.5 C 25.1667,76.5 50.8333,76.5 76.5,76.5C 76.5,127.833 76.5,179.167 76.5,230.5C 50.8333,230.5 25.1667,230.5 -0.5,230.5C -0.5,179.167 -0.5,127.833 -0.5,76.5 Z"/></g>
<g><path style="opacity:1" fill="#73693a" d="M 76.5,76.5 C 102.167,76.5 127.833,76.5 153.5,76.5C 153.5,127.833 153.5,179.167 153.5,230.5C 127.833,230.5 102.167,230.5 76.5,230.5C 76.5,179.167 76.5,127.833 76.5,76.5 Z"/></g>
<g><path style="opacity:1" fill="#887e4d" d="M 153.5,76.5 C 179.167,76.5 204.833,76.5 230.5,76.5C 230.5,307.167 230.5,537.833 230.5,768.5C 204.833,768.5 179.167,768.5 153.5,768.5C 153.5,589.167 153.5,409.833 153.5,230.5C 153.5,179.167 153.5,127.833 153.5,76.5 Z"/></g>
<g><path style="opacity:1" fill="#bdbe9d" d="M 230.5,76.5 C 409.833,76.5 589.167,76.5 768.5,76.5C 794.167,76.5 819.833,76.5 845.5,76.5C 845.5,281.5 845.5,486.5 845.5,691.5C 691.833,691.5 538.167,691.5 384.5,691.5C 358.833,691.5 333.167,691.5 307.5,691.5C 307.5,717.167 307.5,742.833 307.5,768.5C 281.833,768.5 256.167,768.5 230.5,768.5C 230.5,537.833 230.5,307.167 230.5,76.5 Z"/></g>
<g><path style="opacity:1" fill="#1c5513" d="M 691.5,230.5 C 717.167,230.5 742.833,230.5 768.5,230.5C 768.5,281.833 768.5,333.167 768.5,384.5C 742.833,384.5 717.167,384.5 691.5,384.5C 691.5,409.833 691.5,435.167 691.5,460.5C 665.833,460.5 640.167,460.5 614.5,460.5C 614.5,486.167 614.5,511.833 614.5,537.5C 588.833,537.5 563.167,537.5 537.5,537.5C 537.5,563.167 537.5,588.833 537.5,614.5C 512.167,614.5 486.833,614.5 461.5,614.5C 461.5,588.833 461.5,563.167 461.5,537.5C 435.833,537.5 410.167,537.5 384.5,537.5C 384.5,511.833 384.5,486.167 384.5,460.5C 358.833,460.5 333.167,460.5 307.5,460.5C 307.5,409.5 307.5,358.5 307.5,307.5C 333.167,307.5 358.833,307.5 384.5,307.5C 384.5,333.167 384.5,358.833 384.5,384.5C 410.167,384.5 435.833,384.5 461.5,384.5C 461.5,409.833 461.5,435.167 461.5,460.5C 486.833,460.5 512.167,460.5 537.5,460.5C 537.5,435.167 537.5,409.833 537.5,384.5C 563.167,384.5 588.833,384.5 614.5,384.5C 614.5,358.833 614.5,333.167 614.5,307.5C 640.167,307.5 665.833,307.5 691.5,307.5C 691.5,281.833 691.5,256.167 691.5,230.5 Z"/></g>
<g><path style="opacity:1" fill="#887e4d" d="M 384.5,691.5 C 384.5,717.167 384.5,742.833 384.5,768.5C 358.833,768.5 333.167,768.5 307.5,768.5C 307.5,742.833 307.5,717.167 307.5,691.5C 333.167,691.5 358.833,691.5 384.5,691.5 Z"/></g>
<g><path style="opacity:1" fill="#d1d2b1" d="M 384.5,691.5 C 538.167,691.5 691.833,691.5 845.5,691.5C 896.833,691.5 948.167,691.5 999.5,691.5C 999.5,717.167 999.5,742.833 999.5,768.5C 973.833,768.5 948.167,768.5 922.5,768.5C 743.167,768.5 563.833,768.5 384.5,768.5C 384.5,742.833 384.5,717.167 384.5,691.5 Z"/></g>
<g><path style="opacity:1" fill="#887e4d" d="M 230.5,768.5 C 256.167,768.5 281.833,768.5 307.5,768.5C 307.5,794.167 307.5,819.833 307.5,845.5C 281.833,845.5 256.167,845.5 230.5,845.5C 230.5,819.833 230.5,794.167 230.5,768.5 Z"/></g>
<g><path style="opacity:1" fill="#bdbe9d" d="M 307.5,768.5 C 333.167,768.5 358.833,768.5 384.5,768.5C 563.833,768.5 743.167,768.5 922.5,768.5C 922.5,794.167 922.5,819.833 922.5,845.5C 717.5,845.5 512.5,845.5 307.5,845.5C 307.5,819.833 307.5,794.167 307.5,768.5 Z"/></g>
</svg>
