<svg viewBox="0 0 650 550" xmlns="http://www.w3.org/2000/svg"><rect x="100" y="0" width="400" height="100" fill="#d2d2b2" /><rect x="100" y="50" width="100" height="450" fill="#897e4e" /><rect x="0" y="50" width="150" height="100" fill="#897e4e" /><rect x="50" y="0" width="50" height="100" fill="#897e4e" /><rect x="50" y="50" width="50" height="100" fill="#74693b" /><rect x="150" y="450" width="100" height="100" fill="#897e4e" /><rect x="200" y="450" width="400" height="100" fill="#bebe9e" /><rect x="150" y="50" width="400" height="450" fill="#bebe9e" /><rect x="200" y="450" width="100" height="50" fill="#897e4e" /><rect x="250" y="450" width="400" height="50" fill="#d2d2b2" /><rect x="200" y="150" width="300" height="250" fill="#1c5514" /><rect x="150" y="300" width="100" height="100" fill="#bebe9e" /><rect x="200" y="350" width="100" height="100" fill="#bebe9e" /><rect x="350" y="350" width="200" height="100" fill="#bebe9e" /><rect x="400" y="300" width="150" height="100" fill="#bebe9e" /><rect x="450" y="250" width="100" height="100" fill="#bebe9e" /><rect x="150" y="100" width="300" height="100" fill="#bebe9e" /><rect x="250" y="150" width="150" height="100" fill="#bebe9e" /><rect x="300" y="200" width="50" height="100" fill="#bebe9e" /></svg>