<svg viewBox="0 0 1100 1200" xmlns="http://www.w3.org/2000/svg"><rect x="200" y="200" width="600" height="650" fill="#1d1a14" /><rect x="300" y="300" width="400" height="400" fill="#693f05" /><rect x="0" y="200" width="250" height="600" fill="#1d1a14" /><rect x="50" y="300" width="100" height="400" fill="#865107" /><rect x="400" y="150" width="200" height="100" fill="#767676" /><rect x="550" y="150" width="100" height="100" fill="#a5a5a5" /><rect x="200" y="0" width="350" height="900" fill="#9b5b3a" /><rect x="500" y="0" width="600" height="900" fill="#b37b62" /><rect x="500" y="450" width="600" height="150" fill="#ffffff" /><rect x="600" y="450" width="400" height="150" fill="#009611" /><rect x="700" y="450" width="200" height="150" fill="#b37b62" /><rect x="500" y="400" width="600" height="100" fill="#482818" /><rect x="600" y="700" width="150" height="100" fill="#934320" /><rect x="200" y="800" width="350" height="400" fill="#1d1a14" /><rect x="250" y="900" width="200" height="200" fill="#865107" /><rect x="500" y="800" width="600" height="400" fill="#453c2f" /><rect x="600" y="900" width="400" height="200" fill="#a76e1f" /><rect x="700" y="600" width="150" height="400" fill="#753d1f" /><rect x="800" y="600" width="200" height="400" fill="#895133" /></svg>