<svg viewBox="0 0 1100 1200" xmlns="http://www.w3.org/2000/svg"><rect x="0" y="200" width="800" height="600" fill="#8a2519" /><rect x="200" y="750" width="600" height="100" fill="#8a2519" /><rect x="50" y="300" width="100" height="400" fill="#7c120d" /><rect x="0" y="450" width="250" height="100" fill="#a4962d" /><rect x="200" y="450" width="600" height="100" fill="#dac83d" /><rect x="450" y="200" width="100" height="600" fill="#dac83d" /><rect x="300" y="300" width="400" height="400" fill="#310604" /><rect x="400" y="150" width="200" height="100" fill="#a4962d" /><rect x="550" y="150" width="100" height="100" fill="#dac83d" /><rect x="200" y="0" width="350" height="900" fill="#9b5b3a" /><rect x="500" y="0" width="600" height="900" fill="#b37b62" /><rect x="500" y="450" width="600" height="150" fill="#ffffff" /><rect x="600" y="450" width="400" height="150" fill="#009611" /><rect x="700" y="450" width="200" height="150" fill="#b37b62" /><rect x="500" y="400" width="600" height="100" fill="#482818" /><rect x="600" y="700" width="150" height="100" fill="#934320" /><rect x="200" y="800" width="350" height="350" fill="#8a2519" /><rect x="500" y="800" width="600" height="350" fill="#b63021" /><rect x="250" y="900" width="200" height="250" fill="#7c120d" /><rect x="600" y="900" width="400" height="250" fill="#a41711" /><rect x="200" y="1100" width="350" height="100" fill="#3a0300" /><rect x="500" y="1100" width="600" height="100" fill="#4c0300" /><rect x="700" y="600" width="150" height="400" fill="#753d1f" /><rect x="800" y="600" width="200" height="400" fill="#895133" /></svg>