<?xml version="1.0" encoding="UTF-8"?>
<!DOCTYPE svg PUBLIC "-//W3C//DTD SVG 1.1//EN" "http://www.w3.org/Graphics/SVG/1.1/DTD/svg11.dtd">
<svg xmlns="http://www.w3.org/2000/svg" version="1.1" width="900px" height="1000px" style="shape-rendering:geometricPrecision; text-rendering:geometricPrecision; image-rendering:optimizeQuality; fill-rule:evenodd; clip-rule:evenodd" xmlns:xlink="http://www.w3.org/1999/xlink">
<g><path style="opacity:1" fill="#9a5b39" d="M -0.5,-0.5 C 99.5,-0.5 199.5,-0.5 299.5,-0.5C 299.5,132.833 299.5,266.167 299.5,399.5C 299.5,432.833 299.5,466.167 299.5,499.5C 299.5,532.833 299.5,566.167 299.5,599.5C 299.5,699.5 299.5,799.5 299.5,899.5C 199.5,899.5 99.5,899.5 -0.5,899.5C -0.5,599.5 -0.5,299.5 -0.5,-0.5 Z"/></g>
<g><path style="opacity:1" fill="#b27b61" d="M 299.5,-0.5 C 499.5,-0.5 699.5,-0.5 899.5,-0.5C 899.5,132.833 899.5,266.167 899.5,399.5C 699.5,399.5 499.5,399.5 299.5,399.5C 299.5,266.167 299.5,132.833 299.5,-0.5 Z"/></g>
<g><path style="opacity:1" fill="#472817" d="M 299.5,399.5 C 499.5,399.5 699.5,399.5 899.5,399.5C 899.5,432.833 899.5,466.167 899.5,499.5C 866.167,499.5 832.833,499.5 799.5,499.5C 766.167,499.5 732.833,499.5 699.5,499.5C 632.833,499.5 566.167,499.5 499.5,499.5C 466.167,499.5 432.833,499.5 399.5,499.5C 366.167,499.5 332.833,499.5 299.5,499.5C 299.5,466.167 299.5,432.833 299.5,399.5 Z"/></g>
<g><path style="opacity:1" fill="#fefffe" d="M 299.5,499.5 C 332.833,499.5 366.167,499.5 399.5,499.5C 399.5,532.833 399.5,566.167 399.5,599.5C 366.167,599.5 332.833,599.5 299.5,599.5C 299.5,566.167 299.5,532.833 299.5,499.5 Z"/></g>
<g><path style="opacity:1" fill="#009610" d="M 399.5,499.5 C 432.833,499.5 466.167,499.5 499.5,499.5C 499.5,532.833 499.5,566.167 499.5,599.5C 466.167,599.5 432.833,599.5 399.5,599.5C 399.5,566.167 399.5,532.833 399.5,499.5 Z"/></g>
<g><path style="opacity:1" fill="#b27b61" d="M 499.5,499.5 C 566.167,499.5 632.833,499.5 699.5,499.5C 699.5,532.833 699.5,566.167 699.5,599.5C 666.167,599.5 632.833,599.5 599.5,599.5C 566.167,599.5 532.833,599.5 499.5,599.5C 499.5,566.167 499.5,532.833 499.5,499.5 Z"/></g>
<g><path style="opacity:1" fill="#009610" d="M 699.5,499.5 C 732.833,499.5 766.167,499.5 799.5,499.5C 799.5,532.833 799.5,566.167 799.5,599.5C 766.167,599.5 732.833,599.5 699.5,599.5C 699.5,566.167 699.5,532.833 699.5,499.5 Z"/></g>
<g><path style="opacity:1" fill="#fefffe" d="M 799.5,499.5 C 832.833,499.5 866.167,499.5 899.5,499.5C 899.5,532.833 899.5,566.167 899.5,599.5C 866.167,599.5 832.833,599.5 799.5,599.5C 799.5,566.167 799.5,532.833 799.5,499.5 Z"/></g>
<g><path style="opacity:1" fill="#b27b61" d="M 299.5,599.5 C 332.833,599.5 366.167,599.5 399.5,599.5C 432.833,599.5 466.167,599.5 499.5,599.5C 499.5,632.833 499.5,666.167 499.5,699.5C 466.167,699.5 432.833,699.5 399.5,699.5C 399.5,732.833 399.5,766.167 399.5,799.5C 432.833,799.5 466.167,799.5 499.5,799.5C 499.5,832.833 499.5,866.167 499.5,899.5C 432.833,899.5 366.167,899.5 299.5,899.5C 299.5,799.5 299.5,699.5 299.5,599.5 Z"/></g>
<g><path style="opacity:1" fill="#743d1e" d="M 499.5,599.5 C 532.833,599.5 566.167,599.5 599.5,599.5C 599.5,732.833 599.5,866.167 599.5,999.5C 566.167,999.5 532.833,999.5 499.5,999.5C 499.5,966.167 499.5,932.833 499.5,899.5C 499.5,866.167 499.5,832.833 499.5,799.5C 499.5,766.167 499.5,732.833 499.5,699.5C 499.5,666.167 499.5,632.833 499.5,599.5 Z"/></g>
<g><path style="opacity:1" fill="#885132" d="M 599.5,599.5 C 632.833,599.5 666.167,599.5 699.5,599.5C 732.833,599.5 766.167,599.5 799.5,599.5C 799.5,699.5 799.5,799.5 799.5,899.5C 799.5,932.833 799.5,966.167 799.5,999.5C 732.833,999.5 666.167,999.5 599.5,999.5C 599.5,866.167 599.5,732.833 599.5,599.5 Z"/></g>
<g><path style="opacity:1" fill="#b27b61" d="M 799.5,599.5 C 832.833,599.5 866.167,599.5 899.5,599.5C 899.5,699.5 899.5,799.5 899.5,899.5C 866.167,899.5 832.833,899.5 799.5,899.5C 799.5,799.5 799.5,699.5 799.5,599.5 Z"/></g>
<g><path style="opacity:1" fill="#92431f" d="M 499.5,699.5 C 499.5,732.833 499.5,766.167 499.5,799.5C 466.167,799.5 432.833,799.5 399.5,799.5C 399.5,766.167 399.5,732.833 399.5,699.5C 432.833,699.5 466.167,699.5 499.5,699.5 Z"/></g>
</svg>
