<?xml version="1.0" encoding="UTF-8"?>
<!DOCTYPE svg PUBLIC "-//W3C//DTD SVG 1.1//EN" "http://www.w3.org/Graphics/SVG/1.1/DTD/svg11.dtd">
<svg xmlns="http://www.w3.org/2000/svg" version="1.1" width="1000px" height="666px" style="shape-rendering:geometricPrecision; text-rendering:geometricPrecision; image-rendering:optimizeQuality; fill-rule:evenodd; clip-rule:evenodd" xmlns:xlink="http://www.w3.org/1999/xlink">
<g><path style="opacity:1" fill="#bf5000" d="M 0.5,-0.5 C 19.1667,-0.5 37.8333,-0.5 56.5,-0.5C 56.5,36.5 56.5,73.5 56.5,110.5C 37.8333,110.5 19.1667,110.5 0.5,110.5C 0.5,73.5 0.5,36.5 0.5,-0.5 Z"/></g>
<g><path style="opacity:1" fill="#203440" d="M 56.5,-0.5 C 74.8333,-0.5 93.1667,-0.5 111.5,-0.5C 111.5,36.5 111.5,73.5 111.5,110.5C 93.1667,110.5 74.8333,110.5 56.5,110.5C 56.5,73.5 56.5,36.5 56.5,-0.5 Z"/></g>
<g><path style="opacity:1" fill="#515650" d="M 111.5,-0.5 C 148.5,-0.5 185.5,-0.5 222.5,-0.5C 222.5,36.5 222.5,73.5 222.5,110.5C 241.167,110.5 259.833,110.5 278.5,110.5C 278.5,129.167 278.5,147.833 278.5,166.5C 259.833,166.5 241.167,166.5 222.5,166.5C 222.5,203.5 222.5,240.5 222.5,277.5C 241.167,277.5 259.833,277.5 278.5,277.5C 278.5,295.833 278.5,314.167 278.5,332.5C 259.833,332.5 241.167,332.5 222.5,332.5C 222.5,351.167 222.5,369.833 222.5,388.5C 185.5,388.5 148.5,388.5 111.5,388.5C 111.5,369.833 111.5,351.167 111.5,332.5C 93.1667,332.5 74.8333,332.5 56.5,332.5C 56.5,314.167 56.5,295.833 56.5,277.5C 74.8333,277.5 93.1667,277.5 111.5,277.5C 111.5,240.5 111.5,203.5 111.5,166.5C 93.1667,166.5 74.8333,166.5 56.5,166.5C 56.5,147.833 56.5,129.167 56.5,110.5C 74.8333,110.5 93.1667,110.5 111.5,110.5C 111.5,73.5 111.5,36.5 111.5,-0.5 Z"/></g>
<g><path style="opacity:1" fill="#203440" d="M 222.5,-0.5 C 241.167,-0.5 259.833,-0.5 278.5,-0.5C 278.5,36.5 278.5,73.5 278.5,110.5C 259.833,110.5 241.167,110.5 222.5,110.5C 222.5,73.5 222.5,36.5 222.5,-0.5 Z"/></g>
<g><path style="opacity:1" fill="#bf5000" d="M 278.5,-0.5 C 296.833,-0.5 315.167,-0.5 333.5,-0.5C 333.5,36.5 333.5,73.5 333.5,110.5C 315.167,110.5 296.833,110.5 278.5,110.5C 278.5,73.5 278.5,36.5 278.5,-0.5 Z"/></g>
<g><path style="opacity:1" fill="#fe6a00" d="M 333.5,-0.5 C 370.5,-0.5 407.5,-0.5 444.5,-0.5C 444.5,36.5 444.5,73.5 444.5,110.5C 426.167,110.5 407.833,110.5 389.5,110.5C 370.833,110.5 352.167,110.5 333.5,110.5C 333.5,73.5 333.5,36.5 333.5,-0.5 Z"/></g>
<g><path style="opacity:1" fill="#2a4455" d="M 444.5,-0.5 C 463.167,-0.5 481.833,-0.5 500.5,-0.5C 500.5,36.5 500.5,73.5 500.5,110.5C 481.833,110.5 463.167,110.5 444.5,110.5C 444.5,73.5 444.5,36.5 444.5,-0.5 Z"/></g>
<g><path style="opacity:1" fill="#6b716a" d="M 500.5,-0.5 C 611.5,-0.5 722.5,-0.5 833.5,-0.5C 833.5,36.5 833.5,73.5 833.5,110.5C 852.167,110.5 870.833,110.5 889.5,110.5C 907.833,110.5 926.167,110.5 944.5,110.5C 944.5,184.5 944.5,258.5 944.5,332.5C 926.167,332.5 907.833,332.5 889.5,332.5C 870.833,332.5 852.167,332.5 833.5,332.5C 833.5,351.167 833.5,369.833 833.5,388.5C 833.5,406.833 833.5,425.167 833.5,443.5C 833.5,480.5 833.5,517.5 833.5,554.5C 722.5,554.5 611.5,554.5 500.5,554.5C 500.5,517.5 500.5,480.5 500.5,443.5C 500.5,425.167 500.5,406.833 500.5,388.5C 500.5,369.833 500.5,351.167 500.5,332.5C 481.833,332.5 463.167,332.5 444.5,332.5C 426.167,332.5 407.833,332.5 389.5,332.5C 389.5,258.5 389.5,184.5 389.5,110.5C 407.833,110.5 426.167,110.5 444.5,110.5C 463.167,110.5 481.833,110.5 500.5,110.5C 500.5,73.5 500.5,36.5 500.5,-0.5 Z"/></g>
<g><path style="opacity:1" fill="#2a4455" d="M 833.5,-0.5 C 852.167,-0.5 870.833,-0.5 889.5,-0.5C 889.5,36.5 889.5,73.5 889.5,110.5C 870.833,110.5 852.167,110.5 833.5,110.5C 833.5,73.5 833.5,36.5 833.5,-0.5 Z"/></g>
<g><path style="opacity:1" fill="#fe6a00" d="M 889.5,-0.5 C 926.167,-0.5 962.833,-0.5 999.5,-0.5C 999.5,36.5 999.5,73.5 999.5,110.5C 981.167,110.5 962.833,110.5 944.5,110.5C 926.167,110.5 907.833,110.5 889.5,110.5C 889.5,73.5 889.5,36.5 889.5,-0.5 Z"/></g>
<g><path style="opacity:1" fill="#203440" d="M 0.5,110.5 C 19.1667,110.5 37.8333,110.5 56.5,110.5C 56.5,129.167 56.5,147.833 56.5,166.5C 56.5,203.5 56.5,240.5 56.5,277.5C 56.5,295.833 56.5,314.167 56.5,332.5C 56.5,351.167 56.5,369.833 56.5,388.5C 74.8333,388.5 93.1667,388.5 111.5,388.5C 111.5,406.833 111.5,425.167 111.5,443.5C 93.1667,443.5 74.8333,443.5 56.5,443.5C 56.5,480.5 56.5,517.5 56.5,554.5C 74.8333,554.5 93.1667,554.5 111.5,554.5C 148.5,554.5 185.5,554.5 222.5,554.5C 241.167,554.5 259.833,554.5 278.5,554.5C 278.5,517.5 278.5,480.5 278.5,443.5C 259.833,443.5 241.167,443.5 222.5,443.5C 222.5,425.167 222.5,406.833 222.5,388.5C 241.167,388.5 259.833,388.5 278.5,388.5C 278.5,369.833 278.5,351.167 278.5,332.5C 278.5,314.167 278.5,295.833 278.5,277.5C 278.5,240.5 278.5,203.5 278.5,166.5C 278.5,147.833 278.5,129.167 278.5,110.5C 296.833,110.5 315.167,110.5 333.5,110.5C 333.5,295.5 333.5,480.5 333.5,665.5C 222.5,665.5 111.5,665.5 0.5,665.5C 0.5,480.5 0.5,295.5 0.5,110.5 Z"/></g>
<g><path style="opacity:1" fill="#2a4455" d="M 333.5,110.5 C 352.167,110.5 370.833,110.5 389.5,110.5C 389.5,184.5 389.5,258.5 389.5,332.5C 407.833,332.5 426.167,332.5 444.5,332.5C 463.167,332.5 481.833,332.5 500.5,332.5C 500.5,351.167 500.5,369.833 500.5,388.5C 500.5,406.833 500.5,425.167 500.5,443.5C 481.833,443.5 463.167,443.5 444.5,443.5C 444.5,480.5 444.5,517.5 444.5,554.5C 463.167,554.5 481.833,554.5 500.5,554.5C 611.5,554.5 722.5,554.5 833.5,554.5C 852.167,554.5 870.833,554.5 889.5,554.5C 889.5,517.5 889.5,480.5 889.5,443.5C 870.833,443.5 852.167,443.5 833.5,443.5C 833.5,425.167 833.5,406.833 833.5,388.5C 852.167,388.5 870.833,388.5 889.5,388.5C 889.5,369.833 889.5,351.167 889.5,332.5C 907.833,332.5 926.167,332.5 944.5,332.5C 944.5,258.5 944.5,184.5 944.5,110.5C 962.833,110.5 981.167,110.5 999.5,110.5C 999.5,295.5 999.5,480.5 999.5,665.5C 777.5,665.5 555.5,665.5 333.5,665.5C 333.5,480.5 333.5,295.5 333.5,110.5 Z M 444.5,332.5 C 463.167,332.5 481.833,332.5 500.5,332.5C 500.5,351.167 500.5,369.833 500.5,388.5C 481.833,388.5 463.167,388.5 444.5,388.5C 444.5,369.833 444.5,351.167 444.5,332.5 Z M 889.5,332.5 C 889.5,351.167 889.5,369.833 889.5,388.5C"/></g>
<g><path style="opacity:1" fill="#bf7946" d="M 56.5,166.5 C 74.8333,166.5 93.1667,166.5 111.5,166.5C 111.5,203.5 111.5,240.5 111.5,277.5C 93.1667,277.5 74.8333,277.5 56.5,277.5C 56.5,240.5 56.5,203.5 56.5,166.5 Z"/></g>
<g><path style="opacity:1" fill="#bf7946" d="M 278.5,166.5 C 278.5,203.5 278.5,240.5 278.5,277.5C 259.833,277.5 241.167,277.5 222.5,277.5C 222.5,240.5 222.5,203.5 222.5,166.5C 241.167,166.5 259.833,166.5 278.5,166.5 Z"/></g>
<g><path style="opacity:1" fill="#fea05d" d="M 500.5,166.5 C 537.5,166.5 574.5,166.5 611.5,166.5C 611.5,203.5 611.5,240.5 611.5,277.5C 574.5,277.5 537.5,277.5 500.5,277.5C 500.5,240.5 500.5,203.5 500.5,166.5 Z"/></g>
<g><path style="opacity:1" fill="#fea05d" d="M 722.5,166.5 C 759.5,166.5 796.5,166.5 833.5,166.5C 833.5,203.5 833.5,240.5 833.5,277.5C 796.5,277.5 759.5,277.5 722.5,277.5C 722.5,240.5 722.5,203.5 722.5,166.5 Z"/></g>
<g><path style="opacity:0.247" fill="#000000" d="M 56.5,332.5 C 74.8333,332.5 93.1667,332.5 111.5,332.5C 111.5,351.167 111.5,369.833 111.5,388.5C 93.1667,388.5 74.8333,388.5 56.5,388.5C 56.5,369.833 56.5,351.167 56.5,332.5 Z"/></g>
<g><path style="opacity:0.247" fill="#000000" d="M 278.5,332.5 C 278.5,351.167 278.5,369.833 278.5,388.5C 259.833,388.5 241.167,388.5 222.5,388.5C 222.5,369.833 222.5,351.167 222.5,332.5C 241.167,332.5 259.833,332.5 278.5,332.5 Z"/></g>
<g><path style="opacity:1" fill="#1f1c27" d="M 111.5,388.5 C 148.5,388.5 185.5,388.5 222.5,388.5C 222.5,406.833 222.5,425.167 222.5,443.5C 222.5,462.167 222.5,480.833 222.5,499.5C 185.5,499.5 148.5,499.5 111.5,499.5C 111.5,480.833 111.5,462.167 111.5,443.5C 111.5,425.167 111.5,406.833 111.5,388.5 Z"/></g>
<g><path style="opacity:1" fill="#292435" d="M 611.5,388.5 C 648.5,388.5 685.5,388.5 722.5,388.5C 722.5,425.5 722.5,462.5 722.5,499.5C 685.5,499.5 648.5,499.5 611.5,499.5C 611.5,462.5 611.5,425.5 611.5,388.5 Z"/></g>
<g><path style="opacity:0.247" fill="#000000" d="M 111.5,443.5 C 111.5,462.167 111.5,480.833 111.5,499.5C 111.5,517.833 111.5,536.167 111.5,554.5C 93.1667,554.5 74.8333,554.5 56.5,554.5C 56.5,517.5 56.5,480.5 56.5,443.5C 74.8333,443.5 93.1667,443.5 111.5,443.5 Z"/></g>
<g><path style="opacity:0.247" fill="#000000" d="M 222.5,443.5 C 241.167,443.5 259.833,443.5 278.5,443.5C 278.5,480.5 278.5,517.5 278.5,554.5C 259.833,554.5 241.167,554.5 222.5,554.5C 222.5,536.167 222.5,517.833 222.5,499.5C 222.5,480.833 222.5,462.167 222.5,443.5 Z"/></g>
<g><path style="opacity:1" fill="#515650" d="M 111.5,499.5 C 148.5,499.5 185.5,499.5 222.5,499.5C 222.5,517.833 222.5,536.167 222.5,554.5C 185.5,554.5 148.5,554.5 111.5,554.5C 111.5,536.167 111.5,517.833 111.5,499.5 Z"/></g>
</svg>
