<svg viewBox="0 0 900 600" xmlns="http://www.w3.org/2000/svg"><rect x="0" y="50" width="300" height="250" fill="#525651" /><rect x="0" y="150" width="350" height="100" fill="#c07947" /><rect x="0" y="0" width="50" height="550" fill="#203440" /><rect x="250" y="0" width="100" height="600" fill="#203440" /><rect x="0" y="0" width="350" height="100" fill="#c05000" /><rect x="50" y="0" width="200" height="100" fill="#203440" /><rect x="100" y="0" width="100" height="550" fill="#525651" /><rect x="0" y="350" width="300" height="50" fill="#203440" /><rect x="0" y="500" width="350" height="100" fill="#203440" /><rect x="100" y="350" width="100" height="100" fill="#201c28" /><rect x="300" y="0" width="600" height="150" fill="#ff6a00" /><rect x="300" y="100" width="100" height="500" fill="#2a4455" /><rect x="800" y="100" width="100" height="500" fill="#2a4455" /><rect x="400" y="0" width="400" height="150" fill="#2a4455" /><rect x="350" y="350" width="500" height="50" fill="#2a4455" /><rect x="450" y="0" width="300" height="550" fill="#6c716b" /><rect x="350" y="100" width="500" height="200" fill="#6c716b" /><rect x="450" y="150" width="100" height="100" fill="#ffa05e" /><rect x="650" y="150" width="100" height="100" fill="#ffa05e" /><rect x="550" y="350" width="100" height="100" fill="#2a2435" /><rect x="350" y="500" width="500" height="100" fill="#2a4455" /></svg>