<?xml version="1.0" encoding="UTF-8"?>
<!DOCTYPE svg PUBLIC "-//W3C//DTD SVG 1.1//EN" "http://www.w3.org/Graphics/SVG/1.1/DTD/svg11.dtd">
<svg xmlns="http://www.w3.org/2000/svg" version="1.1" width="1000px" height="954px" style="shape-rendering:geometricPrecision; text-rendering:geometricPrecision; image-rendering:optimizeQuality; fill-rule:evenodd; clip-rule:evenodd" xmlns:xlink="http://www.w3.org/1999/xlink">
<g><path style="opacity:1" fill="#757675" d="M 499.5,0.5 C 499.5,30.8333 499.5,61.1667 499.5,91.5C 454.167,91.5 408.833,91.5 363.5,91.5C 363.5,76.1667 363.5,60.8333 363.5,45.5C 363.5,30.5 363.5,15.5 363.5,0.5C 408.833,0.5 454.167,0.5 499.5,0.5 Z"/></g>
<g><path style="opacity:1" fill="#a4a5a4" d="M 499.5,0.5 C 529.833,0.5 560.167,0.5 590.5,0.5C 590.5,15.5 590.5,30.5 590.5,45.5C 590.5,60.8333 590.5,76.1667 590.5,91.5C 560.167,91.5 529.833,91.5 499.5,91.5C 499.5,61.1667 499.5,30.8333 499.5,0.5 Z"/></g>
<g><path style="opacity:1" fill="#1c1a13" d="M 363.5,45.5 C 363.5,60.8333 363.5,76.1667 363.5,91.5C 408.833,91.5 454.167,91.5 499.5,91.5C 529.833,91.5 560.167,91.5 590.5,91.5C 590.5,76.1667 590.5,60.8333 590.5,45.5C 636.167,45.5 681.833,45.5 727.5,45.5C 727.5,91.1667 727.5,136.833 727.5,182.5C 697.167,182.5 666.833,182.5 636.5,182.5C 636.5,167.167 636.5,151.833 636.5,136.5C 515.167,136.5 393.833,136.5 272.5,136.5C 272.5,151.833 272.5,167.167 272.5,182.5C 257.5,182.5 242.5,182.5 227.5,182.5C 212.167,182.5 196.833,182.5 181.5,182.5C 181.5,212.5 181.5,242.5 181.5,272.5C 181.5,378.5 181.5,484.5 181.5,590.5C 121.167,590.5 60.8333,590.5 0.5,590.5C 0.5,408.833 0.5,227.167 0.5,45.5C 121.5,45.5 242.5,45.5 363.5,45.5 Z"/></g>
<g><path style="opacity:1" fill="#855106" d="M 45.5,136.5 C 75.8333,136.5 106.167,136.5 136.5,136.5C 136.5,257.5 136.5,378.5 136.5,499.5C 106.167,499.5 75.8333,499.5 45.5,499.5C 45.5,378.5 45.5,257.5 45.5,136.5 Z"/></g>
<g><path style="opacity:1" fill="#683f04" d="M 636.5,182.5 C 621.167,182.5 605.833,182.5 590.5,182.5C 575.5,182.5 560.5,182.5 545.5,182.5C 515.167,182.5 484.833,182.5 454.5,182.5C 439.5,182.5 424.5,182.5 409.5,182.5C 394.167,182.5 378.833,182.5 363.5,182.5C 333.167,182.5 302.833,182.5 272.5,182.5C 272.5,167.167 272.5,151.833 272.5,136.5C 393.833,136.5 515.167,136.5 636.5,136.5C 636.5,151.833 636.5,167.167 636.5,182.5 Z"/></g>
<g><path style="opacity:1" fill="#bf5000" d="M 227.5,182.5 C 227.5,212.5 227.5,242.5 227.5,272.5C 212.167,272.5 196.833,272.5 181.5,272.5C 181.5,242.5 181.5,212.5 181.5,182.5C 196.833,182.5 212.167,182.5 227.5,182.5 Z"/></g>
<g><path style="opacity:1" fill="#203440" d="M 227.5,182.5 C 242.5,182.5 257.5,182.5 272.5,182.5C 272.5,212.5 272.5,242.5 272.5,272.5C 257.5,272.5 242.5,272.5 227.5,272.5C 227.5,242.5 227.5,212.5 227.5,182.5 Z"/></g>
<g><path style="opacity:1" fill="#515650" d="M 272.5,182.5 C 302.833,182.5 333.167,182.5 363.5,182.5C 363.5,212.5 363.5,242.5 363.5,272.5C 378.833,272.5 394.167,272.5 409.5,272.5C 409.5,287.833 409.5,303.167 409.5,318.5C 394.167,318.5 378.833,318.5 363.5,318.5C 363.5,348.833 363.5,379.167 363.5,409.5C 378.833,409.5 394.167,409.5 409.5,409.5C 409.5,424.5 409.5,439.5 409.5,454.5C 394.167,454.5 378.833,454.5 363.5,454.5C 363.5,469.5 363.5,484.5 363.5,499.5C 333.167,499.5 302.833,499.5 272.5,499.5C 272.5,484.5 272.5,469.5 272.5,454.5C 257.5,454.5 242.5,454.5 227.5,454.5C 227.5,439.5 227.5,424.5 227.5,409.5C 242.5,409.5 257.5,409.5 272.5,409.5C 272.5,379.167 272.5,348.833 272.5,318.5C 257.5,318.5 242.5,318.5 227.5,318.5C 227.5,303.167 227.5,287.833 227.5,272.5C 242.5,272.5 257.5,272.5 272.5,272.5C 272.5,242.5 272.5,212.5 272.5,182.5 Z"/></g>
<g><path style="opacity:1" fill="#203440" d="M 363.5,182.5 C 378.833,182.5 394.167,182.5 409.5,182.5C 409.5,212.5 409.5,242.5 409.5,272.5C 394.167,272.5 378.833,272.5 363.5,272.5C 363.5,242.5 363.5,212.5 363.5,182.5 Z"/></g>
<g><path style="opacity:1" fill="#bf5000" d="M 409.5,182.5 C 424.5,182.5 439.5,182.5 454.5,182.5C 454.5,212.5 454.5,242.5 454.5,272.5C 439.5,272.5 424.5,272.5 409.5,272.5C 409.5,242.5 409.5,212.5 409.5,182.5 Z"/></g>
<g><path style="opacity:1" fill="#fe6a00" d="M 454.5,182.5 C 484.833,182.5 515.167,182.5 545.5,182.5C 545.5,212.5 545.5,242.5 545.5,272.5C 530.167,272.5 514.833,272.5 499.5,272.5C 484.5,272.5 469.5,272.5 454.5,272.5C 454.5,242.5 454.5,212.5 454.5,182.5 Z"/></g>
<g><path style="opacity:1" fill="#2a4455" d="M 545.5,182.5 C 560.5,182.5 575.5,182.5 590.5,182.5C 590.5,212.5 590.5,242.5 590.5,272.5C 575.5,272.5 560.5,272.5 545.5,272.5C 545.5,242.5 545.5,212.5 545.5,182.5 Z"/></g>
<g><path style="opacity:1" fill="#6b716a" d="M 590.5,182.5 C 605.833,182.5 621.167,182.5 636.5,182.5C 666.833,182.5 697.167,182.5 727.5,182.5C 772.833,182.5 818.167,182.5 863.5,182.5C 863.5,212.5 863.5,242.5 863.5,272.5C 878.5,272.5 893.5,272.5 908.5,272.5C 923.833,272.5 939.167,272.5 954.5,272.5C 954.5,333.167 954.5,393.833 954.5,454.5C 939.167,454.5 923.833,454.5 908.5,454.5C 893.5,454.5 878.5,454.5 863.5,454.5C 863.5,469.5 863.5,484.5 863.5,499.5C 863.5,514.833 863.5,530.167 863.5,545.5C 863.5,560.5 863.5,575.5 863.5,590.5C 833.167,590.5 802.833,590.5 772.5,590.5C 772.5,560.167 772.5,529.833 772.5,499.5C 742.167,499.5 711.833,499.5 681.5,499.5C 681.5,529.833 681.5,560.167 681.5,590.5C 651.167,590.5 620.833,590.5 590.5,590.5C 590.5,575.5 590.5,560.5 590.5,545.5C 590.5,530.167 590.5,514.833 590.5,499.5C 590.5,484.5 590.5,469.5 590.5,454.5C 575.5,454.5 560.5,454.5 545.5,454.5C 530.167,454.5 514.833,454.5 499.5,454.5C 499.5,393.833 499.5,333.167 499.5,272.5C 514.833,272.5 530.167,272.5 545.5,272.5C 560.5,272.5 575.5,272.5 590.5,272.5C 590.5,242.5 590.5,212.5 590.5,182.5 Z"/></g>
<g><path style="opacity:1" fill="#2a4455" d="M 863.5,182.5 C 878.5,182.5 893.5,182.5 908.5,182.5C 908.5,212.5 908.5,242.5 908.5,272.5C 893.5,272.5 878.5,272.5 863.5,272.5C 863.5,242.5 863.5,212.5 863.5,182.5 Z"/></g>
<g><path style="opacity:1" fill="#fe6a00" d="M 908.5,182.5 C 938.833,182.5 969.167,182.5 999.5,182.5C 999.5,212.5 999.5,242.5 999.5,272.5C 984.5,272.5 969.5,272.5 954.5,272.5C 939.167,272.5 923.833,272.5 908.5,272.5C 908.5,242.5 908.5,212.5 908.5,182.5 Z"/></g>
<g><path style="opacity:1" fill="#203440" d="M 181.5,272.5 C 196.833,272.5 212.167,272.5 227.5,272.5C 227.5,287.833 227.5,303.167 227.5,318.5C 227.5,348.833 227.5,379.167 227.5,409.5C 227.5,424.5 227.5,439.5 227.5,454.5C 242.5,454.5 257.5,454.5 272.5,454.5C 272.5,469.5 272.5,484.5 272.5,499.5C 272.5,514.833 272.5,530.167 272.5,545.5C 257.5,545.5 242.5,545.5 227.5,545.5C 227.5,560.5 227.5,575.5 227.5,590.5C 212.167,590.5 196.833,590.5 181.5,590.5C 181.5,484.5 181.5,378.5 181.5,272.5 Z"/></g>
<g><path style="opacity:1" fill="#203440" d="M 409.5,272.5 C 424.5,272.5 439.5,272.5 454.5,272.5C 454.5,378.5 454.5,484.5 454.5,590.5C 439.5,590.5 424.5,590.5 409.5,590.5C 409.5,575.5 409.5,560.5 409.5,545.5C 394.167,545.5 378.833,545.5 363.5,545.5C 363.5,530.167 363.5,514.833 363.5,499.5C 378.833,499.5 394.167,499.5 409.5,499.5C 409.5,484.5 409.5,469.5 409.5,454.5C 409.5,439.5 409.5,424.5 409.5,409.5C 409.5,379.167 409.5,348.833 409.5,318.5C 409.5,303.167 409.5,287.833 409.5,272.5 Z"/></g>
<g><path style="opacity:1" fill="#2a4455" d="M 454.5,272.5 C 469.5,272.5 484.5,272.5 499.5,272.5C 499.5,333.167 499.5,393.833 499.5,454.5C 514.833,454.5 530.167,454.5 545.5,454.5C 560.5,454.5 575.5,454.5 590.5,454.5C 590.5,469.5 590.5,484.5 590.5,499.5C 590.5,514.833 590.5,530.167 590.5,545.5C 575.5,545.5 560.5,545.5 545.5,545.5C 545.5,560.5 545.5,575.5 545.5,590.5C 515.167,590.5 484.833,590.5 454.5,590.5C 454.5,484.5 454.5,378.5 454.5,272.5 Z"/></g>
<g><path style="opacity:1" fill="#2a4455" d="M 954.5,272.5 C 969.5,272.5 984.5,272.5 999.5,272.5C 999.5,378.5 999.5,484.5 999.5,590.5C 969.167,590.5 938.833,590.5 908.5,590.5C 908.5,575.5 908.5,560.5 908.5,545.5C 893.5,545.5 878.5,545.5 863.5,545.5C 863.5,530.167 863.5,514.833 863.5,499.5C 878.5,499.5 893.5,499.5 908.5,499.5C 908.5,484.5 908.5,469.5 908.5,454.5C 923.833,454.5 939.167,454.5 954.5,454.5C 954.5,393.833 954.5,333.167 954.5,272.5 Z"/></g>
<g><path style="opacity:1" fill="#bf7946" d="M 227.5,318.5 C 242.5,318.5 257.5,318.5 272.5,318.5C 272.5,348.833 272.5,379.167 272.5,409.5C 257.5,409.5 242.5,409.5 227.5,409.5C 227.5,379.167 227.5,348.833 227.5,318.5 Z"/></g>
<g><path style="opacity:1" fill="#bf7946" d="M 409.5,318.5 C 409.5,348.833 409.5,379.167 409.5,409.5C 394.167,409.5 378.833,409.5 363.5,409.5C 363.5,379.167 363.5,348.833 363.5,318.5C 378.833,318.5 394.167,318.5 409.5,318.5 Z"/></g>
<g><path style="opacity:1" fill="#fea05d" d="M 590.5,318.5 C 620.833,318.5 651.167,318.5 681.5,318.5C 681.5,348.833 681.5,379.167 681.5,409.5C 651.167,409.5 620.833,409.5 590.5,409.5C 590.5,379.167 590.5,348.833 590.5,318.5 Z"/></g>
<g><path style="opacity:1" fill="#fea05d" d="M 772.5,318.5 C 802.833,318.5 833.167,318.5 863.5,318.5C 863.5,348.833 863.5,379.167 863.5,409.5C 833.167,409.5 802.833,409.5 772.5,409.5C 772.5,379.167 772.5,348.833 772.5,318.5 Z"/></g>
<g><path style="opacity:1" fill="#15140f" d="M 227.5,454.5 C 242.5,454.5 257.5,454.5 272.5,454.5C 272.5,469.5 272.5,484.5 272.5,499.5C 257.5,499.5 242.5,499.5 227.5,499.5C 227.5,484.5 227.5,469.5 227.5,454.5 Z"/></g>
<g><path style="opacity:1" fill="#4f3003" d="M 409.5,454.5 C 409.5,469.5 409.5,484.5 409.5,499.5C 394.167,499.5 378.833,499.5 363.5,499.5C 363.5,484.5 363.5,469.5 363.5,454.5C 378.833,454.5 394.167,454.5 409.5,454.5 Z"/></g>
<g><path style="opacity:1" fill="#683f04" d="M 545.5,454.5 C 560.5,454.5 575.5,454.5 590.5,454.5C 590.5,469.5 590.5,484.5 590.5,499.5C 575.5,499.5 560.5,499.5 545.5,499.5C 545.5,484.5 545.5,469.5 545.5,454.5 Z"/></g>
<g><path style="opacity:1" fill="#1f1c27" d="M 272.5,499.5 C 302.833,499.5 333.167,499.5 363.5,499.5C 363.5,514.833 363.5,530.167 363.5,545.5C 363.5,560.5 363.5,575.5 363.5,590.5C 333.167,590.5 302.833,590.5 272.5,590.5C 272.5,575.5 272.5,560.5 272.5,545.5C 272.5,530.167 272.5,514.833 272.5,499.5 Z"/></g>
<g><path style="opacity:1" fill="#292435" d="M 772.5,590.5 C 742.167,590.5 711.833,590.5 681.5,590.5C 681.5,560.167 681.5,529.833 681.5,499.5C 711.833,499.5 742.167,499.5 772.5,499.5C 772.5,529.833 772.5,560.167 772.5,590.5 Z"/></g>
<g><path style="opacity:1" fill="#15140f" d="M 272.5,545.5 C 272.5,560.5 272.5,575.5 272.5,590.5C 257.5,590.5 242.5,590.5 227.5,590.5C 227.5,575.5 227.5,560.5 227.5,545.5C 242.5,545.5 257.5,545.5 272.5,545.5 Z"/></g>
<g><path style="opacity:1" fill="#15140f" d="M 363.5,545.5 C 378.833,545.5 394.167,545.5 409.5,545.5C 409.5,560.5 409.5,575.5 409.5,590.5C 394.167,590.5 378.833,590.5 363.5,590.5C 363.5,575.5 363.5,560.5 363.5,545.5 Z"/></g>
<g><path style="opacity:1" fill="#1c1a13" d="M 590.5,545.5 C 590.5,560.5 590.5,575.5 590.5,590.5C 575.5,590.5 560.5,590.5 545.5,590.5C 545.5,575.5 545.5,560.5 545.5,545.5C 560.5,545.5 575.5,545.5 590.5,545.5 Z"/></g>
<g><path style="opacity:1" fill="#1c1a13" d="M 181.5,590.5 C 196.833,590.5 212.167,590.5 227.5,590.5C 242.5,590.5 257.5,590.5 272.5,590.5C 302.833,590.5 333.167,590.5 363.5,590.5C 378.833,590.5 394.167,590.5 409.5,590.5C 424.5,590.5 439.5,590.5 454.5,590.5C 454.5,711.5 454.5,832.5 454.5,953.5C 363.5,953.5 272.5,953.5 181.5,953.5C 181.5,832.5 181.5,711.5 181.5,590.5 Z"/></g>
<g><path style="opacity:1" fill="#443c2e" d="M 454.5,590.5 C 484.833,590.5 515.167,590.5 545.5,590.5C 560.5,590.5 575.5,590.5 590.5,590.5C 620.833,590.5 651.167,590.5 681.5,590.5C 711.833,590.5 742.167,590.5 772.5,590.5C 802.833,590.5 833.167,590.5 863.5,590.5C 878.5,590.5 893.5,590.5 908.5,590.5C 938.833,590.5 969.167,590.5 999.5,590.5C 999.5,711.5 999.5,832.5 999.5,953.5C 817.833,953.5 636.167,953.5 454.5,953.5C 454.5,832.5 454.5,711.5 454.5,590.5 Z"/></g>
<g><path style="opacity:1" fill="#855106" d="M 227.5,681.5 C 288.167,681.5 348.833,681.5 409.5,681.5C 409.5,742.167 409.5,802.833 409.5,863.5C 348.833,863.5 288.167,863.5 227.5,863.5C 227.5,802.833 227.5,742.167 227.5,681.5 Z"/></g>
<g><path style="opacity:1" fill="#a66e1e" d="M 545.5,681.5 C 666.5,681.5 787.5,681.5 908.5,681.5C 908.5,742.167 908.5,802.833 908.5,863.5C 787.5,863.5 666.5,863.5 545.5,863.5C 545.5,802.833 545.5,742.167 545.5,681.5 Z"/></g>
</svg>
