<svg viewBox="0 0 950 600" xmlns="http://www.w3.org/2000/svg"><rect x="0" y="0" width="400" height="150" fill="#2dc4b2" /><rect x="200" y="50" width="200" height="450" fill="#2dc4b2" /><rect x="350" y="450" width="150" height="150" fill="#2dc4b2" /><rect x="550" y="0" width="250" height="150" fill="#2dc4b2" /><rect x="150" y="0" width="100" height="150" fill="#6bf3e3" /><rect x="350" y="0" width="100" height="150" fill="#6bf3e3" /><rect x="650" y="0" width="100" height="150" fill="#6bf3e3" /><rect x="850" y="0" width="100" height="150" fill="#6bf3e3" /><rect x="350" y="100" width="400" height="400" fill="#6bf3e3" /><rect x="450" y="450" width="200" height="150" fill="#6bf3e3" /><rect x="200" y="0" width="100" height="150" fill="#9a5cc6" /><rect x="0" y="100" width="400" height="100" fill="#523687" /><rect x="300" y="100" width="100" height="300" fill="#523687" /><rect x="150" y="100" width="150" height="100" fill="#8340b3" /><rect x="350" y="100" width="100" height="250" fill="#8340b3" /><rect x="700" y="100" width="150" height="100" fill="#523687" /><rect x="800" y="0" width="100" height="150" fill="#9a5cc6" /><rect x="800" y="100" width="150" height="100" fill="#8340b3" /><rect x="650" y="100" width="100" height="250" fill="#8340b3" /><rect x="350" y="300" width="400" height="100" fill="#9a5cc6" /><rect x="450" y="350" width="200" height="150" fill="#9a5cc6" /><rect x="450" y="300" width="200" height="100" fill="#8340b3" /></svg>