<?xml version="1.0" encoding="UTF-8"?>
<!DOCTYPE svg PUBLIC "-//W3C//DTD SVG 1.1//EN" "http://www.w3.org/Graphics/SVG/1.1/DTD/svg11.dtd">
<svg xmlns="http://www.w3.org/2000/svg" version="1.1" width="818px" height="1000px" style="shape-rendering:geometricPrecision; text-rendering:geometricPrecision; image-rendering:optimizeQuality; fill-rule:evenodd; clip-rule:evenodd" xmlns:xlink="http://www.w3.org/1999/xlink">
<g><path style="opacity:1" fill="#206185" d="M 181.5,-0.5 C 211.833,-0.5 242.167,-0.5 272.5,-0.5C 272.5,60.1667 272.5,120.833 272.5,181.5C 242.167,181.5 211.833,181.5 181.5,181.5C 181.5,120.833 181.5,60.1667 181.5,-0.5 Z"/></g>
<g><path style="opacity:1" fill="#2aa0af" d="M 272.5,-0.5 C 332.833,-0.5 393.167,-0.5 453.5,-0.5C 453.5,60.1667 453.5,120.833 453.5,181.5C 574.833,181.5 696.167,181.5 817.5,181.5C 817.5,242.167 817.5,302.833 817.5,363.5C 696.167,363.5 574.833,363.5 453.5,363.5C 453.5,514.833 453.5,666.167 453.5,817.5C 423.5,817.5 393.5,817.5 363.5,817.5C 333.167,817.5 302.833,817.5 272.5,817.5C 272.5,666.167 272.5,514.833 272.5,363.5C 242.167,363.5 211.833,363.5 181.5,363.5C 151.167,363.5 120.833,363.5 90.5,363.5C 90.5,302.833 90.5,242.167 90.5,181.5C 120.833,181.5 151.167,181.5 181.5,181.5C 211.833,181.5 242.167,181.5 272.5,181.5C 272.5,120.833 272.5,60.1667 272.5,-0.5 Z"/></g>
<g><path style="opacity:1" fill="#206185" d="M -0.5,181.5 C 29.8333,181.5 60.1667,181.5 90.5,181.5C 90.5,242.167 90.5,302.833 90.5,363.5C 60.1667,363.5 29.8333,363.5 -0.5,363.5C -0.5,302.833 -0.5,242.167 -0.5,181.5 Z"/></g>
<g><path style="opacity:1" fill="#206185" d="M 181.5,363.5 C 211.833,363.5 242.167,363.5 272.5,363.5C 272.5,514.833 272.5,666.167 272.5,817.5C 242.167,817.5 211.833,817.5 181.5,817.5C 181.5,666.167 181.5,514.833 181.5,363.5 Z"/></g>
<g><path style="opacity:1" fill="#206185" d="M 363.5,817.5 C 393.5,817.5 423.5,817.5 453.5,817.5C 453.5,878.167 453.5,938.833 453.5,999.5C 423.5,999.5 393.5,999.5 363.5,999.5C 363.5,938.833 363.5,878.167 363.5,817.5 Z"/></g>
<g><path style="opacity:1" fill="#2aa0af" d="M 453.5,817.5 C 574.833,817.5 696.167,817.5 817.5,817.5C 817.5,878.167 817.5,938.833 817.5,999.5C 696.167,999.5 574.833,999.5 453.5,999.5C 453.5,938.833 453.5,878.167 453.5,817.5 Z"/></g>
</svg>
