<?xml version="1.0" encoding="UTF-8"?>
<!DOCTYPE svg PUBLIC "-//W3C//DTD SVG 1.1//EN" "http://www.w3.org/Graphics/SVG/1.1/DTD/svg11.dtd">
<svg xmlns="http://www.w3.org/2000/svg" version="1.1" width="1000px" height="954px" style="shape-rendering:geometricPrecision; text-rendering:geometricPrecision; image-rendering:optimizeQuality; fill-rule:evenodd; clip-rule:evenodd" xmlns:xlink="http://www.w3.org/1999/xlink">
<g><path style="opacity:1" fill="#757675" d="M 363.5,-0.5 C 408.833,-0.5 454.167,-0.5 499.5,-0.5C 499.5,14.5 499.5,29.5 499.5,44.5C 484.5,44.5 469.5,44.5 454.5,44.5C 439.167,44.5 423.833,44.5 408.5,44.5C 408.5,59.8333 408.5,75.1667 408.5,90.5C 393.5,90.5 378.5,90.5 363.5,90.5C 363.5,75.1667 363.5,59.8333 363.5,44.5C 363.5,29.5 363.5,14.5 363.5,-0.5 Z"/></g>
<g><path style="opacity:1" fill="#a4a5a4" d="M 499.5,-0.5 C 529.833,-0.5 560.167,-0.5 590.5,-0.5C 590.5,14.5 590.5,29.5 590.5,44.5C 590.5,59.8333 590.5,75.1667 590.5,90.5C 575.167,90.5 559.833,90.5 544.5,90.5C 544.5,75.1667 544.5,59.8333 544.5,44.5C 529.5,44.5 514.5,44.5 499.5,44.5C 499.5,29.5 499.5,14.5 499.5,-0.5 Z"/></g>
<g><path style="opacity:1" fill="#1c1a13" d="M -0.5,44.5 C 120.833,44.5 242.167,44.5 363.5,44.5C 363.5,59.8333 363.5,75.1667 363.5,90.5C 378.5,90.5 393.5,90.5 408.5,90.5C 408.5,105.5 408.5,120.5 408.5,135.5C 393.5,135.5 378.5,135.5 363.5,135.5C 348.167,135.5 332.833,135.5 317.5,135.5C 302.5,135.5 287.5,135.5 272.5,135.5C 272.5,256.833 272.5,378.167 272.5,499.5C 348.167,499.5 423.833,499.5 499.5,499.5C 499.5,514.5 499.5,529.5 499.5,544.5C 514.5,544.5 529.5,544.5 544.5,544.5C 605.167,544.5 665.833,544.5 726.5,544.5C 726.5,559.833 726.5,575.167 726.5,590.5C 635.833,590.5 545.167,590.5 454.5,590.5C 454.5,711.5 454.5,832.5 454.5,953.5C 363.5,953.5 272.5,953.5 181.5,953.5C 181.5,832.5 181.5,711.5 181.5,590.5C 120.833,590.5 60.1667,590.5 -0.5,590.5C -0.5,408.5 -0.5,226.5 -0.5,44.5 Z"/></g>
<g><path style="opacity:1" fill="#206185" d="M 454.5,44.5 C 454.5,74.8333 454.5,105.167 454.5,135.5C 439.167,135.5 423.833,135.5 408.5,135.5C 408.5,120.5 408.5,105.5 408.5,90.5C 408.5,75.1667 408.5,59.8333 408.5,44.5C 423.833,44.5 439.167,44.5 454.5,44.5 Z"/></g>
<g><path style="opacity:1" fill="#2aa0af" d="M 454.5,44.5 C 469.5,44.5 484.5,44.5 499.5,44.5C 514.5,44.5 529.5,44.5 544.5,44.5C 544.5,59.8333 544.5,75.1667 544.5,90.5C 544.5,105.5 544.5,120.5 544.5,135.5C 605.167,135.5 665.833,135.5 726.5,135.5C 726.5,165.833 726.5,196.167 726.5,226.5C 696.167,226.5 665.833,226.5 635.5,226.5C 605.167,226.5 574.833,226.5 544.5,226.5C 544.5,302.167 544.5,377.833 544.5,453.5C 529.5,453.5 514.5,453.5 499.5,453.5C 484.5,453.5 469.5,453.5 454.5,453.5C 454.5,377.833 454.5,302.167 454.5,226.5C 439.167,226.5 423.833,226.5 408.5,226.5C 393.5,226.5 378.5,226.5 363.5,226.5C 363.5,196.167 363.5,165.833 363.5,135.5C 378.5,135.5 393.5,135.5 408.5,135.5C 423.833,135.5 439.167,135.5 454.5,135.5C 454.5,105.167 454.5,74.8333 454.5,44.5 Z"/></g>
<g><path style="opacity:1" fill="#1c1a13" d="M 590.5,44.5 C 635.833,44.5 681.167,44.5 726.5,44.5C 726.5,74.8333 726.5,105.167 726.5,135.5C 665.833,135.5 605.167,135.5 544.5,135.5C 544.5,120.5 544.5,105.5 544.5,90.5C 559.833,90.5 575.167,90.5 590.5,90.5C 590.5,75.1667 590.5,59.8333 590.5,44.5 Z"/></g>
<g><path style="opacity:1" fill="#855106" d="M 44.5,135.5 C 74.8333,135.5 105.167,135.5 135.5,135.5C 135.5,256.833 135.5,378.167 135.5,499.5C 105.167,499.5 74.8333,499.5 44.5,499.5C 44.5,378.167 44.5,256.833 44.5,135.5 Z"/></g>
<g><path style="opacity:1" fill="#683f04" d="M 317.5,135.5 C 317.5,165.833 317.5,196.167 317.5,226.5C 332.833,226.5 348.167,226.5 363.5,226.5C 378.5,226.5 393.5,226.5 408.5,226.5C 408.5,302.167 408.5,377.833 408.5,453.5C 423.833,453.5 439.167,453.5 454.5,453.5C 469.5,453.5 484.5,453.5 499.5,453.5C 499.5,468.833 499.5,484.167 499.5,499.5C 423.833,499.5 348.167,499.5 272.5,499.5C 272.5,378.167 272.5,256.833 272.5,135.5C 287.5,135.5 302.5,135.5 317.5,135.5 Z"/></g>
<g><path style="opacity:1" fill="#206185" d="M 317.5,135.5 C 332.833,135.5 348.167,135.5 363.5,135.5C 363.5,165.833 363.5,196.167 363.5,226.5C 348.167,226.5 332.833,226.5 317.5,226.5C 317.5,196.167 317.5,165.833 317.5,135.5 Z"/></g>
<g><path style="opacity:1" fill="#206185" d="M 408.5,226.5 C 423.833,226.5 439.167,226.5 454.5,226.5C 454.5,302.167 454.5,377.833 454.5,453.5C 439.167,453.5 423.833,453.5 408.5,453.5C 408.5,377.833 408.5,302.167 408.5,226.5 Z"/></g>
<g><path style="opacity:1" fill="#683f04" d="M 635.5,226.5 C 635.5,302.167 635.5,377.833 635.5,453.5C 605.167,453.5 574.833,453.5 544.5,453.5C 544.5,377.833 544.5,302.167 544.5,226.5C 574.833,226.5 605.167,226.5 635.5,226.5 Z"/></g>
<g><path style="opacity:1" fill="#1c1a13" d="M 635.5,226.5 C 665.833,226.5 696.167,226.5 726.5,226.5C 726.5,302.167 726.5,377.833 726.5,453.5C 696.167,453.5 665.833,453.5 635.5,453.5C 635.5,377.833 635.5,302.167 635.5,226.5 Z"/></g>
<g><path style="opacity:1" fill="#206185" d="M 499.5,453.5 C 514.5,453.5 529.5,453.5 544.5,453.5C 544.5,483.833 544.5,514.167 544.5,544.5C 529.5,544.5 514.5,544.5 499.5,544.5C 499.5,529.5 499.5,514.5 499.5,499.5C 499.5,484.167 499.5,468.833 499.5,453.5 Z"/></g>
<g><path style="opacity:1" fill="#2aa0af" d="M 544.5,453.5 C 574.833,453.5 605.167,453.5 635.5,453.5C 665.833,453.5 696.167,453.5 726.5,453.5C 726.5,483.833 726.5,514.167 726.5,544.5C 665.833,544.5 605.167,544.5 544.5,544.5C 544.5,514.167 544.5,483.833 544.5,453.5 Z"/></g>
<g><path style="opacity:1" fill="#443c2e" d="M 726.5,590.5 C 817.5,590.5 908.5,590.5 999.5,590.5C 999.5,711.5 999.5,832.5 999.5,953.5C 817.833,953.5 636.167,953.5 454.5,953.5C 454.5,832.5 454.5,711.5 454.5,590.5C 545.167,590.5 635.833,590.5 726.5,590.5 Z"/></g>
<g><path style="opacity:1" fill="#855106" d="M 226.5,680.5 C 287.167,680.5 347.833,680.5 408.5,680.5C 408.5,741.167 408.5,801.833 408.5,862.5C 347.833,862.5 287.167,862.5 226.5,862.5C 226.5,801.833 226.5,741.167 226.5,680.5 Z"/></g>
<g><path style="opacity:1" fill="#a66e1e" d="M 544.5,680.5 C 665.833,680.5 787.167,680.5 908.5,680.5C 908.5,741.167 908.5,801.833 908.5,862.5C 787.167,862.5 665.833,862.5 544.5,862.5C 544.5,801.833 544.5,741.167 544.5,680.5 Z"/></g>
</svg>
