<?xml version="1.0" encoding="UTF-8"?>
<!DOCTYPE svg PUBLIC "-//W3C//DTD SVG 1.1//EN" "http://www.w3.org/Graphics/SVG/1.1/DTD/svg11.dtd">
<svg xmlns="http://www.w3.org/2000/svg" version="1.1" width="1000px" height="1000px" style="shape-rendering:geometricPrecision; text-rendering:geometricPrecision; image-rendering:optimizeQuality; fill-rule:evenodd; clip-rule:evenodd" xmlns:xlink="http://www.w3.org/1999/xlink">
<g><path style="opacity:1" fill="#016f2e" d="M 466.5,65.5 C 466.5,110.167 466.5,154.833 466.5,199.5C 444.167,199.5 421.833,199.5 399.5,199.5C 399.5,154.833 399.5,110.167 399.5,65.5C 421.833,65.5 444.167,65.5 466.5,65.5 Z"/></g>
<g><path style="opacity:1" fill="#019330" d="M 466.5,65.5 C 510.833,65.5 555.167,65.5 599.5,65.5C 599.5,110.167 599.5,154.833 599.5,199.5C 621.5,199.5 643.5,199.5 665.5,199.5C 665.5,244.167 665.5,288.833 665.5,333.5C 643.5,333.5 621.5,333.5 599.5,333.5C 577.167,333.5 554.833,333.5 532.5,333.5C 532.5,377.833 532.5,422.167 532.5,466.5C 510.5,466.5 488.5,466.5 466.5,466.5C 444.167,466.5 421.833,466.5 399.5,466.5C 399.5,377.5 399.5,288.5 399.5,199.5C 421.833,199.5 444.167,199.5 466.5,199.5C 466.5,154.833 466.5,110.167 466.5,65.5 Z"/></g>
<g><path style="opacity:1" fill="#959695" d="M 199.5,199.5 C 199.5,421.5 199.5,643.5 199.5,865.5C 177.167,865.5 154.833,865.5 132.5,865.5C 132.5,776.833 132.5,688.167 132.5,599.5C 132.5,554.833 132.5,510.167 132.5,465.5C 132.5,376.833 132.5,288.167 132.5,199.5C 154.833,199.5 177.167,199.5 199.5,199.5 Z"/></g>
<g><path style="opacity:1" fill="#c5c6c5" d="M 199.5,199.5 C 266.167,199.5 332.833,199.5 399.5,199.5C 399.5,288.5 399.5,377.5 399.5,466.5C 399.5,510.833 399.5,555.167 399.5,599.5C 421.833,599.5 444.167,599.5 466.5,599.5C 466.5,555.167 466.5,510.833 466.5,466.5C 488.5,466.5 510.5,466.5 532.5,466.5C 554.833,466.5 577.167,466.5 599.5,466.5C 599.5,422.167 599.5,377.833 599.5,333.5C 621.5,333.5 643.5,333.5 665.5,333.5C 687.833,333.5 710.167,333.5 732.5,333.5C 732.5,288.833 732.5,244.167 732.5,199.5C 821.167,199.5 909.833,199.5 998.5,199.5C 998.5,244.167 998.5,288.833 998.5,333.5C 954.5,333.5 910.5,333.5 866.5,333.5C 865.501,377.664 865.168,421.997 865.5,466.5C 821.167,466.5 776.833,466.5 732.5,466.5C 732.5,510.833 732.5,555.167 732.5,599.5C 688.167,599.5 643.833,599.5 599.5,599.5C 599.5,643.833 599.5,688.167 599.5,732.5C 555.167,732.5 510.833,732.5 466.5,732.5C 466.5,776.833 466.5,821.167 466.5,865.5C 444.167,865.5 421.833,865.5 399.5,865.5C 332.833,865.5 266.167,865.5 199.5,865.5C 199.5,643.5 199.5,421.5 199.5,199.5 Z"/></g>
<g><path style="opacity:1" fill="#959695" d="M 665.5,199.5 C 687.833,199.5 710.167,199.5 732.5,199.5C 732.5,244.167 732.5,288.833 732.5,333.5C 710.167,333.5 687.833,333.5 665.5,333.5C 665.5,288.833 665.5,244.167 665.5,199.5 Z"/></g>
<g><path style="opacity:1" fill="#959695" d="M 599.5,333.5 C 599.5,377.833 599.5,422.167 599.5,466.5C 577.167,466.5 554.833,466.5 532.5,466.5C 532.5,422.167 532.5,377.833 532.5,333.5C 554.833,333.5 577.167,333.5 599.5,333.5 Z"/></g>
<g><path style="opacity:1" fill="#019330" d="M 866.5,333.5 C 866.5,377.5 866.5,421.5 866.5,465.5C 910.833,465.5 955.167,465.5 999.5,465.5C 999.5,510.167 999.5,554.833 999.5,599.5C 955.167,599.5 910.833,599.5 866.5,599.5C 866.5,643.833 866.5,688.167 866.5,732.5C 822.167,732.5 777.833,732.5 733.5,732.5C 733.5,776.833 733.5,821.167 733.5,865.5C 688.833,865.5 644.167,865.5 599.5,865.5C 599.5,909.833 599.5,954.167 599.5,998.5C 555.167,998.5 510.833,998.5 466.5,998.5C 466.5,954.167 466.5,909.833 466.5,865.5C 466.5,821.167 466.5,776.833 466.5,732.5C 510.833,732.5 555.167,732.5 599.5,732.5C 599.5,688.167 599.5,643.833 599.5,599.5C 643.833,599.5 688.167,599.5 732.5,599.5C 732.5,555.167 732.5,510.833 732.5,466.5C 776.833,466.5 821.167,466.5 865.5,466.5C 865.168,421.997 865.501,377.664 866.5,333.5 Z"/></g>
<g><path style="opacity:1" fill="#016f2e" d="M -0.5,465.5 C 21.8333,465.5 44.1667,465.5 66.5,465.5C 66.5,510.167 66.5,554.833 66.5,599.5C 44.1667,599.5 21.8333,599.5 -0.5,599.5C -0.5,554.833 -0.5,510.167 -0.5,465.5 Z"/></g>
<g><path style="opacity:1" fill="#019330" d="M 66.5,465.5 C 88.5,465.5 110.5,465.5 132.5,465.5C 132.5,510.167 132.5,554.833 132.5,599.5C 110.5,599.5 88.5,599.5 66.5,599.5C 66.5,554.833 66.5,510.167 66.5,465.5 Z"/></g>
<g><path style="opacity:1" fill="#959695" d="M 399.5,466.5 C 421.833,466.5 444.167,466.5 466.5,466.5C 466.5,510.833 466.5,555.167 466.5,599.5C 444.167,599.5 421.833,599.5 399.5,599.5C 399.5,555.167 399.5,510.833 399.5,466.5 Z"/></g>
<g><path style="opacity:1" fill="#016f2e" d="M 399.5,865.5 C 421.833,865.5 444.167,865.5 466.5,865.5C 466.5,909.833 466.5,954.167 466.5,998.5C 444.167,998.5 421.833,998.5 399.5,998.5C 399.5,954.167 399.5,909.833 399.5,865.5 Z"/></g>
</svg>
