<svg viewBox="0 0 750 700" xmlns="http://www.w3.org/2000/svg"><rect x="300" y="0" width="100" height="700" fill="#016f2f" /><rect x="250" y="100" width="300" height="500" fill="#019331" /><rect x="350" y="0" width="100" height="700" fill="#019331" /><rect x="0" y="300" width="100" height="100" fill="#016f2f" /><rect x="50" y="300" width="700" height="100" fill="#019331" /><rect x="450" y="300" width="200" height="200" fill="#019331" /><rect x="100" y="100" width="100" height="500" fill="#969696" /><rect x="250" y="300" width="150" height="150" fill="#969696" /><rect x="400" y="200" width="150" height="150" fill="#969696" /><rect x="500" y="100" width="100" height="150" fill="#969696" /><rect x="150" y="100" width="150" height="500" fill="#c6c6c6" /><rect x="250" y="400" width="100" height="200" fill="#c6c6c6" /><rect x="350" y="300" width="100" height="200" fill="#c6c6c6" /><rect x="450" y="200" width="100" height="200" fill="#c6c6c6" /><rect x="550" y="100" width="100" height="200" fill="#c6c6c6" /><rect x="550" y="100" width="200" height="100" fill="#c6c6c6" /><rect x="200" y="400" width="200" height="100" fill="#c6c6c6" /><rect x="400" y="300" width="100" height="100" fill="#c6c6c6" /><rect x="500" y="200" width="100" height="100" fill="#c6c6c6" /></svg>