<?xml version="1.0" encoding="UTF-8"?>
<!DOCTYPE svg PUBLIC "-//W3C//DTD SVG 1.1//EN" "http://www.w3.org/Graphics/SVG/1.1/DTD/svg11.dtd">
<svg xmlns="http://www.w3.org/2000/svg" version="1.1" width="1000px" height="857px" style="shape-rendering:geometricPrecision; text-rendering:geometricPrecision; image-rendering:optimizeQuality; fill-rule:evenodd; clip-rule:evenodd" xmlns:xlink="http://www.w3.org/1999/xlink">
<g><path style="opacity:1" fill="#7152aa" d="M 570.5,-0.5 C 618.167,-0.5 665.833,-0.5 713.5,-0.5C 713.5,94.8333 713.5,190.167 713.5,285.5C 665.833,285.5 618.167,285.5 570.5,285.5C 570.5,333.167 570.5,380.833 570.5,428.5C 523.167,428.5 475.833,428.5 428.5,428.5C 428.5,380.833 428.5,333.167 428.5,285.5C 428.5,237.833 428.5,190.167 428.5,142.5C 475.833,142.5 523.167,142.5 570.5,142.5C 570.5,94.8333 570.5,47.1667 570.5,-0.5 Z"/></g>
<g><path style="opacity:1" fill="#ca95f8" d="M 713.5,-0.5 C 761.167,-0.5 808.833,-0.5 856.5,-0.5C 856.5,47.1667 856.5,94.8333 856.5,142.5C 904.167,142.5 951.833,142.5 999.5,142.5C 999.5,332.833 999.5,523.167 999.5,713.5C 951.833,713.5 904.167,713.5 856.5,713.5C 856.5,761.167 856.5,808.833 856.5,856.5C 808.833,856.5 761.167,856.5 713.5,856.5C 713.5,761.167 713.5,665.833 713.5,570.5C 713.5,475.5 713.5,380.5 713.5,285.5C 713.5,190.167 713.5,94.8333 713.5,-0.5 Z"/></g>
<g><path style="opacity:1" fill="#a579dd" d="M 285.5,285.5 C 237.833,285.5 190.167,285.5 142.5,285.5C 142.5,237.833 142.5,190.167 142.5,142.5C 190.167,142.5 237.833,142.5 285.5,142.5C 285.5,190.167 285.5,237.833 285.5,285.5 Z"/></g>
<g><path style="opacity:1" fill="#573f86" d="M -0.5,285.5 C 47.1667,285.5 94.8333,285.5 142.5,285.5C 142.5,380.5 142.5,475.5 142.5,570.5C 94.8333,570.5 47.1667,570.5 -0.5,570.5C -0.5,475.5 -0.5,380.5 -0.5,285.5 Z"/></g>
<g><path style="opacity:1" fill="#a579dd" d="M 285.5,285.5 C 333.167,285.5 380.833,285.5 428.5,285.5C 428.5,333.167 428.5,380.833 428.5,428.5C 475.833,428.5 523.167,428.5 570.5,428.5C 570.5,475.833 570.5,523.167 570.5,570.5C 618.167,570.5 665.833,570.5 713.5,570.5C 713.5,665.833 713.5,761.167 713.5,856.5C 665.833,856.5 618.167,856.5 570.5,856.5C 570.5,808.833 570.5,761.167 570.5,713.5C 523.167,713.5 475.833,713.5 428.5,713.5C 428.5,665.833 428.5,618.167 428.5,570.5C 380.833,570.5 333.167,570.5 285.5,570.5C 285.5,475.5 285.5,380.5 285.5,285.5 Z"/></g>
<g><path style="opacity:1" fill="#7152aa" d="M 142.5,570.5 C 190.167,570.5 237.833,570.5 285.5,570.5C 285.5,618.167 285.5,665.833 285.5,713.5C 237.833,713.5 190.167,713.5 142.5,713.5C 142.5,665.833 142.5,618.167 142.5,570.5 Z"/></g>
</svg>
