<?xml version="1.0" encoding="UTF-8"?>
<!DOCTYPE svg PUBLIC "-//W3C//DTD SVG 1.1//EN" "http://www.w3.org/Graphics/SVG/1.1/DTD/svg11.dtd">
<svg xmlns="http://www.w3.org/2000/svg" version="1.1" width="256px" height="256px" style="shape-rendering:geometricPrecision; text-rendering:geometricPrecision; image-rendering:optimizeQuality; fill-rule:evenodd; clip-rule:evenodd" xmlns:xlink="http://www.w3.org/1999/xlink">
<g><path style="opacity:1" fill="#639bff" d="M 170.5,0.5 C 170.5,28.8333 170.5,57.1667 170.5,85.5C 156.167,85.5 141.833,85.5 127.5,85.5C 127.5,99.5 127.5,113.5 127.5,127.5C 113.5,127.5 99.5,127.5 85.5,127.5C 85.5,113.5 85.5,99.5 85.5,85.5C 85.5,71.1667 85.5,56.8333 85.5,42.5C 99.5,42.5 113.5,42.5 127.5,42.5C 127.5,28.5 127.5,14.5 127.5,0.5C 141.833,0.5 156.167,0.5 170.5,0.5 Z"/></g>
<g><path style="opacity:1" fill="#5fcde3" d="M 170.5,0.5 C 184.833,0.5 199.167,0.5 213.5,0.5C 213.5,14.5 213.5,28.5 213.5,42.5C 227.5,42.5 241.5,42.5 255.5,42.5C 255.5,99.5 255.5,156.5 255.5,213.5C 241.5,213.5 227.5,213.5 213.5,213.5C 213.5,227.5 213.5,241.5 213.5,255.5C 199.167,255.5 184.833,255.5 170.5,255.5C 170.5,227.167 170.5,198.833 170.5,170.5C 170.5,142.167 170.5,113.833 170.5,85.5C 170.5,57.1667 170.5,28.8333 170.5,0.5 Z"/></g>
<g><path style="opacity:1" fill="#5b6ee1" d="M 42.5,85.5 C 28.5,85.5 14.5,85.5 0.5,85.5C 0.5,71.1667 0.5,56.8333 0.5,42.5C 14.5,42.5 28.5,42.5 42.5,42.5C 42.5,56.8333 42.5,71.1667 42.5,85.5 Z"/></g>
<g><path style="opacity:1" fill="#5b6ee1" d="M 42.5,85.5 C 56.8333,85.5 71.1667,85.5 85.5,85.5C 85.5,99.5 85.5,113.5 85.5,127.5C 99.5,127.5 113.5,127.5 127.5,127.5C 127.5,141.833 127.5,156.167 127.5,170.5C 141.833,170.5 156.167,170.5 170.5,170.5C 170.5,198.833 170.5,227.167 170.5,255.5C 156.167,255.5 141.833,255.5 127.5,255.5C 127.5,241.5 127.5,227.5 127.5,213.5C 113.5,213.5 99.5,213.5 85.5,213.5C 85.5,199.167 85.5,184.833 85.5,170.5C 71.1667,170.5 56.8333,170.5 42.5,170.5C 42.5,142.167 42.5,113.833 42.5,85.5 Z"/></g>
<g><path style="opacity:1" fill="#639bff" d="M 42.5,170.5 C 42.5,184.833 42.5,199.167 42.5,213.5C 28.5,213.5 14.5,213.5 0.5,213.5C 0.5,199.167 0.5,184.833 0.5,170.5C 14.5,170.5 28.5,170.5 42.5,170.5 Z"/></g>
</svg>
