<?xml version="1.0" encoding="UTF-8"?>
<!DOCTYPE svg PUBLIC "-//W3C//DTD SVG 1.1//EN" "http://www.w3.org/Graphics/SVG/1.1/DTD/svg11.dtd">
<svg xmlns="http://www.w3.org/2000/svg" version="1.1" width="256px" height="256px" style="shape-rendering:geometricPrecision; text-rendering:geometricPrecision; image-rendering:optimizeQuality; fill-rule:evenodd; clip-rule:evenodd" xmlns:xlink="http://www.w3.org/1999/xlink">
<g><path style="opacity:0.99" fill="#757575" d="M 127.5,11.5 C 127.5,19.1667 127.5,26.8333 127.5,34.5C 116.167,34.5 104.833,34.5 93.5,34.5C 93.5,30.8333 93.5,27.1667 93.5,23.5C 93.5,19.5 93.5,15.5 93.5,11.5C 104.833,11.5 116.167,11.5 127.5,11.5 Z"/></g>
<g><path style="opacity:0.805" fill="#a4a4a4" d="M 127.5,11.5 C 139.167,11.5 150.833,11.5 162.5,11.5C 162.5,15.5 162.5,19.5 162.5,23.5C 158.833,23.5 155.167,23.5 151.5,23.5C 151.5,27.1667 151.5,30.8333 151.5,34.5C 143.5,34.5 135.5,34.5 127.5,34.5C 127.5,26.8333 127.5,19.1667 127.5,11.5 Z"/></g>
<g><path style="opacity:0.965" fill="#1d1a14" d="M 93.5,23.5 C 93.5,27.1667 93.5,30.8333 93.5,34.5C 104.833,34.5 116.167,34.5 127.5,34.5C 135.5,34.5 143.5,34.5 151.5,34.5C 151.5,30.8333 151.5,27.1667 151.5,23.5C 155.167,23.5 158.833,23.5 162.5,23.5C 162.5,31.1667 162.5,38.8333 162.5,46.5C 154.833,46.5 147.167,46.5 139.5,46.5C 131.833,46.5 124.167,46.5 116.5,46.5C 108.833,46.5 101.167,46.5 93.5,46.5C 85.5,46.5 77.5,46.5 69.5,46.5C 69.5,77.5 69.5,108.5 69.5,139.5C 77.5,139.5 85.5,139.5 93.5,139.5C 101.167,139.5 108.833,139.5 116.5,139.5C 124.167,139.5 131.833,139.5 139.5,139.5C 147.167,139.5 154.833,139.5 162.5,139.5C 162.5,147.167 162.5,154.833 162.5,162.5C 147.167,162.5 131.833,162.5 116.5,162.5C 116.5,193.5 116.5,224.5 116.5,255.5C 93.1667,255.5 69.8333,255.5 46.5,255.5C 46.5,228.5 46.5,201.5 46.5,174.5C 31.1667,174.5 15.8333,174.5 0.5,174.5C 0.5,124.167 0.5,73.8333 0.5,23.5C 31.5,23.5 62.5,23.5 93.5,23.5 Z"/></g>
<g><path style="opacity:1" fill="#639bff" d="M 162.5,23.5 C 170.5,23.5 178.5,23.5 186.5,23.5C 186.5,38.8333 186.5,54.1667 186.5,69.5C 178.5,69.5 170.5,69.5 162.5,69.5C 162.5,77.5 162.5,85.5 162.5,93.5C 154.833,93.5 147.167,93.5 139.5,93.5C 139.5,85.5 139.5,77.5 139.5,69.5C 139.5,61.8333 139.5,54.1667 139.5,46.5C 147.167,46.5 154.833,46.5 162.5,46.5C 162.5,38.8333 162.5,31.1667 162.5,23.5 Z"/></g>
<g><path style="opacity:1" fill="#5fcde3" d="M 186.5,23.5 C 194.167,23.5 201.833,23.5 209.5,23.5C 209.5,31.1667 209.5,38.8333 209.5,46.5C 217.167,46.5 224.833,46.5 232.5,46.5C 232.5,77.5 232.5,108.5 232.5,139.5C 224.833,139.5 217.167,139.5 209.5,139.5C 209.5,147.167 209.5,154.833 209.5,162.5C 201.833,162.5 194.167,162.5 186.5,162.5C 186.5,147.167 186.5,131.833 186.5,116.5C 186.5,100.833 186.5,85.1667 186.5,69.5C 186.5,54.1667 186.5,38.8333 186.5,23.5 Z"/></g>
<g><path style="opacity:1" fill="#845007" d="M 11.5,46.5 C 19.1667,46.5 26.8333,46.5 34.5,46.5C 34.5,77.5 34.5,108.5 34.5,139.5C 26.8333,139.5 19.1667,139.5 11.5,139.5C 11.5,108.5 11.5,77.5 11.5,46.5 Z"/></g>
<g><path style="opacity:1" fill="#5b6ee1" d="M 93.5,46.5 C 101.167,46.5 108.833,46.5 116.5,46.5C 116.5,54.1667 116.5,61.8333 116.5,69.5C 108.833,69.5 101.167,69.5 93.5,69.5C 93.5,61.8333 93.5,54.1667 93.5,46.5 Z"/></g>
<g><path style="opacity:1" fill="#683e05" d="M 116.5,46.5 C 124.167,46.5 131.833,46.5 139.5,46.5C 139.5,54.1667 139.5,61.8333 139.5,69.5C 131.833,69.5 124.167,69.5 116.5,69.5C 116.5,61.8333 116.5,54.1667 116.5,46.5 Z"/></g>
<g><path style="opacity:1" fill="#683e05" d="M 93.5,46.5 C 93.5,54.1667 93.5,61.8333 93.5,69.5C 101.167,69.5 108.833,69.5 116.5,69.5C 116.5,85.1667 116.5,100.833 116.5,116.5C 108.833,116.5 101.167,116.5 93.5,116.5C 93.5,124.167 93.5,131.833 93.5,139.5C 85.5,139.5 77.5,139.5 69.5,139.5C 69.5,108.5 69.5,77.5 69.5,46.5C 77.5,46.5 85.5,46.5 93.5,46.5 Z"/></g>
<g><path style="opacity:1" fill="#5b6ee1" d="M 116.5,69.5 C 124.167,69.5 131.833,69.5 139.5,69.5C 139.5,77.5 139.5,85.5 139.5,93.5C 147.167,93.5 154.833,93.5 162.5,93.5C 162.5,101.167 162.5,108.833 162.5,116.5C 170.5,116.5 178.5,116.5 186.5,116.5C 186.5,131.833 186.5,147.167 186.5,162.5C 178.5,162.5 170.5,162.5 162.5,162.5C 162.5,154.833 162.5,147.167 162.5,139.5C 154.833,139.5 147.167,139.5 139.5,139.5C 139.5,131.833 139.5,124.167 139.5,116.5C 131.833,116.5 124.167,116.5 116.5,116.5C 116.5,100.833 116.5,85.1667 116.5,69.5 Z"/></g>
<g><path style="opacity:1" fill="#1c1c17" d="M 186.5,69.5 C 186.5,85.1667 186.5,100.833 186.5,116.5C 178.5,116.5 170.5,116.5 162.5,116.5C 162.5,108.833 162.5,101.167 162.5,93.5C 162.5,85.5 162.5,77.5 162.5,69.5C 170.5,69.5 178.5,69.5 186.5,69.5 Z"/></g>
<g><path style="opacity:1" fill="#639bff" d="M 116.5,116.5 C 116.5,124.167 116.5,131.833 116.5,139.5C 108.833,139.5 101.167,139.5 93.5,139.5C 93.5,131.833 93.5,124.167 93.5,116.5C 101.167,116.5 108.833,116.5 116.5,116.5 Z"/></g>
<g><path style="opacity:1" fill="#683f04" d="M 116.5,116.5 C 124.167,116.5 131.833,116.5 139.5,116.5C 139.5,124.167 139.5,131.833 139.5,139.5C 131.833,139.5 124.167,139.5 116.5,139.5C 116.5,131.833 116.5,124.167 116.5,116.5 Z"/></g>
<g><path style="opacity:1" fill="#453c2e" d="M 162.5,162.5 C 170.5,162.5 178.5,162.5 186.5,162.5C 194.167,162.5 201.833,162.5 209.5,162.5C 224.833,162.5 240.167,162.5 255.5,162.5C 255.5,193.5 255.5,224.5 255.5,255.5C 209.167,255.5 162.833,255.5 116.5,255.5C 116.5,224.5 116.5,193.5 116.5,162.5C 131.833,162.5 147.167,162.5 162.5,162.5 Z"/></g>
<g><path style="opacity:1" fill="#855007" d="M 58.5,186.5 C 73.8333,186.5 89.1667,186.5 104.5,186.5C 104.5,201.833 104.5,217.167 104.5,232.5C 89.1667,232.5 73.8333,232.5 58.5,232.5C 58.5,217.167 58.5,201.833 58.5,186.5 Z"/></g>
<g><path style="opacity:1" fill="#a66d1f" d="M 139.5,186.5 C 170.5,186.5 201.5,186.5 232.5,186.5C 232.5,201.833 232.5,217.167 232.5,232.5C 201.5,232.5 170.5,232.5 139.5,232.5C 139.5,217.167 139.5,201.833 139.5,186.5 Z"/></g>
</svg>
