<?xml version="1.0" encoding="UTF-8"?>
<!DOCTYPE svg PUBLIC "-//W3C//DTD SVG 1.1//EN" "http://www.w3.org/Graphics/SVG/1.1/DTD/svg11.dtd">
<svg xmlns="http://www.w3.org/2000/svg" version="1.1" width="916px" height="1000px" style="shape-rendering:geometricPrecision; text-rendering:geometricPrecision; image-rendering:optimizeQuality; fill-rule:evenodd; clip-rule:evenodd" xmlns:xlink="http://www.w3.org/1999/xlink">
<g><path style="opacity:1" fill="#972014" d="M 166.5,-0.5 C 194.167,-0.5 221.833,-0.5 249.5,-0.5C 249.5,55.1667 249.5,110.833 249.5,166.5C 221.833,166.5 194.167,166.5 166.5,166.5C 166.5,110.833 166.5,55.1667 166.5,-0.5 Z"/></g>
<g><path style="opacity:1" fill="#c82a1a" d="M 249.5,-0.5 C 415.833,-0.5 582.167,-0.5 748.5,-0.5C 748.5,55.1667 748.5,110.833 748.5,166.5C 804.167,166.5 859.833,166.5 915.5,166.5C 915.5,333.167 915.5,499.833 915.5,666.5C 859.833,666.5 804.167,666.5 748.5,666.5C 748.5,721.833 748.5,777.167 748.5,832.5C 693.167,832.5 637.833,832.5 582.5,832.5C 582.5,888.167 582.5,943.833 582.5,999.5C 526.833,999.5 471.167,999.5 415.5,999.5C 415.5,943.833 415.5,888.167 415.5,832.5C 387.833,832.5 360.167,832.5 332.5,832.5C 304.833,832.5 277.167,832.5 249.5,832.5C 249.5,777.167 249.5,721.833 249.5,666.5C 221.833,666.5 194.167,666.5 166.5,666.5C 138.5,666.5 110.5,666.5 82.5,666.5C 82.5,499.833 82.5,333.167 82.5,166.5C 110.5,166.5 138.5,166.5 166.5,166.5C 194.167,166.5 221.833,166.5 249.5,166.5C 249.5,110.833 249.5,55.1667 249.5,-0.5 Z M 499.5,166.5 C 499.5,221.833 499.5,277.167 499.5,332.5C 527.167,332.5 554.833,332.5 582.5,332.5C 610.167,332.5 637.833,332.5 665.5,332.5C 665.5,388.167 665.5,443.833 665.5,499.5C 637.833,499.5 610.167,499.5 582.5,499.5C 554.833,499.5 527.167,499.5 499.5,499.5C 499.5,555.167 499.5,610.833 499.5,666.5C 471.5,666.5 443.5,666.5 415.5,666.5C 415.5,610.833 415.5,555.167 415.5,499.5C 360.167,499.5 304.833,499.5 249.5,499.5C 249.5,443.833 249.5,388.167 249.5,332.5C 304.833,332.5 360.167,332.5 415.5,332.5C 415.5,277.167 415.5,221.833 415.5,166.5C 443.5,166.5 471.5,166.5 499.5,166.5 Z"/></g>
<g><path style="opacity:1" fill="#972014" d="M -0.5,166.5 C 27.1667,166.5 54.8333,166.5 82.5,166.5C 82.5,333.167 82.5,499.833 82.5,666.5C 54.8333,666.5 27.1667,666.5 -0.5,666.5C -0.5,499.833 -0.5,333.167 -0.5,166.5 Z"/></g>
<g><path style="opacity:1" fill="#972014" d="M 499.5,166.5 C 527.167,166.5 554.833,166.5 582.5,166.5C 582.5,221.833 582.5,277.167 582.5,332.5C 554.833,332.5 527.167,332.5 499.5,332.5C 499.5,277.167 499.5,221.833 499.5,166.5 Z"/></g>
<g><path style="opacity:1" fill="#972014" d="M 665.5,332.5 C 693.167,332.5 720.833,332.5 748.5,332.5C 748.5,388.167 748.5,443.833 748.5,499.5C 720.833,499.5 693.167,499.5 665.5,499.5C 665.5,443.833 665.5,388.167 665.5,332.5 Z"/></g>
<g><path style="opacity:1" fill="#972014" d="M 582.5,499.5 C 582.5,555.167 582.5,610.833 582.5,666.5C 554.833,666.5 527.167,666.5 499.5,666.5C 499.5,610.833 499.5,555.167 499.5,499.5C 527.167,499.5 554.833,499.5 582.5,499.5 Z"/></g>
<g><path style="opacity:1" fill="#972014" d="M 166.5,666.5 C 194.167,666.5 221.833,666.5 249.5,666.5C 249.5,721.833 249.5,777.167 249.5,832.5C 221.833,832.5 194.167,832.5 166.5,832.5C 166.5,777.167 166.5,721.833 166.5,666.5 Z"/></g>
<g><path style="opacity:1" fill="#972014" d="M 332.5,832.5 C 360.167,832.5 387.833,832.5 415.5,832.5C 415.5,888.167 415.5,943.833 415.5,999.5C 387.833,999.5 360.167,999.5 332.5,999.5C 332.5,943.833 332.5,888.167 332.5,832.5 Z"/></g>
</svg>
