<svg viewBox="0 0 550 600" xmlns="http://www.w3.org/2000/svg"><rect x="200" y="450" width="100" height="150" fill="#982015" /><rect x="250" y="450" width="100" height="150" fill="#c92a1b" /><rect x="100" y="350" width="100" height="150" fill="#982015" /><rect x="300" y="300" width="100" height="150" fill="#982015" /><rect x="400" y="150" width="100" height="200" fill="#982015" /><rect x="300" y="50" width="100" height="150" fill="#982015" /><rect x="0" y="100" width="100" height="300" fill="#982015" /><rect x="100" y="0" width="100" height="150" fill="#982015" /><rect x="150" y="400" width="300" height="100" fill="#c92a1b" /><rect x="350" y="300" width="200" height="100" fill="#c92a1b" /><rect x="450" y="150" width="100" height="200" fill="#c92a1b" /><rect x="350" y="100" width="200" height="100" fill="#c92a1b" /><rect x="150" y="0" width="300" height="100" fill="#c92a1b" /><rect x="50" y="100" width="200" height="100" fill="#c92a1b" /><rect x="50" y="150" width="100" height="200" fill="#c92a1b" /><rect x="50" y="300" width="200" height="100" fill="#c92a1b" /></svg>