<?xml version="1.0" encoding="UTF-8"?>
<!DOCTYPE svg PUBLIC "-//W3C//DTD SVG 1.1//EN" "http://www.w3.org/Graphics/SVG/1.1/DTD/svg11.dtd">
<svg xmlns="http://www.w3.org/2000/svg" version="1.1" width="1000px" height="875px" style="shape-rendering:geometricPrecision; text-rendering:geometricPrecision; image-rendering:optimizeQuality; fill-rule:evenodd; clip-rule:evenodd" xmlns:xlink="http://www.w3.org/1999/xlink">
<g><path style="opacity:1" fill="#6a3cb5" d="M -0.5,-0.5 C 41.1667,-0.5 82.8333,-0.5 124.5,-0.5C 124.5,291.167 124.5,582.833 124.5,874.5C 82.8333,874.5 41.1667,874.5 -0.5,874.5C -0.5,582.833 -0.5,291.167 -0.5,-0.5 Z"/></g>
<g><path style="opacity:1" fill="#654ff0" d="M 124.5,-0.5 C 207.833,-0.5 291.167,-0.5 374.5,-0.5C 374.5,41.1667 374.5,82.8333 374.5,124.5C 457.833,124.5 541.167,124.5 624.5,124.5C 666.167,124.5 707.833,124.5 749.5,124.5C 749.5,82.8333 749.5,41.1667 749.5,-0.5C 832.833,-0.5 916.167,-0.5 999.5,-0.5C 999.5,291.167 999.5,582.833 999.5,874.5C 707.833,874.5 416.167,874.5 124.5,874.5C 124.5,582.833 124.5,291.167 124.5,-0.5 Z"/></g>
<g><path style="opacity:1" fill="#6a3cb5" d="M 624.5,-0.5 C 666.167,-0.5 707.833,-0.5 749.5,-0.5C 749.5,41.1667 749.5,82.8333 749.5,124.5C 707.833,124.5 666.167,124.5 624.5,124.5C 624.5,82.8333 624.5,41.1667 624.5,-0.5 Z"/></g>
<g><path style="opacity:1" fill="#fefffe" d="M 374.5,624.5 C 374.5,645.167 374.5,665.833 374.5,686.5C 353.5,686.5 332.5,686.5 311.5,686.5C 311.5,707.5 311.5,728.5 311.5,749.5C 290.833,749.5 270.167,749.5 249.5,749.5C 249.5,645.167 249.5,540.833 249.5,436.5C 270.167,436.5 290.833,436.5 311.5,436.5C 311.5,499.167 311.5,561.833 311.5,624.5C 332.5,624.5 353.5,624.5 374.5,624.5 Z"/></g>
<g><path style="opacity:1" fill="#fefffe" d="M 436.5,624.5 C 457.5,624.5 478.5,624.5 499.5,624.5C 499.5,561.833 499.5,499.167 499.5,436.5C 520.167,436.5 540.833,436.5 561.5,436.5C 561.5,540.833 561.5,645.167 561.5,749.5C 540.833,749.5 520.167,749.5 499.5,749.5C 499.5,728.5 499.5,707.5 499.5,686.5C 478.5,686.5 457.5,686.5 436.5,686.5C 436.5,665.833 436.5,645.167 436.5,624.5 Z"/></g>
<g><path style="opacity:1" fill="#fefffe" d="M 874.5,499.5 C 811.833,499.5 749.167,499.5 686.5,499.5C 686.5,478.5 686.5,457.5 686.5,436.5C 749.167,436.5 811.833,436.5 874.5,436.5C 874.5,457.5 874.5,478.5 874.5,499.5 Z"/></g>
<g><path style="opacity:1" fill="#fefffe" d="M 686.5,499.5 C 686.5,541.167 686.5,582.833 686.5,624.5C 749.167,624.5 811.833,624.5 874.5,624.5C 874.5,582.833 874.5,541.167 874.5,499.5C 895.167,499.5 915.833,499.5 936.5,499.5C 936.5,582.833 936.5,666.167 936.5,749.5C 915.833,749.5 895.167,749.5 874.5,749.5C 874.5,728.5 874.5,707.5 874.5,686.5C 811.833,686.5 749.167,686.5 686.5,686.5C 686.5,707.5 686.5,728.5 686.5,749.5C 665.833,749.5 645.167,749.5 624.5,749.5C 624.5,666.167 624.5,582.833 624.5,499.5C 645.167,499.5 665.833,499.5 686.5,499.5 Z"/></g>
<g><path style="opacity:1" fill="#654ff0" d="M 686.5,499.5 C 749.167,499.5 811.833,499.5 874.5,499.5C 874.5,541.167 874.5,582.833 874.5,624.5C 811.833,624.5 749.167,624.5 686.5,624.5C 686.5,582.833 686.5,541.167 686.5,499.5 Z"/></g>
<g><path style="opacity:1" fill="#fefffe" d="M 436.5,624.5 C 415.833,624.5 395.167,624.5 374.5,624.5C 374.5,603.5 374.5,582.5 374.5,561.5C 395.167,561.5 415.833,561.5 436.5,561.5C 436.5,582.5 436.5,603.5 436.5,624.5 Z"/></g>
</svg>
