<svg viewBox="0 0 750 500" xmlns="http://www.w3.org/2000/svg"><rect x="0" y="0" width="100" height="150" fill="#929090" /><rect x="50" y="0" width="100" height="150" fill="#c1bebe" /><rect x="300" y="0" width="100" height="150" fill="#929090" /><rect x="350" y="0" width="100" height="150" fill="#c1bebe" /><rect x="0" y="100" width="250" height="400" fill="#929090" /><rect x="150" y="400" width="100" height="100" fill="#7e6c5f" /><rect x="200" y="350" width="150" height="150" fill="#a78f7e" /><rect x="200" y="100" width="500" height="300" fill="#c1bebe" /><rect x="200" y="200" width="500" height="100" fill="#ffffff" /><rect x="300" y="200" width="300" height="100" fill="#121416" /><rect x="400" y="200" width="100" height="150" fill="#a78f7e" /><rect x="300" y="350" width="100" height="150" fill="#7e6c5f" /><rect x="350" y="350" width="150" height="150" fill="#2b2e30" /><rect x="300" y="300" width="200" height="100" fill="#aca3a4" /><rect x="450" y="350" width="300" height="150" fill="#393c3f" /><rect x="450" y="300" width="300" height="100" fill="#e4d8d9" /><rect x="550" y="300" width="100" height="100" fill="#121416" /></svg>