<?xml version="1.0" encoding="UTF-8"?>
<!DOCTYPE svg PUBLIC "-//W3C//DTD SVG 1.1//EN" "http://www.w3.org/Graphics/SVG/1.1/DTD/svg11.dtd">
<svg xmlns="http://www.w3.org/2000/svg" version="1.1" width="1000px" height="857px" style="shape-rendering:geometricPrecision; text-rendering:geometricPrecision; image-rendering:optimizeQuality; fill-rule:evenodd; clip-rule:evenodd" xmlns:xlink="http://www.w3.org/1999/xlink">
<g><path style="opacity:1" fill="#887e4d" d="M 71.5,-0.5 C 95.1667,-0.5 118.833,-0.5 142.5,-0.5C 142.5,23.5 142.5,47.5 142.5,71.5C 118.833,71.5 95.1667,71.5 71.5,71.5C 71.5,47.5 71.5,23.5 71.5,-0.5 Z"/></g>
<g><path style="opacity:1" fill="#d1d2b1" d="M 142.5,-0.5 C 357.167,-0.5 571.833,-0.5 786.5,-0.5C 786.5,23.5 786.5,47.5 786.5,71.5C 595.833,71.5 405.167,71.5 214.5,71.5C 190.5,71.5 166.5,71.5 142.5,71.5C 142.5,47.5 142.5,23.5 142.5,-0.5 Z"/></g>
<g><path style="opacity:1" fill="#887e4d" d="M -0.5,71.5 C 23.5,71.5 47.5,71.5 71.5,71.5C 71.5,119.167 71.5,166.833 71.5,214.5C 47.5,214.5 23.5,214.5 -0.5,214.5C -0.5,166.833 -0.5,119.167 -0.5,71.5 Z"/></g>
<g><path style="opacity:1" fill="#73693a" d="M 71.5,71.5 C 95.1667,71.5 118.833,71.5 142.5,71.5C 142.5,119.167 142.5,166.833 142.5,214.5C 118.833,214.5 95.1667,214.5 71.5,214.5C 71.5,166.833 71.5,119.167 71.5,71.5 Z"/></g>
<g><path style="opacity:1" fill="#887e4d" d="M 142.5,71.5 C 166.5,71.5 190.5,71.5 214.5,71.5C 214.5,309.833 214.5,548.167 214.5,786.5C 190.5,786.5 166.5,786.5 142.5,786.5C 142.5,595.833 142.5,405.167 142.5,214.5C 142.5,166.833 142.5,119.167 142.5,71.5 Z"/></g>
<g><path style="opacity:1" fill="#bdbe9d" d="M 214.5,71.5 C 405.167,71.5 595.833,71.5 786.5,71.5C 810.167,71.5 833.833,71.5 857.5,71.5C 857.5,285.833 857.5,500.167 857.5,714.5C 690.833,714.5 524.167,714.5 357.5,714.5C 333.5,714.5 309.5,714.5 285.5,714.5C 285.5,738.5 285.5,762.5 285.5,786.5C 261.833,786.5 238.167,786.5 214.5,786.5C 214.5,548.167 214.5,309.833 214.5,71.5 Z"/></g>
<g><path style="opacity:1" fill="#615932" d="M 428.5,142.5 C 500.167,142.5 571.833,142.5 643.5,142.5C 643.5,214.167 643.5,285.833 643.5,357.5C 571.833,357.5 500.167,357.5 428.5,357.5C 428.5,285.833 428.5,214.167 428.5,142.5 Z"/></g>
<g><path style="opacity:1" fill="#615932" d="M 428.5,428.5 C 500.167,428.5 571.833,428.5 643.5,428.5C 643.5,500.167 643.5,571.833 643.5,643.5C 571.833,643.5 500.167,643.5 428.5,643.5C 428.5,571.833 428.5,500.167 428.5,428.5 Z"/></g>
<g><path style="opacity:1" fill="#887e4d" d="M 357.5,714.5 C 357.5,738.5 357.5,762.5 357.5,786.5C 333.5,786.5 309.5,786.5 285.5,786.5C 285.5,762.5 285.5,738.5 285.5,714.5C 309.5,714.5 333.5,714.5 357.5,714.5 Z"/></g>
<g><path style="opacity:1" fill="#d1d2b1" d="M 357.5,714.5 C 524.167,714.5 690.833,714.5 857.5,714.5C 904.833,714.5 952.167,714.5 999.5,714.5C 999.5,738.5 999.5,762.5 999.5,786.5C 976.167,786.5 952.833,786.5 929.5,786.5C 738.833,786.5 548.167,786.5 357.5,786.5C 357.5,762.5 357.5,738.5 357.5,714.5 Z"/></g>
<g><path style="opacity:1" fill="#887e4d" d="M 214.5,786.5 C 238.167,786.5 261.833,786.5 285.5,786.5C 285.5,809.833 285.5,833.167 285.5,856.5C 261.833,856.5 238.167,856.5 214.5,856.5C 214.5,833.167 214.5,809.833 214.5,786.5 Z"/></g>
<g><path style="opacity:1" fill="#bdbe9d" d="M 285.5,786.5 C 309.5,786.5 333.5,786.5 357.5,786.5C 548.167,786.5 738.833,786.5 929.5,786.5C 929.5,809.833 929.5,833.167 929.5,856.5C 714.833,856.5 500.167,856.5 285.5,856.5C 285.5,833.167 285.5,809.833 285.5,786.5 Z"/></g>
</svg>
