<svg viewBox="0 0 1150 700" xmlns="http://www.w3.org/2000/svg"><rect x="0" y="100" width="100" height="500" fill="#ba6516" /><rect x="50" y="500" width="200" height="100" fill="#f7a41d" /><rect x="50" y="100" width="100" height="500" fill="#f7a41d" /><rect x="50" y="100" width="200" height="100" fill="#f7a41d" /><rect x="900" y="500" width="200" height="100" fill="#ba6516" /><rect x="1000" y="100" width="100" height="500" fill="#ba6516" /><rect x="900" y="100" width="200" height="100" fill="#ba6516" /><rect x="950" y="500" width="200" height="100" fill="#f7a41d" /><rect x="1050" y="100" width="100" height="500" fill="#f7a41d" /><rect x="950" y="100" width="200" height="100" fill="#f7a41d" /><rect x="300" y="400" width="100" height="300" fill="#ba6516" /><rect x="400" y="300" width="100" height="100" fill="#ba6516" /><rect x="700" y="0" width="100" height="300" fill="#ba6516" /><rect x="300" y="100" width="100" height="100" fill="#ba6516" /><rect x="350" y="400" width="100" height="300" fill="#f7a41d" /><rect x="350" y="500" width="500" height="100" fill="#f7a41d" /><rect x="450" y="300" width="300" height="100" fill="#f7a41d" /><rect x="750" y="0" width="100" height="300" fill="#f7a41d" /><rect x="350" y="100" width="500" height="100" fill="#f7a41d" /></svg>