<?xml version="1.0" encoding="UTF-8"?>
<!DOCTYPE svg PUBLIC "-//W3C//DTD SVG 1.1//EN" "http://www.w3.org/Graphics/SVG/1.1/DTD/svg11.dtd">
<svg xmlns="http://www.w3.org/2000/svg" version="1.1" width="1000px" height="875px" style="shape-rendering:geometricPrecision; text-rendering:geometricPrecision; image-rendering:optimizeQuality; fill-rule:evenodd; clip-rule:evenodd" xmlns:xlink="http://www.w3.org/1999/xlink">
<g><path style="opacity:1" fill="#a3962c" d="M 332.5,-0.5 C 374.167,-0.5 415.833,-0.5 457.5,-0.5C 457.5,27.1667 457.5,54.8333 457.5,82.5C 415.833,82.5 374.167,82.5 332.5,82.5C 332.5,68.8333 332.5,55.1667 332.5,41.5C 332.5,27.5 332.5,13.5 332.5,-0.5 Z"/></g>
<g><path style="opacity:1" fill="#d9c83c" d="M 457.5,-0.5 C 485.5,-0.5 513.5,-0.5 541.5,-0.5C 541.5,13.5 541.5,27.5 541.5,41.5C 541.5,55.1667 541.5,68.8333 541.5,82.5C 513.5,82.5 485.5,82.5 457.5,82.5C 457.5,54.8333 457.5,27.1667 457.5,-0.5 Z"/></g>
<g><path style="opacity:1" fill="#b96515" d="M 624.5,-0.5 C 638.5,-0.5 652.5,-0.5 666.5,-0.5C 666.5,27.1667 666.5,54.8333 666.5,82.5C 652.5,82.5 638.5,82.5 624.5,82.5C 624.5,68.8333 624.5,55.1667 624.5,41.5C 624.5,27.5 624.5,13.5 624.5,-0.5 Z"/></g>
<g><path style="opacity:1" fill="#f6a41c" d="M 666.5,-0.5 C 694.167,-0.5 721.833,-0.5 749.5,-0.5C 749.5,82.8333 749.5,166.167 749.5,249.5C 721.833,249.5 694.167,249.5 666.5,249.5C 666.5,221.833 666.5,194.167 666.5,166.5C 652.5,166.5 638.5,166.5 624.5,166.5C 610.5,166.5 596.5,166.5 582.5,166.5C 499.167,166.5 415.833,166.5 332.5,166.5C 332.5,138.5 332.5,110.5 332.5,82.5C 374.167,82.5 415.833,82.5 457.5,82.5C 485.5,82.5 513.5,82.5 541.5,82.5C 569.167,82.5 596.833,82.5 624.5,82.5C 638.5,82.5 652.5,82.5 666.5,82.5C 666.5,54.8333 666.5,27.1667 666.5,-0.5 Z"/></g>
<g><path style="opacity:1" fill="#892518" d="M -0.5,41.5 C 110.5,41.5 221.5,41.5 332.5,41.5C 332.5,55.1667 332.5,68.8333 332.5,82.5C 318.833,82.5 305.167,82.5 291.5,82.5C 291.5,96.5 291.5,110.5 291.5,124.5C 277.5,124.5 263.5,124.5 249.5,124.5C 249.5,110.5 249.5,96.5 249.5,82.5C 193.833,82.5 138.167,82.5 82.5,82.5C 68.8333,82.5 55.1667,82.5 41.5,82.5C 41.5,138.167 41.5,193.833 41.5,249.5C 27.5,249.5 13.5,249.5 -0.5,249.5C -0.5,180.167 -0.5,110.833 -0.5,41.5 Z"/></g>
<g><path style="opacity:1" fill="#892518" d="M 541.5,41.5 C 569.167,41.5 596.833,41.5 624.5,41.5C 624.5,55.1667 624.5,68.8333 624.5,82.5C 596.833,82.5 569.167,82.5 541.5,82.5C 541.5,68.8333 541.5,55.1667 541.5,41.5 Z"/></g>
<g><path style="opacity:1" fill="#b96515" d="M 82.5,82.5 C 82.5,221.5 82.5,360.5 82.5,499.5C 68.8333,499.5 55.1667,499.5 41.5,499.5C 41.5,443.833 41.5,388.167 41.5,332.5C 41.5,304.833 41.5,277.167 41.5,249.5C 41.5,193.833 41.5,138.167 41.5,82.5C 55.1667,82.5 68.8333,82.5 82.5,82.5 Z"/></g>
<g><path style="opacity:1" fill="#f6a41c" d="M 82.5,82.5 C 138.167,82.5 193.833,82.5 249.5,82.5C 249.5,96.5 249.5,110.5 249.5,124.5C 249.5,138.5 249.5,152.5 249.5,166.5C 221.833,166.5 194.167,166.5 166.5,166.5C 166.5,194.167 166.5,221.833 166.5,249.5C 166.5,277.167 166.5,304.833 166.5,332.5C 166.5,360.5 166.5,388.5 166.5,416.5C 194.167,416.5 221.833,416.5 249.5,416.5C 249.5,430.167 249.5,443.833 249.5,457.5C 249.5,471.5 249.5,485.5 249.5,499.5C 193.833,499.5 138.167,499.5 82.5,499.5C 82.5,360.5 82.5,221.5 82.5,82.5 Z"/></g>
<g><path style="opacity:1" fill="#b96515" d="M 332.5,82.5 C 332.5,110.5 332.5,138.5 332.5,166.5C 318.833,166.5 305.167,166.5 291.5,166.5C 291.5,152.5 291.5,138.5 291.5,124.5C 291.5,110.5 291.5,96.5 291.5,82.5C 305.167,82.5 318.833,82.5 332.5,82.5 Z"/></g>
<g><path style="opacity:1" fill="#b96515" d="M 832.5,82.5 C 832.5,110.5 832.5,138.5 832.5,166.5C 818.833,166.5 805.167,166.5 791.5,166.5C 791.5,138.5 791.5,110.5 791.5,82.5C 805.167,82.5 818.833,82.5 832.5,82.5 Z"/></g>
<g><path style="opacity:1" fill="#f6a41c" d="M 832.5,82.5 C 888.167,82.5 943.833,82.5 999.5,82.5C 999.5,221.5 999.5,360.5 999.5,499.5C 943.833,499.5 888.167,499.5 832.5,499.5C 832.5,471.833 832.5,444.167 832.5,416.5C 846.5,416.5 860.5,416.5 874.5,416.5C 888.5,416.5 902.5,416.5 916.5,416.5C 916.5,333.167 916.5,249.833 916.5,166.5C 902.5,166.5 888.5,166.5 874.5,166.5C 860.5,166.5 846.5,166.5 832.5,166.5C 832.5,138.5 832.5,110.5 832.5,82.5 Z"/></g>
<g><path style="opacity:1" fill="#300603" d="M 249.5,124.5 C 263.5,124.5 277.5,124.5 291.5,124.5C 291.5,138.5 291.5,152.5 291.5,166.5C 305.167,166.5 318.833,166.5 332.5,166.5C 415.833,166.5 499.167,166.5 582.5,166.5C 582.5,194.167 582.5,221.833 582.5,249.5C 527.167,249.5 471.833,249.5 416.5,249.5C 402.5,249.5 388.5,249.5 374.5,249.5C 374.5,277.167 374.5,304.833 374.5,332.5C 360.5,332.5 346.5,332.5 332.5,332.5C 318.833,332.5 305.167,332.5 291.5,332.5C 291.5,374.167 291.5,415.833 291.5,457.5C 277.5,457.5 263.5,457.5 249.5,457.5C 249.5,443.833 249.5,430.167 249.5,416.5C 249.5,388.5 249.5,360.5 249.5,332.5C 249.5,304.833 249.5,277.167 249.5,249.5C 249.5,221.833 249.5,194.167 249.5,166.5C 249.5,152.5 249.5,138.5 249.5,124.5 Z"/></g>
<g><path style="opacity:1" fill="#892518" d="M 249.5,166.5 C 249.5,194.167 249.5,221.833 249.5,249.5C 221.833,249.5 194.167,249.5 166.5,249.5C 166.5,221.833 166.5,194.167 166.5,166.5C 194.167,166.5 221.833,166.5 249.5,166.5 Z"/></g>
<g><path style="opacity:1" fill="#892518" d="M 582.5,166.5 C 596.5,166.5 610.5,166.5 624.5,166.5C 624.5,194.167 624.5,221.833 624.5,249.5C 610.5,249.5 596.5,249.5 582.5,249.5C 582.5,221.833 582.5,194.167 582.5,166.5 Z"/></g>
<g><path style="opacity:1" fill="#b96515" d="M 624.5,166.5 C 638.5,166.5 652.5,166.5 666.5,166.5C 666.5,194.167 666.5,221.833 666.5,249.5C 652.5,249.5 638.5,249.5 624.5,249.5C 624.5,221.833 624.5,194.167 624.5,166.5 Z"/></g>
<g><path style="opacity:1" fill="#b96515" d="M 874.5,166.5 C 888.5,166.5 902.5,166.5 916.5,166.5C 916.5,249.833 916.5,333.167 916.5,416.5C 902.5,416.5 888.5,416.5 874.5,416.5C 874.5,333.167 874.5,249.833 874.5,166.5 Z"/></g>
<g><path style="opacity:1" fill="#a3962c" d="M -0.5,249.5 C 13.5,249.5 27.5,249.5 41.5,249.5C 41.5,277.167 41.5,304.833 41.5,332.5C 27.5,332.5 13.5,332.5 -0.5,332.5C -0.5,304.833 -0.5,277.167 -0.5,249.5 Z"/></g>
<g><path style="opacity:1" fill="#d9c83c" d="M 166.5,249.5 C 194.167,249.5 221.833,249.5 249.5,249.5C 249.5,277.167 249.5,304.833 249.5,332.5C 221.833,332.5 194.167,332.5 166.5,332.5C 166.5,304.833 166.5,277.167 166.5,249.5 Z"/></g>
<g><path style="opacity:1" fill="#b96515" d="M 416.5,249.5 C 416.5,277.167 416.5,304.833 416.5,332.5C 402.5,332.5 388.5,332.5 374.5,332.5C 374.5,304.833 374.5,277.167 374.5,249.5C 388.5,249.5 402.5,249.5 416.5,249.5 Z"/></g>
<g><path style="opacity:1" fill="#f6a41c" d="M 416.5,249.5 C 471.833,249.5 527.167,249.5 582.5,249.5C 596.5,249.5 610.5,249.5 624.5,249.5C 638.5,249.5 652.5,249.5 666.5,249.5C 666.5,277.167 666.5,304.833 666.5,332.5C 638.5,332.5 610.5,332.5 582.5,332.5C 527.167,332.5 471.833,332.5 416.5,332.5C 416.5,304.833 416.5,277.167 416.5,249.5 Z"/></g>
<g><path style="opacity:1" fill="#892518" d="M -0.5,332.5 C 13.5,332.5 27.5,332.5 41.5,332.5C 41.5,388.167 41.5,443.833 41.5,499.5C 55.1667,499.5 68.8333,499.5 82.5,499.5C 138.167,499.5 193.833,499.5 249.5,499.5C 249.5,485.5 249.5,471.5 249.5,457.5C 263.5,457.5 277.5,457.5 291.5,457.5C 291.5,485.5 291.5,513.5 291.5,541.5C 305.167,541.5 318.833,541.5 332.5,541.5C 360.5,541.5 388.5,541.5 416.5,541.5C 416.5,624.833 416.5,708.167 416.5,791.5C 402.5,791.5 388.5,791.5 374.5,791.5C 374.5,735.833 374.5,680.167 374.5,624.5C 318.833,624.5 263.167,624.5 207.5,624.5C 207.5,680.167 207.5,735.833 207.5,791.5C 193.833,791.5 180.167,791.5 166.5,791.5C 166.5,708.167 166.5,624.833 166.5,541.5C 110.833,541.5 55.1667,541.5 -0.5,541.5C -0.5,471.833 -0.5,402.167 -0.5,332.5 Z"/></g>
<g><path style="opacity:1" fill="#892518" d="M 166.5,332.5 C 194.167,332.5 221.833,332.5 249.5,332.5C 249.5,360.5 249.5,388.5 249.5,416.5C 221.833,416.5 194.167,416.5 166.5,416.5C 166.5,388.5 166.5,360.5 166.5,332.5 Z"/></g>
<g><path style="opacity:1" fill="#b96515" d="M 332.5,332.5 C 332.5,402.167 332.5,471.833 332.5,541.5C 318.833,541.5 305.167,541.5 291.5,541.5C 291.5,513.5 291.5,485.5 291.5,457.5C 291.5,415.833 291.5,374.167 291.5,332.5C 305.167,332.5 318.833,332.5 332.5,332.5 Z"/></g>
<g><path style="opacity:1" fill="#f6a41c" d="M 332.5,332.5 C 346.5,332.5 360.5,332.5 374.5,332.5C 388.5,332.5 402.5,332.5 416.5,332.5C 416.5,360.5 416.5,388.5 416.5,416.5C 471.833,416.5 527.167,416.5 582.5,416.5C 610.5,416.5 638.5,416.5 666.5,416.5C 694.167,416.5 721.833,416.5 749.5,416.5C 749.5,444.167 749.5,471.833 749.5,499.5C 721.833,499.5 694.167,499.5 666.5,499.5C 596.833,499.5 527.167,499.5 457.5,499.5C 443.833,499.5 430.167,499.5 416.5,499.5C 416.5,513.5 416.5,527.5 416.5,541.5C 388.5,541.5 360.5,541.5 332.5,541.5C 332.5,471.833 332.5,402.167 332.5,332.5 Z"/></g>
<g><path style="opacity:1" fill="#300603" d="M 416.5,332.5 C 471.833,332.5 527.167,332.5 582.5,332.5C 582.5,360.5 582.5,388.5 582.5,416.5C 527.167,416.5 471.833,416.5 416.5,416.5C 416.5,388.5 416.5,360.5 416.5,332.5 Z"/></g>
<g><path style="opacity:1" fill="#892518" d="M 582.5,332.5 C 610.5,332.5 638.5,332.5 666.5,332.5C 666.5,360.5 666.5,388.5 666.5,416.5C 638.5,416.5 610.5,416.5 582.5,416.5C 582.5,388.5 582.5,360.5 582.5,332.5 Z"/></g>
<g><path style="opacity:1" fill="#b96515" d="M 832.5,416.5 C 832.5,444.167 832.5,471.833 832.5,499.5C 818.833,499.5 805.167,499.5 791.5,499.5C 791.5,471.833 791.5,444.167 791.5,416.5C 805.167,416.5 818.833,416.5 832.5,416.5 Z"/></g>
<g><path style="opacity:1" fill="#d9c83c" d="M 457.5,499.5 C 457.5,513.5 457.5,527.5 457.5,541.5C 443.833,541.5 430.167,541.5 416.5,541.5C 416.5,527.5 416.5,513.5 416.5,499.5C 430.167,499.5 443.833,499.5 457.5,499.5 Z"/></g>
<g><path style="opacity:1" fill="#892518" d="M 457.5,499.5 C 527.167,499.5 596.833,499.5 666.5,499.5C 666.5,513.5 666.5,527.5 666.5,541.5C 596.833,541.5 527.167,541.5 457.5,541.5C 457.5,527.5 457.5,513.5 457.5,499.5 Z"/></g>
<g><path style="opacity:1" fill="#b53020" d="M 416.5,541.5 C 430.167,541.5 443.833,541.5 457.5,541.5C 527.167,541.5 596.833,541.5 666.5,541.5C 749.833,541.5 833.167,541.5 916.5,541.5C 916.5,624.833 916.5,708.167 916.5,791.5C 888.5,791.5 860.5,791.5 832.5,791.5C 832.5,735.833 832.5,680.167 832.5,624.5C 721.5,624.5 610.5,624.5 499.5,624.5C 499.5,680.167 499.5,735.833 499.5,791.5C 471.833,791.5 444.167,791.5 416.5,791.5C 416.5,708.167 416.5,624.833 416.5,541.5 Z"/></g>
<g><path style="opacity:1" fill="#7b120c" d="M 374.5,791.5 C 318.833,791.5 263.167,791.5 207.5,791.5C 207.5,735.833 207.5,680.167 207.5,624.5C 263.167,624.5 318.833,624.5 374.5,624.5C 374.5,680.167 374.5,735.833 374.5,791.5 Z"/></g>
<g><path style="opacity:1" fill="#a31710" d="M 832.5,791.5 C 721.5,791.5 610.5,791.5 499.5,791.5C 499.5,735.833 499.5,680.167 499.5,624.5C 610.5,624.5 721.5,624.5 832.5,624.5C 832.5,680.167 832.5,735.833 832.5,791.5 Z"/></g>
<g><path style="opacity:1" fill="#390300" d="M 166.5,791.5 C 180.167,791.5 193.833,791.5 207.5,791.5C 263.167,791.5 318.833,791.5 374.5,791.5C 388.5,791.5 402.5,791.5 416.5,791.5C 416.5,819.167 416.5,846.833 416.5,874.5C 333.167,874.5 249.833,874.5 166.5,874.5C 166.5,846.833 166.5,819.167 166.5,791.5 Z"/></g>
<g><path style="opacity:1" fill="#4b0300" d="M 416.5,791.5 C 444.167,791.5 471.833,791.5 499.5,791.5C 610.5,791.5 721.5,791.5 832.5,791.5C 860.5,791.5 888.5,791.5 916.5,791.5C 916.5,819.167 916.5,846.833 916.5,874.5C 749.833,874.5 583.167,874.5 416.5,874.5C 416.5,846.833 416.5,819.167 416.5,791.5 Z"/></g>
</svg>
