<?xml version="1.0" encoding="UTF-8"?>
<!DOCTYPE svg PUBLIC "-//W3C//DTD SVG 1.1//EN" "http://www.w3.org/Graphics/SVG/1.1/DTD/svg11.dtd">
<svg xmlns="http://www.w3.org/2000/svg" version="1.1" width="1000px" height="840px" style="shape-rendering:geometricPrecision; text-rendering:geometricPrecision; image-rendering:optimizeQuality; fill-rule:evenodd; clip-rule:evenodd" xmlns:xlink="http://www.w3.org/1999/xlink">
<g><path style="opacity:1" fill="#757675" d="M 319.5,-0.5 C 359.5,-0.5 399.5,-0.5 439.5,-0.5C 439.5,26.1667 439.5,52.8333 439.5,79.5C 426.167,79.5 412.833,79.5 399.5,79.5C 372.833,79.5 346.167,79.5 319.5,79.5C 319.5,66.1667 319.5,52.8333 319.5,39.5C 319.5,26.1667 319.5,12.8333 319.5,-0.5 Z"/></g>
<g><path style="opacity:1" fill="#a4a5a4" d="M 439.5,-0.5 C 466.167,-0.5 492.833,-0.5 519.5,-0.5C 519.5,12.8333 519.5,26.1667 519.5,39.5C 519.5,52.8333 519.5,66.1667 519.5,79.5C 506.167,79.5 492.833,79.5 479.5,79.5C 466.167,79.5 452.833,79.5 439.5,79.5C 439.5,52.8333 439.5,26.1667 439.5,-0.5 Z"/></g>
<g><path style="opacity:1" fill="#1c1a13" d="M -0.5,39.5 C 106.167,39.5 212.833,39.5 319.5,39.5C 319.5,52.8333 319.5,66.1667 319.5,79.5C 292.833,79.5 266.167,79.5 239.5,79.5C 226.167,79.5 212.833,79.5 199.5,79.5C 186.167,79.5 172.833,79.5 159.5,79.5C 159.5,106.167 159.5,132.833 159.5,159.5C 159.5,186.167 159.5,212.833 159.5,239.5C 159.5,292.833 159.5,346.167 159.5,399.5C 159.5,439.5 159.5,479.5 159.5,519.5C 106.167,519.5 52.8333,519.5 -0.5,519.5C -0.5,359.5 -0.5,199.5 -0.5,39.5 Z"/></g>
<g><path style="opacity:1" fill="#1c1a13" d="M 519.5,39.5 C 559.5,39.5 599.5,39.5 639.5,39.5C 639.5,52.8333 639.5,66.1667 639.5,79.5C 612.833,79.5 586.167,79.5 559.5,79.5C 546.167,79.5 532.833,79.5 519.5,79.5C 519.5,66.1667 519.5,52.8333 519.5,39.5 Z"/></g>
<g><path style="opacity:1" fill="#a7b09d" d="M 199.5,79.5 C 199.5,106.167 199.5,132.833 199.5,159.5C 186.167,159.5 172.833,159.5 159.5,159.5C 159.5,132.833 159.5,106.167 159.5,79.5C 172.833,79.5 186.167,79.5 199.5,79.5 Z"/></g>
<g><path style="opacity:1" fill="#7d7763" d="M 199.5,79.5 C 212.833,79.5 226.167,79.5 239.5,79.5C 239.5,106.167 239.5,132.833 239.5,159.5C 226.167,159.5 212.833,159.5 199.5,159.5C 199.5,132.833 199.5,106.167 199.5,79.5 Z"/></g>
<g><path style="opacity:1" fill="#267000" d="M 239.5,79.5 C 266.167,79.5 292.833,79.5 319.5,79.5C 319.5,132.833 319.5,186.167 319.5,239.5C 306.167,239.5 292.833,239.5 279.5,239.5C 266.167,239.5 252.833,239.5 239.5,239.5C 239.5,212.833 239.5,186.167 239.5,159.5C 239.5,132.833 239.5,106.167 239.5,79.5 Z"/></g>
<g><path style="opacity:1" fill="#e3e9d0" d="M 319.5,79.5 C 346.167,79.5 372.833,79.5 399.5,79.5C 399.5,132.833 399.5,186.167 399.5,239.5C 372.833,239.5 346.167,239.5 319.5,239.5C 319.5,186.167 319.5,132.833 319.5,79.5 Z"/></g>
<g><path style="opacity:1" fill="#329400" d="M 399.5,79.5 C 412.833,79.5 426.167,79.5 439.5,79.5C 452.833,79.5 466.167,79.5 479.5,79.5C 479.5,106.167 479.5,132.833 479.5,159.5C 506.167,159.5 532.833,159.5 559.5,159.5C 559.5,132.833 559.5,106.167 559.5,79.5C 586.167,79.5 612.833,79.5 639.5,79.5C 639.5,132.833 639.5,186.167 639.5,239.5C 612.833,239.5 586.167,239.5 559.5,239.5C 559.5,266.167 559.5,292.833 559.5,319.5C 532.833,319.5 506.167,319.5 479.5,319.5C 479.5,292.833 479.5,266.167 479.5,239.5C 452.833,239.5 426.167,239.5 399.5,239.5C 399.5,186.167 399.5,132.833 399.5,79.5 Z"/></g>
<g><path style="opacity:1" fill="#a69d83" d="M 479.5,79.5 C 492.833,79.5 506.167,79.5 519.5,79.5C 532.833,79.5 546.167,79.5 559.5,79.5C 559.5,106.167 559.5,132.833 559.5,159.5C 532.833,159.5 506.167,159.5 479.5,159.5C 479.5,132.833 479.5,106.167 479.5,79.5 Z"/></g>
<g><path style="opacity:1" fill="#e3e9d0" d="M 639.5,79.5 C 666.167,79.5 692.833,79.5 719.5,79.5C 719.5,132.833 719.5,186.167 719.5,239.5C 692.833,239.5 666.167,239.5 639.5,239.5C 639.5,186.167 639.5,132.833 639.5,79.5 Z"/></g>
<g><path style="opacity:1" fill="#855106" d="M 39.5,119.5 C 66.1667,119.5 92.8333,119.5 119.5,119.5C 119.5,226.167 119.5,332.833 119.5,439.5C 92.8333,439.5 66.1667,439.5 39.5,439.5C 39.5,332.833 39.5,226.167 39.5,119.5 Z"/></g>
<g><path style="opacity:1" fill="#7d7763" d="M 159.5,159.5 C 172.833,159.5 186.167,159.5 199.5,159.5C 199.5,186.167 199.5,212.833 199.5,239.5C 186.167,239.5 172.833,239.5 159.5,239.5C 159.5,212.833 159.5,186.167 159.5,159.5 Z"/></g>
<g><path style="opacity:1" fill="#494126" d="M 199.5,159.5 C 212.833,159.5 226.167,159.5 239.5,159.5C 239.5,186.167 239.5,212.833 239.5,239.5C 226.167,239.5 212.833,239.5 199.5,239.5C 199.5,212.833 199.5,186.167 199.5,159.5 Z"/></g>
<g><path style="opacity:1" fill="#494126" d="M 159.5,239.5 C 172.833,239.5 186.167,239.5 199.5,239.5C 199.5,292.833 199.5,346.167 199.5,399.5C 186.167,399.5 172.833,399.5 159.5,399.5C 159.5,346.167 159.5,292.833 159.5,239.5 Z"/></g>
<g><path style="opacity:1" fill="#a7b09d" d="M 199.5,239.5 C 212.833,239.5 226.167,239.5 239.5,239.5C 239.5,266.167 239.5,292.833 239.5,319.5C 252.833,319.5 266.167,319.5 279.5,319.5C 292.833,319.5 306.167,319.5 319.5,319.5C 346.167,319.5 372.833,319.5 399.5,319.5C 399.5,372.833 399.5,426.167 399.5,479.5C 426.167,479.5 452.833,479.5 479.5,479.5C 492.833,479.5 506.167,479.5 519.5,479.5C 519.5,492.833 519.5,506.167 519.5,519.5C 479.5,519.5 439.5,519.5 399.5,519.5C 359.5,519.5 319.5,519.5 279.5,519.5C 279.5,506.167 279.5,492.833 279.5,479.5C 292.833,479.5 306.167,479.5 319.5,479.5C 319.5,452.833 319.5,426.167 319.5,399.5C 279.5,399.5 239.5,399.5 199.5,399.5C 199.5,346.167 199.5,292.833 199.5,239.5 Z"/></g>
<g><path style="opacity:1" fill="#494126" d="M 239.5,239.5 C 252.833,239.5 266.167,239.5 279.5,239.5C 279.5,266.167 279.5,292.833 279.5,319.5C 266.167,319.5 252.833,319.5 239.5,319.5C 239.5,292.833 239.5,266.167 239.5,239.5 Z"/></g>
<g><path style="opacity:1" fill="#7d7763" d="M 279.5,239.5 C 292.833,239.5 306.167,239.5 319.5,239.5C 319.5,266.167 319.5,292.833 319.5,319.5C 306.167,319.5 292.833,319.5 279.5,319.5C 279.5,292.833 279.5,266.167 279.5,239.5 Z"/></g>
<g><path style="opacity:1" fill="#a69d83" d="M 319.5,239.5 C 346.167,239.5 372.833,239.5 399.5,239.5C 399.5,266.167 399.5,292.833 399.5,319.5C 372.833,319.5 346.167,319.5 319.5,319.5C 319.5,292.833 319.5,266.167 319.5,239.5 Z"/></g>
<g><path style="opacity:1" fill="#e3e9d0" d="M 399.5,239.5 C 426.167,239.5 452.833,239.5 479.5,239.5C 479.5,266.167 479.5,292.833 479.5,319.5C 452.833,319.5 426.167,319.5 399.5,319.5C 399.5,292.833 399.5,266.167 399.5,239.5 Z"/></g>
<g><path style="opacity:1" fill="#e3e9d0" d="M 639.5,239.5 C 639.5,266.167 639.5,292.833 639.5,319.5C 612.833,319.5 586.167,319.5 559.5,319.5C 559.5,292.833 559.5,266.167 559.5,239.5C 586.167,239.5 612.833,239.5 639.5,239.5 Z"/></g>
<g><path style="opacity:1" fill="#a69d83" d="M 639.5,239.5 C 666.167,239.5 692.833,239.5 719.5,239.5C 719.5,266.167 719.5,292.833 719.5,319.5C 692.833,319.5 666.167,319.5 639.5,319.5C 639.5,292.833 639.5,266.167 639.5,239.5 Z"/></g>
<g><path style="opacity:1" fill="#2d402a" d="M 399.5,319.5 C 426.167,319.5 452.833,319.5 479.5,319.5C 506.167,319.5 532.833,319.5 559.5,319.5C 586.167,319.5 612.833,319.5 639.5,319.5C 666.167,319.5 692.833,319.5 719.5,319.5C 746.167,319.5 772.833,319.5 799.5,319.5C 799.5,346.167 799.5,372.833 799.5,399.5C 746.167,399.5 692.833,399.5 639.5,399.5C 639.5,426.167 639.5,452.833 639.5,479.5C 666.167,479.5 692.833,479.5 719.5,479.5C 719.5,492.833 719.5,506.167 719.5,519.5C 652.833,519.5 586.167,519.5 519.5,519.5C 519.5,506.167 519.5,492.833 519.5,479.5C 532.833,479.5 546.167,479.5 559.5,479.5C 559.5,452.833 559.5,426.167 559.5,399.5C 532.833,399.5 506.167,399.5 479.5,399.5C 479.5,426.167 479.5,452.833 479.5,479.5C 452.833,479.5 426.167,479.5 399.5,479.5C 399.5,426.167 399.5,372.833 399.5,319.5 Z"/></g>
<g><path style="opacity:1" fill="#3f5438" d="M 799.5,319.5 C 826.167,319.5 852.833,319.5 879.5,319.5C 879.5,346.167 879.5,372.833 879.5,399.5C 879.5,426.167 879.5,452.833 879.5,479.5C 879.5,492.833 879.5,506.167 879.5,519.5C 826.167,519.5 772.833,519.5 719.5,519.5C 719.5,506.167 719.5,492.833 719.5,479.5C 692.833,479.5 666.167,479.5 639.5,479.5C 639.5,452.833 639.5,426.167 639.5,399.5C 692.833,399.5 746.167,399.5 799.5,399.5C 799.5,372.833 799.5,346.167 799.5,319.5 Z"/></g>
<g><path style="opacity:1" fill="#2d402a" d="M 879.5,319.5 C 919.5,319.5 959.5,319.5 999.5,319.5C 999.5,346.167 999.5,372.833 999.5,399.5C 959.5,399.5 919.5,399.5 879.5,399.5C 879.5,372.833 879.5,346.167 879.5,319.5 Z"/></g>
<g><path style="opacity:1" fill="#267000" d="M 159.5,399.5 C 172.833,399.5 186.167,399.5 199.5,399.5C 199.5,426.167 199.5,452.833 199.5,479.5C 199.5,492.833 199.5,506.167 199.5,519.5C 186.167,519.5 172.833,519.5 159.5,519.5C 159.5,479.5 159.5,439.5 159.5,399.5 Z"/></g>
<g><path style="opacity:1" fill="#494126" d="M 199.5,399.5 C 239.5,399.5 279.5,399.5 319.5,399.5C 319.5,426.167 319.5,452.833 319.5,479.5C 306.167,479.5 292.833,479.5 279.5,479.5C 252.833,479.5 226.167,479.5 199.5,479.5C 199.5,452.833 199.5,426.167 199.5,399.5 Z"/></g>
<g><path style="opacity:1" fill="#4da9a6" d="M 519.5,479.5 C 506.167,479.5 492.833,479.5 479.5,479.5C 479.5,452.833 479.5,426.167 479.5,399.5C 506.167,399.5 532.833,399.5 559.5,399.5C 559.5,426.167 559.5,452.833 559.5,479.5C 546.167,479.5 532.833,479.5 519.5,479.5 Z"/></g>
<g><path style="opacity:1" fill="#7d7d63" d="M 199.5,479.5 C 226.167,479.5 252.833,479.5 279.5,479.5C 279.5,492.833 279.5,506.167 279.5,519.5C 252.833,519.5 226.167,519.5 199.5,519.5C 199.5,506.167 199.5,492.833 199.5,479.5 Z"/></g>
<g><path style="opacity:1" fill="#2d402a" d="M 879.5,479.5 C 892.833,479.5 906.167,479.5 919.5,479.5C 919.5,506.167 919.5,532.833 919.5,559.5C 906.167,559.5 892.833,559.5 879.5,559.5C 879.5,546.167 879.5,532.833 879.5,519.5C 879.5,506.167 879.5,492.833 879.5,479.5 Z"/></g>
<g><path style="opacity:1" fill="#1c1a13" d="M 159.5,519.5 C 172.833,519.5 186.167,519.5 199.5,519.5C 226.167,519.5 252.833,519.5 279.5,519.5C 319.5,519.5 359.5,519.5 399.5,519.5C 399.5,626.167 399.5,732.833 399.5,839.5C 319.5,839.5 239.5,839.5 159.5,839.5C 159.5,732.833 159.5,626.167 159.5,519.5 Z"/></g>
<g><path style="opacity:1" fill="#443c2e" d="M 399.5,519.5 C 439.5,519.5 479.5,519.5 519.5,519.5C 586.167,519.5 652.833,519.5 719.5,519.5C 772.833,519.5 826.167,519.5 879.5,519.5C 879.5,532.833 879.5,546.167 879.5,559.5C 879.5,652.833 879.5,746.167 879.5,839.5C 719.5,839.5 559.5,839.5 399.5,839.5C 399.5,732.833 399.5,626.167 399.5,519.5 Z"/></g>
<g><path style="opacity:1" fill="#855106" d="M 199.5,599.5 C 252.833,599.5 306.167,599.5 359.5,599.5C 359.5,652.833 359.5,706.167 359.5,759.5C 306.167,759.5 252.833,759.5 199.5,759.5C 199.5,706.167 199.5,652.833 199.5,599.5 Z"/></g>
<g><path style="opacity:1" fill="#a66e1e" d="M 479.5,599.5 C 586.167,599.5 692.833,599.5 799.5,599.5C 799.5,652.833 799.5,706.167 799.5,759.5C 692.833,759.5 586.167,759.5 479.5,759.5C 479.5,706.167 479.5,652.833 479.5,599.5 Z"/></g>
</svg>
