<svg viewBox="0 0 1250 1050" xmlns="http://www.w3.org/2000/svg"><rect x="150" y="50" width="650" height="600" fill="#1d1a14" /><rect x="200" y="600" width="600" height="100" fill="#1d1a14" /><rect x="300" y="150" width="400" height="400" fill="#693f05" /><rect x="400" y="0" width="200" height="100" fill="#767676" /><rect x="550" y="0" width="100" height="100" fill="#a5a5a5" /><rect x="500" y="400" width="600" height="300" fill="#2e402b" /><rect x="500" y="350" width="400" height="100" fill="#2e402b" /><rect x="1050" y="400" width="200" height="100" fill="#2e402b" /><rect x="1050" y="600" width="100" height="100" fill="#2e402b" /><rect x="600" y="500" width="100" height="100" fill="#4da9a7" /><rect x="900" y="500" width="200" height="200" fill="#405439" /><rect x="800" y="500" width="150" height="100" fill="#405439" /><rect x="1000" y="400" width="100" height="150" fill="#405439" /><rect x="200" y="100" width="300" height="550" fill="#a8b09e" /><rect x="450" y="600" width="200" height="100" fill="#a8b09e" /><rect x="200" y="100" width="150" height="200" fill="#7e7764" /><rect x="300" y="100" width="150" height="200" fill="#267000" /><rect x="200" y="100" width="50" height="100" fill="#a8b09e" /><rect x="200" y="550" width="150" height="150" fill="#7e7764" /><rect x="200" y="500" width="200" height="100" fill="#4a4127" /><rect x="200" y="300" width="50" height="300" fill="#4a4127" /><rect x="200" y="500" width="50" height="150" fill="#267000" /><rect x="250" y="200" width="50" height="100" fill="#4a4127" /><rect x="300" y="300" width="100" height="100" fill="#4a4127" /><rect x="350" y="300" width="100" height="100" fill="#7e7764" /><rect x="400" y="100" width="500" height="300" fill="#e4e9d1" /><rect x="500" y="100" width="300" height="300" fill="#329400" /><rect x="600" y="100" width="100" height="100" fill="#a79d84" /><rect x="450" y="300" width="150" height="100" fill="#e4e9d1" /><rect x="700" y="300" width="150" height="100" fill="#e4e9d1" /><rect x="800" y="300" width="100" height="100" fill="#a79d84" /><rect x="400" y="300" width="100" height="100" fill="#a79d84" /><rect x="200" y="650" width="350" height="400" fill="#1d1a14" /><rect x="250" y="750" width="200" height="200" fill="#865107" /><rect x="500" y="650" width="600" height="400" fill="#453c2f" /><rect x="0" y="50" width="200" height="600" fill="#1d1a14" /><rect x="50" y="150" width="100" height="400" fill="#865107" /><rect x="600" y="750" width="400" height="200" fill="#a76e1f" /></svg>