<svg viewBox="0 0 1100 600" xmlns="http://www.w3.org/2000/svg"><rect x="350" y="300" width="600" height="300" fill="#2e402b" /><rect x="350" y="250" width="400" height="100" fill="#2e402b" /><rect x="900" y="300" width="200" height="100" fill="#2e402b" /><rect x="900" y="500" width="100" height="100" fill="#2e402b" /><rect x="450" y="400" width="100" height="100" fill="#4da9a7" /><rect x="750" y="400" width="200" height="200" fill="#405439" /><rect x="650" y="400" width="150" height="100" fill="#405439" /><rect x="850" y="300" width="100" height="150" fill="#405439" /><rect x="0" y="0" width="350" height="600" fill="#a8b09e" /><rect x="300" y="500" width="200" height="100" fill="#a8b09e" /><rect x="0" y="0" width="200" height="200" fill="#7e7764" /><rect x="150" y="0" width="150" height="200" fill="#267000" /><rect x="50" y="0" width="50" height="100" fill="#a8b09e" /><rect x="50" y="450" width="150" height="150" fill="#7e7764" /><rect x="0" y="300" width="100" height="150" fill="#7e7764" /><rect x="50" y="400" width="200" height="100" fill="#4a4127" /><rect x="50" y="200" width="50" height="300" fill="#4a4127" /><rect x="0" y="400" width="100" height="200" fill="#267000" /><rect x="100" y="100" width="50" height="100" fill="#4a4127" /><rect x="150" y="200" width="100" height="100" fill="#4a4127" /><rect x="200" y="200" width="100" height="100" fill="#7e7764" /><rect x="250" y="0" width="500" height="300" fill="#e4e9d1" /><rect x="350" y="0" width="300" height="300" fill="#329400" /><rect x="450" y="0" width="100" height="100" fill="#a79d84" /><rect x="300" y="200" width="150" height="100" fill="#e4e9d1" /><rect x="550" y="200" width="150" height="100" fill="#e4e9d1" /><rect x="650" y="200" width="100" height="100" fill="#a79d84" /><rect x="250" y="200" width="100" height="100" fill="#a79d84" /></svg>