<?xml version="1.0" encoding="UTF-8"?>
<!DOCTYPE svg PUBLIC "-//W3C//DTD SVG 1.1//EN" "http://www.w3.org/Graphics/SVG/1.1/DTD/svg11.dtd">
<svg xmlns="http://www.w3.org/2000/svg" version="1.1" width="1000px" height="545px" style="shape-rendering:geometricPrecision; text-rendering:geometricPrecision; image-rendering:optimizeQuality; fill-rule:evenodd; clip-rule:evenodd" xmlns:xlink="http://www.w3.org/1999/xlink">
<g><path style="opacity:1" fill="#7d7763" d="M -0.5,-0.5 C 14.5,-0.5 29.5,-0.5 44.5,-0.5C 44.5,29.8333 44.5,60.1667 44.5,90.5C 59.8333,90.5 75.1667,90.5 90.5,90.5C 90.5,120.833 90.5,151.167 90.5,181.5C 75.1667,181.5 59.8333,181.5 44.5,181.5C 29.5,181.5 14.5,181.5 -0.5,181.5C -0.5,120.833 -0.5,60.1667 -0.5,-0.5 Z"/></g>
<g><path style="opacity:1" fill="#a7b09d" d="M 44.5,-0.5 C 59.8333,-0.5 75.1667,-0.5 90.5,-0.5C 90.5,29.8333 90.5,60.1667 90.5,90.5C 75.1667,90.5 59.8333,90.5 44.5,90.5C 44.5,60.1667 44.5,29.8333 44.5,-0.5 Z"/></g>
<g><path style="opacity:1" fill="#7d7763" d="M 90.5,-0.5 C 105.5,-0.5 120.5,-0.5 135.5,-0.5C 135.5,29.8333 135.5,60.1667 135.5,90.5C 120.5,90.5 105.5,90.5 90.5,90.5C 90.5,60.1667 90.5,29.8333 90.5,-0.5 Z"/></g>
<g><path style="opacity:1" fill="#267000" d="M 135.5,-0.5 C 165.833,-0.5 196.167,-0.5 226.5,-0.5C 226.5,60.1667 226.5,120.833 226.5,181.5C 211.5,181.5 196.5,181.5 181.5,181.5C 166.167,181.5 150.833,181.5 135.5,181.5C 135.5,151.167 135.5,120.833 135.5,90.5C 135.5,60.1667 135.5,29.8333 135.5,-0.5 Z"/></g>
<g><path style="opacity:1" fill="#e3e9d0" d="M 226.5,-0.5 C 256.833,-0.5 287.167,-0.5 317.5,-0.5C 317.5,60.1667 317.5,120.833 317.5,181.5C 287.167,181.5 256.833,181.5 226.5,181.5C 226.5,120.833 226.5,60.1667 226.5,-0.5 Z"/></g>
<g><path style="opacity:1" fill="#329400" d="M 317.5,-0.5 C 347.833,-0.5 378.167,-0.5 408.5,-0.5C 408.5,29.8333 408.5,60.1667 408.5,90.5C 438.833,90.5 469.167,90.5 499.5,90.5C 499.5,60.1667 499.5,29.8333 499.5,-0.5C 529.833,-0.5 560.167,-0.5 590.5,-0.5C 590.5,60.1667 590.5,120.833 590.5,181.5C 560.167,181.5 529.833,181.5 499.5,181.5C 499.5,211.5 499.5,241.5 499.5,271.5C 469.167,271.5 438.833,271.5 408.5,271.5C 408.5,241.5 408.5,211.5 408.5,181.5C 378.167,181.5 347.833,181.5 317.5,181.5C 317.5,120.833 317.5,60.1667 317.5,-0.5 Z"/></g>
<g><path style="opacity:1" fill="#a69d83" d="M 408.5,-0.5 C 438.833,-0.5 469.167,-0.5 499.5,-0.5C 499.5,29.8333 499.5,60.1667 499.5,90.5C 469.167,90.5 438.833,90.5 408.5,90.5C 408.5,60.1667 408.5,29.8333 408.5,-0.5 Z"/></g>
<g><path style="opacity:1" fill="#e3e9d0" d="M 590.5,-0.5 C 620.833,-0.5 651.167,-0.5 681.5,-0.5C 681.5,60.1667 681.5,120.833 681.5,181.5C 651.167,181.5 620.833,181.5 590.5,181.5C 590.5,120.833 590.5,60.1667 590.5,-0.5 Z"/></g>
<g><path style="opacity:1" fill="#494126" d="M 90.5,90.5 C 105.5,90.5 120.5,90.5 135.5,90.5C 135.5,120.833 135.5,151.167 135.5,181.5C 120.5,181.5 105.5,181.5 90.5,181.5C 90.5,151.167 90.5,120.833 90.5,90.5 Z"/></g>
<g><path style="opacity:1" fill="#a7b09d" d="M -0.5,181.5 C 14.5,181.5 29.5,181.5 44.5,181.5C 44.5,211.5 44.5,241.5 44.5,271.5C 29.5,271.5 14.5,271.5 -0.5,271.5C -0.5,241.5 -0.5,211.5 -0.5,181.5 Z"/></g>
<g><path style="opacity:1" fill="#494126" d="M 44.5,181.5 C 59.8333,181.5 75.1667,181.5 90.5,181.5C 90.5,241.833 90.5,302.167 90.5,362.5C 75.1667,362.5 59.8333,362.5 44.5,362.5C 44.5,332.167 44.5,301.833 44.5,271.5C 44.5,241.5 44.5,211.5 44.5,181.5 Z"/></g>
<g><path style="opacity:1" fill="#a7b09d" d="M 90.5,181.5 C 105.5,181.5 120.5,181.5 135.5,181.5C 135.5,211.5 135.5,241.5 135.5,271.5C 150.833,271.5 166.167,271.5 181.5,271.5C 196.5,271.5 211.5,271.5 226.5,271.5C 256.833,271.5 287.167,271.5 317.5,271.5C 317.5,332.167 317.5,392.833 317.5,453.5C 347.833,453.5 378.167,453.5 408.5,453.5C 423.833,453.5 439.167,453.5 454.5,453.5C 454.5,483.833 454.5,514.167 454.5,544.5C 363.5,544.5 272.5,544.5 181.5,544.5C 181.5,514.167 181.5,483.833 181.5,453.5C 196.5,453.5 211.5,453.5 226.5,453.5C 226.5,423.167 226.5,392.833 226.5,362.5C 181.167,362.5 135.833,362.5 90.5,362.5C 90.5,302.167 90.5,241.833 90.5,181.5 Z"/></g>
<g><path style="opacity:1" fill="#494126" d="M 135.5,181.5 C 150.833,181.5 166.167,181.5 181.5,181.5C 181.5,211.5 181.5,241.5 181.5,271.5C 166.167,271.5 150.833,271.5 135.5,271.5C 135.5,241.5 135.5,211.5 135.5,181.5 Z"/></g>
<g><path style="opacity:1" fill="#7d7763" d="M 181.5,181.5 C 196.5,181.5 211.5,181.5 226.5,181.5C 226.5,211.5 226.5,241.5 226.5,271.5C 211.5,271.5 196.5,271.5 181.5,271.5C 181.5,241.5 181.5,211.5 181.5,181.5 Z"/></g>
<g><path style="opacity:1" fill="#a69d83" d="M 226.5,181.5 C 256.833,181.5 287.167,181.5 317.5,181.5C 317.5,211.5 317.5,241.5 317.5,271.5C 287.167,271.5 256.833,271.5 226.5,271.5C 226.5,241.5 226.5,211.5 226.5,181.5 Z"/></g>
<g><path style="opacity:1" fill="#e3e9d0" d="M 317.5,181.5 C 347.833,181.5 378.167,181.5 408.5,181.5C 408.5,211.5 408.5,241.5 408.5,271.5C 378.167,271.5 347.833,271.5 317.5,271.5C 317.5,241.5 317.5,211.5 317.5,181.5 Z"/></g>
<g><path style="opacity:1" fill="#e3e9d0" d="M 590.5,181.5 C 590.5,211.5 590.5,241.5 590.5,271.5C 560.167,271.5 529.833,271.5 499.5,271.5C 499.5,241.5 499.5,211.5 499.5,181.5C 529.833,181.5 560.167,181.5 590.5,181.5 Z"/></g>
<g><path style="opacity:1" fill="#a69d83" d="M 590.5,181.5 C 620.833,181.5 651.167,181.5 681.5,181.5C 681.5,211.5 681.5,241.5 681.5,271.5C 651.167,271.5 620.833,271.5 590.5,271.5C 590.5,241.5 590.5,211.5 590.5,181.5 Z"/></g>
<g><path style="opacity:1" fill="#7d7763" d="M -0.5,271.5 C 14.5,271.5 29.5,271.5 44.5,271.5C 44.5,301.833 44.5,332.167 44.5,362.5C 29.5,362.5 14.5,362.5 -0.5,362.5C -0.5,332.167 -0.5,301.833 -0.5,271.5 Z"/></g>
<g><path style="opacity:1" fill="#2d402a" d="M 317.5,271.5 C 347.833,271.5 378.167,271.5 408.5,271.5C 438.833,271.5 469.167,271.5 499.5,271.5C 529.833,271.5 560.167,271.5 590.5,271.5C 620.833,271.5 651.167,271.5 681.5,271.5C 711.833,271.5 742.167,271.5 772.5,271.5C 772.5,301.833 772.5,332.167 772.5,362.5C 711.833,362.5 651.167,362.5 590.5,362.5C 590.5,392.833 590.5,423.167 590.5,453.5C 620.833,453.5 651.167,453.5 681.5,453.5C 681.5,483.833 681.5,514.167 681.5,544.5C 605.833,544.5 530.167,544.5 454.5,544.5C 454.5,514.167 454.5,483.833 454.5,453.5C 469.5,453.5 484.5,453.5 499.5,453.5C 499.5,423.167 499.5,392.833 499.5,362.5C 469.167,362.5 438.833,362.5 408.5,362.5C 408.5,392.833 408.5,423.167 408.5,453.5C 378.167,453.5 347.833,453.5 317.5,453.5C 317.5,392.833 317.5,332.167 317.5,271.5 Z"/></g>
<g><path style="opacity:1" fill="#3f5438" d="M 772.5,271.5 C 802.833,271.5 833.167,271.5 863.5,271.5C 863.5,301.833 863.5,332.167 863.5,362.5C 863.5,392.833 863.5,423.167 863.5,453.5C 863.5,483.833 863.5,514.167 863.5,544.5C 802.833,544.5 742.167,544.5 681.5,544.5C 681.5,514.167 681.5,483.833 681.5,453.5C 651.167,453.5 620.833,453.5 590.5,453.5C 590.5,423.167 590.5,392.833 590.5,362.5C 651.167,362.5 711.833,362.5 772.5,362.5C 772.5,332.167 772.5,301.833 772.5,271.5 Z"/></g>
<g><path style="opacity:1" fill="#2d402a" d="M 863.5,271.5 C 908.833,271.5 954.167,271.5 999.5,271.5C 999.5,301.833 999.5,332.167 999.5,362.5C 954.167,362.5 908.833,362.5 863.5,362.5C 863.5,332.167 863.5,301.833 863.5,271.5 Z"/></g>
<g><path style="opacity:1" fill="#267000" d="M -0.5,362.5 C 14.5,362.5 29.5,362.5 44.5,362.5C 59.8333,362.5 75.1667,362.5 90.5,362.5C 90.5,392.833 90.5,423.167 90.5,453.5C 90.5,483.833 90.5,514.167 90.5,544.5C 60.1667,544.5 29.8333,544.5 -0.5,544.5C -0.5,483.833 -0.5,423.167 -0.5,362.5 Z"/></g>
<g><path style="opacity:1" fill="#494126" d="M 90.5,362.5 C 135.833,362.5 181.167,362.5 226.5,362.5C 226.5,392.833 226.5,423.167 226.5,453.5C 211.5,453.5 196.5,453.5 181.5,453.5C 151.167,453.5 120.833,453.5 90.5,453.5C 90.5,423.167 90.5,392.833 90.5,362.5 Z"/></g>
<g><path style="opacity:1" fill="#4da9a6" d="M 454.5,453.5 C 439.167,453.5 423.833,453.5 408.5,453.5C 408.5,423.167 408.5,392.833 408.5,362.5C 438.833,362.5 469.167,362.5 499.5,362.5C 499.5,392.833 499.5,423.167 499.5,453.5C 484.5,453.5 469.5,453.5 454.5,453.5 Z"/></g>
<g><path style="opacity:1" fill="#7d7d63" d="M 90.5,453.5 C 120.833,453.5 151.167,453.5 181.5,453.5C 181.5,483.833 181.5,514.167 181.5,544.5C 151.167,544.5 120.833,544.5 90.5,544.5C 90.5,514.167 90.5,483.833 90.5,453.5 Z"/></g>
<g><path style="opacity:1" fill="#2d402a" d="M 863.5,453.5 C 878.5,453.5 893.5,453.5 908.5,453.5C 908.5,483.833 908.5,514.167 908.5,544.5C 893.5,544.5 878.5,544.5 863.5,544.5C 863.5,514.167 863.5,483.833 863.5,453.5 Z"/></g>
</svg>
