<?xml version="1.0" encoding="UTF-8"?>
<!DOCTYPE svg PUBLIC "-//W3C//DTD SVG 1.1//EN" "http://www.w3.org/Graphics/SVG/1.1/DTD/svg11.dtd">
<svg xmlns="http://www.w3.org/2000/svg" version="1.1" width="2300px" height="1400px" style="shape-rendering:geometricPrecision; text-rendering:geometricPrecision; image-rendering:optimizeQuality; fill-rule:evenodd; clip-rule:evenodd" xmlns:xlink="http://www.w3.org/1999/xlink">
<g><path style="opacity:1" fill="#00050b" d="M -0.5,-0.5 C 254.833,-0.5 510.167,-0.5 765.5,-0.5C 765.5,466.167 765.5,932.833 765.5,1399.5C 510.167,1399.5 254.833,1399.5 -0.5,1399.5C -0.5,932.833 -0.5,466.167 -0.5,-0.5 Z"/></g>
<g><path style="opacity:1" fill="#00070e" d="M 765.5,-0.5 C 1276.83,-0.5 1788.17,-0.5 2299.5,-0.5C 2299.5,466.167 2299.5,932.833 2299.5,1399.5C 1788.17,1399.5 1276.83,1399.5 765.5,1399.5C 765.5,932.833 765.5,466.167 765.5,-0.5 Z"/></g>
<g><path style="opacity:1" fill="#092a2c" d="M 125.5,251.5 C 296.167,251.5 466.833,251.5 637.5,251.5C 637.5,336.833 637.5,422.167 637.5,507.5C 466.833,507.5 296.167,507.5 125.5,507.5C 125.5,422.167 125.5,336.833 125.5,251.5 Z"/></g>
<g><path style="opacity:1" fill="#133236" d="M 1789.5,507.5 C 1704.17,507.5 1618.83,507.5 1533.5,507.5C 1490.83,507.5 1448.17,507.5 1405.5,507.5C 1362.83,507.5 1320.17,507.5 1277.5,507.5C 1192.17,507.5 1106.83,507.5 1021.5,507.5C 1021.5,422.167 1021.5,336.833 1021.5,251.5C 1362.83,251.5 1704.17,251.5 2045.5,251.5C 2045.5,336.833 2045.5,422.167 2045.5,507.5C 1960.17,507.5 1874.83,507.5 1789.5,507.5 Z"/></g>
<g><path style="opacity:1" fill="#000004" d="M 1277.5,507.5 C 1320.17,507.5 1362.83,507.5 1405.5,507.5C 1405.5,592.833 1405.5,678.167 1405.5,763.5C 1362.83,763.5 1320.17,763.5 1277.5,763.5C 1277.5,678.167 1277.5,592.833 1277.5,507.5 Z"/></g>
<g><path style="opacity:1" fill="#c0b12a" d="M 1405.5,507.5 C 1448.17,507.5 1490.83,507.5 1533.5,507.5C 1533.5,678.167 1533.5,848.833 1533.5,1019.5C 1490.83,1019.5 1448.17,1019.5 1405.5,1019.5C 1405.5,934.167 1405.5,848.833 1405.5,763.5C 1405.5,678.167 1405.5,592.833 1405.5,507.5 Z"/></g>
<g><path style="opacity:1" fill="#d2c338" d="M 1533.5,507.5 C 1618.83,507.5 1704.17,507.5 1789.5,507.5C 1789.5,592.833 1789.5,678.167 1789.5,763.5C 1789.5,848.833 1789.5,934.167 1789.5,1019.5C 1704.17,1019.5 1618.83,1019.5 1533.5,1019.5C 1533.5,848.833 1533.5,678.167 1533.5,507.5 Z"/></g>
<g><path style="opacity:1" fill="#021926" d="M 125.5,763.5 C 296.167,763.5 466.833,763.5 637.5,763.5C 637.5,891.5 637.5,1019.5 637.5,1147.5C 466.833,1147.5 296.167,1147.5 125.5,1147.5C 125.5,1019.5 125.5,891.5 125.5,763.5 Z"/></g>
<g><path style="opacity:1" fill="#09202d" d="M 1277.5,763.5 C 1277.5,891.5 1277.5,1019.5 1277.5,1147.5C 1192.17,1147.5 1106.83,1147.5 1021.5,1147.5C 1021.5,1019.5 1021.5,891.5 1021.5,763.5C 1106.83,763.5 1192.17,763.5 1277.5,763.5 Z"/></g>
<g><path style="opacity:1" fill="#072a2a" d="M 1277.5,763.5 C 1320.17,763.5 1362.83,763.5 1405.5,763.5C 1405.5,848.833 1405.5,934.167 1405.5,1019.5C 1448.17,1019.5 1490.83,1019.5 1533.5,1019.5C 1618.83,1019.5 1704.17,1019.5 1789.5,1019.5C 1789.5,1062.17 1789.5,1104.83 1789.5,1147.5C 1618.83,1147.5 1448.17,1147.5 1277.5,1147.5C 1277.5,1019.5 1277.5,891.5 1277.5,763.5 Z"/></g>
<g><path style="opacity:1" fill="#09202d" d="M 1789.5,763.5 C 1874.83,763.5 1960.17,763.5 2045.5,763.5C 2045.5,891.5 2045.5,1019.5 2045.5,1147.5C 1960.17,1147.5 1874.83,1147.5 1789.5,1147.5C 1789.5,1104.83 1789.5,1062.17 1789.5,1019.5C 1789.5,934.167 1789.5,848.833 1789.5,763.5 Z"/></g>
</svg>
