<?xml version="1.0" encoding="UTF-8"?>
<!DOCTYPE svg PUBLIC "-//W3C//DTD SVG 1.1//EN" "http://www.w3.org/Graphics/SVG/1.1/DTD/svg11.dtd">
<svg xmlns="http://www.w3.org/2000/svg" version="1.1" width="2800px" height="2680px" style="shape-rendering:geometricPrecision; text-rendering:geometricPrecision; image-rendering:optimizeQuality; fill-rule:evenodd; clip-rule:evenodd" xmlns:xlink="http://www.w3.org/1999/xlink">
<g><path style="opacity:1" fill="#c0b12a" d="M 1015.5,-0.5 C 1143.5,-0.5 1271.5,-0.5 1399.5,-0.5C 1399.5,83.5 1399.5,167.5 1399.5,251.5C 1271.5,251.5 1143.5,251.5 1015.5,251.5C 1015.5,208.833 1015.5,166.167 1015.5,123.5C 1015.5,82.1667 1015.5,40.8333 1015.5,-0.5 Z"/></g>
<g><path style="opacity:1" fill="#d2c338" d="M 1399.5,-0.5 C 1484.83,-0.5 1570.17,-0.5 1655.5,-0.5C 1655.5,40.8333 1655.5,82.1667 1655.5,123.5C 1655.5,166.167 1655.5,208.833 1655.5,251.5C 1570.17,251.5 1484.83,251.5 1399.5,251.5C 1399.5,167.5 1399.5,83.5 1399.5,-0.5 Z"/></g>
<g><path style="opacity:1" fill="#00060b" d="M -0.5,123.5 C 338.167,123.5 676.833,123.5 1015.5,123.5C 1015.5,166.167 1015.5,208.833 1015.5,251.5C 1143.5,251.5 1271.5,251.5 1399.5,251.5C 1484.83,251.5 1570.17,251.5 1655.5,251.5C 1655.5,208.833 1655.5,166.167 1655.5,123.5C 1783.5,123.5 1911.5,123.5 2039.5,123.5C 2039.5,635.5 2039.5,1147.5 2039.5,1659.5C 1783.5,1659.5 1527.5,1659.5 1271.5,1659.5C 1271.5,1999.5 1271.5,2339.5 1271.5,2679.5C 1015.5,2679.5 759.5,2679.5 503.5,2679.5C 503.5,2339.5 503.5,1999.5 503.5,1659.5C 335.5,1659.5 167.5,1659.5 -0.5,1659.5C -0.5,1147.5 -0.5,635.5 -0.5,123.5 Z"/></g>
<g><path style="opacity:1" fill="#021926" d="M 119.5,379.5 C 204.833,379.5 290.167,379.5 375.5,379.5C 375.5,720.833 375.5,1062.17 375.5,1403.5C 290.167,1403.5 204.833,1403.5 119.5,1403.5C 119.5,1062.17 119.5,720.833 119.5,379.5 Z"/></g>
<g><path style="opacity:1" fill="#010f19" d="M 759.5,379.5 C 1100.83,379.5 1442.17,379.5 1783.5,379.5C 1783.5,720.833 1783.5,1062.17 1783.5,1403.5C 1442.17,1403.5 1100.83,1403.5 759.5,1403.5C 759.5,1062.17 759.5,720.833 759.5,379.5 Z"/></g>
<g><path style="opacity:1" fill="#00080e" d="M 2039.5,1659.5 C 2292.83,1659.5 2546.17,1659.5 2799.5,1659.5C 2799.5,1999.5 2799.5,2339.5 2799.5,2679.5C 2290.17,2679.5 1780.83,2679.5 1271.5,2679.5C 1271.5,2339.5 1271.5,1999.5 1271.5,1659.5C 1527.5,1659.5 1783.5,1659.5 2039.5,1659.5 Z"/></g>
<g><path style="opacity:1" fill="#021926" d="M 631.5,1915.5 C 802.167,1915.5 972.833,1915.5 1143.5,1915.5C 1143.5,2086.17 1143.5,2256.83 1143.5,2427.5C 972.833,2427.5 802.167,2427.5 631.5,2427.5C 631.5,2256.83 631.5,2086.17 631.5,1915.5 Z"/></g>
<g><path style="opacity:1" fill="#082a2a" d="M 1783.5,1915.5 C 1783.5,2000.83 1783.5,2086.17 1783.5,2171.5C 1783.5,2256.83 1783.5,2342.17 1783.5,2427.5C 1698.17,2427.5 1612.83,2427.5 1527.5,2427.5C 1527.5,2256.83 1527.5,2086.17 1527.5,1915.5C 1612.83,1915.5 1698.17,1915.5 1783.5,1915.5 Z"/></g>
<g><path style="opacity:1" fill="#94cd93" d="M 1783.5,1915.5 C 1868.83,1915.5 1954.17,1915.5 2039.5,1915.5C 2039.5,2000.83 2039.5,2086.17 2039.5,2171.5C 1954.17,2171.5 1868.83,2171.5 1783.5,2171.5C 1783.5,2086.17 1783.5,2000.83 1783.5,1915.5 Z"/></g>
<g><path style="opacity:1" fill="#214434" d="M 2039.5,1915.5 C 2124.83,1915.5 2210.17,1915.5 2295.5,1915.5C 2295.5,2000.83 2295.5,2086.17 2295.5,2171.5C 2210.17,2171.5 2124.83,2171.5 2039.5,2171.5C 2039.5,2086.17 2039.5,2000.83 2039.5,1915.5 Z"/></g>
<g><path style="opacity:1" fill="#082a2a" d="M 2295.5,1915.5 C 2380.83,1915.5 2466.17,1915.5 2551.5,1915.5C 2551.5,2086.17 2551.5,2256.83 2551.5,2427.5C 2466.17,2427.5 2380.83,2427.5 2295.5,2427.5C 2295.5,2342.17 2295.5,2256.83 2295.5,2171.5C 2295.5,2086.17 2295.5,2000.83 2295.5,1915.5 Z"/></g>
<g><path style="opacity:1" fill="#73b76a" d="M 1783.5,2171.5 C 1868.83,2171.5 1954.17,2171.5 2039.5,2171.5C 2039.5,2256.83 2039.5,2342.17 2039.5,2427.5C 1954.17,2427.5 1868.83,2427.5 1783.5,2427.5C 1783.5,2342.17 1783.5,2256.83 1783.5,2171.5 Z"/></g>
<g><path style="opacity:1" fill="#17311d" d="M 2039.5,2171.5 C 2124.83,2171.5 2210.17,2171.5 2295.5,2171.5C 2295.5,2256.83 2295.5,2342.17 2295.5,2427.5C 2210.17,2427.5 2124.83,2427.5 2039.5,2427.5C 2039.5,2342.17 2039.5,2256.83 2039.5,2171.5 Z"/></g>
</svg>
