<?xml version="1.0" encoding="UTF-8"?>
<!DOCTYPE svg PUBLIC "-//W3C//DTD SVG 1.1//EN" "http://www.w3.org/Graphics/SVG/1.1/DTD/svg11.dtd">
<svg xmlns="http://www.w3.org/2000/svg" version="1.1" width="1000px" height="1000px" style="shape-rendering:geometricPrecision; text-rendering:geometricPrecision; image-rendering:optimizeQuality; fill-rule:evenodd; clip-rule:evenodd" xmlns:xlink="http://www.w3.org/1999/xlink">
<g><path style="opacity:1" fill="#2d75b2" d="M 625.5,-0.5 C 667.167,-0.5 708.833,-0.5 750.5,-0.5C 750.5,83.1667 750.5,166.833 750.5,250.5C 708.833,250.5 667.167,250.5 625.5,250.5C 625.5,292.167 625.5,333.833 625.5,375.5C 583.833,375.5 542.167,375.5 500.5,375.5C 500.5,417.167 500.5,458.833 500.5,500.5C 458.833,500.5 417.167,500.5 375.5,500.5C 375.5,458.833 375.5,417.167 375.5,375.5C 375.5,333.833 375.5,292.167 375.5,250.5C 417.167,250.5 458.833,250.5 500.5,250.5C 500.5,208.833 500.5,167.167 500.5,125.5C 542.167,125.5 583.833,125.5 625.5,125.5C 625.5,83.5 625.5,41.5 625.5,-0.5 Z"/></g>
<g><path style="opacity:1" fill="#46a5f4" d="M 750.5,-0.5 C 792.167,-0.5 833.833,-0.5 875.5,-0.5C 875.5,41.5 875.5,83.5 875.5,125.5C 916.833,125.5 958.167,125.5 999.5,125.5C 999.5,375.5 999.5,625.5 999.5,875.5C 958.167,875.5 916.833,875.5 875.5,875.5C 875.5,916.833 875.5,958.167 875.5,999.5C 833.833,999.5 792.167,999.5 750.5,999.5C 750.5,916.5 750.5,833.5 750.5,750.5C 750.5,583.833 750.5,417.167 750.5,250.5C 750.5,166.833 750.5,83.1667 750.5,-0.5 Z"/></g>
<g><path style="opacity:1" fill="#2e86d4" d="M -0.5,250.5 C 83.1667,250.5 166.833,250.5 250.5,250.5C 250.5,292.167 250.5,333.833 250.5,375.5C 292.167,375.5 333.833,375.5 375.5,375.5C 375.5,417.167 375.5,458.833 375.5,500.5C 417.167,500.5 458.833,500.5 500.5,500.5C 500.5,542.167 500.5,583.833 500.5,625.5C 542.167,625.5 583.833,625.5 625.5,625.5C 625.5,667.167 625.5,708.833 625.5,750.5C 667.167,750.5 708.833,750.5 750.5,750.5C 750.5,833.5 750.5,916.5 750.5,999.5C 708.833,999.5 667.167,999.5 625.5,999.5C 625.5,958.167 625.5,916.833 625.5,875.5C 583.833,875.5 542.167,875.5 500.5,875.5C 500.5,833.833 500.5,792.167 500.5,750.5C 458.833,750.5 417.167,750.5 375.5,750.5C 375.5,708.833 375.5,667.167 375.5,625.5C 333.833,625.5 292.167,625.5 250.5,625.5C 250.5,583.833 250.5,542.167 250.5,500.5C 208.833,500.5 167.167,500.5 125.5,500.5C 125.5,458.833 125.5,417.167 125.5,375.5C 83.5,375.5 41.5,375.5 -0.5,375.5C -0.5,333.833 -0.5,292.167 -0.5,250.5 Z"/></g>
<g><path style="opacity:1" fill="#2d75b2" d="M 125.5,500.5 C 167.167,500.5 208.833,500.5 250.5,500.5C 250.5,542.167 250.5,583.833 250.5,625.5C 250.5,667.167 250.5,708.833 250.5,750.5C 166.833,750.5 83.1667,750.5 -0.5,750.5C -0.5,708.833 -0.5,667.167 -0.5,625.5C 41.5,625.5 83.5,625.5 125.5,625.5C 125.5,583.833 125.5,542.167 125.5,500.5 Z"/></g>
</svg>
