<?xml version="1.0" encoding="UTF-8"?>
<!DOCTYPE svg PUBLIC "-//W3C//DTD SVG 1.1//EN" "http://www.w3.org/Graphics/SVG/1.1/DTD/svg11.dtd">
<svg xmlns="http://www.w3.org/2000/svg" version="1.1" width="1000px" height="1000px" style="shape-rendering:geometricPrecision; text-rendering:geometricPrecision; image-rendering:optimizeQuality; fill-rule:evenodd; clip-rule:evenodd" xmlns:xlink="http://www.w3.org/1999/xlink">
<g><path style="opacity:1" fill="#000000" d="M 286.5,143.5 C 238.833,143.5 191.167,143.5 143.5,143.5C 143.5,191.167 143.5,238.833 143.5,286.5C 95.8333,286.5 48.1667,286.5 0.5,286.5C 0.5,191.167 0.5,95.8333 0.5,0.5C 95.8333,0.5 191.167,0.5 286.5,0.5C 286.5,48.1667 286.5,95.8333 286.5,143.5 Z"/></g>
<g><path style="opacity:1" fill="#000000" d="M 999.5,0.5 C 999.5,95.8333 999.5,191.167 999.5,286.5C 952.167,286.5 904.833,286.5 857.5,286.5C 857.5,238.833 857.5,191.167 857.5,143.5C 809.833,143.5 762.167,143.5 714.5,143.5C 714.5,95.8333 714.5,48.1667 714.5,0.5C 809.5,0.5 904.5,0.5 999.5,0.5 Z"/></g>
<g><path style="opacity:1" fill="#fefffe" d="M 286.5,143.5 C 286.5,191.167 286.5,238.833 286.5,286.5C 238.833,286.5 191.167,286.5 143.5,286.5C 143.5,238.833 143.5,191.167 143.5,143.5C 191.167,143.5 238.833,143.5 286.5,143.5 Z"/></g>
<g><path style="opacity:1" fill="#000000" d="M 286.5,143.5 C 429.167,143.5 571.833,143.5 714.5,143.5C 714.5,191.167 714.5,238.833 714.5,286.5C 619.5,286.5 524.5,286.5 429.5,286.5C 381.833,286.5 334.167,286.5 286.5,286.5C 286.5,238.833 286.5,191.167 286.5,143.5 Z"/></g>
<g><path style="opacity:1" fill="#c5c6c5" d="M 714.5,143.5 C 762.167,143.5 809.833,143.5 857.5,143.5C 857.5,191.167 857.5,238.833 857.5,286.5C 809.833,286.5 762.167,286.5 714.5,286.5C 714.5,238.833 714.5,191.167 714.5,143.5 Z"/></g>
<g><path style="opacity:1" fill="#000000" d="M 143.5,286.5 C 191.167,286.5 238.833,286.5 286.5,286.5C 286.5,381.5 286.5,476.5 286.5,571.5C 286.5,619.167 286.5,666.833 286.5,714.5C 238.833,714.5 191.167,714.5 143.5,714.5C 143.5,571.833 143.5,429.167 143.5,286.5 Z"/></g>
<g><path style="opacity:1" fill="#fefffe" d="M 286.5,286.5 C 334.167,286.5 381.833,286.5 429.5,286.5C 429.5,381.5 429.5,476.5 429.5,571.5C 381.833,571.5 334.167,571.5 286.5,571.5C 286.5,476.5 286.5,381.5 286.5,286.5 Z"/></g>
<g><path style="opacity:1" fill="#c5c6c5" d="M 429.5,286.5 C 524.5,286.5 619.5,286.5 714.5,286.5C 714.5,429.167 714.5,571.833 714.5,714.5C 571.833,714.5 429.167,714.5 286.5,714.5C 286.5,666.833 286.5,619.167 286.5,571.5C 334.167,571.5 381.833,571.5 429.5,571.5C 429.5,476.5 429.5,381.5 429.5,286.5 Z"/></g>
<g><path style="opacity:1" fill="#000000" d="M 714.5,286.5 C 762.167,286.5 809.833,286.5 857.5,286.5C 857.5,429.167 857.5,571.833 857.5,714.5C 809.833,714.5 762.167,714.5 714.5,714.5C 714.5,571.833 714.5,429.167 714.5,286.5 Z"/></g>
<g><path style="opacity:1" fill="#000000" d="M 143.5,714.5 C 143.5,762.167 143.5,809.833 143.5,857.5C 191.167,857.5 238.833,857.5 286.5,857.5C 286.5,904.833 286.5,952.167 286.5,999.5C 191.167,999.5 95.8333,999.5 0.5,999.5C 0.5,904.5 0.5,809.5 0.5,714.5C 48.1667,714.5 95.8333,714.5 143.5,714.5 Z"/></g>
<g><path style="opacity:1" fill="#c5c6c5" d="M 143.5,714.5 C 191.167,714.5 238.833,714.5 286.5,714.5C 286.5,762.167 286.5,809.833 286.5,857.5C 238.833,857.5 191.167,857.5 143.5,857.5C 143.5,809.833 143.5,762.167 143.5,714.5 Z"/></g>
<g><path style="opacity:1" fill="#000000" d="M 286.5,714.5 C 429.167,714.5 571.833,714.5 714.5,714.5C 714.5,762.167 714.5,809.833 714.5,857.5C 571.833,857.5 429.167,857.5 286.5,857.5C 286.5,809.833 286.5,762.167 286.5,714.5 Z"/></g>
<g><path style="opacity:1" fill="#c5c6c5" d="M 714.5,714.5 C 762.167,714.5 809.833,714.5 857.5,714.5C 857.5,762.167 857.5,809.833 857.5,857.5C 809.833,857.5 762.167,857.5 714.5,857.5C 714.5,809.833 714.5,762.167 714.5,714.5 Z"/></g>
<g><path style="opacity:1" fill="#000000" d="M 857.5,714.5 C 904.833,714.5 952.167,714.5 999.5,714.5C 999.5,809.5 999.5,904.5 999.5,999.5C 904.5,999.5 809.5,999.5 714.5,999.5C 714.5,952.167 714.5,904.833 714.5,857.5C 762.167,857.5 809.833,857.5 857.5,857.5C 857.5,809.833 857.5,762.167 857.5,714.5 Z"/></g>
</svg>
