<?xml version="1.0" encoding="UTF-8"?>
<!DOCTYPE svg PUBLIC "-//W3C//DTD SVG 1.1//EN" "http://www.w3.org/Graphics/SVG/1.1/DTD/svg11.dtd">
<svg xmlns="http://www.w3.org/2000/svg" version="1.1" width="1024px" height="1024px" style="shape-rendering:geometricPrecision; text-rendering:geometricPrecision; image-rendering:optimizeQuality; fill-rule:evenodd; clip-rule:evenodd" xmlns:xlink="http://www.w3.org/1999/xlink">
<g><path style="opacity:1" fill="#8a7047" d="M 455.5,55.5 C 455.5,93.5 455.5,131.5 455.5,169.5C 417.5,169.5 379.5,169.5 341.5,169.5C 341.5,131.5 341.5,93.5 341.5,55.5C 379.5,55.5 417.5,55.5 455.5,55.5 Z"/></g>
<g><path style="opacity:1" fill="#af884d" d="M 455.5,55.5 C 531.167,55.5 606.833,55.5 682.5,55.5C 682.5,93.5 682.5,131.5 682.5,169.5C 606.833,169.5 531.167,169.5 455.5,169.5C 455.5,131.5 455.5,93.5 455.5,55.5 Z"/></g>
<g><path style="opacity:1" fill="#695534" d="M 341.5,169.5 C 379.5,169.5 417.5,169.5 455.5,169.5C 455.5,207.5 455.5,245.5 455.5,283.5C 417.5,283.5 379.5,283.5 341.5,283.5C 341.5,245.5 341.5,207.5 341.5,169.5 Z"/></g>
<g><path style="opacity:1" fill="#7f6234" d="M 455.5,169.5 C 531.167,169.5 606.833,169.5 682.5,169.5C 682.5,207.5 682.5,245.5 682.5,283.5C 606.833,283.5 531.167,283.5 455.5,283.5C 455.5,245.5 455.5,207.5 455.5,169.5 Z"/></g>
<g><path style="opacity:1" fill="#8a7047" d="M 341.5,283.5 C 379.5,283.5 417.5,283.5 455.5,283.5C 455.5,321.5 455.5,359.5 455.5,397.5C 417.5,397.5 379.5,397.5 341.5,397.5C 341.5,359.5 341.5,321.5 341.5,283.5 Z"/></g>
<g><path style="opacity:1" fill="#af884d" d="M 455.5,283.5 C 531.167,283.5 606.833,283.5 682.5,283.5C 682.5,321.5 682.5,359.5 682.5,397.5C 606.833,397.5 531.167,397.5 455.5,397.5C 455.5,359.5 455.5,321.5 455.5,283.5 Z"/></g>
<g><path style="opacity:1" fill="#8a7047" d="M -0.5,397.5 C 37.5,397.5 75.5,397.5 113.5,397.5C 113.5,473.167 113.5,548.833 113.5,624.5C 75.5,624.5 37.5,624.5 -0.5,624.5C -0.5,548.833 -0.5,473.167 -0.5,397.5 Z"/></g>
<g><path style="opacity:1" fill="#b7945e" d="M 113.5,397.5 C 151.5,397.5 189.5,397.5 227.5,397.5C 227.5,473.167 227.5,548.833 227.5,624.5C 189.5,624.5 151.5,624.5 113.5,624.5C 113.5,548.833 113.5,473.167 113.5,397.5 Z"/></g>
<g><path style="opacity:1" fill="#8b7045" d="M 227.5,397.5 C 265.5,397.5 303.5,397.5 341.5,397.5C 341.5,473.167 341.5,548.833 341.5,624.5C 322.5,624.5 303.5,624.5 284.5,624.5C 265.5,624.5 246.5,624.5 227.5,624.5C 227.5,548.833 227.5,473.167 227.5,397.5 Z"/></g>
<g><path style="opacity:1" fill="#b7945e" d="M 341.5,397.5 C 379.5,397.5 417.5,397.5 455.5,397.5C 531.167,397.5 606.833,397.5 682.5,397.5C 720.5,397.5 758.5,397.5 796.5,397.5C 796.5,473.167 796.5,548.833 796.5,624.5C 739.5,624.5 682.5,624.5 625.5,624.5C 568.833,624.5 512.167,624.5 455.5,624.5C 417.5,624.5 379.5,624.5 341.5,624.5C 341.5,548.833 341.5,473.167 341.5,397.5 Z"/></g>
<g><path style="opacity:1" fill="#8b7045" d="M 796.5,397.5 C 834.5,397.5 872.5,397.5 910.5,397.5C 910.5,473.167 910.5,548.833 910.5,624.5C 872.5,624.5 834.5,624.5 796.5,624.5C 796.5,548.833 796.5,473.167 796.5,397.5 Z"/></g>
<g><path style="opacity:1" fill="#b7945e" d="M 910.5,397.5 C 948.167,397.5 985.833,397.5 1023.5,397.5C 1023.5,473.167 1023.5,548.833 1023.5,624.5C 985.833,624.5 948.167,624.5 910.5,624.5C 910.5,548.833 910.5,473.167 910.5,397.5 Z"/></g>
<g><path style="opacity:1" fill="#695534" d="M 284.5,624.5 C 303.5,624.5 322.5,624.5 341.5,624.5C 379.5,624.5 417.5,624.5 455.5,624.5C 455.5,643.5 455.5,662.5 455.5,681.5C 417.5,681.5 379.5,681.5 341.5,681.5C 341.5,700.5 341.5,719.5 341.5,738.5C 322.5,738.5 303.5,738.5 284.5,738.5C 284.5,700.5 284.5,662.5 284.5,624.5 Z"/></g>
<g><path style="opacity:1" fill="#695534" d="M 625.5,624.5 C 682.5,624.5 739.5,624.5 796.5,624.5C 796.5,643.5 796.5,662.5 796.5,681.5C 758.5,681.5 720.5,681.5 682.5,681.5C 682.5,700.5 682.5,719.5 682.5,738.5C 663.5,738.5 644.5,738.5 625.5,738.5C 625.5,700.5 625.5,662.5 625.5,624.5 Z"/></g>
<g><path style="opacity:1" fill="#7f6234" d="M 455.5,681.5 C 455.5,700.5 455.5,719.5 455.5,738.5C 417.5,738.5 379.5,738.5 341.5,738.5C 341.5,719.5 341.5,700.5 341.5,681.5C 379.5,681.5 417.5,681.5 455.5,681.5 Z"/></g>
<g><path style="opacity:1" fill="#7f6234" d="M 796.5,681.5 C 796.5,700.5 796.5,719.5 796.5,738.5C 758.5,738.5 720.5,738.5 682.5,738.5C 682.5,719.5 682.5,700.5 682.5,681.5C 720.5,681.5 758.5,681.5 796.5,681.5 Z"/></g>
<g><path style="opacity:1" fill="#8a7047" d="M 284.5,738.5 C 303.5,738.5 322.5,738.5 341.5,738.5C 341.5,776.5 341.5,814.5 341.5,852.5C 322.5,852.5 303.5,852.5 284.5,852.5C 284.5,814.5 284.5,776.5 284.5,738.5 Z"/></g>
<g><path style="opacity:1" fill="#af884d" d="M 341.5,738.5 C 379.5,738.5 417.5,738.5 455.5,738.5C 455.5,776.5 455.5,814.5 455.5,852.5C 417.5,852.5 379.5,852.5 341.5,852.5C 341.5,814.5 341.5,776.5 341.5,738.5 Z"/></g>
<g><path style="opacity:1" fill="#8a7047" d="M 625.5,738.5 C 644.5,738.5 663.5,738.5 682.5,738.5C 682.5,776.5 682.5,814.5 682.5,852.5C 663.5,852.5 644.5,852.5 625.5,852.5C 625.5,814.5 625.5,776.5 625.5,738.5 Z"/></g>
<g><path style="opacity:1" fill="#af884d" d="M 682.5,738.5 C 720.5,738.5 758.5,738.5 796.5,738.5C 796.5,776.5 796.5,814.5 796.5,852.5C 758.5,852.5 720.5,852.5 682.5,852.5C 682.5,814.5 682.5,776.5 682.5,738.5 Z"/></g>
<g><path style="opacity:1" fill="#8a7047" d="M 227.5,852.5 C 227.5,890.167 227.5,927.833 227.5,965.5C 189.5,965.5 151.5,965.5 113.5,965.5C 113.5,927.833 113.5,890.167 113.5,852.5C 151.5,852.5 189.5,852.5 227.5,852.5 Z"/></g>
<g><path style="opacity:1" fill="#b7945e" d="M 227.5,852.5 C 246.5,852.5 265.5,852.5 284.5,852.5C 303.5,852.5 322.5,852.5 341.5,852.5C 341.5,890.167 341.5,927.833 341.5,965.5C 303.5,965.5 265.5,965.5 227.5,965.5C 227.5,927.833 227.5,890.167 227.5,852.5 Z"/></g>
<g><path style="opacity:1" fill="#8b7045" d="M 341.5,852.5 C 379.5,852.5 417.5,852.5 455.5,852.5C 455.5,890.167 455.5,927.833 455.5,965.5C 417.5,965.5 379.5,965.5 341.5,965.5C 341.5,927.833 341.5,890.167 341.5,852.5 Z"/></g>
<g><path style="opacity:1" fill="#b7945e" d="M 455.5,852.5 C 512.167,852.5 568.833,852.5 625.5,852.5C 644.5,852.5 663.5,852.5 682.5,852.5C 682.5,890.167 682.5,927.833 682.5,965.5C 606.833,965.5 531.167,965.5 455.5,965.5C 455.5,927.833 455.5,890.167 455.5,852.5 Z"/></g>
<g><path style="opacity:1" fill="#8b7045" d="M 682.5,852.5 C 720.5,852.5 758.5,852.5 796.5,852.5C 796.5,890.167 796.5,927.833 796.5,965.5C 758.5,965.5 720.5,965.5 682.5,965.5C 682.5,927.833 682.5,890.167 682.5,852.5 Z"/></g>
<g><path style="opacity:1" fill="#b7945e" d="M 796.5,852.5 C 834.5,852.5 872.5,852.5 910.5,852.5C 910.5,890.167 910.5,927.833 910.5,965.5C 872.5,965.5 834.5,965.5 796.5,965.5C 796.5,927.833 796.5,890.167 796.5,852.5 Z"/></g>
</svg>
