<?xml version="1.0" encoding="UTF-8"?>
<!DOCTYPE svg PUBLIC "-//W3C//DTD SVG 1.1//EN" "http://www.w3.org/Graphics/SVG/1.1/DTD/svg11.dtd">
<svg xmlns="http://www.w3.org/2000/svg" version="1.1" width="1000px" height="666px" style="shape-rendering:geometricPrecision; text-rendering:geometricPrecision; image-rendering:optimizeQuality; fill-rule:evenodd; clip-rule:evenodd" xmlns:xlink="http://www.w3.org/1999/xlink">
<g><path style="opacity:1" fill="#bfc0bf" d="M -0.5,0.5 C 21.8333,0.5 44.1667,0.5 66.5,0.5C 66.5,222.167 66.5,443.833 66.5,665.5C 44.1667,665.5 21.8333,665.5 -0.5,665.5C -0.5,443.833 -0.5,222.167 -0.5,0.5 Z"/></g>
<g><path style="opacity:1" fill="#fefffe" d="M 66.5,0.5 C 110.833,0.5 155.167,0.5 199.5,0.5C 199.5,44.8333 199.5,89.1667 199.5,133.5C 244.167,133.5 288.833,133.5 333.5,133.5C 333.5,177.833 333.5,222.167 333.5,266.5C 377.833,266.5 422.167,266.5 466.5,266.5C 466.5,311.167 466.5,355.833 466.5,400.5C 422.167,400.5 377.833,400.5 333.5,400.5C 333.5,444.833 333.5,489.167 333.5,533.5C 288.833,533.5 244.167,533.5 199.5,533.5C 199.5,577.5 199.5,621.5 199.5,665.5C 155.167,665.5 110.833,665.5 66.5,665.5C 66.5,443.833 66.5,222.167 66.5,0.5 Z"/></g>
<g><path style="opacity:1" fill="#bfc0bf" d="M 599.5,0.5 C 599.5,222.167 599.5,443.833 599.5,665.5C 577.5,665.5 555.5,665.5 533.5,665.5C 533.5,443.833 533.5,222.167 533.5,0.5C 555.5,0.5 577.5,0.5 599.5,0.5 Z"/></g>
<g><path style="opacity:1" fill="#fefffe" d="M 599.5,0.5 C 644.167,0.5 688.833,0.5 733.5,0.5C 733.5,222.167 733.5,443.833 733.5,665.5C 688.833,665.5 644.167,665.5 599.5,665.5C 599.5,443.833 599.5,222.167 599.5,0.5 Z"/></g>
<g><path style="opacity:1" fill="#bfc0bf" d="M 866.5,0.5 C 866.5,222.167 866.5,443.833 866.5,665.5C 844.167,665.5 821.833,665.5 799.5,665.5C 799.5,443.833 799.5,222.167 799.5,0.5C 821.833,0.5 844.167,0.5 866.5,0.5 Z"/></g>
<g><path style="opacity:1" fill="#fefffe" d="M 866.5,0.5 C 910.833,0.5 955.167,0.5 999.5,0.5C 999.5,222.167 999.5,443.833 999.5,665.5C 955.167,665.5 910.833,665.5 866.5,665.5C 866.5,443.833 866.5,222.167 866.5,0.5 Z"/></g>
</svg>
