<?xml version="1.0" encoding="UTF-8"?>
<!DOCTYPE svg PUBLIC "-//W3C//DTD SVG 1.1//EN" "http://www.w3.org/Graphics/SVG/1.1/DTD/svg11.dtd">
<svg xmlns="http://www.w3.org/2000/svg" version="1.1" width="1000px" height="954px" style="shape-rendering:geometricPrecision; text-rendering:geometricPrecision; image-rendering:optimizeQuality; fill-rule:evenodd; clip-rule:evenodd" xmlns:xlink="http://www.w3.org/1999/xlink">
<g><path style="opacity:1" fill="#757675" d="M 363.5,-0.5 C 408.833,-0.5 454.167,-0.5 499.5,-0.5C 499.5,29.8333 499.5,60.1667 499.5,90.5C 454.167,90.5 408.833,90.5 363.5,90.5C 363.5,75.1667 363.5,59.8333 363.5,44.5C 363.5,29.5 363.5,14.5 363.5,-0.5 Z"/></g>
<g><path style="opacity:1" fill="#a4a5a4" d="M 499.5,-0.5 C 529.833,-0.5 560.167,-0.5 590.5,-0.5C 590.5,14.5 590.5,29.5 590.5,44.5C 590.5,59.8333 590.5,75.1667 590.5,90.5C 560.167,90.5 529.833,90.5 499.5,90.5C 499.5,60.1667 499.5,29.8333 499.5,-0.5 Z"/></g>
<g><path style="opacity:1" fill="#1c1a13" d="M -0.5,44.5 C 120.833,44.5 242.167,44.5 363.5,44.5C 363.5,59.8333 363.5,75.1667 363.5,90.5C 408.833,90.5 454.167,90.5 499.5,90.5C 529.833,90.5 560.167,90.5 590.5,90.5C 590.5,75.1667 590.5,59.8333 590.5,44.5C 635.833,44.5 681.167,44.5 726.5,44.5C 726.5,74.8333 726.5,105.167 726.5,135.5C 620.5,135.5 514.5,135.5 408.5,135.5C 363.167,135.5 317.833,135.5 272.5,135.5C 272.5,150.833 272.5,166.167 272.5,181.5C 242.167,181.5 211.833,181.5 181.5,181.5C 181.5,211.833 181.5,242.167 181.5,272.5C 181.5,302.5 181.5,332.5 181.5,362.5C 181.5,392.833 181.5,423.167 181.5,453.5C 181.5,483.833 181.5,514.167 181.5,544.5C 181.5,559.833 181.5,575.167 181.5,590.5C 120.833,590.5 60.1667,590.5 -0.5,590.5C -0.5,408.5 -0.5,226.5 -0.5,44.5 Z"/></g>
<g><path style="opacity:1" fill="#855106" d="M 44.5,135.5 C 74.8333,135.5 105.167,135.5 135.5,135.5C 135.5,256.833 135.5,378.167 135.5,499.5C 105.167,499.5 74.8333,499.5 44.5,499.5C 44.5,378.167 44.5,256.833 44.5,135.5 Z"/></g>
<g><path style="opacity:1" fill="#683f04" d="M 408.5,135.5 C 408.5,150.833 408.5,166.167 408.5,181.5C 363.167,181.5 317.833,181.5 272.5,181.5C 272.5,166.167 272.5,150.833 272.5,135.5C 317.833,135.5 363.167,135.5 408.5,135.5 Z"/></g>
<g><path style="opacity:1" fill="#c41338" d="M 408.5,135.5 C 514.5,135.5 620.5,135.5 726.5,135.5C 741.833,135.5 757.167,135.5 772.5,135.5C 772.5,150.833 772.5,166.167 772.5,181.5C 772.5,241.833 772.5,302.167 772.5,362.5C 772.5,423.167 772.5,483.833 772.5,544.5C 772.5,559.833 772.5,575.167 772.5,590.5C 742.167,590.5 711.833,590.5 681.5,590.5C 681.5,575.167 681.5,559.833 681.5,544.5C 681.5,483.833 681.5,423.167 681.5,362.5C 681.5,302.167 681.5,241.833 681.5,181.5C 605.833,181.5 530.167,181.5 454.5,181.5C 439.167,181.5 423.833,181.5 408.5,181.5C 408.5,166.167 408.5,150.833 408.5,135.5 Z"/></g>
<g><path style="opacity:1" fill="#572515" d="M 272.5,181.5 C 317.833,181.5 363.167,181.5 408.5,181.5C 423.833,181.5 439.167,181.5 454.5,181.5C 454.5,241.833 454.5,302.167 454.5,362.5C 439.167,362.5 423.833,362.5 408.5,362.5C 408.5,332.5 408.5,302.5 408.5,272.5C 332.833,272.5 257.167,272.5 181.5,272.5C 181.5,242.167 181.5,211.833 181.5,181.5C 211.833,181.5 242.167,181.5 272.5,181.5 Z"/></g>
<g><path style="opacity:1" fill="#74321d" d="M 454.5,181.5 C 530.167,181.5 605.833,181.5 681.5,181.5C 681.5,241.833 681.5,302.167 681.5,362.5C 605.833,362.5 530.167,362.5 454.5,362.5C 454.5,302.167 454.5,241.833 454.5,181.5 Z"/></g>
<g><path style="opacity:1" fill="#74321d" d="M 772.5,181.5 C 848.167,181.5 923.833,181.5 999.5,181.5C 999.5,241.833 999.5,302.167 999.5,362.5C 923.833,362.5 848.167,362.5 772.5,362.5C 772.5,302.167 772.5,241.833 772.5,181.5 Z"/></g>
<g><path style="opacity:1" fill="#a0a1a0" d="M 181.5,272.5 C 257.167,272.5 332.833,272.5 408.5,272.5C 408.5,302.5 408.5,332.5 408.5,362.5C 332.833,362.5 257.167,362.5 181.5,362.5C 181.5,332.5 181.5,302.5 181.5,272.5 Z"/></g>
<g><path style="opacity:1" fill="#40823f" d="M 181.5,362.5 C 257.167,362.5 332.833,362.5 408.5,362.5C 423.833,362.5 439.167,362.5 454.5,362.5C 454.5,423.167 454.5,483.833 454.5,544.5C 439.167,544.5 423.833,544.5 408.5,544.5C 408.5,514.167 408.5,483.833 408.5,453.5C 332.833,453.5 257.167,453.5 181.5,453.5C 181.5,423.167 181.5,392.833 181.5,362.5 Z"/></g>
<g><path style="opacity:1" fill="#56ad55" d="M 454.5,362.5 C 530.167,362.5 605.833,362.5 681.5,362.5C 681.5,423.167 681.5,483.833 681.5,544.5C 605.833,544.5 530.167,544.5 454.5,544.5C 454.5,483.833 454.5,423.167 454.5,362.5 Z"/></g>
<g><path style="opacity:1" fill="#56ad55" d="M 772.5,362.5 C 848.167,362.5 923.833,362.5 999.5,362.5C 999.5,423.167 999.5,483.833 999.5,544.5C 923.833,544.5 848.167,544.5 772.5,544.5C 772.5,483.833 772.5,423.167 772.5,362.5 Z"/></g>
<g><path style="opacity:1" fill="#a0a1a0" d="M 181.5,453.5 C 257.167,453.5 332.833,453.5 408.5,453.5C 408.5,483.833 408.5,514.167 408.5,544.5C 332.833,544.5 257.167,544.5 181.5,544.5C 181.5,514.167 181.5,483.833 181.5,453.5 Z"/></g>
<g><path style="opacity:1" fill="#4b3810" d="M 181.5,544.5 C 257.167,544.5 332.833,544.5 408.5,544.5C 423.833,544.5 439.167,544.5 454.5,544.5C 454.5,559.833 454.5,575.167 454.5,590.5C 363.5,590.5 272.5,590.5 181.5,590.5C 181.5,575.167 181.5,559.833 181.5,544.5 Z"/></g>
<g><path style="opacity:1" fill="#644b16" d="M 454.5,544.5 C 530.167,544.5 605.833,544.5 681.5,544.5C 681.5,559.833 681.5,575.167 681.5,590.5C 605.833,590.5 530.167,590.5 454.5,590.5C 454.5,575.167 454.5,559.833 454.5,544.5 Z"/></g>
<g><path style="opacity:1" fill="#644b16" d="M 772.5,544.5 C 848.167,544.5 923.833,544.5 999.5,544.5C 999.5,559.833 999.5,575.167 999.5,590.5C 923.833,590.5 848.167,590.5 772.5,590.5C 772.5,575.167 772.5,559.833 772.5,544.5 Z"/></g>
<g><path style="opacity:1" fill="#1c1a13" d="M 181.5,590.5 C 272.5,590.5 363.5,590.5 454.5,590.5C 454.5,711.5 454.5,832.5 454.5,953.5C 363.5,953.5 272.5,953.5 181.5,953.5C 181.5,832.5 181.5,711.5 181.5,590.5 Z"/></g>
<g><path style="opacity:1" fill="#443c2e" d="M 454.5,590.5 C 530.167,590.5 605.833,590.5 681.5,590.5C 681.5,620.5 681.5,650.5 681.5,680.5C 635.833,680.5 590.167,680.5 544.5,680.5C 544.5,741.167 544.5,801.833 544.5,862.5C 665.833,862.5 787.167,862.5 908.5,862.5C 908.5,801.833 908.5,741.167 908.5,680.5C 863.167,680.5 817.833,680.5 772.5,680.5C 772.5,650.5 772.5,620.5 772.5,590.5C 848.167,590.5 923.833,590.5 999.5,590.5C 999.5,711.5 999.5,832.5 999.5,953.5C 817.833,953.5 636.167,953.5 454.5,953.5C 454.5,832.5 454.5,711.5 454.5,590.5 Z"/></g>
<g><path style="opacity:1" fill="#d2a215" d="M 681.5,590.5 C 711.833,590.5 742.167,590.5 772.5,590.5C 772.5,620.5 772.5,650.5 772.5,680.5C 742.167,680.5 711.833,680.5 681.5,680.5C 681.5,650.5 681.5,620.5 681.5,590.5 Z"/></g>
<g><path style="opacity:1" fill="#855106" d="M 226.5,680.5 C 287.167,680.5 347.833,680.5 408.5,680.5C 408.5,741.167 408.5,801.833 408.5,862.5C 347.833,862.5 287.167,862.5 226.5,862.5C 226.5,801.833 226.5,741.167 226.5,680.5 Z"/></g>
<g><path style="opacity:1" fill="#a66e1e" d="M 681.5,680.5 C 681.5,710.833 681.5,741.167 681.5,771.5C 711.833,771.5 742.167,771.5 772.5,771.5C 772.5,741.167 772.5,710.833 772.5,680.5C 817.833,680.5 863.167,680.5 908.5,680.5C 908.5,741.167 908.5,801.833 908.5,862.5C 787.167,862.5 665.833,862.5 544.5,862.5C 544.5,801.833 544.5,741.167 544.5,680.5C 590.167,680.5 635.833,680.5 681.5,680.5 Z"/></g>
<g><path style="opacity:1" fill="#c41338" d="M 681.5,680.5 C 711.833,680.5 742.167,680.5 772.5,680.5C 772.5,710.833 772.5,741.167 772.5,771.5C 742.167,771.5 711.833,771.5 681.5,771.5C 681.5,741.167 681.5,710.833 681.5,680.5 Z"/></g>
</svg>
