<?xml version="1.0" encoding="utf-8"?>
<!-- Generator: Adobe Illustrator 25.4.1, SVG Export Plug-In . SVG Version: 6.00 Build 0)  -->
<svg version="1.1" id="Слой_1" xmlns="http://www.w3.org/2000/svg" xmlns:xlink="http://www.w3.org/1999/xlink" x="0px" y="0px"
	 viewBox="0 0 1000 286" style="enable-background:new 0 0 1000 286;" xml:space="preserve">
<style type="text/css">
	.st0{fill-rule:evenodd;clip-rule:evenodd;fill:#97241F;}
	.st1{fill-rule:evenodd;clip-rule:evenodd;fill:#CB312A;}
</style>
<g>
	<path class="st0" d="M57.5-0.5c9.3,0,18.7,0,28,0c0,19.3,0,38.7,0,58c-9.3,0-18.7,0-28,0C57.5,38.2,57.5,18.8,57.5-0.5z"/>
</g>
<g>
	<path class="st1" d="M85.5-0.5c57.3,0,114.7,0,172,0c0,19.3,0,38.7,0,58c-9.7,0-19.3,0-29,0c-47.7,0-95.3,0-143,0
		C85.5,38.2,85.5,18.8,85.5-0.5z"/>
</g>
<g>
	<path class="st0" d="M400.5-0.5c9.3,0,18.7,0,28,0c0,19.3,0,38.7,0,58c-9.3,0-18.7,0-28,0C400.5,38.2,400.5,18.8,400.5-0.5z"/>
</g>
<g>
	<path class="st1" d="M428.5-0.5c76.3,0,152.7,0,229,0c0,19.3,0,38.7,0,58c-76.3,0-152.7,0-229,0C428.5,38.2,428.5,18.8,428.5-0.5z"
		/>
</g>
<g>
	<path class="st0" d="M685.5-0.5c9.7,0,19.3,0,29,0c0,95.3,0,190.7,0,286c-9.7,0-19.3,0-29,0C685.5,190.2,685.5,94.8,685.5-0.5z"/>
</g>
<g>
	<path class="st1" d="M714.5-0.5c19,0,38,0,57,0c0,19.3,0,38.7,0,58c19,0,38,0,57,0c0,19,0,38,0,57c-9.3,0-18.7,0-28,0
		c-9.7,0-19.3,0-29,0c0,57,0,114,0,171c-19,0-38,0-57,0C714.5,190.2,714.5,94.8,714.5-0.5z"/>
</g>
<g>
	<path class="st0" d="M914.5-0.5c9.7,0,19.3,0,29,0c0,19.3,0,38.7,0,58c-9.7,0-19.3,0-29,0C914.5,38.2,914.5,18.8,914.5-0.5z"/>
</g>
<g>
	<path class="st1" d="M943.5-0.5c18.7,0,37.3,0,56,0c0,95.3,0,190.7,0,286c-18.7,0-37.3,0-56,0c0-57,0-114,0-171c-9.7,0-19.3,0-29,0
		c-9.3,0-18.7,0-28,0c0-19,0-38,0-57c9.3,0,18.7,0,28,0c9.7,0,19.3,0,29,0C943.5,38.2,943.5,18.8,943.5-0.5z"/>
</g>
<g>
	<path class="st0" d="M-0.5,57.5c9.7,0,19.3,0,29,0c0,76,0,152,0,228c-9.7,0-19.3,0-29,0C-0.5,209.5-0.5,133.5-0.5,57.5z"/>
</g>
<g>
	<path class="st1" d="M28.5,57.5c9.7,0,19.3,0,29,0c9.3,0,18.7,0,28,0c0,28.7,0,57.3,0,86c47.7,0,95.3,0,143,0c9.7,0,19.3,0,29,0
		c0-28.7,0-57.3,0-86c19,0,38,0,57,0c0,76,0,152,0,228c-19,0-38,0-57,0c0-28.3,0-56.7,0-85c-9.7,0-19.3,0-29,0c-47.7,0-95.3,0-143,0
		c0,28.3,0,56.7,0,85c-19,0-38,0-57,0C28.5,209.5,28.5,133.5,28.5,57.5z"/>
</g>
<g>
	<path class="st0" d="M228.5,57.5c9.7,0,19.3,0,29,0c0,28.7,0,57.3,0,86c-9.7,0-19.3,0-29,0C228.5,114.8,228.5,86.2,228.5,57.5z"/>
</g>
<g>
	<path class="st0" d="M371.5,57.5c0,19,0,38,0,57c-9.7,0-19.3,0-29,0c0-19,0-38,0-57C352.2,57.5,361.8,57.5,371.5,57.5z"/>
</g>
<g>
	<path class="st1" d="M371.5,57.5c9.7,0,19.3,0,29,0c9.3,0,18.7,0,28,0c0,19,0,38,0,57c-9.3,0-18.7,0-28,0c-9.7,0-19.3,0-29,0
		C371.5,95.5,371.5,76.5,371.5,57.5z"/>
</g>
<g>
	<path class="st0" d="M886.5,57.5c0,19,0,38,0,57c-9.7,0-19.3,0-29,0c0-19,0-38,0-57C867.2,57.5,876.8,57.5,886.5,57.5z"/>
</g>
<g>
	<path class="st0" d="M400.5,114.5c9.3,0,18.7,0,28,0c0,19,0,38,0,57c-9.3,0-18.7,0-28,0C400.5,152.5,400.5,133.5,400.5,114.5z"/>
</g>
<g>
	<path class="st1" d="M428.5,114.5c57.3,0,114.7,0,172,0c0,19,0,38,0,57c-9.7,0-19.3,0-29,0c-47.7,0-95.3,0-143,0
		C428.5,152.5,428.5,133.5,428.5,114.5z"/>
</g>
<g>
	<path class="st0" d="M800.5,114.5c9.3,0,18.7,0,28,0c0,19,0,38,0,57c-9.3,0-18.7,0-28,0C800.5,152.5,800.5,133.5,800.5,114.5z"/>
</g>
<g>
	<path class="st1" d="M828.5,114.5c9.7,0,19.3,0,29,0s19.3,0,29,0c0,19,0,38,0,57c-19.3,0-38.7,0-58,0
		C828.5,152.5,828.5,133.5,828.5,114.5z"/>
</g>
<g>
	<path class="st0" d="M914.5,114.5c9.7,0,19.3,0,29,0c0,57,0,114,0,171c-9.7,0-19.3,0-29,0C914.5,228.5,914.5,171.5,914.5,114.5z"/>
</g>
<g>
	<path class="st0" d="M571.5,171.5c9.7,0,19.3,0,29,0c0,19,0,38,0,57c-9.7,0-19.3,0-29,0C571.5,209.5,571.5,190.5,571.5,171.5z"/>
</g>
<g>
	<path class="st1" d="M600.5,171.5c19,0,38,0,57,0c0,19,0,38,0,57c-19,0-38,0-57,0C600.5,209.5,600.5,190.5,600.5,171.5z"/>
</g>
<g>
	<path class="st0" d="M228.5,200.5c9.7,0,19.3,0,29,0c0,28.3,0,56.7,0,85c-9.7,0-19.3,0-29,0C228.5,257.2,228.5,228.8,228.5,200.5z"
		/>
</g>
<g>
	<path class="st0" d="M371.5,228.5c0,19,0,38,0,57c-9.7,0-19.3,0-29,0c0-19,0-38,0-57C352.2,228.5,361.8,228.5,371.5,228.5z"/>
</g>
<g>
	<path class="st1" d="M371.5,228.5c66.7,0,133.3,0,200,0c9.7,0,19.3,0,29,0c0,19,0,38,0,57c-76.3,0-152.7,0-229,0
		C371.5,266.5,371.5,247.5,371.5,228.5z"/>
</g>
</svg>
