<?xml version="1.0" encoding="UTF-8"?>
<!DOCTYPE svg PUBLIC "-//W3C//DTD SVG 1.1//EN" "http://www.w3.org/Graphics/SVG/1.1/DTD/svg11.dtd">
<svg xmlns="http://www.w3.org/2000/svg" version="1.1" width="1000px" height="714px" style="shape-rendering:geometricPrecision; text-rendering:geometricPrecision; image-rendering:optimizeQuality; fill-rule:evenodd; clip-rule:evenodd" xmlns:xlink="http://www.w3.org/1999/xlink">
<g><path style="opacity:1" fill="#7d7e7d" d="M -0.5,-0.5 C 47.1667,-0.5 94.8333,-0.5 142.5,-0.5C 142.5,237.5 142.5,475.5 142.5,713.5C 94.8333,713.5 47.1667,713.5 -0.5,713.5C -0.5,475.5 -0.5,237.5 -0.5,-0.5 Z"/></g>
<g><path style="opacity:1" fill="#a7a8a7" d="M 142.5,-0.5 C 333.167,-0.5 523.833,-0.5 714.5,-0.5C 714.5,47.1667 714.5,94.8333 714.5,142.5C 690.833,142.5 667.167,142.5 643.5,142.5C 524.167,142.5 404.833,142.5 285.5,142.5C 285.5,285.5 285.5,428.5 285.5,571.5C 285.5,618.833 285.5,666.167 285.5,713.5C 237.833,713.5 190.167,713.5 142.5,713.5C 142.5,475.5 142.5,237.5 142.5,-0.5 Z"/></g>
<g><path style="opacity:1" fill="#5d5e5d" d="M 714.5,-0.5 C 809.5,-0.5 904.5,-0.5 999.5,-0.5C 999.5,237.5 999.5,475.5 999.5,713.5C 856.833,713.5 714.167,713.5 571.5,713.5C 571.5,666.167 571.5,618.833 571.5,571.5C 666.833,571.5 762.167,571.5 857.5,571.5C 857.5,428.5 857.5,285.5 857.5,142.5C 833.833,142.5 810.167,142.5 786.5,142.5C 762.5,142.5 738.5,142.5 714.5,142.5C 714.5,94.8333 714.5,47.1667 714.5,-0.5 Z"/></g>
<g><path style="opacity:1" fill="#2e2f2e" d="M 643.5,142.5 C 643.5,190.167 643.5,237.833 643.5,285.5C 691.167,285.5 738.833,285.5 786.5,285.5C 786.5,237.833 786.5,190.167 786.5,142.5C 810.167,142.5 833.833,142.5 857.5,142.5C 857.5,285.5 857.5,428.5 857.5,571.5C 762.167,571.5 666.833,571.5 571.5,571.5C 523.833,571.5 476.167,571.5 428.5,571.5C 380.833,571.5 333.167,571.5 285.5,571.5C 285.5,428.5 285.5,285.5 285.5,142.5C 404.833,142.5 524.167,142.5 643.5,142.5 Z"/></g>
<g><path style="opacity:1" fill="#fe1413" d="M 643.5,142.5 C 667.167,142.5 690.833,142.5 714.5,142.5C 738.5,142.5 762.5,142.5 786.5,142.5C 786.5,190.167 786.5,237.833 786.5,285.5C 738.833,285.5 691.167,285.5 643.5,285.5C 643.5,237.833 643.5,190.167 643.5,142.5 Z"/></g>
<g><path style="opacity:1" fill="#fe1413" d="M 643.5,285.5 C 643.5,333.167 643.5,380.833 643.5,428.5C 595.833,428.5 548.167,428.5 500.5,428.5C 500.5,380.833 500.5,333.167 500.5,285.5C 548.167,285.5 595.833,285.5 643.5,285.5 Z"/></g>
<g><path style="opacity:1" fill="#5d5e5d" d="M 285.5,571.5 C 333.167,571.5 380.833,571.5 428.5,571.5C 428.5,618.833 428.5,666.167 428.5,713.5C 380.833,713.5 333.167,713.5 285.5,713.5C 285.5,666.167 285.5,618.833 285.5,571.5 Z"/></g>
<g><path style="opacity:1" fill="#a7a8a7" d="M 428.5,571.5 C 476.167,571.5 523.833,571.5 571.5,571.5C 571.5,618.833 571.5,666.167 571.5,713.5C 523.833,713.5 476.167,713.5 428.5,713.5C 428.5,666.167 428.5,618.833 428.5,571.5 Z"/></g>
</svg>
