<?xml version="1.0" encoding="UTF-8"?>
<!DOCTYPE svg PUBLIC "-//W3C//DTD SVG 1.1//EN" "http://www.w3.org/Graphics/SVG/1.1/DTD/svg11.dtd">
<svg xmlns="http://www.w3.org/2000/svg" version="1.1" width="256px" height="256px" style="shape-rendering:geometricPrecision; text-rendering:geometricPrecision; image-rendering:optimizeQuality; fill-rule:evenodd; clip-rule:evenodd" xmlns:xlink="http://www.w3.org/1999/xlink">
<g><path style="opacity:1" fill="#533b0b" d="M 47.5,-0.5 C 58.1667,-0.5 68.8333,-0.5 79.5,-0.5C 79.5,10.1667 79.5,20.8333 79.5,31.5C 68.8333,31.5 58.1667,31.5 47.5,31.5C 47.5,20.8333 47.5,10.1667 47.5,-0.5 Z"/></g>
<g><path style="opacity:1" fill="#b3b4b3" d="M 79.5,-0.5 C 84.8333,-0.5 90.1667,-0.5 95.5,-0.5C 95.5,63.5 95.5,127.5 95.5,191.5C 90.1667,191.5 84.8333,191.5 79.5,191.5C 79.5,138.167 79.5,84.8333 79.5,31.5C 79.5,20.8333 79.5,10.1667 79.5,-0.5 Z"/></g>
<g><path style="opacity:1" fill="#dedfde" d="M 95.5,-0.5 C 138.167,-0.5 180.833,-0.5 223.5,-0.5C 223.5,63.5 223.5,127.5 223.5,191.5C 202.167,191.5 180.833,191.5 159.5,191.5C 148.833,191.5 138.167,191.5 127.5,191.5C 122.167,191.5 116.833,191.5 111.5,191.5C 106.167,191.5 100.833,191.5 95.5,191.5C 95.5,127.5 95.5,63.5 95.5,-0.5 Z"/></g>
<g><path style="opacity:1" fill="#cc9002" d="M 143.5,79.5 C 132.833,79.5 122.167,79.5 111.5,79.5C 111.5,68.8333 111.5,58.1667 111.5,47.5C 122.167,47.5 132.833,47.5 143.5,47.5C 143.5,58.1667 143.5,68.8333 143.5,79.5 Z"/></g>
<g><path style="opacity:1" fill="#cc9002" d="M 175.5,79.5 C 175.5,68.8333 175.5,58.1667 175.5,47.5C 186.167,47.5 196.833,47.5 207.5,47.5C 207.5,58.1667 207.5,68.8333 207.5,79.5C 196.833,79.5 186.167,79.5 175.5,79.5 Z"/></g>
<g><path style="opacity:1" fill="#cc9002" d="M 143.5,79.5 C 154.167,79.5 164.833,79.5 175.5,79.5C 175.5,84.8333 175.5,90.1667 175.5,95.5C 180.833,95.5 186.167,95.5 191.5,95.5C 191.5,111.5 191.5,127.5 191.5,143.5C 186.167,143.5 180.833,143.5 175.5,143.5C 175.5,138.167 175.5,132.833 175.5,127.5C 164.833,127.5 154.167,127.5 143.5,127.5C 143.5,132.833 143.5,138.167 143.5,143.5C 138.167,143.5 132.833,143.5 127.5,143.5C 127.5,127.5 127.5,111.5 127.5,95.5C 132.833,95.5 138.167,95.5 143.5,95.5C 143.5,90.1667 143.5,84.8333 143.5,79.5 Z"/></g>
<g><path style="opacity:1" fill="#533b0b" d="M 111.5,191.5 C 116.833,191.5 122.167,191.5 127.5,191.5C 127.5,212.833 127.5,234.167 127.5,255.5C 122.167,255.5 116.833,255.5 111.5,255.5C 111.5,234.167 111.5,212.833 111.5,191.5 Z"/></g>
<g><path style="opacity:1" fill="#674e1d" d="M 127.5,191.5 C 138.167,191.5 148.833,191.5 159.5,191.5C 159.5,212.833 159.5,234.167 159.5,255.5C 148.833,255.5 138.167,255.5 127.5,255.5C 127.5,234.167 127.5,212.833 127.5,191.5 Z"/></g>
</svg>
