<?xml version="1.0" encoding="UTF-8"?>
<!DOCTYPE svg PUBLIC "-//W3C//DTD SVG 1.1//EN" "http://www.w3.org/Graphics/SVG/1.1/DTD/svg11.dtd">
<svg xmlns="http://www.w3.org/2000/svg" version="1.1" width="1000px" height="667px" style="shape-rendering:geometricPrecision; text-rendering:geometricPrecision; image-rendering:optimizeQuality; fill-rule:evenodd; clip-rule:evenodd" xmlns:xlink="http://www.w3.org/1999/xlink">
<g><path style="opacity:1" fill="#494a49" d="M -0.5,-0.5 C 18.1667,-0.5 36.8333,-0.5 55.5,-0.5C 55.5,36.5 55.5,73.5 55.5,110.5C 55.5,147.5 55.5,184.5 55.5,221.5C 36.8333,221.5 18.1667,221.5 -0.5,221.5C -0.5,147.5 -0.5,73.5 -0.5,-0.5 Z"/></g>
<g><path style="opacity:1" fill="#666666" d="M 55.5,-0.5 C 74.1667,-0.5 92.8333,-0.5 111.5,-0.5C 111.5,36.5 111.5,73.5 111.5,110.5C 92.8333,110.5 74.1667,110.5 55.5,110.5C 55.5,73.5 55.5,36.5 55.5,-0.5 Z"/></g>
<g><path style="opacity:1" fill="#7c7d7c" d="M 111.5,-0.5 C 148.5,-0.5 185.5,-0.5 222.5,-0.5C 222.5,36.5 222.5,73.5 222.5,110.5C 185.5,110.5 148.5,110.5 111.5,110.5C 111.5,73.5 111.5,36.5 111.5,-0.5 Z"/></g>
<g><path style="opacity:1" fill="#666666" d="M 222.5,-0.5 C 259.5,-0.5 296.5,-0.5 333.5,-0.5C 333.5,36.5 333.5,73.5 333.5,110.5C 314.833,110.5 296.167,110.5 277.5,110.5C 277.5,147.5 277.5,184.5 277.5,221.5C 240.5,221.5 203.5,221.5 166.5,221.5C 166.5,258.5 166.5,295.5 166.5,332.5C 148.167,332.5 129.833,332.5 111.5,332.5C 111.5,295.5 111.5,258.5 111.5,221.5C 111.5,184.5 111.5,147.5 111.5,110.5C 148.5,110.5 185.5,110.5 222.5,110.5C 222.5,73.5 222.5,36.5 222.5,-0.5 Z"/></g>
<g><path style="opacity:1" fill="#606160" d="M 333.5,-0.5 C 370.5,-0.5 407.5,-0.5 444.5,-0.5C 444.5,36.5 444.5,73.5 444.5,110.5C 444.5,147.5 444.5,184.5 444.5,221.5C 407.5,221.5 370.5,221.5 333.5,221.5C 333.5,184.5 333.5,147.5 333.5,110.5C 333.5,73.5 333.5,36.5 333.5,-0.5 Z"/></g>
<g><path style="opacity:1" fill="#878787" d="M 444.5,-0.5 C 481.5,-0.5 518.5,-0.5 555.5,-0.5C 555.5,36.5 555.5,73.5 555.5,110.5C 518.5,110.5 481.5,110.5 444.5,110.5C 444.5,73.5 444.5,36.5 444.5,-0.5 Z"/></g>
<g><path style="opacity:1" fill="#a5a6a5" d="M 555.5,-0.5 C 629.5,-0.5 703.5,-0.5 777.5,-0.5C 777.5,36.5 777.5,73.5 777.5,110.5C 703.5,110.5 629.5,110.5 555.5,110.5C 555.5,73.5 555.5,36.5 555.5,-0.5 Z"/></g>
<g><path style="opacity:1" fill="#878787" d="M 777.5,-0.5 C 851.5,-0.5 925.5,-0.5 999.5,-0.5C 999.5,36.5 999.5,73.5 999.5,110.5C 962.5,110.5 925.5,110.5 888.5,110.5C 888.5,147.5 888.5,184.5 888.5,221.5C 814.5,221.5 740.5,221.5 666.5,221.5C 666.5,258.5 666.5,295.5 666.5,332.5C 629.5,332.5 592.5,332.5 555.5,332.5C 555.5,295.5 555.5,258.5 555.5,221.5C 555.5,184.5 555.5,147.5 555.5,110.5C 629.5,110.5 703.5,110.5 777.5,110.5C 777.5,73.5 777.5,36.5 777.5,-0.5 Z"/></g>
<g><path style="opacity:1" fill="#7c7d7c" d="M 55.5,110.5 C 74.1667,110.5 92.8333,110.5 111.5,110.5C 111.5,147.5 111.5,184.5 111.5,221.5C 92.8333,221.5 74.1667,221.5 55.5,221.5C 55.5,184.5 55.5,147.5 55.5,110.5 Z"/></g>
<g><path style="opacity:1" fill="#494a49" d="M 333.5,110.5 C 333.5,147.5 333.5,184.5 333.5,221.5C 314.833,221.5 296.167,221.5 277.5,221.5C 277.5,184.5 277.5,147.5 277.5,110.5C 296.167,110.5 314.833,110.5 333.5,110.5 Z"/></g>
<g><path style="opacity:1" fill="#a5a6a5" d="M 444.5,110.5 C 481.5,110.5 518.5,110.5 555.5,110.5C 555.5,147.5 555.5,184.5 555.5,221.5C 518.5,221.5 481.5,221.5 444.5,221.5C 444.5,184.5 444.5,147.5 444.5,110.5 Z"/></g>
<g><path style="opacity:1" fill="#606160" d="M 999.5,110.5 C 999.5,147.5 999.5,184.5 999.5,221.5C 962.5,221.5 925.5,221.5 888.5,221.5C 888.5,184.5 888.5,147.5 888.5,110.5C 925.5,110.5 962.5,110.5 999.5,110.5 Z"/></g>
<g><path style="opacity:1" fill="#7c7d7c" d="M -0.5,221.5 C 18.1667,221.5 36.8333,221.5 55.5,221.5C 55.5,258.5 55.5,295.5 55.5,332.5C 55.5,369.833 55.5,407.167 55.5,444.5C 36.8333,444.5 18.1667,444.5 -0.5,444.5C -0.5,370.167 -0.5,295.833 -0.5,221.5 Z"/></g>
<g><path style="opacity:1" fill="#494a49" d="M 55.5,221.5 C 74.1667,221.5 92.8333,221.5 111.5,221.5C 111.5,258.5 111.5,295.5 111.5,332.5C 92.8333,332.5 74.1667,332.5 55.5,332.5C 55.5,295.5 55.5,258.5 55.5,221.5 Z"/></g>
<g><path style="opacity:1" fill="#494a49" d="M 277.5,221.5 C 277.5,258.5 277.5,295.5 277.5,332.5C 259.167,332.5 240.833,332.5 222.5,332.5C 203.833,332.5 185.167,332.5 166.5,332.5C 166.5,295.5 166.5,258.5 166.5,221.5C 203.5,221.5 240.5,221.5 277.5,221.5 Z"/></g>
<g><path style="opacity:1" fill="#666666" d="M 277.5,221.5 C 296.167,221.5 314.833,221.5 333.5,221.5C 333.5,258.5 333.5,295.5 333.5,332.5C 314.833,332.5 296.167,332.5 277.5,332.5C 277.5,295.5 277.5,258.5 277.5,221.5 Z"/></g>
<g><path style="opacity:1" fill="#a5a6a5" d="M 333.5,221.5 C 370.5,221.5 407.5,221.5 444.5,221.5C 444.5,258.5 444.5,295.5 444.5,332.5C 444.5,369.833 444.5,407.167 444.5,444.5C 407.5,444.5 370.5,444.5 333.5,444.5C 333.5,407.167 333.5,369.833 333.5,332.5C 333.5,295.5 333.5,258.5 333.5,221.5 Z"/></g>
<g><path style="opacity:1" fill="#606160" d="M 444.5,221.5 C 481.5,221.5 518.5,221.5 555.5,221.5C 555.5,258.5 555.5,295.5 555.5,332.5C 518.5,332.5 481.5,332.5 444.5,332.5C 444.5,295.5 444.5,258.5 444.5,221.5 Z"/></g>
<g><path style="opacity:1" fill="#606160" d="M 888.5,221.5 C 888.5,258.5 888.5,295.5 888.5,332.5C 851.5,332.5 814.5,332.5 777.5,332.5C 740.5,332.5 703.5,332.5 666.5,332.5C 666.5,295.5 666.5,258.5 666.5,221.5C 740.5,221.5 814.5,221.5 888.5,221.5 Z"/></g>
<g><path style="opacity:1" fill="#878787" d="M 888.5,221.5 C 925.5,221.5 962.5,221.5 999.5,221.5C 999.5,258.5 999.5,295.5 999.5,332.5C 962.5,332.5 925.5,332.5 888.5,332.5C 888.5,295.5 888.5,258.5 888.5,221.5 Z"/></g>
<g><path style="opacity:1" fill="#666666" d="M 55.5,332.5 C 74.1667,332.5 92.8333,332.5 111.5,332.5C 111.5,369.833 111.5,407.167 111.5,444.5C 92.8333,444.5 74.1667,444.5 55.5,444.5C 55.5,407.167 55.5,369.833 55.5,332.5 Z"/></g>
<g><path style="opacity:1" fill="#494a49" d="M 111.5,332.5 C 129.833,332.5 148.167,332.5 166.5,332.5C 166.5,369.833 166.5,407.167 166.5,444.5C 148.167,444.5 129.833,444.5 111.5,444.5C 111.5,407.167 111.5,369.833 111.5,332.5 Z"/></g>
<g><path style="opacity:1" fill="#666666" d="M 166.5,332.5 C 185.167,332.5 203.833,332.5 222.5,332.5C 222.5,369.833 222.5,407.167 222.5,444.5C 203.833,444.5 185.167,444.5 166.5,444.5C 166.5,407.167 166.5,369.833 166.5,332.5 Z"/></g>
<g><path style="opacity:1" fill="#7c7d7c" d="M 222.5,332.5 C 240.833,332.5 259.167,332.5 277.5,332.5C 277.5,369.833 277.5,407.167 277.5,444.5C 259.167,444.5 240.833,444.5 222.5,444.5C 222.5,407.167 222.5,369.833 222.5,332.5 Z"/></g>
<g><path style="opacity:1" fill="#494a49" d="M 277.5,332.5 C 296.167,332.5 314.833,332.5 333.5,332.5C 333.5,369.833 333.5,407.167 333.5,444.5C 314.833,444.5 296.167,444.5 277.5,444.5C 277.5,407.167 277.5,369.833 277.5,332.5 Z"/></g>
<g><path style="opacity:1" fill="#878787" d="M 444.5,332.5 C 481.5,332.5 518.5,332.5 555.5,332.5C 555.5,369.833 555.5,407.167 555.5,444.5C 518.5,444.5 481.5,444.5 444.5,444.5C 444.5,407.167 444.5,369.833 444.5,332.5 Z"/></g>
<g><path style="opacity:1" fill="#606160" d="M 555.5,332.5 C 592.5,332.5 629.5,332.5 666.5,332.5C 666.5,369.833 666.5,407.167 666.5,444.5C 629.5,444.5 592.5,444.5 555.5,444.5C 555.5,407.167 555.5,369.833 555.5,332.5 Z"/></g>
<g><path style="opacity:1" fill="#878787" d="M 666.5,332.5 C 703.5,332.5 740.5,332.5 777.5,332.5C 777.5,369.833 777.5,407.167 777.5,444.5C 740.5,444.5 703.5,444.5 666.5,444.5C 666.5,407.167 666.5,369.833 666.5,332.5 Z"/></g>
<g><path style="opacity:1" fill="#a5a6a5" d="M 777.5,332.5 C 814.5,332.5 851.5,332.5 888.5,332.5C 888.5,369.833 888.5,407.167 888.5,444.5C 851.5,444.5 814.5,444.5 777.5,444.5C 777.5,407.167 777.5,369.833 777.5,332.5 Z"/></g>
<g><path style="opacity:1" fill="#606160" d="M 888.5,332.5 C 925.5,332.5 962.5,332.5 999.5,332.5C 999.5,369.833 999.5,407.167 999.5,444.5C 962.5,444.5 925.5,444.5 888.5,444.5C 888.5,407.167 888.5,369.833 888.5,332.5 Z"/></g>
<g><path style="opacity:1" fill="#666666" d="M -0.5,444.5 C 18.1667,444.5 36.8333,444.5 55.5,444.5C 55.5,481.5 55.5,518.5 55.5,555.5C 74.1667,555.5 92.8333,555.5 111.5,555.5C 111.5,592.5 111.5,629.5 111.5,666.5C 74.1667,666.5 36.8333,666.5 -0.5,666.5C -0.5,592.5 -0.5,518.5 -0.5,444.5 Z"/></g>
<g><path style="opacity:1" fill="#494a49" d="M 55.5,444.5 C 74.1667,444.5 92.8333,444.5 111.5,444.5C 111.5,481.5 111.5,518.5 111.5,555.5C 92.8333,555.5 74.1667,555.5 55.5,555.5C 55.5,518.5 55.5,481.5 55.5,444.5 Z"/></g>
<g><path style="opacity:1" fill="#7c7d7c" d="M 111.5,444.5 C 129.833,444.5 148.167,444.5 166.5,444.5C 185.167,444.5 203.833,444.5 222.5,444.5C 222.5,481.5 222.5,518.5 222.5,555.5C 203.833,555.5 185.167,555.5 166.5,555.5C 148.167,555.5 129.833,555.5 111.5,555.5C 111.5,518.5 111.5,481.5 111.5,444.5 Z"/></g>
<g><path style="opacity:1" fill="#666666" d="M 222.5,444.5 C 240.833,444.5 259.167,444.5 277.5,444.5C 296.167,444.5 314.833,444.5 333.5,444.5C 333.5,518.5 333.5,592.5 333.5,666.5C 277.833,666.5 222.167,666.5 166.5,666.5C 166.5,629.5 166.5,592.5 166.5,555.5C 185.167,555.5 203.833,555.5 222.5,555.5C 222.5,518.5 222.5,481.5 222.5,444.5 Z"/></g>
<g><path style="opacity:1" fill="#878787" d="M 333.5,444.5 C 370.5,444.5 407.5,444.5 444.5,444.5C 444.5,481.5 444.5,518.5 444.5,555.5C 481.5,555.5 518.5,555.5 555.5,555.5C 555.5,592.5 555.5,629.5 555.5,666.5C 481.5,666.5 407.5,666.5 333.5,666.5C 333.5,592.5 333.5,518.5 333.5,444.5 Z"/></g>
<g><path style="opacity:1" fill="#606160" d="M 444.5,444.5 C 481.5,444.5 518.5,444.5 555.5,444.5C 555.5,481.5 555.5,518.5 555.5,555.5C 518.5,555.5 481.5,555.5 444.5,555.5C 444.5,518.5 444.5,481.5 444.5,444.5 Z"/></g>
<g><path style="opacity:1" fill="#a5a6a5" d="M 555.5,444.5 C 592.5,444.5 629.5,444.5 666.5,444.5C 703.5,444.5 740.5,444.5 777.5,444.5C 777.5,481.5 777.5,518.5 777.5,555.5C 740.5,555.5 703.5,555.5 666.5,555.5C 629.5,555.5 592.5,555.5 555.5,555.5C 555.5,518.5 555.5,481.5 555.5,444.5 Z"/></g>
<g><path style="opacity:1" fill="#878787" d="M 777.5,444.5 C 814.5,444.5 851.5,444.5 888.5,444.5C 925.5,444.5 962.5,444.5 999.5,444.5C 999.5,518.5 999.5,592.5 999.5,666.5C 888.5,666.5 777.5,666.5 666.5,666.5C 666.5,629.5 666.5,592.5 666.5,555.5C 703.5,555.5 740.5,555.5 777.5,555.5C 777.5,518.5 777.5,481.5 777.5,444.5 Z"/></g>
<g><path style="opacity:1" fill="#494a49" d="M 111.5,555.5 C 129.833,555.5 148.167,555.5 166.5,555.5C 166.5,592.5 166.5,629.5 166.5,666.5C 148.167,666.5 129.833,666.5 111.5,666.5C 111.5,629.5 111.5,592.5 111.5,555.5 Z"/></g>
<g><path style="opacity:1" fill="#606160" d="M 555.5,555.5 C 592.5,555.5 629.5,555.5 666.5,555.5C 666.5,592.5 666.5,629.5 666.5,666.5C 629.5,666.5 592.5,666.5 555.5,666.5C 555.5,629.5 555.5,592.5 555.5,555.5 Z"/></g>
</svg>
