<?xml version="1.0" encoding="UTF-8"?>
<!DOCTYPE svg PUBLIC "-//W3C//DTD SVG 1.1//EN" "http://www.w3.org/Graphics/SVG/1.1/DTD/svg11.dtd">
<svg xmlns="http://www.w3.org/2000/svg" version="1.1" width="1000px" height="667px" style="shape-rendering:geometricPrecision; text-rendering:geometricPrecision; image-rendering:optimizeQuality; fill-rule:evenodd; clip-rule:evenodd" xmlns:xlink="http://www.w3.org/1999/xlink">
<g><path style="opacity:1" fill="#7d6236" d="M 333.5,-0.5 C 370.5,-0.5 407.5,-0.5 444.5,-0.5C 444.5,36.8333 444.5,74.1667 444.5,111.5C 407.5,111.5 370.5,111.5 333.5,111.5C 333.5,74.1667 333.5,36.8333 333.5,-0.5 Z"/></g>
<g><path style="opacity:1" fill="#c19d61" d="M 444.5,-0.5 C 518.833,-0.5 593.167,-0.5 667.5,-0.5C 667.5,36.8333 667.5,74.1667 667.5,111.5C 593.167,111.5 518.833,111.5 444.5,111.5C 444.5,74.1667 444.5,36.8333 444.5,-0.5 Z"/></g>
<g><path style="opacity:1" fill="#66502b" d="M 333.5,111.5 C 370.5,111.5 407.5,111.5 444.5,111.5C 444.5,148.5 444.5,185.5 444.5,222.5C 426.167,222.5 407.833,222.5 389.5,222.5C 389.5,203.833 389.5,185.167 389.5,166.5C 370.833,166.5 352.167,166.5 333.5,166.5C 333.5,148.167 333.5,129.833 333.5,111.5 Z"/></g>
<g><path style="opacity:1" fill="#9e844c" d="M 444.5,111.5 C 518.833,111.5 593.167,111.5 667.5,111.5C 667.5,129.833 667.5,148.167 667.5,166.5C 722.833,166.5 778.167,166.5 833.5,166.5C 833.5,203.5 833.5,240.5 833.5,277.5C 778.167,277.5 722.833,277.5 667.5,277.5C 667.5,259.167 667.5,240.833 667.5,222.5C 593.167,222.5 518.833,222.5 444.5,222.5C 444.5,185.5 444.5,148.5 444.5,111.5 Z"/></g>
<g><path style="opacity:1" fill="#66502b" d="M 166.5,166.5 C 166.5,203.5 166.5,240.5 166.5,277.5C 148.167,277.5 129.833,277.5 111.5,277.5C 111.5,240.5 111.5,203.5 111.5,166.5C 129.833,166.5 148.167,166.5 166.5,166.5 Z"/></g>
<g><path style="opacity:1" fill="#9e844c" d="M 166.5,166.5 C 222.167,166.5 277.833,166.5 333.5,166.5C 352.167,166.5 370.833,166.5 389.5,166.5C 389.5,185.167 389.5,203.833 389.5,222.5C 389.5,240.833 389.5,259.167 389.5,277.5C 370.833,277.5 352.167,277.5 333.5,277.5C 277.833,277.5 222.167,277.5 166.5,277.5C 166.5,240.5 166.5,203.5 166.5,166.5 Z"/></g>
<g><path style="opacity:1" fill="#7d6236" d="M 389.5,222.5 C 407.833,222.5 426.167,222.5 444.5,222.5C 444.5,259.5 444.5,296.5 444.5,333.5C 407.5,333.5 370.5,333.5 333.5,333.5C 333.5,314.833 333.5,296.167 333.5,277.5C 352.167,277.5 370.833,277.5 389.5,277.5C 389.5,259.167 389.5,240.833 389.5,222.5 Z"/></g>
<g><path style="opacity:1" fill="#c19d61" d="M 444.5,222.5 C 518.833,222.5 593.167,222.5 667.5,222.5C 667.5,240.833 667.5,259.167 667.5,277.5C 667.5,296.167 667.5,314.833 667.5,333.5C 593.167,333.5 518.833,333.5 444.5,333.5C 444.5,296.5 444.5,259.5 444.5,222.5 Z"/></g>
<g><path style="opacity:0.498" fill="#0035bf" d="M -0.5,333.5 C 110.833,333.5 222.167,333.5 333.5,333.5C 333.5,352.167 333.5,370.833 333.5,389.5C 277.833,389.5 222.167,389.5 166.5,389.5C 148.167,389.5 129.833,389.5 111.5,389.5C 111.5,426.5 111.5,463.5 111.5,500.5C 129.833,500.5 148.167,500.5 166.5,500.5C 222.167,500.5 277.833,500.5 333.5,500.5C 333.5,518.833 333.5,537.167 333.5,555.5C 333.5,592.5 333.5,629.5 333.5,666.5C 222.167,666.5 110.833,666.5 -0.5,666.5C -0.5,555.5 -0.5,444.5 -0.5,333.5 Z"/></g>
<g><path style="opacity:1" fill="#334c95" d="M 333.5,333.5 C 370.5,333.5 407.5,333.5 444.5,333.5C 444.5,370.5 444.5,407.5 444.5,444.5C 426.167,444.5 407.833,444.5 389.5,444.5C 389.5,426.167 389.5,407.833 389.5,389.5C 370.833,389.5 352.167,389.5 333.5,389.5C 333.5,370.833 333.5,352.167 333.5,333.5 Z"/></g>
<g><path style="opacity:1" fill="#4f66a5" d="M 444.5,333.5 C 518.833,333.5 593.167,333.5 667.5,333.5C 667.5,352.167 667.5,370.833 667.5,389.5C 722.833,389.5 778.167,389.5 833.5,389.5C 833.5,426.5 833.5,463.5 833.5,500.5C 778.167,500.5 722.833,500.5 667.5,500.5C 667.5,481.833 667.5,463.167 667.5,444.5C 593.167,444.5 518.833,444.5 444.5,444.5C 444.5,407.5 444.5,370.5 444.5,333.5 Z"/></g>
<g><path style="opacity:0.498" fill="#0048ff" d="M 667.5,333.5 C 778.167,333.5 888.833,333.5 999.5,333.5C 999.5,444.5 999.5,555.5 999.5,666.5C 888.833,666.5 778.167,666.5 667.5,666.5C 667.5,629.5 667.5,592.5 667.5,555.5C 667.5,537.167 667.5,518.833 667.5,500.5C 722.833,500.5 778.167,500.5 833.5,500.5C 833.5,463.5 833.5,426.5 833.5,389.5C 778.167,389.5 722.833,389.5 667.5,389.5C 667.5,370.833 667.5,352.167 667.5,333.5 Z"/></g>
<g><path style="opacity:1" fill="#334375" d="M 166.5,389.5 C 166.5,426.5 166.5,463.5 166.5,500.5C 148.167,500.5 129.833,500.5 111.5,500.5C 111.5,463.5 111.5,426.5 111.5,389.5C 129.833,389.5 148.167,389.5 166.5,389.5 Z"/></g>
<g><path style="opacity:1" fill="#4f5d85" d="M 166.5,389.5 C 222.167,389.5 277.833,389.5 333.5,389.5C 333.5,426.5 333.5,463.5 333.5,500.5C 277.833,500.5 222.167,500.5 166.5,500.5C 166.5,463.5 166.5,426.5 166.5,389.5 Z"/></g>
<g><path style="opacity:1" fill="#4f66a5" d="M 333.5,389.5 C 352.167,389.5 370.833,389.5 389.5,389.5C 389.5,407.833 389.5,426.167 389.5,444.5C 389.5,463.167 389.5,481.833 389.5,500.5C 370.833,500.5 352.167,500.5 333.5,500.5C 333.5,463.5 333.5,426.5 333.5,389.5 Z"/></g>
<g><path style="opacity:1" fill="#3f559a" d="M 389.5,444.5 C 407.833,444.5 426.167,444.5 444.5,444.5C 444.5,481.5 444.5,518.5 444.5,555.5C 407.5,555.5 370.5,555.5 333.5,555.5C 333.5,537.167 333.5,518.833 333.5,500.5C 352.167,500.5 370.833,500.5 389.5,500.5C 389.5,481.833 389.5,463.167 389.5,444.5 Z"/></g>
<g><path style="opacity:1" fill="#6173b0" d="M 444.5,444.5 C 518.833,444.5 593.167,444.5 667.5,444.5C 667.5,463.167 667.5,481.833 667.5,500.5C 667.5,518.833 667.5,537.167 667.5,555.5C 593.167,555.5 518.833,555.5 444.5,555.5C 444.5,518.5 444.5,481.5 444.5,444.5 Z"/></g>
<g><path style="opacity:1" fill="#334c95" d="M 333.5,555.5 C 370.5,555.5 407.5,555.5 444.5,555.5C 444.5,592.5 444.5,629.5 444.5,666.5C 407.5,666.5 370.5,666.5 333.5,666.5C 333.5,629.5 333.5,592.5 333.5,555.5 Z"/></g>
<g><path style="opacity:1" fill="#4f66a5" d="M 444.5,555.5 C 518.833,555.5 593.167,555.5 667.5,555.5C 667.5,592.5 667.5,629.5 667.5,666.5C 593.167,666.5 518.833,666.5 444.5,666.5C 444.5,629.5 444.5,592.5 444.5,555.5 Z"/></g>
</svg>
