<?xml version="1.0" encoding="UTF-8"?>
<!DOCTYPE svg PUBLIC "-//W3C//DTD SVG 1.1//EN" "http://www.w3.org/Graphics/SVG/1.1/DTD/svg11.dtd">
<svg xmlns="http://www.w3.org/2000/svg" version="1.1" width="1000px" height="846px" style="shape-rendering:geometricPrecision; text-rendering:geometricPrecision; image-rendering:optimizeQuality; fill-rule:evenodd; clip-rule:evenodd" xmlns:xlink="http://www.w3.org/1999/xlink">
<g><path style="opacity:1" fill="#887e4d" d="M 153.5,0.5 C 153.5,25.8333 153.5,51.1667 153.5,76.5C 128.167,76.5 102.833,76.5 77.5,76.5C 77.5,51.1667 77.5,25.8333 77.5,0.5C 102.833,0.5 128.167,0.5 153.5,0.5 Z"/></g>
<g><path style="opacity:1" fill="#d1d2b1" d="M 153.5,0.5 C 358.833,0.5 564.167,0.5 769.5,0.5C 769.5,25.8333 769.5,51.1667 769.5,76.5C 589.833,76.5 410.167,76.5 230.5,76.5C 204.833,76.5 179.167,76.5 153.5,76.5C 153.5,51.1667 153.5,25.8333 153.5,0.5 Z"/></g>
<g><path style="opacity:1" fill="#887e4d" d="M 77.5,76.5 C 77.5,127.833 77.5,179.167 77.5,230.5C 51.8333,230.5 26.1667,230.5 0.5,230.5C 0.5,179.167 0.5,127.833 0.5,76.5C 26.1667,76.5 51.8333,76.5 77.5,76.5 Z"/></g>
<g><path style="opacity:1" fill="#73693a" d="M 77.5,76.5 C 102.833,76.5 128.167,76.5 153.5,76.5C 153.5,127.833 153.5,179.167 153.5,230.5C 128.167,230.5 102.833,230.5 77.5,230.5C 77.5,179.167 77.5,127.833 77.5,76.5 Z"/></g>
<g><path style="opacity:1" fill="#887e4d" d="M 153.5,76.5 C 179.167,76.5 204.833,76.5 230.5,76.5C 230.5,307.5 230.5,538.5 230.5,769.5C 204.833,769.5 179.167,769.5 153.5,769.5C 153.5,589.833 153.5,410.167 153.5,230.5C 153.5,179.167 153.5,127.833 153.5,76.5 Z"/></g>
<g><path style="opacity:1" fill="#bdbe9d" d="M 230.5,76.5 C 410.167,76.5 589.833,76.5 769.5,76.5C 795.167,76.5 820.833,76.5 846.5,76.5C 846.5,281.833 846.5,487.167 846.5,692.5C 692.5,692.5 538.5,692.5 384.5,692.5C 358.833,692.5 333.167,692.5 307.5,692.5C 307.5,718.167 307.5,743.833 307.5,769.5C 281.833,769.5 256.167,769.5 230.5,769.5C 230.5,538.5 230.5,307.5 230.5,76.5 Z"/></g>
<g><path style="opacity:1" fill="#606160" d="M 384.5,153.5 C 384.5,179.167 384.5,204.833 384.5,230.5C 384.5,256.167 384.5,281.833 384.5,307.5C 358.833,307.5 333.167,307.5 307.5,307.5C 307.5,256.167 307.5,204.833 307.5,153.5C 333.167,153.5 358.833,153.5 384.5,153.5 Z"/></g>
<g><path style="opacity:1" fill="#878787" d="M 384.5,153.5 C 410.167,153.5 435.833,153.5 461.5,153.5C 461.5,179.167 461.5,204.833 461.5,230.5C 435.833,230.5 410.167,230.5 384.5,230.5C 384.5,204.833 384.5,179.167 384.5,153.5 Z"/></g>
<g><path style="opacity:1" fill="#a5a6a5" d="M 461.5,153.5 C 512.833,153.5 564.167,153.5 615.5,153.5C 615.5,179.167 615.5,204.833 615.5,230.5C 564.167,230.5 512.833,230.5 461.5,230.5C 461.5,204.833 461.5,179.167 461.5,153.5 Z"/></g>
<g><path style="opacity:1" fill="#878787" d="M 615.5,153.5 C 666.833,153.5 718.167,153.5 769.5,153.5C 769.5,179.167 769.5,204.833 769.5,230.5C 743.833,230.5 718.167,230.5 692.5,230.5C 692.5,256.167 692.5,281.833 692.5,307.5C 641.167,307.5 589.833,307.5 538.5,307.5C 538.5,333.167 538.5,358.833 538.5,384.5C 512.833,384.5 487.167,384.5 461.5,384.5C 461.5,358.833 461.5,333.167 461.5,307.5C 461.5,281.833 461.5,256.167 461.5,230.5C 512.833,230.5 564.167,230.5 615.5,230.5C 615.5,204.833 615.5,179.167 615.5,153.5 Z"/></g>
<g><path style="opacity:1" fill="#a5a6a5" d="M 384.5,230.5 C 410.167,230.5 435.833,230.5 461.5,230.5C 461.5,256.167 461.5,281.833 461.5,307.5C 435.833,307.5 410.167,307.5 384.5,307.5C 384.5,281.833 384.5,256.167 384.5,230.5 Z"/></g>
<g><path style="opacity:1" fill="#606160" d="M 769.5,230.5 C 769.5,256.167 769.5,281.833 769.5,307.5C 743.833,307.5 718.167,307.5 692.5,307.5C 692.5,281.833 692.5,256.167 692.5,230.5C 718.167,230.5 743.833,230.5 769.5,230.5 Z"/></g>
<g><path style="opacity:1" fill="#a5a6a5" d="M 307.5,307.5 C 333.167,307.5 358.833,307.5 384.5,307.5C 384.5,333.167 384.5,358.833 384.5,384.5C 384.5,410.167 384.5,435.833 384.5,461.5C 358.833,461.5 333.167,461.5 307.5,461.5C 307.5,410.167 307.5,358.833 307.5,307.5 Z"/></g>
<g><path style="opacity:1" fill="#606160" d="M 384.5,307.5 C 410.167,307.5 435.833,307.5 461.5,307.5C 461.5,333.167 461.5,358.833 461.5,384.5C 435.833,384.5 410.167,384.5 384.5,384.5C 384.5,358.833 384.5,333.167 384.5,307.5 Z"/></g>
<g><path style="opacity:1" fill="#606160" d="M 692.5,307.5 C 692.5,333.167 692.5,358.833 692.5,384.5C 666.833,384.5 641.167,384.5 615.5,384.5C 589.833,384.5 564.167,384.5 538.5,384.5C 538.5,358.833 538.5,333.167 538.5,307.5C 589.833,307.5 641.167,307.5 692.5,307.5 Z"/></g>
<g><path style="opacity:1" fill="#878787" d="M 692.5,307.5 C 718.167,307.5 743.833,307.5 769.5,307.5C 769.5,333.167 769.5,358.833 769.5,384.5C 743.833,384.5 718.167,384.5 692.5,384.5C 692.5,358.833 692.5,333.167 692.5,307.5 Z"/></g>
<g><path style="opacity:1" fill="#878787" d="M 384.5,384.5 C 410.167,384.5 435.833,384.5 461.5,384.5C 461.5,410.167 461.5,435.833 461.5,461.5C 435.833,461.5 410.167,461.5 384.5,461.5C 384.5,435.833 384.5,410.167 384.5,384.5 Z"/></g>
<g><path style="opacity:1" fill="#606160" d="M 461.5,384.5 C 487.167,384.5 512.833,384.5 538.5,384.5C 538.5,410.167 538.5,435.833 538.5,461.5C 512.833,461.5 487.167,461.5 461.5,461.5C 461.5,435.833 461.5,410.167 461.5,384.5 Z"/></g>
<g><path style="opacity:1" fill="#878787" d="M 538.5,384.5 C 564.167,384.5 589.833,384.5 615.5,384.5C 615.5,410.167 615.5,435.833 615.5,461.5C 589.833,461.5 564.167,461.5 538.5,461.5C 538.5,435.833 538.5,410.167 538.5,384.5 Z"/></g>
<g><path style="opacity:1" fill="#a5a6a5" d="M 615.5,384.5 C 641.167,384.5 666.833,384.5 692.5,384.5C 692.5,410.167 692.5,435.833 692.5,461.5C 666.833,461.5 641.167,461.5 615.5,461.5C 615.5,435.833 615.5,410.167 615.5,384.5 Z"/></g>
<g><path style="opacity:1" fill="#606160" d="M 692.5,384.5 C 718.167,384.5 743.833,384.5 769.5,384.5C 769.5,410.167 769.5,435.833 769.5,461.5C 743.833,461.5 718.167,461.5 692.5,461.5C 692.5,435.833 692.5,410.167 692.5,384.5 Z"/></g>
<g><path style="opacity:1" fill="#878787" d="M 307.5,461.5 C 333.167,461.5 358.833,461.5 384.5,461.5C 384.5,487.167 384.5,512.833 384.5,538.5C 410.167,538.5 435.833,538.5 461.5,538.5C 461.5,564.167 461.5,589.833 461.5,615.5C 410.167,615.5 358.833,615.5 307.5,615.5C 307.5,564.167 307.5,512.833 307.5,461.5 Z"/></g>
<g><path style="opacity:1" fill="#606160" d="M 384.5,461.5 C 410.167,461.5 435.833,461.5 461.5,461.5C 461.5,487.167 461.5,512.833 461.5,538.5C 435.833,538.5 410.167,538.5 384.5,538.5C 384.5,512.833 384.5,487.167 384.5,461.5 Z"/></g>
<g><path style="opacity:1" fill="#a5a6a5" d="M 461.5,461.5 C 487.167,461.5 512.833,461.5 538.5,461.5C 564.167,461.5 589.833,461.5 615.5,461.5C 615.5,487.167 615.5,512.833 615.5,538.5C 589.833,538.5 564.167,538.5 538.5,538.5C 512.833,538.5 487.167,538.5 461.5,538.5C 461.5,512.833 461.5,487.167 461.5,461.5 Z"/></g>
<g><path style="opacity:1" fill="#878787" d="M 615.5,461.5 C 641.167,461.5 666.833,461.5 692.5,461.5C 718.167,461.5 743.833,461.5 769.5,461.5C 769.5,512.833 769.5,564.167 769.5,615.5C 692.5,615.5 615.5,615.5 538.5,615.5C 538.5,589.833 538.5,564.167 538.5,538.5C 564.167,538.5 589.833,538.5 615.5,538.5C 615.5,512.833 615.5,487.167 615.5,461.5 Z"/></g>
<g><path style="opacity:1" fill="#606160" d="M 461.5,538.5 C 487.167,538.5 512.833,538.5 538.5,538.5C 538.5,564.167 538.5,589.833 538.5,615.5C 512.833,615.5 487.167,615.5 461.5,615.5C 461.5,589.833 461.5,564.167 461.5,538.5 Z"/></g>
<g><path style="opacity:1" fill="#887e4d" d="M 384.5,692.5 C 384.5,718.167 384.5,743.833 384.5,769.5C 358.833,769.5 333.167,769.5 307.5,769.5C 307.5,743.833 307.5,718.167 307.5,692.5C 333.167,692.5 358.833,692.5 384.5,692.5 Z"/></g>
<g><path style="opacity:1" fill="#d1d2b1" d="M 384.5,692.5 C 538.5,692.5 692.5,692.5 846.5,692.5C 897.5,692.5 948.5,692.5 999.5,692.5C 999.5,718.167 999.5,743.833 999.5,769.5C 974.167,769.5 948.833,769.5 923.5,769.5C 743.833,769.5 564.167,769.5 384.5,769.5C 384.5,743.833 384.5,718.167 384.5,692.5 Z"/></g>
<g><path style="opacity:1" fill="#887e4d" d="M 230.5,769.5 C 256.167,769.5 281.833,769.5 307.5,769.5C 307.5,794.833 307.5,820.167 307.5,845.5C 281.833,845.5 256.167,845.5 230.5,845.5C 230.5,820.167 230.5,794.833 230.5,769.5 Z"/></g>
<g><path style="opacity:1" fill="#bdbe9d" d="M 307.5,769.5 C 333.167,769.5 358.833,769.5 384.5,769.5C 564.167,769.5 743.833,769.5 923.5,769.5C 923.5,794.833 923.5,820.167 923.5,845.5C 718.167,845.5 512.833,845.5 307.5,845.5C 307.5,820.167 307.5,794.833 307.5,769.5 Z"/></g>
</svg>
