<?xml version="1.0" encoding="UTF-8"?>
<!DOCTYPE svg PUBLIC "-//W3C//DTD SVG 1.1//EN" "http://www.w3.org/Graphics/SVG/1.1/DTD/svg11.dtd">
<svg xmlns="http://www.w3.org/2000/svg" version="1.1" width="1000px" height="913px" style="shape-rendering:geometricPrecision; text-rendering:geometricPrecision; image-rendering:optimizeQuality; fill-rule:evenodd; clip-rule:evenodd" xmlns:xlink="http://www.w3.org/1999/xlink">
<g><path style="opacity:1" fill="#757675" d="M 478.5,0.5 C 478.5,29.5 478.5,58.5 478.5,87.5C 435.167,87.5 391.833,87.5 348.5,87.5C 348.5,73.1667 348.5,58.8333 348.5,44.5C 348.5,29.8333 348.5,15.1667 348.5,0.5C 391.833,0.5 435.167,0.5 478.5,0.5 Z"/></g>
<g><path style="opacity:1" fill="#a4a5a4" d="M 478.5,0.5 C 507.5,0.5 536.5,0.5 565.5,0.5C 565.5,15.1667 565.5,29.8333 565.5,44.5C 565.5,58.8333 565.5,73.1667 565.5,87.5C 536.5,87.5 507.5,87.5 478.5,87.5C 478.5,58.5 478.5,29.5 478.5,0.5 Z"/></g>
<g><path style="opacity:1" fill="#1c1a13" d="M 348.5,44.5 C 348.5,58.8333 348.5,73.1667 348.5,87.5C 391.833,87.5 435.167,87.5 478.5,87.5C 507.5,87.5 536.5,87.5 565.5,87.5C 565.5,73.1667 565.5,58.8333 565.5,44.5C 608.833,44.5 652.167,44.5 695.5,44.5C 695.5,87.8333 695.5,131.167 695.5,174.5C 666.5,174.5 637.5,174.5 608.5,174.5C 608.5,160.167 608.5,145.833 608.5,131.5C 492.833,131.5 377.167,131.5 261.5,131.5C 261.5,145.833 261.5,160.167 261.5,174.5C 246.833,174.5 232.167,174.5 217.5,174.5C 217.5,304.833 217.5,435.167 217.5,565.5C 145.167,565.5 72.8333,565.5 0.5,565.5C 0.5,391.833 0.5,218.167 0.5,44.5C 116.5,44.5 232.5,44.5 348.5,44.5 Z"/></g>
<g><path style="opacity:1" fill="#855106" d="M 43.5,131.5 C 72.5,131.5 101.5,131.5 130.5,131.5C 130.5,247.167 130.5,362.833 130.5,478.5C 101.5,478.5 72.5,478.5 43.5,478.5C 43.5,362.833 43.5,247.167 43.5,131.5 Z"/></g>
<g><path style="opacity:1" fill="#683f04" d="M 608.5,174.5 C 565.167,174.5 521.833,174.5 478.5,174.5C 406.167,174.5 333.833,174.5 261.5,174.5C 261.5,160.167 261.5,145.833 261.5,131.5C 377.167,131.5 492.833,131.5 608.5,131.5C 608.5,145.833 608.5,160.167 608.5,174.5 Z"/></g>
<g><path style="opacity:1" fill="#bfc0bf" d="M 261.5,174.5 C 333.833,174.5 406.167,174.5 478.5,174.5C 478.5,304.833 478.5,435.167 478.5,565.5C 464.167,565.5 449.833,565.5 435.5,565.5C 435.5,536.5 435.5,507.5 435.5,478.5C 435.5,406.167 435.5,333.833 435.5,261.5C 377.5,261.5 319.5,261.5 261.5,261.5C 261.5,333.833 261.5,406.167 261.5,478.5C 261.5,507.5 261.5,536.5 261.5,565.5C 246.833,565.5 232.167,565.5 217.5,565.5C 217.5,435.167 217.5,304.833 217.5,174.5C 232.167,174.5 246.833,174.5 261.5,174.5 Z"/></g>
<g><path style="opacity:1" fill="#fefffe" d="M 478.5,174.5 C 521.833,174.5 565.167,174.5 608.5,174.5C 637.5,174.5 666.5,174.5 695.5,174.5C 796.833,174.5 898.167,174.5 999.5,174.5C 999.5,304.833 999.5,435.167 999.5,565.5C 970.833,565.5 942.167,565.5 913.5,565.5C 913.5,464.167 913.5,362.833 913.5,261.5C 840.833,261.5 768.167,261.5 695.5,261.5C 666.5,261.5 637.5,261.5 608.5,261.5C 594.167,261.5 579.833,261.5 565.5,261.5C 565.5,333.833 565.5,406.167 565.5,478.5C 565.5,507.5 565.5,536.5 565.5,565.5C 536.5,565.5 507.5,565.5 478.5,565.5C 478.5,435.167 478.5,304.833 478.5,174.5 Z M 695.5,261.5 C"/></g>
<g><path style="opacity:1" fill="#683f04" d="M 435.5,478.5 C 377.5,478.5 319.5,478.5 261.5,478.5C 261.5,406.167 261.5,333.833 261.5,261.5C 319.5,261.5 377.5,261.5 435.5,261.5C 435.5,333.833 435.5,406.167 435.5,478.5 Z"/></g>
<g><path style="opacity:1" fill="#683f04" d="M 608.5,261.5 C 608.5,333.833 608.5,406.167 608.5,478.5C 594.167,478.5 579.833,478.5 565.5,478.5C 565.5,406.167 565.5,333.833 565.5,261.5C 579.833,261.5 594.167,261.5 608.5,261.5 Z"/></g>
<g><path style="opacity:1" fill="#1c1a13" d="M 608.5,261.5 C 637.5,261.5 666.5,261.5 695.5,261.5C 695.5,362.833 695.5,464.167 695.5,565.5C 652.167,565.5 608.833,565.5 565.5,565.5C 565.5,536.5 565.5,507.5 565.5,478.5C 579.833,478.5 594.167,478.5 608.5,478.5C 608.5,406.167 608.5,333.833 608.5,261.5 Z"/></g>
<g><path style="opacity:1" fill="#1c1a13" d="M 261.5,478.5 C 319.5,478.5 377.5,478.5 435.5,478.5C 435.5,507.5 435.5,536.5 435.5,565.5C 449.833,565.5 464.167,565.5 478.5,565.5C 478.5,681.167 478.5,796.833 478.5,912.5C 391.5,912.5 304.5,912.5 217.5,912.5C 217.5,796.833 217.5,681.167 217.5,565.5C 232.167,565.5 246.833,565.5 261.5,565.5C 261.5,536.5 261.5,507.5 261.5,478.5 Z"/></g>
<g><path style="opacity:1" fill="#443c2e" d="M 478.5,565.5 C 507.5,565.5 536.5,565.5 565.5,565.5C 608.833,565.5 652.167,565.5 695.5,565.5C 768.167,565.5 840.833,565.5 913.5,565.5C 942.167,565.5 970.833,565.5 999.5,565.5C 999.5,681.167 999.5,796.833 999.5,912.5C 825.833,912.5 652.167,912.5 478.5,912.5C 478.5,796.833 478.5,681.167 478.5,565.5 Z"/></g>
<g><path style="opacity:1" fill="#855106" d="M 261.5,652.5 C 319.5,652.5 377.5,652.5 435.5,652.5C 435.5,710.5 435.5,768.5 435.5,826.5C 377.5,826.5 319.5,826.5 261.5,826.5C 261.5,768.5 261.5,710.5 261.5,652.5 Z"/></g>
<g><path style="opacity:1" fill="#a66e1e" d="M 565.5,652.5 C 681.5,652.5 797.5,652.5 913.5,652.5C 913.5,710.5 913.5,768.5 913.5,826.5C 797.5,826.5 681.5,826.5 565.5,826.5C 565.5,768.5 565.5,710.5 565.5,652.5 Z"/></g>
</svg>
