<?xml version="1.0" encoding="UTF-8"?>
<!DOCTYPE svg PUBLIC "-//W3C//DTD SVG 1.1//EN" "http://www.w3.org/Graphics/SVG/1.1/DTD/svg11.dtd">
<svg xmlns="http://www.w3.org/2000/svg" version="1.1" width="1000px" height="909px" style="shape-rendering:geometricPrecision; text-rendering:geometricPrecision; image-rendering:optimizeQuality; fill-rule:evenodd; clip-rule:evenodd" xmlns:xlink="http://www.w3.org/1999/xlink">
<g><path style="opacity:1" fill="#4c739e" d="M 182.5,-0.5 C 212.833,-0.5 243.167,-0.5 273.5,-0.5C 273.5,60.5 273.5,121.5 273.5,182.5C 243.167,182.5 212.833,182.5 182.5,182.5C 182.5,121.5 182.5,60.5 182.5,-0.5 Z"/></g>
<g><path style="opacity:1" fill="#669ad3" d="M 273.5,-0.5 C 455.5,-0.5 637.5,-0.5 819.5,-0.5C 819.5,60.5 819.5,121.5 819.5,182.5C 789.167,182.5 758.833,182.5 728.5,182.5C 576.833,182.5 425.167,182.5 273.5,182.5C 273.5,121.5 273.5,60.5 273.5,-0.5 Z"/></g>
<g><path style="opacity:1" fill="#4c739e" d="M -0.5,182.5 C 30.1667,182.5 60.8333,182.5 91.5,182.5C 91.5,364.5 91.5,546.5 91.5,728.5C 60.8333,728.5 30.1667,728.5 -0.5,728.5C -0.5,546.5 -0.5,364.5 -0.5,182.5 Z"/></g>
<g><path style="opacity:1" fill="#669ad3" d="M 91.5,182.5 C 121.833,182.5 152.167,182.5 182.5,182.5C 212.833,182.5 243.167,182.5 273.5,182.5C 273.5,364.5 273.5,546.5 273.5,728.5C 243.167,728.5 212.833,728.5 182.5,728.5C 152.167,728.5 121.833,728.5 91.5,728.5C 91.5,546.5 91.5,364.5 91.5,182.5 Z"/></g>
<g><path style="opacity:1" fill="#4c739e" d="M 728.5,182.5 C 758.833,182.5 789.167,182.5 819.5,182.5C 819.5,243.167 819.5,303.833 819.5,364.5C 789.167,364.5 758.833,364.5 728.5,364.5C 728.5,303.833 728.5,243.167 728.5,182.5 Z"/></g>
<g><path style="opacity:1" fill="#669ad3" d="M 819.5,182.5 C 879.5,182.5 939.5,182.5 999.5,182.5C 999.5,243.167 999.5,303.833 999.5,364.5C 939.5,364.5 879.5,364.5 819.5,364.5C 819.5,303.833 819.5,243.167 819.5,182.5 Z"/></g>
<g><path style="opacity:1" fill="#4c739e" d="M 819.5,546.5 C 819.5,607.167 819.5,667.833 819.5,728.5C 789.167,728.5 758.833,728.5 728.5,728.5C 728.5,667.833 728.5,607.167 728.5,546.5C 758.833,546.5 789.167,546.5 819.5,546.5 Z"/></g>
<g><path style="opacity:1" fill="#669ad3" d="M 819.5,546.5 C 879.5,546.5 939.5,546.5 999.5,546.5C 999.5,607.167 999.5,667.833 999.5,728.5C 939.5,728.5 879.5,728.5 819.5,728.5C 819.5,667.833 819.5,607.167 819.5,546.5 Z"/></g>
<g><path style="opacity:1" fill="#4c739e" d="M 182.5,728.5 C 212.833,728.5 243.167,728.5 273.5,728.5C 273.5,788.5 273.5,848.5 273.5,908.5C 243.167,908.5 212.833,908.5 182.5,908.5C 182.5,848.5 182.5,788.5 182.5,728.5 Z"/></g>
<g><path style="opacity:1" fill="#669ad3" d="M 273.5,728.5 C 425.167,728.5 576.833,728.5 728.5,728.5C 758.833,728.5 789.167,728.5 819.5,728.5C 819.5,788.5 819.5,848.5 819.5,908.5C 637.5,908.5 455.5,908.5 273.5,908.5C 273.5,848.5 273.5,788.5 273.5,728.5 Z"/></g>
</svg>
