<?xml version="1.0" encoding="UTF-8"?>
<!DOCTYPE svg PUBLIC "-//W3C//DTD SVG 1.1//EN" "http://www.w3.org/Graphics/SVG/1.1/DTD/svg11.dtd">
<svg xmlns="http://www.w3.org/2000/svg" version="1.1" width="1000px" height="923px" style="shape-rendering:geometricPrecision; text-rendering:geometricPrecision; image-rendering:optimizeQuality; fill-rule:evenodd; clip-rule:evenodd" xmlns:xlink="http://www.w3.org/1999/xlink">
<g><path style="opacity:1" fill="#c7dcda" d="M 461.5,-0.5 C 640.833,-0.5 820.167,-0.5 999.5,-0.5C 999.5,127.833 999.5,256.167 999.5,384.5C 896.833,384.5 794.167,384.5 691.5,384.5C 691.5,410.167 691.5,435.833 691.5,461.5C 665.833,461.5 640.167,461.5 614.5,461.5C 588.833,461.5 563.167,461.5 537.5,461.5C 537.5,435.833 537.5,410.167 537.5,384.5C 512.167,384.5 486.833,384.5 461.5,384.5C 461.5,333.167 461.5,281.833 461.5,230.5C 461.5,217.5 461.5,204.5 461.5,191.5C 461.5,165.833 461.5,140.167 461.5,114.5C 461.5,76.1667 461.5,37.8333 461.5,-0.5 Z"/></g>
<g><path style="opacity:1" fill="#212221" d="M 614.5,76.5 C 614.5,102.167 614.5,127.833 614.5,153.5C 588.833,153.5 563.167,153.5 537.5,153.5C 537.5,127.833 537.5,102.167 537.5,76.5C 563.167,76.5 588.833,76.5 614.5,76.5 Z"/></g>
<g><path style="opacity:1" fill="#d5ecea" d="M 614.5,76.5 C 640.167,76.5 665.833,76.5 691.5,76.5C 691.5,102.167 691.5,127.833 691.5,153.5C 742.833,153.5 794.167,153.5 845.5,153.5C 845.5,127.833 845.5,102.167 845.5,76.5C 871.167,76.5 896.833,76.5 922.5,76.5C 922.5,127.833 922.5,179.167 922.5,230.5C 896.833,230.5 871.167,230.5 845.5,230.5C 845.5,256.167 845.5,281.833 845.5,307.5C 819.833,307.5 794.167,307.5 768.5,307.5C 768.5,281.833 768.5,256.167 768.5,230.5C 691.5,230.5 614.5,230.5 537.5,230.5C 537.5,204.833 537.5,179.167 537.5,153.5C 563.167,153.5 588.833,153.5 614.5,153.5C 614.5,127.833 614.5,102.167 614.5,76.5 Z"/></g>
<g><path style="opacity:1" fill="#212221" d="M 691.5,76.5 C 742.833,76.5 794.167,76.5 845.5,76.5C 845.5,102.167 845.5,127.833 845.5,153.5C 794.167,153.5 742.833,153.5 691.5,153.5C 691.5,127.833 691.5,102.167 691.5,76.5 Z"/></g>
<g><path style="opacity:1" fill="#a3962c" d="M 422.5,114.5 C 422.5,140.167 422.5,165.833 422.5,191.5C 396.833,191.5 371.167,191.5 345.5,191.5C 332.833,191.5 320.167,191.5 307.5,191.5C 307.5,178.833 307.5,166.167 307.5,153.5C 307.5,140.5 307.5,127.5 307.5,114.5C 345.833,114.5 384.167,114.5 422.5,114.5 Z"/></g>
<g><path style="opacity:1" fill="#d9c83c" d="M 422.5,114.5 C 435.5,114.5 448.5,114.5 461.5,114.5C 461.5,140.167 461.5,165.833 461.5,191.5C 448.5,191.5 435.5,191.5 422.5,191.5C 422.5,165.833 422.5,140.167 422.5,114.5 Z"/></g>
<g><path style="opacity:1" fill="#892518" d="M -0.5,153.5 C 102.167,153.5 204.833,153.5 307.5,153.5C 307.5,166.167 307.5,178.833 307.5,191.5C 320.167,191.5 332.833,191.5 345.5,191.5C 345.5,204.5 345.5,217.5 345.5,230.5C 307.167,230.5 268.833,230.5 230.5,230.5C 230.5,268.833 230.5,307.167 230.5,345.5C 204.833,345.5 179.167,345.5 153.5,345.5C 140.5,345.5 127.5,345.5 114.5,345.5C 114.5,307.167 114.5,268.833 114.5,230.5C 88.8333,230.5 63.1667,230.5 37.5,230.5C 37.5,268.833 37.5,307.167 37.5,345.5C 24.8333,345.5 12.1667,345.5 -0.5,345.5C -0.5,281.5 -0.5,217.5 -0.5,153.5 Z"/></g>
<g><path style="opacity:1" fill="#d9c83c" d="M 345.5,191.5 C 371.167,191.5 396.833,191.5 422.5,191.5C 422.5,204.5 422.5,217.5 422.5,230.5C 396.833,230.5 371.167,230.5 345.5,230.5C 345.5,217.5 345.5,204.5 345.5,191.5 Z"/></g>
<g><path style="opacity:1" fill="#892518" d="M 422.5,191.5 C 435.5,191.5 448.5,191.5 461.5,191.5C 461.5,204.5 461.5,217.5 461.5,230.5C 448.5,230.5 435.5,230.5 422.5,230.5C 422.5,217.5 422.5,204.5 422.5,191.5 Z"/></g>
<g><path style="opacity:1" fill="#7b120c" d="M 114.5,345.5 C 88.8333,345.5 63.1667,345.5 37.5,345.5C 37.5,307.167 37.5,268.833 37.5,230.5C 63.1667,230.5 88.8333,230.5 114.5,230.5C 114.5,268.833 114.5,307.167 114.5,345.5 Z"/></g>
<g><path style="opacity:1" fill="#300603" d="M 345.5,230.5 C 371.167,230.5 396.833,230.5 422.5,230.5C 435.5,230.5 448.5,230.5 461.5,230.5C 461.5,281.833 461.5,333.167 461.5,384.5C 486.833,384.5 512.167,384.5 537.5,384.5C 537.5,410.167 537.5,435.833 537.5,461.5C 512.167,461.5 486.833,461.5 461.5,461.5C 461.5,486.833 461.5,512.167 461.5,537.5C 448.5,537.5 435.5,537.5 422.5,537.5C 396.833,537.5 371.167,537.5 345.5,537.5C 307.167,537.5 268.833,537.5 230.5,537.5C 230.5,499.167 230.5,460.833 230.5,422.5C 230.5,396.833 230.5,371.167 230.5,345.5C 230.5,307.167 230.5,268.833 230.5,230.5C 268.833,230.5 307.167,230.5 345.5,230.5 Z"/></g>
<g><path style="opacity:1" fill="#212221" d="M 537.5,230.5 C 614.5,230.5 691.5,230.5 768.5,230.5C 768.5,256.167 768.5,281.833 768.5,307.5C 691.5,307.5 614.5,307.5 537.5,307.5C 537.5,281.833 537.5,256.167 537.5,230.5 Z"/></g>
<g><path style="opacity:1" fill="#212221" d="M 922.5,230.5 C 922.5,256.167 922.5,281.833 922.5,307.5C 896.833,307.5 871.167,307.5 845.5,307.5C 845.5,281.833 845.5,256.167 845.5,230.5C 871.167,230.5 896.833,230.5 922.5,230.5 Z"/></g>
<g><path style="opacity:1" fill="#a3962c" d="M -0.5,345.5 C 12.1667,345.5 24.8333,345.5 37.5,345.5C 63.1667,345.5 88.8333,345.5 114.5,345.5C 127.5,345.5 140.5,345.5 153.5,345.5C 153.5,371.167 153.5,396.833 153.5,422.5C 140.5,422.5 127.5,422.5 114.5,422.5C 88.8333,422.5 63.1667,422.5 37.5,422.5C 24.8333,422.5 12.1667,422.5 -0.5,422.5C -0.5,396.833 -0.5,371.167 -0.5,345.5 Z"/></g>
<g><path style="opacity:1" fill="#d9c83c" d="M 153.5,345.5 C 179.167,345.5 204.833,345.5 230.5,345.5C 230.5,371.167 230.5,396.833 230.5,422.5C 204.833,422.5 179.167,422.5 153.5,422.5C 153.5,396.833 153.5,371.167 153.5,345.5 Z"/></g>
<g><path style="opacity:1" fill="#892518" d="M -0.5,422.5 C 12.1667,422.5 24.8333,422.5 37.5,422.5C 37.5,460.833 37.5,499.167 37.5,537.5C 63.1667,537.5 88.8333,537.5 114.5,537.5C 114.5,499.167 114.5,460.833 114.5,422.5C 127.5,422.5 140.5,422.5 153.5,422.5C 179.167,422.5 204.833,422.5 230.5,422.5C 230.5,460.833 230.5,499.167 230.5,537.5C 268.833,537.5 307.167,537.5 345.5,537.5C 345.5,563.167 345.5,588.833 345.5,614.5C 358.5,614.5 371.5,614.5 384.5,614.5C 384.5,691.5 384.5,768.5 384.5,845.5C 371.5,845.5 358.5,845.5 345.5,845.5C 345.5,794.167 345.5,742.833 345.5,691.5C 294.167,691.5 242.833,691.5 191.5,691.5C 191.5,742.833 191.5,794.167 191.5,845.5C 178.833,845.5 166.167,845.5 153.5,845.5C 153.5,768.5 153.5,691.5 153.5,614.5C 102.167,614.5 50.8333,614.5 -0.5,614.5C -0.5,550.5 -0.5,486.5 -0.5,422.5 Z"/></g>
<g><path style="opacity:1" fill="#7b120c" d="M 37.5,422.5 C 63.1667,422.5 88.8333,422.5 114.5,422.5C 114.5,460.833 114.5,499.167 114.5,537.5C 88.8333,537.5 63.1667,537.5 37.5,537.5C 37.5,499.167 37.5,460.833 37.5,422.5 Z"/></g>
<g><path style="opacity:1" fill="#c7dcda" d="M 537.5,461.5 C 537.5,486.833 537.5,512.167 537.5,537.5C 512.167,537.5 486.833,537.5 461.5,537.5C 461.5,512.167 461.5,486.833 461.5,461.5C 486.833,461.5 512.167,461.5 537.5,461.5 Z"/></g>
<g><path style="opacity:1" fill="#892518" d="M 537.5,461.5 C 563.167,461.5 588.833,461.5 614.5,461.5C 614.5,512.5 614.5,563.5 614.5,614.5C 550.5,614.5 486.5,614.5 422.5,614.5C 422.5,588.833 422.5,563.167 422.5,537.5C 435.5,537.5 448.5,537.5 461.5,537.5C 486.833,537.5 512.167,537.5 537.5,537.5C 537.5,512.167 537.5,486.833 537.5,461.5 Z"/></g>
<g><path style="opacity:1" fill="#d9c83c" d="M 345.5,537.5 C 371.167,537.5 396.833,537.5 422.5,537.5C 422.5,563.167 422.5,588.833 422.5,614.5C 409.833,614.5 397.167,614.5 384.5,614.5C 371.5,614.5 358.5,614.5 345.5,614.5C 345.5,588.833 345.5,563.167 345.5,537.5 Z"/></g>
<g><path style="opacity:1" fill="#b53020" d="M 384.5,614.5 C 397.167,614.5 409.833,614.5 422.5,614.5C 486.5,614.5 550.5,614.5 614.5,614.5C 691.5,614.5 768.5,614.5 845.5,614.5C 845.5,691.5 845.5,768.5 845.5,845.5C 819.833,845.5 794.167,845.5 768.5,845.5C 768.5,794.167 768.5,742.833 768.5,691.5C 666.167,691.5 563.833,691.5 461.5,691.5C 461.5,742.833 461.5,794.167 461.5,845.5C 435.833,845.5 410.167,845.5 384.5,845.5C 384.5,768.5 384.5,691.5 384.5,614.5 Z"/></g>
<g><path style="opacity:1" fill="#7b120c" d="M 345.5,845.5 C 294.167,845.5 242.833,845.5 191.5,845.5C 191.5,794.167 191.5,742.833 191.5,691.5C 242.833,691.5 294.167,691.5 345.5,691.5C 345.5,742.833 345.5,794.167 345.5,845.5 Z"/></g>
<g><path style="opacity:1" fill="#a31710" d="M 768.5,845.5 C 666.167,845.5 563.833,845.5 461.5,845.5C 461.5,794.167 461.5,742.833 461.5,691.5C 563.833,691.5 666.167,691.5 768.5,691.5C 768.5,742.833 768.5,794.167 768.5,845.5 Z"/></g>
<g><path style="opacity:1" fill="#390300" d="M 153.5,845.5 C 166.167,845.5 178.833,845.5 191.5,845.5C 242.833,845.5 294.167,845.5 345.5,845.5C 358.5,845.5 371.5,845.5 384.5,845.5C 384.5,871.167 384.5,896.833 384.5,922.5C 307.5,922.5 230.5,922.5 153.5,922.5C 153.5,896.833 153.5,871.167 153.5,845.5 Z"/></g>
<g><path style="opacity:1" fill="#4b0300" d="M 384.5,845.5 C 410.167,845.5 435.833,845.5 461.5,845.5C 563.833,845.5 666.167,845.5 768.5,845.5C 794.167,845.5 819.833,845.5 845.5,845.5C 845.5,871.167 845.5,896.833 845.5,922.5C 691.833,922.5 538.167,922.5 384.5,922.5C 384.5,896.833 384.5,871.167 384.5,845.5 Z"/></g>
</svg>
