<?xml version="1.0" encoding="UTF-8"?>
<!DOCTYPE svg PUBLIC "-//W3C//DTD SVG 1.1//EN" "http://www.w3.org/Graphics/SVG/1.1/DTD/svg11.dtd">
<svg xmlns="http://www.w3.org/2000/svg" version="1.1" width="1000px" height="1000px" style="shape-rendering:geometricPrecision; text-rendering:geometricPrecision; image-rendering:optimizeQuality; fill-rule:evenodd; clip-rule:evenodd" xmlns:xlink="http://www.w3.org/1999/xlink">
<g><path style="opacity:1" fill="#c7dcda" d="M -0.5,-0.5 C 332.833,-0.5 666.167,-0.5 999.5,-0.5C 999.5,237.833 999.5,476.167 999.5,714.5C 809.167,714.5 618.833,714.5 428.5,714.5C 428.5,762.167 428.5,809.833 428.5,857.5C 333.167,857.5 237.833,857.5 142.5,857.5C 142.5,809.833 142.5,762.167 142.5,714.5C 94.8333,714.5 47.1667,714.5 -0.5,714.5C -0.5,476.167 -0.5,237.833 -0.5,-0.5 Z"/></g>
<g><path style="opacity:1" fill="#212221" d="M 285.5,142.5 C 285.5,190.167 285.5,237.833 285.5,285.5C 237.833,285.5 190.167,285.5 142.5,285.5C 142.5,237.833 142.5,190.167 142.5,142.5C 190.167,142.5 237.833,142.5 285.5,142.5 Z"/></g>
<g><path style="opacity:1" fill="#d5ecea" d="M 285.5,142.5 C 333.167,142.5 380.833,142.5 428.5,142.5C 428.5,190.167 428.5,237.833 428.5,285.5C 523.833,285.5 619.167,285.5 714.5,285.5C 714.5,237.833 714.5,190.167 714.5,142.5C 762.167,142.5 809.833,142.5 857.5,142.5C 857.5,237.833 857.5,333.167 857.5,428.5C 809.833,428.5 762.167,428.5 714.5,428.5C 714.5,476.167 714.5,523.833 714.5,571.5C 666.833,571.5 619.167,571.5 571.5,571.5C 571.5,523.833 571.5,476.167 571.5,428.5C 428.5,428.5 285.5,428.5 142.5,428.5C 142.5,380.833 142.5,333.167 142.5,285.5C 190.167,285.5 237.833,285.5 285.5,285.5C 285.5,237.833 285.5,190.167 285.5,142.5 Z"/></g>
<g><path style="opacity:1" fill="#212221" d="M 428.5,142.5 C 523.833,142.5 619.167,142.5 714.5,142.5C 714.5,190.167 714.5,237.833 714.5,285.5C 619.167,285.5 523.833,285.5 428.5,285.5C 428.5,237.833 428.5,190.167 428.5,142.5 Z"/></g>
<g><path style="opacity:1" fill="#212221" d="M 142.5,428.5 C 285.5,428.5 428.5,428.5 571.5,428.5C 571.5,476.167 571.5,523.833 571.5,571.5C 428.5,571.5 285.5,571.5 142.5,571.5C 142.5,523.833 142.5,476.167 142.5,428.5 Z"/></g>
<g><path style="opacity:1" fill="#212221" d="M 857.5,428.5 C 857.5,476.167 857.5,523.833 857.5,571.5C 809.833,571.5 762.167,571.5 714.5,571.5C 714.5,523.833 714.5,476.167 714.5,428.5C 762.167,428.5 809.833,428.5 857.5,428.5 Z"/></g>
<g><path style="opacity:1" fill="#c7dcda" d="M -0.5,857.5 C 47.1667,857.5 94.8333,857.5 142.5,857.5C 142.5,904.833 142.5,952.167 142.5,999.5C 94.8333,999.5 47.1667,999.5 -0.5,999.5C -0.5,952.167 -0.5,904.833 -0.5,857.5 Z"/></g>
</svg>
