<?xml version="1.0" encoding="UTF-8"?>
<!DOCTYPE svg PUBLIC "-//W3C//DTD SVG 1.1//EN" "http://www.w3.org/Graphics/SVG/1.1/DTD/svg11.dtd">
<svg xmlns="http://www.w3.org/2000/svg" version="1.1" width="1000px" height="846px" style="shape-rendering:geometricPrecision; text-rendering:geometricPrecision; image-rendering:optimizeQuality; fill-rule:evenodd; clip-rule:evenodd" xmlns:xlink="http://www.w3.org/1999/xlink">
<g><path style="opacity:1" fill="#4c739e" d="M 154.5,-0.5 C 180.167,-0.5 205.833,-0.5 231.5,-0.5C 231.5,50.8333 231.5,102.167 231.5,153.5C 205.833,153.5 180.167,153.5 154.5,153.5C 154.5,102.167 154.5,50.8333 154.5,-0.5 Z"/></g>
<g><path style="opacity:1" fill="#669ad3" d="M 231.5,-0.5 C 385.5,-0.5 539.5,-0.5 693.5,-0.5C 693.5,50.8333 693.5,102.167 693.5,153.5C 667.833,153.5 642.167,153.5 616.5,153.5C 488.167,153.5 359.833,153.5 231.5,153.5C 231.5,102.167 231.5,50.8333 231.5,-0.5 Z"/></g>
<g><path style="opacity:1" fill="#4c739e" d="M -0.5,153.5 C 25.5,153.5 51.5,153.5 77.5,153.5C 77.5,333.167 77.5,512.833 77.5,692.5C 51.5,692.5 25.5,692.5 -0.5,692.5C -0.5,512.833 -0.5,333.167 -0.5,153.5 Z"/></g>
<g><path style="opacity:1" fill="#669ad3" d="M 77.5,153.5 C 103.167,153.5 128.833,153.5 154.5,153.5C 180.167,153.5 205.833,153.5 231.5,153.5C 231.5,333.167 231.5,512.833 231.5,692.5C 205.833,692.5 180.167,692.5 154.5,692.5C 128.833,692.5 103.167,692.5 77.5,692.5C 77.5,512.833 77.5,333.167 77.5,153.5 Z"/></g>
<g><path style="opacity:1" fill="#4c739e" d="M 616.5,153.5 C 642.167,153.5 667.833,153.5 693.5,153.5C 693.5,204.833 693.5,256.167 693.5,307.5C 667.833,307.5 642.167,307.5 616.5,307.5C 616.5,256.167 616.5,204.833 616.5,153.5 Z"/></g>
<g><path style="opacity:1" fill="#669ad3" d="M 693.5,153.5 C 744.833,153.5 796.167,153.5 847.5,153.5C 847.5,204.833 847.5,256.167 847.5,307.5C 796.167,307.5 744.833,307.5 693.5,307.5C 693.5,256.167 693.5,204.833 693.5,153.5 Z"/></g>
<g><path style="opacity:1" fill="#669ad3" d="M 462.5,307.5 C 488.167,307.5 513.833,307.5 539.5,307.5C 539.5,333.167 539.5,358.833 539.5,384.5C 565.167,384.5 590.833,384.5 616.5,384.5C 616.5,410.167 616.5,435.833 616.5,461.5C 590.833,461.5 565.167,461.5 539.5,461.5C 539.5,487.167 539.5,512.833 539.5,538.5C 513.833,538.5 488.167,538.5 462.5,538.5C 462.5,512.833 462.5,487.167 462.5,461.5C 436.833,461.5 411.167,461.5 385.5,461.5C 385.5,435.833 385.5,410.167 385.5,384.5C 411.167,384.5 436.833,384.5 462.5,384.5C 462.5,358.833 462.5,333.167 462.5,307.5 Z"/></g>
<g><path style="opacity:1" fill="#669ad3" d="M 847.5,307.5 C 873.167,307.5 898.833,307.5 924.5,307.5C 924.5,333.167 924.5,358.833 924.5,384.5C 949.5,384.5 974.5,384.5 999.5,384.5C 999.5,410.167 999.5,435.833 999.5,461.5C 974.5,461.5 949.5,461.5 924.5,461.5C 924.5,487.167 924.5,512.833 924.5,538.5C 898.833,538.5 873.167,538.5 847.5,538.5C 847.5,512.833 847.5,487.167 847.5,461.5C 821.833,461.5 796.167,461.5 770.5,461.5C 770.5,435.833 770.5,410.167 770.5,384.5C 796.167,384.5 821.833,384.5 847.5,384.5C 847.5,358.833 847.5,333.167 847.5,307.5 Z"/></g>
<g><path style="opacity:1" fill="#4c739e" d="M 693.5,538.5 C 693.5,589.833 693.5,641.167 693.5,692.5C 667.833,692.5 642.167,692.5 616.5,692.5C 616.5,641.167 616.5,589.833 616.5,538.5C 642.167,538.5 667.833,538.5 693.5,538.5 Z"/></g>
<g><path style="opacity:1" fill="#669ad3" d="M 693.5,538.5 C 744.833,538.5 796.167,538.5 847.5,538.5C 847.5,589.833 847.5,641.167 847.5,692.5C 796.167,692.5 744.833,692.5 693.5,692.5C 693.5,641.167 693.5,589.833 693.5,538.5 Z"/></g>
<g><path style="opacity:1" fill="#4c739e" d="M 154.5,692.5 C 180.167,692.5 205.833,692.5 231.5,692.5C 231.5,743.5 231.5,794.5 231.5,845.5C 205.833,845.5 180.167,845.5 154.5,845.5C 154.5,794.5 154.5,743.5 154.5,692.5 Z"/></g>
<g><path style="opacity:1" fill="#669ad3" d="M 231.5,692.5 C 359.833,692.5 488.167,692.5 616.5,692.5C 642.167,692.5 667.833,692.5 693.5,692.5C 693.5,743.5 693.5,794.5 693.5,845.5C 539.5,845.5 385.5,845.5 231.5,845.5C 231.5,794.5 231.5,743.5 231.5,692.5 Z"/></g>
</svg>
