<?xml version="1.0" encoding="UTF-8"?>
<!DOCTYPE svg PUBLIC "-//W3C//DTD SVG 1.1//EN" "http://www.w3.org/Graphics/SVG/1.1/DTD/svg11.dtd">
<svg xmlns="http://www.w3.org/2000/svg" version="1.1" width="1000px" height="917px" style="shape-rendering:geometricPrecision; text-rendering:geometricPrecision; image-rendering:optimizeQuality; fill-rule:evenodd; clip-rule:evenodd" xmlns:xlink="http://www.w3.org/1999/xlink">
<g><path style="opacity:1" fill="#7f3788" d="M 166.5,-0.5 C 194.5,-0.5 222.5,-0.5 250.5,-0.5C 250.5,55.1667 250.5,110.833 250.5,166.5C 222.5,166.5 194.5,166.5 166.5,166.5C 166.5,110.833 166.5,55.1667 166.5,-0.5 Z"/></g>
<g><path style="opacity:1" fill="#9a4f97" d="M 250.5,-0.5 C 444.833,-0.5 639.167,-0.5 833.5,-0.5C 833.5,55.1667 833.5,110.833 833.5,166.5C 805.833,166.5 778.167,166.5 750.5,166.5C 583.833,166.5 417.167,166.5 250.5,166.5C 250.5,110.833 250.5,55.1667 250.5,-0.5 Z"/></g>
<g><path style="opacity:1" fill="#7f3788" d="M -0.5,166.5 C 27.5,166.5 55.5,166.5 83.5,166.5C 83.5,361.167 83.5,555.833 83.5,750.5C 55.5,750.5 27.5,750.5 -0.5,750.5C -0.5,555.833 -0.5,361.167 -0.5,166.5 Z"/></g>
<g><path style="opacity:1" fill="#9a4f97" d="M 83.5,166.5 C 111.167,166.5 138.833,166.5 166.5,166.5C 194.5,166.5 222.5,166.5 250.5,166.5C 250.5,361.167 250.5,555.833 250.5,750.5C 222.5,750.5 194.5,750.5 166.5,750.5C 138.833,750.5 111.167,750.5 83.5,750.5C 83.5,555.833 83.5,361.167 83.5,166.5 Z"/></g>
<g><path style="opacity:1" fill="#7f3788" d="M 750.5,166.5 C 778.167,166.5 805.833,166.5 833.5,166.5C 833.5,222.167 833.5,277.833 833.5,333.5C 805.833,333.5 778.167,333.5 750.5,333.5C 750.5,277.833 750.5,222.167 750.5,166.5 Z"/></g>
<g><path style="opacity:1" fill="#9a4f97" d="M 833.5,166.5 C 888.833,166.5 944.167,166.5 999.5,166.5C 999.5,222.167 999.5,277.833 999.5,333.5C 944.167,333.5 888.833,333.5 833.5,333.5C 833.5,277.833 833.5,222.167 833.5,166.5 Z"/></g>
<g><path style="opacity:1" fill="#9a4f97" d="M 750.5,333.5 C 750.5,361.167 750.5,388.833 750.5,416.5C 722.833,416.5 695.167,416.5 667.5,416.5C 667.5,444.5 667.5,472.5 667.5,500.5C 695.167,500.5 722.833,500.5 750.5,500.5C 750.5,528.167 750.5,555.833 750.5,583.5C 722.833,583.5 695.167,583.5 667.5,583.5C 667.5,611.5 667.5,639.5 667.5,667.5C 639.5,667.5 611.5,667.5 583.5,667.5C 583.5,639.5 583.5,611.5 583.5,583.5C 555.833,583.5 528.167,583.5 500.5,583.5C 500.5,611.5 500.5,639.5 500.5,667.5C 472.5,667.5 444.5,667.5 416.5,667.5C 416.5,639.5 416.5,611.5 416.5,583.5C 388.833,583.5 361.167,583.5 333.5,583.5C 333.5,555.833 333.5,528.167 333.5,500.5C 361.167,500.5 388.833,500.5 416.5,500.5C 416.5,472.5 416.5,444.5 416.5,416.5C 388.833,416.5 361.167,416.5 333.5,416.5C 333.5,388.833 333.5,361.167 333.5,333.5C 361.167,333.5 388.833,333.5 416.5,333.5C 416.5,305.833 416.5,278.167 416.5,250.5C 444.5,250.5 472.5,250.5 500.5,250.5C 500.5,278.167 500.5,305.833 500.5,333.5C 528.167,333.5 555.833,333.5 583.5,333.5C 583.5,305.833 583.5,278.167 583.5,250.5C 611.5,250.5 639.5,250.5 667.5,250.5C 667.5,278.167 667.5,305.833 667.5,333.5C 695.167,333.5 722.833,333.5 750.5,333.5 Z M 500.5,416.5 C 528.167,416.5 555.833,416.5 583.5,416.5C 583.5,444.5 583.5,472.5 583.5,500.5C 555.833,500.5 528.167,500.5 500.5,500.5C 500.5,472.5 500.5,444.5 500.5,416.5 Z"/></g>
<g><path style="opacity:1" fill="#7f3788" d="M 750.5,583.5 C 778.167,583.5 805.833,583.5 833.5,583.5C 833.5,639.167 833.5,694.833 833.5,750.5C 805.833,750.5 778.167,750.5 750.5,750.5C 750.5,694.833 750.5,639.167 750.5,583.5 Z"/></g>
<g><path style="opacity:1" fill="#9a4f97" d="M 833.5,583.5 C 888.833,583.5 944.167,583.5 999.5,583.5C 999.5,639.167 999.5,694.833 999.5,750.5C 944.167,750.5 888.833,750.5 833.5,750.5C 833.5,694.833 833.5,639.167 833.5,583.5 Z"/></g>
<g><path style="opacity:1" fill="#7f3788" d="M 166.5,750.5 C 194.5,750.5 222.5,750.5 250.5,750.5C 250.5,805.833 250.5,861.167 250.5,916.5C 222.5,916.5 194.5,916.5 166.5,916.5C 166.5,861.167 166.5,805.833 166.5,750.5 Z"/></g>
<g><path style="opacity:1" fill="#9a4f97" d="M 250.5,750.5 C 417.167,750.5 583.833,750.5 750.5,750.5C 778.167,750.5 805.833,750.5 833.5,750.5C 833.5,805.833 833.5,861.167 833.5,916.5C 639.167,916.5 444.833,916.5 250.5,916.5C 250.5,861.167 250.5,805.833 250.5,750.5 Z"/></g>
</svg>
