<?xml version="1.0" encoding="UTF-8"?>
<!DOCTYPE svg PUBLIC "-//W3C//DTD SVG 1.1//EN" "http://www.w3.org/Graphics/SVG/1.1/DTD/svg11.dtd">
<svg xmlns="http://www.w3.org/2000/svg" version="1.1" width="1000px" height="894px" style="shape-rendering:geometricPrecision; text-rendering:geometricPrecision; image-rendering:optimizeQuality; fill-rule:evenodd; clip-rule:evenodd" xmlns:xlink="http://www.w3.org/1999/xlink">
<g><path style="opacity:1" fill="#4c2774" d="M 105.5,0.5 C 105.5,298.167 105.5,595.833 105.5,893.5C 70.5,893.5 35.5,893.5 0.5,893.5C 0.5,595.833 0.5,298.167 0.5,0.5C 35.5,0.5 70.5,0.5 105.5,0.5 Z"/></g>
<g><path style="opacity:1" fill="#653399" d="M 105.5,0.5 C 403.5,0.5 701.5,0.5 999.5,0.5C 999.5,298.167 999.5,595.833 999.5,893.5C 701.5,893.5 403.5,893.5 105.5,893.5C 105.5,595.833 105.5,298.167 105.5,0.5 Z"/></g>
<g><path style="opacity:1" fill="#fefffe" d="M 263.5,578.5 C 263.5,561.167 263.5,543.833 263.5,526.5C 316.167,526.5 368.833,526.5 421.5,526.5C 421.5,543.833 421.5,561.167 421.5,578.5C 368.833,578.5 316.167,578.5 263.5,578.5 Z"/></g>
<g><path style="opacity:1" fill="#fefffe" d="M 526.5,578.5 C 526.5,561.167 526.5,543.833 526.5,526.5C 579.167,526.5 631.833,526.5 684.5,526.5C 684.5,543.833 684.5,561.167 684.5,578.5C 631.833,578.5 579.167,578.5 526.5,578.5 Z"/></g>
<g><path style="opacity:1" fill="#fefffe" d="M 789.5,578.5 C 789.5,561.167 789.5,543.833 789.5,526.5C 842.167,526.5 894.833,526.5 947.5,526.5C 947.5,543.833 947.5,561.167 947.5,578.5C 894.833,578.5 842.167,578.5 789.5,578.5 Z"/></g>
<g><path style="opacity:1" fill="#fefffe" d="M 263.5,578.5 C 263.5,631.167 263.5,683.833 263.5,736.5C 245.833,736.5 228.167,736.5 210.5,736.5C 210.5,683.833 210.5,631.167 210.5,578.5C 228.167,578.5 245.833,578.5 263.5,578.5 Z"/></g>
<g><path style="opacity:1" fill="#fefffe" d="M 526.5,578.5 C 526.5,596.167 526.5,613.833 526.5,631.5C 508.833,631.5 491.167,631.5 473.5,631.5C 473.5,613.833 473.5,596.167 473.5,578.5C 491.167,578.5 508.833,578.5 526.5,578.5 Z"/></g>
<g><path style="opacity:1" fill="#fefffe" d="M 789.5,578.5 C 789.5,596.167 789.5,613.833 789.5,631.5C 772.167,631.5 754.833,631.5 737.5,631.5C 737.5,613.833 737.5,596.167 737.5,578.5C 754.833,578.5 772.167,578.5 789.5,578.5 Z"/></g>
<g><path style="opacity:1" fill="#fefffe" d="M 526.5,631.5 C 561.5,631.5 596.5,631.5 631.5,631.5C 631.5,648.833 631.5,666.167 631.5,683.5C 596.5,683.5 561.5,683.5 526.5,683.5C 526.5,666.167 526.5,648.833 526.5,631.5 Z"/></g>
<g><path style="opacity:1" fill="#fefffe" d="M 789.5,631.5 C 824.5,631.5 859.5,631.5 894.5,631.5C 894.5,648.833 894.5,666.167 894.5,683.5C 859.5,683.5 824.5,683.5 789.5,683.5C 789.5,666.167 789.5,648.833 789.5,631.5 Z"/></g>
<g><path style="opacity:1" fill="#fefffe" d="M 631.5,683.5 C 649.167,683.5 666.833,683.5 684.5,683.5C 684.5,701.167 684.5,718.833 684.5,736.5C 666.833,736.5 649.167,736.5 631.5,736.5C 631.5,718.833 631.5,701.167 631.5,683.5 Z"/></g>
<g><path style="opacity:1" fill="#fefffe" d="M 894.5,683.5 C 912.167,683.5 929.833,683.5 947.5,683.5C 947.5,701.167 947.5,718.833 947.5,736.5C 929.833,736.5 912.167,736.5 894.5,736.5C 894.5,718.833 894.5,701.167 894.5,683.5 Z"/></g>
<g><path style="opacity:1" fill="#fefffe" d="M 263.5,736.5 C 316.167,736.5 368.833,736.5 421.5,736.5C 421.5,753.833 421.5,771.167 421.5,788.5C 368.833,788.5 316.167,788.5 263.5,788.5C 263.5,771.167 263.5,753.833 263.5,736.5 Z"/></g>
<g><path style="opacity:1" fill="#fefffe" d="M 631.5,736.5 C 631.5,753.833 631.5,771.167 631.5,788.5C 578.833,788.5 526.167,788.5 473.5,788.5C 473.5,771.167 473.5,753.833 473.5,736.5C 526.167,736.5 578.833,736.5 631.5,736.5 Z"/></g>
<g><path style="opacity:1" fill="#fefffe" d="M 894.5,736.5 C 894.5,753.833 894.5,771.167 894.5,788.5C 842.167,788.5 789.833,788.5 737.5,788.5C 737.5,771.167 737.5,753.833 737.5,736.5C 789.833,736.5 842.167,736.5 894.5,736.5 Z"/></g>
</svg>
