<?xml version="1.0" encoding="UTF-8"?>
<!DOCTYPE svg PUBLIC "-//W3C//DTD SVG 1.1//EN" "http://www.w3.org/Graphics/SVG/1.1/DTD/svg11.dtd">
<svg xmlns="http://www.w3.org/2000/svg" version="1.1" width="1000px" height="954px" style="shape-rendering:geometricPrecision; text-rendering:geometricPrecision; image-rendering:optimizeQuality; fill-rule:evenodd; clip-rule:evenodd" xmlns:xlink="http://www.w3.org/1999/xlink">
<g><path style="opacity:1" fill="#4c2774" d="M 181.5,-0.5 C 211.833,-0.5 242.167,-0.5 272.5,-0.5C 272.5,196.5 272.5,393.5 272.5,590.5C 242.167,590.5 211.833,590.5 181.5,590.5C 181.5,408.5 181.5,226.5 181.5,44.5C 181.5,29.5 181.5,14.5 181.5,-0.5 Z"/></g>
<g><path style="opacity:1" fill="#653399" d="M 272.5,-0.5 C 514.833,-0.5 757.167,-0.5 999.5,-0.5C 999.5,196.5 999.5,393.5 999.5,590.5C 969.167,590.5 938.833,590.5 908.5,590.5C 908.5,575.167 908.5,559.833 908.5,544.5C 863.167,544.5 817.833,544.5 772.5,544.5C 772.5,559.833 772.5,575.167 772.5,590.5C 742.167,590.5 711.833,590.5 681.5,590.5C 681.5,575.167 681.5,559.833 681.5,544.5C 635.833,544.5 590.167,544.5 544.5,544.5C 544.5,559.833 544.5,575.167 544.5,590.5C 529.5,590.5 514.5,590.5 499.5,590.5C 499.5,575.167 499.5,559.833 499.5,544.5C 469.167,544.5 438.833,544.5 408.5,544.5C 408.5,559.833 408.5,575.167 408.5,590.5C 363.167,590.5 317.833,590.5 272.5,590.5C 272.5,393.5 272.5,196.5 272.5,-0.5 Z"/></g>
<g><path style="opacity:1" fill="#1c1a13" d="M -0.5,44.5 C 60.1667,44.5 120.833,44.5 181.5,44.5C 181.5,226.5 181.5,408.5 181.5,590.5C 120.833,590.5 60.1667,590.5 -0.5,590.5C -0.5,408.5 -0.5,226.5 -0.5,44.5 Z"/></g>
<g><path style="opacity:1" fill="#855106" d="M 44.5,135.5 C 74.8333,135.5 105.167,135.5 135.5,135.5C 135.5,256.833 135.5,378.167 135.5,499.5C 105.167,499.5 74.8333,499.5 44.5,499.5C 44.5,378.167 44.5,256.833 44.5,135.5 Z"/></g>
<g><path style="opacity:1" fill="#fefffe" d="M 408.5,408.5 C 408.5,393.167 408.5,377.833 408.5,362.5C 438.833,362.5 469.167,362.5 499.5,362.5C 499.5,377.833 499.5,393.167 499.5,408.5C 469.167,408.5 438.833,408.5 408.5,408.5 Z"/></g>
<g><path style="opacity:1" fill="#fefffe" d="M 590.5,408.5 C 590.5,393.167 590.5,377.833 590.5,362.5C 635.833,362.5 681.167,362.5 726.5,362.5C 726.5,377.833 726.5,393.167 726.5,408.5C 681.167,408.5 635.833,408.5 590.5,408.5 Z"/></g>
<g><path style="opacity:1" fill="#fefffe" d="M 817.5,408.5 C 817.5,393.167 817.5,377.833 817.5,362.5C 863.167,362.5 908.833,362.5 954.5,362.5C 954.5,377.833 954.5,393.167 954.5,408.5C 908.833,408.5 863.167,408.5 817.5,408.5 Z"/></g>
<g><path style="opacity:1" fill="#fefffe" d="M 408.5,408.5 C 408.5,453.833 408.5,499.167 408.5,544.5C 393.5,544.5 378.5,544.5 363.5,544.5C 363.5,499.167 363.5,453.833 363.5,408.5C 378.5,408.5 393.5,408.5 408.5,408.5 Z"/></g>
<g><path style="opacity:1" fill="#fefffe" d="M 590.5,408.5 C 590.5,423.5 590.5,438.5 590.5,453.5C 575.167,453.5 559.833,453.5 544.5,453.5C 544.5,438.5 544.5,423.5 544.5,408.5C 559.833,408.5 575.167,408.5 590.5,408.5 Z"/></g>
<g><path style="opacity:1" fill="#fefffe" d="M 817.5,408.5 C 817.5,423.5 817.5,438.5 817.5,453.5C 802.5,453.5 787.5,453.5 772.5,453.5C 772.5,438.5 772.5,423.5 772.5,408.5C 787.5,408.5 802.5,408.5 817.5,408.5 Z"/></g>
<g><path style="opacity:1" fill="#fefffe" d="M 590.5,453.5 C 620.833,453.5 651.167,453.5 681.5,453.5C 681.5,468.833 681.5,484.167 681.5,499.5C 651.167,499.5 620.833,499.5 590.5,499.5C 590.5,484.167 590.5,468.833 590.5,453.5 Z"/></g>
<g><path style="opacity:1" fill="#fefffe" d="M 817.5,453.5 C 847.833,453.5 878.167,453.5 908.5,453.5C 908.5,468.833 908.5,484.167 908.5,499.5C 878.167,499.5 847.833,499.5 817.5,499.5C 817.5,484.167 817.5,468.833 817.5,453.5 Z"/></g>
<g><path style="opacity:1" fill="#fefffe" d="M 681.5,499.5 C 696.5,499.5 711.5,499.5 726.5,499.5C 726.5,514.5 726.5,529.5 726.5,544.5C 711.5,544.5 696.5,544.5 681.5,544.5C 681.5,529.5 681.5,514.5 681.5,499.5 Z"/></g>
<g><path style="opacity:1" fill="#fefffe" d="M 908.5,499.5 C 923.833,499.5 939.167,499.5 954.5,499.5C 954.5,514.5 954.5,529.5 954.5,544.5C 939.167,544.5 923.833,544.5 908.5,544.5C 908.5,529.5 908.5,514.5 908.5,499.5 Z"/></g>
<g><path style="opacity:1" fill="#fefffe" d="M 408.5,544.5 C 438.833,544.5 469.167,544.5 499.5,544.5C 499.5,559.833 499.5,575.167 499.5,590.5C 484.5,590.5 469.5,590.5 454.5,590.5C 439.167,590.5 423.833,590.5 408.5,590.5C 408.5,575.167 408.5,559.833 408.5,544.5 Z"/></g>
<g><path style="opacity:1" fill="#fefffe" d="M 681.5,544.5 C 681.5,559.833 681.5,575.167 681.5,590.5C 635.833,590.5 590.167,590.5 544.5,590.5C 544.5,575.167 544.5,559.833 544.5,544.5C 590.167,544.5 635.833,544.5 681.5,544.5 Z"/></g>
<g><path style="opacity:1" fill="#fefffe" d="M 908.5,544.5 C 908.5,559.833 908.5,575.167 908.5,590.5C 863.167,590.5 817.833,590.5 772.5,590.5C 772.5,575.167 772.5,559.833 772.5,544.5C 817.833,544.5 863.167,544.5 908.5,544.5 Z"/></g>
<g><path style="opacity:1" fill="#1c1a13" d="M 181.5,590.5 C 211.833,590.5 242.167,590.5 272.5,590.5C 317.833,590.5 363.167,590.5 408.5,590.5C 423.833,590.5 439.167,590.5 454.5,590.5C 454.5,711.5 454.5,832.5 454.5,953.5C 363.5,953.5 272.5,953.5 181.5,953.5C 181.5,832.5 181.5,711.5 181.5,590.5 Z"/></g>
<g><path style="opacity:1" fill="#443c2e" d="M 454.5,590.5 C 469.5,590.5 484.5,590.5 499.5,590.5C 514.5,590.5 529.5,590.5 544.5,590.5C 590.167,590.5 635.833,590.5 681.5,590.5C 711.833,590.5 742.167,590.5 772.5,590.5C 817.833,590.5 863.167,590.5 908.5,590.5C 938.833,590.5 969.167,590.5 999.5,590.5C 999.5,711.5 999.5,832.5 999.5,953.5C 817.833,953.5 636.167,953.5 454.5,953.5C 454.5,832.5 454.5,711.5 454.5,590.5 Z"/></g>
<g><path style="opacity:1" fill="#855106" d="M 226.5,680.5 C 287.167,680.5 347.833,680.5 408.5,680.5C 408.5,741.167 408.5,801.833 408.5,862.5C 347.833,862.5 287.167,862.5 226.5,862.5C 226.5,801.833 226.5,741.167 226.5,680.5 Z"/></g>
<g><path style="opacity:1" fill="#a66e1e" d="M 544.5,680.5 C 665.833,680.5 787.167,680.5 908.5,680.5C 908.5,741.167 908.5,801.833 908.5,862.5C 787.167,862.5 665.833,862.5 544.5,862.5C 544.5,801.833 544.5,741.167 544.5,680.5 Z"/></g>
</svg>
