<?xml version="1.0" encoding="UTF-8"?>
<!DOCTYPE svg PUBLIC "-//W3C//DTD SVG 1.1//EN" "http://www.w3.org/Graphics/SVG/1.1/DTD/svg11.dtd">
<svg xmlns="http://www.w3.org/2000/svg" version="1.1" width="814px" height="1000px" style="shape-rendering:geometricPrecision; text-rendering:geometricPrecision; image-rendering:optimizeQuality; fill-rule:evenodd; clip-rule:evenodd" xmlns:xlink="http://www.w3.org/1999/xlink">
<g><path style="opacity:1" fill="#bf6d69" d="M 443.5,-0.5 C 455.833,-0.5 468.167,-0.5 480.5,-0.5C 480.5,24.1667 480.5,48.8333 480.5,73.5C 468.167,73.5 455.833,73.5 443.5,73.5C 443.5,48.8333 443.5,24.1667 443.5,-0.5 Z"/></g>
<g><path style="opacity:1" fill="#feccc9" d="M 480.5,-0.5 C 505.167,-0.5 529.833,-0.5 554.5,-0.5C 554.5,24.1667 554.5,48.8333 554.5,73.5C 579.167,73.5 603.833,73.5 628.5,73.5C 628.5,221.833 628.5,370.167 628.5,518.5C 603.833,518.5 579.167,518.5 554.5,518.5C 554.5,394.833 554.5,271.167 554.5,147.5C 529.833,147.5 505.167,147.5 480.5,147.5C 480.5,271.167 480.5,394.833 480.5,518.5C 455.833,518.5 431.167,518.5 406.5,518.5C 406.5,370.167 406.5,221.833 406.5,73.5C 418.833,73.5 431.167,73.5 443.5,73.5C 455.833,73.5 468.167,73.5 480.5,73.5C 480.5,48.8333 480.5,24.1667 480.5,-0.5 Z"/></g>
<g><path style="opacity:1" fill="#bf6d69" d="M 406.5,73.5 C 406.5,221.833 406.5,370.167 406.5,518.5C 394.167,518.5 381.833,518.5 369.5,518.5C 369.5,456.5 369.5,394.5 369.5,332.5C 369.5,320.167 369.5,307.833 369.5,295.5C 369.5,270.833 369.5,246.167 369.5,221.5C 369.5,172.167 369.5,122.833 369.5,73.5C 381.833,73.5 394.167,73.5 406.5,73.5 Z"/></g>
<g><path style="opacity:1" fill="#fea09c" d="M 554.5,518.5 C 529.833,518.5 505.167,518.5 480.5,518.5C 480.5,394.833 480.5,271.167 480.5,147.5C 505.167,147.5 529.833,147.5 554.5,147.5C 554.5,271.167 554.5,394.833 554.5,518.5 Z"/></g>
<g><path style="opacity:1" fill="#a3962c" d="M 369.5,221.5 C 369.5,246.167 369.5,270.833 369.5,295.5C 357.167,295.5 344.833,295.5 332.5,295.5C 320.167,295.5 307.833,295.5 295.5,295.5C 295.5,283.167 295.5,270.833 295.5,258.5C 295.5,246.167 295.5,233.833 295.5,221.5C 320.167,221.5 344.833,221.5 369.5,221.5 Z"/></g>
<g><path style="opacity:1" fill="#892518" d="M -0.5,258.5 C 98.1667,258.5 196.833,258.5 295.5,258.5C 295.5,270.833 295.5,283.167 295.5,295.5C 307.833,295.5 320.167,295.5 332.5,295.5C 332.5,307.833 332.5,320.167 332.5,332.5C 295.5,332.5 258.5,332.5 221.5,332.5C 221.5,369.5 221.5,406.5 221.5,443.5C 196.833,443.5 172.167,443.5 147.5,443.5C 135.167,443.5 122.833,443.5 110.5,443.5C 110.5,406.5 110.5,369.5 110.5,332.5C 85.8333,332.5 61.1667,332.5 36.5,332.5C 36.5,369.5 36.5,406.5 36.5,443.5C 24.1667,443.5 11.8333,443.5 -0.5,443.5C -0.5,381.833 -0.5,320.167 -0.5,258.5 Z"/></g>
<g><path style="opacity:1" fill="#d9c83c" d="M 332.5,295.5 C 344.833,295.5 357.167,295.5 369.5,295.5C 369.5,307.833 369.5,320.167 369.5,332.5C 357.167,332.5 344.833,332.5 332.5,332.5C 332.5,320.167 332.5,307.833 332.5,295.5 Z"/></g>
<g><path style="opacity:1" fill="#7b120c" d="M 110.5,443.5 C 85.8333,443.5 61.1667,443.5 36.5,443.5C 36.5,406.5 36.5,369.5 36.5,332.5C 61.1667,332.5 85.8333,332.5 110.5,332.5C 110.5,369.5 110.5,406.5 110.5,443.5 Z"/></g>
<g><path style="opacity:1" fill="#300603" d="M 332.5,332.5 C 344.833,332.5 357.167,332.5 369.5,332.5C 369.5,394.5 369.5,456.5 369.5,518.5C 357.167,518.5 344.833,518.5 332.5,518.5C 320.167,518.5 307.833,518.5 295.5,518.5C 295.5,543.167 295.5,567.833 295.5,592.5C 307.833,592.5 320.167,592.5 332.5,592.5C 369.5,592.5 406.5,592.5 443.5,592.5C 443.5,604.833 443.5,617.167 443.5,629.5C 431.167,629.5 418.833,629.5 406.5,629.5C 381.833,629.5 357.167,629.5 332.5,629.5C 295.5,629.5 258.5,629.5 221.5,629.5C 221.5,592.5 221.5,555.5 221.5,518.5C 221.5,493.5 221.5,468.5 221.5,443.5C 221.5,406.5 221.5,369.5 221.5,332.5C 258.5,332.5 295.5,332.5 332.5,332.5 Z"/></g>
<g><path style="opacity:1" fill="#a3962c" d="M -0.5,443.5 C 11.8333,443.5 24.1667,443.5 36.5,443.5C 61.1667,443.5 85.8333,443.5 110.5,443.5C 122.833,443.5 135.167,443.5 147.5,443.5C 147.5,468.5 147.5,493.5 147.5,518.5C 135.167,518.5 122.833,518.5 110.5,518.5C 85.8333,518.5 61.1667,518.5 36.5,518.5C 24.1667,518.5 11.8333,518.5 -0.5,518.5C -0.5,493.5 -0.5,468.5 -0.5,443.5 Z"/></g>
<g><path style="opacity:1" fill="#d9c83c" d="M 147.5,443.5 C 172.167,443.5 196.833,443.5 221.5,443.5C 221.5,468.5 221.5,493.5 221.5,518.5C 196.833,518.5 172.167,518.5 147.5,518.5C 147.5,493.5 147.5,468.5 147.5,443.5 Z"/></g>
<g><path style="opacity:1" fill="#892518" d="M -0.5,518.5 C 11.8333,518.5 24.1667,518.5 36.5,518.5C 36.5,555.5 36.5,592.5 36.5,629.5C 61.1667,629.5 85.8333,629.5 110.5,629.5C 110.5,592.5 110.5,555.5 110.5,518.5C 122.833,518.5 135.167,518.5 147.5,518.5C 172.167,518.5 196.833,518.5 221.5,518.5C 221.5,555.5 221.5,592.5 221.5,629.5C 258.5,629.5 295.5,629.5 332.5,629.5C 332.5,654.167 332.5,678.833 332.5,703.5C 344.833,703.5 357.167,703.5 369.5,703.5C 369.5,777.5 369.5,851.5 369.5,925.5C 357.167,925.5 344.833,925.5 332.5,925.5C 332.5,876.167 332.5,826.833 332.5,777.5C 283.167,777.5 233.833,777.5 184.5,777.5C 184.5,826.833 184.5,876.167 184.5,925.5C 172.167,925.5 159.833,925.5 147.5,925.5C 147.5,851.5 147.5,777.5 147.5,703.5C 98.1667,703.5 48.8333,703.5 -0.5,703.5C -0.5,641.833 -0.5,580.167 -0.5,518.5 Z"/></g>
<g><path style="opacity:1" fill="#7b120c" d="M 36.5,518.5 C 61.1667,518.5 85.8333,518.5 110.5,518.5C 110.5,555.5 110.5,592.5 110.5,629.5C 85.8333,629.5 61.1667,629.5 36.5,629.5C 36.5,592.5 36.5,555.5 36.5,518.5 Z"/></g>
<g><path style="opacity:1" fill="#861a17" d="M 332.5,518.5 C 332.5,543.167 332.5,567.833 332.5,592.5C 320.167,592.5 307.833,592.5 295.5,592.5C 295.5,567.833 295.5,543.167 295.5,518.5C 307.833,518.5 320.167,518.5 332.5,518.5 Z"/></g>
<g><path style="opacity:1" fill="#fe221c" d="M 332.5,518.5 C 344.833,518.5 357.167,518.5 369.5,518.5C 381.833,518.5 394.167,518.5 406.5,518.5C 431.167,518.5 455.833,518.5 480.5,518.5C 505.167,518.5 529.833,518.5 554.5,518.5C 579.167,518.5 603.833,518.5 628.5,518.5C 653.167,518.5 677.833,518.5 702.5,518.5C 702.5,543.167 702.5,567.833 702.5,592.5C 665.5,592.5 628.5,592.5 591.5,592.5C 579.167,592.5 566.833,592.5 554.5,592.5C 554.5,629.5 554.5,666.5 554.5,703.5C 529.833,703.5 505.167,703.5 480.5,703.5C 480.5,666.5 480.5,629.5 480.5,592.5C 468.167,592.5 455.833,592.5 443.5,592.5C 406.5,592.5 369.5,592.5 332.5,592.5C 332.5,567.833 332.5,543.167 332.5,518.5 Z"/></g>
<g><path style="opacity:1" fill="#861a17" d="M 443.5,592.5 C 455.833,592.5 468.167,592.5 480.5,592.5C 480.5,629.5 480.5,666.5 480.5,703.5C 468.167,703.5 455.833,703.5 443.5,703.5C 443.5,678.833 443.5,654.167 443.5,629.5C 443.5,617.167 443.5,604.833 443.5,592.5 Z"/></g>
<g><path style="opacity:1" fill="#892518" d="M 591.5,592.5 C 591.5,629.5 591.5,666.5 591.5,703.5C 579.167,703.5 566.833,703.5 554.5,703.5C 554.5,666.5 554.5,629.5 554.5,592.5C 566.833,592.5 579.167,592.5 591.5,592.5 Z"/></g>
<g><path style="opacity:1" fill="#d9c83c" d="M 332.5,629.5 C 357.167,629.5 381.833,629.5 406.5,629.5C 406.5,654.167 406.5,678.833 406.5,703.5C 394.167,703.5 381.833,703.5 369.5,703.5C 357.167,703.5 344.833,703.5 332.5,703.5C 332.5,678.833 332.5,654.167 332.5,629.5 Z"/></g>
<g><path style="opacity:1" fill="#892518" d="M 406.5,629.5 C 418.833,629.5 431.167,629.5 443.5,629.5C 443.5,654.167 443.5,678.833 443.5,703.5C 431.167,703.5 418.833,703.5 406.5,703.5C 406.5,678.833 406.5,654.167 406.5,629.5 Z"/></g>
<g><path style="opacity:1" fill="#b53020" d="M 369.5,703.5 C 381.833,703.5 394.167,703.5 406.5,703.5C 418.833,703.5 431.167,703.5 443.5,703.5C 455.833,703.5 468.167,703.5 480.5,703.5C 505.167,703.5 529.833,703.5 554.5,703.5C 566.833,703.5 579.167,703.5 591.5,703.5C 665.5,703.5 739.5,703.5 813.5,703.5C 813.5,777.5 813.5,851.5 813.5,925.5C 788.833,925.5 764.167,925.5 739.5,925.5C 739.5,876.167 739.5,826.833 739.5,777.5C 640.833,777.5 542.167,777.5 443.5,777.5C 443.5,826.833 443.5,876.167 443.5,925.5C 418.833,925.5 394.167,925.5 369.5,925.5C 369.5,851.5 369.5,777.5 369.5,703.5 Z"/></g>
<g><path style="opacity:1" fill="#7b120c" d="M 332.5,925.5 C 283.167,925.5 233.833,925.5 184.5,925.5C 184.5,876.167 184.5,826.833 184.5,777.5C 233.833,777.5 283.167,777.5 332.5,777.5C 332.5,826.833 332.5,876.167 332.5,925.5 Z"/></g>
<g><path style="opacity:1" fill="#a31710" d="M 739.5,925.5 C 640.833,925.5 542.167,925.5 443.5,925.5C 443.5,876.167 443.5,826.833 443.5,777.5C 542.167,777.5 640.833,777.5 739.5,777.5C 739.5,826.833 739.5,876.167 739.5,925.5 Z"/></g>
<g><path style="opacity:1" fill="#390300" d="M 147.5,925.5 C 159.833,925.5 172.167,925.5 184.5,925.5C 233.833,925.5 283.167,925.5 332.5,925.5C 344.833,925.5 357.167,925.5 369.5,925.5C 369.5,950.167 369.5,974.833 369.5,999.5C 295.5,999.5 221.5,999.5 147.5,999.5C 147.5,974.833 147.5,950.167 147.5,925.5 Z"/></g>
<g><path style="opacity:1" fill="#4b0300" d="M 369.5,925.5 C 394.167,925.5 418.833,925.5 443.5,925.5C 542.167,925.5 640.833,925.5 739.5,925.5C 764.167,925.5 788.833,925.5 813.5,925.5C 813.5,950.167 813.5,974.833 813.5,999.5C 665.5,999.5 517.5,999.5 369.5,999.5C 369.5,974.833 369.5,950.167 369.5,925.5 Z"/></g>
</svg>
