<?xml version="1.0" encoding="UTF-8"?>
<!DOCTYPE svg PUBLIC "-//W3C//DTD SVG 1.1//EN" "http://www.w3.org/Graphics/SVG/1.1/DTD/svg11.dtd">
<svg xmlns="http://www.w3.org/2000/svg" version="1.1" width="1000px" height="954px" style="shape-rendering:geometricPrecision; text-rendering:geometricPrecision; image-rendering:optimizeQuality; fill-rule:evenodd; clip-rule:evenodd" xmlns:xlink="http://www.w3.org/1999/xlink">
<g><path style="opacity:1" fill="#757675" d="M 363.5,-0.5 C 408.833,-0.5 454.167,-0.5 499.5,-0.5C 499.5,29.8333 499.5,60.1667 499.5,90.5C 454.167,90.5 408.833,90.5 363.5,90.5C 363.5,75.1667 363.5,59.8333 363.5,44.5C 363.5,29.5 363.5,14.5 363.5,-0.5 Z"/></g>
<g><path style="opacity:1" fill="#a4a5a4" d="M 499.5,-0.5 C 529.833,-0.5 560.167,-0.5 590.5,-0.5C 590.5,14.5 590.5,29.5 590.5,44.5C 590.5,59.8333 590.5,75.1667 590.5,90.5C 560.167,90.5 529.833,90.5 499.5,90.5C 499.5,60.1667 499.5,29.8333 499.5,-0.5 Z"/></g>
<g><path style="opacity:1" fill="#1c1a13" d="M -0.5,44.5 C 120.833,44.5 242.167,44.5 363.5,44.5C 363.5,59.8333 363.5,75.1667 363.5,90.5C 408.833,90.5 454.167,90.5 499.5,90.5C 529.833,90.5 560.167,90.5 590.5,90.5C 590.5,75.1667 590.5,59.8333 590.5,44.5C 635.833,44.5 681.167,44.5 726.5,44.5C 726.5,90.1667 726.5,135.833 726.5,181.5C 696.167,181.5 665.833,181.5 635.5,181.5C 635.5,166.167 635.5,150.833 635.5,135.5C 514.5,135.5 393.5,135.5 272.5,135.5C 272.5,150.833 272.5,166.167 272.5,181.5C 242.167,181.5 211.833,181.5 181.5,181.5C 181.5,317.833 181.5,454.167 181.5,590.5C 120.833,590.5 60.1667,590.5 -0.5,590.5C -0.5,408.5 -0.5,226.5 -0.5,44.5 Z"/></g>
<g><path style="opacity:1" fill="#855106" d="M 44.5,135.5 C 74.8333,135.5 105.167,135.5 135.5,135.5C 135.5,256.833 135.5,378.167 135.5,499.5C 105.167,499.5 74.8333,499.5 44.5,499.5C 44.5,378.167 44.5,256.833 44.5,135.5 Z"/></g>
<g><path style="opacity:1" fill="#683f04" d="M 635.5,181.5 C 575.167,181.5 514.833,181.5 454.5,181.5C 393.833,181.5 333.167,181.5 272.5,181.5C 272.5,166.167 272.5,150.833 272.5,135.5C 393.5,135.5 514.5,135.5 635.5,135.5C 635.5,150.833 635.5,166.167 635.5,181.5 Z"/></g>
<g><path style="opacity:1" fill="#85693b" d="M 272.5,181.5 C 333.167,181.5 393.833,181.5 454.5,181.5C 454.5,317.833 454.5,454.167 454.5,590.5C 439.167,590.5 423.833,590.5 408.5,590.5C 408.5,575.167 408.5,559.833 408.5,544.5C 408.5,529.5 408.5,514.5 408.5,499.5C 393.5,499.5 378.5,499.5 363.5,499.5C 348.167,499.5 332.833,499.5 317.5,499.5C 302.5,499.5 287.5,499.5 272.5,499.5C 257.167,499.5 241.833,499.5 226.5,499.5C 226.5,529.833 226.5,560.167 226.5,590.5C 211.5,590.5 196.5,590.5 181.5,590.5C 181.5,454.167 181.5,317.833 181.5,181.5C 211.833,181.5 242.167,181.5 272.5,181.5 Z"/></g>
<g><path style="opacity:1" fill="#b28c50" d="M 454.5,181.5 C 514.833,181.5 575.167,181.5 635.5,181.5C 665.833,181.5 696.167,181.5 726.5,181.5C 817.5,181.5 908.5,181.5 999.5,181.5C 999.5,317.833 999.5,454.167 999.5,590.5C 969.167,590.5 938.833,590.5 908.5,590.5C 908.5,575.167 908.5,559.833 908.5,544.5C 908.5,529.5 908.5,514.5 908.5,499.5C 878.167,499.5 847.833,499.5 817.5,499.5C 787.167,499.5 756.833,499.5 726.5,499.5C 696.167,499.5 665.833,499.5 635.5,499.5C 605.167,499.5 574.833,499.5 544.5,499.5C 544.5,529.833 544.5,560.167 544.5,590.5C 514.5,590.5 484.5,590.5 454.5,590.5C 454.5,454.167 454.5,317.833 454.5,181.5 Z"/></g>
<g><path style="opacity:1" fill="#8c100f" d="M 272.5,272.5 C 272.5,287.5 272.5,302.5 272.5,317.5C 272.5,347.833 272.5,378.167 272.5,408.5C 257.167,408.5 241.833,408.5 226.5,408.5C 226.5,363.167 226.5,317.833 226.5,272.5C 241.833,272.5 257.167,272.5 272.5,272.5 Z"/></g>
<g><path style="opacity:1" fill="#2f2412" d="M 272.5,272.5 C 302.833,272.5 333.167,272.5 363.5,272.5C 363.5,317.833 363.5,363.167 363.5,408.5C 348.167,408.5 332.833,408.5 317.5,408.5C 317.5,378.167 317.5,347.833 317.5,317.5C 302.5,317.5 287.5,317.5 272.5,317.5C 272.5,302.5 272.5,287.5 272.5,272.5 Z"/></g>
<g><path style="opacity:1" fill="#244a7a" d="M 363.5,272.5 C 378.5,272.5 393.5,272.5 408.5,272.5C 408.5,317.833 408.5,363.167 408.5,408.5C 393.5,408.5 378.5,408.5 363.5,408.5C 363.5,363.167 363.5,317.833 363.5,272.5 Z"/></g>
<g><path style="opacity:1" fill="#bb1615" d="M 635.5,272.5 C 635.5,287.5 635.5,302.5 635.5,317.5C 635.5,347.833 635.5,378.167 635.5,408.5C 605.167,408.5 574.833,408.5 544.5,408.5C 544.5,363.167 544.5,317.833 544.5,272.5C 574.833,272.5 605.167,272.5 635.5,272.5 Z"/></g>
<g><path style="opacity:1" fill="#403119" d="M 635.5,272.5 C 696.167,272.5 756.833,272.5 817.5,272.5C 817.5,317.833 817.5,363.167 817.5,408.5C 787.167,408.5 756.833,408.5 726.5,408.5C 726.5,378.167 726.5,347.833 726.5,317.5C 696.167,317.5 665.833,317.5 635.5,317.5C 635.5,302.5 635.5,287.5 635.5,272.5 Z"/></g>
<g><path style="opacity:1" fill="#3163a3" d="M 817.5,272.5 C 847.833,272.5 878.167,272.5 908.5,272.5C 908.5,317.833 908.5,363.167 908.5,408.5C 878.167,408.5 847.833,408.5 817.5,408.5C 817.5,363.167 817.5,317.833 817.5,272.5 Z"/></g>
<g><path style="opacity:1" fill="#576a0b" d="M 272.5,317.5 C 287.5,317.5 302.5,317.5 317.5,317.5C 317.5,347.833 317.5,378.167 317.5,408.5C 302.5,408.5 287.5,408.5 272.5,408.5C 272.5,378.167 272.5,347.833 272.5,317.5 Z"/></g>
<g><path style="opacity:1" fill="#748e10" d="M 635.5,317.5 C 665.833,317.5 696.167,317.5 726.5,317.5C 726.5,347.833 726.5,378.167 726.5,408.5C 696.167,408.5 665.833,408.5 635.5,408.5C 635.5,378.167 635.5,347.833 635.5,317.5 Z"/></g>
<g><path style="opacity:1" fill="#0c6a4f" d="M 272.5,499.5 C 272.5,529.833 272.5,560.167 272.5,590.5C 257.167,590.5 241.833,590.5 226.5,590.5C 226.5,560.167 226.5,529.833 226.5,499.5C 241.833,499.5 257.167,499.5 272.5,499.5 Z"/></g>
<g><path style="opacity:1" fill="#8c100f" d="M 272.5,499.5 C 287.5,499.5 302.5,499.5 317.5,499.5C 317.5,514.5 317.5,529.5 317.5,544.5C 317.5,559.833 317.5,575.167 317.5,590.5C 302.5,590.5 287.5,590.5 272.5,590.5C 272.5,560.167 272.5,529.833 272.5,499.5 Z"/></g>
<g><path style="opacity:1" fill="#576a0b" d="M 317.5,499.5 C 332.833,499.5 348.167,499.5 363.5,499.5C 363.5,514.5 363.5,529.5 363.5,544.5C 348.167,544.5 332.833,544.5 317.5,544.5C 317.5,529.5 317.5,514.5 317.5,499.5 Z"/></g>
<g><path style="opacity:1" fill="#2f2412" d="M 363.5,499.5 C 378.5,499.5 393.5,499.5 408.5,499.5C 408.5,514.5 408.5,529.5 408.5,544.5C 393.5,544.5 378.5,544.5 363.5,544.5C 363.5,529.5 363.5,514.5 363.5,499.5 Z"/></g>
<g><path style="opacity:1" fill="#118e6a" d="M 635.5,499.5 C 635.5,529.833 635.5,560.167 635.5,590.5C 605.167,590.5 574.833,590.5 544.5,590.5C 544.5,560.167 544.5,529.833 544.5,499.5C 574.833,499.5 605.167,499.5 635.5,499.5 Z"/></g>
<g><path style="opacity:1" fill="#bb1615" d="M 635.5,499.5 C 665.833,499.5 696.167,499.5 726.5,499.5C 726.5,514.5 726.5,529.5 726.5,544.5C 726.5,559.833 726.5,575.167 726.5,590.5C 696.167,590.5 665.833,590.5 635.5,590.5C 635.5,560.167 635.5,529.833 635.5,499.5 Z"/></g>
<g><path style="opacity:1" fill="#748e10" d="M 726.5,499.5 C 756.833,499.5 787.167,499.5 817.5,499.5C 817.5,514.5 817.5,529.5 817.5,544.5C 787.167,544.5 756.833,544.5 726.5,544.5C 726.5,529.5 726.5,514.5 726.5,499.5 Z"/></g>
<g><path style="opacity:1" fill="#403119" d="M 817.5,499.5 C 847.833,499.5 878.167,499.5 908.5,499.5C 908.5,514.5 908.5,529.5 908.5,544.5C 878.167,544.5 847.833,544.5 817.5,544.5C 817.5,529.5 817.5,514.5 817.5,499.5 Z"/></g>
<g><path style="opacity:1" fill="#2f2412" d="M 317.5,544.5 C 332.833,544.5 348.167,544.5 363.5,544.5C 363.5,559.833 363.5,575.167 363.5,590.5C 348.167,590.5 332.833,590.5 317.5,590.5C 317.5,575.167 317.5,559.833 317.5,544.5 Z"/></g>
<g><path style="opacity:1" fill="#576a0b" d="M 363.5,544.5 C 378.5,544.5 393.5,544.5 408.5,544.5C 408.5,559.833 408.5,575.167 408.5,590.5C 393.5,590.5 378.5,590.5 363.5,590.5C 363.5,575.167 363.5,559.833 363.5,544.5 Z"/></g>
<g><path style="opacity:1" fill="#403119" d="M 726.5,544.5 C 756.833,544.5 787.167,544.5 817.5,544.5C 817.5,559.833 817.5,575.167 817.5,590.5C 787.167,590.5 756.833,590.5 726.5,590.5C 726.5,575.167 726.5,559.833 726.5,544.5 Z"/></g>
<g><path style="opacity:1" fill="#748e10" d="M 817.5,544.5 C 847.833,544.5 878.167,544.5 908.5,544.5C 908.5,559.833 908.5,575.167 908.5,590.5C 878.167,590.5 847.833,590.5 817.5,590.5C 817.5,575.167 817.5,559.833 817.5,544.5 Z"/></g>
<g><path style="opacity:1" fill="#1c1a13" d="M 181.5,590.5 C 196.5,590.5 211.5,590.5 226.5,590.5C 241.833,590.5 257.167,590.5 272.5,590.5C 287.5,590.5 302.5,590.5 317.5,590.5C 332.833,590.5 348.167,590.5 363.5,590.5C 378.5,590.5 393.5,590.5 408.5,590.5C 423.833,590.5 439.167,590.5 454.5,590.5C 454.5,711.5 454.5,832.5 454.5,953.5C 363.5,953.5 272.5,953.5 181.5,953.5C 181.5,832.5 181.5,711.5 181.5,590.5 Z"/></g>
<g><path style="opacity:1" fill="#443c2e" d="M 454.5,590.5 C 484.5,590.5 514.5,590.5 544.5,590.5C 574.833,590.5 605.167,590.5 635.5,590.5C 665.833,590.5 696.167,590.5 726.5,590.5C 756.833,590.5 787.167,590.5 817.5,590.5C 847.833,590.5 878.167,590.5 908.5,590.5C 938.833,590.5 969.167,590.5 999.5,590.5C 999.5,711.5 999.5,832.5 999.5,953.5C 817.833,953.5 636.167,953.5 454.5,953.5C 454.5,832.5 454.5,711.5 454.5,590.5 Z"/></g>
<g><path style="opacity:1" fill="#855106" d="M 226.5,680.5 C 287.167,680.5 347.833,680.5 408.5,680.5C 408.5,741.167 408.5,801.833 408.5,862.5C 347.833,862.5 287.167,862.5 226.5,862.5C 226.5,801.833 226.5,741.167 226.5,680.5 Z"/></g>
<g><path style="opacity:1" fill="#a66e1e" d="M 544.5,680.5 C 665.833,680.5 787.167,680.5 908.5,680.5C 908.5,741.167 908.5,801.833 908.5,862.5C 787.167,862.5 665.833,862.5 544.5,862.5C 544.5,801.833 544.5,741.167 544.5,680.5 Z"/></g>
</svg>
