<?xml version="1.0" encoding="UTF-8"?>
<!DOCTYPE svg PUBLIC "-//W3C//DTD SVG 1.1//EN" "http://www.w3.org/Graphics/SVG/1.1/DTD/svg11.dtd">
<svg xmlns="http://www.w3.org/2000/svg" version="1.1" width="1000px" height="555px" style="shape-rendering:geometricPrecision; text-rendering:geometricPrecision; image-rendering:optimizeQuality; fill-rule:evenodd; clip-rule:evenodd" xmlns:xlink="http://www.w3.org/1999/xlink">
<g><path style="opacity:1" fill="#7e7f7e" d="M -0.5,-0.5 C 36.5,-0.5 73.5,-0.5 110.5,-0.5C 110.5,147.5 110.5,295.5 110.5,443.5C 73.5,443.5 36.5,443.5 -0.5,443.5C -0.5,295.5 -0.5,147.5 -0.5,-0.5 Z"/></g>
<g><path style="opacity:1" fill="#a7a8a7" d="M 110.5,-0.5 C 369.833,-0.5 629.167,-0.5 888.5,-0.5C 888.5,36.5 888.5,73.5 888.5,110.5C 666.167,110.5 443.833,110.5 221.5,110.5C 221.5,221.5 221.5,332.5 221.5,443.5C 184.5,443.5 147.5,443.5 110.5,443.5C 110.5,295.5 110.5,147.5 110.5,-0.5 Z"/></g>
<g><path style="opacity:1" fill="#6e6f6e" d="M 888.5,-0.5 C 925.5,-0.5 962.5,-0.5 999.5,-0.5C 999.5,36.5 999.5,73.5 999.5,110.5C 962.5,110.5 925.5,110.5 888.5,110.5C 888.5,73.5 888.5,36.5 888.5,-0.5 Z"/></g>
<g><path style="opacity:1" fill="#6e6f6e" d="M 888.5,110.5 C 888.5,221.5 888.5,332.5 888.5,443.5C 666.167,443.5 443.833,443.5 221.5,443.5C 221.5,332.5 221.5,221.5 221.5,110.5C 443.833,110.5 666.167,110.5 888.5,110.5 Z"/></g>
<g><path style="opacity:1" fill="#4f504f" d="M 888.5,110.5 C 925.5,110.5 962.5,110.5 999.5,110.5C 999.5,258.5 999.5,406.5 999.5,554.5C 740.167,554.5 480.833,554.5 221.5,554.5C 221.5,517.5 221.5,480.5 221.5,443.5C 443.833,443.5 666.167,443.5 888.5,443.5C 888.5,332.5 888.5,221.5 888.5,110.5 Z"/></g>
<g><path style="opacity:1" fill="#535453" d="M -0.5,443.5 C 36.5,443.5 73.5,443.5 110.5,443.5C 110.5,480.5 110.5,517.5 110.5,554.5C 73.5,554.5 36.5,554.5 -0.5,554.5C -0.5,517.5 -0.5,480.5 -0.5,443.5 Z"/></g>
<g><path style="opacity:1" fill="#6e6f6e" d="M 110.5,443.5 C 147.5,443.5 184.5,443.5 221.5,443.5C 221.5,480.5 221.5,517.5 221.5,554.5C 184.5,554.5 147.5,554.5 110.5,554.5C 110.5,517.5 110.5,480.5 110.5,443.5 Z"/></g>
</svg>
