<?xml version="1.0" encoding="UTF-8"?>
<!DOCTYPE svg PUBLIC "-//W3C//DTD SVG 1.1//EN" "http://www.w3.org/Graphics/SVG/1.1/DTD/svg11.dtd">
<svg xmlns="http://www.w3.org/2000/svg" version="1.1" width="1000px" height="714px" style="shape-rendering:geometricPrecision; text-rendering:geometricPrecision; image-rendering:optimizeQuality; fill-rule:evenodd; clip-rule:evenodd" xmlns:xlink="http://www.w3.org/1999/xlink">
<g><path style="opacity:1" fill="#01060c" d="M -0.5,-0.5 C 23.5,-0.5 47.5,-0.5 71.5,-0.5C 71.5,47.1667 71.5,94.8333 71.5,142.5C 47.5,142.5 23.5,142.5 -0.5,142.5C -0.5,94.8333 -0.5,47.1667 -0.5,-0.5 Z"/></g>
<g><path style="opacity:1" fill="#060f11" d="M 71.5,-0.5 C 95.1667,-0.5 118.833,-0.5 142.5,-0.5C 142.5,47.1667 142.5,94.8333 142.5,142.5C 142.5,190.167 142.5,237.833 142.5,285.5C 118.833,285.5 95.1667,285.5 71.5,285.5C 71.5,237.833 71.5,190.167 71.5,142.5C 71.5,94.8333 71.5,47.1667 71.5,-0.5 Z"/></g>
<g><path style="opacity:1" fill="#01060c" d="M 142.5,-0.5 C 166.5,-0.5 190.5,-0.5 214.5,-0.5C 214.5,47.1667 214.5,94.8333 214.5,142.5C 190.5,142.5 166.5,142.5 142.5,142.5C 142.5,94.8333 142.5,47.1667 142.5,-0.5 Z"/></g>
<g><path style="opacity:1" fill="#060f11" d="M 214.5,-0.5 C 238.167,-0.5 261.833,-0.5 285.5,-0.5C 285.5,47.1667 285.5,94.8333 285.5,142.5C 261.833,142.5 238.167,142.5 214.5,142.5C 214.5,94.8333 214.5,47.1667 214.5,-0.5 Z"/></g>
<g><path style="opacity:1" fill="#08232d" d="M 285.5,-0.5 C 333.167,-0.5 380.833,-0.5 428.5,-0.5C 428.5,47.1667 428.5,94.8333 428.5,142.5C 380.833,142.5 333.167,142.5 285.5,142.5C 285.5,94.8333 285.5,47.1667 285.5,-0.5 Z"/></g>
<g><path style="opacity:1" fill="#020811" d="M 428.5,-0.5 C 476.167,-0.5 523.833,-0.5 571.5,-0.5C 571.5,47.1667 571.5,94.8333 571.5,142.5C 523.833,142.5 476.167,142.5 428.5,142.5C 428.5,94.8333 428.5,47.1667 428.5,-0.5 Z"/></g>
<g><path style="opacity:1" fill="#17302b" d="M 571.5,-0.5 C 595.5,-0.5 619.5,-0.5 643.5,-0.5C 643.5,47.1667 643.5,94.8333 643.5,142.5C 619.5,142.5 595.5,142.5 571.5,142.5C 571.5,94.8333 571.5,47.1667 571.5,-0.5 Z"/></g>
<g><path style="opacity:0.749" fill="#9748e0" d="M 643.5,-0.5 C 667.167,-0.5 690.833,-0.5 714.5,-0.5C 714.5,47.1667 714.5,94.8333 714.5,142.5C 690.833,142.5 667.167,142.5 643.5,142.5C 643.5,94.8333 643.5,47.1667 643.5,-0.5 Z"/></g>
<g><path style="opacity:0.749" fill="#ae5eee" d="M 714.5,-0.5 C 762.167,-0.5 809.833,-0.5 857.5,-0.5C 857.5,47.1667 857.5,94.8333 857.5,142.5C 809.833,142.5 762.167,142.5 714.5,142.5C 714.5,94.8333 714.5,47.1667 714.5,-0.5 Z"/></g>
<g><path style="opacity:0.749" fill="#492590" d="M 857.5,-0.5 C 904.833,-0.5 952.167,-0.5 999.5,-0.5C 999.5,47.1667 999.5,94.8333 999.5,142.5C 952.167,142.5 904.833,142.5 857.5,142.5C 857.5,94.8333 857.5,47.1667 857.5,-0.5 Z"/></g>
<g><path style="opacity:1" fill="#0f4952" d="M -0.5,142.5 C 23.5,142.5 47.5,142.5 71.5,142.5C 71.5,190.167 71.5,237.833 71.5,285.5C 47.5,285.5 23.5,285.5 -0.5,285.5C -0.5,237.833 -0.5,190.167 -0.5,142.5 Z"/></g>
<g><path style="opacity:1" fill="#112420" d="M 142.5,142.5 C 166.5,142.5 190.5,142.5 214.5,142.5C 214.5,190.167 214.5,237.833 214.5,285.5C 190.5,285.5 166.5,285.5 142.5,285.5C 142.5,237.833 142.5,190.167 142.5,142.5 Z"/></g>
<g><path style="opacity:1" fill="#01060c" d="M 214.5,142.5 C 238.167,142.5 261.833,142.5 285.5,142.5C 285.5,190.167 285.5,237.833 285.5,285.5C 261.833,285.5 238.167,285.5 214.5,285.5C 214.5,237.833 214.5,190.167 214.5,142.5 Z"/></g>
<g><path style="opacity:1" fill="#34374f" d="M 285.5,142.5 C 333.167,142.5 380.833,142.5 428.5,142.5C 428.5,190.167 428.5,237.833 428.5,285.5C 380.833,285.5 333.167,285.5 285.5,285.5C 285.5,237.833 285.5,190.167 285.5,142.5 Z"/></g>
<g><path style="opacity:1" fill="#081418" d="M 428.5,142.5 C 476.167,142.5 523.833,142.5 571.5,142.5C 571.5,190.167 571.5,237.833 571.5,285.5C 523.833,285.5 476.167,285.5 428.5,285.5C 428.5,237.833 428.5,190.167 428.5,142.5 Z"/></g>
<g><path style="opacity:1" fill="#15626c" d="M 571.5,142.5 C 595.5,142.5 619.5,142.5 643.5,142.5C 643.5,190.167 643.5,237.833 643.5,285.5C 619.5,285.5 595.5,285.5 571.5,285.5C 571.5,237.833 571.5,190.167 571.5,142.5 Z"/></g>
<g><path style="opacity:0.749" fill="#5325a2" d="M 643.5,142.5 C 667.167,142.5 690.833,142.5 714.5,142.5C 762.167,142.5 809.833,142.5 857.5,142.5C 857.5,190.167 857.5,237.833 857.5,285.5C 857.5,333.167 857.5,380.833 857.5,428.5C 809.833,428.5 762.167,428.5 714.5,428.5C 714.5,380.833 714.5,333.167 714.5,285.5C 690.833,285.5 667.167,285.5 643.5,285.5C 643.5,237.833 643.5,190.167 643.5,142.5 Z"/></g>
<g><path style="opacity:0.749" fill="#ae5eee" d="M 857.5,142.5 C 904.833,142.5 952.167,142.5 999.5,142.5C 999.5,190.167 999.5,237.833 999.5,285.5C 952.167,285.5 904.833,285.5 857.5,285.5C 857.5,237.833 857.5,190.167 857.5,142.5 Z"/></g>
<g><path style="opacity:1" fill="#112420" d="M -0.5,285.5 C 23.5,285.5 47.5,285.5 71.5,285.5C 71.5,333.167 71.5,380.833 71.5,428.5C 47.5,428.5 23.5,428.5 -0.5,428.5C -0.5,380.833 -0.5,333.167 -0.5,285.5 Z"/></g>
<g><path style="opacity:1" fill="#01060c" d="M 71.5,285.5 C 95.1667,285.5 118.833,285.5 142.5,285.5C 142.5,333.167 142.5,380.833 142.5,428.5C 118.833,428.5 95.1667,428.5 71.5,428.5C 71.5,380.833 71.5,333.167 71.5,285.5 Z"/></g>
<g><path style="opacity:1" fill="#0f4952" d="M 142.5,285.5 C 166.5,285.5 190.5,285.5 214.5,285.5C 214.5,333.167 214.5,380.833 214.5,428.5C 190.5,428.5 166.5,428.5 142.5,428.5C 142.5,380.833 142.5,333.167 142.5,285.5 Z"/></g>
<g><path style="opacity:1" fill="#060f11" d="M 214.5,285.5 C 238.167,285.5 261.833,285.5 285.5,285.5C 285.5,333.167 285.5,380.833 285.5,428.5C 261.833,428.5 238.167,428.5 214.5,428.5C 214.5,380.833 214.5,333.167 214.5,285.5 Z"/></g>
<g><path style="opacity:1" fill="#020811" d="M 285.5,285.5 C 333.167,285.5 380.833,285.5 428.5,285.5C 428.5,333.167 428.5,380.833 428.5,428.5C 404.833,428.5 381.167,428.5 357.5,428.5C 333.5,428.5 309.5,428.5 285.5,428.5C 285.5,380.833 285.5,333.167 285.5,285.5 Z"/></g>
<g><path style="opacity:1" fill="#15626c" d="M 428.5,285.5 C 476.167,285.5 523.833,285.5 571.5,285.5C 571.5,333.167 571.5,380.833 571.5,428.5C 547.833,428.5 524.167,428.5 500.5,428.5C 476.5,428.5 452.5,428.5 428.5,428.5C 428.5,380.833 428.5,333.167 428.5,285.5 Z"/></g>
<g><path style="opacity:1" fill="#17302b" d="M 571.5,285.5 C 595.5,285.5 619.5,285.5 643.5,285.5C 643.5,333.167 643.5,380.833 643.5,428.5C 619.5,428.5 595.5,428.5 571.5,428.5C 571.5,380.833 571.5,333.167 571.5,285.5 Z"/></g>
<g><path style="opacity:0.749" fill="#ae5eee" d="M 643.5,285.5 C 667.167,285.5 690.833,285.5 714.5,285.5C 714.5,333.167 714.5,380.833 714.5,428.5C 690.833,428.5 667.167,428.5 643.5,428.5C 643.5,380.833 643.5,333.167 643.5,285.5 Z"/></g>
<g><path style="opacity:0.749" fill="#8337d2" d="M 857.5,285.5 C 904.833,285.5 952.167,285.5 999.5,285.5C 999.5,333.167 999.5,380.833 999.5,428.5C 952.167,428.5 904.833,428.5 857.5,428.5C 857.5,380.833 857.5,333.167 857.5,285.5 Z"/></g>
<g><path style="opacity:1" fill="#01060c" d="M -0.5,428.5 C 23.5,428.5 47.5,428.5 71.5,428.5C 71.5,476.167 71.5,523.833 71.5,571.5C 47.5,571.5 23.5,571.5 -0.5,571.5C -0.5,523.833 -0.5,476.167 -0.5,428.5 Z"/></g>
<g><path style="opacity:1" fill="#060f11" d="M 71.5,428.5 C 95.1667,428.5 118.833,428.5 142.5,428.5C 142.5,476.167 142.5,523.833 142.5,571.5C 118.833,571.5 95.1667,571.5 71.5,571.5C 71.5,523.833 71.5,476.167 71.5,428.5 Z"/></g>
<g><path style="opacity:1" fill="#01060c" d="M 142.5,428.5 C 166.5,428.5 190.5,428.5 214.5,428.5C 214.5,476.167 214.5,523.833 214.5,571.5C 190.5,571.5 166.5,571.5 142.5,571.5C 142.5,523.833 142.5,476.167 142.5,428.5 Z"/></g>
<g><path style="opacity:1" fill="#26293b" d="M 214.5,428.5 C 238.167,428.5 261.833,428.5 285.5,428.5C 285.5,476.167 285.5,523.833 285.5,571.5C 261.833,571.5 238.167,571.5 214.5,571.5C 214.5,523.833 214.5,476.167 214.5,428.5 Z"/></g>
<g><path style="opacity:1" fill="#34374f" d="M 285.5,428.5 C 309.5,428.5 333.5,428.5 357.5,428.5C 357.5,476.167 357.5,523.833 357.5,571.5C 333.5,571.5 309.5,571.5 285.5,571.5C 285.5,523.833 285.5,476.167 285.5,428.5 Z"/></g>
<g><path style="opacity:1" fill="#17302b" d="M 357.5,428.5 C 381.167,428.5 404.833,428.5 428.5,428.5C 452.5,428.5 476.5,428.5 500.5,428.5C 500.5,476.167 500.5,523.833 500.5,571.5C 476.5,571.5 452.5,571.5 428.5,571.5C 404.833,571.5 381.167,571.5 357.5,571.5C 357.5,523.833 357.5,476.167 357.5,428.5 Z"/></g>
<g><path style="opacity:1" fill="#020407" d="M 500.5,428.5 C 524.167,428.5 547.833,428.5 571.5,428.5C 571.5,476.167 571.5,523.833 571.5,571.5C 547.833,571.5 524.167,571.5 500.5,571.5C 500.5,523.833 500.5,476.167 500.5,428.5 Z"/></g>
<g><path style="opacity:1" fill="#020811" d="M 571.5,428.5 C 595.5,428.5 619.5,428.5 643.5,428.5C 643.5,476.167 643.5,523.833 643.5,571.5C 619.5,571.5 595.5,571.5 571.5,571.5C 571.5,523.833 571.5,476.167 571.5,428.5 Z"/></g>
<g><path style="opacity:0.749" fill="#492590" d="M 643.5,428.5 C 667.167,428.5 690.833,428.5 714.5,428.5C 714.5,476.167 714.5,523.833 714.5,571.5C 690.833,571.5 667.167,571.5 643.5,571.5C 643.5,523.833 643.5,476.167 643.5,428.5 Z"/></g>
<g><path style="opacity:0.749" fill="#ae5eee" d="M 714.5,428.5 C 762.167,428.5 809.833,428.5 857.5,428.5C 857.5,476.167 857.5,523.833 857.5,571.5C 809.833,571.5 762.167,571.5 714.5,571.5C 714.5,523.833 714.5,476.167 714.5,428.5 Z"/></g>
<g><path style="opacity:0.749" fill="#492590" d="M 857.5,428.5 C 904.833,428.5 952.167,428.5 999.5,428.5C 999.5,523.5 999.5,618.5 999.5,713.5C 904.5,713.5 809.5,713.5 714.5,713.5C 714.5,666.167 714.5,618.833 714.5,571.5C 762.167,571.5 809.833,571.5 857.5,571.5C 857.5,523.833 857.5,476.167 857.5,428.5 Z"/></g>
<g><path style="opacity:1" fill="#061a21" d="M -0.5,571.5 C 23.5,571.5 47.5,571.5 71.5,571.5C 71.5,618.833 71.5,666.167 71.5,713.5C 47.5,713.5 23.5,713.5 -0.5,713.5C -0.5,666.167 -0.5,618.833 -0.5,571.5 Z"/></g>
<g><path style="opacity:1" fill="#112420" d="M 71.5,571.5 C 95.1667,571.5 118.833,571.5 142.5,571.5C 142.5,618.833 142.5,666.167 142.5,713.5C 118.833,713.5 95.1667,713.5 71.5,713.5C 71.5,666.167 71.5,618.833 71.5,571.5 Z"/></g>
<g><path style="opacity:1" fill="#010305" d="M 142.5,571.5 C 166.5,571.5 190.5,571.5 214.5,571.5C 238.167,571.5 261.833,571.5 285.5,571.5C 285.5,618.833 285.5,666.167 285.5,713.5C 237.833,713.5 190.167,713.5 142.5,713.5C 142.5,666.167 142.5,618.833 142.5,571.5 Z"/></g>
<g><path style="opacity:1" fill="#020811" d="M 285.5,571.5 C 309.5,571.5 333.5,571.5 357.5,571.5C 381.167,571.5 404.833,571.5 428.5,571.5C 428.5,618.833 428.5,666.167 428.5,713.5C 380.833,713.5 333.167,713.5 285.5,713.5C 285.5,666.167 285.5,618.833 285.5,571.5 Z"/></g>
<g><path style="opacity:1" fill="#08232d" d="M 428.5,571.5 C 452.5,571.5 476.5,571.5 500.5,571.5C 524.167,571.5 547.833,571.5 571.5,571.5C 595.5,571.5 619.5,571.5 643.5,571.5C 643.5,618.833 643.5,666.167 643.5,713.5C 571.833,713.5 500.167,713.5 428.5,713.5C 428.5,666.167 428.5,618.833 428.5,571.5 Z"/></g>
<g><path style="opacity:0.749" fill="#9748e0" d="M 643.5,571.5 C 667.167,571.5 690.833,571.5 714.5,571.5C 714.5,618.833 714.5,666.167 714.5,713.5C 690.833,713.5 667.167,713.5 643.5,713.5C 643.5,666.167 643.5,618.833 643.5,571.5 Z"/></g>
</svg>
