<?xml version="1.0" encoding="UTF-8"?>
<!DOCTYPE svg PUBLIC "-//W3C//DTD SVG 1.1//EN" "http://www.w3.org/Graphics/SVG/1.1/DTD/svg11.dtd">
<svg xmlns="http://www.w3.org/2000/svg" version="1.1" width="1000px" height="954px" style="shape-rendering:geometricPrecision; text-rendering:geometricPrecision; image-rendering:optimizeQuality; fill-rule:evenodd; clip-rule:evenodd" xmlns:xlink="http://www.w3.org/1999/xlink">
<g><path style="opacity:1" fill="#757675" d="M 363.5,-0.5 C 408.833,-0.5 454.167,-0.5 499.5,-0.5C 499.5,14.5 499.5,29.5 499.5,44.5C 484.5,44.5 469.5,44.5 454.5,44.5C 454.5,59.8333 454.5,75.1667 454.5,90.5C 424.167,90.5 393.833,90.5 363.5,90.5C 363.5,75.1667 363.5,59.8333 363.5,44.5C 363.5,29.5 363.5,14.5 363.5,-0.5 Z"/></g>
<g><path style="opacity:1" fill="#a4a5a4" d="M 499.5,-0.5 C 529.833,-0.5 560.167,-0.5 590.5,-0.5C 590.5,14.5 590.5,29.5 590.5,44.5C 575.167,44.5 559.833,44.5 544.5,44.5C 529.5,44.5 514.5,44.5 499.5,44.5C 499.5,29.5 499.5,14.5 499.5,-0.5 Z"/></g>
<g><path style="opacity:1" fill="#1c1a13" d="M -0.5,44.5 C 120.833,44.5 242.167,44.5 363.5,44.5C 363.5,59.8333 363.5,75.1667 363.5,90.5C 393.833,90.5 424.167,90.5 454.5,90.5C 454.5,105.5 454.5,120.5 454.5,135.5C 393.833,135.5 333.167,135.5 272.5,135.5C 272.5,211.167 272.5,286.833 272.5,362.5C 272.5,438.5 272.5,514.5 272.5,590.5C 302.833,590.5 333.167,590.5 363.5,590.5C 393.833,590.5 424.167,590.5 454.5,590.5C 454.5,711.5 454.5,832.5 454.5,953.5C 363.5,953.5 272.5,953.5 181.5,953.5C 181.5,832.5 181.5,711.5 181.5,590.5C 120.833,590.5 60.1667,590.5 -0.5,590.5C -0.5,408.5 -0.5,226.5 -0.5,44.5 Z"/></g>
<g><path style="opacity:1" fill="#2b724b" d="M 499.5,44.5 C 514.5,44.5 529.5,44.5 544.5,44.5C 544.5,120.5 544.5,196.5 544.5,272.5C 514.5,272.5 484.5,272.5 454.5,272.5C 454.5,226.833 454.5,181.167 454.5,135.5C 454.5,120.5 454.5,105.5 454.5,90.5C 454.5,75.1667 454.5,59.8333 454.5,44.5C 469.5,44.5 484.5,44.5 499.5,44.5 Z"/></g>
<g><path style="opacity:1" fill="#399745" d="M 544.5,44.5 C 559.833,44.5 575.167,44.5 590.5,44.5C 651.167,44.5 711.833,44.5 772.5,44.5C 772.5,120.5 772.5,196.5 772.5,272.5C 757.167,272.5 741.833,272.5 726.5,272.5C 696.167,272.5 665.833,272.5 635.5,272.5C 605.167,272.5 574.833,272.5 544.5,272.5C 544.5,196.5 544.5,120.5 544.5,44.5 Z"/></g>
<g><path style="opacity:1" fill="#855106" d="M 44.5,135.5 C 74.8333,135.5 105.167,135.5 135.5,135.5C 135.5,256.833 135.5,378.167 135.5,499.5C 105.167,499.5 74.8333,499.5 44.5,499.5C 44.5,378.167 44.5,256.833 44.5,135.5 Z"/></g>
<g><path style="opacity:1" fill="#683f04" d="M 454.5,135.5 C 454.5,181.167 454.5,226.833 454.5,272.5C 484.5,272.5 514.5,272.5 544.5,272.5C 574.833,272.5 605.167,272.5 635.5,272.5C 635.5,348.167 635.5,423.833 635.5,499.5C 620.5,499.5 605.5,499.5 590.5,499.5C 590.5,453.833 590.5,408.167 590.5,362.5C 514.833,362.5 439.167,362.5 363.5,362.5C 333.167,362.5 302.833,362.5 272.5,362.5C 272.5,286.833 272.5,211.167 272.5,135.5C 333.167,135.5 393.833,135.5 454.5,135.5 Z"/></g>
<g><path style="opacity:1" fill="#1c1a13" d="M 635.5,272.5 C 665.833,272.5 696.167,272.5 726.5,272.5C 726.5,302.5 726.5,332.5 726.5,362.5C 711.5,362.5 696.5,362.5 681.5,362.5C 681.5,438.5 681.5,514.5 681.5,590.5C 651.167,590.5 620.833,590.5 590.5,590.5C 590.5,560.167 590.5,529.833 590.5,499.5C 605.5,499.5 620.5,499.5 635.5,499.5C 635.5,423.833 635.5,348.167 635.5,272.5 Z"/></g>
<g><path style="opacity:1" fill="#98263c" d="M 272.5,362.5 C 302.833,362.5 333.167,362.5 363.5,362.5C 363.5,438.5 363.5,514.5 363.5,590.5C 333.167,590.5 302.833,590.5 272.5,590.5C 272.5,514.5 272.5,438.5 272.5,362.5 Z"/></g>
<g><path style="opacity:1" fill="#c93c31" d="M 363.5,362.5 C 439.167,362.5 514.833,362.5 590.5,362.5C 590.5,408.167 590.5,453.833 590.5,499.5C 590.5,529.833 590.5,560.167 590.5,590.5C 545.167,590.5 499.833,590.5 454.5,590.5C 424.167,590.5 393.833,590.5 363.5,590.5C 363.5,514.5 363.5,438.5 363.5,362.5 Z"/></g>
<g><path style="opacity:1" fill="#7a4474" d="M 726.5,362.5 C 741.833,362.5 757.167,362.5 772.5,362.5C 772.5,438.5 772.5,514.5 772.5,590.5C 742.167,590.5 711.833,590.5 681.5,590.5C 681.5,514.5 681.5,438.5 681.5,362.5C 696.5,362.5 711.5,362.5 726.5,362.5 Z"/></g>
<g><path style="opacity:1" fill="#9159a3" d="M 772.5,362.5 C 848.167,362.5 923.833,362.5 999.5,362.5C 999.5,438.5 999.5,514.5 999.5,590.5C 923.833,590.5 848.167,590.5 772.5,590.5C 772.5,514.5 772.5,438.5 772.5,362.5 Z"/></g>
<g><path style="opacity:1" fill="#443c2e" d="M 454.5,590.5 C 499.833,590.5 545.167,590.5 590.5,590.5C 620.833,590.5 651.167,590.5 681.5,590.5C 711.833,590.5 742.167,590.5 772.5,590.5C 848.167,590.5 923.833,590.5 999.5,590.5C 999.5,711.5 999.5,832.5 999.5,953.5C 817.833,953.5 636.167,953.5 454.5,953.5C 454.5,832.5 454.5,711.5 454.5,590.5 Z"/></g>
<g><path style="opacity:1" fill="#855106" d="M 226.5,680.5 C 287.167,680.5 347.833,680.5 408.5,680.5C 408.5,741.167 408.5,801.833 408.5,862.5C 347.833,862.5 287.167,862.5 226.5,862.5C 226.5,801.833 226.5,741.167 226.5,680.5 Z"/></g>
<g><path style="opacity:1" fill="#a66e1e" d="M 544.5,680.5 C 665.833,680.5 787.167,680.5 908.5,680.5C 908.5,741.167 908.5,801.833 908.5,862.5C 787.167,862.5 665.833,862.5 544.5,862.5C 544.5,801.833 544.5,741.167 544.5,680.5 Z"/></g>
</svg>
