<?xml version="1.0" encoding="UTF-8"?>
<!DOCTYPE svg PUBLIC "-//W3C//DTD SVG 1.1//EN" "http://www.w3.org/Graphics/SVG/1.1/DTD/svg11.dtd">
<svg xmlns="http://www.w3.org/2000/svg" version="1.1" width="1000px" height="1000px" style="shape-rendering:geometricPrecision; text-rendering:geometricPrecision; image-rendering:optimizeQuality; fill-rule:evenodd; clip-rule:evenodd" xmlns:xlink="http://www.w3.org/1999/xlink">
<g><path style="opacity:1" fill="#757675" d="M 500.5,45.5 C 500.5,75.8333 500.5,106.167 500.5,136.5C 454.833,136.5 409.167,136.5 363.5,136.5C 363.5,121.167 363.5,105.833 363.5,90.5C 363.5,75.5 363.5,60.5 363.5,45.5C 409.167,45.5 454.833,45.5 500.5,45.5 Z"/></g>
<g><path style="opacity:1" fill="#a4a5a4" d="M 500.5,45.5 C 530.833,45.5 561.167,45.5 591.5,45.5C 591.5,60.5 591.5,75.5 591.5,90.5C 591.5,105.833 591.5,121.167 591.5,136.5C 561.167,136.5 530.833,136.5 500.5,136.5C 500.5,106.167 500.5,75.8333 500.5,45.5 Z"/></g>
<g><path style="opacity:1" fill="#2d75b2" d="M 818.5,45.5 C 818.5,106.167 818.5,166.833 818.5,227.5C 788.167,227.5 757.833,227.5 727.5,227.5C 727.5,257.833 727.5,288.167 727.5,318.5C 697.167,318.5 666.833,318.5 636.5,318.5C 636.5,348.833 636.5,379.167 636.5,409.5C 606.167,409.5 575.833,409.5 545.5,409.5C 545.5,379.167 545.5,348.833 545.5,318.5C 545.5,288.167 545.5,257.833 545.5,227.5C 575.833,227.5 606.167,227.5 636.5,227.5C 636.5,212.167 636.5,196.833 636.5,181.5C 636.5,166.5 636.5,151.5 636.5,136.5C 666.833,136.5 697.167,136.5 727.5,136.5C 727.5,121.167 727.5,105.833 727.5,90.5C 727.5,75.5 727.5,60.5 727.5,45.5C 757.833,45.5 788.167,45.5 818.5,45.5 Z"/></g>
<g><path style="opacity:1" fill="#46a5f4" d="M 818.5,45.5 C 848.833,45.5 879.167,45.5 909.5,45.5C 909.5,75.8333 909.5,106.167 909.5,136.5C 939.5,136.5 969.5,136.5 999.5,136.5C 999.5,303.167 999.5,469.833 999.5,636.5C 939.167,636.5 878.833,636.5 818.5,636.5C 818.5,621.5 818.5,606.5 818.5,591.5C 818.5,470.167 818.5,348.833 818.5,227.5C 818.5,166.833 818.5,106.167 818.5,45.5 Z"/></g>
<g><path style="opacity:1" fill="#1c1a13" d="M -0.5,90.5 C 120.833,90.5 242.167,90.5 363.5,90.5C 363.5,105.833 363.5,121.167 363.5,136.5C 409.167,136.5 454.833,136.5 500.5,136.5C 530.833,136.5 561.167,136.5 591.5,136.5C 591.5,121.167 591.5,105.833 591.5,90.5C 636.833,90.5 682.167,90.5 727.5,90.5C 727.5,105.833 727.5,121.167 727.5,136.5C 697.167,136.5 666.833,136.5 636.5,136.5C 636.5,151.5 636.5,166.5 636.5,181.5C 515.167,181.5 393.833,181.5 272.5,181.5C 272.5,196.833 272.5,212.167 272.5,227.5C 272.5,257.833 272.5,288.167 272.5,318.5C 272.5,379.167 272.5,439.833 272.5,500.5C 272.5,530.833 272.5,561.167 272.5,591.5C 333.167,591.5 393.833,591.5 454.5,591.5C 454.5,576.167 454.5,560.833 454.5,545.5C 484.833,545.5 515.167,545.5 545.5,545.5C 545.5,560.833 545.5,576.167 545.5,591.5C 575.833,591.5 606.167,591.5 636.5,591.5C 636.5,606.5 636.5,621.5 636.5,636.5C 575.833,636.5 515.167,636.5 454.5,636.5C 454.5,757.5 454.5,878.5 454.5,999.5C 363.5,999.5 272.5,999.5 181.5,999.5C 181.5,878.5 181.5,757.5 181.5,636.5C 120.833,636.5 60.1667,636.5 -0.5,636.5C -0.5,454.5 -0.5,272.5 -0.5,90.5 Z"/></g>
<g><path style="opacity:1" fill="#855106" d="M 45.5,181.5 C 75.8333,181.5 106.167,181.5 136.5,181.5C 136.5,302.833 136.5,424.167 136.5,545.5C 106.167,545.5 75.8333,545.5 45.5,545.5C 45.5,424.167 45.5,302.833 45.5,181.5 Z"/></g>
<g><path style="opacity:1" fill="#683f04" d="M 636.5,181.5 C 636.5,196.833 636.5,212.167 636.5,227.5C 606.167,227.5 575.833,227.5 545.5,227.5C 545.5,257.833 545.5,288.167 545.5,318.5C 515.167,318.5 484.833,318.5 454.5,318.5C 454.5,288.167 454.5,257.833 454.5,227.5C 393.833,227.5 333.167,227.5 272.5,227.5C 272.5,212.167 272.5,196.833 272.5,181.5C 393.833,181.5 515.167,181.5 636.5,181.5 Z"/></g>
<g><path style="opacity:1" fill="#2e86d4" d="M 272.5,227.5 C 333.167,227.5 393.833,227.5 454.5,227.5C 454.5,257.833 454.5,288.167 454.5,318.5C 484.833,318.5 515.167,318.5 545.5,318.5C 545.5,348.833 545.5,379.167 545.5,409.5C 575.833,409.5 606.167,409.5 636.5,409.5C 636.5,439.833 636.5,470.167 636.5,500.5C 666.833,500.5 697.167,500.5 727.5,500.5C 727.5,530.833 727.5,561.167 727.5,591.5C 757.833,591.5 788.167,591.5 818.5,591.5C 818.5,606.5 818.5,621.5 818.5,636.5C 757.833,636.5 697.167,636.5 636.5,636.5C 636.5,621.5 636.5,606.5 636.5,591.5C 606.167,591.5 575.833,591.5 545.5,591.5C 545.5,576.167 545.5,560.833 545.5,545.5C 545.5,530.5 545.5,515.5 545.5,500.5C 515.167,500.5 484.833,500.5 454.5,500.5C 454.5,470.167 454.5,439.833 454.5,409.5C 424.167,409.5 393.833,409.5 363.5,409.5C 363.5,379.167 363.5,348.833 363.5,318.5C 333.167,318.5 302.833,318.5 272.5,318.5C 272.5,288.167 272.5,257.833 272.5,227.5 Z"/></g>
<g><path style="opacity:1" fill="#683f04" d="M 272.5,318.5 C 302.833,318.5 333.167,318.5 363.5,318.5C 363.5,348.833 363.5,379.167 363.5,409.5C 363.5,439.833 363.5,470.167 363.5,500.5C 333.167,500.5 302.833,500.5 272.5,500.5C 272.5,439.833 272.5,379.167 272.5,318.5 Z"/></g>
<g><path style="opacity:1" fill="#1c1a13" d="M 727.5,318.5 C 727.5,379.167 727.5,439.833 727.5,500.5C 697.167,500.5 666.833,500.5 636.5,500.5C 636.5,470.167 636.5,439.833 636.5,409.5C 636.5,379.167 636.5,348.833 636.5,318.5C 666.833,318.5 697.167,318.5 727.5,318.5 Z"/></g>
<g><path style="opacity:1" fill="#2d75b2" d="M 363.5,409.5 C 393.833,409.5 424.167,409.5 454.5,409.5C 454.5,439.833 454.5,470.167 454.5,500.5C 454.5,515.5 454.5,530.5 454.5,545.5C 454.5,560.833 454.5,576.167 454.5,591.5C 393.833,591.5 333.167,591.5 272.5,591.5C 272.5,561.167 272.5,530.833 272.5,500.5C 302.833,500.5 333.167,500.5 363.5,500.5C 363.5,470.167 363.5,439.833 363.5,409.5 Z"/></g>
<g><path style="opacity:1" fill="#683f04" d="M 454.5,500.5 C 484.833,500.5 515.167,500.5 545.5,500.5C 545.5,515.5 545.5,530.5 545.5,545.5C 515.167,545.5 484.833,545.5 454.5,545.5C 454.5,530.5 454.5,515.5 454.5,500.5 Z"/></g>
<g><path style="opacity:1" fill="#443c2e" d="M 636.5,636.5 C 697.167,636.5 757.833,636.5 818.5,636.5C 878.833,636.5 939.167,636.5 999.5,636.5C 999.5,757.5 999.5,878.5 999.5,999.5C 817.833,999.5 636.167,999.5 454.5,999.5C 454.5,878.5 454.5,757.5 454.5,636.5C 515.167,636.5 575.833,636.5 636.5,636.5 Z"/></g>
<g><path style="opacity:1" fill="#855106" d="M 227.5,727.5 C 288.167,727.5 348.833,727.5 409.5,727.5C 409.5,788.167 409.5,848.833 409.5,909.5C 348.833,909.5 288.167,909.5 227.5,909.5C 227.5,848.833 227.5,788.167 227.5,727.5 Z"/></g>
<g><path style="opacity:1" fill="#a66e1e" d="M 545.5,727.5 C 666.833,727.5 788.167,727.5 909.5,727.5C 909.5,788.167 909.5,848.833 909.5,909.5C 788.167,909.5 666.833,909.5 545.5,909.5C 545.5,848.833 545.5,788.167 545.5,727.5 Z"/></g>
</svg>
