<?xml version="1.0" encoding="UTF-8"?>
<!DOCTYPE svg PUBLIC "-//W3C//DTD SVG 1.1//EN" "http://www.w3.org/Graphics/SVG/1.1/DTD/svg11.dtd">
<svg xmlns="http://www.w3.org/2000/svg" version="1.1" width="1000px" height="954px" style="shape-rendering:geometricPrecision; text-rendering:geometricPrecision; image-rendering:optimizeQuality; fill-rule:evenodd; clip-rule:evenodd" xmlns:xlink="http://www.w3.org/1999/xlink">
<g><path style="opacity:1" fill="#757675" d="M 363.5,-0.5 C 393.833,-0.5 424.167,-0.5 454.5,-0.5C 454.5,29.8333 454.5,60.1667 454.5,90.5C 424.167,90.5 393.833,90.5 363.5,90.5C 363.5,75.1667 363.5,59.8333 363.5,44.5C 363.5,29.5 363.5,14.5 363.5,-0.5 Z"/></g>
<g><path style="opacity:1" fill="#aa6251" d="M 454.5,-0.5 C 484.5,-0.5 514.5,-0.5 544.5,-0.5C 544.5,29.8333 544.5,60.1667 544.5,90.5C 514.5,90.5 484.5,90.5 454.5,90.5C 454.5,60.1667 454.5,29.8333 454.5,-0.5 Z"/></g>
<g><path style="opacity:1" fill="#e2826b" d="M 544.5,-0.5 C 574.833,-0.5 605.167,-0.5 635.5,-0.5C 635.5,29.8333 635.5,60.1667 635.5,90.5C 605.167,90.5 574.833,90.5 544.5,90.5C 544.5,60.1667 544.5,29.8333 544.5,-0.5 Z"/></g>
<g><path style="opacity:1" fill="#be6f53" d="M 635.5,-0.5 C 665.833,-0.5 696.167,-0.5 726.5,-0.5C 726.5,60.1667 726.5,120.833 726.5,181.5C 711.5,181.5 696.5,181.5 681.5,181.5C 635.833,181.5 590.167,181.5 544.5,181.5C 544.5,151.167 544.5,120.833 544.5,90.5C 574.833,90.5 605.167,90.5 635.5,90.5C 635.5,60.1667 635.5,29.8333 635.5,-0.5 Z"/></g>
<g><path style="opacity:1" fill="#1c1a13" d="M -0.5,44.5 C 120.833,44.5 242.167,44.5 363.5,44.5C 363.5,59.8333 363.5,75.1667 363.5,90.5C 393.833,90.5 424.167,90.5 454.5,90.5C 454.5,105.5 454.5,120.5 454.5,135.5C 393.833,135.5 333.167,135.5 272.5,135.5C 272.5,181.167 272.5,226.833 272.5,272.5C 242.167,272.5 211.833,272.5 181.5,272.5C 181.5,378.5 181.5,484.5 181.5,590.5C 120.833,590.5 60.1667,590.5 -0.5,590.5C -0.5,408.5 -0.5,226.5 -0.5,44.5 Z"/></g>
<g><path style="opacity:1" fill="#a15d44" d="M 454.5,90.5 C 484.5,90.5 514.5,90.5 544.5,90.5C 544.5,120.833 544.5,151.167 544.5,181.5C 514.5,181.5 484.5,181.5 454.5,181.5C 454.5,166.167 454.5,150.833 454.5,135.5C 454.5,120.5 454.5,105.5 454.5,90.5 Z"/></g>
<g><path style="opacity:1" fill="#855106" d="M 44.5,135.5 C 74.8333,135.5 105.167,135.5 135.5,135.5C 135.5,256.833 135.5,378.167 135.5,499.5C 105.167,499.5 74.8333,499.5 44.5,499.5C 44.5,378.167 44.5,256.833 44.5,135.5 Z"/></g>
<g><path style="opacity:1" fill="#683f04" d="M 454.5,135.5 C 454.5,150.833 454.5,166.167 454.5,181.5C 484.5,181.5 514.5,181.5 544.5,181.5C 544.5,211.833 544.5,242.167 544.5,272.5C 514.5,272.5 484.5,272.5 454.5,272.5C 393.833,272.5 333.167,272.5 272.5,272.5C 272.5,226.833 272.5,181.167 272.5,135.5C 333.167,135.5 393.833,135.5 454.5,135.5 Z"/></g>
<g><path style="opacity:1" fill="#a15d44" d="M 544.5,181.5 C 590.167,181.5 635.833,181.5 681.5,181.5C 681.5,196.5 681.5,211.5 681.5,226.5C 651.167,226.5 620.833,226.5 590.5,226.5C 590.5,241.833 590.5,257.167 590.5,272.5C 575.167,272.5 559.833,272.5 544.5,272.5C 544.5,242.167 544.5,211.833 544.5,181.5 Z"/></g>
<g><path style="opacity:1" fill="#1c1a13" d="M 681.5,181.5 C 696.5,181.5 711.5,181.5 726.5,181.5C 726.5,211.833 726.5,242.167 726.5,272.5C 711.5,272.5 696.5,272.5 681.5,272.5C 681.5,257.167 681.5,241.833 681.5,226.5C 681.5,211.5 681.5,196.5 681.5,181.5 Z"/></g>
<g><path style="opacity:1" fill="#be6f53" d="M 681.5,226.5 C 681.5,241.833 681.5,257.167 681.5,272.5C 651.167,272.5 620.833,272.5 590.5,272.5C 590.5,257.167 590.5,241.833 590.5,226.5C 620.833,226.5 651.167,226.5 681.5,226.5 Z"/></g>
<g><path style="opacity:1" fill="#aa6251" d="M 272.5,272.5 C 333.167,272.5 393.833,272.5 454.5,272.5C 454.5,302.5 454.5,332.5 454.5,362.5C 454.5,423.167 454.5,483.833 454.5,544.5C 454.5,559.833 454.5,575.167 454.5,590.5C 439.167,590.5 423.833,590.5 408.5,590.5C 408.5,514.5 408.5,438.5 408.5,362.5C 347.833,362.5 287.167,362.5 226.5,362.5C 226.5,438.5 226.5,514.5 226.5,590.5C 211.5,590.5 196.5,590.5 181.5,590.5C 181.5,484.5 181.5,378.5 181.5,272.5C 211.833,272.5 242.167,272.5 272.5,272.5 Z"/></g>
<g><path style="opacity:1" fill="#e2826b" d="M 454.5,272.5 C 484.5,272.5 514.5,272.5 544.5,272.5C 559.833,272.5 575.167,272.5 590.5,272.5C 620.833,272.5 651.167,272.5 681.5,272.5C 696.5,272.5 711.5,272.5 726.5,272.5C 817.5,272.5 908.5,272.5 999.5,272.5C 999.5,302.5 999.5,332.5 999.5,362.5C 938.833,362.5 878.167,362.5 817.5,362.5C 756.833,362.5 696.167,362.5 635.5,362.5C 575.167,362.5 514.833,362.5 454.5,362.5C 454.5,332.5 454.5,302.5 454.5,272.5 Z"/></g>
<g><path style="opacity:1" fill="#8f543f" d="M 408.5,590.5 C 347.833,590.5 287.167,590.5 226.5,590.5C 226.5,514.5 226.5,438.5 226.5,362.5C 287.167,362.5 347.833,362.5 408.5,362.5C 408.5,438.5 408.5,514.5 408.5,590.5 Z"/></g>
<g><path style="opacity:1" fill="#89472f" d="M 454.5,362.5 C 514.833,362.5 575.167,362.5 635.5,362.5C 635.5,392.833 635.5,423.167 635.5,453.5C 605.167,453.5 574.833,453.5 544.5,453.5C 544.5,483.833 544.5,514.167 544.5,544.5C 514.5,544.5 484.5,544.5 454.5,544.5C 454.5,483.833 454.5,423.167 454.5,362.5 Z"/></g>
<g><path style="opacity:1" fill="#be6f53" d="M 635.5,362.5 C 696.167,362.5 756.833,362.5 817.5,362.5C 817.5,392.833 817.5,423.167 817.5,453.5C 832.833,453.5 848.167,453.5 863.5,453.5C 863.5,483.833 863.5,514.167 863.5,544.5C 878.5,544.5 893.5,544.5 908.5,544.5C 908.5,559.833 908.5,575.167 908.5,590.5C 893.5,590.5 878.5,590.5 863.5,590.5C 863.5,620.5 863.5,650.5 863.5,680.5C 817.833,680.5 772.167,680.5 726.5,680.5C 726.5,604.833 726.5,529.167 726.5,453.5C 696.167,453.5 665.833,453.5 635.5,453.5C 635.5,423.167 635.5,392.833 635.5,362.5 Z"/></g>
<g><path style="opacity:1" fill="#89472f" d="M 817.5,362.5 C 878.167,362.5 938.833,362.5 999.5,362.5C 999.5,423.167 999.5,483.833 999.5,544.5C 969.167,544.5 938.833,544.5 908.5,544.5C 908.5,514.167 908.5,483.833 908.5,453.5C 893.5,453.5 878.5,453.5 863.5,453.5C 848.167,453.5 832.833,453.5 817.5,453.5C 817.5,423.167 817.5,392.833 817.5,362.5 Z"/></g>
<g><path style="opacity:1" fill="#fed173" d="M 635.5,453.5 C 635.5,483.833 635.5,514.167 635.5,544.5C 605.167,544.5 574.833,544.5 544.5,544.5C 544.5,514.167 544.5,483.833 544.5,453.5C 574.833,453.5 605.167,453.5 635.5,453.5 Z"/></g>
<g><path style="opacity:1" fill="#8f543f" d="M 635.5,453.5 C 665.833,453.5 696.167,453.5 726.5,453.5C 726.5,529.167 726.5,604.833 726.5,680.5C 696.167,680.5 665.833,680.5 635.5,680.5C 635.5,650.5 635.5,620.5 635.5,590.5C 635.5,575.167 635.5,559.833 635.5,544.5C 635.5,514.167 635.5,483.833 635.5,453.5 Z"/></g>
<g><path style="opacity:1" fill="#fed173" d="M 863.5,453.5 C 878.5,453.5 893.5,453.5 908.5,453.5C 908.5,483.833 908.5,514.167 908.5,544.5C 893.5,544.5 878.5,544.5 863.5,544.5C 863.5,514.167 863.5,483.833 863.5,453.5 Z"/></g>
<g><path style="opacity:1" fill="#e2826b" d="M 454.5,544.5 C 484.5,544.5 514.5,544.5 544.5,544.5C 544.5,559.833 544.5,575.167 544.5,590.5C 514.5,590.5 484.5,590.5 454.5,590.5C 454.5,575.167 454.5,559.833 454.5,544.5 Z"/></g>
<g><path style="opacity:1" fill="#be6f53" d="M 544.5,544.5 C 574.833,544.5 605.167,544.5 635.5,544.5C 635.5,559.833 635.5,575.167 635.5,590.5C 605.167,590.5 574.833,590.5 544.5,590.5C 544.5,575.167 544.5,559.833 544.5,544.5 Z"/></g>
<g><path style="opacity:1" fill="#e2826b" d="M 908.5,544.5 C 938.833,544.5 969.167,544.5 999.5,544.5C 999.5,559.833 999.5,575.167 999.5,590.5C 969.167,590.5 938.833,590.5 908.5,590.5C 908.5,575.167 908.5,559.833 908.5,544.5 Z"/></g>
<g><path style="opacity:1" fill="#1c1a13" d="M 181.5,590.5 C 196.5,590.5 211.5,590.5 226.5,590.5C 287.167,590.5 347.833,590.5 408.5,590.5C 423.833,590.5 439.167,590.5 454.5,590.5C 454.5,711.5 454.5,832.5 454.5,953.5C 363.5,953.5 272.5,953.5 181.5,953.5C 181.5,832.5 181.5,711.5 181.5,590.5 Z"/></g>
<g><path style="opacity:1" fill="#443c2e" d="M 454.5,590.5 C 484.5,590.5 514.5,590.5 544.5,590.5C 574.833,590.5 605.167,590.5 635.5,590.5C 635.5,620.5 635.5,650.5 635.5,680.5C 605.167,680.5 574.833,680.5 544.5,680.5C 544.5,741.167 544.5,801.833 544.5,862.5C 665.833,862.5 787.167,862.5 908.5,862.5C 908.5,801.833 908.5,741.167 908.5,680.5C 893.5,680.5 878.5,680.5 863.5,680.5C 863.5,650.5 863.5,620.5 863.5,590.5C 878.5,590.5 893.5,590.5 908.5,590.5C 938.833,590.5 969.167,590.5 999.5,590.5C 999.5,711.5 999.5,832.5 999.5,953.5C 817.833,953.5 636.167,953.5 454.5,953.5C 454.5,832.5 454.5,711.5 454.5,590.5 Z"/></g>
<g><path style="opacity:1" fill="#855106" d="M 226.5,680.5 C 287.167,680.5 347.833,680.5 408.5,680.5C 408.5,741.167 408.5,801.833 408.5,862.5C 347.833,862.5 287.167,862.5 226.5,862.5C 226.5,801.833 226.5,741.167 226.5,680.5 Z"/></g>
<g><path style="opacity:1" fill="#a66e1e" d="M 635.5,680.5 C 665.833,680.5 696.167,680.5 726.5,680.5C 772.167,680.5 817.833,680.5 863.5,680.5C 878.5,680.5 893.5,680.5 908.5,680.5C 908.5,741.167 908.5,801.833 908.5,862.5C 787.167,862.5 665.833,862.5 544.5,862.5C 544.5,801.833 544.5,741.167 544.5,680.5C 574.833,680.5 605.167,680.5 635.5,680.5 Z"/></g>
</svg>
