<?xml version="1.0" encoding="UTF-8"?>
<!DOCTYPE svg PUBLIC "-//W3C//DTD SVG 1.1//EN" "http://www.w3.org/Graphics/SVG/1.1/DTD/svg11.dtd">
<svg xmlns="http://www.w3.org/2000/svg" version="1.1" width="1000px" height="666px" style="shape-rendering:geometricPrecision; text-rendering:geometricPrecision; image-rendering:optimizeQuality; fill-rule:evenodd; clip-rule:evenodd" xmlns:xlink="http://www.w3.org/1999/xlink">
<g><path style="opacity:1" fill="#b57772" d="M -0.5,0.5 C 110.833,0.5 222.167,0.5 333.5,0.5C 333.5,74.5 333.5,148.5 333.5,222.5C 333.5,259.5 333.5,296.5 333.5,333.5C 333.5,444.167 333.5,554.833 333.5,665.5C 222.167,665.5 110.833,665.5 -0.5,665.5C -0.5,443.833 -0.5,222.167 -0.5,0.5 Z"/></g>
<g><path style="opacity:1" fill="#f09e97" d="M 333.5,0.5 C 444.5,0.5 555.5,0.5 666.5,0.5C 666.5,111.5 666.5,222.5 666.5,333.5C 629.5,333.5 592.5,333.5 555.5,333.5C 555.5,296.5 555.5,259.5 555.5,222.5C 518.5,222.5 481.5,222.5 444.5,222.5C 407.5,222.5 370.5,222.5 333.5,222.5C 333.5,148.5 333.5,74.5 333.5,0.5 Z"/></g>
<g><path style="opacity:1" fill="#4ccb3c" d="M 666.5,0.5 C 777.5,0.5 888.5,0.5 999.5,0.5C 999.5,37.5 999.5,74.5 999.5,111.5C 981.167,111.5 962.833,111.5 944.5,111.5C 888.833,111.5 833.167,111.5 777.5,111.5C 777.5,185.5 777.5,259.5 777.5,333.5C 759.167,333.5 740.833,333.5 722.5,333.5C 703.833,333.5 685.167,333.5 666.5,333.5C 666.5,222.5 666.5,111.5 666.5,0.5 Z"/></g>
<g><path style="opacity:1" fill="#000000" d="M 944.5,111.5 C 944.5,185.5 944.5,259.5 944.5,333.5C 888.833,333.5 833.167,333.5 777.5,333.5C 777.5,259.5 777.5,185.5 777.5,111.5C 833.167,111.5 888.833,111.5 944.5,111.5 Z"/></g>
<g><path style="opacity:1" fill="#1e4e17" d="M 944.5,111.5 C 962.833,111.5 981.167,111.5 999.5,111.5C 999.5,185.5 999.5,259.5 999.5,333.5C 981.167,333.5 962.833,333.5 944.5,333.5C 944.5,259.5 944.5,185.5 944.5,111.5 Z"/></g>
<g><path style="opacity:1" fill="#000000" d="M 333.5,222.5 C 370.5,222.5 407.5,222.5 444.5,222.5C 444.5,259.5 444.5,296.5 444.5,333.5C 407.5,333.5 370.5,333.5 333.5,333.5C 333.5,296.5 333.5,259.5 333.5,222.5 Z"/></g>
<g><path style="opacity:1" fill="#fefffe" d="M 444.5,222.5 C 481.5,222.5 518.5,222.5 555.5,222.5C 555.5,259.5 555.5,296.5 555.5,333.5C 536.833,333.5 518.167,333.5 499.5,333.5C 481.167,333.5 462.833,333.5 444.5,333.5C 444.5,296.5 444.5,259.5 444.5,222.5 Z"/></g>
<g><path style="opacity:1" fill="#f09e97" d="M 333.5,333.5 C 370.5,333.5 407.5,333.5 444.5,333.5C 462.833,333.5 481.167,333.5 499.5,333.5C 499.5,407.5 499.5,481.5 499.5,555.5C 518.167,555.5 536.833,555.5 555.5,555.5C 592.5,555.5 629.5,555.5 666.5,555.5C 666.5,592.167 666.5,628.833 666.5,665.5C 555.5,665.5 444.5,665.5 333.5,665.5C 333.5,554.833 333.5,444.167 333.5,333.5 Z"/></g>
<g><path style="opacity:1" fill="#e57972" d="M 499.5,333.5 C 518.167,333.5 536.833,333.5 555.5,333.5C 555.5,351.833 555.5,370.167 555.5,388.5C 555.5,425.5 555.5,462.5 555.5,499.5C 555.5,518.167 555.5,536.833 555.5,555.5C 536.833,555.5 518.167,555.5 499.5,555.5C 499.5,481.5 499.5,407.5 499.5,333.5 Z"/></g>
<g><path style="opacity:1" fill="#f7bbb9" d="M 555.5,333.5 C 592.5,333.5 629.5,333.5 666.5,333.5C 666.5,351.833 666.5,370.167 666.5,388.5C 629.5,388.5 592.5,388.5 555.5,388.5C 555.5,370.167 555.5,351.833 555.5,333.5 Z"/></g>
<g><path style="opacity:1" fill="#000000" d="M 666.5,333.5 C 685.167,333.5 703.833,333.5 722.5,333.5C 722.5,370.5 722.5,407.5 722.5,444.5C 740.833,444.5 759.167,444.5 777.5,444.5C 796.167,444.5 814.833,444.5 833.5,444.5C 833.5,518.167 833.5,591.833 833.5,665.5C 814.833,665.5 796.167,665.5 777.5,665.5C 777.5,628.833 777.5,592.167 777.5,555.5C 740.5,555.5 703.5,555.5 666.5,555.5C 666.5,536.833 666.5,518.167 666.5,499.5C 666.5,462.5 666.5,425.5 666.5,388.5C 666.5,370.167 666.5,351.833 666.5,333.5 Z"/></g>
<g><path style="opacity:1" fill="#1e4e17" d="M 722.5,333.5 C 740.833,333.5 759.167,333.5 777.5,333.5C 777.5,370.5 777.5,407.5 777.5,444.5C 759.167,444.5 740.833,444.5 722.5,444.5C 722.5,407.5 722.5,370.5 722.5,333.5 Z"/></g>
<g><path style="opacity:1" fill="#4ccb3c" d="M 777.5,333.5 C 833.167,333.5 888.833,333.5 944.5,333.5C 962.833,333.5 981.167,333.5 999.5,333.5C 999.5,444.167 999.5,554.833 999.5,665.5C 962.5,665.5 925.5,665.5 888.5,665.5C 888.5,591.833 888.5,518.167 888.5,444.5C 870.167,444.5 851.833,444.5 833.5,444.5C 814.833,444.5 796.167,444.5 777.5,444.5C 777.5,407.5 777.5,370.5 777.5,333.5 Z"/></g>
<g><path style="opacity:1" fill="#884745" d="M 555.5,388.5 C 592.5,388.5 629.5,388.5 666.5,388.5C 666.5,425.5 666.5,462.5 666.5,499.5C 629.5,499.5 592.5,499.5 555.5,499.5C 555.5,462.5 555.5,425.5 555.5,388.5 Z"/></g>
<g><path style="opacity:1" fill="#1e4e17" d="M 833.5,444.5 C 851.833,444.5 870.167,444.5 888.5,444.5C 888.5,518.167 888.5,591.833 888.5,665.5C 870.167,665.5 851.833,665.5 833.5,665.5C 833.5,591.833 833.5,518.167 833.5,444.5 Z"/></g>
<g><path style="opacity:1" fill="#f7bbb9" d="M 555.5,499.5 C 592.5,499.5 629.5,499.5 666.5,499.5C 666.5,518.167 666.5,536.833 666.5,555.5C 629.5,555.5 592.5,555.5 555.5,555.5C 555.5,536.833 555.5,518.167 555.5,499.5 Z"/></g>
<g><path style="opacity:1" fill="#4ccb3c" d="M 666.5,555.5 C 703.5,555.5 740.5,555.5 777.5,555.5C 777.5,592.167 777.5,628.833 777.5,665.5C 740.5,665.5 703.5,665.5 666.5,665.5C 666.5,628.833 666.5,592.167 666.5,555.5 Z"/></g>
</svg>
