<?xml version="1.0" encoding="UTF-8"?>
<!DOCTYPE svg PUBLIC "-//W3C//DTD SVG 1.1//EN" "http://www.w3.org/Graphics/SVG/1.1/DTD/svg11.dtd">
<svg xmlns="http://www.w3.org/2000/svg" version="1.1" width="1000px" height="667px" style="shape-rendering:geometricPrecision; text-rendering:geometricPrecision; image-rendering:optimizeQuality; fill-rule:evenodd; clip-rule:evenodd" xmlns:xlink="http://www.w3.org/1999/xlink">
<g><path style="opacity:1" fill="#b57772" d="M -0.5,-0.5 C 110.833,-0.5 222.167,-0.5 333.5,-0.5C 333.5,73.5 333.5,147.5 333.5,221.5C 333.5,258.5 333.5,295.5 333.5,332.5C 333.5,443.833 333.5,555.167 333.5,666.5C 222.167,666.5 110.833,666.5 -0.5,666.5C -0.5,444.167 -0.5,221.833 -0.5,-0.5 Z"/></g>
<g><path style="opacity:1" fill="#f09e97" d="M 333.5,-0.5 C 444.5,-0.5 555.5,-0.5 666.5,-0.5C 666.5,110.5 666.5,221.5 666.5,332.5C 629.5,332.5 592.5,332.5 555.5,332.5C 555.5,295.5 555.5,258.5 555.5,221.5C 518.5,221.5 481.5,221.5 444.5,221.5C 407.5,221.5 370.5,221.5 333.5,221.5C 333.5,147.5 333.5,73.5 333.5,-0.5 Z"/></g>
<g><path style="opacity:1" fill="#4ccb3c" d="M 666.5,-0.5 C 777.5,-0.5 888.5,-0.5 999.5,-0.5C 999.5,36.5 999.5,73.5 999.5,110.5C 981.167,110.5 962.833,110.5 944.5,110.5C 888.833,110.5 833.167,110.5 777.5,110.5C 777.5,184.5 777.5,258.5 777.5,332.5C 759.167,332.5 740.833,332.5 722.5,332.5C 703.833,332.5 685.167,332.5 666.5,332.5C 666.5,221.5 666.5,110.5 666.5,-0.5 Z"/></g>
<g><path style="opacity:1" fill="#000000" d="M 944.5,110.5 C 944.5,184.5 944.5,258.5 944.5,332.5C 888.833,332.5 833.167,332.5 777.5,332.5C 777.5,258.5 777.5,184.5 777.5,110.5C 833.167,110.5 888.833,110.5 944.5,110.5 Z"/></g>
<g><path style="opacity:1" fill="#1e4e17" d="M 944.5,110.5 C 962.833,110.5 981.167,110.5 999.5,110.5C 999.5,184.5 999.5,258.5 999.5,332.5C 981.167,332.5 962.833,332.5 944.5,332.5C 944.5,258.5 944.5,184.5 944.5,110.5 Z"/></g>
<g><path style="opacity:1" fill="#000000" d="M 333.5,221.5 C 370.5,221.5 407.5,221.5 444.5,221.5C 444.5,258.5 444.5,295.5 444.5,332.5C 407.5,332.5 370.5,332.5 333.5,332.5C 333.5,295.5 333.5,258.5 333.5,221.5 Z"/></g>
<g><path style="opacity:1" fill="#fefffe" d="M 444.5,221.5 C 481.5,221.5 518.5,221.5 555.5,221.5C 555.5,258.5 555.5,295.5 555.5,332.5C 536.833,332.5 518.167,332.5 499.5,332.5C 481.167,332.5 462.833,332.5 444.5,332.5C 444.5,295.5 444.5,258.5 444.5,221.5 Z"/></g>
<g><path style="opacity:1" fill="#f09e97" d="M 333.5,332.5 C 370.5,332.5 407.5,332.5 444.5,332.5C 462.833,332.5 481.167,332.5 499.5,332.5C 499.5,406.833 499.5,481.167 499.5,555.5C 518.167,555.5 536.833,555.5 555.5,555.5C 592.5,555.5 629.5,555.5 666.5,555.5C 666.5,592.5 666.5,629.5 666.5,666.5C 555.5,666.5 444.5,666.5 333.5,666.5C 333.5,555.167 333.5,443.833 333.5,332.5 Z"/></g>
<g><path style="opacity:1" fill="#e57972" d="M 499.5,332.5 C 518.167,332.5 536.833,332.5 555.5,332.5C 555.5,351.167 555.5,369.833 555.5,388.5C 555.5,425.5 555.5,462.5 555.5,499.5C 555.5,518.167 555.5,536.833 555.5,555.5C 536.833,555.5 518.167,555.5 499.5,555.5C 499.5,481.167 499.5,406.833 499.5,332.5 Z"/></g>
<g><path style="opacity:1" fill="#f7bbb9" d="M 555.5,332.5 C 592.5,332.5 629.5,332.5 666.5,332.5C 666.5,351.167 666.5,369.833 666.5,388.5C 629.5,388.5 592.5,388.5 555.5,388.5C 555.5,369.833 555.5,351.167 555.5,332.5 Z"/></g>
<g><path style="opacity:1" fill="#000000" d="M 666.5,332.5 C 685.167,332.5 703.833,332.5 722.5,332.5C 722.5,369.833 722.5,407.167 722.5,444.5C 740.833,444.5 759.167,444.5 777.5,444.5C 796.167,444.5 814.833,444.5 833.5,444.5C 833.5,518.5 833.5,592.5 833.5,666.5C 814.833,666.5 796.167,666.5 777.5,666.5C 777.5,629.5 777.5,592.5 777.5,555.5C 740.5,555.5 703.5,555.5 666.5,555.5C 666.5,536.833 666.5,518.167 666.5,499.5C 666.5,462.5 666.5,425.5 666.5,388.5C 666.5,369.833 666.5,351.167 666.5,332.5 Z"/></g>
<g><path style="opacity:1" fill="#1e4e17" d="M 722.5,332.5 C 740.833,332.5 759.167,332.5 777.5,332.5C 777.5,369.833 777.5,407.167 777.5,444.5C 759.167,444.5 740.833,444.5 722.5,444.5C 722.5,407.167 722.5,369.833 722.5,332.5 Z"/></g>
<g><path style="opacity:1" fill="#4ccb3c" d="M 777.5,332.5 C 833.167,332.5 888.833,332.5 944.5,332.5C 962.833,332.5 981.167,332.5 999.5,332.5C 999.5,443.833 999.5,555.167 999.5,666.5C 962.5,666.5 925.5,666.5 888.5,666.5C 888.5,592.5 888.5,518.5 888.5,444.5C 870.167,444.5 851.833,444.5 833.5,444.5C 814.833,444.5 796.167,444.5 777.5,444.5C 777.5,407.167 777.5,369.833 777.5,332.5 Z"/></g>
<g><path style="opacity:1" fill="#884745" d="M 555.5,388.5 C 592.5,388.5 629.5,388.5 666.5,388.5C 666.5,425.5 666.5,462.5 666.5,499.5C 629.5,499.5 592.5,499.5 555.5,499.5C 555.5,462.5 555.5,425.5 555.5,388.5 Z"/></g>
<g><path style="opacity:1" fill="#1e4e17" d="M 833.5,444.5 C 851.833,444.5 870.167,444.5 888.5,444.5C 888.5,518.5 888.5,592.5 888.5,666.5C 870.167,666.5 851.833,666.5 833.5,666.5C 833.5,592.5 833.5,518.5 833.5,444.5 Z"/></g>
<g><path style="opacity:1" fill="#f7bbb9" d="M 555.5,499.5 C 592.5,499.5 629.5,499.5 666.5,499.5C 666.5,518.167 666.5,536.833 666.5,555.5C 629.5,555.5 592.5,555.5 555.5,555.5C 555.5,536.833 555.5,518.167 555.5,499.5 Z"/></g>
<g><path style="opacity:1" fill="#4ccb3c" d="M 666.5,555.5 C 703.5,555.5 740.5,555.5 777.5,555.5C 777.5,592.5 777.5,629.5 777.5,666.5C 740.5,666.5 703.5,666.5 666.5,666.5C 666.5,629.5 666.5,592.5 666.5,555.5 Z"/></g>
</svg>
