<?xml version="1.0" encoding="UTF-8"?>
<!DOCTYPE svg PUBLIC "-//W3C//DTD SVG 1.1//EN" "http://www.w3.org/Graphics/SVG/1.1/DTD/svg11.dtd">
<svg xmlns="http://www.w3.org/2000/svg" version="1.1" width="1000px" height="667px" style="shape-rendering:geometricPrecision; text-rendering:geometricPrecision; image-rendering:optimizeQuality; fill-rule:evenodd; clip-rule:evenodd" xmlns:xlink="http://www.w3.org/1999/xlink">
<g><path style="opacity:1" fill="#ab1704" d="M -0.5,-0.5 C 110.833,-0.5 222.167,-0.5 333.5,-0.5C 333.5,221.833 333.5,444.167 333.5,666.5C 222.167,666.5 110.833,666.5 -0.5,666.5C -0.5,444.167 -0.5,221.833 -0.5,-0.5 Z"/></g>
<g><path style="opacity:1" fill="#e52007" d="M 333.5,-0.5 C 555.5,-0.5 777.5,-0.5 999.5,-0.5C 999.5,221.833 999.5,444.167 999.5,666.5C 777.5,666.5 555.5,666.5 333.5,666.5C 333.5,444.167 333.5,221.833 333.5,-0.5 Z"/></g>
<g><path style="opacity:1" fill="#791104" d="M 277.5,222.5 C 259.167,222.5 240.833,222.5 222.5,222.5C 222.5,259.5 222.5,296.5 222.5,333.5C 203.833,333.5 185.167,333.5 166.5,333.5C 166.5,296.5 166.5,259.5 166.5,222.5C 148.167,222.5 129.833,222.5 111.5,222.5C 111.5,185.5 111.5,148.5 111.5,111.5C 166.833,111.5 222.167,111.5 277.5,111.5C 277.5,148.5 277.5,185.5 277.5,222.5 Z"/></g>
<g><path style="opacity:1" fill="#a31807" d="M 889.5,222.5 C 852.5,222.5 815.5,222.5 778.5,222.5C 778.5,259.5 778.5,296.5 778.5,333.5C 741.5,333.5 704.5,333.5 667.5,333.5C 667.5,296.5 667.5,259.5 667.5,222.5C 630.167,222.5 592.833,222.5 555.5,222.5C 555.5,185.5 555.5,148.5 555.5,111.5C 666.833,111.5 778.167,111.5 889.5,111.5C 889.5,148.5 889.5,185.5 889.5,222.5 Z"/></g>
<g><path style="opacity:1" fill="#791104" d="M 111.5,222.5 C 111.5,296.5 111.5,370.5 111.5,444.5C 92.8333,444.5 74.1667,444.5 55.5,444.5C 55.5,370.5 55.5,296.5 55.5,222.5C 74.1667,222.5 92.8333,222.5 111.5,222.5 Z"/></g>
<g><path style="opacity:1" fill="#550800" d="M 111.5,222.5 C 129.833,222.5 148.167,222.5 166.5,222.5C 166.5,259.5 166.5,296.5 166.5,333.5C 185.167,333.5 203.833,333.5 222.5,333.5C 222.5,370.5 222.5,407.5 222.5,444.5C 185.5,444.5 148.5,444.5 111.5,444.5C 111.5,370.5 111.5,296.5 111.5,222.5 Z"/></g>
<g><path style="opacity:1" fill="#550800" d="M 277.5,222.5 C 277.5,259.5 277.5,296.5 277.5,333.5C 259.167,333.5 240.833,333.5 222.5,333.5C 222.5,296.5 222.5,259.5 222.5,222.5C 240.833,222.5 259.167,222.5 277.5,222.5 Z"/></g>
<g><path style="opacity:1" fill="#a31807" d="M 555.5,222.5 C 555.5,296.5 555.5,370.5 555.5,444.5C 518.5,444.5 481.5,444.5 444.5,444.5C 444.5,370.5 444.5,296.5 444.5,222.5C 481.5,222.5 518.5,222.5 555.5,222.5 Z"/></g>
<g><path style="opacity:1" fill="#720c00" d="M 555.5,222.5 C 592.833,222.5 630.167,222.5 667.5,222.5C 667.5,259.5 667.5,296.5 667.5,333.5C 704.5,333.5 741.5,333.5 778.5,333.5C 778.5,370.5 778.5,407.5 778.5,444.5C 704.167,444.5 629.833,444.5 555.5,444.5C 555.5,370.5 555.5,296.5 555.5,222.5 Z"/></g>
<g><path style="opacity:1" fill="#720c00" d="M 889.5,222.5 C 889.5,259.5 889.5,296.5 889.5,333.5C 852.5,333.5 815.5,333.5 778.5,333.5C 778.5,296.5 778.5,259.5 778.5,222.5C 815.5,222.5 852.5,222.5 889.5,222.5 Z"/></g>
<g><path style="opacity:1" fill="#791104" d="M 111.5,444.5 C 148.5,444.5 185.5,444.5 222.5,444.5C 240.833,444.5 259.167,444.5 277.5,444.5C 277.5,481.5 277.5,518.5 277.5,555.5C 222.167,555.5 166.833,555.5 111.5,555.5C 111.5,518.5 111.5,481.5 111.5,444.5 Z"/></g>
<g><path style="opacity:1" fill="#a31807" d="M 555.5,444.5 C 629.833,444.5 704.167,444.5 778.5,444.5C 815.5,444.5 852.5,444.5 889.5,444.5C 889.5,481.5 889.5,518.5 889.5,555.5C 778.167,555.5 666.833,555.5 555.5,555.5C 555.5,518.5 555.5,481.5 555.5,444.5 Z"/></g>
</svg>
