<?xml version="1.0" encoding="UTF-8"?>
<!DOCTYPE svg PUBLIC "-//W3C//DTD SVG 1.1//EN" "http://www.w3.org/Graphics/SVG/1.1/DTD/svg11.dtd">
<svg xmlns="http://www.w3.org/2000/svg" version="1.1" width="900px" height="1000px" style="shape-rendering:geometricPrecision; text-rendering:geometricPrecision; image-rendering:optimizeQuality; fill-rule:evenodd; clip-rule:evenodd" xmlns:xlink="http://www.w3.org/1999/xlink">
<g><path style="opacity:1" fill="#367025" d="M 99.5,-0.5 C 199.5,-0.5 299.5,-0.5 399.5,-0.5C 399.5,99.5 399.5,199.5 399.5,299.5C 366.167,299.5 332.833,299.5 299.5,299.5C 232.833,299.5 166.167,299.5 99.5,299.5C 99.5,199.5 99.5,99.5 99.5,-0.5 Z"/></g>
<g><path style="opacity:1" fill="#35ac16" d="M 399.5,-0.5 C 532.833,-0.5 666.167,-0.5 799.5,-0.5C 799.5,99.5 799.5,199.5 799.5,299.5C 666.167,299.5 532.833,299.5 399.5,299.5C 399.5,199.5 399.5,99.5 399.5,-0.5 Z"/></g>
<g><path style="opacity:1" fill="#2f6021" d="M -0.5,299.5 C 32.8333,299.5 66.1667,299.5 99.5,299.5C 166.167,299.5 232.833,299.5 299.5,299.5C 299.5,399.5 299.5,499.5 299.5,599.5C 199.5,599.5 99.5,599.5 -0.5,599.5C -0.5,499.5 -0.5,399.5 -0.5,299.5 Z"/></g>
<g><path style="opacity:1" fill="#2f9816" d="M 299.5,299.5 C 332.833,299.5 366.167,299.5 399.5,299.5C 532.833,299.5 666.167,299.5 799.5,299.5C 832.833,299.5 866.167,299.5 899.5,299.5C 899.5,399.5 899.5,499.5 899.5,599.5C 799.5,599.5 699.5,599.5 599.5,599.5C 499.5,599.5 399.5,599.5 299.5,599.5C 299.5,499.5 299.5,399.5 299.5,299.5 Z"/></g>
<g><path style="opacity:1" fill="#4d361d" d="M 299.5,599.5 C 399.5,599.5 499.5,599.5 599.5,599.5C 599.5,616.167 599.5,632.833 599.5,649.5C 532.833,649.5 466.167,649.5 399.5,649.5C 399.5,766.167 399.5,882.833 399.5,999.5C 366.167,999.5 332.833,999.5 299.5,999.5C 299.5,866.167 299.5,732.833 299.5,599.5 Z"/></g>
<g><path style="opacity:1" fill="#7d5020" d="M 599.5,649.5 C 599.5,766.167 599.5,882.833 599.5,999.5C 532.833,999.5 466.167,999.5 399.5,999.5C 399.5,882.833 399.5,766.167 399.5,649.5C 466.167,649.5 532.833,649.5 599.5,649.5 Z"/></g>
</svg>
