<?xml version="1.0" encoding="UTF-8"?>
<!DOCTYPE svg PUBLIC "-//W3C//DTD SVG 1.1//EN" "http://www.w3.org/Graphics/SVG/1.1/DTD/svg11.dtd">
<svg xmlns="http://www.w3.org/2000/svg" version="1.1" width="1000px" height="666px" style="shape-rendering:geometricPrecision; text-rendering:geometricPrecision; image-rendering:optimizeQuality; fill-rule:evenodd; clip-rule:evenodd" xmlns:xlink="http://www.w3.org/1999/xlink">
<g><path style="opacity:1" fill="#892518" d="M -0.5,-0.5 C 36.5,-0.5 73.5,-0.5 110.5,-0.5C 110.5,36.5 110.5,73.5 110.5,110.5C 92.1667,110.5 73.8333,110.5 55.5,110.5C 55.5,147.5 55.5,184.5 55.5,221.5C 73.8333,221.5 92.1667,221.5 110.5,221.5C 147.5,221.5 184.5,221.5 221.5,221.5C 240.167,221.5 258.833,221.5 277.5,221.5C 277.5,184.5 277.5,147.5 277.5,110.5C 258.833,110.5 240.167,110.5 221.5,110.5C 221.5,73.5 221.5,36.5 221.5,-0.5C 258.5,-0.5 295.5,-0.5 332.5,-0.5C 332.5,184.5 332.5,369.5 332.5,554.5C 314.167,554.5 295.833,554.5 277.5,554.5C 277.5,480.5 277.5,406.5 277.5,332.5C 203.5,332.5 129.5,332.5 55.5,332.5C 55.5,406.5 55.5,480.5 55.5,554.5C 36.8333,554.5 18.1667,554.5 -0.5,554.5C -0.5,369.5 -0.5,184.5 -0.5,-0.5 Z"/></g>
<g><path style="opacity:1" fill="#a3962c" d="M 110.5,-0.5 C 147.5,-0.5 184.5,-0.5 221.5,-0.5C 221.5,36.5 221.5,73.5 221.5,110.5C 221.5,147.5 221.5,184.5 221.5,221.5C 184.5,221.5 147.5,221.5 110.5,221.5C 110.5,184.5 110.5,147.5 110.5,110.5C 110.5,73.5 110.5,36.5 110.5,-0.5 Z"/></g>
<g><path style="opacity:1" fill="#b53020" d="M 332.5,-0.5 C 425.167,-0.5 517.833,-0.5 610.5,-0.5C 610.5,36.5 610.5,73.5 610.5,110.5C 554.833,110.5 499.167,110.5 443.5,110.5C 443.5,147.5 443.5,184.5 443.5,221.5C 480.833,221.5 518.167,221.5 555.5,221.5C 555.5,258.5 555.5,295.5 555.5,332.5C 518.167,332.5 480.833,332.5 443.5,332.5C 443.5,406.5 443.5,480.5 443.5,554.5C 406.5,554.5 369.5,554.5 332.5,554.5C 332.5,369.5 332.5,184.5 332.5,-0.5 Z"/></g>
<g><path style="opacity:1" fill="#d9c83c" d="M 610.5,-0.5 C 647.5,-0.5 684.5,-0.5 721.5,-0.5C 721.5,36.5 721.5,73.5 721.5,110.5C 721.5,147.5 721.5,184.5 721.5,221.5C 740.167,221.5 758.833,221.5 777.5,221.5C 777.5,258.5 777.5,295.5 777.5,332.5C 777.5,369.5 777.5,406.5 777.5,443.5C 740.5,443.5 703.5,443.5 666.5,443.5C 666.5,369.5 666.5,295.5 666.5,221.5C 647.833,221.5 629.167,221.5 610.5,221.5C 610.5,184.5 610.5,147.5 610.5,110.5C 610.5,73.5 610.5,36.5 610.5,-0.5 Z"/></g>
<g><path style="opacity:1" fill="#b53020" d="M 721.5,-0.5 C 814.167,-0.5 906.833,-0.5 999.5,-0.5C 999.5,184.5 999.5,369.5 999.5,554.5C 962.5,554.5 925.5,554.5 888.5,554.5C 888.5,480.5 888.5,406.5 888.5,332.5C 851.5,332.5 814.5,332.5 777.5,332.5C 777.5,295.5 777.5,258.5 777.5,221.5C 814.5,221.5 851.5,221.5 888.5,221.5C 888.5,184.5 888.5,147.5 888.5,110.5C 832.833,110.5 777.167,110.5 721.5,110.5C 721.5,73.5 721.5,36.5 721.5,-0.5 Z"/></g>
<g><path style="opacity:1" fill="#7b120c" d="M 110.5,110.5 C 110.5,147.5 110.5,184.5 110.5,221.5C 92.1667,221.5 73.8333,221.5 55.5,221.5C 55.5,184.5 55.5,147.5 55.5,110.5C 73.8333,110.5 92.1667,110.5 110.5,110.5 Z"/></g>
<g><path style="opacity:1" fill="#7b120c" d="M 221.5,110.5 C 240.167,110.5 258.833,110.5 277.5,110.5C 277.5,147.5 277.5,184.5 277.5,221.5C 258.833,221.5 240.167,221.5 221.5,221.5C 221.5,184.5 221.5,147.5 221.5,110.5 Z"/></g>
<g><path style="opacity:1" fill="#a31710" d="M 610.5,110.5 C 610.5,147.5 610.5,184.5 610.5,221.5C 592.167,221.5 573.833,221.5 555.5,221.5C 518.167,221.5 480.833,221.5 443.5,221.5C 443.5,184.5 443.5,147.5 443.5,110.5C 499.167,110.5 554.833,110.5 610.5,110.5 Z"/></g>
<g><path style="opacity:1" fill="#a31710" d="M 721.5,110.5 C 777.167,110.5 832.833,110.5 888.5,110.5C 888.5,147.5 888.5,184.5 888.5,221.5C 851.5,221.5 814.5,221.5 777.5,221.5C 758.833,221.5 740.167,221.5 721.5,221.5C 721.5,184.5 721.5,147.5 721.5,110.5 Z"/></g>
<g><path style="opacity:1" fill="#892518" d="M 555.5,221.5 C 573.833,221.5 592.167,221.5 610.5,221.5C 610.5,258.5 610.5,295.5 610.5,332.5C 592.167,332.5 573.833,332.5 555.5,332.5C 555.5,295.5 555.5,258.5 555.5,221.5 Z"/></g>
<g><path style="opacity:1" fill="#a3962c" d="M 610.5,221.5 C 629.167,221.5 647.833,221.5 666.5,221.5C 666.5,295.5 666.5,369.5 666.5,443.5C 647.833,443.5 629.167,443.5 610.5,443.5C 610.5,406.5 610.5,369.5 610.5,332.5C 610.5,295.5 610.5,258.5 610.5,221.5 Z"/></g>
<g><path style="opacity:1" fill="#7b120c" d="M 277.5,554.5 C 203.5,554.5 129.5,554.5 55.5,554.5C 55.5,480.5 55.5,406.5 55.5,332.5C 129.5,332.5 203.5,332.5 277.5,332.5C 277.5,406.5 277.5,480.5 277.5,554.5 Z"/></g>
<g><path style="opacity:1" fill="#a31710" d="M 555.5,332.5 C 573.833,332.5 592.167,332.5 610.5,332.5C 610.5,369.5 610.5,406.5 610.5,443.5C 629.167,443.5 647.833,443.5 666.5,443.5C 703.5,443.5 740.5,443.5 777.5,443.5C 777.5,406.5 777.5,369.5 777.5,332.5C 814.5,332.5 851.5,332.5 888.5,332.5C 888.5,406.5 888.5,480.5 888.5,554.5C 740.167,554.5 591.833,554.5 443.5,554.5C 443.5,480.5 443.5,406.5 443.5,332.5C 480.833,332.5 518.167,332.5 555.5,332.5 Z"/></g>
<g><path style="opacity:1" fill="#390300" d="M -0.5,554.5 C 18.1667,554.5 36.8333,554.5 55.5,554.5C 129.5,554.5 203.5,554.5 277.5,554.5C 295.833,554.5 314.167,554.5 332.5,554.5C 332.5,591.5 332.5,628.5 332.5,665.5C 221.5,665.5 110.5,665.5 -0.5,665.5C -0.5,628.5 -0.5,591.5 -0.5,554.5 Z"/></g>
<g><path style="opacity:1" fill="#4b0300" d="M 332.5,554.5 C 369.5,554.5 406.5,554.5 443.5,554.5C 591.833,554.5 740.167,554.5 888.5,554.5C 925.5,554.5 962.5,554.5 999.5,554.5C 999.5,591.5 999.5,628.5 999.5,665.5C 777.167,665.5 554.833,665.5 332.5,665.5C 332.5,628.5 332.5,591.5 332.5,554.5 Z"/></g>
</svg>
