<?xml version="1.0" encoding="UTF-8"?>
<!DOCTYPE svg PUBLIC "-//W3C//DTD SVG 1.1//EN" "http://www.w3.org/Graphics/SVG/1.1/DTD/svg11.dtd">
<svg xmlns="http://www.w3.org/2000/svg" version="1.1" width="1000px" height="909px" style="shape-rendering:geometricPrecision; text-rendering:geometricPrecision; image-rendering:optimizeQuality; fill-rule:evenodd; clip-rule:evenodd" xmlns:xlink="http://www.w3.org/1999/xlink">
<g><path style="opacity:1" fill="#514074" d="M -0.5,-0.5 C 29.8333,-0.5 60.1667,-0.5 90.5,-0.5C 90.5,302.5 90.5,605.5 90.5,908.5C 60.1667,908.5 29.8333,908.5 -0.5,908.5C -0.5,605.5 -0.5,302.5 -0.5,-0.5 Z"/></g>
<g><path style="opacity:1" fill="#765599" d="M 90.5,-0.5 C 393.5,-0.5 696.5,-0.5 999.5,-0.5C 999.5,60.1667 999.5,120.833 999.5,181.5C 757.167,181.5 514.833,181.5 272.5,181.5C 272.5,242.167 272.5,302.833 272.5,363.5C 393.5,363.5 514.5,363.5 635.5,363.5C 635.5,423.833 635.5,484.167 635.5,544.5C 514.5,544.5 393.5,544.5 272.5,544.5C 272.5,665.833 272.5,787.167 272.5,908.5C 211.833,908.5 151.167,908.5 90.5,908.5C 90.5,605.5 90.5,302.5 90.5,-0.5 Z"/></g>
</svg>
