<?xml version="1.0" encoding="UTF-8"?>
<!DOCTYPE svg PUBLIC "-//W3C//DTD SVG 1.1//EN" "http://www.w3.org/Graphics/SVG/1.1/DTD/svg11.dtd">
<svg xmlns="http://www.w3.org/2000/svg" version="1.1" width="1000px" height="954px" style="shape-rendering:geometricPrecision; text-rendering:geometricPrecision; image-rendering:optimizeQuality; fill-rule:evenodd; clip-rule:evenodd" xmlns:xlink="http://www.w3.org/1999/xlink">
<g><path style="opacity:1" fill="#757675" d="M 363.5,-0.5 C 408.833,-0.5 454.167,-0.5 499.5,-0.5C 499.5,29.8333 499.5,60.1667 499.5,90.5C 454.167,90.5 408.833,90.5 363.5,90.5C 363.5,75.1667 363.5,59.8333 363.5,44.5C 363.5,29.5 363.5,14.5 363.5,-0.5 Z"/></g>
<g><path style="opacity:1" fill="#a4a5a4" d="M 499.5,-0.5 C 529.833,-0.5 560.167,-0.5 590.5,-0.5C 590.5,14.5 590.5,29.5 590.5,44.5C 590.5,59.8333 590.5,75.1667 590.5,90.5C 560.167,90.5 529.833,90.5 499.5,90.5C 499.5,60.1667 499.5,29.8333 499.5,-0.5 Z"/></g>
<g><path style="opacity:1" fill="#1c1a13" d="M -0.5,44.5 C 120.833,44.5 242.167,44.5 363.5,44.5C 363.5,59.8333 363.5,75.1667 363.5,90.5C 348.167,90.5 332.833,90.5 317.5,90.5C 317.5,105.5 317.5,120.5 317.5,135.5C 302.5,135.5 287.5,135.5 272.5,135.5C 272.5,256.833 272.5,378.167 272.5,499.5C 287.5,499.5 302.5,499.5 317.5,499.5C 317.5,529.833 317.5,560.167 317.5,590.5C 332.833,590.5 348.167,590.5 363.5,590.5C 393.833,590.5 424.167,590.5 454.5,590.5C 454.5,711.5 454.5,832.5 454.5,953.5C 363.5,953.5 272.5,953.5 181.5,953.5C 181.5,832.5 181.5,711.5 181.5,590.5C 120.833,590.5 60.1667,590.5 -0.5,590.5C -0.5,408.5 -0.5,226.5 -0.5,44.5 Z"/></g>
<g><path style="opacity:1" fill="#1c1a13" d="M 590.5,44.5 C 635.833,44.5 681.167,44.5 726.5,44.5C 726.5,59.8333 726.5,75.1667 726.5,90.5C 681.167,90.5 635.833,90.5 590.5,90.5C 590.5,75.1667 590.5,59.8333 590.5,44.5 Z"/></g>
<g><path style="opacity:1" fill="#adb3b6" d="M 363.5,90.5 C 363.5,211.5 363.5,332.5 363.5,453.5C 363.5,483.833 363.5,514.167 363.5,544.5C 363.5,559.833 363.5,575.167 363.5,590.5C 348.167,590.5 332.833,590.5 317.5,590.5C 317.5,560.167 317.5,529.833 317.5,499.5C 317.5,378.167 317.5,256.833 317.5,135.5C 317.5,120.5 317.5,105.5 317.5,90.5C 332.833,90.5 348.167,90.5 363.5,90.5 Z"/></g>
<g><path style="opacity:1" fill="#e5edf2" d="M 363.5,90.5 C 408.833,90.5 454.167,90.5 499.5,90.5C 529.833,90.5 560.167,90.5 590.5,90.5C 635.833,90.5 681.167,90.5 726.5,90.5C 787.167,90.5 847.833,90.5 908.5,90.5C 908.5,257.167 908.5,423.833 908.5,590.5C 847.833,590.5 787.167,590.5 726.5,590.5C 726.5,544.833 726.5,499.167 726.5,453.5C 756.833,453.5 787.167,453.5 817.5,453.5C 817.5,362.833 817.5,272.167 817.5,181.5C 787.167,181.5 756.833,181.5 726.5,181.5C 726.5,211.833 726.5,242.167 726.5,272.5C 665.833,272.5 605.167,272.5 544.5,272.5C 544.5,242.167 544.5,211.833 544.5,181.5C 514.5,181.5 484.5,181.5 454.5,181.5C 454.5,272.167 454.5,362.833 454.5,453.5C 424.167,453.5 393.833,453.5 363.5,453.5C 363.5,332.5 363.5,211.5 363.5,90.5 Z"/></g>
<g><path style="opacity:1" fill="#855106" d="M 44.5,135.5 C 74.8333,135.5 105.167,135.5 135.5,135.5C 135.5,256.833 135.5,378.167 135.5,499.5C 105.167,499.5 74.8333,499.5 44.5,499.5C 44.5,378.167 44.5,256.833 44.5,135.5 Z"/></g>
<g><path style="opacity:1" fill="#683f04" d="M 317.5,135.5 C 317.5,256.833 317.5,378.167 317.5,499.5C 302.5,499.5 287.5,499.5 272.5,499.5C 272.5,378.167 272.5,256.833 272.5,135.5C 287.5,135.5 302.5,135.5 317.5,135.5 Z"/></g>
<g><path style="opacity:1" fill="#000000" d="M 726.5,590.5 C 635.833,590.5 545.167,590.5 454.5,590.5C 454.5,575.167 454.5,559.833 454.5,544.5C 484.5,544.5 514.5,544.5 544.5,544.5C 544.5,514.167 544.5,483.833 544.5,453.5C 514.5,453.5 484.5,453.5 454.5,453.5C 454.5,362.833 454.5,272.167 454.5,181.5C 484.5,181.5 514.5,181.5 544.5,181.5C 544.5,211.833 544.5,242.167 544.5,272.5C 605.167,272.5 665.833,272.5 726.5,272.5C 726.5,242.167 726.5,211.833 726.5,181.5C 756.833,181.5 787.167,181.5 817.5,181.5C 817.5,272.167 817.5,362.833 817.5,453.5C 787.167,453.5 756.833,453.5 726.5,453.5C 726.5,499.167 726.5,544.833 726.5,590.5 Z"/></g>
<g><path style="opacity:1" fill="#000000" d="M 363.5,453.5 C 393.833,453.5 424.167,453.5 454.5,453.5C 454.5,483.833 454.5,514.167 454.5,544.5C 424.167,544.5 393.833,544.5 363.5,544.5C 363.5,514.167 363.5,483.833 363.5,453.5 Z"/></g>
<g><path style="opacity:1" fill="#e5edf2" d="M 454.5,453.5 C 484.5,453.5 514.5,453.5 544.5,453.5C 544.5,483.833 544.5,514.167 544.5,544.5C 514.5,544.5 484.5,544.5 454.5,544.5C 454.5,514.167 454.5,483.833 454.5,453.5 Z"/></g>
<g><path style="opacity:1" fill="#e5edf2" d="M 363.5,544.5 C 393.833,544.5 424.167,544.5 454.5,544.5C 454.5,559.833 454.5,575.167 454.5,590.5C 424.167,590.5 393.833,590.5 363.5,590.5C 363.5,575.167 363.5,559.833 363.5,544.5 Z"/></g>
<g><path style="opacity:1" fill="#443c2e" d="M 454.5,590.5 C 545.167,590.5 635.833,590.5 726.5,590.5C 787.167,590.5 847.833,590.5 908.5,590.5C 938.833,590.5 969.167,590.5 999.5,590.5C 999.5,711.5 999.5,832.5 999.5,953.5C 817.833,953.5 636.167,953.5 454.5,953.5C 454.5,832.5 454.5,711.5 454.5,590.5 Z"/></g>
<g><path style="opacity:1" fill="#855106" d="M 226.5,680.5 C 287.167,680.5 347.833,680.5 408.5,680.5C 408.5,741.167 408.5,801.833 408.5,862.5C 347.833,862.5 287.167,862.5 226.5,862.5C 226.5,801.833 226.5,741.167 226.5,680.5 Z"/></g>
<g><path style="opacity:1" fill="#a66e1e" d="M 544.5,680.5 C 665.833,680.5 787.167,680.5 908.5,680.5C 908.5,741.167 908.5,801.833 908.5,862.5C 787.167,862.5 665.833,862.5 544.5,862.5C 544.5,801.833 544.5,741.167 544.5,680.5 Z"/></g>
</svg>
