<?xml version="1.0" encoding="UTF-8"?>
<!DOCTYPE svg PUBLIC "-//W3C//DTD SVG 1.1//EN" "http://www.w3.org/Graphics/SVG/1.1/DTD/svg11.dtd">
<svg xmlns="http://www.w3.org/2000/svg" version="1.1" width="1000px" height="727px" style="shape-rendering:geometricPrecision; text-rendering:geometricPrecision; image-rendering:optimizeQuality; fill-rule:evenodd; clip-rule:evenodd" xmlns:xlink="http://www.w3.org/1999/xlink">
<g><path style="opacity:1" fill="#bb84bf" d="M 363.5,-0.5 C 393.833,-0.5 424.167,-0.5 454.5,-0.5C 454.5,60.1667 454.5,120.833 454.5,181.5C 424.167,181.5 393.833,181.5 363.5,181.5C 363.5,120.833 363.5,60.1667 363.5,-0.5 Z"/></g>
<g><path style="opacity:1" fill="#feaff2" d="M 454.5,-0.5 C 514.833,-0.5 575.167,-0.5 635.5,-0.5C 635.5,60.1667 635.5,120.833 635.5,181.5C 756.833,181.5 878.167,181.5 999.5,181.5C 999.5,241.833 999.5,302.167 999.5,362.5C 938.833,362.5 878.167,362.5 817.5,362.5C 817.5,483.833 817.5,605.167 817.5,726.5C 756.833,726.5 696.167,726.5 635.5,726.5C 635.5,665.833 635.5,605.167 635.5,544.5C 605.167,544.5 574.833,544.5 544.5,544.5C 514.5,544.5 484.5,544.5 454.5,544.5C 454.5,605.167 454.5,665.833 454.5,726.5C 393.833,726.5 333.167,726.5 272.5,726.5C 272.5,605.167 272.5,483.833 272.5,362.5C 242.167,362.5 211.833,362.5 181.5,362.5C 151.167,362.5 120.833,362.5 90.5,362.5C 90.5,302.167 90.5,241.833 90.5,181.5C 181.5,181.5 272.5,181.5 363.5,181.5C 393.833,181.5 424.167,181.5 454.5,181.5C 454.5,120.833 454.5,60.1667 454.5,-0.5 Z"/></g>
<g><path style="opacity:1" fill="#bb84bf" d="M -0.5,181.5 C 29.8333,181.5 60.1667,181.5 90.5,181.5C 90.5,241.833 90.5,302.167 90.5,362.5C 60.1667,362.5 29.8333,362.5 -0.5,362.5C -0.5,302.167 -0.5,241.833 -0.5,181.5 Z"/></g>
<g><path style="opacity:1" fill="#bb84bf" d="M 181.5,362.5 C 211.833,362.5 242.167,362.5 272.5,362.5C 272.5,483.833 272.5,605.167 272.5,726.5C 242.167,726.5 211.833,726.5 181.5,726.5C 181.5,605.167 181.5,483.833 181.5,362.5 Z"/></g>
<g><path style="opacity:1" fill="#bb84bf" d="M 544.5,544.5 C 574.833,544.5 605.167,544.5 635.5,544.5C 635.5,605.167 635.5,665.833 635.5,726.5C 605.167,726.5 574.833,726.5 544.5,726.5C 544.5,665.833 544.5,605.167 544.5,544.5 Z"/></g>
</svg>
