<?xml version="1.0" encoding="UTF-8"?>
<!DOCTYPE svg PUBLIC "-//W3C//DTD SVG 1.1//EN" "http://www.w3.org/Graphics/SVG/1.1/DTD/svg11.dtd">
<svg xmlns="http://www.w3.org/2000/svg" version="1.1" width="1000px" height="417px" style="shape-rendering:geometricPrecision; text-rendering:geometricPrecision; image-rendering:optimizeQuality; fill-rule:evenodd; clip-rule:evenodd" xmlns:xlink="http://www.w3.org/1999/xlink">
<g><path style="opacity:1" fill="#008191" d="M 83.5,-0.5 C 111.167,-0.5 138.833,-0.5 166.5,-0.5C 166.5,27.5 166.5,55.5 166.5,83.5C 138.833,83.5 111.167,83.5 83.5,83.5C 83.5,55.5 83.5,27.5 83.5,-0.5 Z"/></g>
<g><path style="opacity:1" fill="#00acc1" d="M 166.5,-0.5 C 277.833,-0.5 389.167,-0.5 500.5,-0.5C 500.5,27.5 500.5,55.5 500.5,83.5C 389.167,83.5 277.833,83.5 166.5,83.5C 166.5,55.5 166.5,27.5 166.5,-0.5 Z"/></g>
<g><path style="opacity:1" fill="#008191" d="M 583.5,-0.5 C 611.5,-0.5 639.5,-0.5 667.5,-0.5C 667.5,27.5 667.5,55.5 667.5,83.5C 639.5,83.5 611.5,83.5 583.5,83.5C 583.5,55.5 583.5,27.5 583.5,-0.5 Z"/></g>
<g><path style="opacity:1" fill="#00acc1" d="M 667.5,-0.5 C 750.833,-0.5 834.167,-0.5 917.5,-0.5C 917.5,27.5 917.5,55.5 917.5,83.5C 889.5,83.5 861.5,83.5 833.5,83.5C 778.167,83.5 722.833,83.5 667.5,83.5C 667.5,55.5 667.5,27.5 667.5,-0.5 Z"/></g>
<g><path style="opacity:1" fill="#008191" d="M -0.5,83.5 C 27.5,83.5 55.5,83.5 83.5,83.5C 83.5,194.5 83.5,305.5 83.5,416.5C 55.5,416.5 27.5,416.5 -0.5,416.5C -0.5,305.5 -0.5,194.5 -0.5,83.5 Z"/></g>
<g><path style="opacity:1" fill="#00acc1" d="M 83.5,83.5 C 111.167,83.5 138.833,83.5 166.5,83.5C 166.5,166.833 166.5,250.167 166.5,333.5C 222.167,333.5 277.833,333.5 333.5,333.5C 361.167,333.5 388.833,333.5 416.5,333.5C 416.5,361.167 416.5,388.833 416.5,416.5C 305.5,416.5 194.5,416.5 83.5,416.5C 83.5,305.5 83.5,194.5 83.5,83.5 Z"/></g>
<g><path style="opacity:1" fill="#008191" d="M 500.5,83.5 C 528.167,83.5 555.833,83.5 583.5,83.5C 583.5,194.5 583.5,305.5 583.5,416.5C 555.833,416.5 528.167,416.5 500.5,416.5C 500.5,388.833 500.5,361.167 500.5,333.5C 500.5,277.833 500.5,222.167 500.5,166.5C 500.5,138.833 500.5,111.167 500.5,83.5 Z"/></g>
<g><path style="opacity:1" fill="#00acc1" d="M 583.5,83.5 C 611.5,83.5 639.5,83.5 667.5,83.5C 667.5,166.833 667.5,250.167 667.5,333.5C 722.833,333.5 778.167,333.5 833.5,333.5C 861.5,333.5 889.5,333.5 917.5,333.5C 917.5,361.167 917.5,388.833 917.5,416.5C 806.167,416.5 694.833,416.5 583.5,416.5C 583.5,305.5 583.5,194.5 583.5,83.5 Z"/></g>
<g><path style="opacity:1" fill="#008191" d="M 833.5,83.5 C 861.5,83.5 889.5,83.5 917.5,83.5C 917.5,166.833 917.5,250.167 917.5,333.5C 889.5,333.5 861.5,333.5 833.5,333.5C 833.5,250.167 833.5,166.833 833.5,83.5 Z"/></g>
<g><path style="opacity:1" fill="#00acc1" d="M 917.5,83.5 C 944.833,83.5 972.167,83.5 999.5,83.5C 999.5,166.833 999.5,250.167 999.5,333.5C 972.167,333.5 944.833,333.5 917.5,333.5C 917.5,250.167 917.5,166.833 917.5,83.5 Z"/></g>
<g><path style="opacity:1" fill="#008191" d="M 333.5,166.5 C 333.5,194.5 333.5,222.5 333.5,250.5C 305.833,250.5 278.167,250.5 250.5,250.5C 250.5,222.5 250.5,194.5 250.5,166.5C 278.167,166.5 305.833,166.5 333.5,166.5 Z"/></g>
<g><path style="opacity:1" fill="#00acc1" d="M 333.5,166.5 C 389.167,166.5 444.833,166.5 500.5,166.5C 500.5,222.167 500.5,277.833 500.5,333.5C 472.5,333.5 444.5,333.5 416.5,333.5C 416.5,305.833 416.5,278.167 416.5,250.5C 388.833,250.5 361.167,250.5 333.5,250.5C 333.5,222.5 333.5,194.5 333.5,166.5 Z"/></g>
<g><path style="opacity:1" fill="#008191" d="M 333.5,250.5 C 361.167,250.5 388.833,250.5 416.5,250.5C 416.5,278.167 416.5,305.833 416.5,333.5C 388.833,333.5 361.167,333.5 333.5,333.5C 333.5,305.833 333.5,278.167 333.5,250.5 Z"/></g>
</svg>
