<?xml version="1.0" encoding="UTF-8"?>
<!DOCTYPE svg PUBLIC "-//W3C//DTD SVG 1.1//EN" "http://www.w3.org/Graphics/SVG/1.1/DTD/svg11.dtd">
<svg xmlns="http://www.w3.org/2000/svg" version="1.1" width="1000px" height="700px" style="shape-rendering:geometricPrecision; text-rendering:geometricPrecision; image-rendering:optimizeQuality; fill-rule:evenodd; clip-rule:evenodd" xmlns:xlink="http://www.w3.org/1999/xlink">
<g><path style="opacity:1" fill="#56524f" d="M 199.5,-0.5 C 299.5,-0.5 399.5,-0.5 499.5,-0.5C 499.5,66.1667 499.5,132.833 499.5,199.5C 432.833,199.5 366.167,199.5 299.5,199.5C 299.5,182.833 299.5,166.167 299.5,149.5C 266.167,149.5 232.833,149.5 199.5,149.5C 199.5,99.5 199.5,49.5 199.5,-0.5 Z"/></g>
<g><path style="opacity:1" fill="#726d68" d="M 499.5,-0.5 C 666.167,-0.5 832.833,-0.5 999.5,-0.5C 999.5,199.5 999.5,399.5 999.5,599.5C 966.167,599.5 932.833,599.5 899.5,599.5C 899.5,566.167 899.5,532.833 899.5,499.5C 899.5,466.167 899.5,432.833 899.5,399.5C 899.5,366.167 899.5,332.833 899.5,299.5C 899.5,266.167 899.5,232.833 899.5,199.5C 832.833,199.5 766.167,199.5 699.5,199.5C 666.167,199.5 632.833,199.5 599.5,199.5C 599.5,232.833 599.5,266.167 599.5,299.5C 599.5,332.833 599.5,366.167 599.5,399.5C 599.5,432.833 599.5,466.167 599.5,499.5C 599.5,532.833 599.5,566.167 599.5,599.5C 566.167,599.5 532.833,599.5 499.5,599.5C 499.5,499.5 499.5,399.5 499.5,299.5C 499.5,266.167 499.5,232.833 499.5,199.5C 499.5,132.833 499.5,66.1667 499.5,-0.5 Z"/></g>
<g><path style="opacity:1" fill="#615e5b" d="M -0.5,149.5 C 16.1667,149.5 32.8333,149.5 49.5,149.5C 49.5,282.833 49.5,416.167 49.5,549.5C 32.8333,549.5 16.1667,549.5 -0.5,549.5C -0.5,416.167 -0.5,282.833 -0.5,149.5 Z"/></g>
<g><path style="opacity:1" fill="#817d79" d="M 49.5,149.5 C 99.5,149.5 149.5,149.5 199.5,149.5C 232.833,149.5 266.167,149.5 299.5,149.5C 299.5,166.167 299.5,182.833 299.5,199.5C 299.5,232.833 299.5,266.167 299.5,299.5C 299.5,382.833 299.5,466.167 299.5,549.5C 266.167,549.5 232.833,549.5 199.5,549.5C 149.5,549.5 99.5,549.5 49.5,549.5C 49.5,416.167 49.5,282.833 49.5,149.5 Z"/></g>
<g><path style="opacity:1" fill="#453c39" d="M 299.5,199.5 C 366.167,199.5 432.833,199.5 499.5,199.5C 499.5,232.833 499.5,266.167 499.5,299.5C 482.833,299.5 466.167,299.5 449.5,299.5C 432.833,299.5 416.167,299.5 399.5,299.5C 382.833,299.5 366.167,299.5 349.5,299.5C 332.833,299.5 316.167,299.5 299.5,299.5C 299.5,266.167 299.5,232.833 299.5,199.5 Z"/></g>
<g><path style="opacity:1" fill="#615e5b" d="M 699.5,199.5 C 699.5,232.833 699.5,266.167 699.5,299.5C 666.167,299.5 632.833,299.5 599.5,299.5C 599.5,266.167 599.5,232.833 599.5,199.5C 632.833,199.5 666.167,199.5 699.5,199.5 Z"/></g>
<g><path style="opacity:1" fill="#817d79" d="M 699.5,199.5 C 766.167,199.5 832.833,199.5 899.5,199.5C 899.5,232.833 899.5,266.167 899.5,299.5C 832.833,299.5 766.167,299.5 699.5,299.5C 699.5,266.167 699.5,232.833 699.5,199.5 Z"/></g>
<g><path style="opacity:1" fill="#56524f" d="M 299.5,299.5 C 316.167,299.5 332.833,299.5 349.5,299.5C 349.5,332.833 349.5,366.167 349.5,399.5C 366.167,399.5 382.833,399.5 399.5,399.5C 416.167,399.5 432.833,399.5 449.5,399.5C 449.5,366.167 449.5,332.833 449.5,299.5C 466.167,299.5 482.833,299.5 499.5,299.5C 499.5,399.5 499.5,499.5 499.5,599.5C 399.5,599.5 299.5,599.5 199.5,599.5C 199.5,582.833 199.5,566.167 199.5,549.5C 232.833,549.5 266.167,549.5 299.5,549.5C 299.5,466.167 299.5,382.833 299.5,299.5 Z"/></g>
<g><path style="opacity:1" fill="#bfc0bf" d="M 349.5,299.5 C 366.167,299.5 382.833,299.5 399.5,299.5C 399.5,332.833 399.5,366.167 399.5,399.5C 382.833,399.5 366.167,399.5 349.5,399.5C 349.5,366.167 349.5,332.833 349.5,299.5 Z"/></g>
<g><path style="opacity:1" fill="#000000" d="M 399.5,299.5 C 416.167,299.5 432.833,299.5 449.5,299.5C 449.5,332.833 449.5,366.167 449.5,399.5C 432.833,399.5 416.167,399.5 399.5,399.5C 399.5,366.167 399.5,332.833 399.5,299.5 Z"/></g>
<g><path style="opacity:1" fill="#453c39" d="M 599.5,299.5 C 632.833,299.5 666.167,299.5 699.5,299.5C 699.5,332.833 699.5,366.167 699.5,399.5C 666.167,399.5 632.833,399.5 599.5,399.5C 599.5,366.167 599.5,332.833 599.5,299.5 Z"/></g>
<g><path style="opacity:1" fill="#5b4f4c" d="M 699.5,299.5 C 766.167,299.5 832.833,299.5 899.5,299.5C 899.5,332.833 899.5,366.167 899.5,399.5C 832.833,399.5 766.167,399.5 699.5,399.5C 699.5,366.167 699.5,332.833 699.5,299.5 Z"/></g>
<g><path style="opacity:1" fill="#615e5b" d="M 599.5,399.5 C 632.833,399.5 666.167,399.5 699.5,399.5C 699.5,432.833 699.5,466.167 699.5,499.5C 666.167,499.5 632.833,499.5 599.5,499.5C 599.5,466.167 599.5,432.833 599.5,399.5 Z"/></g>
<g><path style="opacity:1" fill="#817d79" d="M 699.5,399.5 C 766.167,399.5 832.833,399.5 899.5,399.5C 899.5,432.833 899.5,466.167 899.5,499.5C 832.833,499.5 766.167,499.5 699.5,499.5C 699.5,466.167 699.5,432.833 699.5,399.5 Z"/></g>
<g><path style="opacity:1" fill="#453c39" d="M 599.5,499.5 C 632.833,499.5 666.167,499.5 699.5,499.5C 699.5,532.833 699.5,566.167 699.5,599.5C 666.167,599.5 632.833,599.5 599.5,599.5C 599.5,566.167 599.5,532.833 599.5,499.5 Z"/></g>
<g><path style="opacity:1" fill="#5b4f4c" d="M 699.5,499.5 C 766.167,499.5 832.833,499.5 899.5,499.5C 899.5,532.833 899.5,566.167 899.5,599.5C 832.833,599.5 766.167,599.5 699.5,599.5C 699.5,566.167 699.5,532.833 699.5,499.5 Z"/></g>
<g><path style="opacity:1" fill="#615e5b" d="M 599.5,599.5 C 632.833,599.5 666.167,599.5 699.5,599.5C 699.5,632.833 699.5,666.167 699.5,699.5C 666.167,699.5 632.833,699.5 599.5,699.5C 599.5,666.167 599.5,632.833 599.5,599.5 Z"/></g>
<g><path style="opacity:1" fill="#817d79" d="M 699.5,599.5 C 766.167,599.5 832.833,599.5 899.5,599.5C 899.5,632.833 899.5,666.167 899.5,699.5C 832.833,699.5 766.167,699.5 699.5,699.5C 699.5,666.167 699.5,632.833 699.5,599.5 Z"/></g>
</svg>
