<?xml version="1.0" encoding="UTF-8"?>
<!DOCTYPE svg PUBLIC "-//W3C//DTD SVG 1.1//EN" "http://www.w3.org/Graphics/SVG/1.1/DTD/svg11.dtd">
<svg xmlns="http://www.w3.org/2000/svg" version="1.1" width="1000px" height="833px" style="shape-rendering:geometricPrecision; text-rendering:geometricPrecision; image-rendering:optimizeQuality; fill-rule:evenodd; clip-rule:evenodd" xmlns:xlink="http://www.w3.org/1999/xlink">
<g><path style="opacity:1" fill="#41403f" d="M 666.5,0.5 C 666.5,55.8333 666.5,111.167 666.5,166.5C 610.833,166.5 555.167,166.5 499.5,166.5C 499.5,111.167 499.5,55.8333 499.5,0.5C 555.167,0.5 610.833,0.5 666.5,0.5 Z"/></g>
<g><path style="opacity:1" fill="#565453" d="M 666.5,0.5 C 777.5,0.5 888.5,0.5 999.5,0.5C 999.5,55.8333 999.5,111.167 999.5,166.5C 888.5,166.5 777.5,166.5 666.5,166.5C 666.5,111.167 666.5,55.8333 666.5,0.5 Z"/></g>
<g><path style="opacity:1" fill="#302f2e" d="M 499.5,166.5 C 555.167,166.5 610.833,166.5 666.5,166.5C 666.5,222.167 666.5,277.833 666.5,333.5C 610.833,333.5 555.167,333.5 499.5,333.5C 499.5,277.833 499.5,222.167 499.5,166.5 Z"/></g>
<g><path style="opacity:1" fill="#3f3e3d" d="M 666.5,166.5 C 777.5,166.5 888.5,166.5 999.5,166.5C 999.5,222.167 999.5,277.833 999.5,333.5C 888.5,333.5 777.5,333.5 666.5,333.5C 666.5,277.833 666.5,222.167 666.5,166.5 Z"/></g>
<g><path style="opacity:1" fill="#302f2e" d="M 83.5,333.5 C 83.5,388.833 83.5,444.167 83.5,499.5C 55.8333,499.5 28.1667,499.5 0.5,499.5C 0.5,444.167 0.5,388.833 0.5,333.5C 28.1667,333.5 55.8333,333.5 83.5,333.5 Z"/></g>
<g><path style="opacity:1" fill="#3f3e3d" d="M 83.5,333.5 C 139.167,333.5 194.833,333.5 250.5,333.5C 250.5,388.833 250.5,444.167 250.5,499.5C 194.833,499.5 139.167,499.5 83.5,499.5C 83.5,444.167 83.5,388.833 83.5,333.5 Z"/></g>
<g><path style="opacity:1" fill="#41403f" d="M 499.5,333.5 C 555.167,333.5 610.833,333.5 666.5,333.5C 666.5,388.833 666.5,444.167 666.5,499.5C 638.833,499.5 611.167,499.5 583.5,499.5C 555.5,499.5 527.5,499.5 499.5,499.5C 499.5,444.167 499.5,388.833 499.5,333.5 Z"/></g>
<g><path style="opacity:1" fill="#565453" d="M 666.5,333.5 C 777.5,333.5 888.5,333.5 999.5,333.5C 999.5,388.833 999.5,444.167 999.5,499.5C 971.833,499.5 944.167,499.5 916.5,499.5C 833.167,499.5 749.833,499.5 666.5,499.5C 666.5,444.167 666.5,388.833 666.5,333.5 Z"/></g>
<g><path style="opacity:1" fill="#242423" d="M 0.5,499.5 C 28.1667,499.5 55.8333,499.5 83.5,499.5C 83.5,555.167 83.5,610.833 83.5,666.5C 55.8333,666.5 28.1667,666.5 0.5,666.5C 0.5,610.833 0.5,555.167 0.5,499.5 Z"/></g>
<g><path style="opacity:1" fill="#302f2e" d="M 83.5,499.5 C 139.167,499.5 194.833,499.5 250.5,499.5C 250.5,555.167 250.5,610.833 250.5,666.5C 222.5,666.5 194.5,666.5 166.5,666.5C 138.833,666.5 111.167,666.5 83.5,666.5C 83.5,610.833 83.5,555.167 83.5,499.5 Z"/></g>
<g><path style="opacity:1" fill="#3f3e3d" d="M 250.5,499.5 C 305.833,499.5 361.167,499.5 416.5,499.5C 416.5,610.5 416.5,721.5 416.5,832.5C 361.167,832.5 305.833,832.5 250.5,832.5C 250.5,777.167 250.5,721.833 250.5,666.5C 250.5,610.833 250.5,555.167 250.5,499.5 Z"/></g>
<g><path style="opacity:1" fill="#302f2e" d="M 416.5,499.5 C 444.167,499.5 471.833,499.5 499.5,499.5C 527.5,499.5 555.5,499.5 583.5,499.5C 583.5,555.167 583.5,610.833 583.5,666.5C 638.833,666.5 694.167,666.5 749.5,666.5C 749.5,721.833 749.5,777.167 749.5,832.5C 638.5,832.5 527.5,832.5 416.5,832.5C 416.5,721.5 416.5,610.5 416.5,499.5 Z"/></g>
<g><path style="opacity:1" fill="#3f3e3d" d="M 583.5,499.5 C 611.167,499.5 638.833,499.5 666.5,499.5C 749.833,499.5 833.167,499.5 916.5,499.5C 916.5,555.167 916.5,610.833 916.5,666.5C 860.833,666.5 805.167,666.5 749.5,666.5C 694.167,666.5 638.833,666.5 583.5,666.5C 583.5,610.833 583.5,555.167 583.5,499.5 Z"/></g>
<g><path style="opacity:1" fill="#3a3635" d="M 166.5,666.5 C 194.5,666.5 222.5,666.5 250.5,666.5C 250.5,721.833 250.5,777.167 250.5,832.5C 222.5,832.5 194.5,832.5 166.5,832.5C 166.5,777.167 166.5,721.833 166.5,666.5 Z"/></g>
</svg>
