<?xml version="1.0" encoding="UTF-8"?>
<!DOCTYPE svg PUBLIC "-//W3C//DTD SVG 1.1//EN" "http://www.w3.org/Graphics/SVG/1.1/DTD/svg11.dtd">
<svg xmlns="http://www.w3.org/2000/svg" version="1.1" width="1000px" height="933px" style="shape-rendering:geometricPrecision; text-rendering:geometricPrecision; image-rendering:optimizeQuality; fill-rule:evenodd; clip-rule:evenodd" xmlns:xlink="http://www.w3.org/1999/xlink">
<g><path style="opacity:1" fill="#533b0b" d="M 400.5,-0.5 C 422.5,-0.5 444.5,-0.5 466.5,-0.5C 466.5,44.1667 466.5,88.8333 466.5,133.5C 444.5,133.5 422.5,133.5 400.5,133.5C 400.5,88.8333 400.5,44.1667 400.5,-0.5 Z"/></g>
<g><path style="opacity:1" fill="#674e1d" d="M 466.5,-0.5 C 511.167,-0.5 555.833,-0.5 600.5,-0.5C 600.5,44.1667 600.5,88.8333 600.5,133.5C 555.833,133.5 511.167,133.5 466.5,133.5C 466.5,88.8333 466.5,44.1667 466.5,-0.5 Z"/></g>
<g><path style="opacity:1" fill="#20c5b4" d="M 200.5,133.5 C 200.5,177.833 200.5,222.167 200.5,266.5C 178.167,266.5 155.833,266.5 133.5,266.5C 133.5,222.167 133.5,177.833 133.5,133.5C 155.833,133.5 178.167,133.5 200.5,133.5 Z"/></g>
<g><path style="opacity:1" fill="#4aedd8" d="M 200.5,133.5 C 267.167,133.5 333.833,133.5 400.5,133.5C 422.5,133.5 444.5,133.5 466.5,133.5C 511.167,133.5 555.833,133.5 600.5,133.5C 689.167,133.5 777.833,133.5 866.5,133.5C 866.5,177.833 866.5,222.167 866.5,266.5C 910.833,266.5 955.167,266.5 999.5,266.5C 999.5,311.167 999.5,355.833 999.5,400.5C 910.833,400.5 822.167,400.5 733.5,400.5C 733.5,355.833 733.5,311.167 733.5,266.5C 711.167,266.5 688.833,266.5 666.5,266.5C 644.5,266.5 622.5,266.5 600.5,266.5C 533.833,266.5 467.167,266.5 400.5,266.5C 378.167,266.5 355.833,266.5 333.5,266.5C 333.5,311.167 333.5,355.833 333.5,400.5C 244.5,400.5 155.5,400.5 66.5,400.5C 66.5,355.833 66.5,311.167 66.5,266.5C 88.8333,266.5 111.167,266.5 133.5,266.5C 155.833,266.5 178.167,266.5 200.5,266.5C 200.5,222.167 200.5,177.833 200.5,133.5 Z"/></g>
<g><path style="opacity:1" fill="#20c5b4" d="M -0.5,266.5 C 21.8333,266.5 44.1667,266.5 66.5,266.5C 66.5,311.167 66.5,355.833 66.5,400.5C 44.1667,400.5 21.8333,400.5 -0.5,400.5C -0.5,355.833 -0.5,311.167 -0.5,266.5 Z"/></g>
<g><path style="opacity:1" fill="#533b0b" d="M 400.5,266.5 C 467.167,266.5 533.833,266.5 600.5,266.5C 600.5,288.833 600.5,311.167 600.5,333.5C 555.833,333.5 511.167,333.5 466.5,333.5C 466.5,533.167 466.5,732.833 466.5,932.5C 444.5,932.5 422.5,932.5 400.5,932.5C 400.5,710.5 400.5,488.5 400.5,266.5 Z"/></g>
<g><path style="opacity:1" fill="#20c5b4" d="M 666.5,266.5 C 688.833,266.5 711.167,266.5 733.5,266.5C 733.5,311.167 733.5,355.833 733.5,400.5C 711.167,400.5 688.833,400.5 666.5,400.5C 666.5,355.833 666.5,311.167 666.5,266.5 Z"/></g>
<g><path style="opacity:1" fill="#674e1d" d="M 600.5,333.5 C 600.5,533.167 600.5,732.833 600.5,932.5C 555.833,932.5 511.167,932.5 466.5,932.5C 466.5,732.833 466.5,533.167 466.5,333.5C 511.167,333.5 555.833,333.5 600.5,333.5 Z"/></g>
</svg>
