<?xml version="1.0" encoding="UTF-8"?>
<!DOCTYPE svg PUBLIC "-//W3C//DTD SVG 1.1//EN" "http://www.w3.org/Graphics/SVG/1.1/DTD/svg11.dtd">
<svg xmlns="http://www.w3.org/2000/svg" version="1.1" width="1000px" height="954px" style="shape-rendering:geometricPrecision; text-rendering:geometricPrecision; image-rendering:optimizeQuality; fill-rule:evenodd; clip-rule:evenodd" xmlns:xlink="http://www.w3.org/1999/xlink">
<g><path style="opacity:1" fill="#757675" d="M 500.5,0.5 C 500.5,30.8333 500.5,61.1667 500.5,91.5C 455.167,91.5 409.833,91.5 364.5,91.5C 364.5,76.1667 364.5,60.8333 364.5,45.5C 364.5,30.5 364.5,15.5 364.5,0.5C 409.833,0.5 455.167,0.5 500.5,0.5 Z"/></g>
<g><path style="opacity:1" fill="#a4a5a4" d="M 500.5,0.5 C 530.833,0.5 561.167,0.5 591.5,0.5C 591.5,15.5 591.5,30.5 591.5,45.5C 591.5,60.8333 591.5,76.1667 591.5,91.5C 561.167,91.5 530.833,91.5 500.5,91.5C 500.5,61.1667 500.5,30.8333 500.5,0.5 Z"/></g>
<g><path style="opacity:1" fill="#1c1a13" d="M 364.5,45.5 C 364.5,60.8333 364.5,76.1667 364.5,91.5C 409.833,91.5 455.167,91.5 500.5,91.5C 530.833,91.5 561.167,91.5 591.5,91.5C 591.5,106.5 591.5,121.5 591.5,136.5C 485.5,136.5 379.5,136.5 273.5,136.5C 273.5,257.5 273.5,378.5 273.5,499.5C 379.5,499.5 485.5,499.5 591.5,499.5C 591.5,529.833 591.5,560.167 591.5,590.5C 530.833,590.5 470.167,590.5 409.5,590.5C 409.5,711.5 409.5,832.5 409.5,953.5C 318.833,953.5 228.167,953.5 137.5,953.5C 137.5,832.5 137.5,711.5 137.5,590.5C 91.8333,590.5 46.1667,590.5 0.5,590.5C 0.5,408.833 0.5,227.167 0.5,45.5C 121.833,45.5 243.167,45.5 364.5,45.5 Z"/></g>
<g><path style="opacity:1" fill="#1c1a13" d="M 591.5,45.5 C 636.833,45.5 682.167,45.5 727.5,45.5C 727.5,60.8333 727.5,76.1667 727.5,91.5C 697.167,91.5 666.833,91.5 636.5,91.5C 621.5,91.5 606.5,91.5 591.5,91.5C 591.5,76.1667 591.5,60.8333 591.5,45.5 Z"/></g>
<g><path style="opacity:1" fill="#533b0b" d="M 591.5,91.5 C 606.5,91.5 621.5,91.5 636.5,91.5C 636.5,121.833 636.5,152.167 636.5,182.5C 621.5,182.5 606.5,182.5 591.5,182.5C 591.5,167.167 591.5,151.833 591.5,136.5C 591.5,121.5 591.5,106.5 591.5,91.5 Z"/></g>
<g><path style="opacity:1" fill="#674e1d" d="M 636.5,91.5 C 666.833,91.5 697.167,91.5 727.5,91.5C 727.5,121.833 727.5,152.167 727.5,182.5C 697.167,182.5 666.833,182.5 636.5,182.5C 636.5,152.167 636.5,121.833 636.5,91.5 Z"/></g>
<g><path style="opacity:1" fill="#855106" d="M 46.5,136.5 C 76.8333,136.5 107.167,136.5 137.5,136.5C 137.5,257.5 137.5,378.5 137.5,499.5C 107.167,499.5 76.8333,499.5 46.5,499.5C 46.5,378.5 46.5,257.5 46.5,136.5 Z"/></g>
<g><path style="opacity:1" fill="#683f04" d="M 591.5,136.5 C 591.5,151.833 591.5,167.167 591.5,182.5C 546.167,182.5 500.833,182.5 455.5,182.5C 440.167,182.5 424.833,182.5 409.5,182.5C 409.5,212.5 409.5,242.5 409.5,272.5C 394.5,272.5 379.5,272.5 364.5,272.5C 349.167,272.5 333.833,272.5 318.5,272.5C 318.5,302.833 318.5,333.167 318.5,363.5C 333.833,363.5 349.167,363.5 364.5,363.5C 424.833,363.5 485.167,363.5 545.5,363.5C 545.5,333.167 545.5,302.833 545.5,272.5C 560.833,272.5 576.167,272.5 591.5,272.5C 591.5,348.167 591.5,423.833 591.5,499.5C 485.5,499.5 379.5,499.5 273.5,499.5C 273.5,378.5 273.5,257.5 273.5,136.5C 379.5,136.5 485.5,136.5 591.5,136.5 Z"/></g>
<g><path style="opacity:1" fill="#a2a3a2" d="M 455.5,182.5 C 455.5,212.5 455.5,242.5 455.5,272.5C 440.167,272.5 424.833,272.5 409.5,272.5C 409.5,242.5 409.5,212.5 409.5,182.5C 424.833,182.5 440.167,182.5 455.5,182.5 Z"/></g>
<g><path style="opacity:1" fill="#d8d9d8" d="M 455.5,182.5 C 500.833,182.5 546.167,182.5 591.5,182.5C 606.5,182.5 621.5,182.5 636.5,182.5C 666.833,182.5 697.167,182.5 727.5,182.5C 788.167,182.5 848.833,182.5 909.5,182.5C 909.5,212.5 909.5,242.5 909.5,272.5C 939.5,272.5 969.5,272.5 999.5,272.5C 999.5,302.833 999.5,333.167 999.5,363.5C 939.167,363.5 878.833,363.5 818.5,363.5C 818.5,333.167 818.5,302.833 818.5,272.5C 803.5,272.5 788.5,272.5 773.5,272.5C 758.167,272.5 742.833,272.5 727.5,272.5C 682.167,272.5 636.833,272.5 591.5,272.5C 576.167,272.5 560.833,272.5 545.5,272.5C 545.5,302.833 545.5,333.167 545.5,363.5C 485.167,363.5 424.833,363.5 364.5,363.5C 364.5,333.167 364.5,302.833 364.5,272.5C 379.5,272.5 394.5,272.5 409.5,272.5C 424.833,272.5 440.167,272.5 455.5,272.5C 455.5,242.5 455.5,212.5 455.5,182.5 Z"/></g>
<g><path style="opacity:1" fill="#a2a3a2" d="M 364.5,272.5 C 364.5,302.833 364.5,333.167 364.5,363.5C 349.167,363.5 333.833,363.5 318.5,363.5C 318.5,333.167 318.5,302.833 318.5,272.5C 333.833,272.5 349.167,272.5 364.5,272.5 Z"/></g>
<g><path style="opacity:1" fill="#533b0b" d="M 591.5,272.5 C 636.833,272.5 682.167,272.5 727.5,272.5C 727.5,287.833 727.5,303.167 727.5,318.5C 697.167,318.5 666.833,318.5 636.5,318.5C 636.5,409.167 636.5,499.833 636.5,590.5C 621.5,590.5 606.5,590.5 591.5,590.5C 591.5,560.167 591.5,529.833 591.5,499.5C 591.5,423.833 591.5,348.167 591.5,272.5 Z"/></g>
<g><path style="opacity:1" fill="#a2a3a2" d="M 773.5,272.5 C 788.5,272.5 803.5,272.5 818.5,272.5C 818.5,302.833 818.5,333.167 818.5,363.5C 803.5,363.5 788.5,363.5 773.5,363.5C 773.5,333.167 773.5,302.833 773.5,272.5 Z"/></g>
<g><path style="opacity:1" fill="#674e1d" d="M 727.5,318.5 C 727.5,409.167 727.5,499.833 727.5,590.5C 697.167,590.5 666.833,590.5 636.5,590.5C 636.5,499.833 636.5,409.167 636.5,318.5C 666.833,318.5 697.167,318.5 727.5,318.5 Z"/></g>
<g><path style="opacity:1" fill="#443c2e" d="M 591.5,590.5 C 606.5,590.5 621.5,590.5 636.5,590.5C 666.833,590.5 697.167,590.5 727.5,590.5C 803.167,590.5 878.833,590.5 954.5,590.5C 954.5,711.5 954.5,832.5 954.5,953.5C 772.833,953.5 591.167,953.5 409.5,953.5C 409.5,832.5 409.5,711.5 409.5,590.5C 470.167,590.5 530.833,590.5 591.5,590.5 Z"/></g>
<g><path style="opacity:1" fill="#855106" d="M 182.5,681.5 C 243.167,681.5 303.833,681.5 364.5,681.5C 364.5,742.167 364.5,802.833 364.5,863.5C 303.833,863.5 243.167,863.5 182.5,863.5C 182.5,802.833 182.5,742.167 182.5,681.5 Z"/></g>
<g><path style="opacity:1" fill="#a66e1e" d="M 500.5,681.5 C 621.833,681.5 743.167,681.5 864.5,681.5C 864.5,742.167 864.5,802.833 864.5,863.5C 743.167,863.5 621.833,863.5 500.5,863.5C 500.5,802.833 500.5,742.167 500.5,681.5 Z"/></g>
</svg>
