<?xml version="1.0" encoding="UTF-8"?>
<!DOCTYPE svg PUBLIC "-//W3C//DTD SVG 1.1//EN" "http://www.w3.org/Graphics/SVG/1.1/DTD/svg11.dtd">
<svg xmlns="http://www.w3.org/2000/svg" version="1.1" width="1000px" height="833px" style="shape-rendering:geometricPrecision; text-rendering:geometricPrecision; image-rendering:optimizeQuality; fill-rule:evenodd; clip-rule:evenodd" xmlns:xlink="http://www.w3.org/1999/xlink">
<g><path style="opacity:1" fill="#bfc0bf" d="M -0.5,-0.5 C 55.1667,-0.5 110.833,-0.5 166.5,-0.5C 166.5,277.167 166.5,554.833 166.5,832.5C 110.833,832.5 55.1667,832.5 -0.5,832.5C -0.5,554.833 -0.5,277.167 -0.5,-0.5 Z"/></g>
<g><path style="opacity:1" fill="#fefffe" d="M 166.5,-0.5 C 444.167,-0.5 721.833,-0.5 999.5,-0.5C 999.5,277.167 999.5,554.833 999.5,832.5C 721.833,832.5 444.167,832.5 166.5,832.5C 166.5,554.833 166.5,277.167 166.5,-0.5 Z"/></g>
<g><path style="opacity:1" fill="#f0302a" d="M 250.5,83.5 C 472.833,83.5 695.167,83.5 917.5,83.5C 917.5,166.833 917.5,250.167 917.5,333.5C 861.833,333.5 806.167,333.5 750.5,333.5C 750.5,389.167 750.5,444.833 750.5,500.5C 722.833,500.5 695.167,500.5 667.5,500.5C 667.5,528.167 667.5,555.833 667.5,583.5C 556.167,583.5 444.833,583.5 333.5,583.5C 333.5,555.833 333.5,528.167 333.5,500.5C 305.833,500.5 278.167,500.5 250.5,500.5C 250.5,361.5 250.5,222.5 250.5,83.5 Z"/></g>
<g><path style="opacity:1" fill="#fefffe" d="M 750.5,166.5 C 778.167,166.5 805.833,166.5 833.5,166.5C 833.5,194.5 833.5,222.5 833.5,250.5C 805.833,250.5 778.167,250.5 750.5,250.5C 750.5,222.5 750.5,194.5 750.5,166.5 Z"/></g>
<g><path style="opacity:1" fill="#f0302a" d="M 250.5,667.5 C 417.167,667.5 583.833,667.5 750.5,667.5C 750.5,695.167 750.5,722.833 750.5,750.5C 583.833,750.5 417.167,750.5 250.5,750.5C 250.5,722.833 250.5,695.167 250.5,667.5 Z"/></g>
</svg>
