<?xml version="1.0" encoding="UTF-8"?>
<!DOCTYPE svg PUBLIC "-//W3C//DTD SVG 1.1//EN" "http://www.w3.org/Graphics/SVG/1.1/DTD/svg11.dtd">
<svg xmlns="http://www.w3.org/2000/svg" version="1.1" width="1000px" height="833px" style="shape-rendering:geometricPrecision; text-rendering:geometricPrecision; image-rendering:optimizeQuality; fill-rule:evenodd; clip-rule:evenodd" xmlns:xlink="http://www.w3.org/1999/xlink">
<g><path style="opacity:1" fill="#bfc0bf" d="M -0.5,-0.5 C 55.1667,-0.5 110.833,-0.5 166.5,-0.5C 166.5,277.167 166.5,554.833 166.5,832.5C 110.833,832.5 55.1667,832.5 -0.5,832.5C -0.5,554.833 -0.5,277.167 -0.5,-0.5 Z"/></g>
<g><path style="opacity:1" fill="#fefffe" d="M 166.5,-0.5 C 444.167,-0.5 721.833,-0.5 999.5,-0.5C 999.5,277.167 999.5,554.833 999.5,832.5C 721.833,832.5 444.167,832.5 166.5,832.5C 166.5,554.833 166.5,277.167 166.5,-0.5 Z"/></g>
<g><path style="opacity:1" fill="#d92121" d="M 666.5,249.5 C 638.5,249.5 610.5,249.5 582.5,249.5C 582.5,332.833 582.5,416.167 582.5,499.5C 554.833,499.5 527.167,499.5 499.5,499.5C 499.5,471.833 499.5,444.167 499.5,416.5C 471.833,416.5 444.167,416.5 416.5,416.5C 416.5,360.833 416.5,305.167 416.5,249.5C 444.167,249.5 471.833,249.5 499.5,249.5C 499.5,221.833 499.5,194.167 499.5,166.5C 527.167,166.5 554.833,166.5 582.5,166.5C 582.5,138.5 582.5,110.5 582.5,82.5C 610.5,82.5 638.5,82.5 666.5,82.5C 666.5,138.167 666.5,193.833 666.5,249.5 Z"/></g>
<g><path style="opacity:1" fill="#d92121" d="M 749.5,249.5 C 749.5,221.833 749.5,194.167 749.5,166.5C 777.167,166.5 804.833,166.5 832.5,166.5C 832.5,194.167 832.5,221.833 832.5,249.5C 804.833,249.5 777.167,249.5 749.5,249.5 Z"/></g>
<g><path style="opacity:1" fill="#fefffe" d="M 666.5,249.5 C 666.5,305.167 666.5,360.833 666.5,416.5C 694.167,416.5 721.833,416.5 749.5,416.5C 749.5,444.167 749.5,471.833 749.5,499.5C 693.833,499.5 638.167,499.5 582.5,499.5C 582.5,416.167 582.5,332.833 582.5,249.5C 610.5,249.5 638.5,249.5 666.5,249.5 Z"/></g>
<g><path style="opacity:1" fill="#d92121" d="M 666.5,249.5 C 694.167,249.5 721.833,249.5 749.5,249.5C 749.5,277.167 749.5,304.833 749.5,332.5C 777.167,332.5 804.833,332.5 832.5,332.5C 832.5,388.167 832.5,443.833 832.5,499.5C 804.833,499.5 777.167,499.5 749.5,499.5C 749.5,471.833 749.5,444.167 749.5,416.5C 721.833,416.5 694.167,416.5 666.5,416.5C 666.5,360.833 666.5,305.167 666.5,249.5 Z"/></g>
<g><path style="opacity:1" fill="#056bbf" d="M 499.5,499.5 C 527.167,499.5 554.833,499.5 582.5,499.5C 638.167,499.5 693.833,499.5 749.5,499.5C 777.167,499.5 804.833,499.5 832.5,499.5C 860.5,499.5 888.5,499.5 916.5,499.5C 916.5,527.167 916.5,554.833 916.5,582.5C 777.5,582.5 638.5,582.5 499.5,582.5C 499.5,610.167 499.5,637.833 499.5,665.5C 610.5,665.5 721.5,665.5 832.5,665.5C 832.5,693.5 832.5,721.5 832.5,749.5C 693.833,749.5 555.167,749.5 416.5,749.5C 416.5,721.5 416.5,693.5 416.5,665.5C 388.5,665.5 360.5,665.5 332.5,665.5C 332.5,637.833 332.5,610.167 332.5,582.5C 304.833,582.5 277.167,582.5 249.5,582.5C 249.5,554.833 249.5,527.167 249.5,499.5C 332.833,499.5 416.167,499.5 499.5,499.5 Z"/></g>
</svg>
