<?xml version="1.0" encoding="UTF-8"?>
<!DOCTYPE svg PUBLIC "-//W3C//DTD SVG 1.1//EN" "http://www.w3.org/Graphics/SVG/1.1/DTD/svg11.dtd">
<svg xmlns="http://www.w3.org/2000/svg" version="1.1" width="1000px" height="889px" style="shape-rendering:geometricPrecision; text-rendering:geometricPrecision; image-rendering:optimizeQuality; fill-rule:evenodd; clip-rule:evenodd" xmlns:xlink="http://www.w3.org/1999/xlink">
<g><path style="opacity:1" fill="#b4241f" d="M -0.5,-0.5 C 36.8333,-0.5 74.1667,-0.5 111.5,-0.5C 111.5,184.833 111.5,370.167 111.5,555.5C 74.1667,555.5 36.8333,555.5 -0.5,555.5C -0.5,370.167 -0.5,184.833 -0.5,-0.5 Z"/></g>
<g><path style="opacity:1" fill="#f0302a" d="M 111.5,-0.5 C 407.5,-0.5 703.5,-0.5 999.5,-0.5C 999.5,110.833 999.5,222.167 999.5,333.5C 925.833,333.5 852.167,333.5 778.5,333.5C 778.5,407.5 778.5,481.5 778.5,555.5C 741.5,555.5 704.5,555.5 667.5,555.5C 667.5,592.833 667.5,630.167 667.5,667.5C 519.167,667.5 370.833,667.5 222.5,667.5C 222.5,630.167 222.5,592.833 222.5,555.5C 185.5,555.5 148.5,555.5 111.5,555.5C 111.5,370.167 111.5,184.833 111.5,-0.5 Z M 778.5,111.5 C 815.5,111.5 852.5,111.5 889.5,111.5C 889.5,148.5 889.5,185.5 889.5,222.5C 852.5,222.5 815.5,222.5 778.5,222.5C 778.5,185.5 778.5,148.5 778.5,111.5 Z"/></g>
<g><path style="opacity:1" fill="#b4241f" d="M 111.5,555.5 C 148.5,555.5 185.5,555.5 222.5,555.5C 222.5,592.833 222.5,630.167 222.5,667.5C 185.5,667.5 148.5,667.5 111.5,667.5C 111.5,630.167 111.5,592.833 111.5,555.5 Z"/></g>
<g><path style="opacity:1" fill="#b4241f" d="M -0.5,778.5 C 36.8333,778.5 74.1667,778.5 111.5,778.5C 111.5,815.167 111.5,851.833 111.5,888.5C 74.1667,888.5 36.8333,888.5 -0.5,888.5C -0.5,851.833 -0.5,815.167 -0.5,778.5 Z"/></g>
<g><path style="opacity:1" fill="#f0302a" d="M 111.5,778.5 C 333.833,778.5 556.167,778.5 778.5,778.5C 778.5,815.167 778.5,851.833 778.5,888.5C 556.167,888.5 333.833,888.5 111.5,888.5C 111.5,851.833 111.5,815.167 111.5,778.5 Z"/></g>
</svg>
