<?xml version="1.0" encoding="UTF-8"?>
<!DOCTYPE svg PUBLIC "-//W3C//DTD SVG 1.1//EN" "http://www.w3.org/Graphics/SVG/1.1/DTD/svg11.dtd">
<svg xmlns="http://www.w3.org/2000/svg" version="1.1" width="894px" height="999px" style="shape-rendering:geometricPrecision; text-rendering:geometricPrecision; image-rendering:optimizeQuality; fill-rule:evenodd; clip-rule:evenodd" xmlns:xlink="http://www.w3.org/1999/xlink">
<g><path style="opacity:1" fill="#d92121" d="M 420.5,-0.5 C 455.5,-0.5 490.5,-0.5 525.5,-0.5C 525.5,69.5 525.5,139.5 525.5,209.5C 490.5,209.5 455.5,209.5 420.5,209.5C 420.5,314.833 420.5,420.167 420.5,525.5C 385.5,525.5 350.5,525.5 315.5,525.5C 315.5,490.5 315.5,455.5 315.5,420.5C 280.167,420.5 244.833,420.5 209.5,420.5C 209.5,350.167 209.5,279.833 209.5,209.5C 244.833,209.5 280.167,209.5 315.5,209.5C 315.5,174.5 315.5,139.5 315.5,104.5C 350.5,104.5 385.5,104.5 420.5,104.5C 420.5,69.5 420.5,34.5 420.5,-0.5 Z"/></g>
<g><path style="opacity:1" fill="#d92121" d="M 630.5,209.5 C 630.5,174.5 630.5,139.5 630.5,104.5C 665.5,104.5 700.5,104.5 735.5,104.5C 735.5,139.5 735.5,174.5 735.5,209.5C 700.5,209.5 665.5,209.5 630.5,209.5 Z"/></g>
<g><path style="opacity:1" fill="#d92121" d="M 525.5,209.5 C 560.5,209.5 595.5,209.5 630.5,209.5C 630.5,244.5 630.5,279.5 630.5,314.5C 665.5,314.5 700.5,314.5 735.5,314.5C 735.5,384.833 735.5,455.167 735.5,525.5C 700.5,525.5 665.5,525.5 630.5,525.5C 630.5,490.5 630.5,455.5 630.5,420.5C 595.5,420.5 560.5,420.5 525.5,420.5C 525.5,350.167 525.5,279.833 525.5,209.5 Z"/></g>
<g><path style="opacity:1" fill="#045190" d="M -0.5,577.5 C 17.1667,577.5 34.8333,577.5 52.5,577.5C 52.5,647.833 52.5,718.167 52.5,788.5C 34.8333,788.5 17.1667,788.5 -0.5,788.5C -0.5,718.167 -0.5,647.833 -0.5,577.5 Z"/></g>
<g><path style="opacity:1" fill="#056bbf" d="M 52.5,577.5 C 122.5,577.5 192.5,577.5 262.5,577.5C 262.5,612.833 262.5,648.167 262.5,683.5C 227.5,683.5 192.5,683.5 157.5,683.5C 157.5,700.833 157.5,718.167 157.5,735.5C 157.5,753.167 157.5,770.833 157.5,788.5C 139.833,788.5 122.167,788.5 104.5,788.5C 87.1667,788.5 69.8333,788.5 52.5,788.5C 52.5,718.167 52.5,647.833 52.5,577.5 Z"/></g>
<g><path style="opacity:1" fill="#045190" d="M 262.5,577.5 C 297.5,577.5 332.5,577.5 367.5,577.5C 367.5,612.833 367.5,648.167 367.5,683.5C 332.5,683.5 297.5,683.5 262.5,683.5C 262.5,648.167 262.5,612.833 262.5,577.5 Z"/></g>
<g><path style="opacity:1" fill="#056bbf" d="M 367.5,577.5 C 542.833,577.5 718.167,577.5 893.5,577.5C 893.5,612.833 893.5,648.167 893.5,683.5C 718.167,683.5 542.833,683.5 367.5,683.5C 367.5,648.167 367.5,612.833 367.5,577.5 Z"/></g>
<g><path style="opacity:1" fill="#045190" d="M 157.5,735.5 C 245.167,735.5 332.833,735.5 420.5,735.5C 420.5,770.5 420.5,805.5 420.5,840.5C 367.833,840.5 315.167,840.5 262.5,840.5C 262.5,823.167 262.5,805.833 262.5,788.5C 227.5,788.5 192.5,788.5 157.5,788.5C 157.5,770.833 157.5,753.167 157.5,735.5 Z"/></g>
<g><path style="opacity:1" fill="#056bbf" d="M 420.5,735.5 C 560.5,735.5 700.5,735.5 840.5,735.5C 840.5,770.5 840.5,805.5 840.5,840.5C 700.5,840.5 560.5,840.5 420.5,840.5C 420.5,805.5 420.5,770.5 420.5,735.5 Z"/></g>
<g><path style="opacity:1" fill="#045190" d="M 104.5,788.5 C 122.167,788.5 139.833,788.5 157.5,788.5C 157.5,823.5 157.5,858.5 157.5,893.5C 139.833,893.5 122.167,893.5 104.5,893.5C 104.5,858.5 104.5,823.5 104.5,788.5 Z"/></g>
<g><path style="opacity:1" fill="#056bbf" d="M 157.5,788.5 C 192.5,788.5 227.5,788.5 262.5,788.5C 262.5,805.833 262.5,823.167 262.5,840.5C 262.5,858.167 262.5,875.833 262.5,893.5C 227.5,893.5 192.5,893.5 157.5,893.5C 157.5,858.5 157.5,823.5 157.5,788.5 Z"/></g>
<g><path style="opacity:1" fill="#045190" d="M 262.5,893.5 C 315.167,893.5 367.833,893.5 420.5,893.5C 420.5,928.5 420.5,963.5 420.5,998.5C 367.833,998.5 315.167,998.5 262.5,998.5C 262.5,963.5 262.5,928.5 262.5,893.5 Z"/></g>
<g><path style="opacity:1" fill="#056bbf" d="M 420.5,893.5 C 525.5,893.5 630.5,893.5 735.5,893.5C 735.5,928.5 735.5,963.5 735.5,998.5C 630.5,998.5 525.5,998.5 420.5,998.5C 420.5,963.5 420.5,928.5 420.5,893.5 Z"/></g>
</svg>
