<?xml version="1.0" encoding="UTF-8"?>
<!DOCTYPE svg PUBLIC "-//W3C//DTD SVG 1.1//EN" "http://www.w3.org/Graphics/SVG/1.1/DTD/svg11.dtd">
<svg xmlns="http://www.w3.org/2000/svg" version="1.1" width="999px" height="894px" style="shape-rendering:geometricPrecision; text-rendering:geometricPrecision; image-rendering:optimizeQuality; fill-rule:evenodd; clip-rule:evenodd" xmlns:xlink="http://www.w3.org/1999/xlink">
<g><path style="opacity:1" fill="#bf0000" d="M 209.5,-0.5 C 244.5,-0.5 279.5,-0.5 314.5,-0.5C 314.5,52.1667 314.5,104.833 314.5,157.5C 279.5,157.5 244.5,157.5 209.5,157.5C 209.5,104.833 209.5,52.1667 209.5,-0.5 Z"/></g>
<g><path style="opacity:1" fill="#fe0000" d="M 314.5,-0.5 C 384.833,-0.5 455.167,-0.5 525.5,-0.5C 525.5,52.1667 525.5,104.833 525.5,157.5C 455.167,157.5 384.833,157.5 314.5,157.5C 314.5,104.833 314.5,52.1667 314.5,-0.5 Z"/></g>
<g><path style="opacity:1" fill="#fe0063" d="M 525.5,-0.5 C 595.5,-0.5 665.5,-0.5 735.5,-0.5C 735.5,52.1667 735.5,104.833 735.5,157.5C 665.5,157.5 595.5,157.5 525.5,157.5C 525.5,104.833 525.5,52.1667 525.5,-0.5 Z"/></g>
<g><path style="opacity:1" fill="#e900ff" d="M 735.5,-0.5 C 823.167,-0.5 910.833,-0.5 998.5,-0.5C 998.5,87.1667 998.5,174.833 998.5,262.5C 945.833,262.5 893.167,262.5 840.5,262.5C 840.5,227.5 840.5,192.5 840.5,157.5C 805.5,157.5 770.5,157.5 735.5,157.5C 735.5,104.833 735.5,52.1667 735.5,-0.5 Z"/></g>
<g><path style="opacity:1" fill="#000000" d="M 209.5,157.5 C 244.5,157.5 279.5,157.5 314.5,157.5C 384.833,157.5 455.167,157.5 525.5,157.5C 595.5,157.5 665.5,157.5 735.5,157.5C 770.5,157.5 805.5,157.5 840.5,157.5C 840.5,192.5 840.5,227.5 840.5,262.5C 840.5,332.5 840.5,402.5 840.5,472.5C 840.5,542.833 840.5,613.167 840.5,683.5C 840.5,718.5 840.5,753.5 840.5,788.5C 805.5,788.5 770.5,788.5 735.5,788.5C 665.5,788.5 595.5,788.5 525.5,788.5C 455.167,788.5 384.833,788.5 314.5,788.5C 279.5,788.5 244.5,788.5 209.5,788.5C 209.5,753.5 209.5,718.5 209.5,683.5C 209.5,613.167 209.5,542.833 209.5,472.5C 209.5,402.5 209.5,332.5 209.5,262.5C 174.5,262.5 139.5,262.5 104.5,262.5C 104.5,227.5 104.5,192.5 104.5,157.5C 139.5,157.5 174.5,157.5 209.5,157.5 Z"/></g>
<g><path style="opacity:1" fill="#bf3900" d="M -0.5,262.5 C 34.5,262.5 69.5,262.5 104.5,262.5C 104.5,332.5 104.5,402.5 104.5,472.5C 69.5,472.5 34.5,472.5 -0.5,472.5C -0.5,402.5 -0.5,332.5 -0.5,262.5 Z"/></g>
<g><path style="opacity:1" fill="#fe4b00" d="M 104.5,262.5 C 139.5,262.5 174.5,262.5 209.5,262.5C 209.5,332.5 209.5,402.5 209.5,472.5C 174.5,472.5 139.5,472.5 104.5,472.5C 104.5,402.5 104.5,332.5 104.5,262.5 Z"/></g>
<g><path style="opacity:1" fill="#fe0063" d="M 840.5,262.5 C 893.167,262.5 945.833,262.5 998.5,262.5C 998.5,332.5 998.5,402.5 998.5,472.5C 945.833,472.5 893.167,472.5 840.5,472.5C 840.5,402.5 840.5,332.5 840.5,262.5 Z"/></g>
<g><path style="opacity:1" fill="#bf7100" d="M -0.5,472.5 C 34.5,472.5 69.5,472.5 104.5,472.5C 104.5,542.833 104.5,613.167 104.5,683.5C 69.5,683.5 34.5,683.5 -0.5,683.5C -0.5,613.167 -0.5,542.833 -0.5,472.5 Z"/></g>
<g><path style="opacity:1" fill="#fe9600" d="M 104.5,472.5 C 139.5,472.5 174.5,472.5 209.5,472.5C 209.5,542.833 209.5,613.167 209.5,683.5C 174.5,683.5 139.5,683.5 104.5,683.5C 104.5,613.167 104.5,542.833 104.5,472.5 Z"/></g>
<g><path style="opacity:1" fill="#fe0000" d="M 840.5,472.5 C 893.167,472.5 945.833,472.5 998.5,472.5C 998.5,542.833 998.5,613.167 998.5,683.5C 945.833,683.5 893.167,683.5 840.5,683.5C 840.5,613.167 840.5,542.833 840.5,472.5 Z"/></g>
<g><path style="opacity:1" fill="#fefffe" d="M 314.5,577.5 C 419.833,577.5 525.167,577.5 630.5,577.5C 630.5,612.833 630.5,648.167 630.5,683.5C 525.167,683.5 419.833,683.5 314.5,683.5C 314.5,648.167 314.5,612.833 314.5,577.5 Z"/></g>
<g><path style="opacity:1" fill="#bfab00" d="M -0.5,683.5 C 34.5,683.5 69.5,683.5 104.5,683.5C 104.5,753.5 104.5,823.5 104.5,893.5C 69.5,893.5 34.5,893.5 -0.5,893.5C -0.5,823.5 -0.5,753.5 -0.5,683.5 Z"/></g>
<g><path style="opacity:1" fill="#fee200" d="M 104.5,683.5 C 139.5,683.5 174.5,683.5 209.5,683.5C 209.5,718.5 209.5,753.5 209.5,788.5C 244.5,788.5 279.5,788.5 314.5,788.5C 314.5,823.5 314.5,858.5 314.5,893.5C 244.5,893.5 174.5,893.5 104.5,893.5C 104.5,823.5 104.5,753.5 104.5,683.5 Z"/></g>
<g><path style="opacity:1" fill="#fe9600" d="M 314.5,788.5 C 384.833,788.5 455.167,788.5 525.5,788.5C 525.5,823.5 525.5,858.5 525.5,893.5C 455.167,893.5 384.833,893.5 314.5,893.5C 314.5,858.5 314.5,823.5 314.5,788.5 Z"/></g>
<g><path style="opacity:1" fill="#fe4b00" d="M 525.5,788.5 C 595.5,788.5 665.5,788.5 735.5,788.5C 735.5,823.5 735.5,858.5 735.5,893.5C 665.5,893.5 595.5,893.5 525.5,893.5C 525.5,858.5 525.5,823.5 525.5,788.5 Z"/></g>
</svg>
