<?xml version="1.0" encoding="UTF-8"?>
<!DOCTYPE svg PUBLIC "-//W3C//DTD SVG 1.1//EN" "http://www.w3.org/Graphics/SVG/1.1/DTD/svg11.dtd">
<svg xmlns="http://www.w3.org/2000/svg" version="1.1" width="1000px" height="900px" style="shape-rendering:geometricPrecision; text-rendering:geometricPrecision; image-rendering:optimizeQuality; fill-rule:evenodd; clip-rule:evenodd" xmlns:xlink="http://www.w3.org/1999/xlink">
<g><path style="opacity:1" fill="#528333" d="M -0.5,-0.5 C 33.1667,-0.5 66.8333,-0.5 100.5,-0.5C 100.5,99.8333 100.5,200.167 100.5,300.5C 66.8333,300.5 33.1667,300.5 -0.5,300.5C -0.5,200.167 -0.5,99.8333 -0.5,-0.5 Z"/></g>
<g><path style="opacity:1" fill="#6fb045" d="M 100.5,-0.5 C 400.167,-0.5 699.833,-0.5 999.5,-0.5C 999.5,99.8333 999.5,200.167 999.5,300.5C 933.167,300.5 866.833,300.5 800.5,300.5C 800.5,267.167 800.5,233.833 800.5,200.5C 767.167,200.5 733.833,200.5 700.5,200.5C 700.5,233.833 700.5,267.167 700.5,300.5C 667.167,300.5 633.833,300.5 600.5,300.5C 600.5,267.167 600.5,233.833 600.5,200.5C 567.167,200.5 533.833,200.5 500.5,200.5C 500.5,167.167 500.5,133.833 500.5,100.5C 467.167,100.5 433.833,100.5 400.5,100.5C 400.5,167.167 400.5,233.833 400.5,300.5C 367.167,300.5 333.833,300.5 300.5,300.5C 300.5,267.167 300.5,233.833 300.5,200.5C 267.167,200.5 233.833,200.5 200.5,200.5C 200.5,233.833 200.5,267.167 200.5,300.5C 167.167,300.5 133.833,300.5 100.5,300.5C 100.5,200.167 100.5,99.8333 100.5,-0.5 Z"/></g>
<g><path style="opacity:1" fill="#785539" d="M 999.5,300.5 C 999.5,500.167 999.5,699.833 999.5,899.5C 699.833,899.5 400.167,899.5 100.5,899.5C 100.5,849.833 100.5,800.167 100.5,750.5C 117.167,750.5 133.833,750.5 150.5,750.5C 150.5,733.833 150.5,717.167 150.5,700.5C 133.833,700.5 117.167,700.5 100.5,700.5C 100.5,567.167 100.5,433.833 100.5,300.5C 133.833,300.5 167.167,300.5 200.5,300.5C 200.5,267.167 200.5,233.833 200.5,200.5C 233.833,200.5 267.167,200.5 300.5,200.5C 300.5,233.833 300.5,267.167 300.5,300.5C 333.833,300.5 367.167,300.5 400.5,300.5C 400.5,233.833 400.5,167.167 400.5,100.5C 433.833,100.5 467.167,100.5 500.5,100.5C 500.5,133.833 500.5,167.167 500.5,200.5C 533.833,200.5 567.167,200.5 600.5,200.5C 600.5,233.833 600.5,267.167 600.5,300.5C 633.833,300.5 667.167,300.5 700.5,300.5C 700.5,267.167 700.5,233.833 700.5,200.5C 733.833,200.5 767.167,200.5 800.5,200.5C 800.5,233.833 800.5,267.167 800.5,300.5C 866.833,300.5 933.167,300.5 999.5,300.5 Z"/></g>
<g><path style="opacity:1" fill="#593f2a" d="M -0.5,300.5 C 33.1667,300.5 66.8333,300.5 100.5,300.5C 100.5,433.833 100.5,567.167 100.5,700.5C 100.5,717.167 100.5,733.833 100.5,750.5C 100.5,800.167 100.5,849.833 100.5,899.5C 66.8333,899.5 33.1667,899.5 -0.5,899.5C -0.5,699.833 -0.5,500.167 -0.5,300.5 Z"/></g>
<g><path style="opacity:1" fill="#fefffe" d="M 300.5,750.5 C 300.5,700.5 300.5,650.5 300.5,600.5C 250.5,600.5 200.5,600.5 150.5,600.5C 150.5,583.833 150.5,567.167 150.5,550.5C 217.167,550.5 283.833,550.5 350.5,550.5C 350.5,617.167 350.5,683.833 350.5,750.5C 333.833,750.5 317.167,750.5 300.5,750.5 Z"/></g>
<g><path style="opacity:1" fill="#fefffe" d="M 500.5,650.5 C 483.833,650.5 467.167,650.5 450.5,650.5C 450.5,700.5 450.5,750.5 450.5,800.5C 433.833,800.5 417.167,800.5 400.5,800.5C 400.5,717.167 400.5,633.833 400.5,550.5C 417.167,550.5 433.833,550.5 450.5,550.5C 450.5,567.167 450.5,583.833 450.5,600.5C 467.167,600.5 483.833,600.5 500.5,600.5C 500.5,617.167 500.5,633.833 500.5,650.5 Z"/></g>
<g><path style="opacity:1" fill="#fefffe" d="M 550.5,650.5 C 550.5,633.833 550.5,617.167 550.5,600.5C 567.167,600.5 583.833,600.5 600.5,600.5C 600.5,583.833 600.5,567.167 600.5,550.5C 617.167,550.5 633.833,550.5 650.5,550.5C 650.5,633.833 650.5,717.167 650.5,800.5C 633.833,800.5 617.167,800.5 600.5,800.5C 600.5,750.5 600.5,700.5 600.5,650.5C 583.833,650.5 567.167,650.5 550.5,650.5 Z"/></g>
<g><path style="opacity:1" fill="#fefffe" d="M 900.5,600.5 C 850.5,600.5 800.5,600.5 750.5,600.5C 750.5,583.833 750.5,567.167 750.5,550.5C 800.5,550.5 850.5,550.5 900.5,550.5C 900.5,567.167 900.5,583.833 900.5,600.5 Z"/></g>
<g><path style="opacity:1" fill="#fefffe" d="M 750.5,600.5 C 750.5,650.5 750.5,700.5 750.5,750.5C 733.833,750.5 717.167,750.5 700.5,750.5C 700.5,700.5 700.5,650.5 700.5,600.5C 717.167,600.5 733.833,600.5 750.5,600.5 Z"/></g>
<g><path style="opacity:1" fill="#fefffe" d="M 900.5,600.5 C 917.167,600.5 933.833,600.5 950.5,600.5C 950.5,617.167 950.5,633.833 950.5,650.5C 933.833,650.5 917.167,650.5 900.5,650.5C 900.5,633.833 900.5,617.167 900.5,600.5 Z"/></g>
<g><path style="opacity:1" fill="#fefffe" d="M 500.5,650.5 C 517.167,650.5 533.833,650.5 550.5,650.5C 550.5,667.167 550.5,683.833 550.5,700.5C 533.833,700.5 517.167,700.5 500.5,700.5C 500.5,683.833 500.5,667.167 500.5,650.5 Z"/></g>
<g><path style="opacity:1" fill="#fefffe" d="M 100.5,700.5 C 117.167,700.5 133.833,700.5 150.5,700.5C 150.5,717.167 150.5,733.833 150.5,750.5C 133.833,750.5 117.167,750.5 100.5,750.5C 100.5,733.833 100.5,717.167 100.5,700.5 Z"/></g>
<g><path style="opacity:1" fill="#fefffe" d="M 900.5,750.5 C 900.5,733.833 900.5,717.167 900.5,700.5C 917.167,700.5 933.833,700.5 950.5,700.5C 950.5,717.167 950.5,733.833 950.5,750.5C 933.833,750.5 917.167,750.5 900.5,750.5 Z"/></g>
<g><path style="opacity:1" fill="#fefffe" d="M 150.5,750.5 C 200.5,750.5 250.5,750.5 300.5,750.5C 300.5,767.167 300.5,783.833 300.5,800.5C 250.5,800.5 200.5,800.5 150.5,800.5C 150.5,783.833 150.5,767.167 150.5,750.5 Z"/></g>
<g><path style="opacity:1" fill="#fefffe" d="M 750.5,750.5 C 800.5,750.5 850.5,750.5 900.5,750.5C 900.5,767.167 900.5,783.833 900.5,800.5C 850.5,800.5 800.5,800.5 750.5,800.5C 750.5,783.833 750.5,767.167 750.5,750.5 Z"/></g>
</svg>
