<?xml version="1.0" encoding="UTF-8"?>
<!DOCTYPE svg PUBLIC "-//W3C//DTD SVG 1.1//EN" "http://www.w3.org/Graphics/SVG/1.1/DTD/svg11.dtd">
<svg xmlns="http://www.w3.org/2000/svg" version="1.1" width="256px" height="256px" style="shape-rendering:geometricPrecision; text-rendering:geometricPrecision; image-rendering:optimizeQuality; fill-rule:evenodd; clip-rule:evenodd" xmlns:xlink="http://www.w3.org/1999/xlink">
<g><path style="opacity:1" fill="#303130" d="M -0.5,47.5 C 10.1667,47.5 20.8333,47.5 31.5,47.5C 31.5,68.8333 31.5,90.1667 31.5,111.5C 31.5,143.5 31.5,175.5 31.5,207.5C 20.8333,207.5 10.1667,207.5 -0.5,207.5C -0.5,154.167 -0.5,100.833 -0.5,47.5 Z"/></g>
<g><path style="opacity:1" fill="#505150" d="M 31.5,47.5 C 52.8333,47.5 74.1667,47.5 95.5,47.5C 95.5,58.1667 95.5,68.8333 95.5,79.5C 84.8333,79.5 74.1667,79.5 63.5,79.5C 63.5,90.1667 63.5,100.833 63.5,111.5C 52.8333,111.5 42.1667,111.5 31.5,111.5C 31.5,90.1667 31.5,68.8333 31.5,47.5 Z"/></g>
<g><path style="opacity:1" fill="#3f403f" d="M 95.5,47.5 C 148.833,47.5 202.167,47.5 255.5,47.5C 255.5,79.5 255.5,111.5 255.5,143.5C 244.833,143.5 234.167,143.5 223.5,143.5C 223.5,154.167 223.5,164.833 223.5,175.5C 212.833,175.5 202.167,175.5 191.5,175.5C 191.5,154.167 191.5,132.833 191.5,111.5C 191.5,100.833 191.5,90.1667 191.5,79.5C 159.5,79.5 127.5,79.5 95.5,79.5C 95.5,68.8333 95.5,58.1667 95.5,47.5 Z"/></g>
<g><path style="opacity:1" fill="#3f403f" d="M 95.5,79.5 C 95.5,100.833 95.5,122.167 95.5,143.5C 95.5,154.167 95.5,164.833 95.5,175.5C 127.5,175.5 159.5,175.5 191.5,175.5C 191.5,186.167 191.5,196.833 191.5,207.5C 138.167,207.5 84.8333,207.5 31.5,207.5C 31.5,175.5 31.5,143.5 31.5,111.5C 42.1667,111.5 52.8333,111.5 63.5,111.5C 63.5,100.833 63.5,90.1667 63.5,79.5C 74.1667,79.5 84.8333,79.5 95.5,79.5 Z"/></g>
<g><path style="opacity:1" fill="#31a2f2" d="M 95.5,79.5 C 127.5,79.5 159.5,79.5 191.5,79.5C 191.5,90.1667 191.5,100.833 191.5,111.5C 180.833,111.5 170.167,111.5 159.5,111.5C 148.833,111.5 138.167,111.5 127.5,111.5C 127.5,122.167 127.5,132.833 127.5,143.5C 116.833,143.5 106.167,143.5 95.5,143.5C 95.5,122.167 95.5,100.833 95.5,79.5 Z"/></g>
<g><path style="opacity:1" fill="#252625" d="M 159.5,111.5 C 159.5,122.167 159.5,132.833 159.5,143.5C 148.833,143.5 138.167,143.5 127.5,143.5C 127.5,132.833 127.5,122.167 127.5,111.5C 138.167,111.5 148.833,111.5 159.5,111.5 Z"/></g>
<g><path style="opacity:1" fill="#5fc545" d="M 159.5,111.5 C 170.167,111.5 180.833,111.5 191.5,111.5C 191.5,132.833 191.5,154.167 191.5,175.5C 159.5,175.5 127.5,175.5 95.5,175.5C 95.5,164.833 95.5,154.167 95.5,143.5C 106.167,143.5 116.833,143.5 127.5,143.5C 138.167,143.5 148.833,143.5 159.5,143.5C 159.5,132.833 159.5,122.167 159.5,111.5 Z"/></g>
<g><path style="opacity:1" fill="#505150" d="M 255.5,143.5 C 255.5,164.833 255.5,186.167 255.5,207.5C 234.167,207.5 212.833,207.5 191.5,207.5C 191.5,196.833 191.5,186.167 191.5,175.5C 202.167,175.5 212.833,175.5 223.5,175.5C 223.5,164.833 223.5,154.167 223.5,143.5C 234.167,143.5 244.833,143.5 255.5,143.5 Z"/></g>
</svg>
