<?xml version="1.0" encoding="UTF-8"?>
<!DOCTYPE svg PUBLIC "-//W3C//DTD SVG 1.1//EN" "http://www.w3.org/Graphics/SVG/1.1/DTD/svg11.dtd">
<svg xmlns="http://www.w3.org/2000/svg" version="1.1" width="256px" height="256px" style="shape-rendering:geometricPrecision; text-rendering:geometricPrecision; image-rendering:optimizeQuality; fill-rule:evenodd; clip-rule:evenodd" xmlns:xlink="http://www.w3.org/1999/xlink">
<g><path style="opacity:1" fill="#757675" d="M 127.5,11.5 C 127.5,19.1667 127.5,26.8333 127.5,34.5C 116.167,34.5 104.833,34.5 93.5,34.5C 93.5,30.8333 93.5,27.1667 93.5,23.5C 93.5,19.5 93.5,15.5 93.5,11.5C 104.833,11.5 116.167,11.5 127.5,11.5 Z"/></g>
<g><path style="opacity:1" fill="#a4a5a4" d="M 127.5,11.5 C 135.5,11.5 143.5,11.5 151.5,11.5C 151.5,15.5 151.5,19.5 151.5,23.5C 151.5,27.1667 151.5,30.8333 151.5,34.5C 143.5,34.5 135.5,34.5 127.5,34.5C 127.5,26.8333 127.5,19.1667 127.5,11.5 Z"/></g>
<g><path style="opacity:1" fill="#1c1a13" d="M 93.5,23.5 C 93.5,27.1667 93.5,30.8333 93.5,34.5C 104.833,34.5 116.167,34.5 127.5,34.5C 135.5,34.5 143.5,34.5 151.5,34.5C 151.5,30.8333 151.5,27.1667 151.5,23.5C 163.167,23.5 174.833,23.5 186.5,23.5C 186.5,35.1667 186.5,46.8333 186.5,58.5C 178.5,58.5 170.5,58.5 162.5,58.5C 162.5,54.5 162.5,50.5 162.5,46.5C 131.5,46.5 100.5,46.5 69.5,46.5C 69.5,50.5 69.5,54.5 69.5,58.5C 69.5,93.1667 69.5,127.833 69.5,162.5C 77.5,162.5 85.5,162.5 93.5,162.5C 101.167,162.5 108.833,162.5 116.5,162.5C 116.5,193.5 116.5,224.5 116.5,255.5C 93.1667,255.5 69.8333,255.5 46.5,255.5C 46.5,224.5 46.5,193.5 46.5,162.5C 31.1667,162.5 15.8333,162.5 0.5,162.5C 0.5,116.167 0.5,69.8333 0.5,23.5C 31.5,23.5 62.5,23.5 93.5,23.5 Z"/></g>
<g><path style="opacity:1" fill="#855106" d="M 11.5,46.5 C 19.1667,46.5 26.8333,46.5 34.5,46.5C 34.5,77.5 34.5,108.5 34.5,139.5C 26.8333,139.5 19.1667,139.5 11.5,139.5C 11.5,108.5 11.5,77.5 11.5,46.5 Z"/></g>
<g><path style="opacity:1" fill="#683f04" d="M 162.5,58.5 C 154.833,58.5 147.167,58.5 139.5,58.5C 124.167,58.5 108.833,58.5 93.5,58.5C 85.5,58.5 77.5,58.5 69.5,58.5C 69.5,54.5 69.5,50.5 69.5,46.5C 100.5,46.5 131.5,46.5 162.5,46.5C 162.5,50.5 162.5,54.5 162.5,58.5 Z"/></g>
<g><path style="opacity:1" fill="#303130" d="M 69.5,58.5 C 77.5,58.5 85.5,58.5 93.5,58.5C 93.5,73.8333 93.5,89.1667 93.5,104.5C 93.5,123.833 93.5,143.167 93.5,162.5C 85.5,162.5 77.5,162.5 69.5,162.5C 69.5,127.833 69.5,93.1667 69.5,58.5 Z"/></g>
<g><path style="opacity:1" fill="#505150" d="M 93.5,58.5 C 108.833,58.5 124.167,58.5 139.5,58.5C 139.5,66.1667 139.5,73.8333 139.5,81.5C 131.833,81.5 124.167,81.5 116.5,81.5C 116.5,89.1667 116.5,96.8333 116.5,104.5C 108.833,104.5 101.167,104.5 93.5,104.5C 93.5,89.1667 93.5,73.8333 93.5,58.5 Z"/></g>
<g><path style="opacity:1" fill="#3f403f" d="M 139.5,58.5 C 147.167,58.5 154.833,58.5 162.5,58.5C 170.5,58.5 178.5,58.5 186.5,58.5C 209.5,58.5 232.5,58.5 255.5,58.5C 255.5,81.5 255.5,104.5 255.5,127.5C 247.833,127.5 240.167,127.5 232.5,127.5C 232.5,135.5 232.5,143.5 232.5,151.5C 224.833,151.5 217.167,151.5 209.5,151.5C 209.5,135.833 209.5,120.167 209.5,104.5C 209.5,96.8333 209.5,89.1667 209.5,81.5C 186.167,81.5 162.833,81.5 139.5,81.5C 139.5,73.8333 139.5,66.1667 139.5,58.5 Z"/></g>
<g><path style="opacity:1" fill="#3f403f" d="M 139.5,81.5 C 139.5,96.8333 139.5,112.167 139.5,127.5C 139.5,135.5 139.5,143.5 139.5,151.5C 162.833,151.5 186.167,151.5 209.5,151.5C 209.5,155.167 209.5,158.833 209.5,162.5C 178.5,162.5 147.5,162.5 116.5,162.5C 108.833,162.5 101.167,162.5 93.5,162.5C 93.5,143.167 93.5,123.833 93.5,104.5C 101.167,104.5 108.833,104.5 116.5,104.5C 116.5,96.8333 116.5,89.1667 116.5,81.5C 124.167,81.5 131.833,81.5 139.5,81.5 Z"/></g>
<g><path style="opacity:1" fill="#31a2f2" d="M 139.5,81.5 C 162.833,81.5 186.167,81.5 209.5,81.5C 209.5,89.1667 209.5,96.8333 209.5,104.5C 201.833,104.5 194.167,104.5 186.5,104.5C 178.5,104.5 170.5,104.5 162.5,104.5C 162.5,112.167 162.5,119.833 162.5,127.5C 154.833,127.5 147.167,127.5 139.5,127.5C 139.5,112.167 139.5,96.8333 139.5,81.5 Z"/></g>
<g><path style="opacity:1" fill="#252625" d="M 186.5,104.5 C 186.5,112.167 186.5,119.833 186.5,127.5C 178.5,127.5 170.5,127.5 162.5,127.5C 162.5,119.833 162.5,112.167 162.5,104.5C 170.5,104.5 178.5,104.5 186.5,104.5 Z"/></g>
<g><path style="opacity:1" fill="#5fc545" d="M 186.5,104.5 C 194.167,104.5 201.833,104.5 209.5,104.5C 209.5,120.167 209.5,135.833 209.5,151.5C 186.167,151.5 162.833,151.5 139.5,151.5C 139.5,143.5 139.5,135.5 139.5,127.5C 147.167,127.5 154.833,127.5 162.5,127.5C 170.5,127.5 178.5,127.5 186.5,127.5C 186.5,119.833 186.5,112.167 186.5,104.5 Z"/></g>
<g><path style="opacity:1" fill="#505150" d="M 255.5,127.5 C 255.5,139.167 255.5,150.833 255.5,162.5C 240.167,162.5 224.833,162.5 209.5,162.5C 209.5,158.833 209.5,155.167 209.5,151.5C 217.167,151.5 224.833,151.5 232.5,151.5C 232.5,143.5 232.5,135.5 232.5,127.5C 240.167,127.5 247.833,127.5 255.5,127.5 Z"/></g>
<g><path style="opacity:1" fill="#443c2e" d="M 116.5,162.5 C 147.5,162.5 178.5,162.5 209.5,162.5C 224.833,162.5 240.167,162.5 255.5,162.5C 255.5,193.5 255.5,224.5 255.5,255.5C 209.167,255.5 162.833,255.5 116.5,255.5C 116.5,224.5 116.5,193.5 116.5,162.5 Z"/></g>
<g><path style="opacity:1" fill="#855106" d="M 58.5,186.5 C 73.8333,186.5 89.1667,186.5 104.5,186.5C 104.5,201.833 104.5,217.167 104.5,232.5C 89.1667,232.5 73.8333,232.5 58.5,232.5C 58.5,217.167 58.5,201.833 58.5,186.5 Z"/></g>
<g><path style="opacity:1" fill="#a66e1e" d="M 139.5,186.5 C 170.5,186.5 201.5,186.5 232.5,186.5C 232.5,201.833 232.5,217.167 232.5,232.5C 201.5,232.5 170.5,232.5 139.5,232.5C 139.5,217.167 139.5,201.833 139.5,186.5 Z"/></g>
</svg>
