<svg xmlns="http://www.w3.org/2000/svg" viewBox="0 -0.5 16 16" shape-rendering="crispEdges">
<path stroke="#897e4e" d="M1 0h1M0 1h1M2 1h1M0 2h1M2 2h1M2 3h1M2 4h1M2 5h1M2 6h1M2 7h1M2 8h1M2 9h1M2 10h1M2 11h1M2 12h1M2 13h1M2 14h1M4 14h1M3 15h1" />
<path stroke="#d2d2b2" d="M2 0h11M5 14h11" />
<path stroke="#74693b" d="M1 1h1M1 2h1" />
<path stroke="#bebe9e" d="M3 1h11M3 2h4M9 2h5M3 3h4M11 3h3M3 4h4M9 4h5M3 5h4M11 5h3M3 6h4M9 6h5M3 7h4M9 7h5M3 8h3M11 8h3M3 9h3M11 9h3M3 10h3M8 10h1M11 10h3M3 11h3M11 11h3M3 12h3M11 12h3M3 13h11M3 14h1M4 15h12" />
<path stroke="#beb401" d="M7 2h2M7 3h4M7 4h2M7 5h4M7 6h2M7 7h2M6 8h5M6 9h5M6 10h2M9 10h2M6 11h5M6 12h5" />
</svg>