<?xml version="1.0" encoding="UTF-8"?>
<!DOCTYPE svg PUBLIC "-//W3C//DTD SVG 1.1//EN" "http://www.w3.org/Graphics/SVG/1.1/DTD/svg11.dtd">
<svg xmlns="http://www.w3.org/2000/svg" version="1.1" width="1000px" height="521px" style="shape-rendering:geometricPrecision; text-rendering:geometricPrecision; image-rendering:optimizeQuality; fill-rule:evenodd; clip-rule:evenodd" xmlns:xlink="http://www.w3.org/1999/xlink">
<g><path style="opacity:1" fill="#a78927" d="M -0.5,-0.5 C 71.8333,-0.5 144.167,-0.5 216.5,-0.5C 216.5,28.5 216.5,57.5 216.5,86.5C 202.167,86.5 187.833,86.5 173.5,86.5C 173.5,115.5 173.5,144.5 173.5,173.5C 158.833,173.5 144.167,173.5 129.5,173.5C 129.5,144.5 129.5,115.5 129.5,86.5C 115.167,86.5 100.833,86.5 86.5,86.5C 86.5,115.5 86.5,144.5 86.5,173.5C 71.8333,173.5 57.1667,173.5 42.5,173.5C 42.5,144.5 42.5,115.5 42.5,86.5C 28.1667,86.5 13.8333,86.5 -0.5,86.5C -0.5,57.5 -0.5,28.5 -0.5,-0.5 Z"/></g>
<g><path style="opacity:1" fill="#deb533" d="M 216.5,-0.5 C 245.5,-0.5 274.5,-0.5 303.5,-0.5C 303.5,28.5 303.5,57.5 303.5,86.5C 303.5,115.5 303.5,144.5 303.5,173.5C 361.5,173.5 419.5,173.5 477.5,173.5C 477.5,202.5 477.5,231.5 477.5,260.5C 448.5,260.5 419.5,260.5 390.5,260.5C 361.5,260.5 332.5,260.5 303.5,260.5C 289.167,260.5 274.833,260.5 260.5,260.5C 245.833,260.5 231.167,260.5 216.5,260.5C 216.5,202.5 216.5,144.5 216.5,86.5C 216.5,57.5 216.5,28.5 216.5,-0.5 Z"/></g>
<g><path style="opacity:1" fill="#a78927" d="M 738.5,-0.5 C 796.5,-0.5 854.5,-0.5 912.5,-0.5C 912.5,28.5 912.5,57.5 912.5,86.5C 854.5,86.5 796.5,86.5 738.5,86.5C 738.5,57.5 738.5,28.5 738.5,-0.5 Z"/></g>
<g><path style="opacity:1" fill="#deb533" d="M 912.5,-0.5 C 941.5,-0.5 970.5,-0.5 999.5,-0.5C 999.5,86.5 999.5,173.5 999.5,260.5C 970.5,260.5 941.5,260.5 912.5,260.5C 883.5,260.5 854.5,260.5 825.5,260.5C 796.5,260.5 767.5,260.5 738.5,260.5C 738.5,231.5 738.5,202.5 738.5,173.5C 796.5,173.5 854.5,173.5 912.5,173.5C 912.5,144.5 912.5,115.5 912.5,86.5C 912.5,57.5 912.5,28.5 912.5,-0.5 Z"/></g>
<g><path style="opacity:1" fill="#292c3d" d="M 216.5,86.5 C 216.5,144.5 216.5,202.5 216.5,260.5C 231.167,260.5 245.833,260.5 260.5,260.5C 260.5,289.167 260.5,317.833 260.5,346.5C 274.833,346.5 289.167,346.5 303.5,346.5C 303.5,404.5 303.5,462.5 303.5,520.5C 216.5,520.5 129.5,520.5 42.5,520.5C 42.5,404.833 42.5,289.167 42.5,173.5C 57.1667,173.5 71.8333,173.5 86.5,173.5C 86.5,144.5 86.5,115.5 86.5,86.5C 100.833,86.5 115.167,86.5 129.5,86.5C 129.5,115.5 129.5,144.5 129.5,173.5C 144.167,173.5 158.833,173.5 173.5,173.5C 173.5,144.5 173.5,115.5 173.5,86.5C 187.833,86.5 202.167,86.5 216.5,86.5 Z"/></g>
<g><path style="opacity:1" fill="#363a50" d="M 303.5,86.5 C 448.5,86.5 593.5,86.5 738.5,86.5C 796.5,86.5 854.5,86.5 912.5,86.5C 912.5,115.5 912.5,144.5 912.5,173.5C 854.5,173.5 796.5,173.5 738.5,173.5C 738.5,202.5 738.5,231.5 738.5,260.5C 709.5,260.5 680.5,260.5 651.5,260.5C 622.5,260.5 593.5,260.5 564.5,260.5C 564.5,289.167 564.5,317.833 564.5,346.5C 579.167,346.5 593.833,346.5 608.5,346.5C 608.5,375.5 608.5,404.5 608.5,433.5C 622.833,433.5 637.167,433.5 651.5,433.5C 680.5,433.5 709.5,433.5 738.5,433.5C 738.5,404.5 738.5,375.5 738.5,346.5C 767.5,346.5 796.5,346.5 825.5,346.5C 854.5,346.5 883.5,346.5 912.5,346.5C 912.5,404.5 912.5,462.5 912.5,520.5C 709.5,520.5 506.5,520.5 303.5,520.5C 303.5,462.5 303.5,404.5 303.5,346.5C 332.5,346.5 361.5,346.5 390.5,346.5C 419.5,346.5 448.5,346.5 477.5,346.5C 477.5,317.833 477.5,289.167 477.5,260.5C 477.5,231.5 477.5,202.5 477.5,173.5C 419.5,173.5 361.5,173.5 303.5,173.5C 303.5,144.5 303.5,115.5 303.5,86.5 Z"/></g>
<g><path style="opacity:1" fill="#adad9b" d="M 260.5,260.5 C 274.833,260.5 289.167,260.5 303.5,260.5C 303.5,289.167 303.5,317.833 303.5,346.5C 289.167,346.5 274.833,346.5 260.5,346.5C 260.5,317.833 260.5,289.167 260.5,260.5 Z"/></g>
<g><path style="opacity:1" fill="#e5e5cd" d="M 303.5,260.5 C 332.5,260.5 361.5,260.5 390.5,260.5C 390.5,289.167 390.5,317.833 390.5,346.5C 361.5,346.5 332.5,346.5 303.5,346.5C 303.5,317.833 303.5,289.167 303.5,260.5 Z"/></g>
<g><path style="opacity:1" fill="#171423" d="M 390.5,260.5 C 419.5,260.5 448.5,260.5 477.5,260.5C 477.5,289.167 477.5,317.833 477.5,346.5C 448.5,346.5 419.5,346.5 390.5,346.5C 390.5,317.833 390.5,289.167 390.5,260.5 Z"/></g>
<g><path style="opacity:1" fill="#8d1f28" d="M 651.5,260.5 C 651.5,318.167 651.5,375.833 651.5,433.5C 637.167,433.5 622.833,433.5 608.5,433.5C 608.5,404.5 608.5,375.5 608.5,346.5C 593.833,346.5 579.167,346.5 564.5,346.5C 564.5,317.833 564.5,289.167 564.5,260.5C 593.5,260.5 622.5,260.5 651.5,260.5 Z"/></g>
<g><path style="opacity:1" fill="#bb3328" d="M 651.5,260.5 C 680.5,260.5 709.5,260.5 738.5,260.5C 738.5,289.167 738.5,317.833 738.5,346.5C 738.5,375.5 738.5,404.5 738.5,433.5C 709.5,433.5 680.5,433.5 651.5,433.5C 651.5,375.833 651.5,318.167 651.5,260.5 Z"/></g>
<g><path style="opacity:1" fill="#171423" d="M 738.5,260.5 C 767.5,260.5 796.5,260.5 825.5,260.5C 825.5,289.167 825.5,317.833 825.5,346.5C 796.5,346.5 767.5,346.5 738.5,346.5C 738.5,317.833 738.5,289.167 738.5,260.5 Z"/></g>
<g><path style="opacity:1" fill="#e5e5cd" d="M 825.5,260.5 C 854.5,260.5 883.5,260.5 912.5,260.5C 912.5,289.167 912.5,317.833 912.5,346.5C 883.5,346.5 854.5,346.5 825.5,346.5C 825.5,317.833 825.5,289.167 825.5,260.5 Z"/></g>
</svg>
