<?xml version="1.0" encoding="UTF-8"?>
<!DOCTYPE svg PUBLIC "-//W3C//DTD SVG 1.1//EN" "http://www.w3.org/Graphics/SVG/1.1/DTD/svg11.dtd">
<svg xmlns="http://www.w3.org/2000/svg" version="1.1" width="1000px" height="840px" style="shape-rendering:geometricPrecision; text-rendering:geometricPrecision; image-rendering:optimizeQuality; fill-rule:evenodd; clip-rule:evenodd" xmlns:xlink="http://www.w3.org/1999/xlink">
<g><path style="opacity:1" fill="#757675" d="M 319.5,-0.5 C 359.5,-0.5 399.5,-0.5 439.5,-0.5C 439.5,26.1667 439.5,52.8333 439.5,79.5C 412.833,79.5 386.167,79.5 359.5,79.5C 359.5,66.1667 359.5,52.8333 359.5,39.5C 346.167,39.5 332.833,39.5 319.5,39.5C 319.5,26.1667 319.5,12.8333 319.5,-0.5 Z"/></g>
<g><path style="opacity:1" fill="#a4a5a4" d="M 439.5,-0.5 C 466.167,-0.5 492.833,-0.5 519.5,-0.5C 519.5,12.8333 519.5,26.1667 519.5,39.5C 519.5,52.8333 519.5,66.1667 519.5,79.5C 492.833,79.5 466.167,79.5 439.5,79.5C 439.5,52.8333 439.5,26.1667 439.5,-0.5 Z"/></g>
<g><path style="opacity:1" fill="#1c1a13" d="M -0.5,39.5 C 52.8333,39.5 106.167,39.5 159.5,39.5C 159.5,66.1667 159.5,92.8333 159.5,119.5C 159.5,252.833 159.5,386.167 159.5,519.5C 106.167,519.5 52.8333,519.5 -0.5,519.5C -0.5,359.5 -0.5,199.5 -0.5,39.5 Z"/></g>
<g><path style="opacity:1" fill="#a78927" d="M 159.5,39.5 C 199.5,39.5 239.5,39.5 279.5,39.5C 279.5,66.1667 279.5,92.8333 279.5,119.5C 266.167,119.5 252.833,119.5 239.5,119.5C 239.5,146.167 239.5,172.833 239.5,199.5C 226.167,199.5 212.833,199.5 199.5,199.5C 199.5,172.833 199.5,146.167 199.5,119.5C 186.167,119.5 172.833,119.5 159.5,119.5C 159.5,92.8333 159.5,66.1667 159.5,39.5 Z"/></g>
<g><path style="opacity:1" fill="#deb533" d="M 279.5,39.5 C 292.833,39.5 306.167,39.5 319.5,39.5C 332.833,39.5 346.167,39.5 359.5,39.5C 359.5,52.8333 359.5,66.1667 359.5,79.5C 359.5,92.8333 359.5,106.167 359.5,119.5C 359.5,146.167 359.5,172.833 359.5,199.5C 412.833,199.5 466.167,199.5 519.5,199.5C 519.5,226.167 519.5,252.833 519.5,279.5C 492.833,279.5 466.167,279.5 439.5,279.5C 412.833,279.5 386.167,279.5 359.5,279.5C 346.167,279.5 332.833,279.5 319.5,279.5C 306.167,279.5 292.833,279.5 279.5,279.5C 279.5,226.167 279.5,172.833 279.5,119.5C 279.5,92.8333 279.5,66.1667 279.5,39.5 Z"/></g>
<g><path style="opacity:1" fill="#1c1a13" d="M 519.5,39.5 C 559.5,39.5 599.5,39.5 639.5,39.5C 639.5,66.1667 639.5,92.8333 639.5,119.5C 546.167,119.5 452.833,119.5 359.5,119.5C 359.5,106.167 359.5,92.8333 359.5,79.5C 386.167,79.5 412.833,79.5 439.5,79.5C 466.167,79.5 492.833,79.5 519.5,79.5C 519.5,66.1667 519.5,52.8333 519.5,39.5 Z"/></g>
<g><path style="opacity:1" fill="#a78927" d="M 919.5,39.5 C 919.5,66.1667 919.5,92.8333 919.5,119.5C 866.167,119.5 812.833,119.5 759.5,119.5C 759.5,92.8333 759.5,66.1667 759.5,39.5C 812.833,39.5 866.167,39.5 919.5,39.5 Z"/></g>
<g><path style="opacity:1" fill="#deb533" d="M 919.5,39.5 C 946.167,39.5 972.833,39.5 999.5,39.5C 999.5,119.5 999.5,199.5 999.5,279.5C 972.833,279.5 946.167,279.5 919.5,279.5C 892.833,279.5 866.167,279.5 839.5,279.5C 812.833,279.5 786.167,279.5 759.5,279.5C 759.5,252.833 759.5,226.167 759.5,199.5C 812.833,199.5 866.167,199.5 919.5,199.5C 919.5,172.833 919.5,146.167 919.5,119.5C 919.5,92.8333 919.5,66.1667 919.5,39.5 Z"/></g>
<g><path style="opacity:1" fill="#855106" d="M 39.5,119.5 C 66.1667,119.5 92.8333,119.5 119.5,119.5C 119.5,226.167 119.5,332.833 119.5,439.5C 92.8333,439.5 66.1667,439.5 39.5,439.5C 39.5,332.833 39.5,226.167 39.5,119.5 Z"/></g>
<g><path style="opacity:1" fill="#292c3d" d="M 159.5,119.5 C 172.833,119.5 186.167,119.5 199.5,119.5C 199.5,146.167 199.5,172.833 199.5,199.5C 212.833,199.5 226.167,199.5 239.5,199.5C 239.5,172.833 239.5,146.167 239.5,119.5C 252.833,119.5 266.167,119.5 279.5,119.5C 279.5,172.833 279.5,226.167 279.5,279.5C 292.833,279.5 306.167,279.5 319.5,279.5C 319.5,306.167 319.5,332.833 319.5,359.5C 332.833,359.5 346.167,359.5 359.5,359.5C 359.5,412.833 359.5,466.167 359.5,519.5C 292.833,519.5 226.167,519.5 159.5,519.5C 159.5,386.167 159.5,252.833 159.5,119.5 Z"/></g>
<g><path style="opacity:1" fill="#363a50" d="M 359.5,119.5 C 452.833,119.5 546.167,119.5 639.5,119.5C 679.5,119.5 719.5,119.5 759.5,119.5C 812.833,119.5 866.167,119.5 919.5,119.5C 919.5,146.167 919.5,172.833 919.5,199.5C 866.167,199.5 812.833,199.5 759.5,199.5C 759.5,226.167 759.5,252.833 759.5,279.5C 732.833,279.5 706.167,279.5 679.5,279.5C 652.833,279.5 626.167,279.5 599.5,279.5C 599.5,306.167 599.5,332.833 599.5,359.5C 612.833,359.5 626.167,359.5 639.5,359.5C 639.5,386.167 639.5,412.833 639.5,439.5C 652.833,439.5 666.167,439.5 679.5,439.5C 706.167,439.5 732.833,439.5 759.5,439.5C 759.5,412.833 759.5,386.167 759.5,359.5C 786.167,359.5 812.833,359.5 839.5,359.5C 866.167,359.5 892.833,359.5 919.5,359.5C 919.5,412.833 919.5,466.167 919.5,519.5C 906.167,519.5 892.833,519.5 879.5,519.5C 719.5,519.5 559.5,519.5 399.5,519.5C 386.167,519.5 372.833,519.5 359.5,519.5C 359.5,466.167 359.5,412.833 359.5,359.5C 386.167,359.5 412.833,359.5 439.5,359.5C 466.167,359.5 492.833,359.5 519.5,359.5C 519.5,332.833 519.5,306.167 519.5,279.5C 519.5,252.833 519.5,226.167 519.5,199.5C 466.167,199.5 412.833,199.5 359.5,199.5C 359.5,172.833 359.5,146.167 359.5,119.5 Z"/></g>
<g><path style="opacity:1" fill="#adad9b" d="M 319.5,279.5 C 332.833,279.5 346.167,279.5 359.5,279.5C 359.5,306.167 359.5,332.833 359.5,359.5C 346.167,359.5 332.833,359.5 319.5,359.5C 319.5,332.833 319.5,306.167 319.5,279.5 Z"/></g>
<g><path style="opacity:1" fill="#e5e5cd" d="M 359.5,279.5 C 386.167,279.5 412.833,279.5 439.5,279.5C 439.5,306.167 439.5,332.833 439.5,359.5C 412.833,359.5 386.167,359.5 359.5,359.5C 359.5,332.833 359.5,306.167 359.5,279.5 Z"/></g>
<g><path style="opacity:1" fill="#171423" d="M 439.5,279.5 C 466.167,279.5 492.833,279.5 519.5,279.5C 519.5,306.167 519.5,332.833 519.5,359.5C 492.833,359.5 466.167,359.5 439.5,359.5C 439.5,332.833 439.5,306.167 439.5,279.5 Z"/></g>
<g><path style="opacity:1" fill="#8d1f28" d="M 679.5,279.5 C 679.5,332.833 679.5,386.167 679.5,439.5C 666.167,439.5 652.833,439.5 639.5,439.5C 639.5,412.833 639.5,386.167 639.5,359.5C 626.167,359.5 612.833,359.5 599.5,359.5C 599.5,332.833 599.5,306.167 599.5,279.5C 626.167,279.5 652.833,279.5 679.5,279.5 Z"/></g>
<g><path style="opacity:1" fill="#bb3328" d="M 679.5,279.5 C 706.167,279.5 732.833,279.5 759.5,279.5C 759.5,306.167 759.5,332.833 759.5,359.5C 759.5,386.167 759.5,412.833 759.5,439.5C 732.833,439.5 706.167,439.5 679.5,439.5C 679.5,386.167 679.5,332.833 679.5,279.5 Z"/></g>
<g><path style="opacity:1" fill="#171423" d="M 759.5,279.5 C 786.167,279.5 812.833,279.5 839.5,279.5C 839.5,306.167 839.5,332.833 839.5,359.5C 812.833,359.5 786.167,359.5 759.5,359.5C 759.5,332.833 759.5,306.167 759.5,279.5 Z"/></g>
<g><path style="opacity:1" fill="#e5e5cd" d="M 839.5,279.5 C 866.167,279.5 892.833,279.5 919.5,279.5C 919.5,306.167 919.5,332.833 919.5,359.5C 892.833,359.5 866.167,359.5 839.5,359.5C 839.5,332.833 839.5,306.167 839.5,279.5 Z"/></g>
<g><path style="opacity:1" fill="#1c1a13" d="M 159.5,519.5 C 226.167,519.5 292.833,519.5 359.5,519.5C 372.833,519.5 386.167,519.5 399.5,519.5C 399.5,626.167 399.5,732.833 399.5,839.5C 319.5,839.5 239.5,839.5 159.5,839.5C 159.5,732.833 159.5,626.167 159.5,519.5 Z"/></g>
<g><path style="opacity:1" fill="#443c2e" d="M 399.5,519.5 C 559.5,519.5 719.5,519.5 879.5,519.5C 879.5,626.167 879.5,732.833 879.5,839.5C 719.5,839.5 559.5,839.5 399.5,839.5C 399.5,732.833 399.5,626.167 399.5,519.5 Z"/></g>
<g><path style="opacity:1" fill="#855106" d="M 199.5,599.5 C 252.833,599.5 306.167,599.5 359.5,599.5C 359.5,652.833 359.5,706.167 359.5,759.5C 306.167,759.5 252.833,759.5 199.5,759.5C 199.5,706.167 199.5,652.833 199.5,599.5 Z"/></g>
<g><path style="opacity:1" fill="#a66e1e" d="M 479.5,599.5 C 586.167,599.5 692.833,599.5 799.5,599.5C 799.5,652.833 799.5,706.167 799.5,759.5C 692.833,759.5 586.167,759.5 479.5,759.5C 479.5,706.167 479.5,652.833 479.5,599.5 Z"/></g>
</svg>
