<?xml version="1.0" encoding="UTF-8"?>
<!DOCTYPE svg PUBLIC "-//W3C//DTD SVG 1.1//EN" "http://www.w3.org/Graphics/SVG/1.1/DTD/svg11.dtd">
<svg xmlns="http://www.w3.org/2000/svg" version="1.1" width="1000px" height="1000px" style="shape-rendering:geometricPrecision; text-rendering:geometricPrecision; image-rendering:optimizeQuality; fill-rule:evenodd; clip-rule:evenodd" xmlns:xlink="http://www.w3.org/1999/xlink">
<g><path style="opacity:1" fill="#11a648" d="M 499.5,-0.5 C 514.5,-0.5 529.5,-0.5 544.5,-0.5C 544.5,29.8333 544.5,60.1667 544.5,90.5C 529.5,90.5 514.5,90.5 499.5,90.5C 499.5,75.1667 499.5,59.8333 499.5,44.5C 499.5,29.5 499.5,14.5 499.5,-0.5 Z"/></g>
<g><path style="opacity:1" fill="#17dd61" d="M 544.5,-0.5 C 635.5,-0.5 726.5,-0.5 817.5,-0.5C 817.5,29.8333 817.5,60.1667 817.5,90.5C 787.167,90.5 756.833,90.5 726.5,90.5C 665.833,90.5 605.167,90.5 544.5,90.5C 544.5,60.1667 544.5,29.8333 544.5,-0.5 Z"/></g>
<g><path style="opacity:1" fill="#a3962c" d="M 499.5,44.5 C 499.5,59.8333 499.5,75.1667 499.5,90.5C 484.5,90.5 469.5,90.5 454.5,90.5C 439.167,90.5 423.833,90.5 408.5,90.5C 393.5,90.5 378.5,90.5 363.5,90.5C 363.5,75.1667 363.5,59.8333 363.5,44.5C 408.833,44.5 454.167,44.5 499.5,44.5 Z"/></g>
<g><path style="opacity:1" fill="#892518" d="M -0.5,90.5 C 120.833,90.5 242.167,90.5 363.5,90.5C 378.5,90.5 393.5,90.5 408.5,90.5C 408.5,120.833 408.5,151.167 408.5,181.5C 363.167,181.5 317.833,181.5 272.5,181.5C 272.5,226.833 272.5,272.167 272.5,317.5C 242.167,317.5 211.833,317.5 181.5,317.5C 166.167,317.5 150.833,317.5 135.5,317.5C 135.5,272.167 135.5,226.833 135.5,181.5C 105.167,181.5 74.8333,181.5 44.5,181.5C 44.5,226.833 44.5,272.167 44.5,317.5C 29.5,317.5 14.5,317.5 -0.5,317.5C -0.5,241.833 -0.5,166.167 -0.5,90.5 Z"/></g>
<g><path style="opacity:1" fill="#11a648" d="M 408.5,90.5 C 423.833,90.5 439.167,90.5 454.5,90.5C 454.5,211.833 454.5,333.167 454.5,454.5C 439.167,454.5 423.833,454.5 408.5,454.5C 408.5,363.5 408.5,272.5 408.5,181.5C 408.5,151.167 408.5,120.833 408.5,90.5 Z"/></g>
<g><path style="opacity:1" fill="#17dd61" d="M 454.5,90.5 C 469.5,90.5 484.5,90.5 499.5,90.5C 514.5,90.5 529.5,90.5 544.5,90.5C 544.5,181.5 544.5,272.5 544.5,363.5C 544.5,393.833 544.5,424.167 544.5,454.5C 529.5,454.5 514.5,454.5 499.5,454.5C 484.5,454.5 469.5,454.5 454.5,454.5C 454.5,333.167 454.5,211.833 454.5,90.5 Z"/></g>
<g><path style="opacity:1" fill="#daffea" d="M 544.5,90.5 C 605.167,90.5 665.833,90.5 726.5,90.5C 726.5,120.833 726.5,151.167 726.5,181.5C 696.167,181.5 665.833,181.5 635.5,181.5C 635.5,242.167 635.5,302.833 635.5,363.5C 605.167,363.5 574.833,363.5 544.5,363.5C 544.5,272.5 544.5,181.5 544.5,90.5 Z"/></g>
<g><path style="opacity:1" fill="#007b17" d="M 726.5,90.5 C 756.833,90.5 787.167,90.5 817.5,90.5C 817.5,211.833 817.5,333.167 817.5,454.5C 726.5,454.5 635.5,454.5 544.5,454.5C 544.5,424.167 544.5,393.833 544.5,363.5C 574.833,363.5 605.167,363.5 635.5,363.5C 665.833,363.5 696.167,363.5 726.5,363.5C 726.5,302.833 726.5,242.167 726.5,181.5C 726.5,151.167 726.5,120.833 726.5,90.5 Z"/></g>
<g><path style="opacity:1" fill="#00aa2b" d="M 817.5,90.5 C 847.833,90.5 878.167,90.5 908.5,90.5C 908.5,211.833 908.5,333.167 908.5,454.5C 878.167,454.5 847.833,454.5 817.5,454.5C 817.5,333.167 817.5,211.833 817.5,90.5 Z"/></g>
<g><path style="opacity:1" fill="#7b120c" d="M 135.5,317.5 C 105.167,317.5 74.8333,317.5 44.5,317.5C 44.5,272.167 44.5,226.833 44.5,181.5C 74.8333,181.5 105.167,181.5 135.5,181.5C 135.5,226.833 135.5,272.167 135.5,317.5 Z"/></g>
<g><path style="opacity:1" fill="#300603" d="M 408.5,181.5 C 408.5,272.5 408.5,363.5 408.5,454.5C 423.833,454.5 439.167,454.5 454.5,454.5C 469.5,454.5 484.5,454.5 499.5,454.5C 499.5,484.5 499.5,514.5 499.5,544.5C 469.167,544.5 438.833,544.5 408.5,544.5C 363.167,544.5 317.833,544.5 272.5,544.5C 272.5,499.167 272.5,453.833 272.5,408.5C 272.5,378.167 272.5,347.833 272.5,317.5C 272.5,272.167 272.5,226.833 272.5,181.5C 317.833,181.5 363.167,181.5 408.5,181.5 Z"/></g>
<g><path style="opacity:1" fill="#00aa2b" d="M 726.5,181.5 C 726.5,242.167 726.5,302.833 726.5,363.5C 696.167,363.5 665.833,363.5 635.5,363.5C 635.5,302.833 635.5,242.167 635.5,181.5C 665.833,181.5 696.167,181.5 726.5,181.5 Z"/></g>
<g><path style="opacity:1" fill="#a3962c" d="M -0.5,317.5 C 14.5,317.5 29.5,317.5 44.5,317.5C 74.8333,317.5 105.167,317.5 135.5,317.5C 150.833,317.5 166.167,317.5 181.5,317.5C 181.5,347.833 181.5,378.167 181.5,408.5C 166.167,408.5 150.833,408.5 135.5,408.5C 105.167,408.5 74.8333,408.5 44.5,408.5C 29.5,408.5 14.5,408.5 -0.5,408.5C -0.5,378.167 -0.5,347.833 -0.5,317.5 Z"/></g>
<g><path style="opacity:1" fill="#d9c83c" d="M 181.5,317.5 C 211.833,317.5 242.167,317.5 272.5,317.5C 272.5,347.833 272.5,378.167 272.5,408.5C 242.167,408.5 211.833,408.5 181.5,408.5C 181.5,378.167 181.5,347.833 181.5,317.5 Z"/></g>
<g><path style="opacity:1" fill="#892518" d="M -0.5,408.5 C 14.5,408.5 29.5,408.5 44.5,408.5C 44.5,453.833 44.5,499.167 44.5,544.5C 74.8333,544.5 105.167,544.5 135.5,544.5C 135.5,499.167 135.5,453.833 135.5,408.5C 150.833,408.5 166.167,408.5 181.5,408.5C 211.833,408.5 242.167,408.5 272.5,408.5C 272.5,453.833 272.5,499.167 272.5,544.5C 317.833,544.5 363.167,544.5 408.5,544.5C 408.5,574.833 408.5,605.167 408.5,635.5C 423.833,635.5 439.167,635.5 454.5,635.5C 454.5,726.5 454.5,817.5 454.5,908.5C 439.167,908.5 423.833,908.5 408.5,908.5C 408.5,847.833 408.5,787.167 408.5,726.5C 347.833,726.5 287.167,726.5 226.5,726.5C 226.5,787.167 226.5,847.833 226.5,908.5C 211.5,908.5 196.5,908.5 181.5,908.5C 181.5,817.5 181.5,726.5 181.5,635.5C 120.833,635.5 60.1667,635.5 -0.5,635.5C -0.5,559.833 -0.5,484.167 -0.5,408.5 Z"/></g>
<g><path style="opacity:1" fill="#7b120c" d="M 44.5,408.5 C 74.8333,408.5 105.167,408.5 135.5,408.5C 135.5,453.833 135.5,499.167 135.5,544.5C 105.167,544.5 74.8333,544.5 44.5,544.5C 44.5,499.167 44.5,453.833 44.5,408.5 Z"/></g>
<g><path style="opacity:1" fill="#008020" d="M 499.5,454.5 C 514.5,454.5 529.5,454.5 544.5,454.5C 544.5,484.5 544.5,514.5 544.5,544.5C 529.5,544.5 514.5,544.5 499.5,544.5C 499.5,514.5 499.5,484.5 499.5,454.5 Z"/></g>
<g><path style="opacity:1" fill="#00aa2b" d="M 544.5,454.5 C 635.5,454.5 726.5,454.5 817.5,454.5C 817.5,484.5 817.5,514.5 817.5,544.5C 787.167,544.5 756.833,544.5 726.5,544.5C 665.833,544.5 605.167,544.5 544.5,544.5C 544.5,514.5 544.5,484.5 544.5,454.5 Z"/></g>
<g><path style="opacity:1" fill="#d9c83c" d="M 408.5,544.5 C 438.833,544.5 469.167,544.5 499.5,544.5C 499.5,574.833 499.5,605.167 499.5,635.5C 484.5,635.5 469.5,635.5 454.5,635.5C 439.167,635.5 423.833,635.5 408.5,635.5C 408.5,605.167 408.5,574.833 408.5,544.5 Z"/></g>
<g><path style="opacity:1" fill="#892518" d="M 499.5,544.5 C 514.5,544.5 529.5,544.5 544.5,544.5C 605.167,544.5 665.833,544.5 726.5,544.5C 726.5,574.833 726.5,605.167 726.5,635.5C 650.833,635.5 575.167,635.5 499.5,635.5C 499.5,605.167 499.5,574.833 499.5,544.5 Z"/></g>
<g><path style="opacity:1" fill="#b53020" d="M 454.5,635.5 C 469.5,635.5 484.5,635.5 499.5,635.5C 575.167,635.5 650.833,635.5 726.5,635.5C 817.5,635.5 908.5,635.5 999.5,635.5C 999.5,726.5 999.5,817.5 999.5,908.5C 969.167,908.5 938.833,908.5 908.5,908.5C 908.5,847.833 908.5,787.167 908.5,726.5C 787.167,726.5 665.833,726.5 544.5,726.5C 544.5,787.167 544.5,847.833 544.5,908.5C 514.5,908.5 484.5,908.5 454.5,908.5C 454.5,817.5 454.5,726.5 454.5,635.5 Z"/></g>
<g><path style="opacity:1" fill="#7b120c" d="M 408.5,908.5 C 347.833,908.5 287.167,908.5 226.5,908.5C 226.5,847.833 226.5,787.167 226.5,726.5C 287.167,726.5 347.833,726.5 408.5,726.5C 408.5,787.167 408.5,847.833 408.5,908.5 Z"/></g>
<g><path style="opacity:1" fill="#a31710" d="M 908.5,908.5 C 787.167,908.5 665.833,908.5 544.5,908.5C 544.5,847.833 544.5,787.167 544.5,726.5C 665.833,726.5 787.167,726.5 908.5,726.5C 908.5,787.167 908.5,847.833 908.5,908.5 Z"/></g>
<g><path style="opacity:1" fill="#390300" d="M 181.5,908.5 C 196.5,908.5 211.5,908.5 226.5,908.5C 287.167,908.5 347.833,908.5 408.5,908.5C 423.833,908.5 439.167,908.5 454.5,908.5C 454.5,938.833 454.5,969.167 454.5,999.5C 363.5,999.5 272.5,999.5 181.5,999.5C 181.5,969.167 181.5,938.833 181.5,908.5 Z"/></g>
<g><path style="opacity:1" fill="#4b0300" d="M 454.5,908.5 C 484.5,908.5 514.5,908.5 544.5,908.5C 665.833,908.5 787.167,908.5 908.5,908.5C 938.833,908.5 969.167,908.5 999.5,908.5C 999.5,938.833 999.5,969.167 999.5,999.5C 817.833,999.5 636.167,999.5 454.5,999.5C 454.5,969.167 454.5,938.833 454.5,908.5 Z"/></g>
</svg>
