<?xml version="1.0" encoding="UTF-8"?>
<!DOCTYPE svg PUBLIC "-//W3C//DTD SVG 1.1//EN" "http://www.w3.org/Graphics/SVG/1.1/DTD/svg11.dtd">
<svg xmlns="http://www.w3.org/2000/svg" version="1.1" width="916px" height="1000px" style="shape-rendering:geometricPrecision; text-rendering:geometricPrecision; image-rendering:optimizeQuality; fill-rule:evenodd; clip-rule:evenodd" xmlns:xlink="http://www.w3.org/1999/xlink">
<g><path style="opacity:1" fill="#11a648" d="M 250.5,0.5 C 250.5,55.8333 250.5,111.167 250.5,166.5C 222.833,166.5 195.167,166.5 167.5,166.5C 167.5,111.167 167.5,55.8333 167.5,0.5C 195.167,0.5 222.833,0.5 250.5,0.5 Z"/></g>
<g><path style="opacity:1" fill="#17dd61" d="M 250.5,0.5 C 416.833,0.5 583.167,0.5 749.5,0.5C 749.5,55.8333 749.5,111.167 749.5,166.5C 694.167,166.5 638.833,166.5 583.5,166.5C 472.5,166.5 361.5,166.5 250.5,166.5C 250.5,111.167 250.5,55.8333 250.5,0.5 Z"/></g>
<g><path style="opacity:1" fill="#11a648" d="M 83.5,166.5 C 83.5,388.833 83.5,611.167 83.5,833.5C 55.8333,833.5 28.1667,833.5 0.5,833.5C 0.5,611.167 0.5,388.833 0.5,166.5C 28.1667,166.5 55.8333,166.5 83.5,166.5 Z"/></g>
<g><path style="opacity:1" fill="#17dd61" d="M 83.5,166.5 C 111.5,166.5 139.5,166.5 167.5,166.5C 195.167,166.5 222.833,166.5 250.5,166.5C 250.5,333.167 250.5,499.833 250.5,666.5C 250.5,722.167 250.5,777.833 250.5,833.5C 222.833,833.5 195.167,833.5 167.5,833.5C 139.5,833.5 111.5,833.5 83.5,833.5C 83.5,611.167 83.5,388.833 83.5,166.5 Z"/></g>
<g><path style="opacity:1" fill="#daffea" d="M 250.5,166.5 C 361.5,166.5 472.5,166.5 583.5,166.5C 583.5,222.167 583.5,277.833 583.5,333.5C 527.833,333.5 472.167,333.5 416.5,333.5C 416.5,444.5 416.5,555.5 416.5,666.5C 361.167,666.5 305.833,666.5 250.5,666.5C 250.5,499.833 250.5,333.167 250.5,166.5 Z"/></g>
<g><path style="opacity:1" fill="#007b17" d="M 583.5,166.5 C 638.833,166.5 694.167,166.5 749.5,166.5C 749.5,388.833 749.5,611.167 749.5,833.5C 583.167,833.5 416.833,833.5 250.5,833.5C 250.5,777.833 250.5,722.167 250.5,666.5C 305.833,666.5 361.167,666.5 416.5,666.5C 472.167,666.5 527.833,666.5 583.5,666.5C 583.5,555.5 583.5,444.5 583.5,333.5C 583.5,277.833 583.5,222.167 583.5,166.5 Z"/></g>
<g><path style="opacity:1" fill="#00aa2b" d="M 749.5,166.5 C 804.833,166.5 860.167,166.5 915.5,166.5C 915.5,388.833 915.5,611.167 915.5,833.5C 860.167,833.5 804.833,833.5 749.5,833.5C 749.5,611.167 749.5,388.833 749.5,166.5 Z"/></g>
<g><path style="opacity:1" fill="#00aa2b" d="M 583.5,333.5 C 583.5,444.5 583.5,555.5 583.5,666.5C 527.833,666.5 472.167,666.5 416.5,666.5C 416.5,555.5 416.5,444.5 416.5,333.5C 472.167,333.5 527.833,333.5 583.5,333.5 Z"/></g>
<g><path style="opacity:1" fill="#008020" d="M 167.5,833.5 C 195.167,833.5 222.833,833.5 250.5,833.5C 250.5,888.833 250.5,944.167 250.5,999.5C 222.833,999.5 195.167,999.5 167.5,999.5C 167.5,944.167 167.5,888.833 167.5,833.5 Z"/></g>
<g><path style="opacity:1" fill="#00aa2b" d="M 250.5,833.5 C 416.833,833.5 583.167,833.5 749.5,833.5C 749.5,888.833 749.5,944.167 749.5,999.5C 583.167,999.5 416.833,999.5 250.5,999.5C 250.5,944.167 250.5,888.833 250.5,833.5 Z"/></g>
</svg>
