<?xml version="1.0" encoding="UTF-8"?>
<!DOCTYPE svg PUBLIC "-//W3C//DTD SVG 1.1//EN" "http://www.w3.org/Graphics/SVG/1.1/DTD/svg11.dtd">
<svg xmlns="http://www.w3.org/2000/svg" version="1.1" width="1000px" height="666px" style="shape-rendering:geometricPrecision; text-rendering:geometricPrecision; image-rendering:optimizeQuality; fill-rule:evenodd; clip-rule:evenodd" xmlns:xlink="http://www.w3.org/1999/xlink">
<g><path style="opacity:1" fill="#606160" d="M 0.5,-0.5 C 56.1667,-0.5 111.833,-0.5 167.5,-0.5C 167.5,110.5 167.5,221.5 167.5,332.5C 111.833,332.5 56.1667,332.5 0.5,332.5C 0.5,221.5 0.5,110.5 0.5,-0.5 Z"/></g>
<g><path style="opacity:1" fill="#909190" d="M 167.5,-0.5 C 222.833,-0.5 278.167,-0.5 333.5,-0.5C 333.5,110.5 333.5,221.5 333.5,332.5C 278.167,332.5 222.833,332.5 167.5,332.5C 167.5,221.5 167.5,110.5 167.5,-0.5 Z"/></g>
<g><path style="opacity:1" fill="#7f807f" d="M 333.5,-0.5 C 444.833,-0.5 556.167,-0.5 667.5,-0.5C 667.5,110.5 667.5,221.5 667.5,332.5C 556.167,332.5 444.833,332.5 333.5,332.5C 333.5,221.5 333.5,110.5 333.5,-0.5 Z"/></g>
<g><path style="opacity:1" fill="#bfc0bf" d="M 667.5,-0.5 C 778.167,-0.5 888.833,-0.5 999.5,-0.5C 999.5,110.5 999.5,221.5 999.5,332.5C 888.833,332.5 778.167,332.5 667.5,332.5C 667.5,221.5 667.5,110.5 667.5,-0.5 Z"/></g>
<g><path style="opacity:1" fill="#909190" d="M 0.5,332.5 C 56.1667,332.5 111.833,332.5 167.5,332.5C 167.5,443.5 167.5,554.5 167.5,665.5C 111.833,665.5 56.1667,665.5 0.5,665.5C 0.5,554.5 0.5,443.5 0.5,332.5 Z"/></g>
<g><path style="opacity:1" fill="#606160" d="M 167.5,332.5 C 222.833,332.5 278.167,332.5 333.5,332.5C 333.5,443.5 333.5,554.5 333.5,665.5C 278.167,665.5 222.833,665.5 167.5,665.5C 167.5,554.5 167.5,443.5 167.5,332.5 Z"/></g>
<g><path style="opacity:1" fill="#bfc0bf" d="M 333.5,332.5 C 444.833,332.5 556.167,332.5 667.5,332.5C 667.5,443.5 667.5,554.5 667.5,665.5C 556.167,665.5 444.833,665.5 333.5,665.5C 333.5,554.5 333.5,443.5 333.5,332.5 Z"/></g>
<g><path style="opacity:1" fill="#7f807f" d="M 667.5,332.5 C 778.167,332.5 888.833,332.5 999.5,332.5C 999.5,443.5 999.5,554.5 999.5,665.5C 888.833,665.5 778.167,665.5 667.5,665.5C 667.5,554.5 667.5,443.5 667.5,332.5 Z"/></g>
</svg>
