<?xml version="1.0" encoding="UTF-8"?>
<!DOCTYPE svg PUBLIC "-//W3C//DTD SVG 1.1//EN" "http://www.w3.org/Graphics/SVG/1.1/DTD/svg11.dtd">
<svg xmlns="http://www.w3.org/2000/svg" version="1.1" width="1000px" height="800px" style="shape-rendering:geometricPrecision; text-rendering:geometricPrecision; image-rendering:optimizeQuality; fill-rule:evenodd; clip-rule:evenodd" xmlns:xlink="http://www.w3.org/1999/xlink">
<g><path style="opacity:1" fill="#b9691a" d="M 132.5,-0.5 C 154.833,-0.5 177.167,-0.5 199.5,-0.5C 199.5,43.8333 199.5,88.1667 199.5,132.5C 177.167,132.5 154.833,132.5 132.5,132.5C 132.5,88.1667 132.5,43.8333 132.5,-0.5 Z"/></g>
<g><path style="opacity:1" fill="#f59922" d="M 199.5,-0.5 C 243.833,-0.5 288.167,-0.5 332.5,-0.5C 332.5,43.8333 332.5,88.1667 332.5,132.5C 288.167,132.5 243.833,132.5 199.5,132.5C 199.5,88.1667 199.5,43.8333 199.5,-0.5 Z"/></g>
<g><path style="opacity:1" fill="#b9691a" d="M 666.5,-0.5 C 688.5,-0.5 710.5,-0.5 732.5,-0.5C 732.5,43.8333 732.5,88.1667 732.5,132.5C 710.5,132.5 688.5,132.5 666.5,132.5C 666.5,88.1667 666.5,43.8333 666.5,-0.5 Z"/></g>
<g><path style="opacity:1" fill="#f59922" d="M 732.5,-0.5 C 777.167,-0.5 821.833,-0.5 866.5,-0.5C 866.5,43.8333 866.5,88.1667 866.5,132.5C 821.833,132.5 777.167,132.5 732.5,132.5C 732.5,88.1667 732.5,43.8333 732.5,-0.5 Z"/></g>
<g><path style="opacity:1" fill="#b9691a" d="M -0.5,132.5 C 21.8333,132.5 44.1667,132.5 66.5,132.5C 66.5,177.167 66.5,221.833 66.5,266.5C 44.1667,266.5 21.8333,266.5 -0.5,266.5C -0.5,221.833 -0.5,177.167 -0.5,132.5 Z"/></g>
<g><path style="opacity:1" fill="#f59922" d="M 66.5,132.5 C 88.5,132.5 110.5,132.5 132.5,132.5C 154.833,132.5 177.167,132.5 199.5,132.5C 199.5,177.167 199.5,221.833 199.5,266.5C 155.167,266.5 110.833,266.5 66.5,266.5C 66.5,221.833 66.5,177.167 66.5,132.5 Z"/></g>
<g><path style="opacity:1" fill="#fefffe" d="M 199.5,132.5 C 243.833,132.5 288.167,132.5 332.5,132.5C 332.5,177.167 332.5,221.833 332.5,266.5C 332.5,355.167 332.5,443.833 332.5,532.5C 288.167,532.5 243.833,532.5 199.5,532.5C 199.5,443.833 199.5,355.167 199.5,266.5C 199.5,221.833 199.5,177.167 199.5,132.5 Z"/></g>
<g><path style="opacity:1" fill="#f59922" d="M 332.5,132.5 C 377.167,132.5 421.833,132.5 466.5,132.5C 466.5,177.167 466.5,221.833 466.5,266.5C 421.833,266.5 377.167,266.5 332.5,266.5C 332.5,221.833 332.5,177.167 332.5,132.5 Z"/></g>
<g><path style="opacity:1" fill="#b9691a" d="M 599.5,132.5 C 599.5,177.167 599.5,221.833 599.5,266.5C 577.167,266.5 554.833,266.5 532.5,266.5C 532.5,221.833 532.5,177.167 532.5,132.5C 554.833,132.5 577.167,132.5 599.5,132.5 Z"/></g>
<g><path style="opacity:1" fill="#f59922" d="M 599.5,132.5 C 621.833,132.5 644.167,132.5 666.5,132.5C 688.5,132.5 710.5,132.5 732.5,132.5C 732.5,177.167 732.5,221.833 732.5,266.5C 688.167,266.5 643.833,266.5 599.5,266.5C 599.5,221.833 599.5,177.167 599.5,132.5 Z"/></g>
<g><path style="opacity:1" fill="#fefffe" d="M 732.5,132.5 C 777.167,132.5 821.833,132.5 866.5,132.5C 866.5,177.167 866.5,221.833 866.5,266.5C 866.5,355.167 866.5,443.833 866.5,532.5C 821.833,532.5 777.167,532.5 732.5,532.5C 732.5,443.833 732.5,355.167 732.5,266.5C 732.5,221.833 732.5,177.167 732.5,132.5 Z"/></g>
<g><path style="opacity:1" fill="#f59922" d="M 866.5,132.5 C 910.833,132.5 955.167,132.5 999.5,132.5C 999.5,177.167 999.5,221.833 999.5,266.5C 955.167,266.5 910.833,266.5 866.5,266.5C 866.5,221.833 866.5,177.167 866.5,132.5 Z"/></g>
<g><path style="opacity:1" fill="#991a19" d="M -0.5,266.5 C 21.8333,266.5 44.1667,266.5 66.5,266.5C 66.5,355.167 66.5,443.833 66.5,532.5C 44.1667,532.5 21.8333,532.5 -0.5,532.5C -0.5,443.833 -0.5,355.167 -0.5,266.5 Z"/></g>
<g><path style="opacity:1" fill="#cb2235" d="M 66.5,266.5 C 110.833,266.5 155.167,266.5 199.5,266.5C 199.5,355.167 199.5,443.833 199.5,532.5C 177.167,532.5 154.833,532.5 132.5,532.5C 110.5,532.5 88.5,532.5 66.5,532.5C 66.5,443.833 66.5,355.167 66.5,266.5 Z"/></g>
<g><path style="opacity:1" fill="#cb2235" d="M 332.5,266.5 C 377.167,266.5 421.833,266.5 466.5,266.5C 466.5,355.167 466.5,443.833 466.5,532.5C 421.833,532.5 377.167,532.5 332.5,532.5C 332.5,443.833 332.5,355.167 332.5,266.5 Z"/></g>
<g><path style="opacity:1" fill="#991a19" d="M 532.5,266.5 C 554.833,266.5 577.167,266.5 599.5,266.5C 599.5,355.167 599.5,443.833 599.5,532.5C 577.167,532.5 554.833,532.5 532.5,532.5C 532.5,443.833 532.5,355.167 532.5,266.5 Z"/></g>
<g><path style="opacity:1" fill="#cb2235" d="M 599.5,266.5 C 643.833,266.5 688.167,266.5 732.5,266.5C 732.5,355.167 732.5,443.833 732.5,532.5C 688.167,532.5 643.833,532.5 599.5,532.5C 599.5,443.833 599.5,355.167 599.5,266.5 Z"/></g>
<g><path style="opacity:1" fill="#cb2235" d="M 866.5,266.5 C 910.833,266.5 955.167,266.5 999.5,266.5C 999.5,355.167 999.5,443.833 999.5,532.5C 955.167,532.5 910.833,532.5 866.5,532.5C 866.5,443.833 866.5,355.167 866.5,266.5 Z"/></g>
<g><path style="opacity:1" fill="#611f61" d="M 132.5,532.5 C 154.833,532.5 177.167,532.5 199.5,532.5C 199.5,577.167 199.5,621.833 199.5,666.5C 177.167,666.5 154.833,666.5 132.5,666.5C 132.5,621.833 132.5,577.167 132.5,532.5 Z"/></g>
<g><path style="opacity:1" fill="#81287a" d="M 199.5,532.5 C 243.833,532.5 288.167,532.5 332.5,532.5C 332.5,577.167 332.5,621.833 332.5,666.5C 288.167,666.5 243.833,666.5 199.5,666.5C 199.5,621.833 199.5,577.167 199.5,532.5 Z"/></g>
<g><path style="opacity:1" fill="#fefffe" d="M 332.5,532.5 C 377.167,532.5 421.833,532.5 466.5,532.5C 466.5,577.167 466.5,621.833 466.5,666.5C 444.167,666.5 421.833,666.5 399.5,666.5C 377.167,666.5 354.833,666.5 332.5,666.5C 332.5,621.833 332.5,577.167 332.5,532.5 Z"/></g>
<g><path style="opacity:1" fill="#81287a" d="M 466.5,532.5 C 488.5,532.5 510.5,532.5 532.5,532.5C 554.833,532.5 577.167,532.5 599.5,532.5C 599.5,577.167 599.5,621.833 599.5,666.5C 555.167,666.5 510.833,666.5 466.5,666.5C 466.5,621.833 466.5,577.167 466.5,532.5 Z"/></g>
<g><path style="opacity:1" fill="#fefffe" d="M 599.5,532.5 C 643.833,532.5 688.167,532.5 732.5,532.5C 732.5,577.167 732.5,621.833 732.5,666.5C 688.167,666.5 643.833,666.5 599.5,666.5C 599.5,621.833 599.5,577.167 599.5,532.5 Z"/></g>
<g><path style="opacity:1" fill="#81287a" d="M 732.5,532.5 C 777.167,532.5 821.833,532.5 866.5,532.5C 866.5,577.167 866.5,621.833 866.5,666.5C 821.833,666.5 777.167,666.5 732.5,666.5C 732.5,621.833 732.5,577.167 732.5,532.5 Z"/></g>
<g><path style="opacity:1" fill="#bfc0bf" d="M 399.5,666.5 C 421.833,666.5 444.167,666.5 466.5,666.5C 466.5,710.833 466.5,755.167 466.5,799.5C 444.167,799.5 421.833,799.5 399.5,799.5C 399.5,755.167 399.5,710.833 399.5,666.5 Z"/></g>
<g><path style="opacity:1" fill="#fefffe" d="M 466.5,666.5 C 510.833,666.5 555.167,666.5 599.5,666.5C 599.5,710.833 599.5,755.167 599.5,799.5C 555.167,799.5 510.833,799.5 466.5,799.5C 466.5,755.167 466.5,710.833 466.5,666.5 Z"/></g>
</svg>
