<?xml version="1.0" encoding="UTF-8"?>
<!DOCTYPE svg PUBLIC "-//W3C//DTD SVG 1.1//EN" "http://www.w3.org/Graphics/SVG/1.1/DTD/svg11.dtd">
<svg xmlns="http://www.w3.org/2000/svg" version="1.1" width="1000px" height="666px" style="shape-rendering:geometricPrecision; text-rendering:geometricPrecision; image-rendering:optimizeQuality; fill-rule:evenodd; clip-rule:evenodd" xmlns:xlink="http://www.w3.org/1999/xlink">
<g><path style="opacity:1" fill="#bcae3a" d="M -0.5,-0.5 C 36.5,-0.5 73.5,-0.5 110.5,-0.5C 110.5,36.5 110.5,73.5 110.5,110.5C 92.1667,110.5 73.8333,110.5 55.5,110.5C 55.5,147.5 55.5,184.5 55.5,221.5C 36.8333,221.5 18.1667,221.5 -0.5,221.5C -0.5,147.5 -0.5,73.5 -0.5,-0.5 Z"/></g>
<g><path style="opacity:1" fill="#b87a1f" d="M 110.5,-0.5 C 147.5,-0.5 184.5,-0.5 221.5,-0.5C 221.5,36.5 221.5,73.5 221.5,110.5C 184.5,110.5 147.5,110.5 110.5,110.5C 110.5,73.5 110.5,36.5 110.5,-0.5 Z"/></g>
<g><path style="opacity:1" fill="#bcae3a" d="M 221.5,-0.5 C 258.5,-0.5 295.5,-0.5 332.5,-0.5C 332.5,73.5 332.5,147.5 332.5,221.5C 314.167,221.5 295.833,221.5 277.5,221.5C 277.5,184.5 277.5,147.5 277.5,110.5C 258.833,110.5 240.167,110.5 221.5,110.5C 221.5,73.5 221.5,36.5 221.5,-0.5 Z"/></g>
<g><path style="opacity:1" fill="#fae74d" d="M 332.5,-0.5 C 406.833,-0.5 481.167,-0.5 555.5,-0.5C 555.5,36.5 555.5,73.5 555.5,110.5C 518.167,110.5 480.833,110.5 443.5,110.5C 443.5,147.5 443.5,184.5 443.5,221.5C 406.5,221.5 369.5,221.5 332.5,221.5C 332.5,147.5 332.5,73.5 332.5,-0.5 Z"/></g>
<g><path style="opacity:1" fill="#f4b629" d="M 555.5,-0.5 C 629.5,-0.5 703.5,-0.5 777.5,-0.5C 777.5,36.5 777.5,73.5 777.5,110.5C 703.5,110.5 629.5,110.5 555.5,110.5C 555.5,73.5 555.5,36.5 555.5,-0.5 Z"/></g>
<g><path style="opacity:1" fill="#fae74d" d="M 777.5,-0.5 C 851.5,-0.5 925.5,-0.5 999.5,-0.5C 999.5,73.5 999.5,147.5 999.5,221.5C 962.5,221.5 925.5,221.5 888.5,221.5C 888.5,184.5 888.5,147.5 888.5,110.5C 851.5,110.5 814.5,110.5 777.5,110.5C 777.5,73.5 777.5,36.5 777.5,-0.5 Z"/></g>
<g><path style="opacity:1" fill="#a6a5ad" d="M 110.5,110.5 C 147.5,110.5 184.5,110.5 221.5,110.5C 221.5,147.5 221.5,184.5 221.5,221.5C 203.167,221.5 184.833,221.5 166.5,221.5C 147.833,221.5 129.167,221.5 110.5,221.5C 110.5,258.5 110.5,295.5 110.5,332.5C 92.1667,332.5 73.8333,332.5 55.5,332.5C 55.5,295.5 55.5,258.5 55.5,221.5C 55.5,184.5 55.5,147.5 55.5,110.5C 73.8333,110.5 92.1667,110.5 110.5,110.5 Z"/></g>
<g><path style="opacity:1" fill="#8c8a90" d="M 221.5,110.5 C 240.167,110.5 258.833,110.5 277.5,110.5C 277.5,147.5 277.5,184.5 277.5,221.5C 258.833,221.5 240.167,221.5 221.5,221.5C 221.5,184.5 221.5,147.5 221.5,110.5 Z"/></g>
<g><path style="opacity:1" fill="#d4d2dc" d="M 555.5,110.5 C 629.5,110.5 703.5,110.5 777.5,110.5C 777.5,147.5 777.5,184.5 777.5,221.5C 740.5,221.5 703.5,221.5 666.5,221.5C 629.5,221.5 592.5,221.5 555.5,221.5C 555.5,258.5 555.5,295.5 555.5,332.5C 555.5,369.5 555.5,406.5 555.5,443.5C 518.167,443.5 480.833,443.5 443.5,443.5C 443.5,369.5 443.5,295.5 443.5,221.5C 443.5,184.5 443.5,147.5 443.5,110.5C 480.833,110.5 518.167,110.5 555.5,110.5 Z"/></g>
<g><path style="opacity:1" fill="#b2b0b8" d="M 777.5,110.5 C 814.5,110.5 851.5,110.5 888.5,110.5C 888.5,147.5 888.5,184.5 888.5,221.5C 851.5,221.5 814.5,221.5 777.5,221.5C 777.5,184.5 777.5,147.5 777.5,110.5 Z"/></g>
<g><path style="opacity:1" fill="#b87a1f" d="M -0.5,221.5 C 18.1667,221.5 36.8333,221.5 55.5,221.5C 55.5,258.5 55.5,295.5 55.5,332.5C 55.5,369.5 55.5,406.5 55.5,443.5C 36.8333,443.5 18.1667,443.5 -0.5,443.5C -0.5,369.5 -0.5,295.5 -0.5,221.5 Z"/></g>
<g><path style="opacity:1" fill="#8c8a90" d="M 166.5,221.5 C 166.5,258.5 166.5,295.5 166.5,332.5C 147.833,332.5 129.167,332.5 110.5,332.5C 110.5,295.5 110.5,258.5 110.5,221.5C 129.167,221.5 147.833,221.5 166.5,221.5 Z"/></g>
<g><path style="opacity:1" fill="#651c18" d="M 166.5,221.5 C 184.833,221.5 203.167,221.5 221.5,221.5C 221.5,258.5 221.5,295.5 221.5,332.5C 203.167,332.5 184.833,332.5 166.5,332.5C 166.5,295.5 166.5,258.5 166.5,221.5 Z"/></g>
<g><path style="opacity:1" fill="#5c5b62" d="M 221.5,221.5 C 240.167,221.5 258.833,221.5 277.5,221.5C 277.5,295.5 277.5,369.5 277.5,443.5C 277.5,480.5 277.5,517.5 277.5,554.5C 258.833,554.5 240.167,554.5 221.5,554.5C 184.5,554.5 147.5,554.5 110.5,554.5C 92.1667,554.5 73.8333,554.5 55.5,554.5C 55.5,517.5 55.5,480.5 55.5,443.5C 73.8333,443.5 92.1667,443.5 110.5,443.5C 129.167,443.5 147.833,443.5 166.5,443.5C 184.833,443.5 203.167,443.5 221.5,443.5C 221.5,406.5 221.5,369.5 221.5,332.5C 221.5,295.5 221.5,258.5 221.5,221.5 Z"/></g>
<g><path style="opacity:1" fill="#b87a1f" d="M 277.5,221.5 C 295.833,221.5 314.167,221.5 332.5,221.5C 332.5,295.5 332.5,369.5 332.5,443.5C 314.167,443.5 295.833,443.5 277.5,443.5C 277.5,369.5 277.5,295.5 277.5,221.5 Z"/></g>
<g><path style="opacity:1" fill="#f4b629" d="M 332.5,221.5 C 369.5,221.5 406.5,221.5 443.5,221.5C 443.5,295.5 443.5,369.5 443.5,443.5C 406.5,443.5 369.5,443.5 332.5,443.5C 332.5,369.5 332.5,295.5 332.5,221.5 Z"/></g>
<g><path style="opacity:1" fill="#b2b0b8" d="M 666.5,221.5 C 666.5,258.5 666.5,295.5 666.5,332.5C 629.5,332.5 592.5,332.5 555.5,332.5C 555.5,295.5 555.5,258.5 555.5,221.5C 592.5,221.5 629.5,221.5 666.5,221.5 Z"/></g>
<g><path style="opacity:1" fill="#a02621" d="M 666.5,221.5 C 703.5,221.5 740.5,221.5 777.5,221.5C 777.5,258.5 777.5,295.5 777.5,332.5C 740.5,332.5 703.5,332.5 666.5,332.5C 666.5,295.5 666.5,258.5 666.5,221.5 Z"/></g>
<g><path style="opacity:1" fill="#76747f" d="M 777.5,221.5 C 814.5,221.5 851.5,221.5 888.5,221.5C 888.5,295.5 888.5,369.5 888.5,443.5C 888.5,480.5 888.5,517.5 888.5,554.5C 851.5,554.5 814.5,554.5 777.5,554.5C 703.5,554.5 629.5,554.5 555.5,554.5C 555.5,517.5 555.5,480.5 555.5,443.5C 592.5,443.5 629.5,443.5 666.5,443.5C 703.5,443.5 740.5,443.5 777.5,443.5C 777.5,406.5 777.5,369.5 777.5,332.5C 777.5,295.5 777.5,258.5 777.5,221.5 Z"/></g>
<g><path style="opacity:1" fill="#f4b629" d="M 888.5,221.5 C 925.5,221.5 962.5,221.5 999.5,221.5C 999.5,295.5 999.5,369.5 999.5,443.5C 962.5,443.5 925.5,443.5 888.5,443.5C 888.5,369.5 888.5,295.5 888.5,221.5 Z"/></g>
<g><path style="opacity:1" fill="#8c8a90" d="M 55.5,332.5 C 73.8333,332.5 92.1667,332.5 110.5,332.5C 110.5,369.5 110.5,406.5 110.5,443.5C 92.1667,443.5 73.8333,443.5 55.5,443.5C 55.5,406.5 55.5,369.5 55.5,332.5 Z"/></g>
<g><path style="opacity:1" fill="#651c18" d="M 110.5,332.5 C 129.167,332.5 147.833,332.5 166.5,332.5C 166.5,369.5 166.5,406.5 166.5,443.5C 147.833,443.5 129.167,443.5 110.5,443.5C 110.5,406.5 110.5,369.5 110.5,332.5 Z"/></g>
<g><path style="opacity:1" fill="#8c8a90" d="M 166.5,332.5 C 184.833,332.5 203.167,332.5 221.5,332.5C 221.5,369.5 221.5,406.5 221.5,443.5C 203.167,443.5 184.833,443.5 166.5,443.5C 166.5,406.5 166.5,369.5 166.5,332.5 Z"/></g>
<g><path style="opacity:1" fill="#a02621" d="M 555.5,332.5 C 592.5,332.5 629.5,332.5 666.5,332.5C 666.5,369.5 666.5,406.5 666.5,443.5C 629.5,443.5 592.5,443.5 555.5,443.5C 555.5,406.5 555.5,369.5 555.5,332.5 Z"/></g>
<g><path style="opacity:1" fill="#b2b0b8" d="M 666.5,332.5 C 703.5,332.5 740.5,332.5 777.5,332.5C 777.5,369.5 777.5,406.5 777.5,443.5C 740.5,443.5 703.5,443.5 666.5,443.5C 666.5,406.5 666.5,369.5 666.5,332.5 Z"/></g>
<g><path style="opacity:1" fill="#bcae3a" d="M -0.5,443.5 C 18.1667,443.5 36.8333,443.5 55.5,443.5C 55.5,480.5 55.5,517.5 55.5,554.5C 73.8333,554.5 92.1667,554.5 110.5,554.5C 110.5,591.5 110.5,628.5 110.5,665.5C 73.5,665.5 36.5,665.5 -0.5,665.5C -0.5,591.5 -0.5,517.5 -0.5,443.5 Z"/></g>
<g><path style="opacity:1" fill="#bcae3a" d="M 277.5,443.5 C 295.833,443.5 314.167,443.5 332.5,443.5C 332.5,517.5 332.5,591.5 332.5,665.5C 295.5,665.5 258.5,665.5 221.5,665.5C 221.5,628.5 221.5,591.5 221.5,554.5C 240.167,554.5 258.833,554.5 277.5,554.5C 277.5,517.5 277.5,480.5 277.5,443.5 Z"/></g>
<g><path style="opacity:1" fill="#fae74d" d="M 332.5,443.5 C 369.5,443.5 406.5,443.5 443.5,443.5C 443.5,480.5 443.5,517.5 443.5,554.5C 480.833,554.5 518.167,554.5 555.5,554.5C 555.5,591.5 555.5,628.5 555.5,665.5C 481.167,665.5 406.833,665.5 332.5,665.5C 332.5,591.5 332.5,517.5 332.5,443.5 Z"/></g>
<g><path style="opacity:1" fill="#b2b0b8" d="M 443.5,443.5 C 480.833,443.5 518.167,443.5 555.5,443.5C 555.5,480.5 555.5,517.5 555.5,554.5C 518.167,554.5 480.833,554.5 443.5,554.5C 443.5,517.5 443.5,480.5 443.5,443.5 Z"/></g>
<g><path style="opacity:1" fill="#fae74d" d="M 888.5,443.5 C 925.5,443.5 962.5,443.5 999.5,443.5C 999.5,517.5 999.5,591.5 999.5,665.5C 925.5,665.5 851.5,665.5 777.5,665.5C 777.5,628.5 777.5,591.5 777.5,554.5C 814.5,554.5 851.5,554.5 888.5,554.5C 888.5,517.5 888.5,480.5 888.5,443.5 Z"/></g>
<g><path style="opacity:1" fill="#b87a1f" d="M 110.5,554.5 C 147.5,554.5 184.5,554.5 221.5,554.5C 221.5,591.5 221.5,628.5 221.5,665.5C 184.5,665.5 147.5,665.5 110.5,665.5C 110.5,628.5 110.5,591.5 110.5,554.5 Z"/></g>
<g><path style="opacity:1" fill="#f4b629" d="M 555.5,554.5 C 629.5,554.5 703.5,554.5 777.5,554.5C 777.5,591.5 777.5,628.5 777.5,665.5C 703.5,665.5 629.5,665.5 555.5,665.5C 555.5,628.5 555.5,591.5 555.5,554.5 Z"/></g>
</svg>
