<?xml version="1.0" encoding="UTF-8"?>
<!DOCTYPE svg PUBLIC "-//W3C//DTD SVG 1.1//EN" "http://www.w3.org/Graphics/SVG/1.1/DTD/svg11.dtd">
<svg xmlns="http://www.w3.org/2000/svg" version="1.1" width="256px" height="256px" style="shape-rendering:geometricPrecision; text-rendering:geometricPrecision; image-rendering:optimizeQuality; fill-rule:evenodd; clip-rule:evenodd" xmlns:xlink="http://www.w3.org/1999/xlink">
<g><path style="opacity:1" fill="#767011" d="M -0.5,63.5 C 10.1667,63.5 20.8333,63.5 31.5,63.5C 31.5,106.167 31.5,148.833 31.5,191.5C 20.8333,191.5 10.1667,191.5 -0.5,191.5C -0.5,148.833 -0.5,106.167 -0.5,63.5 Z"/></g>
<g><path style="opacity:1" fill="#9c9416" d="M 31.5,63.5 C 42.1667,63.5 52.8333,63.5 63.5,63.5C 63.5,74.1667 63.5,84.8333 63.5,95.5C 63.5,106.167 63.5,116.833 63.5,127.5C 63.5,138.167 63.5,148.833 63.5,159.5C 74.1667,159.5 84.8333,159.5 95.5,159.5C 106.167,159.5 116.833,159.5 127.5,159.5C 159.5,159.5 191.5,159.5 223.5,159.5C 223.5,148.833 223.5,138.167 223.5,127.5C 223.5,116.833 223.5,106.167 223.5,95.5C 223.5,84.8333 223.5,74.1667 223.5,63.5C 234.167,63.5 244.833,63.5 255.5,63.5C 255.5,106.167 255.5,148.833 255.5,191.5C 180.833,191.5 106.167,191.5 31.5,191.5C 31.5,148.833 31.5,106.167 31.5,63.5 Z"/></g>
<g><path style="opacity:1" fill="#ab1b0f" d="M 63.5,63.5 C 84.8333,63.5 106.167,63.5 127.5,63.5C 127.5,74.1667 127.5,84.8333 127.5,95.5C 138.167,95.5 148.833,95.5 159.5,95.5C 159.5,84.8333 159.5,74.1667 159.5,63.5C 180.833,63.5 202.167,63.5 223.5,63.5C 223.5,74.1667 223.5,84.8333 223.5,95.5C 212.833,95.5 202.167,95.5 191.5,95.5C 191.5,106.167 191.5,116.833 191.5,127.5C 202.167,127.5 212.833,127.5 223.5,127.5C 223.5,138.167 223.5,148.833 223.5,159.5C 191.5,159.5 159.5,159.5 127.5,159.5C 127.5,148.833 127.5,138.167 127.5,127.5C 116.833,127.5 106.167,127.5 95.5,127.5C 95.5,116.833 95.5,106.167 95.5,95.5C 84.8333,95.5 74.1667,95.5 63.5,95.5C 63.5,84.8333 63.5,74.1667 63.5,63.5 Z"/></g>
<g><path style="opacity:1" fill="#000000" d="M 127.5,63.5 C 138.167,63.5 148.833,63.5 159.5,63.5C 159.5,74.1667 159.5,84.8333 159.5,95.5C 148.833,95.5 138.167,95.5 127.5,95.5C 127.5,84.8333 127.5,74.1667 127.5,63.5 Z"/></g>
<g><path style="opacity:1" fill="#000000" d="M 63.5,95.5 C 74.1667,95.5 84.8333,95.5 95.5,95.5C 95.5,106.167 95.5,116.833 95.5,127.5C 84.8333,127.5 74.1667,127.5 63.5,127.5C 63.5,116.833 63.5,106.167 63.5,95.5 Z"/></g>
<g><path style="opacity:1" fill="#000000" d="M 223.5,95.5 C 223.5,106.167 223.5,116.833 223.5,127.5C 212.833,127.5 202.167,127.5 191.5,127.5C 191.5,116.833 191.5,106.167 191.5,95.5C 202.167,95.5 212.833,95.5 223.5,95.5 Z"/></g>
<g><path style="opacity:1" fill="#ab1b0f" d="M 63.5,127.5 C 74.1667,127.5 84.8333,127.5 95.5,127.5C 95.5,138.167 95.5,148.833 95.5,159.5C 84.8333,159.5 74.1667,159.5 63.5,159.5C 63.5,148.833 63.5,138.167 63.5,127.5 Z"/></g>
<g><path style="opacity:1" fill="#000000" d="M 95.5,127.5 C 106.167,127.5 116.833,127.5 127.5,127.5C 127.5,138.167 127.5,148.833 127.5,159.5C 116.833,159.5 106.167,159.5 95.5,159.5C 95.5,148.833 95.5,138.167 95.5,127.5 Z"/></g>
</svg>
