<?xml version="1.0" encoding="UTF-8"?>
<!DOCTYPE svg PUBLIC "-//W3C//DTD SVG 1.1//EN" "http://www.w3.org/Graphics/SVG/1.1/DTD/svg11.dtd">
<svg xmlns="http://www.w3.org/2000/svg" version="1.1" width="1000px" height="1000px" style="shape-rendering:geometricPrecision; text-rendering:geometricPrecision; image-rendering:optimizeQuality; fill-rule:evenodd; clip-rule:evenodd" xmlns:xlink="http://www.w3.org/1999/xlink">
<g><path style="opacity:1" fill="#e65c00" d="M 571.5,-0.5 C 619.167,-0.5 666.833,-0.5 714.5,-0.5C 714.5,94.8333 714.5,190.167 714.5,285.5C 809.5,285.5 904.5,285.5 999.5,285.5C 999.5,476.167 999.5,666.833 999.5,857.5C 952.167,857.5 904.833,857.5 857.5,857.5C 857.5,904.833 857.5,952.167 857.5,999.5C 666.833,999.5 476.167,999.5 285.5,999.5C 285.5,952.167 285.5,904.833 285.5,857.5C 237.833,857.5 190.167,857.5 142.5,857.5C 142.5,809.833 142.5,762.167 142.5,714.5C 94.8333,714.5 47.1667,714.5 -0.5,714.5C -0.5,619.167 -0.5,523.833 -0.5,428.5C 142.5,428.5 285.5,428.5 428.5,428.5C 428.5,333.167 428.5,237.833 428.5,142.5C 476.167,142.5 523.833,142.5 571.5,142.5C 571.5,94.8333 571.5,47.1667 571.5,-0.5 Z"/></g>
<g><path style="opacity:1" fill="#e65c00" d="M 857.5,-0.5 C 904.833,-0.5 952.167,-0.5 999.5,-0.5C 999.5,47.1667 999.5,94.8333 999.5,142.5C 952.167,142.5 904.833,142.5 857.5,142.5C 857.5,94.8333 857.5,47.1667 857.5,-0.5 Z"/></g>
<g><path style="opacity:1" fill="#e65c00" d="M 142.5,142.5 C 190.167,142.5 237.833,142.5 285.5,142.5C 285.5,190.167 285.5,237.833 285.5,285.5C 237.833,285.5 190.167,285.5 142.5,285.5C 142.5,237.833 142.5,190.167 142.5,142.5 Z"/></g>
<g><path style="opacity:1" fill="#e6dc00" d="M 428.5,714.5 C 476.167,714.5 523.833,714.5 571.5,714.5C 571.5,619.167 571.5,523.833 571.5,428.5C 619.167,428.5 666.833,428.5 714.5,428.5C 714.5,476.167 714.5,523.833 714.5,571.5C 762.167,571.5 809.833,571.5 857.5,571.5C 857.5,619.167 857.5,666.833 857.5,714.5C 809.833,714.5 762.167,714.5 714.5,714.5C 714.5,762.167 714.5,809.833 714.5,857.5C 619.167,857.5 523.833,857.5 428.5,857.5C 428.5,809.833 428.5,762.167 428.5,714.5 Z"/></g>
<g><path style="opacity:1" fill="#e6dc00" d="M 428.5,714.5 C 380.833,714.5 333.167,714.5 285.5,714.5C 285.5,666.833 285.5,619.167 285.5,571.5C 333.167,571.5 380.833,571.5 428.5,571.5C 428.5,619.167 428.5,666.833 428.5,714.5 Z"/></g>
</svg>
