<?xml version="1.0" encoding="UTF-8"?>
<!DOCTYPE svg PUBLIC "-//W3C//DTD SVG 1.1//EN" "http://www.w3.org/Graphics/SVG/1.1/DTD/svg11.dtd">
<svg xmlns="http://www.w3.org/2000/svg" version="1.1" width="1000px" height="667px" style="shape-rendering:geometricPrecision; text-rendering:geometricPrecision; image-rendering:optimizeQuality; fill-rule:evenodd; clip-rule:evenodd" xmlns:xlink="http://www.w3.org/1999/xlink">
<g><path style="opacity:1" fill="#00060b" d="M -0.5,-0.5 C 110.833,-0.5 222.167,-0.5 333.5,-0.5C 333.5,221.833 333.5,444.167 333.5,666.5C 222.167,666.5 110.833,666.5 -0.5,666.5C -0.5,444.167 -0.5,221.833 -0.5,-0.5 Z"/></g>
<g><path style="opacity:1" fill="#00080e" d="M 333.5,-0.5 C 555.5,-0.5 777.5,-0.5 999.5,-0.5C 999.5,221.833 999.5,444.167 999.5,666.5C 777.5,666.5 555.5,666.5 333.5,666.5C 333.5,444.167 333.5,221.833 333.5,-0.5 Z"/></g>
<g><path style="opacity:1" fill="#092a2c" d="M 55.5,111.5 C 129.5,111.5 203.5,111.5 277.5,111.5C 277.5,148.5 277.5,185.5 277.5,222.5C 203.5,222.5 129.5,222.5 55.5,222.5C 55.5,185.5 55.5,148.5 55.5,111.5 Z"/></g>
<g><path style="opacity:1" fill="#133236" d="M 778.5,222.5 C 741.5,222.5 704.5,222.5 667.5,222.5C 648.833,222.5 630.167,222.5 611.5,222.5C 555.833,222.5 500.167,222.5 444.5,222.5C 444.5,185.5 444.5,148.5 444.5,111.5C 592.833,111.5 741.167,111.5 889.5,111.5C 889.5,148.5 889.5,185.5 889.5,222.5C 852.5,222.5 815.5,222.5 778.5,222.5 Z"/></g>
<g><path style="opacity:1" fill="#c0b12a" d="M 611.5,222.5 C 630.167,222.5 648.833,222.5 667.5,222.5C 667.5,296.5 667.5,370.5 667.5,444.5C 648.833,444.5 630.167,444.5 611.5,444.5C 611.5,407.5 611.5,370.5 611.5,333.5C 611.5,296.5 611.5,259.5 611.5,222.5 Z"/></g>
<g><path style="opacity:1" fill="#d2c338" d="M 667.5,222.5 C 704.5,222.5 741.5,222.5 778.5,222.5C 778.5,259.5 778.5,296.5 778.5,333.5C 778.5,370.5 778.5,407.5 778.5,444.5C 741.5,444.5 704.5,444.5 667.5,444.5C 667.5,370.5 667.5,296.5 667.5,222.5 Z"/></g>
<g><path style="opacity:1" fill="#021926" d="M 55.5,333.5 C 129.5,333.5 203.5,333.5 277.5,333.5C 277.5,407.5 277.5,481.5 277.5,555.5C 203.5,555.5 129.5,555.5 55.5,555.5C 55.5,481.5 55.5,407.5 55.5,333.5 Z"/></g>
<g><path style="opacity:1" fill="#072a2a" d="M 555.5,333.5 C 555.5,370.5 555.5,407.5 555.5,444.5C 555.5,481.5 555.5,518.5 555.5,555.5C 518.5,555.5 481.5,555.5 444.5,555.5C 444.5,481.5 444.5,407.5 444.5,333.5C 481.5,333.5 518.5,333.5 555.5,333.5 Z"/></g>
<g><path style="opacity:1" fill="#94cd93" d="M 555.5,333.5 C 574.167,333.5 592.833,333.5 611.5,333.5C 611.5,370.5 611.5,407.5 611.5,444.5C 592.833,444.5 574.167,444.5 555.5,444.5C 555.5,407.5 555.5,370.5 555.5,333.5 Z"/></g>
<g><path style="opacity:1" fill="#072a2a" d="M 778.5,333.5 C 815.5,333.5 852.5,333.5 889.5,333.5C 889.5,407.5 889.5,481.5 889.5,555.5C 852.5,555.5 815.5,555.5 778.5,555.5C 778.5,518.5 778.5,481.5 778.5,444.5C 778.5,407.5 778.5,370.5 778.5,333.5 Z"/></g>
<g><path style="opacity:1" fill="#73b76a" d="M 555.5,444.5 C 574.167,444.5 592.833,444.5 611.5,444.5C 630.167,444.5 648.833,444.5 667.5,444.5C 667.5,481.5 667.5,518.5 667.5,555.5C 630.167,555.5 592.833,555.5 555.5,555.5C 555.5,518.5 555.5,481.5 555.5,444.5 Z"/></g>
<g><path style="opacity:1" fill="#17311d" d="M 667.5,444.5 C 704.5,444.5 741.5,444.5 778.5,444.5C 778.5,481.5 778.5,518.5 778.5,555.5C 741.5,555.5 704.5,555.5 667.5,555.5C 667.5,518.5 667.5,481.5 667.5,444.5 Z"/></g>
</svg>
