<?xml version="1.0" encoding="UTF-8"?>
<!DOCTYPE svg PUBLIC "-//W3C//DTD SVG 1.1//EN" "http://www.w3.org/Graphics/SVG/1.1/DTD/svg11.dtd">
<svg xmlns="http://www.w3.org/2000/svg" version="1.1" width="1000px" height="400px" style="shape-rendering:geometricPrecision; text-rendering:geometricPrecision; image-rendering:optimizeQuality; fill-rule:evenodd; clip-rule:evenodd" xmlns:xlink="http://www.w3.org/1999/xlink">
<g><path style="opacity:1" fill="#b8961f" d="M -0.5,-0.5 C 21.8333,-0.5 44.1667,-0.5 66.5,-0.5C 66.5,43.8333 66.5,88.1667 66.5,132.5C 88.5,132.5 110.5,132.5 132.5,132.5C 132.5,88.1667 132.5,43.8333 132.5,-0.5C 154.833,-0.5 177.167,-0.5 199.5,-0.5C 199.5,43.8333 199.5,88.1667 199.5,132.5C 221.833,132.5 244.167,132.5 266.5,132.5C 266.5,88.1667 266.5,43.8333 266.5,-0.5C 288.5,-0.5 310.5,-0.5 332.5,-0.5C 332.5,132.833 332.5,266.167 332.5,399.5C 221.5,399.5 110.5,399.5 -0.5,399.5C -0.5,266.167 -0.5,132.833 -0.5,-0.5 Z"/></g>
<g><path style="opacity:1" fill="#a56e1f" d="M 66.5,-0.5 C 88.5,-0.5 110.5,-0.5 132.5,-0.5C 132.5,43.8333 132.5,88.1667 132.5,132.5C 110.5,132.5 88.5,132.5 66.5,132.5C 66.5,88.1667 66.5,43.8333 66.5,-0.5 Z"/></g>
<g><path style="opacity:1" fill="#a56e1f" d="M 199.5,-0.5 C 221.833,-0.5 244.167,-0.5 266.5,-0.5C 266.5,43.8333 266.5,88.1667 266.5,132.5C 244.167,132.5 221.833,132.5 199.5,132.5C 199.5,88.1667 199.5,43.8333 199.5,-0.5 Z"/></g>
<g><path style="opacity:1" fill="#f4da29" d="M 332.5,-0.5 C 377.167,-0.5 421.833,-0.5 466.5,-0.5C 466.5,43.8333 466.5,88.1667 466.5,132.5C 488.5,132.5 510.5,132.5 532.5,132.5C 554.833,132.5 577.167,132.5 599.5,132.5C 599.5,88.1667 599.5,43.8333 599.5,-0.5C 643.833,-0.5 688.167,-0.5 732.5,-0.5C 732.5,43.8333 732.5,88.1667 732.5,132.5C 754.833,132.5 777.167,132.5 799.5,132.5C 821.833,132.5 844.167,132.5 866.5,132.5C 866.5,88.1667 866.5,43.8333 866.5,-0.5C 910.833,-0.5 955.167,-0.5 999.5,-0.5C 999.5,132.833 999.5,266.167 999.5,399.5C 777.167,399.5 554.833,399.5 332.5,399.5C 332.5,266.167 332.5,132.833 332.5,-0.5 Z"/></g>
<g><path style="opacity:1" fill="#b8961f" d="M 532.5,-0.5 C 554.833,-0.5 577.167,-0.5 599.5,-0.5C 599.5,43.8333 599.5,88.1667 599.5,132.5C 577.167,132.5 554.833,132.5 532.5,132.5C 532.5,88.1667 532.5,43.8333 532.5,-0.5 Z"/></g>
<g><path style="opacity:1" fill="#b8961f" d="M 799.5,-0.5 C 821.833,-0.5 844.167,-0.5 866.5,-0.5C 866.5,43.8333 866.5,88.1667 866.5,132.5C 844.167,132.5 821.833,132.5 799.5,132.5C 799.5,88.1667 799.5,43.8333 799.5,-0.5 Z"/></g>
</svg>
