<?xml version="1.0" encoding="UTF-8"?>
<!DOCTYPE svg PUBLIC "-//W3C//DTD SVG 1.1//EN" "http://www.w3.org/Graphics/SVG/1.1/DTD/svg11.dtd">
<svg xmlns="http://www.w3.org/2000/svg" version="1.1" width="1000px" height="923px" style="shape-rendering:geometricPrecision; text-rendering:geometricPrecision; image-rendering:optimizeQuality; fill-rule:evenodd; clip-rule:evenodd" xmlns:xlink="http://www.w3.org/1999/xlink">
<g><path style="opacity:1" fill="#54504f" d="M -0.5,-0.5 C 25.1667,-0.5 50.8333,-0.5 76.5,-0.5C 76.5,307.167 76.5,614.833 76.5,922.5C 50.8333,922.5 25.1667,922.5 -0.5,922.5C -0.5,614.833 -0.5,307.167 -0.5,-0.5 Z"/></g>
<g><path style="opacity:1" fill="#707170" d="M 76.5,-0.5 C 384.167,-0.5 691.833,-0.5 999.5,-0.5C 999.5,307.167 999.5,614.833 999.5,922.5C 691.833,922.5 384.167,922.5 76.5,922.5C 76.5,614.833 76.5,307.167 76.5,-0.5 Z"/></g>
<g><path style="opacity:1" fill="#fefffe" d="M 230.5,153.5 C 435.5,153.5 640.5,153.5 845.5,153.5C 845.5,358.5 845.5,563.5 845.5,768.5C 794.167,768.5 742.833,768.5 691.5,768.5C 691.5,614.833 691.5,461.167 691.5,307.5C 640.167,307.5 588.833,307.5 537.5,307.5C 537.5,461.167 537.5,614.833 537.5,768.5C 435.167,768.5 332.833,768.5 230.5,768.5C 230.5,563.5 230.5,358.5 230.5,153.5 Z"/></g>
</svg>
