<?xml version="1.0" encoding="UTF-8"?>
<!DOCTYPE svg PUBLIC "-//W3C//DTD SVG 1.1//EN" "http://www.w3.org/Graphics/SVG/1.1/DTD/svg11.dtd">
<svg xmlns="http://www.w3.org/2000/svg" version="1.1" width="1000px" height="608px" style="shape-rendering:geometricPrecision; text-rendering:geometricPrecision; image-rendering:optimizeQuality; fill-rule:evenodd; clip-rule:evenodd" xmlns:xlink="http://www.w3.org/1999/xlink">
<g><path style="opacity:1" fill="#bc8f4f" d="M 42.5,-0.5 C 71.5,-0.5 100.5,-0.5 129.5,-0.5C 129.5,42.8333 129.5,86.1667 129.5,129.5C 100.5,129.5 71.5,129.5 42.5,129.5C 42.5,115.167 42.5,100.833 42.5,86.5C 42.5,57.5 42.5,28.5 42.5,-0.5 Z"/></g>
<g><path style="opacity:1" fill="#fac268" d="M 129.5,-0.5 C 158.5,-0.5 187.5,-0.5 216.5,-0.5C 216.5,28.5 216.5,57.5 216.5,86.5C 216.5,100.833 216.5,115.167 216.5,129.5C 187.5,129.5 158.5,129.5 129.5,129.5C 129.5,86.1667 129.5,42.8333 129.5,-0.5 Z"/></g>
<g><path style="opacity:1" fill="#bc8f4f" d="M 347.5,-0.5 C 376.5,-0.5 405.5,-0.5 434.5,-0.5C 434.5,28.5 434.5,57.5 434.5,86.5C 405.5,86.5 376.5,86.5 347.5,86.5C 347.5,57.5 347.5,28.5 347.5,-0.5 Z"/></g>
<g><path style="opacity:1" fill="#fac268" d="M 434.5,-0.5 C 463.5,-0.5 492.5,-0.5 521.5,-0.5C 521.5,28.5 521.5,57.5 521.5,86.5C 492.5,86.5 463.5,86.5 434.5,86.5C 434.5,57.5 434.5,28.5 434.5,-0.5 Z"/></g>
<g><path style="opacity:1" fill="#af8337" d="M -0.5,86.5 C 13.8333,86.5 28.1667,86.5 42.5,86.5C 42.5,100.833 42.5,115.167 42.5,129.5C 71.5,129.5 100.5,129.5 129.5,129.5C 158.5,129.5 187.5,129.5 216.5,129.5C 216.5,115.167 216.5,100.833 216.5,86.5C 231.167,86.5 245.833,86.5 260.5,86.5C 260.5,115.5 260.5,144.5 260.5,173.5C 231.5,173.5 202.5,173.5 173.5,173.5C 173.5,202.5 173.5,231.5 173.5,260.5C 144.5,260.5 115.5,260.5 86.5,260.5C 86.5,347.167 86.5,433.833 86.5,520.5C 115.5,520.5 144.5,520.5 173.5,520.5C 173.5,549.5 173.5,578.5 173.5,607.5C 115.5,607.5 57.5,607.5 -0.5,607.5C -0.5,433.833 -0.5,260.167 -0.5,86.5 Z"/></g>
<g><path style="opacity:1" fill="#e8ad49" d="M 260.5,86.5 C 289.5,86.5 318.5,86.5 347.5,86.5C 347.5,115.5 347.5,144.5 347.5,173.5C 318.5,173.5 289.5,173.5 260.5,173.5C 260.5,144.5 260.5,115.5 260.5,86.5 Z"/></g>
<g><path style="opacity:1" fill="#af8337" d="M 347.5,86.5 C 376.5,86.5 405.5,86.5 434.5,86.5C 463.5,86.5 492.5,86.5 521.5,86.5C 550.5,86.5 579.5,86.5 608.5,86.5C 608.5,115.5 608.5,144.5 608.5,173.5C 622.833,173.5 637.167,173.5 651.5,173.5C 651.5,202.5 651.5,231.5 651.5,260.5C 622.5,260.5 593.5,260.5 564.5,260.5C 564.5,231.5 564.5,202.5 564.5,173.5C 550.167,173.5 535.833,173.5 521.5,173.5C 521.5,231.167 521.5,288.833 521.5,346.5C 564.833,346.5 608.167,346.5 651.5,346.5C 651.5,375.5 651.5,404.5 651.5,433.5C 637.167,433.5 622.833,433.5 608.5,433.5C 521.5,433.5 434.5,433.5 347.5,433.5C 347.5,404.5 347.5,375.5 347.5,346.5C 347.5,317.833 347.5,289.167 347.5,260.5C 347.5,231.5 347.5,202.5 347.5,173.5C 347.5,144.5 347.5,115.5 347.5,86.5 Z"/></g>
<g><path style="opacity:1" fill="#47371a" d="M 608.5,86.5 C 622.833,86.5 637.167,86.5 651.5,86.5C 651.5,115.5 651.5,144.5 651.5,173.5C 637.167,173.5 622.833,173.5 608.5,173.5C 608.5,144.5 608.5,115.5 608.5,86.5 Z"/></g>
<g><path style="opacity:1" fill="#5e4822" d="M 651.5,86.5 C 680.5,86.5 709.5,86.5 738.5,86.5C 738.5,115.5 738.5,144.5 738.5,173.5C 709.5,173.5 680.5,173.5 651.5,173.5C 651.5,144.5 651.5,115.5 651.5,86.5 Z"/></g>
<g><path style="opacity:1" fill="#9b7f4f" d="M 738.5,86.5 C 796.5,86.5 854.5,86.5 912.5,86.5C 912.5,115.5 912.5,144.5 912.5,173.5C 912.5,202.5 912.5,231.5 912.5,260.5C 854.5,260.5 796.5,260.5 738.5,260.5C 738.5,231.5 738.5,202.5 738.5,173.5C 738.5,144.5 738.5,115.5 738.5,86.5 Z"/></g>
<g><path style="opacity:1" fill="#5e4822" d="M 912.5,86.5 C 941.5,86.5 970.5,86.5 999.5,86.5C 999.5,115.5 999.5,144.5 999.5,173.5C 970.5,173.5 941.5,173.5 912.5,173.5C 912.5,144.5 912.5,115.5 912.5,86.5 Z"/></g>
<g><path style="opacity:1" fill="#231f15" d="M 260.5,173.5 C 260.5,202.5 260.5,231.5 260.5,260.5C 231.5,260.5 202.5,260.5 173.5,260.5C 173.5,231.5 173.5,202.5 173.5,173.5C 202.5,173.5 231.5,173.5 260.5,173.5 Z"/></g>
<g><path style="opacity:1" fill="#2e281b" d="M 260.5,173.5 C 289.5,173.5 318.5,173.5 347.5,173.5C 347.5,202.5 347.5,231.5 347.5,260.5C 318.5,260.5 289.5,260.5 260.5,260.5C 260.5,231.5 260.5,202.5 260.5,173.5 Z"/></g>
<g><path style="opacity:1" fill="#47371a" d="M 651.5,260.5 C 651.5,289.167 651.5,317.833 651.5,346.5C 608.167,346.5 564.833,346.5 521.5,346.5C 521.5,288.833 521.5,231.167 521.5,173.5C 535.833,173.5 550.167,173.5 564.5,173.5C 564.5,202.5 564.5,231.5 564.5,260.5C 593.5,260.5 622.5,260.5 651.5,260.5 Z"/></g>
<g><path style="opacity:1" fill="#e8ad49" d="M 651.5,173.5 C 680.5,173.5 709.5,173.5 738.5,173.5C 738.5,202.5 738.5,231.5 738.5,260.5C 709.5,260.5 680.5,260.5 651.5,260.5C 651.5,231.5 651.5,202.5 651.5,173.5 Z"/></g>
<g><path style="opacity:1" fill="#e8ad49" d="M 912.5,173.5 C 941.5,173.5 970.5,173.5 999.5,173.5C 999.5,202.5 999.5,231.5 999.5,260.5C 970.5,260.5 941.5,260.5 912.5,260.5C 912.5,231.5 912.5,202.5 912.5,173.5 Z"/></g>
<g><path style="opacity:1" fill="#bc8f4f" d="M 173.5,260.5 C 173.5,289.167 173.5,317.833 173.5,346.5C 202.5,346.5 231.5,346.5 260.5,346.5C 260.5,433.5 260.5,520.5 260.5,607.5C 231.5,607.5 202.5,607.5 173.5,607.5C 173.5,578.5 173.5,549.5 173.5,520.5C 144.5,520.5 115.5,520.5 86.5,520.5C 86.5,433.833 86.5,347.167 86.5,260.5C 115.5,260.5 144.5,260.5 173.5,260.5 Z"/></g>
<g><path style="opacity:1" fill="#af8337" d="M 173.5,260.5 C 202.5,260.5 231.5,260.5 260.5,260.5C 260.5,289.167 260.5,317.833 260.5,346.5C 231.5,346.5 202.5,346.5 173.5,346.5C 173.5,317.833 173.5,289.167 173.5,260.5 Z"/></g>
<g><path style="opacity:1" fill="#e8ad49" d="M 260.5,260.5 C 289.5,260.5 318.5,260.5 347.5,260.5C 347.5,289.167 347.5,317.833 347.5,346.5C 318.5,346.5 289.5,346.5 260.5,346.5C 260.5,317.833 260.5,289.167 260.5,260.5 Z"/></g>
<g><path style="opacity:1" fill="#5e4822" d="M 651.5,260.5 C 680.5,260.5 709.5,260.5 738.5,260.5C 796.5,260.5 854.5,260.5 912.5,260.5C 941.5,260.5 970.5,260.5 999.5,260.5C 999.5,289.167 999.5,317.833 999.5,346.5C 883.5,346.5 767.5,346.5 651.5,346.5C 651.5,317.833 651.5,289.167 651.5,260.5 Z"/></g>
<g><path style="opacity:1" fill="#fac268" d="M 260.5,346.5 C 289.5,346.5 318.5,346.5 347.5,346.5C 347.5,375.5 347.5,404.5 347.5,433.5C 347.5,462.5 347.5,491.5 347.5,520.5C 434.5,520.5 521.5,520.5 608.5,520.5C 608.5,491.5 608.5,462.5 608.5,433.5C 622.833,433.5 637.167,433.5 651.5,433.5C 695.167,433.5 738.833,433.5 782.5,433.5C 782.5,491.5 782.5,549.5 782.5,607.5C 608.5,607.5 434.5,607.5 260.5,607.5C 260.5,520.5 260.5,433.5 260.5,346.5 Z"/></g>
<g><path style="opacity:1" fill="#e8ad49" d="M 651.5,346.5 C 767.5,346.5 883.5,346.5 999.5,346.5C 999.5,375.5 999.5,404.5 999.5,433.5C 927.167,433.5 854.833,433.5 782.5,433.5C 738.833,433.5 695.167,433.5 651.5,433.5C 651.5,404.5 651.5,375.5 651.5,346.5 Z"/></g>
<g><path style="opacity:1" fill="#e8ad49" d="M 347.5,433.5 C 434.5,433.5 521.5,433.5 608.5,433.5C 608.5,462.5 608.5,491.5 608.5,520.5C 521.5,520.5 434.5,520.5 347.5,520.5C 347.5,491.5 347.5,462.5 347.5,433.5 Z"/></g>
</svg>
