<?xml version="1.0" encoding="UTF-8"?>
<!DOCTYPE svg PUBLIC "-//W3C//DTD SVG 1.1//EN" "http://www.w3.org/Graphics/SVG/1.1/DTD/svg11.dtd">
<svg xmlns="http://www.w3.org/2000/svg" version="1.1" width="956px" height="1000px" style="shape-rendering:geometricPrecision; text-rendering:geometricPrecision; image-rendering:optimizeQuality; fill-rule:evenodd; clip-rule:evenodd" xmlns:xlink="http://www.w3.org/1999/xlink">
<g><path style="opacity:1" fill="#484948" d="M 520.5,-0.5 C 535.167,-0.5 549.833,-0.5 564.5,-0.5C 564.5,28.5 564.5,57.5 564.5,86.5C 549.833,86.5 535.167,86.5 520.5,86.5C 520.5,57.5 520.5,28.5 520.5,-0.5 Z"/></g>
<g><path style="opacity:1" fill="#626362" d="M 564.5,-0.5 C 593.5,-0.5 622.5,-0.5 651.5,-0.5C 651.5,28.5 651.5,57.5 651.5,86.5C 636.833,86.5 622.167,86.5 607.5,86.5C 593.167,86.5 578.833,86.5 564.5,86.5C 564.5,57.5 564.5,28.5 564.5,-0.5 Z"/></g>
<g><path style="opacity:1" fill="#a3962c" d="M 434.5,86.5 C 434.5,115.5 434.5,144.5 434.5,173.5C 405.5,173.5 376.5,173.5 347.5,173.5C 347.5,158.833 347.5,144.167 347.5,129.5C 347.5,115.167 347.5,100.833 347.5,86.5C 376.5,86.5 405.5,86.5 434.5,86.5 Z"/></g>
<g><path style="opacity:1" fill="#262726" d="M 434.5,86.5 C 448.833,86.5 463.167,86.5 477.5,86.5C 477.5,115.5 477.5,144.5 477.5,173.5C 463.167,173.5 448.833,173.5 434.5,173.5C 434.5,144.5 434.5,115.5 434.5,86.5 Z"/></g>
<g><path style="opacity:1" fill="#343534" d="M 477.5,86.5 C 491.833,86.5 506.167,86.5 520.5,86.5C 535.167,86.5 549.833,86.5 564.5,86.5C 564.5,100.833 564.5,115.167 564.5,129.5C 564.5,144.167 564.5,158.833 564.5,173.5C 535.5,173.5 506.5,173.5 477.5,173.5C 477.5,144.5 477.5,115.5 477.5,86.5 Z"/></g>
<g><path style="opacity:1" fill="#1b1c1b" d="M 607.5,86.5 C 622.167,86.5 636.833,86.5 651.5,86.5C 651.5,115.5 651.5,144.5 651.5,173.5C 636.833,173.5 622.167,173.5 607.5,173.5C 607.5,158.833 607.5,144.167 607.5,129.5C 607.5,115.167 607.5,100.833 607.5,86.5 Z"/></g>
<g><path style="opacity:1" fill="#252625" d="M 651.5,86.5 C 680.5,86.5 709.5,86.5 738.5,86.5C 738.5,115.5 738.5,144.5 738.5,173.5C 723.833,173.5 709.167,173.5 694.5,173.5C 680.167,173.5 665.833,173.5 651.5,173.5C 651.5,144.5 651.5,115.5 651.5,86.5 Z"/></g>
<g><path style="opacity:1" fill="#892518" d="M -0.5,129.5 C 115.5,129.5 231.5,129.5 347.5,129.5C 347.5,144.167 347.5,158.833 347.5,173.5C 318.5,173.5 289.5,173.5 260.5,173.5C 245.833,173.5 231.167,173.5 216.5,173.5C 216.5,202.5 216.5,231.5 216.5,260.5C 216.5,289.5 216.5,318.5 216.5,347.5C 202.167,347.5 187.833,347.5 173.5,347.5C 158.833,347.5 144.167,347.5 129.5,347.5C 129.5,303.833 129.5,260.167 129.5,216.5C 100.5,216.5 71.5,216.5 42.5,216.5C 42.5,260.167 42.5,303.833 42.5,347.5C 28.1667,347.5 13.8333,347.5 -0.5,347.5C -0.5,274.833 -0.5,202.167 -0.5,129.5 Z"/></g>
<g><path style="opacity:1" fill="#892518" d="M 564.5,129.5 C 578.833,129.5 593.167,129.5 607.5,129.5C 607.5,144.167 607.5,158.833 607.5,173.5C 593.167,173.5 578.833,173.5 564.5,173.5C 564.5,158.833 564.5,144.167 564.5,129.5 Z"/></g>
<g><path style="opacity:1" fill="#452707" d="M 260.5,173.5 C 260.5,202.5 260.5,231.5 260.5,260.5C 245.833,260.5 231.167,260.5 216.5,260.5C 216.5,231.5 216.5,202.5 216.5,173.5C 231.167,173.5 245.833,173.5 260.5,173.5 Z"/></g>
<g><path style="opacity:1" fill="#77440e" d="M 260.5,173.5 C 289.5,173.5 318.5,173.5 347.5,173.5C 347.5,202.5 347.5,231.5 347.5,260.5C 318.5,260.5 289.5,260.5 260.5,260.5C 260.5,231.5 260.5,202.5 260.5,173.5 Z"/></g>
<g><path style="opacity:1" fill="#927249" d="M 347.5,173.5 C 376.5,173.5 405.5,173.5 434.5,173.5C 448.833,173.5 463.167,173.5 477.5,173.5C 506.5,173.5 535.5,173.5 564.5,173.5C 578.833,173.5 593.167,173.5 607.5,173.5C 607.5,202.5 607.5,231.5 607.5,260.5C 549.833,260.5 492.167,260.5 434.5,260.5C 405.5,260.5 376.5,260.5 347.5,260.5C 347.5,231.5 347.5,202.5 347.5,173.5 Z"/></g>
<g><path style="opacity:1" fill="#77440e" d="M 607.5,173.5 C 622.167,173.5 636.833,173.5 651.5,173.5C 665.833,173.5 680.167,173.5 694.5,173.5C 694.5,202.5 694.5,231.5 694.5,260.5C 665.5,260.5 636.5,260.5 607.5,260.5C 607.5,231.5 607.5,202.5 607.5,173.5 Z"/></g>
<g><path style="opacity:1" fill="#927249" d="M 694.5,173.5 C 709.167,173.5 723.833,173.5 738.5,173.5C 752.833,173.5 767.167,173.5 781.5,173.5C 781.5,202.5 781.5,231.5 781.5,260.5C 752.5,260.5 723.5,260.5 694.5,260.5C 694.5,231.5 694.5,202.5 694.5,173.5 Z"/></g>
<g><path style="opacity:1" fill="#623c14" d="M 781.5,173.5 C 839.5,173.5 897.5,173.5 955.5,173.5C 955.5,332.833 955.5,492.167 955.5,651.5C 810.5,651.5 665.5,651.5 520.5,651.5C 520.5,637.167 520.5,622.833 520.5,608.5C 607.5,608.5 694.5,608.5 781.5,608.5C 810.5,608.5 839.5,608.5 868.5,608.5C 868.5,579.5 868.5,550.5 868.5,521.5C 868.5,463.5 868.5,405.5 868.5,347.5C 868.5,318.5 868.5,289.5 868.5,260.5C 839.5,260.5 810.5,260.5 781.5,260.5C 781.5,231.5 781.5,202.5 781.5,173.5 Z"/></g>
<g><path style="opacity:1" fill="#7b120c" d="M 129.5,347.5 C 100.5,347.5 71.5,347.5 42.5,347.5C 42.5,303.833 42.5,260.167 42.5,216.5C 71.5,216.5 100.5,216.5 129.5,216.5C 129.5,260.167 129.5,303.833 129.5,347.5 Z"/></g>
<g><path style="opacity:1" fill="#54422a" d="M 216.5,260.5 C 231.167,260.5 245.833,260.5 260.5,260.5C 260.5,318.5 260.5,376.5 260.5,434.5C 245.833,434.5 231.167,434.5 216.5,434.5C 216.5,405.5 216.5,376.5 216.5,347.5C 216.5,318.5 216.5,289.5 216.5,260.5 Z"/></g>
<g><path style="opacity:1" fill="#927249" d="M 260.5,260.5 C 289.5,260.5 318.5,260.5 347.5,260.5C 347.5,289.5 347.5,318.5 347.5,347.5C 347.5,376.5 347.5,405.5 347.5,434.5C 318.5,434.5 289.5,434.5 260.5,434.5C 260.5,376.5 260.5,318.5 260.5,260.5 Z"/></g>
<g><path style="opacity:1" fill="#9d968a" d="M 347.5,260.5 C 376.5,260.5 405.5,260.5 434.5,260.5C 434.5,289.5 434.5,318.5 434.5,347.5C 405.5,347.5 376.5,347.5 347.5,347.5C 347.5,318.5 347.5,289.5 347.5,260.5 Z"/></g>
<g><path style="opacity:1" fill="#b2ae9e" d="M 434.5,260.5 C 492.167,260.5 549.833,260.5 607.5,260.5C 636.5,260.5 665.5,260.5 694.5,260.5C 723.5,260.5 752.5,260.5 781.5,260.5C 781.5,289.5 781.5,318.5 781.5,347.5C 665.833,347.5 550.167,347.5 434.5,347.5C 434.5,318.5 434.5,289.5 434.5,260.5 Z"/></g>
<g><path style="opacity:1" fill="#9d968a" d="M 781.5,260.5 C 810.5,260.5 839.5,260.5 868.5,260.5C 868.5,289.5 868.5,318.5 868.5,347.5C 839.5,347.5 810.5,347.5 781.5,347.5C 781.5,318.5 781.5,289.5 781.5,260.5 Z"/></g>
<g><path style="opacity:1" fill="#a3962c" d="M -0.5,347.5 C 13.8333,347.5 28.1667,347.5 42.5,347.5C 71.5,347.5 100.5,347.5 129.5,347.5C 144.167,347.5 158.833,347.5 173.5,347.5C 173.5,376.5 173.5,405.5 173.5,434.5C 158.833,434.5 144.167,434.5 129.5,434.5C 100.5,434.5 71.5,434.5 42.5,434.5C 28.1667,434.5 13.8333,434.5 -0.5,434.5C -0.5,405.5 -0.5,376.5 -0.5,347.5 Z"/></g>
<g><path style="opacity:1" fill="#d9c83c" d="M 173.5,347.5 C 187.833,347.5 202.167,347.5 216.5,347.5C 216.5,376.5 216.5,405.5 216.5,434.5C 202.167,434.5 187.833,434.5 173.5,434.5C 173.5,405.5 173.5,376.5 173.5,347.5 Z"/></g>
<g><path style="opacity:1" fill="#b2ae9e" d="M 347.5,347.5 C 376.5,347.5 405.5,347.5 434.5,347.5C 434.5,405.5 434.5,463.5 434.5,521.5C 405.5,521.5 376.5,521.5 347.5,521.5C 347.5,492.5 347.5,463.5 347.5,434.5C 347.5,405.5 347.5,376.5 347.5,347.5 Z"/></g>
<g><path style="opacity:1" fill="#c7c5bc" d="M 434.5,347.5 C 550.167,347.5 665.833,347.5 781.5,347.5C 781.5,405.5 781.5,463.5 781.5,521.5C 665.833,521.5 550.167,521.5 434.5,521.5C 434.5,463.5 434.5,405.5 434.5,347.5 Z"/></g>
<g><path style="opacity:1" fill="#b2ae9e" d="M 781.5,347.5 C 810.5,347.5 839.5,347.5 868.5,347.5C 868.5,405.5 868.5,463.5 868.5,521.5C 839.5,521.5 810.5,521.5 781.5,521.5C 781.5,463.5 781.5,405.5 781.5,347.5 Z"/></g>
<g><path style="opacity:1" fill="#892518" d="M -0.5,434.5 C 13.8333,434.5 28.1667,434.5 42.5,434.5C 42.5,477.833 42.5,521.167 42.5,564.5C 71.5,564.5 100.5,564.5 129.5,564.5C 129.5,521.167 129.5,477.833 129.5,434.5C 144.167,434.5 158.833,434.5 173.5,434.5C 187.833,434.5 202.167,434.5 216.5,434.5C 216.5,492.5 216.5,550.5 216.5,608.5C 216.5,622.833 216.5,637.167 216.5,651.5C 231.167,651.5 245.833,651.5 260.5,651.5C 289.5,651.5 318.5,651.5 347.5,651.5C 376.5,651.5 405.5,651.5 434.5,651.5C 434.5,738.5 434.5,825.5 434.5,912.5C 419.833,912.5 405.167,912.5 390.5,912.5C 390.5,854.5 390.5,796.5 390.5,738.5C 332.5,738.5 274.5,738.5 216.5,738.5C 216.5,796.5 216.5,854.5 216.5,912.5C 202.167,912.5 187.833,912.5 173.5,912.5C 173.5,825.5 173.5,738.5 173.5,651.5C 115.5,651.5 57.5,651.5 -0.5,651.5C -0.5,579.167 -0.5,506.833 -0.5,434.5 Z"/></g>
<g><path style="opacity:1" fill="#7b120c" d="M 42.5,434.5 C 71.5,434.5 100.5,434.5 129.5,434.5C 129.5,477.833 129.5,521.167 129.5,564.5C 100.5,564.5 71.5,564.5 42.5,564.5C 42.5,521.167 42.5,477.833 42.5,434.5 Z"/></g>
<g><path style="opacity:1" fill="#452707" d="M 216.5,434.5 C 231.167,434.5 245.833,434.5 260.5,434.5C 260.5,492.5 260.5,550.5 260.5,608.5C 245.833,608.5 231.167,608.5 216.5,608.5C 216.5,550.5 216.5,492.5 216.5,434.5 Z"/></g>
<g><path style="opacity:1" fill="#77440e" d="M 260.5,434.5 C 289.5,434.5 318.5,434.5 347.5,434.5C 347.5,463.5 347.5,492.5 347.5,521.5C 347.5,550.5 347.5,579.5 347.5,608.5C 318.5,608.5 289.5,608.5 260.5,608.5C 260.5,550.5 260.5,492.5 260.5,434.5 Z"/></g>
<g><path style="opacity:1" fill="#9d968a" d="M 347.5,521.5 C 376.5,521.5 405.5,521.5 434.5,521.5C 434.5,550.5 434.5,579.5 434.5,608.5C 405.5,608.5 376.5,608.5 347.5,608.5C 347.5,579.5 347.5,550.5 347.5,521.5 Z"/></g>
<g><path style="opacity:1" fill="#b2ae9e" d="M 434.5,521.5 C 550.167,521.5 665.833,521.5 781.5,521.5C 781.5,550.5 781.5,579.5 781.5,608.5C 694.5,608.5 607.5,608.5 520.5,608.5C 491.833,608.5 463.167,608.5 434.5,608.5C 434.5,579.5 434.5,550.5 434.5,521.5 Z"/></g>
<g><path style="opacity:1" fill="#9d968a" d="M 781.5,521.5 C 810.5,521.5 839.5,521.5 868.5,521.5C 868.5,550.5 868.5,579.5 868.5,608.5C 839.5,608.5 810.5,608.5 781.5,608.5C 781.5,579.5 781.5,550.5 781.5,521.5 Z"/></g>
<g><path style="opacity:1" fill="#39230a" d="M 216.5,608.5 C 231.167,608.5 245.833,608.5 260.5,608.5C 260.5,622.833 260.5,637.167 260.5,651.5C 245.833,651.5 231.167,651.5 216.5,651.5C 216.5,637.167 216.5,622.833 216.5,608.5 Z"/></g>
<g><path style="opacity:1" fill="#623c14" d="M 260.5,608.5 C 289.5,608.5 318.5,608.5 347.5,608.5C 347.5,622.833 347.5,637.167 347.5,651.5C 318.5,651.5 289.5,651.5 260.5,651.5C 260.5,637.167 260.5,622.833 260.5,608.5 Z"/></g>
<g><path style="opacity:1" fill="#77440e" d="M 347.5,608.5 C 376.5,608.5 405.5,608.5 434.5,608.5C 463.167,608.5 491.833,608.5 520.5,608.5C 520.5,622.833 520.5,637.167 520.5,651.5C 491.833,651.5 463.167,651.5 434.5,651.5C 405.5,651.5 376.5,651.5 347.5,651.5C 347.5,637.167 347.5,622.833 347.5,608.5 Z"/></g>
<g><path style="opacity:1" fill="#b53020" d="M 434.5,651.5 C 463.167,651.5 491.833,651.5 520.5,651.5C 665.5,651.5 810.5,651.5 955.5,651.5C 955.5,738.5 955.5,825.5 955.5,912.5C 926.5,912.5 897.5,912.5 868.5,912.5C 868.5,854.5 868.5,796.5 868.5,738.5C 752.5,738.5 636.5,738.5 520.5,738.5C 520.5,796.5 520.5,854.5 520.5,912.5C 491.833,912.5 463.167,912.5 434.5,912.5C 434.5,825.5 434.5,738.5 434.5,651.5 Z"/></g>
<g><path style="opacity:1" fill="#7b120c" d="M 390.5,912.5 C 332.5,912.5 274.5,912.5 216.5,912.5C 216.5,854.5 216.5,796.5 216.5,738.5C 274.5,738.5 332.5,738.5 390.5,738.5C 390.5,796.5 390.5,854.5 390.5,912.5 Z"/></g>
<g><path style="opacity:1" fill="#a31710" d="M 868.5,912.5 C 752.5,912.5 636.5,912.5 520.5,912.5C 520.5,854.5 520.5,796.5 520.5,738.5C 636.5,738.5 752.5,738.5 868.5,738.5C 868.5,796.5 868.5,854.5 868.5,912.5 Z"/></g>
<g><path style="opacity:1" fill="#390300" d="M 173.5,912.5 C 187.833,912.5 202.167,912.5 216.5,912.5C 274.5,912.5 332.5,912.5 390.5,912.5C 405.167,912.5 419.833,912.5 434.5,912.5C 434.5,941.5 434.5,970.5 434.5,999.5C 347.5,999.5 260.5,999.5 173.5,999.5C 173.5,970.5 173.5,941.5 173.5,912.5 Z"/></g>
<g><path style="opacity:1" fill="#4b0300" d="M 434.5,912.5 C 463.167,912.5 491.833,912.5 520.5,912.5C 636.5,912.5 752.5,912.5 868.5,912.5C 897.5,912.5 926.5,912.5 955.5,912.5C 955.5,941.5 955.5,970.5 955.5,999.5C 781.833,999.5 608.167,999.5 434.5,999.5C 434.5,970.5 434.5,941.5 434.5,912.5 Z"/></g>
</svg>
