<?xml version="1.0" encoding="UTF-8"?>
<!DOCTYPE svg PUBLIC "-//W3C//DTD SVG 1.1//EN" "http://www.w3.org/Graphics/SVG/1.1/DTD/svg11.dtd">
<svg xmlns="http://www.w3.org/2000/svg" version="1.1" width="256px" height="256px" style="shape-rendering:geometricPrecision; text-rendering:geometricPrecision; image-rendering:optimizeQuality; fill-rule:evenodd; clip-rule:evenodd" xmlns:xlink="http://www.w3.org/1999/xlink">
<g><path style="opacity:1" fill="#484948" d="M 145.5,0.5 C 145.5,7.83333 145.5,15.1667 145.5,22.5C 141.833,22.5 138.167,22.5 134.5,22.5C 134.5,15.1667 134.5,7.83333 134.5,0.5C 138.167,0.5 141.833,0.5 145.5,0.5 Z"/></g>
<g><path style="opacity:1" fill="#626362" d="M 145.5,0.5 C 152.833,0.5 160.167,0.5 167.5,0.5C 167.5,7.83333 167.5,15.1667 167.5,22.5C 163.833,22.5 160.167,22.5 156.5,22.5C 152.833,22.5 149.167,22.5 145.5,22.5C 145.5,15.1667 145.5,7.83333 145.5,0.5 Z"/></g>
<g><path style="opacity:1" fill="#757675" d="M 111.5,22.5 C 111.5,29.8333 111.5,37.1667 111.5,44.5C 104.167,44.5 96.8333,44.5 89.5,44.5C 89.5,40.8333 89.5,37.1667 89.5,33.5C 89.5,29.8333 89.5,26.1667 89.5,22.5C 96.8333,22.5 104.167,22.5 111.5,22.5 Z"/></g>
<g><path style="opacity:1" fill="#262726" d="M 111.5,22.5 C 115.167,22.5 118.833,22.5 122.5,22.5C 122.5,29.8333 122.5,37.1667 122.5,44.5C 118.833,44.5 115.167,44.5 111.5,44.5C 111.5,37.1667 111.5,29.8333 111.5,22.5 Z"/></g>
<g><path style="opacity:1" fill="#343534" d="M 122.5,22.5 C 126.5,22.5 130.5,22.5 134.5,22.5C 138.167,22.5 141.833,22.5 145.5,22.5C 145.5,26.1667 145.5,29.8333 145.5,33.5C 145.5,37.1667 145.5,40.8333 145.5,44.5C 137.833,44.5 130.167,44.5 122.5,44.5C 122.5,37.1667 122.5,29.8333 122.5,22.5 Z"/></g>
<g><path style="opacity:1" fill="#1b1c1b" d="M 156.5,22.5 C 160.167,22.5 163.833,22.5 167.5,22.5C 167.5,29.8333 167.5,37.1667 167.5,44.5C 163.833,44.5 160.167,44.5 156.5,44.5C 156.5,40.8333 156.5,37.1667 156.5,33.5C 156.5,29.8333 156.5,26.1667 156.5,22.5 Z"/></g>
<g><path style="opacity:1" fill="#252625" d="M 167.5,22.5 C 174.833,22.5 182.167,22.5 189.5,22.5C 189.5,29.8333 189.5,37.1667 189.5,44.5C 185.833,44.5 182.167,44.5 178.5,44.5C 174.833,44.5 171.167,44.5 167.5,44.5C 167.5,37.1667 167.5,29.8333 167.5,22.5 Z"/></g>
<g><path style="opacity:1" fill="#1c1a13" d="M 89.5,33.5 C 89.5,37.1667 89.5,40.8333 89.5,44.5C 82.1667,44.5 74.8333,44.5 67.5,44.5C 63.8333,44.5 60.1667,44.5 56.5,44.5C 56.5,52.1667 56.5,59.8333 56.5,67.5C 56.5,82.1667 56.5,96.8333 56.5,111.5C 56.5,126.5 56.5,141.5 56.5,156.5C 56.5,160.167 56.5,163.833 56.5,167.5C 60.1667,167.5 63.8333,167.5 67.5,167.5C 74.8333,167.5 82.1667,167.5 89.5,167.5C 96.8333,167.5 104.167,167.5 111.5,167.5C 111.5,196.833 111.5,226.167 111.5,255.5C 89.5,255.5 67.5,255.5 45.5,255.5C 45.5,226.167 45.5,196.833 45.5,167.5C 30.5,167.5 15.5,167.5 0.5,167.5C 0.5,122.833 0.5,78.1667 0.5,33.5C 30.1667,33.5 59.8333,33.5 89.5,33.5 Z"/></g>
<g><path style="opacity:1" fill="#1c1a13" d="M 145.5,33.5 C 149.167,33.5 152.833,33.5 156.5,33.5C 156.5,37.1667 156.5,40.8333 156.5,44.5C 152.833,44.5 149.167,44.5 145.5,44.5C 145.5,40.8333 145.5,37.1667 145.5,33.5 Z"/></g>
<g><path style="opacity:1" fill="#452707" d="M 67.5,44.5 C 67.5,52.1667 67.5,59.8333 67.5,67.5C 63.8333,67.5 60.1667,67.5 56.5,67.5C 56.5,59.8333 56.5,52.1667 56.5,44.5C 60.1667,44.5 63.8333,44.5 67.5,44.5 Z"/></g>
<g><path style="opacity:1" fill="#77440e" d="M 67.5,44.5 C 74.8333,44.5 82.1667,44.5 89.5,44.5C 89.5,52.1667 89.5,59.8333 89.5,67.5C 82.1667,67.5 74.8333,67.5 67.5,67.5C 67.5,59.8333 67.5,52.1667 67.5,44.5 Z"/></g>
<g><path style="opacity:1" fill="#927249" d="M 89.5,44.5 C 96.8333,44.5 104.167,44.5 111.5,44.5C 115.167,44.5 118.833,44.5 122.5,44.5C 130.167,44.5 137.833,44.5 145.5,44.5C 149.167,44.5 152.833,44.5 156.5,44.5C 156.5,52.1667 156.5,59.8333 156.5,67.5C 141.5,67.5 126.5,67.5 111.5,67.5C 104.167,67.5 96.8333,67.5 89.5,67.5C 89.5,59.8333 89.5,52.1667 89.5,44.5 Z"/></g>
<g><path style="opacity:1" fill="#77440e" d="M 156.5,44.5 C 160.167,44.5 163.833,44.5 167.5,44.5C 171.167,44.5 174.833,44.5 178.5,44.5C 178.5,52.1667 178.5,59.8333 178.5,67.5C 171.167,67.5 163.833,67.5 156.5,67.5C 156.5,59.8333 156.5,52.1667 156.5,44.5 Z"/></g>
<g><path style="opacity:1" fill="#927249" d="M 178.5,44.5 C 182.167,44.5 185.833,44.5 189.5,44.5C 193.167,44.5 196.833,44.5 200.5,44.5C 200.5,52.1667 200.5,59.8333 200.5,67.5C 193.167,67.5 185.833,67.5 178.5,67.5C 178.5,59.8333 178.5,52.1667 178.5,44.5 Z"/></g>
<g><path style="opacity:1" fill="#623c14" d="M 200.5,44.5 C 215.5,44.5 230.5,44.5 245.5,44.5C 245.5,85.5 245.5,126.5 245.5,167.5C 208.5,167.5 171.5,167.5 134.5,167.5C 134.5,163.833 134.5,160.167 134.5,156.5C 156.5,156.5 178.5,156.5 200.5,156.5C 208.167,156.5 215.833,156.5 223.5,156.5C 223.5,148.833 223.5,141.167 223.5,133.5C 223.5,118.833 223.5,104.167 223.5,89.5C 223.5,82.1667 223.5,74.8333 223.5,67.5C 215.833,67.5 208.167,67.5 200.5,67.5C 200.5,59.8333 200.5,52.1667 200.5,44.5 Z"/></g>
<g><path style="opacity:1" fill="#855106" d="M 11.5,56.5 C 18.8333,56.5 26.1667,56.5 33.5,56.5C 33.5,86.1667 33.5,115.833 33.5,145.5C 26.1667,145.5 18.8333,145.5 11.5,145.5C 11.5,115.833 11.5,86.1667 11.5,56.5 Z"/></g>
<g><path style="opacity:1" fill="#54422a" d="M 56.5,67.5 C 60.1667,67.5 63.8333,67.5 67.5,67.5C 67.5,82.1667 67.5,96.8333 67.5,111.5C 63.8333,111.5 60.1667,111.5 56.5,111.5C 56.5,96.8333 56.5,82.1667 56.5,67.5 Z"/></g>
<g><path style="opacity:1" fill="#927249" d="M 67.5,67.5 C 74.8333,67.5 82.1667,67.5 89.5,67.5C 89.5,74.8333 89.5,82.1667 89.5,89.5C 89.5,96.8333 89.5,104.167 89.5,111.5C 82.1667,111.5 74.8333,111.5 67.5,111.5C 67.5,96.8333 67.5,82.1667 67.5,67.5 Z"/></g>
<g><path style="opacity:1" fill="#9d968a" d="M 89.5,67.5 C 96.8333,67.5 104.167,67.5 111.5,67.5C 111.5,74.8333 111.5,82.1667 111.5,89.5C 104.167,89.5 96.8333,89.5 89.5,89.5C 89.5,82.1667 89.5,74.8333 89.5,67.5 Z"/></g>
<g><path style="opacity:1" fill="#b2ae9e" d="M 111.5,67.5 C 126.5,67.5 141.5,67.5 156.5,67.5C 163.833,67.5 171.167,67.5 178.5,67.5C 185.833,67.5 193.167,67.5 200.5,67.5C 200.5,74.8333 200.5,82.1667 200.5,89.5C 170.833,89.5 141.167,89.5 111.5,89.5C 111.5,82.1667 111.5,74.8333 111.5,67.5 Z"/></g>
<g><path style="opacity:1" fill="#9d968a" d="M 200.5,67.5 C 208.167,67.5 215.833,67.5 223.5,67.5C 223.5,74.8333 223.5,82.1667 223.5,89.5C 215.833,89.5 208.167,89.5 200.5,89.5C 200.5,82.1667 200.5,74.8333 200.5,67.5 Z"/></g>
<g><path style="opacity:1" fill="#b2ae9e" d="M 89.5,89.5 C 96.8333,89.5 104.167,89.5 111.5,89.5C 111.5,104.167 111.5,118.833 111.5,133.5C 104.167,133.5 96.8333,133.5 89.5,133.5C 89.5,126.167 89.5,118.833 89.5,111.5C 89.5,104.167 89.5,96.8333 89.5,89.5 Z"/></g>
<g><path style="opacity:1" fill="#c7c5bc" d="M 111.5,89.5 C 141.167,89.5 170.833,89.5 200.5,89.5C 200.5,104.167 200.5,118.833 200.5,133.5C 170.833,133.5 141.167,133.5 111.5,133.5C 111.5,118.833 111.5,104.167 111.5,89.5 Z"/></g>
<g><path style="opacity:1" fill="#b2ae9e" d="M 200.5,89.5 C 208.167,89.5 215.833,89.5 223.5,89.5C 223.5,104.167 223.5,118.833 223.5,133.5C 215.833,133.5 208.167,133.5 200.5,133.5C 200.5,118.833 200.5,104.167 200.5,89.5 Z"/></g>
<g><path style="opacity:1" fill="#452707" d="M 56.5,111.5 C 60.1667,111.5 63.8333,111.5 67.5,111.5C 67.5,126.5 67.5,141.5 67.5,156.5C 63.8333,156.5 60.1667,156.5 56.5,156.5C 56.5,141.5 56.5,126.5 56.5,111.5 Z"/></g>
<g><path style="opacity:1" fill="#77440e" d="M 67.5,111.5 C 74.8333,111.5 82.1667,111.5 89.5,111.5C 89.5,118.833 89.5,126.167 89.5,133.5C 89.5,141.167 89.5,148.833 89.5,156.5C 82.1667,156.5 74.8333,156.5 67.5,156.5C 67.5,141.5 67.5,126.5 67.5,111.5 Z"/></g>
<g><path style="opacity:1" fill="#9d968a" d="M 89.5,133.5 C 96.8333,133.5 104.167,133.5 111.5,133.5C 111.5,141.167 111.5,148.833 111.5,156.5C 104.167,156.5 96.8333,156.5 89.5,156.5C 89.5,148.833 89.5,141.167 89.5,133.5 Z"/></g>
<g><path style="opacity:1" fill="#b2ae9e" d="M 111.5,133.5 C 141.167,133.5 170.833,133.5 200.5,133.5C 200.5,141.167 200.5,148.833 200.5,156.5C 178.5,156.5 156.5,156.5 134.5,156.5C 126.833,156.5 119.167,156.5 111.5,156.5C 111.5,148.833 111.5,141.167 111.5,133.5 Z"/></g>
<g><path style="opacity:1" fill="#9d968a" d="M 200.5,133.5 C 208.167,133.5 215.833,133.5 223.5,133.5C 223.5,141.167 223.5,148.833 223.5,156.5C 215.833,156.5 208.167,156.5 200.5,156.5C 200.5,148.833 200.5,141.167 200.5,133.5 Z"/></g>
<g><path style="opacity:1" fill="#39230a" d="M 56.5,156.5 C 60.1667,156.5 63.8333,156.5 67.5,156.5C 67.5,160.167 67.5,163.833 67.5,167.5C 63.8333,167.5 60.1667,167.5 56.5,167.5C 56.5,163.833 56.5,160.167 56.5,156.5 Z"/></g>
<g><path style="opacity:1" fill="#623c14" d="M 67.5,156.5 C 74.8333,156.5 82.1667,156.5 89.5,156.5C 89.5,160.167 89.5,163.833 89.5,167.5C 82.1667,167.5 74.8333,167.5 67.5,167.5C 67.5,163.833 67.5,160.167 67.5,156.5 Z"/></g>
<g><path style="opacity:1" fill="#77440e" d="M 89.5,156.5 C 96.8333,156.5 104.167,156.5 111.5,156.5C 119.167,156.5 126.833,156.5 134.5,156.5C 134.5,160.167 134.5,163.833 134.5,167.5C 126.833,167.5 119.167,167.5 111.5,167.5C 104.167,167.5 96.8333,167.5 89.5,167.5C 89.5,163.833 89.5,160.167 89.5,156.5 Z"/></g>
<g><path style="opacity:1" fill="#443c2e" d="M 111.5,167.5 C 119.167,167.5 126.833,167.5 134.5,167.5C 171.5,167.5 208.5,167.5 245.5,167.5C 245.5,196.833 245.5,226.167 245.5,255.5C 200.833,255.5 156.167,255.5 111.5,255.5C 111.5,226.167 111.5,196.833 111.5,167.5 Z"/></g>
<g><path style="opacity:1" fill="#855106" d="M 56.5,189.5 C 71.1667,189.5 85.8333,189.5 100.5,189.5C 100.5,204.5 100.5,219.5 100.5,234.5C 85.8333,234.5 71.1667,234.5 56.5,234.5C 56.5,219.5 56.5,204.5 56.5,189.5 Z"/></g>
<g><path style="opacity:1" fill="#a66e1e" d="M 134.5,189.5 C 164.167,189.5 193.833,189.5 223.5,189.5C 223.5,204.5 223.5,219.5 223.5,234.5C 193.833,234.5 164.167,234.5 134.5,234.5C 134.5,219.5 134.5,204.5 134.5,189.5 Z"/></g>
</svg>
