<?xml version="1.0" encoding="UTF-8"?>
<!DOCTYPE svg PUBLIC "-//W3C//DTD SVG 1.1//EN" "http://www.w3.org/Graphics/SVG/1.1/DTD/svg11.dtd">
<svg xmlns="http://www.w3.org/2000/svg" version="1.1" width="1000px" height="1000px" style="shape-rendering:geometricPrecision; text-rendering:geometricPrecision; image-rendering:optimizeQuality; fill-rule:evenodd; clip-rule:evenodd" xmlns:xlink="http://www.w3.org/1999/xlink">
<g><path style="opacity:1" fill="#7c5220" d="M -0.5,-0.5 C 55.1667,-0.5 110.833,-0.5 166.5,-0.5C 166.5,55.1667 166.5,110.833 166.5,166.5C 110.833,166.5 55.1667,166.5 -0.5,166.5C -0.5,110.833 -0.5,55.1667 -0.5,-0.5 Z"/></g>
<g><path style="opacity:1" fill="#a66e2c" d="M 166.5,-0.5 C 333.5,-0.5 500.5,-0.5 667.5,-0.5C 667.5,55.1667 667.5,110.833 667.5,166.5C 556.167,166.5 444.833,166.5 333.5,166.5C 277.833,166.5 222.167,166.5 166.5,166.5C 166.5,110.833 166.5,55.1667 166.5,-0.5 Z"/></g>
<g><path style="opacity:1" fill="#fed800" d="M 667.5,-0.5 C 722.833,-0.5 778.167,-0.5 833.5,-0.5C 833.5,55.1667 833.5,110.833 833.5,166.5C 778.167,166.5 722.833,166.5 667.5,166.5C 667.5,110.833 667.5,55.1667 667.5,-0.5 Z"/></g>
<g><path style="opacity:1" fill="#a66e2c" d="M 833.5,-0.5 C 888.833,-0.5 944.167,-0.5 999.5,-0.5C 999.5,55.1667 999.5,110.833 999.5,166.5C 944.167,166.5 888.833,166.5 833.5,166.5C 833.5,110.833 833.5,55.1667 833.5,-0.5 Z"/></g>
<g><path style="opacity:1" fill="#936329" d="M -0.5,166.5 C 55.1667,166.5 110.833,166.5 166.5,166.5C 166.5,388.833 166.5,611.167 166.5,833.5C 110.833,833.5 55.1667,833.5 -0.5,833.5C -0.5,611.167 -0.5,388.833 -0.5,166.5 Z"/></g>
<g><path style="opacity:1" fill="#c48438" d="M 166.5,166.5 C 222.167,166.5 277.833,166.5 333.5,166.5C 333.5,222.167 333.5,277.833 333.5,333.5C 444.833,333.5 556.167,333.5 667.5,333.5C 667.5,277.833 667.5,222.167 667.5,166.5C 722.833,166.5 778.167,166.5 833.5,166.5C 833.5,222.167 833.5,277.833 833.5,333.5C 833.5,444.833 833.5,556.167 833.5,667.5C 833.5,722.833 833.5,778.167 833.5,833.5C 778.167,833.5 722.833,833.5 667.5,833.5C 500.5,833.5 333.5,833.5 166.5,833.5C 166.5,611.167 166.5,388.833 166.5,166.5 Z"/></g>
<g><path style="opacity:1" fill="#764e21" d="M 333.5,166.5 C 444.833,166.5 556.167,166.5 667.5,166.5C 667.5,222.167 667.5,277.833 667.5,333.5C 556.167,333.5 444.833,333.5 333.5,333.5C 333.5,277.833 333.5,222.167 333.5,166.5 Z"/></g>
<g><path style="opacity:1" fill="#fed800" d="M 833.5,166.5 C 888.833,166.5 944.167,166.5 999.5,166.5C 999.5,222.167 999.5,277.833 999.5,333.5C 944.167,333.5 888.833,333.5 833.5,333.5C 833.5,277.833 833.5,222.167 833.5,166.5 Z"/></g>
<g><path style="opacity:1" fill="#a66e2c" d="M 833.5,333.5 C 888.833,333.5 944.167,333.5 999.5,333.5C 999.5,444.833 999.5,556.167 999.5,667.5C 944.167,667.5 888.833,667.5 833.5,667.5C 833.5,556.167 833.5,444.833 833.5,333.5 Z"/></g>
<g><path style="opacity:1" fill="#764e21" d="M 333.5,500.5 C 444.833,500.5 556.167,500.5 667.5,500.5C 667.5,556.167 667.5,611.833 667.5,667.5C 556.167,667.5 444.833,667.5 333.5,667.5C 333.5,611.833 333.5,556.167 333.5,500.5 Z"/></g>
<g><path style="opacity:1" fill="#fed800" d="M 833.5,667.5 C 888.833,667.5 944.167,667.5 999.5,667.5C 999.5,722.833 999.5,778.167 999.5,833.5C 944.167,833.5 888.833,833.5 833.5,833.5C 833.5,778.167 833.5,722.833 833.5,667.5 Z"/></g>
<g><path style="opacity:1" fill="#7c5220" d="M -0.5,833.5 C 55.1667,833.5 110.833,833.5 166.5,833.5C 166.5,888.833 166.5,944.167 166.5,999.5C 110.833,999.5 55.1667,999.5 -0.5,999.5C -0.5,944.167 -0.5,888.833 -0.5,833.5 Z"/></g>
<g><path style="opacity:1" fill="#a66e2c" d="M 166.5,833.5 C 333.5,833.5 500.5,833.5 667.5,833.5C 667.5,888.833 667.5,944.167 667.5,999.5C 500.5,999.5 333.5,999.5 166.5,999.5C 166.5,944.167 166.5,888.833 166.5,833.5 Z"/></g>
<g><path style="opacity:1" fill="#fed800" d="M 667.5,833.5 C 722.833,833.5 778.167,833.5 833.5,833.5C 833.5,888.833 833.5,944.167 833.5,999.5C 778.167,999.5 722.833,999.5 667.5,999.5C 667.5,944.167 667.5,888.833 667.5,833.5 Z"/></g>
<g><path style="opacity:1" fill="#a66e2c" d="M 833.5,833.5 C 888.833,833.5 944.167,833.5 999.5,833.5C 999.5,888.833 999.5,944.167 999.5,999.5C 944.167,999.5 888.833,999.5 833.5,999.5C 833.5,944.167 833.5,888.833 833.5,833.5 Z"/></g>
</svg>
