<?xml version="1.0" encoding="UTF-8"?>
<!DOCTYPE svg PUBLIC "-//W3C//DTD SVG 1.1//EN" "http://www.w3.org/Graphics/SVG/1.1/DTD/svg11.dtd">
<svg xmlns="http://www.w3.org/2000/svg" version="1.1" width="1000px" height="705px" style="shape-rendering:geometricPrecision; text-rendering:geometricPrecision; image-rendering:optimizeQuality; fill-rule:evenodd; clip-rule:evenodd" xmlns:xlink="http://www.w3.org/1999/xlink">
<g><path style="opacity:1" fill="#bf8800" d="M 234.5,-0.5 C 273.833,-0.5 313.167,-0.5 352.5,-0.5C 352.5,156.167 352.5,312.833 352.5,469.5C 352.5,508.833 352.5,548.167 352.5,587.5C 352.5,626.5 352.5,665.5 352.5,704.5C 313.167,704.5 273.833,704.5 234.5,704.5C 234.5,626.167 234.5,547.833 234.5,469.5C 254.167,469.5 273.833,469.5 293.5,469.5C 293.5,351.833 293.5,234.167 293.5,116.5C 273.833,116.5 254.167,116.5 234.5,116.5C 234.5,77.5 234.5,38.5 234.5,-0.5 Z"/></g>
<g><path style="opacity:1" fill="#fec400" d="M 352.5,-0.5 C 548.5,-0.5 744.5,-0.5 940.5,-0.5C 940.5,156.167 940.5,312.833 940.5,469.5C 920.833,469.5 901.167,469.5 881.5,469.5C 881.5,430.5 881.5,391.5 881.5,352.5C 842.5,352.5 803.5,352.5 764.5,352.5C 744.833,352.5 725.167,352.5 705.5,352.5C 705.5,391.5 705.5,430.5 705.5,469.5C 685.833,469.5 666.167,469.5 646.5,469.5C 626.833,469.5 607.167,469.5 587.5,469.5C 587.5,508.833 587.5,548.167 587.5,587.5C 607.167,587.5 626.833,587.5 646.5,587.5C 666.167,587.5 685.833,587.5 705.5,587.5C 705.5,626.5 705.5,665.5 705.5,704.5C 587.833,704.5 470.167,704.5 352.5,704.5C 352.5,665.5 352.5,626.5 352.5,587.5C 372.167,587.5 391.833,587.5 411.5,587.5C 450.5,587.5 489.5,587.5 528.5,587.5C 528.5,548.167 528.5,508.833 528.5,469.5C 489.5,469.5 450.5,469.5 411.5,469.5C 391.833,469.5 372.167,469.5 352.5,469.5C 352.5,312.833 352.5,156.167 352.5,-0.5 Z"/></g>
<g><path style="opacity:1" fill="#2f302f" d="M 411.5,58.5 C 568.167,58.5 724.833,58.5 881.5,58.5C 881.5,136.833 881.5,215.167 881.5,293.5C 724.833,293.5 568.167,293.5 411.5,293.5C 411.5,215.167 411.5,136.833 411.5,58.5 Z"/></g>
<g><path style="opacity:1" fill="#bf8800" d="M -0.5,116.5 C 19.1667,116.5 38.8333,116.5 58.5,116.5C 58.5,155.833 58.5,195.167 58.5,234.5C 38.8333,234.5 19.1667,234.5 -0.5,234.5C -0.5,195.167 -0.5,155.833 -0.5,116.5 Z"/></g>
<g><path style="opacity:1" fill="#fec400" d="M 58.5,116.5 C 97.5,116.5 136.5,116.5 175.5,116.5C 175.5,155.833 175.5,195.167 175.5,234.5C 156.167,234.5 136.833,234.5 117.5,234.5C 97.8333,234.5 78.1667,234.5 58.5,234.5C 58.5,195.167 58.5,155.833 58.5,116.5 Z"/></g>
<g><path style="opacity:1" fill="#979897" d="M 175.5,116.5 C 195.167,116.5 214.833,116.5 234.5,116.5C 254.167,116.5 273.833,116.5 293.5,116.5C 293.5,234.167 293.5,351.833 293.5,469.5C 273.833,469.5 254.167,469.5 234.5,469.5C 214.833,469.5 195.167,469.5 175.5,469.5C 175.5,391.167 175.5,312.833 175.5,234.5C 175.5,195.167 175.5,155.833 175.5,116.5 Z"/></g>
<g><path style="opacity:1" fill="#727372" d="M 117.5,234.5 C 136.833,234.5 156.167,234.5 175.5,234.5C 175.5,312.833 175.5,391.167 175.5,469.5C 156.167,469.5 136.833,469.5 117.5,469.5C 117.5,391.167 117.5,312.833 117.5,234.5 Z"/></g>
<g><path style="opacity:1" fill="#bfb038" d="M 764.5,352.5 C 764.5,391.5 764.5,430.5 764.5,469.5C 744.833,469.5 725.167,469.5 705.5,469.5C 705.5,430.5 705.5,391.5 705.5,352.5C 725.167,352.5 744.833,352.5 764.5,352.5 Z"/></g>
<g><path style="opacity:1" fill="#f3ff4a" d="M 764.5,352.5 C 803.5,352.5 842.5,352.5 881.5,352.5C 881.5,391.5 881.5,430.5 881.5,469.5C 901.167,469.5 920.833,469.5 940.5,469.5C 960.167,469.5 979.833,469.5 999.5,469.5C 999.5,508.833 999.5,548.167 999.5,587.5C 979.833,587.5 960.167,587.5 940.5,587.5C 920.833,587.5 901.167,587.5 881.5,587.5C 881.5,626.5 881.5,665.5 881.5,704.5C 842.5,704.5 803.5,704.5 764.5,704.5C 764.5,665.5 764.5,626.5 764.5,587.5C 744.833,587.5 725.167,587.5 705.5,587.5C 685.833,587.5 666.167,587.5 646.5,587.5C 646.5,548.167 646.5,508.833 646.5,469.5C 666.167,469.5 685.833,469.5 705.5,469.5C 725.167,469.5 744.833,469.5 764.5,469.5C 764.5,430.5 764.5,391.5 764.5,352.5 Z"/></g>
<g><path style="opacity:1" fill="#bfb038" d="M 352.5,469.5 C 372.167,469.5 391.833,469.5 411.5,469.5C 411.5,508.833 411.5,548.167 411.5,587.5C 391.833,587.5 372.167,587.5 352.5,587.5C 352.5,548.167 352.5,508.833 352.5,469.5 Z"/></g>
<g><path style="opacity:1" fill="#f3ff4a" d="M 411.5,469.5 C 450.5,469.5 489.5,469.5 528.5,469.5C 528.5,508.833 528.5,548.167 528.5,587.5C 489.5,587.5 450.5,587.5 411.5,587.5C 411.5,548.167 411.5,508.833 411.5,469.5 Z"/></g>
<g><path style="opacity:1" fill="#bfb038" d="M 646.5,469.5 C 646.5,508.833 646.5,548.167 646.5,587.5C 626.833,587.5 607.167,587.5 587.5,587.5C 587.5,548.167 587.5,508.833 587.5,469.5C 607.167,469.5 626.833,469.5 646.5,469.5 Z"/></g>
<g><path style="opacity:1" fill="#bfb038" d="M 705.5,587.5 C 725.167,587.5 744.833,587.5 764.5,587.5C 764.5,626.5 764.5,665.5 764.5,704.5C 744.833,704.5 725.167,704.5 705.5,704.5C 705.5,665.5 705.5,626.5 705.5,587.5 Z"/></g>
<g><path style="opacity:1" fill="#fec400" d="M 940.5,587.5 C 940.5,626.5 940.5,665.5 940.5,704.5C 920.833,704.5 901.167,704.5 881.5,704.5C 881.5,665.5 881.5,626.5 881.5,587.5C 901.167,587.5 920.833,587.5 940.5,587.5 Z"/></g>
</svg>
