<?xml version="1.0" encoding="UTF-8"?>
<!DOCTYPE svg PUBLIC "-//W3C//DTD SVG 1.1//EN" "http://www.w3.org/Graphics/SVG/1.1/DTD/svg11.dtd">
<svg xmlns="http://www.w3.org/2000/svg" version="1.1" width="1000px" height="666px" style="shape-rendering:geometricPrecision; text-rendering:geometricPrecision; image-rendering:optimizeQuality; fill-rule:evenodd; clip-rule:evenodd" xmlns:xlink="http://www.w3.org/1999/xlink">
<g><path style="opacity:1" fill="#b57772" d="M -0.5,-0.5 C 110.5,-0.5 221.5,-0.5 332.5,-0.5C 332.5,73.5 332.5,147.5 332.5,221.5C 332.5,258.5 332.5,295.5 332.5,332.5C 332.5,443.5 332.5,554.5 332.5,665.5C 221.5,665.5 110.5,665.5 -0.5,665.5C -0.5,443.5 -0.5,221.5 -0.5,-0.5 Z"/></g>
<g><path style="opacity:1" fill="#f09e97" d="M 332.5,-0.5 C 554.833,-0.5 777.167,-0.5 999.5,-0.5C 999.5,73.5 999.5,147.5 999.5,221.5C 962.5,221.5 925.5,221.5 888.5,221.5C 851.5,221.5 814.5,221.5 777.5,221.5C 777.5,258.5 777.5,295.5 777.5,332.5C 703.5,332.5 629.5,332.5 555.5,332.5C 555.5,295.5 555.5,258.5 555.5,221.5C 518.167,221.5 480.833,221.5 443.5,221.5C 406.5,221.5 369.5,221.5 332.5,221.5C 332.5,147.5 332.5,73.5 332.5,-0.5 Z"/></g>
<g><path style="opacity:1" fill="#ad5c56" d="M 110.5,110.5 C 147.5,110.5 184.5,110.5 221.5,110.5C 221.5,147.5 221.5,184.5 221.5,221.5C 240.167,221.5 258.833,221.5 277.5,221.5C 277.5,258.5 277.5,295.5 277.5,332.5C 258.833,332.5 240.167,332.5 221.5,332.5C 221.5,369.5 221.5,406.5 221.5,443.5C 203.167,443.5 184.833,443.5 166.5,443.5C 166.5,406.5 166.5,369.5 166.5,332.5C 147.833,332.5 129.167,332.5 110.5,332.5C 110.5,258.5 110.5,184.5 110.5,110.5 Z"/></g>
<g><path style="opacity:1" fill="#000000" d="M 332.5,221.5 C 369.5,221.5 406.5,221.5 443.5,221.5C 443.5,258.5 443.5,295.5 443.5,332.5C 406.5,332.5 369.5,332.5 332.5,332.5C 332.5,295.5 332.5,258.5 332.5,221.5 Z"/></g>
<g><path style="opacity:1" fill="#fefffe" d="M 443.5,221.5 C 480.833,221.5 518.167,221.5 555.5,221.5C 555.5,258.5 555.5,295.5 555.5,332.5C 536.833,332.5 518.167,332.5 499.5,332.5C 480.833,332.5 462.167,332.5 443.5,332.5C 443.5,295.5 443.5,258.5 443.5,221.5 Z"/></g>
<g><path style="opacity:1" fill="#fefffe" d="M 888.5,221.5 C 888.5,258.5 888.5,295.5 888.5,332.5C 851.5,332.5 814.5,332.5 777.5,332.5C 777.5,295.5 777.5,258.5 777.5,221.5C 814.5,221.5 851.5,221.5 888.5,221.5 Z"/></g>
<g><path style="opacity:1" fill="#000000" d="M 888.5,221.5 C 925.5,221.5 962.5,221.5 999.5,221.5C 999.5,258.5 999.5,295.5 999.5,332.5C 962.5,332.5 925.5,332.5 888.5,332.5C 888.5,295.5 888.5,258.5 888.5,221.5 Z"/></g>
<g><path style="opacity:1" fill="#f09e97" d="M 332.5,332.5 C 369.5,332.5 406.5,332.5 443.5,332.5C 462.167,332.5 480.833,332.5 499.5,332.5C 499.5,406.5 499.5,480.5 499.5,554.5C 518.167,554.5 536.833,554.5 555.5,554.5C 666.5,554.5 777.5,554.5 888.5,554.5C 888.5,536.167 888.5,517.833 888.5,499.5C 888.5,462.5 888.5,425.5 888.5,388.5C 888.5,369.833 888.5,351.167 888.5,332.5C 925.5,332.5 962.5,332.5 999.5,332.5C 999.5,443.5 999.5,554.5 999.5,665.5C 777.167,665.5 554.833,665.5 332.5,665.5C 332.5,554.5 332.5,443.5 332.5,332.5 Z"/></g>
<g><path style="opacity:1" fill="#e57972" d="M 499.5,332.5 C 518.167,332.5 536.833,332.5 555.5,332.5C 555.5,351.167 555.5,369.833 555.5,388.5C 555.5,425.5 555.5,462.5 555.5,499.5C 555.5,517.833 555.5,536.167 555.5,554.5C 536.833,554.5 518.167,554.5 499.5,554.5C 499.5,480.5 499.5,406.5 499.5,332.5 Z"/></g>
<g><path style="opacity:1" fill="#f7bbb9" d="M 555.5,332.5 C 629.5,332.5 703.5,332.5 777.5,332.5C 814.5,332.5 851.5,332.5 888.5,332.5C 888.5,351.167 888.5,369.833 888.5,388.5C 851.5,388.5 814.5,388.5 777.5,388.5C 740.5,388.5 703.5,388.5 666.5,388.5C 629.5,388.5 592.5,388.5 555.5,388.5C 555.5,369.833 555.5,351.167 555.5,332.5 Z"/></g>
<g><path style="opacity:1" fill="#884745" d="M 555.5,388.5 C 592.5,388.5 629.5,388.5 666.5,388.5C 666.5,425.5 666.5,462.5 666.5,499.5C 629.5,499.5 592.5,499.5 555.5,499.5C 555.5,462.5 555.5,425.5 555.5,388.5 Z"/></g>
<g><path style="opacity:1" fill="#f09e97" d="M 666.5,388.5 C 703.5,388.5 740.5,388.5 777.5,388.5C 777.5,425.5 777.5,462.5 777.5,499.5C 740.5,499.5 703.5,499.5 666.5,499.5C 666.5,462.5 666.5,425.5 666.5,388.5 Z"/></g>
<g><path style="opacity:1" fill="#884745" d="M 777.5,388.5 C 814.5,388.5 851.5,388.5 888.5,388.5C 888.5,425.5 888.5,462.5 888.5,499.5C 851.5,499.5 814.5,499.5 777.5,499.5C 777.5,462.5 777.5,425.5 777.5,388.5 Z"/></g>
<g><path style="opacity:1" fill="#f7bbb9" d="M 555.5,499.5 C 592.5,499.5 629.5,499.5 666.5,499.5C 703.5,499.5 740.5,499.5 777.5,499.5C 814.5,499.5 851.5,499.5 888.5,499.5C 888.5,517.833 888.5,536.167 888.5,554.5C 777.5,554.5 666.5,554.5 555.5,554.5C 555.5,536.167 555.5,517.833 555.5,499.5 Z"/></g>
</svg>
