<?xml version="1.0" encoding="UTF-8"?>
<!DOCTYPE svg PUBLIC "-//W3C//DTD SVG 1.1//EN" "http://www.w3.org/Graphics/SVG/1.1/DTD/svg11.dtd">
<svg xmlns="http://www.w3.org/2000/svg" version="1.1" width="1000px" height="667px" style="shape-rendering:geometricPrecision; text-rendering:geometricPrecision; image-rendering:optimizeQuality; fill-rule:evenodd; clip-rule:evenodd" xmlns:xlink="http://www.w3.org/1999/xlink">
<g><path style="opacity:1" fill="#2f2f2e" d="M -0.5,-0.5 C 110.833,-0.5 222.167,-0.5 333.5,-0.5C 333.5,221.833 333.5,444.167 333.5,666.5C 222.167,666.5 110.833,666.5 -0.5,666.5C -0.5,444.167 -0.5,221.833 -0.5,-0.5 Z"/></g>
<g><path style="opacity:1" fill="#3c3c3b" d="M 333.5,-0.5 C 555.5,-0.5 777.5,-0.5 999.5,-0.5C 999.5,221.833 999.5,444.167 999.5,666.5C 777.5,666.5 555.5,666.5 333.5,666.5C 333.5,444.167 333.5,221.833 333.5,-0.5 Z"/></g>
<g><path style="opacity:1" fill="#5f605f" d="M 277.5,222.5 C 203.5,222.5 129.5,222.5 55.5,222.5C 55.5,185.5 55.5,148.5 55.5,111.5C 129.5,111.5 203.5,111.5 277.5,111.5C 277.5,148.5 277.5,185.5 277.5,222.5 Z"/></g>
<g><path style="opacity:1" fill="#9c9d9c" d="M 889.5,222.5 C 741.167,222.5 592.833,222.5 444.5,222.5C 444.5,185.5 444.5,148.5 444.5,111.5C 592.833,111.5 741.167,111.5 889.5,111.5C 889.5,148.5 889.5,185.5 889.5,222.5 Z"/></g>
<g><path style="opacity:1" fill="#363433" d="M 55.5,222.5 C 129.5,222.5 203.5,222.5 277.5,222.5C 277.5,296.5 277.5,370.5 277.5,444.5C 203.5,444.5 129.5,444.5 55.5,444.5C 55.5,370.5 55.5,296.5 55.5,222.5 Z"/></g>
<g><path style="opacity:1" fill="#646564" d="M 444.5,222.5 C 592.833,222.5 741.167,222.5 889.5,222.5C 889.5,259.5 889.5,296.5 889.5,333.5C 852.5,333.5 815.5,333.5 778.5,333.5C 704.167,333.5 629.833,333.5 555.5,333.5C 518.5,333.5 481.5,333.5 444.5,333.5C 444.5,296.5 444.5,259.5 444.5,222.5 Z"/></g>
<g><path style="opacity:1" fill="#222322" d="M 444.5,333.5 C 481.5,333.5 518.5,333.5 555.5,333.5C 555.5,370.5 555.5,407.5 555.5,444.5C 518.5,444.5 481.5,444.5 444.5,444.5C 444.5,407.5 444.5,370.5 444.5,333.5 Z"/></g>
<g><path style="opacity:1" fill="#9c9d9c" d="M 555.5,333.5 C 629.833,333.5 704.167,333.5 778.5,333.5C 778.5,370.5 778.5,407.5 778.5,444.5C 704.167,444.5 629.833,444.5 555.5,444.5C 555.5,407.5 555.5,370.5 555.5,333.5 Z"/></g>
<g><path style="opacity:1" fill="#222322" d="M 778.5,333.5 C 815.5,333.5 852.5,333.5 889.5,333.5C 889.5,370.5 889.5,407.5 889.5,444.5C 852.5,444.5 815.5,444.5 778.5,444.5C 778.5,407.5 778.5,370.5 778.5,333.5 Z"/></g>
<g><path style="opacity:1" fill="#5f605f" d="M 55.5,444.5 C 129.5,444.5 203.5,444.5 277.5,444.5C 277.5,481.5 277.5,518.5 277.5,555.5C 203.5,555.5 129.5,555.5 55.5,555.5C 55.5,518.5 55.5,481.5 55.5,444.5 Z"/></g>
<g><path style="opacity:1" fill="#9c9d9c" d="M 444.5,444.5 C 481.5,444.5 518.5,444.5 555.5,444.5C 555.5,481.5 555.5,518.5 555.5,555.5C 518.5,555.5 481.5,555.5 444.5,555.5C 444.5,518.5 444.5,481.5 444.5,444.5 Z"/></g>
<g><path style="opacity:1" fill="#909190" d="M 555.5,444.5 C 629.833,444.5 704.167,444.5 778.5,444.5C 778.5,481.5 778.5,518.5 778.5,555.5C 704.167,555.5 629.833,555.5 555.5,555.5C 555.5,518.5 555.5,481.5 555.5,444.5 Z"/></g>
<g><path style="opacity:1" fill="#9c9d9c" d="M 778.5,444.5 C 815.5,444.5 852.5,444.5 889.5,444.5C 889.5,481.5 889.5,518.5 889.5,555.5C 852.5,555.5 815.5,555.5 778.5,555.5C 778.5,518.5 778.5,481.5 778.5,444.5 Z"/></g>
</svg>
