<?xml version="1.0" encoding="UTF-8"?>
<!DOCTYPE svg PUBLIC "-//W3C//DTD SVG 1.1//EN" "http://www.w3.org/Graphics/SVG/1.1/DTD/svg11.dtd">
<svg xmlns="http://www.w3.org/2000/svg" version="1.1" width="785px" height="1000px" style="shape-rendering:geometricPrecision; text-rendering:geometricPrecision; image-rendering:optimizeQuality; fill-rule:evenodd; clip-rule:evenodd" xmlns:xlink="http://www.w3.org/1999/xlink">
<g><path style="opacity:1" fill="#254c3a" d="M -0.5,-0.5 C 23.1667,-0.5 46.8333,-0.5 70.5,-0.5C 70.5,285.167 70.5,570.833 70.5,856.5C 46.8333,856.5 23.1667,856.5 -0.5,856.5C -0.5,570.833 -0.5,285.167 -0.5,-0.5 Z"/></g>
<g><path style="opacity:1" fill="#306455" d="M 70.5,-0.5 C 118.167,-0.5 165.833,-0.5 213.5,-0.5C 213.5,47.1667 213.5,94.8333 213.5,142.5C 213.5,237.833 213.5,333.167 213.5,428.5C 213.5,475.833 213.5,523.167 213.5,570.5C 213.5,618.167 213.5,665.833 213.5,713.5C 213.5,761.167 213.5,808.833 213.5,856.5C 189.833,856.5 166.167,856.5 142.5,856.5C 118.5,856.5 94.5,856.5 70.5,856.5C 70.5,570.833 70.5,285.167 70.5,-0.5 Z"/></g>
<g><path style="opacity:1" fill="#559a89" d="M 213.5,-0.5 C 261.167,-0.5 308.833,-0.5 356.5,-0.5C 356.5,47.1667 356.5,94.8333 356.5,142.5C 308.833,142.5 261.167,142.5 213.5,142.5C 213.5,94.8333 213.5,47.1667 213.5,-0.5 Z"/></g>
<g><path style="opacity:1" fill="#90c2ab" d="M 213.5,142.5 C 261.167,142.5 308.833,142.5 356.5,142.5C 356.5,237.833 356.5,333.167 356.5,428.5C 308.833,428.5 261.167,428.5 213.5,428.5C 213.5,333.167 213.5,237.833 213.5,142.5 Z"/></g>
<g><path style="opacity:1" fill="#559a89" d="M 356.5,142.5 C 404.167,142.5 451.833,142.5 499.5,142.5C 499.5,237.833 499.5,333.167 499.5,428.5C 451.833,428.5 404.167,428.5 356.5,428.5C 356.5,333.167 356.5,237.833 356.5,142.5 Z"/></g>
<g><path style="opacity:1" fill="#559a89" d="M 213.5,428.5 C 261.167,428.5 308.833,428.5 356.5,428.5C 356.5,475.833 356.5,523.167 356.5,570.5C 308.833,570.5 261.167,570.5 213.5,570.5C 213.5,523.167 213.5,475.833 213.5,428.5 Z"/></g>
<g><path style="opacity:1" fill="#90c2ab" d="M 356.5,428.5 C 404.167,428.5 451.833,428.5 499.5,428.5C 499.5,523.5 499.5,618.5 499.5,713.5C 404.167,713.5 308.833,713.5 213.5,713.5C 213.5,665.833 213.5,618.167 213.5,570.5C 261.167,570.5 308.833,570.5 356.5,570.5C 356.5,523.167 356.5,475.833 356.5,428.5 Z"/></g>
<g><path style="opacity:1" fill="#559a89" d="M 499.5,428.5 C 546.833,428.5 594.167,428.5 641.5,428.5C 641.5,523.5 641.5,618.5 641.5,713.5C 594.167,713.5 546.833,713.5 499.5,713.5C 499.5,618.5 499.5,523.5 499.5,428.5 Z"/></g>
<g><path style="opacity:1" fill="#559a89" d="M 213.5,713.5 C 308.833,713.5 404.167,713.5 499.5,713.5C 499.5,761.167 499.5,808.833 499.5,856.5C 404.167,856.5 308.833,856.5 213.5,856.5C 213.5,808.833 213.5,761.167 213.5,713.5 Z"/></g>
<g><path style="opacity:1" fill="#90c2ab" d="M 499.5,713.5 C 546.833,713.5 594.167,713.5 641.5,713.5C 641.5,761.167 641.5,808.833 641.5,856.5C 594.167,856.5 546.833,856.5 499.5,856.5C 499.5,808.833 499.5,761.167 499.5,713.5 Z"/></g>
<g><path style="opacity:1" fill="#559a89" d="M 641.5,713.5 C 689.167,713.5 736.833,713.5 784.5,713.5C 784.5,761.167 784.5,808.833 784.5,856.5C 736.833,856.5 689.167,856.5 641.5,856.5C 641.5,808.833 641.5,761.167 641.5,713.5 Z"/></g>
<g><path style="opacity:1" fill="#254c3a" d="M 142.5,856.5 C 166.167,856.5 189.833,856.5 213.5,856.5C 213.5,904.167 213.5,951.833 213.5,999.5C 189.833,999.5 166.167,999.5 142.5,999.5C 142.5,951.833 142.5,904.167 142.5,856.5 Z"/></g>
<g><path style="opacity:1" fill="#306455" d="M 213.5,856.5 C 308.833,856.5 404.167,856.5 499.5,856.5C 546.833,856.5 594.167,856.5 641.5,856.5C 689.167,856.5 736.833,856.5 784.5,856.5C 784.5,904.167 784.5,951.833 784.5,999.5C 594.167,999.5 403.833,999.5 213.5,999.5C 213.5,951.833 213.5,904.167 213.5,856.5 Z"/></g>
</svg>
