<?xml version="1.0" encoding="UTF-8"?>
<!DOCTYPE svg PUBLIC "-//W3C//DTD SVG 1.1//EN" "http://www.w3.org/Graphics/SVG/1.1/DTD/svg11.dtd">
<svg xmlns="http://www.w3.org/2000/svg" version="1.1" width="1000px" height="1000px" style="shape-rendering:geometricPrecision; text-rendering:geometricPrecision; image-rendering:optimizeQuality; fill-rule:evenodd; clip-rule:evenodd" xmlns:xlink="http://www.w3.org/1999/xlink">
<g><path style="opacity:1" fill="#346389" d="M 454.5,45.5 C 454.5,106.167 454.5,166.833 454.5,227.5C 424.167,227.5 393.833,227.5 363.5,227.5C 363.5,212.167 363.5,196.833 363.5,181.5C 363.5,151.167 363.5,120.833 363.5,90.5C 363.5,75.5 363.5,60.5 363.5,45.5C 393.833,45.5 424.167,45.5 454.5,45.5 Z"/></g>
<g><path style="opacity:1" fill="#4685b7" d="M 454.5,45.5 C 575.833,45.5 697.167,45.5 818.5,45.5C 818.5,106.167 818.5,166.833 818.5,227.5C 818.5,288.167 818.5,348.833 818.5,409.5C 697.167,409.5 575.833,409.5 454.5,409.5C 454.5,470.167 454.5,530.833 454.5,591.5C 424.167,591.5 393.833,591.5 363.5,591.5C 333.167,591.5 302.833,591.5 272.5,591.5C 272.5,470.167 272.5,348.833 272.5,227.5C 302.833,227.5 333.167,227.5 363.5,227.5C 393.833,227.5 424.167,227.5 454.5,227.5C 454.5,166.833 454.5,106.167 454.5,45.5 Z"/></g>
<g><path style="opacity:1" fill="#1c1a13" d="M -0.5,90.5 C 120.833,90.5 242.167,90.5 363.5,90.5C 363.5,120.833 363.5,151.167 363.5,181.5C 333.167,181.5 302.833,181.5 272.5,181.5C 272.5,196.833 272.5,212.167 272.5,227.5C 242.167,227.5 211.833,227.5 181.5,227.5C 181.5,348.833 181.5,470.167 181.5,591.5C 211.833,591.5 242.167,591.5 272.5,591.5C 302.833,591.5 333.167,591.5 363.5,591.5C 363.5,606.5 363.5,621.5 363.5,636.5C 393.833,636.5 424.167,636.5 454.5,636.5C 454.5,757.5 454.5,878.5 454.5,999.5C 363.5,999.5 272.5,999.5 181.5,999.5C 181.5,878.5 181.5,757.5 181.5,636.5C 120.833,636.5 60.1667,636.5 -0.5,636.5C -0.5,454.5 -0.5,272.5 -0.5,90.5 Z"/></g>
<g><path style="opacity:1" fill="#346389" d="M 545.5,136.5 C 575.833,136.5 606.167,136.5 636.5,136.5C 636.5,166.833 636.5,197.167 636.5,227.5C 606.167,227.5 575.833,227.5 545.5,227.5C 545.5,197.167 545.5,166.833 545.5,136.5 Z"/></g>
<g><path style="opacity:1" fill="#855106" d="M 45.5,181.5 C 75.8333,181.5 106.167,181.5 136.5,181.5C 136.5,302.833 136.5,424.167 136.5,545.5C 106.167,545.5 75.8333,545.5 45.5,545.5C 45.5,424.167 45.5,302.833 45.5,181.5 Z"/></g>
<g><path style="opacity:1" fill="#683f04" d="M 363.5,181.5 C 363.5,196.833 363.5,212.167 363.5,227.5C 333.167,227.5 302.833,227.5 272.5,227.5C 272.5,212.167 272.5,196.833 272.5,181.5C 302.833,181.5 333.167,181.5 363.5,181.5 Z"/></g>
<g><path style="opacity:1" fill="#346389" d="M 272.5,227.5 C 272.5,348.833 272.5,470.167 272.5,591.5C 242.167,591.5 211.833,591.5 181.5,591.5C 181.5,470.167 181.5,348.833 181.5,227.5C 211.833,227.5 242.167,227.5 272.5,227.5 Z"/></g>
<g><path style="opacity:1" fill="#fed948" d="M 818.5,227.5 C 878.833,227.5 939.167,227.5 999.5,227.5C 999.5,348.833 999.5,470.167 999.5,591.5C 939.167,591.5 878.833,591.5 818.5,591.5C 818.5,606.5 818.5,621.5 818.5,636.5C 788.167,636.5 757.833,636.5 727.5,636.5C 727.5,621.5 727.5,606.5 727.5,591.5C 697.167,591.5 666.833,591.5 636.5,591.5C 636.5,606.5 636.5,621.5 636.5,636.5C 575.833,636.5 515.167,636.5 454.5,636.5C 454.5,621.5 454.5,606.5 454.5,591.5C 454.5,530.833 454.5,470.167 454.5,409.5C 575.833,409.5 697.167,409.5 818.5,409.5C 818.5,348.833 818.5,288.167 818.5,227.5 Z"/></g>
<g><path style="opacity:1" fill="#bea235" d="M 363.5,591.5 C 393.833,591.5 424.167,591.5 454.5,591.5C 454.5,606.5 454.5,621.5 454.5,636.5C 424.167,636.5 393.833,636.5 363.5,636.5C 363.5,621.5 363.5,606.5 363.5,591.5 Z"/></g>
<g><path style="opacity:1" fill="#bea235" d="M 727.5,636.5 C 697.167,636.5 666.833,636.5 636.5,636.5C 636.5,621.5 636.5,606.5 636.5,591.5C 666.833,591.5 697.167,591.5 727.5,591.5C 727.5,606.5 727.5,621.5 727.5,636.5 Z"/></g>
<g><path style="opacity:1" fill="#443c2e" d="M 454.5,636.5 C 515.167,636.5 575.833,636.5 636.5,636.5C 666.833,636.5 697.167,636.5 727.5,636.5C 757.833,636.5 788.167,636.5 818.5,636.5C 878.833,636.5 939.167,636.5 999.5,636.5C 999.5,757.5 999.5,878.5 999.5,999.5C 817.833,999.5 636.167,999.5 454.5,999.5C 454.5,878.5 454.5,757.5 454.5,636.5 Z"/></g>
<g><path style="opacity:1" fill="#855106" d="M 227.5,727.5 C 288.167,727.5 348.833,727.5 409.5,727.5C 409.5,788.167 409.5,848.833 409.5,909.5C 348.833,909.5 288.167,909.5 227.5,909.5C 227.5,848.833 227.5,788.167 227.5,727.5 Z"/></g>
<g><path style="opacity:1" fill="#a66e1e" d="M 545.5,727.5 C 666.833,727.5 788.167,727.5 909.5,727.5C 909.5,788.167 909.5,848.833 909.5,909.5C 788.167,909.5 666.833,909.5 545.5,909.5C 545.5,848.833 545.5,788.167 545.5,727.5 Z"/></g>
</svg>
