<?xml version="1.0" encoding="UTF-8"?>
<!DOCTYPE svg PUBLIC "-//W3C//DTD SVG 1.1//EN" "http://www.w3.org/Graphics/SVG/1.1/DTD/svg11.dtd">
<svg xmlns="http://www.w3.org/2000/svg" version="1.1" width="1000px" height="1000px" style="shape-rendering:geometricPrecision; text-rendering:geometricPrecision; image-rendering:optimizeQuality; fill-rule:evenodd; clip-rule:evenodd" xmlns:xlink="http://www.w3.org/1999/xlink">
<g><path style="opacity:1" fill="#c0c1c0" d="M 125.5,-0.5 C 333.833,-0.5 542.167,-0.5 750.5,-0.5C 750.5,41.5 750.5,83.5 750.5,125.5C 792.167,125.5 833.833,125.5 875.5,125.5C 875.5,167.167 875.5,208.833 875.5,250.5C 667.167,250.5 458.833,250.5 250.5,250.5C 250.5,292.167 250.5,333.833 250.5,375.5C 250.5,500.5 250.5,625.5 250.5,750.5C 271.167,750.5 291.833,750.5 312.5,750.5C 312.5,792.167 312.5,833.833 312.5,875.5C 291.833,875.5 271.167,875.5 250.5,875.5C 208.833,875.5 167.167,875.5 125.5,875.5C 125.5,833.833 125.5,792.167 125.5,750.5C 83.5,750.5 41.5,750.5 -0.5,750.5C -0.5,542.167 -0.5,333.833 -0.5,125.5C 41.5,125.5 83.5,125.5 125.5,125.5C 125.5,83.5 125.5,41.5 125.5,-0.5 Z"/></g>
<g><path style="opacity:1" fill="#c0c1c0" d="M 875.5,250.5 C 916.833,250.5 958.167,250.5 999.5,250.5C 999.5,292.167 999.5,333.833 999.5,375.5C 958.167,375.5 916.833,375.5 875.5,375.5C 875.5,333.833 875.5,292.167 875.5,250.5 Z"/></g>
<g><path style="opacity:1" fill="#12579d" d="M 250.5,375.5 C 292.167,375.5 333.833,375.5 375.5,375.5C 375.5,583.5 375.5,791.5 375.5,999.5C 333.833,999.5 292.167,999.5 250.5,999.5C 250.5,958.167 250.5,916.833 250.5,875.5C 271.167,875.5 291.833,875.5 312.5,875.5C 312.5,833.833 312.5,792.167 312.5,750.5C 291.833,750.5 271.167,750.5 250.5,750.5C 250.5,625.5 250.5,500.5 250.5,375.5 Z"/></g>
<g><path style="opacity:1" fill="#1975d2" d="M 375.5,375.5 C 542.167,375.5 708.833,375.5 875.5,375.5C 875.5,417.167 875.5,458.833 875.5,500.5C 833.833,500.5 792.167,500.5 750.5,500.5C 667.167,500.5 583.833,500.5 500.5,500.5C 500.5,542.167 500.5,583.833 500.5,625.5C 583.833,625.5 667.167,625.5 750.5,625.5C 792.167,625.5 833.833,625.5 875.5,625.5C 875.5,667.167 875.5,708.833 875.5,750.5C 833.833,750.5 792.167,750.5 750.5,750.5C 667.167,750.5 583.833,750.5 500.5,750.5C 500.5,833.5 500.5,916.5 500.5,999.5C 458.833,999.5 417.167,999.5 375.5,999.5C 375.5,791.5 375.5,583.5 375.5,375.5 Z"/></g>
<g><path style="opacity:1" fill="#12579d" d="M 750.5,500.5 C 792.167,500.5 833.833,500.5 875.5,500.5C 875.5,542.167 875.5,583.833 875.5,625.5C 833.833,625.5 792.167,625.5 750.5,625.5C 750.5,583.833 750.5,542.167 750.5,500.5 Z"/></g>
<g><path style="opacity:1" fill="#1975d2" d="M 875.5,500.5 C 916.833,500.5 958.167,500.5 999.5,500.5C 999.5,542.167 999.5,583.833 999.5,625.5C 958.167,625.5 916.833,625.5 875.5,625.5C 875.5,583.833 875.5,542.167 875.5,500.5 Z"/></g>
<g><path style="opacity:1" fill="#12579d" d="M 750.5,750.5 C 792.167,750.5 833.833,750.5 875.5,750.5C 875.5,833.5 875.5,916.5 875.5,999.5C 833.833,999.5 792.167,999.5 750.5,999.5C 750.5,916.5 750.5,833.5 750.5,750.5 Z"/></g>
<g><path style="opacity:1" fill="#1975d2" d="M 875.5,750.5 C 916.833,750.5 958.167,750.5 999.5,750.5C 999.5,833.5 999.5,916.5 999.5,999.5C 958.167,999.5 916.833,999.5 875.5,999.5C 875.5,916.5 875.5,833.5 875.5,750.5 Z"/></g>
</svg>
