<?xml version="1.0" encoding="UTF-8"?>
<!DOCTYPE svg PUBLIC "-//W3C//DTD SVG 1.1//EN" "http://www.w3.org/Graphics/SVG/1.1/DTD/svg11.dtd">
<svg xmlns="http://www.w3.org/2000/svg" version="1.1" width="1000px" height="1000px" style="shape-rendering:geometricPrecision; text-rendering:geometricPrecision; image-rendering:optimizeQuality; fill-rule:evenodd; clip-rule:evenodd" xmlns:xlink="http://www.w3.org/1999/xlink">
<g><path style="opacity:1" fill="#757675" d="M 381.5,-0.5 C 428.833,-0.5 476.167,-0.5 523.5,-0.5C 523.5,31.5 523.5,63.5 523.5,95.5C 476.167,95.5 428.833,95.5 381.5,95.5C 381.5,79.5 381.5,63.5 381.5,47.5C 381.5,31.5 381.5,15.5 381.5,-0.5 Z"/></g>
<g><path style="opacity:1" fill="#a4a5a4" d="M 523.5,-0.5 C 555.5,-0.5 587.5,-0.5 619.5,-0.5C 619.5,15.5 619.5,31.5 619.5,47.5C 619.5,63.5 619.5,79.5 619.5,95.5C 587.5,95.5 555.5,95.5 523.5,95.5C 523.5,63.5 523.5,31.5 523.5,-0.5 Z"/></g>
<g><path style="opacity:1" fill="#1c1a13" d="M -0.5,47.5 C 126.833,47.5 254.167,47.5 381.5,47.5C 381.5,63.5 381.5,79.5 381.5,95.5C 428.833,95.5 476.167,95.5 523.5,95.5C 555.5,95.5 587.5,95.5 619.5,95.5C 619.5,79.5 619.5,63.5 619.5,47.5C 667.167,47.5 714.833,47.5 762.5,47.5C 762.5,95.1667 762.5,142.833 762.5,190.5C 730.5,190.5 698.5,190.5 666.5,190.5C 666.5,174.5 666.5,158.5 666.5,142.5C 539.5,142.5 412.5,142.5 285.5,142.5C 285.5,158.5 285.5,174.5 285.5,190.5C 269.833,190.5 254.167,190.5 238.5,190.5C 222.5,190.5 206.5,190.5 190.5,190.5C 190.5,222.167 190.5,253.833 190.5,285.5C 190.5,317.5 190.5,349.5 190.5,381.5C 190.5,444.833 190.5,508.167 190.5,571.5C 190.5,587.5 190.5,603.5 190.5,619.5C 206.5,619.5 222.5,619.5 238.5,619.5C 270.167,619.5 301.833,619.5 333.5,619.5C 349.5,619.5 365.5,619.5 381.5,619.5C 397.167,619.5 412.833,619.5 428.5,619.5C 428.5,746.167 428.5,872.833 428.5,999.5C 333.167,999.5 237.833,999.5 142.5,999.5C 142.5,872.833 142.5,746.167 142.5,619.5C 94.8333,619.5 47.1667,619.5 -0.5,619.5C -0.5,428.833 -0.5,238.167 -0.5,47.5 Z"/></g>
<g><path style="opacity:1" fill="#855106" d="M 47.5,142.5 C 79.1667,142.5 110.833,142.5 142.5,142.5C 142.5,269.5 142.5,396.5 142.5,523.5C 110.833,523.5 79.1667,523.5 47.5,523.5C 47.5,396.5 47.5,269.5 47.5,142.5 Z"/></g>
<g><path style="opacity:1" fill="#683f04" d="M 666.5,190.5 C 634.833,190.5 603.167,190.5 571.5,190.5C 555.5,190.5 539.5,190.5 523.5,190.5C 491.833,190.5 460.167,190.5 428.5,190.5C 412.833,190.5 397.167,190.5 381.5,190.5C 365.5,190.5 349.5,190.5 333.5,190.5C 317.5,190.5 301.5,190.5 285.5,190.5C 285.5,174.5 285.5,158.5 285.5,142.5C 412.5,142.5 539.5,142.5 666.5,142.5C 666.5,158.5 666.5,174.5 666.5,190.5 Z"/></g>
<g><path style="opacity:1" fill="#362116" d="M 238.5,190.5 C 238.5,222.167 238.5,253.833 238.5,285.5C 222.5,285.5 206.5,285.5 190.5,285.5C 190.5,253.833 190.5,222.167 190.5,190.5C 206.5,190.5 222.5,190.5 238.5,190.5 Z"/></g>
<g><path style="opacity:1" fill="#552a17" d="M 238.5,190.5 C 254.167,190.5 269.833,190.5 285.5,190.5C 301.5,190.5 317.5,190.5 333.5,190.5C 333.5,222.167 333.5,253.833 333.5,285.5C 301.833,285.5 270.167,285.5 238.5,285.5C 238.5,253.833 238.5,222.167 238.5,190.5 Z"/></g>
<g><path style="opacity:1" fill="#362116" d="M 333.5,190.5 C 349.5,190.5 365.5,190.5 381.5,190.5C 381.5,222.167 381.5,253.833 381.5,285.5C 365.5,285.5 349.5,285.5 333.5,285.5C 333.5,253.833 333.5,222.167 333.5,190.5 Z"/></g>
<g><path style="opacity:1" fill="#4c3c20" d="M 381.5,190.5 C 397.167,190.5 412.833,190.5 428.5,190.5C 428.5,285.833 428.5,381.167 428.5,476.5C 412.833,476.5 397.167,476.5 381.5,476.5C 381.5,444.833 381.5,413.167 381.5,381.5C 365.5,381.5 349.5,381.5 333.5,381.5C 333.5,349.5 333.5,317.5 333.5,285.5C 349.5,285.5 365.5,285.5 381.5,285.5C 381.5,253.833 381.5,222.167 381.5,190.5 Z"/></g>
<g><path style="opacity:1" fill="#66502b" d="M 428.5,190.5 C 460.167,190.5 491.833,190.5 523.5,190.5C 523.5,222.167 523.5,253.833 523.5,285.5C 507.833,285.5 492.167,285.5 476.5,285.5C 476.5,349.167 476.5,412.833 476.5,476.5C 460.5,476.5 444.5,476.5 428.5,476.5C 428.5,381.167 428.5,285.833 428.5,190.5 Z"/></g>
<g><path style="opacity:1" fill="#b7945e" d="M 523.5,190.5 C 539.5,190.5 555.5,190.5 571.5,190.5C 571.5,222.167 571.5,253.833 571.5,285.5C 555.5,285.5 539.5,285.5 523.5,285.5C 523.5,253.833 523.5,222.167 523.5,190.5 Z"/></g>
<g><path style="opacity:1" fill="#492d1e" d="M 571.5,190.5 C 603.167,190.5 634.833,190.5 666.5,190.5C 666.5,222.167 666.5,253.833 666.5,285.5C 650.833,285.5 635.167,285.5 619.5,285.5C 603.5,285.5 587.5,285.5 571.5,285.5C 571.5,253.833 571.5,222.167 571.5,190.5 Z"/></g>
<g><path style="opacity:1" fill="#72391f" d="M 666.5,190.5 C 698.5,190.5 730.5,190.5 762.5,190.5C 762.5,222.167 762.5,253.833 762.5,285.5C 730.5,285.5 698.5,285.5 666.5,285.5C 666.5,253.833 666.5,222.167 666.5,190.5 Z"/></g>
<g><path style="opacity:1" fill="#492d1e" d="M 762.5,190.5 C 794.167,190.5 825.833,190.5 857.5,190.5C 857.5,222.167 857.5,253.833 857.5,285.5C 841.5,285.5 825.5,285.5 809.5,285.5C 793.833,285.5 778.167,285.5 762.5,285.5C 762.5,253.833 762.5,222.167 762.5,190.5 Z"/></g>
<g><path style="opacity:1" fill="#b7945e" d="M 857.5,190.5 C 873.167,190.5 888.833,190.5 904.5,190.5C 904.5,222.167 904.5,253.833 904.5,285.5C 888.833,285.5 873.167,285.5 857.5,285.5C 857.5,253.833 857.5,222.167 857.5,190.5 Z"/></g>
<g><path style="opacity:1" fill="#66502b" d="M 904.5,190.5 C 936.167,190.5 967.833,190.5 999.5,190.5C 999.5,333.5 999.5,476.5 999.5,619.5C 983.833,619.5 968.167,619.5 952.5,619.5C 952.5,571.833 952.5,524.167 952.5,476.5C 952.5,412.833 952.5,349.167 952.5,285.5C 936.5,285.5 920.5,285.5 904.5,285.5C 904.5,253.833 904.5,222.167 904.5,190.5 Z"/></g>
<g><path style="opacity:1" fill="#4c3c20" d="M 190.5,285.5 C 206.5,285.5 222.5,285.5 238.5,285.5C 238.5,317.5 238.5,349.5 238.5,381.5C 222.5,381.5 206.5,381.5 190.5,381.5C 190.5,349.5 190.5,317.5 190.5,285.5 Z"/></g>
<g><path style="opacity:1" fill="#362116" d="M 238.5,285.5 C 270.167,285.5 301.833,285.5 333.5,285.5C 333.5,317.5 333.5,349.5 333.5,381.5C 333.5,444.833 333.5,508.167 333.5,571.5C 333.5,587.5 333.5,603.5 333.5,619.5C 301.833,619.5 270.167,619.5 238.5,619.5C 238.5,603.5 238.5,587.5 238.5,571.5C 238.5,508.167 238.5,444.833 238.5,381.5C 238.5,349.5 238.5,317.5 238.5,285.5 Z"/></g>
<g><path style="opacity:1" fill="#382012" d="M 523.5,285.5 C 523.5,349.167 523.5,412.833 523.5,476.5C 507.833,476.5 492.167,476.5 476.5,476.5C 476.5,412.833 476.5,349.167 476.5,285.5C 492.167,285.5 507.833,285.5 523.5,285.5 Z"/></g>
<g><path style="opacity:1" fill="#573422" d="M 523.5,285.5 C 539.5,285.5 555.5,285.5 571.5,285.5C 587.5,285.5 603.5,285.5 619.5,285.5C 619.5,317.5 619.5,349.5 619.5,381.5C 619.5,413.167 619.5,444.833 619.5,476.5C 587.5,476.5 555.5,476.5 523.5,476.5C 523.5,412.833 523.5,349.167 523.5,285.5 Z"/></g>
<g><path style="opacity:1" fill="#66502b" d="M 619.5,285.5 C 635.167,285.5 650.833,285.5 666.5,285.5C 666.5,317.5 666.5,349.5 666.5,381.5C 650.833,381.5 635.167,381.5 619.5,381.5C 619.5,349.5 619.5,317.5 619.5,285.5 Z"/></g>
<g><path style="opacity:1" fill="#492d1e" d="M 666.5,285.5 C 698.5,285.5 730.5,285.5 762.5,285.5C 762.5,317.5 762.5,349.5 762.5,381.5C 762.5,444.833 762.5,508.167 762.5,571.5C 762.5,587.5 762.5,603.5 762.5,619.5C 730.5,619.5 698.5,619.5 666.5,619.5C 666.5,603.5 666.5,587.5 666.5,571.5C 682.5,571.5 698.5,571.5 714.5,571.5C 714.5,539.833 714.5,508.167 714.5,476.5C 698.5,476.5 682.5,476.5 666.5,476.5C 666.5,444.833 666.5,413.167 666.5,381.5C 666.5,349.5 666.5,317.5 666.5,285.5 Z"/></g>
<g><path style="opacity:1" fill="#66502b" d="M 762.5,285.5 C 778.167,285.5 793.833,285.5 809.5,285.5C 809.5,317.5 809.5,349.5 809.5,381.5C 793.833,381.5 778.167,381.5 762.5,381.5C 762.5,349.5 762.5,317.5 762.5,285.5 Z"/></g>
<g><path style="opacity:1" fill="#382012" d="M 809.5,285.5 C 825.5,285.5 841.5,285.5 857.5,285.5C 857.5,349.167 857.5,412.833 857.5,476.5C 841.5,476.5 825.5,476.5 809.5,476.5C 809.5,444.833 809.5,413.167 809.5,381.5C 809.5,349.5 809.5,317.5 809.5,285.5 Z"/></g>
<g><path style="opacity:1" fill="#573422" d="M 857.5,285.5 C 873.167,285.5 888.833,285.5 904.5,285.5C 920.5,285.5 936.5,285.5 952.5,285.5C 952.5,349.167 952.5,412.833 952.5,476.5C 920.833,476.5 889.167,476.5 857.5,476.5C 857.5,412.833 857.5,349.167 857.5,285.5 Z"/></g>
<g><path style="opacity:1" fill="#896f46" d="M 190.5,381.5 C 206.5,381.5 222.5,381.5 238.5,381.5C 238.5,444.833 238.5,508.167 238.5,571.5C 222.5,571.5 206.5,571.5 190.5,571.5C 190.5,508.167 190.5,444.833 190.5,381.5 Z"/></g>
<g><path style="opacity:1" fill="#896f46" d="M 333.5,381.5 C 349.5,381.5 365.5,381.5 381.5,381.5C 381.5,413.167 381.5,444.833 381.5,476.5C 381.5,508.167 381.5,539.833 381.5,571.5C 365.5,571.5 349.5,571.5 333.5,571.5C 333.5,508.167 333.5,444.833 333.5,381.5 Z"/></g>
<g><path style="opacity:1" fill="#b7945e" d="M 619.5,381.5 C 635.167,381.5 650.833,381.5 666.5,381.5C 666.5,413.167 666.5,444.833 666.5,476.5C 650.833,476.5 635.167,476.5 619.5,476.5C 619.5,444.833 619.5,413.167 619.5,381.5 Z"/></g>
<g><path style="opacity:1" fill="#b7945e" d="M 762.5,381.5 C 778.167,381.5 793.833,381.5 809.5,381.5C 809.5,413.167 809.5,444.833 809.5,476.5C 809.5,508.167 809.5,539.833 809.5,571.5C 793.833,571.5 778.167,571.5 762.5,571.5C 762.5,508.167 762.5,444.833 762.5,381.5 Z"/></g>
<g><path style="opacity:1" fill="#b4b5b4" d="M 381.5,476.5 C 397.167,476.5 412.833,476.5 428.5,476.5C 428.5,524.167 428.5,571.833 428.5,619.5C 412.833,619.5 397.167,619.5 381.5,619.5C 381.5,603.5 381.5,587.5 381.5,571.5C 381.5,539.833 381.5,508.167 381.5,476.5 Z"/></g>
<g><path style="opacity:1" fill="#d7d8d7" d="M 428.5,476.5 C 444.5,476.5 460.5,476.5 476.5,476.5C 492.167,476.5 507.833,476.5 523.5,476.5C 555.5,476.5 587.5,476.5 619.5,476.5C 635.167,476.5 650.833,476.5 666.5,476.5C 682.5,476.5 698.5,476.5 714.5,476.5C 714.5,508.167 714.5,539.833 714.5,571.5C 698.5,571.5 682.5,571.5 666.5,571.5C 618.833,571.5 571.167,571.5 523.5,571.5C 523.5,587.5 523.5,603.5 523.5,619.5C 491.833,619.5 460.167,619.5 428.5,619.5C 428.5,571.833 428.5,524.167 428.5,476.5 Z"/></g>
<g><path style="opacity:1" fill="#b4b5b4" d="M 809.5,476.5 C 825.5,476.5 841.5,476.5 857.5,476.5C 857.5,524.167 857.5,571.833 857.5,619.5C 841.5,619.5 825.5,619.5 809.5,619.5C 809.5,603.5 809.5,587.5 809.5,571.5C 809.5,539.833 809.5,508.167 809.5,476.5 Z"/></g>
<g><path style="opacity:1" fill="#d7d8d7" d="M 857.5,476.5 C 889.167,476.5 920.833,476.5 952.5,476.5C 952.5,524.167 952.5,571.833 952.5,619.5C 920.833,619.5 889.167,619.5 857.5,619.5C 857.5,571.833 857.5,524.167 857.5,476.5 Z"/></g>
<g><path style="opacity:1" fill="#4c3c20" d="M 190.5,571.5 C 206.5,571.5 222.5,571.5 238.5,571.5C 238.5,587.5 238.5,603.5 238.5,619.5C 222.5,619.5 206.5,619.5 190.5,619.5C 190.5,603.5 190.5,587.5 190.5,571.5 Z"/></g>
<g><path style="opacity:1" fill="#4c3c20" d="M 333.5,571.5 C 349.5,571.5 365.5,571.5 381.5,571.5C 381.5,587.5 381.5,603.5 381.5,619.5C 365.5,619.5 349.5,619.5 333.5,619.5C 333.5,603.5 333.5,587.5 333.5,571.5 Z"/></g>
<g><path style="opacity:1" fill="#66502b" d="M 666.5,571.5 C 666.5,587.5 666.5,603.5 666.5,619.5C 618.833,619.5 571.167,619.5 523.5,619.5C 523.5,603.5 523.5,587.5 523.5,571.5C 571.167,571.5 618.833,571.5 666.5,571.5 Z"/></g>
<g><path style="opacity:1" fill="#66502b" d="M 762.5,571.5 C 778.167,571.5 793.833,571.5 809.5,571.5C 809.5,587.5 809.5,603.5 809.5,619.5C 793.833,619.5 778.167,619.5 762.5,619.5C 762.5,603.5 762.5,587.5 762.5,571.5 Z"/></g>
<g><path style="opacity:1" fill="#443c2e" d="M 428.5,619.5 C 460.167,619.5 491.833,619.5 523.5,619.5C 571.167,619.5 618.833,619.5 666.5,619.5C 698.5,619.5 730.5,619.5 762.5,619.5C 778.167,619.5 793.833,619.5 809.5,619.5C 825.5,619.5 841.5,619.5 857.5,619.5C 889.167,619.5 920.833,619.5 952.5,619.5C 968.167,619.5 983.833,619.5 999.5,619.5C 999.5,746.167 999.5,872.833 999.5,999.5C 809.167,999.5 618.833,999.5 428.5,999.5C 428.5,872.833 428.5,746.167 428.5,619.5 Z"/></g>
<g><path style="opacity:1" fill="#855106" d="M 190.5,714.5 C 254.167,714.5 317.833,714.5 381.5,714.5C 381.5,777.833 381.5,841.167 381.5,904.5C 317.833,904.5 254.167,904.5 190.5,904.5C 190.5,841.167 190.5,777.833 190.5,714.5 Z"/></g>
<g><path style="opacity:1" fill="#a66e1e" d="M 523.5,714.5 C 650.5,714.5 777.5,714.5 904.5,714.5C 904.5,777.833 904.5,841.167 904.5,904.5C 777.5,904.5 650.5,904.5 523.5,904.5C 523.5,841.167 523.5,777.833 523.5,714.5 Z"/></g>
</svg>
