<?xml version="1.0" encoding="UTF-8"?>
<!DOCTYPE svg PUBLIC "-//W3C//DTD SVG 1.1//EN" "http://www.w3.org/Graphics/SVG/1.1/DTD/svg11.dtd">
<svg xmlns="http://www.w3.org/2000/svg" version="1.1" width="1000px" height="700px" style="shape-rendering:geometricPrecision; text-rendering:geometricPrecision; image-rendering:optimizeQuality; fill-rule:evenodd; clip-rule:evenodd" xmlns:xlink="http://www.w3.org/1999/xlink">
<g><path style="opacity:1" fill="#0faaa3" d="M -0.5,-0.5 C 99.5,-0.5 199.5,-0.5 299.5,-0.5C 299.5,32.8333 299.5,66.1667 299.5,99.5C 282.833,99.5 266.167,99.5 249.5,99.5C 182.833,99.5 116.167,99.5 49.5,99.5C 49.5,166.167 49.5,232.833 49.5,299.5C 49.5,332.833 49.5,366.167 49.5,399.5C 32.8333,399.5 16.1667,399.5 -0.5,399.5C -0.5,266.167 -0.5,132.833 -0.5,-0.5 Z"/></g>
<g><path style="opacity:1" fill="#fefffe" d="M 299.5,-0.5 C 332.833,-0.5 366.167,-0.5 399.5,-0.5C 399.5,32.8333 399.5,66.1667 399.5,99.5C 366.167,99.5 332.833,99.5 299.5,99.5C 299.5,66.1667 299.5,32.8333 299.5,-0.5 Z"/></g>
<g><path style="opacity:1" fill="#d4fff5" d="M 399.5,-0.5 C 599.5,-0.5 799.5,-0.5 999.5,-0.5C 999.5,32.8333 999.5,66.1667 999.5,99.5C 966.167,99.5 932.833,99.5 899.5,99.5C 732.833,99.5 566.167,99.5 399.5,99.5C 399.5,66.1667 399.5,32.8333 399.5,-0.5 Z"/></g>
<g><path style="opacity:1" fill="#17887b" d="M 249.5,99.5 C 249.5,166.167 249.5,232.833 249.5,299.5C 182.833,299.5 116.167,299.5 49.5,299.5C 49.5,232.833 49.5,166.167 49.5,99.5C 116.167,99.5 182.833,99.5 249.5,99.5 Z"/></g>
<g><path style="opacity:1" fill="#0099a1" d="M 249.5,99.5 C 266.167,99.5 282.833,99.5 299.5,99.5C 299.5,199.5 299.5,299.5 299.5,399.5C 266.167,399.5 232.833,399.5 199.5,399.5C 149.5,399.5 99.5,399.5 49.5,399.5C 49.5,366.167 49.5,332.833 49.5,299.5C 116.167,299.5 182.833,299.5 249.5,299.5C 249.5,232.833 249.5,166.167 249.5,99.5 Z"/></g>
<g><path style="opacity:1" fill="#d4fff5" d="M 299.5,99.5 C 332.833,99.5 366.167,99.5 399.5,99.5C 399.5,166.167 399.5,232.833 399.5,299.5C 399.5,332.833 399.5,366.167 399.5,399.5C 382.833,399.5 366.167,399.5 349.5,399.5C 332.833,399.5 316.167,399.5 299.5,399.5C 299.5,299.5 299.5,199.5 299.5,99.5 Z"/></g>
<g><path style="opacity:1" fill="#3af4e2" d="M 399.5,99.5 C 566.167,99.5 732.833,99.5 899.5,99.5C 899.5,166.167 899.5,232.833 899.5,299.5C 882.833,299.5 866.167,299.5 849.5,299.5C 816.167,299.5 782.833,299.5 749.5,299.5C 749.5,332.833 749.5,366.167 749.5,399.5C 749.5,432.833 749.5,466.167 749.5,499.5C 699.5,499.5 649.5,499.5 599.5,499.5C 599.5,432.833 599.5,366.167 599.5,299.5C 582.833,299.5 566.167,299.5 549.5,299.5C 499.5,299.5 449.5,299.5 399.5,299.5C 399.5,232.833 399.5,166.167 399.5,99.5 Z"/></g>
<g><path style="opacity:1" fill="#a1fbe7" d="M 899.5,99.5 C 932.833,99.5 966.167,99.5 999.5,99.5C 999.5,199.5 999.5,299.5 999.5,399.5C 982.833,399.5 966.167,399.5 949.5,399.5C 932.833,399.5 916.167,399.5 899.5,399.5C 899.5,366.167 899.5,332.833 899.5,299.5C 899.5,232.833 899.5,166.167 899.5,99.5 Z"/></g>
<g><path style="opacity:1" fill="#65a643" d="M 399.5,299.5 C 449.5,299.5 499.5,299.5 549.5,299.5C 549.5,332.833 549.5,366.167 549.5,399.5C 499.5,399.5 449.5,399.5 399.5,399.5C 399.5,366.167 399.5,332.833 399.5,299.5 Z"/></g>
<g><path style="opacity:1" fill="#0099a1" d="M 549.5,299.5 C 566.167,299.5 582.833,299.5 599.5,299.5C 599.5,366.167 599.5,432.833 599.5,499.5C 582.833,499.5 566.167,499.5 549.5,499.5C 549.5,466.167 549.5,432.833 549.5,399.5C 549.5,366.167 549.5,332.833 549.5,299.5 Z"/></g>
<g><path style="opacity:1" fill="#65a643" d="M 849.5,299.5 C 849.5,332.833 849.5,366.167 849.5,399.5C 816.167,399.5 782.833,399.5 749.5,399.5C 749.5,366.167 749.5,332.833 749.5,299.5C 782.833,299.5 816.167,299.5 849.5,299.5 Z"/></g>
<g><path style="opacity:1" fill="#0099a1" d="M 849.5,299.5 C 866.167,299.5 882.833,299.5 899.5,299.5C 899.5,332.833 899.5,366.167 899.5,399.5C 882.833,399.5 866.167,399.5 849.5,399.5C 849.5,366.167 849.5,332.833 849.5,299.5 Z"/></g>
<g><path style="opacity:1" fill="#2b561e" d="M 49.5,399.5 C 99.5,399.5 149.5,399.5 199.5,399.5C 199.5,432.833 199.5,466.167 199.5,499.5C 182.833,499.5 166.167,499.5 149.5,499.5C 149.5,532.833 149.5,566.167 149.5,599.5C 132.833,599.5 116.167,599.5 99.5,599.5C 99.5,632.833 99.5,666.167 99.5,699.5C 82.8333,699.5 66.1667,699.5 49.5,699.5C 49.5,599.5 49.5,499.5 49.5,399.5 Z"/></g>
<g><path style="opacity:1" fill="#4c7d33" d="M 199.5,399.5 C 232.833,399.5 266.167,399.5 299.5,399.5C 316.167,399.5 332.833,399.5 349.5,399.5C 349.5,432.833 349.5,466.167 349.5,499.5C 349.5,566.167 349.5,632.833 349.5,699.5C 266.167,699.5 182.833,699.5 99.5,699.5C 99.5,666.167 99.5,632.833 99.5,599.5C 116.167,599.5 132.833,599.5 149.5,599.5C 149.5,566.167 149.5,532.833 149.5,499.5C 166.167,499.5 182.833,499.5 199.5,499.5C 199.5,466.167 199.5,432.833 199.5,399.5 Z"/></g>
<g><path style="opacity:1" fill="#1b1c1b" d="M 349.5,399.5 C 366.167,399.5 382.833,399.5 399.5,399.5C 449.5,399.5 499.5,399.5 549.5,399.5C 549.5,432.833 549.5,466.167 549.5,499.5C 482.833,499.5 416.167,499.5 349.5,499.5C 349.5,466.167 349.5,432.833 349.5,399.5 Z"/></g>
<g><path style="opacity:1" fill="#1b1c1b" d="M 749.5,399.5 C 782.833,399.5 816.167,399.5 849.5,399.5C 866.167,399.5 882.833,399.5 899.5,399.5C 916.167,399.5 932.833,399.5 949.5,399.5C 949.5,432.833 949.5,466.167 949.5,499.5C 882.833,499.5 816.167,499.5 749.5,499.5C 749.5,466.167 749.5,432.833 749.5,399.5 Z"/></g>
<g><path style="opacity:1" fill="#65a643" d="M 349.5,499.5 C 416.167,499.5 482.833,499.5 549.5,499.5C 549.5,532.833 549.5,566.167 549.5,599.5C 516.167,599.5 482.833,599.5 449.5,599.5C 449.5,632.833 449.5,666.167 449.5,699.5C 416.167,699.5 382.833,699.5 349.5,699.5C 349.5,632.833 349.5,566.167 349.5,499.5 Z"/></g>
<g><path style="opacity:1" fill="#397128" d="M 549.5,499.5 C 566.167,499.5 582.833,499.5 599.5,499.5C 649.5,499.5 699.5,499.5 749.5,499.5C 749.5,532.833 749.5,566.167 749.5,599.5C 782.833,599.5 816.167,599.5 849.5,599.5C 849.5,632.833 849.5,666.167 849.5,699.5C 716.167,699.5 582.833,699.5 449.5,699.5C 449.5,666.167 449.5,632.833 449.5,599.5C 482.833,599.5 516.167,599.5 549.5,599.5C 549.5,566.167 549.5,532.833 549.5,499.5 Z"/></g>
<g><path style="opacity:1" fill="#65a643" d="M 749.5,499.5 C 816.167,499.5 882.833,499.5 949.5,499.5C 949.5,566.167 949.5,632.833 949.5,699.5C 916.167,699.5 882.833,699.5 849.5,699.5C 849.5,666.167 849.5,632.833 849.5,599.5C 816.167,599.5 782.833,599.5 749.5,599.5C 749.5,566.167 749.5,532.833 749.5,499.5 Z"/></g>
</svg>
