<?xml version="1.0" encoding="UTF-8"?>
<!DOCTYPE svg PUBLIC "-//W3C//DTD SVG 1.1//EN" "http://www.w3.org/Graphics/SVG/1.1/DTD/svg11.dtd">
<svg xmlns="http://www.w3.org/2000/svg" version="1.1" width="1000px" height="913px" style="shape-rendering:geometricPrecision; text-rendering:geometricPrecision; image-rendering:optimizeQuality; fill-rule:evenodd; clip-rule:evenodd" xmlns:xlink="http://www.w3.org/1999/xlink">
<g><path style="opacity:1" fill="#0faaa3" d="M 129.5,-0.5 C 216.5,-0.5 303.5,-0.5 390.5,-0.5C 390.5,28.5 390.5,57.5 390.5,86.5C 376.167,86.5 361.833,86.5 347.5,86.5C 289.5,86.5 231.5,86.5 173.5,86.5C 173.5,144.5 173.5,202.5 173.5,260.5C 173.5,289.5 173.5,318.5 173.5,347.5C 158.833,347.5 144.167,347.5 129.5,347.5C 129.5,318.5 129.5,289.5 129.5,260.5C 129.5,216.833 129.5,173.167 129.5,129.5C 129.5,100.5 129.5,71.5 129.5,42.5C 129.5,28.1667 129.5,13.8333 129.5,-0.5 Z"/></g>
<g><path style="opacity:1" fill="#fefffe" d="M 390.5,-0.5 C 419.5,-0.5 448.5,-0.5 477.5,-0.5C 477.5,28.5 477.5,57.5 477.5,86.5C 448.5,86.5 419.5,86.5 390.5,86.5C 390.5,57.5 390.5,28.5 390.5,-0.5 Z"/></g>
<g><path style="opacity:1" fill="#d4fff5" d="M 477.5,-0.5 C 651.5,-0.5 825.5,-0.5 999.5,-0.5C 999.5,28.5 999.5,57.5 999.5,86.5C 970.5,86.5 941.5,86.5 912.5,86.5C 767.5,86.5 622.5,86.5 477.5,86.5C 477.5,57.5 477.5,28.5 477.5,-0.5 Z"/></g>
<g><path style="opacity:1" fill="#892518" d="M -0.5,42.5 C 42.8333,42.5 86.1667,42.5 129.5,42.5C 129.5,71.5 129.5,100.5 129.5,129.5C 100.5,129.5 71.5,129.5 42.5,129.5C 42.5,173.167 42.5,216.833 42.5,260.5C 28.1667,260.5 13.8333,260.5 -0.5,260.5C -0.5,187.833 -0.5,115.167 -0.5,42.5 Z"/></g>
<g><path style="opacity:1" fill="#17887b" d="M 347.5,86.5 C 347.5,144.5 347.5,202.5 347.5,260.5C 289.5,260.5 231.5,260.5 173.5,260.5C 173.5,202.5 173.5,144.5 173.5,86.5C 231.5,86.5 289.5,86.5 347.5,86.5 Z"/></g>
<g><path style="opacity:1" fill="#0099a1" d="M 347.5,86.5 C 361.833,86.5 376.167,86.5 390.5,86.5C 390.5,173.5 390.5,260.5 390.5,347.5C 361.5,347.5 332.5,347.5 303.5,347.5C 260.167,347.5 216.833,347.5 173.5,347.5C 173.5,318.5 173.5,289.5 173.5,260.5C 231.5,260.5 289.5,260.5 347.5,260.5C 347.5,202.5 347.5,144.5 347.5,86.5 Z"/></g>
<g><path style="opacity:1" fill="#d4fff5" d="M 390.5,86.5 C 419.5,86.5 448.5,86.5 477.5,86.5C 477.5,144.5 477.5,202.5 477.5,260.5C 477.5,289.5 477.5,318.5 477.5,347.5C 463.167,347.5 448.833,347.5 434.5,347.5C 419.833,347.5 405.167,347.5 390.5,347.5C 390.5,260.5 390.5,173.5 390.5,86.5 Z"/></g>
<g><path style="opacity:1" fill="#3af4e2" d="M 477.5,86.5 C 622.5,86.5 767.5,86.5 912.5,86.5C 912.5,144.5 912.5,202.5 912.5,260.5C 898.167,260.5 883.833,260.5 869.5,260.5C 840.5,260.5 811.5,260.5 782.5,260.5C 782.5,289.5 782.5,318.5 782.5,347.5C 782.5,376.5 782.5,405.5 782.5,434.5C 738.833,434.5 695.167,434.5 651.5,434.5C 651.5,376.5 651.5,318.5 651.5,260.5C 637.167,260.5 622.833,260.5 608.5,260.5C 564.833,260.5 521.167,260.5 477.5,260.5C 477.5,202.5 477.5,144.5 477.5,86.5 Z"/></g>
<g><path style="opacity:1" fill="#a1fbe7" d="M 912.5,86.5 C 941.5,86.5 970.5,86.5 999.5,86.5C 999.5,173.5 999.5,260.5 999.5,347.5C 985.167,347.5 970.833,347.5 956.5,347.5C 941.833,347.5 927.167,347.5 912.5,347.5C 912.5,318.5 912.5,289.5 912.5,260.5C 912.5,202.5 912.5,144.5 912.5,86.5 Z"/></g>
<g><path style="opacity:1" fill="#7b120c" d="M 129.5,129.5 C 129.5,173.167 129.5,216.833 129.5,260.5C 100.5,260.5 71.5,260.5 42.5,260.5C 42.5,216.833 42.5,173.167 42.5,129.5C 71.5,129.5 100.5,129.5 129.5,129.5 Z"/></g>
<g><path style="opacity:1" fill="#a3962c" d="M -0.5,260.5 C 13.8333,260.5 28.1667,260.5 42.5,260.5C 71.5,260.5 100.5,260.5 129.5,260.5C 129.5,289.5 129.5,318.5 129.5,347.5C 100.5,347.5 71.5,347.5 42.5,347.5C 28.1667,347.5 13.8333,347.5 -0.5,347.5C -0.5,318.5 -0.5,289.5 -0.5,260.5 Z"/></g>
<g><path style="opacity:1" fill="#65a643" d="M 477.5,260.5 C 521.167,260.5 564.833,260.5 608.5,260.5C 608.5,289.5 608.5,318.5 608.5,347.5C 564.833,347.5 521.167,347.5 477.5,347.5C 477.5,318.5 477.5,289.5 477.5,260.5 Z"/></g>
<g><path style="opacity:1" fill="#0099a1" d="M 608.5,260.5 C 622.833,260.5 637.167,260.5 651.5,260.5C 651.5,318.5 651.5,376.5 651.5,434.5C 637.167,434.5 622.833,434.5 608.5,434.5C 608.5,405.5 608.5,376.5 608.5,347.5C 608.5,318.5 608.5,289.5 608.5,260.5 Z"/></g>
<g><path style="opacity:1" fill="#65a643" d="M 869.5,260.5 C 869.5,289.5 869.5,318.5 869.5,347.5C 840.5,347.5 811.5,347.5 782.5,347.5C 782.5,318.5 782.5,289.5 782.5,260.5C 811.5,260.5 840.5,260.5 869.5,260.5 Z"/></g>
<g><path style="opacity:1" fill="#0099a1" d="M 869.5,260.5 C 883.833,260.5 898.167,260.5 912.5,260.5C 912.5,289.5 912.5,318.5 912.5,347.5C 898.167,347.5 883.833,347.5 869.5,347.5C 869.5,318.5 869.5,289.5 869.5,260.5 Z"/></g>
<g><path style="opacity:1" fill="#892518" d="M -0.5,347.5 C 13.8333,347.5 28.1667,347.5 42.5,347.5C 42.5,390.833 42.5,434.167 42.5,477.5C 71.5,477.5 100.5,477.5 129.5,477.5C 129.5,434.167 129.5,390.833 129.5,347.5C 144.167,347.5 158.833,347.5 173.5,347.5C 173.5,419.833 173.5,492.167 173.5,564.5C 115.5,564.5 57.5,564.5 -0.5,564.5C -0.5,492.167 -0.5,419.833 -0.5,347.5 Z"/></g>
<g><path style="opacity:1" fill="#7b120c" d="M 42.5,347.5 C 71.5,347.5 100.5,347.5 129.5,347.5C 129.5,390.833 129.5,434.167 129.5,477.5C 100.5,477.5 71.5,477.5 42.5,477.5C 42.5,434.167 42.5,390.833 42.5,347.5 Z"/></g>
<g><path style="opacity:1" fill="#2b561e" d="M 173.5,347.5 C 216.833,347.5 260.167,347.5 303.5,347.5C 303.5,376.5 303.5,405.5 303.5,434.5C 289.167,434.5 274.833,434.5 260.5,434.5C 260.5,463.5 260.5,492.5 260.5,521.5C 245.833,521.5 231.167,521.5 216.5,521.5C 216.5,535.833 216.5,550.167 216.5,564.5C 202.167,564.5 187.833,564.5 173.5,564.5C 173.5,492.167 173.5,419.833 173.5,347.5 Z"/></g>
<g><path style="opacity:1" fill="#4c7d33" d="M 303.5,347.5 C 332.5,347.5 361.5,347.5 390.5,347.5C 405.167,347.5 419.833,347.5 434.5,347.5C 434.5,376.5 434.5,405.5 434.5,434.5C 434.5,477.833 434.5,521.167 434.5,564.5C 361.833,564.5 289.167,564.5 216.5,564.5C 216.5,550.167 216.5,535.833 216.5,521.5C 231.167,521.5 245.833,521.5 260.5,521.5C 260.5,492.5 260.5,463.5 260.5,434.5C 274.833,434.5 289.167,434.5 303.5,434.5C 303.5,405.5 303.5,376.5 303.5,347.5 Z"/></g>
<g><path style="opacity:1" fill="#1b1c1b" d="M 434.5,347.5 C 448.833,347.5 463.167,347.5 477.5,347.5C 521.167,347.5 564.833,347.5 608.5,347.5C 608.5,376.5 608.5,405.5 608.5,434.5C 550.5,434.5 492.5,434.5 434.5,434.5C 434.5,405.5 434.5,376.5 434.5,347.5 Z"/></g>
<g><path style="opacity:1" fill="#1b1c1b" d="M 782.5,347.5 C 811.5,347.5 840.5,347.5 869.5,347.5C 883.833,347.5 898.167,347.5 912.5,347.5C 927.167,347.5 941.833,347.5 956.5,347.5C 956.5,376.5 956.5,405.5 956.5,434.5C 898.5,434.5 840.5,434.5 782.5,434.5C 782.5,405.5 782.5,376.5 782.5,347.5 Z"/></g>
<g><path style="opacity:1" fill="#65a643" d="M 434.5,434.5 C 492.5,434.5 550.5,434.5 608.5,434.5C 608.5,463.5 608.5,492.5 608.5,521.5C 579.5,521.5 550.5,521.5 521.5,521.5C 521.5,535.833 521.5,550.167 521.5,564.5C 492.5,564.5 463.5,564.5 434.5,564.5C 434.5,521.167 434.5,477.833 434.5,434.5 Z"/></g>
<g><path style="opacity:1" fill="#397128" d="M 608.5,434.5 C 622.833,434.5 637.167,434.5 651.5,434.5C 695.167,434.5 738.833,434.5 782.5,434.5C 782.5,463.5 782.5,492.5 782.5,521.5C 811.5,521.5 840.5,521.5 869.5,521.5C 869.5,535.833 869.5,550.167 869.5,564.5C 753.5,564.5 637.5,564.5 521.5,564.5C 521.5,550.167 521.5,535.833 521.5,521.5C 550.5,521.5 579.5,521.5 608.5,521.5C 608.5,492.5 608.5,463.5 608.5,434.5 Z"/></g>
<g><path style="opacity:1" fill="#65a643" d="M 782.5,434.5 C 840.5,434.5 898.5,434.5 956.5,434.5C 956.5,477.833 956.5,521.167 956.5,564.5C 927.5,564.5 898.5,564.5 869.5,564.5C 869.5,550.167 869.5,535.833 869.5,521.5C 840.5,521.5 811.5,521.5 782.5,521.5C 782.5,492.5 782.5,463.5 782.5,434.5 Z"/></g>
<g><path style="opacity:1" fill="#892518" d="M 173.5,564.5 C 187.833,564.5 202.167,564.5 216.5,564.5C 289.167,564.5 361.833,564.5 434.5,564.5C 434.5,651.5 434.5,738.5 434.5,825.5C 419.833,825.5 405.167,825.5 390.5,825.5C 390.5,767.5 390.5,709.5 390.5,651.5C 332.5,651.5 274.5,651.5 216.5,651.5C 216.5,709.5 216.5,767.5 216.5,825.5C 202.167,825.5 187.833,825.5 173.5,825.5C 173.5,738.5 173.5,651.5 173.5,564.5 Z"/></g>
<g><path style="opacity:1" fill="#b53020" d="M 434.5,564.5 C 463.5,564.5 492.5,564.5 521.5,564.5C 637.5,564.5 753.5,564.5 869.5,564.5C 898.5,564.5 927.5,564.5 956.5,564.5C 956.5,651.5 956.5,738.5 956.5,825.5C 927.5,825.5 898.5,825.5 869.5,825.5C 869.5,767.5 869.5,709.5 869.5,651.5C 753.5,651.5 637.5,651.5 521.5,651.5C 521.5,709.5 521.5,767.5 521.5,825.5C 492.5,825.5 463.5,825.5 434.5,825.5C 434.5,738.5 434.5,651.5 434.5,564.5 Z"/></g>
<g><path style="opacity:1" fill="#7b120c" d="M 390.5,825.5 C 332.5,825.5 274.5,825.5 216.5,825.5C 216.5,767.5 216.5,709.5 216.5,651.5C 274.5,651.5 332.5,651.5 390.5,651.5C 390.5,709.5 390.5,767.5 390.5,825.5 Z"/></g>
<g><path style="opacity:1" fill="#a31710" d="M 869.5,825.5 C 753.5,825.5 637.5,825.5 521.5,825.5C 521.5,767.5 521.5,709.5 521.5,651.5C 637.5,651.5 753.5,651.5 869.5,651.5C 869.5,709.5 869.5,767.5 869.5,825.5 Z"/></g>
<g><path style="opacity:1" fill="#390300" d="M 173.5,825.5 C 187.833,825.5 202.167,825.5 216.5,825.5C 274.5,825.5 332.5,825.5 390.5,825.5C 405.167,825.5 419.833,825.5 434.5,825.5C 434.5,854.5 434.5,883.5 434.5,912.5C 347.5,912.5 260.5,912.5 173.5,912.5C 173.5,883.5 173.5,854.5 173.5,825.5 Z"/></g>
<g><path style="opacity:1" fill="#4b0300" d="M 434.5,825.5 C 463.5,825.5 492.5,825.5 521.5,825.5C 637.5,825.5 753.5,825.5 869.5,825.5C 898.5,825.5 927.5,825.5 956.5,825.5C 956.5,854.5 956.5,883.5 956.5,912.5C 782.5,912.5 608.5,912.5 434.5,912.5C 434.5,883.5 434.5,854.5 434.5,825.5 Z"/></g>
</svg>
