<?xml version="1.0" encoding="UTF-8"?>
<!DOCTYPE svg PUBLIC "-//W3C//DTD SVG 1.1//EN" "http://www.w3.org/Graphics/SVG/1.1/DTD/svg11.dtd">
<svg xmlns="http://www.w3.org/2000/svg" version="1.1" width="1000px" height="733px" style="shape-rendering:geometricPrecision; text-rendering:geometricPrecision; image-rendering:optimizeQuality; fill-rule:evenodd; clip-rule:evenodd" xmlns:xlink="http://www.w3.org/1999/xlink">
<g><path style="opacity:1" fill="#a7201f" d="M -0.5,-0.5 C 110.5,-0.5 221.5,-0.5 332.5,-0.5C 332.5,66.1667 332.5,132.833 332.5,199.5C 221.5,199.5 110.5,199.5 -0.5,199.5C -0.5,132.833 -0.5,66.1667 -0.5,-0.5 Z"/></g>
<g><path style="opacity:1" fill="#de3a29" d="M 332.5,-0.5 C 554.833,-0.5 777.167,-0.5 999.5,-0.5C 999.5,66.1667 999.5,132.833 999.5,199.5C 777.167,199.5 554.833,199.5 332.5,199.5C 332.5,132.833 332.5,66.1667 332.5,-0.5 Z"/></g>
<g><path style="opacity:1" fill="#a7201f" d="M -0.5,266.5 C 110.5,266.5 221.5,266.5 332.5,266.5C 332.5,332.833 332.5,399.167 332.5,465.5C 221.5,465.5 110.5,465.5 -0.5,465.5C -0.5,399.167 -0.5,332.833 -0.5,266.5 Z"/></g>
<g><path style="opacity:1" fill="#de3a29" d="M 332.5,266.5 C 554.833,266.5 777.167,266.5 999.5,266.5C 999.5,332.833 999.5,399.167 999.5,465.5C 777.167,465.5 554.833,465.5 332.5,465.5C 332.5,399.167 332.5,332.833 332.5,266.5 Z"/></g>
<g><path style="opacity:1" fill="#a7201f" d="M -0.5,532.5 C 110.5,532.5 221.5,532.5 332.5,532.5C 332.5,599.167 332.5,665.833 332.5,732.5C 221.5,732.5 110.5,732.5 -0.5,732.5C -0.5,665.833 -0.5,599.167 -0.5,532.5 Z"/></g>
<g><path style="opacity:1" fill="#de3a29" d="M 332.5,532.5 C 554.833,532.5 777.167,532.5 999.5,532.5C 999.5,599.167 999.5,665.833 999.5,732.5C 777.167,732.5 554.833,732.5 332.5,732.5C 332.5,665.833 332.5,599.167 332.5,532.5 Z"/></g>
</svg>
