<?xml version="1.0" encoding="UTF-8"?>
<!DOCTYPE svg PUBLIC "-//W3C//DTD SVG 1.1//EN" "http://www.w3.org/Graphics/SVG/1.1/DTD/svg11.dtd">
<svg xmlns="http://www.w3.org/2000/svg" version="1.1" width="1000px" height="857px" style="shape-rendering:geometricPrecision; text-rendering:geometricPrecision; image-rendering:optimizeQuality; fill-rule:evenodd; clip-rule:evenodd" xmlns:xlink="http://www.w3.org/1999/xlink">
<g><path style="opacity:1" fill="#00ff00" d="M 714.5,285.5 C 714.5,333.167 714.5,380.833 714.5,428.5C 666.833,428.5 619.167,428.5 571.5,428.5C 571.5,380.833 571.5,333.167 571.5,285.5C 524.167,285.5 476.833,285.5 429.5,285.5C 429.5,333.167 429.5,380.833 429.5,428.5C 381.833,428.5 334.167,428.5 286.5,428.5C 286.5,380.833 286.5,333.167 286.5,285.5C 286.5,237.833 286.5,190.167 286.5,142.5C 334.167,142.5 381.833,142.5 429.5,142.5C 429.5,95.1667 429.5,47.8333 429.5,0.5C 476.833,0.5 524.167,0.5 571.5,0.5C 571.5,47.8333 571.5,95.1667 571.5,142.5C 619.167,142.5 666.833,142.5 714.5,142.5C 714.5,190.167 714.5,237.833 714.5,285.5 Z"/></g>
<g><path style="opacity:1" fill="#feff00" d="M 286.5,285.5 C 286.5,333.167 286.5,380.833 286.5,428.5C 286.5,476.167 286.5,523.833 286.5,571.5C 238.833,571.5 191.167,571.5 143.5,571.5C 143.5,476.167 143.5,380.833 143.5,285.5C 191.167,285.5 238.833,285.5 286.5,285.5 Z"/></g>
<g><path style="opacity:1" fill="#fefffe" d="M 714.5,428.5 C 714.5,476.167 714.5,523.833 714.5,571.5C 571.833,571.5 429.167,571.5 286.5,571.5C 286.5,523.833 286.5,476.167 286.5,428.5C 334.167,428.5 381.833,428.5 429.5,428.5C 429.5,380.833 429.5,333.167 429.5,285.5C 476.833,285.5 524.167,285.5 571.5,285.5C 571.5,333.167 571.5,380.833 571.5,428.5C 619.167,428.5 666.833,428.5 714.5,428.5 Z"/></g>
<g><path style="opacity:1" fill="#00fffe" d="M 714.5,285.5 C 762.167,285.5 809.833,285.5 857.5,285.5C 857.5,380.833 857.5,476.167 857.5,571.5C 809.833,571.5 762.167,571.5 714.5,571.5C 714.5,523.833 714.5,476.167 714.5,428.5C 714.5,380.833 714.5,333.167 714.5,285.5 Z"/></g>
<g><path style="opacity:1" fill="#fe0000" d="M 143.5,571.5 C 191.167,571.5 238.833,571.5 286.5,571.5C 286.5,619.167 286.5,666.833 286.5,714.5C 334.167,714.5 381.833,714.5 429.5,714.5C 429.5,761.833 429.5,809.167 429.5,856.5C 286.5,856.5 143.5,856.5 0.5,856.5C 0.5,761.5 0.5,666.5 0.5,571.5C 48.1667,571.5 95.8333,571.5 143.5,571.5 Z"/></g>
<g><path style="opacity:1" fill="#a000ff" d="M 286.5,571.5 C 429.167,571.5 571.833,571.5 714.5,571.5C 714.5,619.167 714.5,666.833 714.5,714.5C 666.833,714.5 619.167,714.5 571.5,714.5C 571.5,761.833 571.5,809.167 571.5,856.5C 524.167,856.5 476.833,856.5 429.5,856.5C 429.5,809.167 429.5,761.833 429.5,714.5C 381.833,714.5 334.167,714.5 286.5,714.5C 286.5,666.833 286.5,619.167 286.5,571.5 Z"/></g>
<g><path style="opacity:1" fill="#0000ff" d="M 714.5,571.5 C 762.167,571.5 809.833,571.5 857.5,571.5C 904.833,571.5 952.167,571.5 999.5,571.5C 999.5,666.5 999.5,761.5 999.5,856.5C 856.833,856.5 714.167,856.5 571.5,856.5C 571.5,809.167 571.5,761.833 571.5,714.5C 619.167,714.5 666.833,714.5 714.5,714.5C 714.5,666.833 714.5,619.167 714.5,571.5 Z"/></g>
</svg>
