<?xml version="1.0" encoding="UTF-8"?>
<!DOCTYPE svg PUBLIC "-//W3C//DTD SVG 1.1//EN" "http://www.w3.org/Graphics/SVG/1.1/DTD/svg11.dtd">
<svg xmlns="http://www.w3.org/2000/svg" version="1.1" width="2300px" height="1532px" style="shape-rendering:geometricPrecision; text-rendering:geometricPrecision; image-rendering:optimizeQuality; fill-rule:evenodd; clip-rule:evenodd" xmlns:xlink="http://www.w3.org/1999/xlink">
<g><path style="opacity:1" fill="#865586" d="M -0.5,-0.5 C 254.833,-0.5 510.167,-0.5 765.5,-0.5C 765.5,340.167 765.5,680.833 765.5,1021.5C 722.833,1021.5 680.167,1021.5 637.5,1021.5C 637.5,765.5 637.5,509.5 637.5,253.5C 466.833,253.5 296.167,253.5 125.5,253.5C 125.5,509.5 125.5,765.5 125.5,1021.5C 83.5,1021.5 41.5,1021.5 -0.5,1021.5C -0.5,680.833 -0.5,340.167 -0.5,-0.5 Z"/></g>
<g><path style="opacity:1" fill="#a66ca6" d="M 765.5,-0.5 C 1276.83,-0.5 1788.17,-0.5 2299.5,-0.5C 2299.5,340.167 2299.5,680.833 2299.5,1021.5C 2214.83,1021.5 2130.17,1021.5 2045.5,1021.5C 2045.5,765.5 2045.5,509.5 2045.5,253.5C 1704.17,253.5 1362.83,253.5 1021.5,253.5C 1021.5,509.5 1021.5,765.5 1021.5,1021.5C 936.167,1021.5 850.833,1021.5 765.5,1021.5C 765.5,680.833 765.5,340.167 765.5,-0.5 Z"/></g>
<g><path style="opacity:1" fill="#8b638b" d="M 637.5,1021.5 C 594.833,1021.5 552.167,1021.5 509.5,1021.5C 509.5,893.5 509.5,765.5 509.5,637.5C 424.167,637.5 338.833,637.5 253.5,637.5C 253.5,765.5 253.5,893.5 253.5,1021.5C 210.833,1021.5 168.167,1021.5 125.5,1021.5C 125.5,765.5 125.5,509.5 125.5,253.5C 296.167,253.5 466.833,253.5 637.5,253.5C 637.5,509.5 637.5,765.5 637.5,1021.5 Z"/></g>
<g><path style="opacity:1" fill="#a982a9" d="M 2045.5,1021.5 C 1960.17,1021.5 1874.83,1021.5 1789.5,1021.5C 1789.5,893.5 1789.5,765.5 1789.5,637.5C 1618.83,637.5 1448.17,637.5 1277.5,637.5C 1277.5,765.5 1277.5,893.5 1277.5,1021.5C 1192.17,1021.5 1106.83,1021.5 1021.5,1021.5C 1021.5,765.5 1021.5,509.5 1021.5,253.5C 1362.83,253.5 1704.17,253.5 2045.5,253.5C 2045.5,509.5 2045.5,765.5 2045.5,1021.5 Z"/></g>
<g><path style="opacity:1" fill="#805480" d="M 637.5,1021.5 C 637.5,1106.83 637.5,1192.17 637.5,1277.5C 466.833,1277.5 296.167,1277.5 125.5,1277.5C 125.5,1192.17 125.5,1106.83 125.5,1021.5C 168.167,1021.5 210.833,1021.5 253.5,1021.5C 253.5,893.5 253.5,765.5 253.5,637.5C 338.833,637.5 424.167,637.5 509.5,637.5C 509.5,765.5 509.5,893.5 509.5,1021.5C 552.167,1021.5 594.833,1021.5 637.5,1021.5 Z"/></g>
<g><path style="opacity:1" fill="#a270a2" d="M 2045.5,1021.5 C 2045.5,1106.83 2045.5,1192.17 2045.5,1277.5C 1704.17,1277.5 1362.83,1277.5 1021.5,1277.5C 1021.5,1192.17 1021.5,1106.83 1021.5,1021.5C 1106.83,1021.5 1192.17,1021.5 1277.5,1021.5C 1277.5,893.5 1277.5,765.5 1277.5,637.5C 1448.17,637.5 1618.83,637.5 1789.5,637.5C 1789.5,765.5 1789.5,893.5 1789.5,1021.5C 1874.83,1021.5 1960.17,1021.5 2045.5,1021.5 Z"/></g>
<g><path style="opacity:1" fill="#7a487b" d="M -0.5,1021.5 C 41.5,1021.5 83.5,1021.5 125.5,1021.5C 125.5,1106.83 125.5,1192.17 125.5,1277.5C 296.167,1277.5 466.833,1277.5 637.5,1277.5C 637.5,1192.17 637.5,1106.83 637.5,1021.5C 680.167,1021.5 722.833,1021.5 765.5,1021.5C 765.5,1191.5 765.5,1361.5 765.5,1531.5C 510.167,1531.5 254.833,1531.5 -0.5,1531.5C -0.5,1361.5 -0.5,1191.5 -0.5,1021.5 Z"/></g>
<g><path style="opacity:1" fill="#a15ca2" d="M 765.5,1021.5 C 850.833,1021.5 936.167,1021.5 1021.5,1021.5C 1021.5,1106.83 1021.5,1192.17 1021.5,1277.5C 1362.83,1277.5 1704.17,1277.5 2045.5,1277.5C 2045.5,1192.17 2045.5,1106.83 2045.5,1021.5C 2130.17,1021.5 2214.83,1021.5 2299.5,1021.5C 2299.5,1191.5 2299.5,1361.5 2299.5,1531.5C 1788.17,1531.5 1276.83,1531.5 765.5,1531.5C 765.5,1361.5 765.5,1191.5 765.5,1021.5 Z"/></g>
</svg>
