<?xml version="1.0" encoding="UTF-8"?>
<!DOCTYPE svg PUBLIC "-//W3C//DTD SVG 1.1//EN" "http://www.w3.org/Graphics/SVG/1.1/DTD/svg11.dtd">
<svg xmlns="http://www.w3.org/2000/svg" version="1.1" width="1000px" height="666px" style="shape-rendering:geometricPrecision; text-rendering:geometricPrecision; image-rendering:optimizeQuality; fill-rule:evenodd; clip-rule:evenodd" xmlns:xlink="http://www.w3.org/1999/xlink">
<g><path style="opacity:1" fill="#1c1c1e" d="M 333.5,-0.5 C 370.5,-0.5 407.5,-0.5 444.5,-0.5C 444.5,36.5 444.5,73.5 444.5,110.5C 426.167,110.5 407.833,110.5 389.5,110.5C 389.5,147.5 389.5,184.5 389.5,221.5C 370.833,221.5 352.167,221.5 333.5,221.5C 315.167,221.5 296.833,221.5 278.5,221.5C 278.5,184.5 278.5,147.5 278.5,110.5C 296.833,110.5 315.167,110.5 333.5,110.5C 333.5,73.5 333.5,36.5 333.5,-0.5 Z"/></g>
<g><path style="opacity:1" fill="#252428" d="M 444.5,-0.5 C 518.833,-0.5 593.167,-0.5 667.5,-0.5C 667.5,36.5 667.5,73.5 667.5,110.5C 722.833,110.5 778.167,110.5 833.5,110.5C 833.5,147.5 833.5,184.5 833.5,221.5C 815.167,221.5 796.833,221.5 778.5,221.5C 722.833,221.5 667.167,221.5 611.5,221.5C 611.5,184.5 611.5,147.5 611.5,110.5C 574.5,110.5 537.5,110.5 500.5,110.5C 500.5,147.5 500.5,184.5 500.5,221.5C 463.5,221.5 426.5,221.5 389.5,221.5C 389.5,184.5 389.5,147.5 389.5,110.5C 407.833,110.5 426.167,110.5 444.5,110.5C 444.5,73.5 444.5,36.5 444.5,-0.5 Z"/></g>
<g><path style="opacity:1" fill="#1c1c1e" d="M 222.5,110.5 C 222.5,147.5 222.5,184.5 222.5,221.5C 204.167,221.5 185.833,221.5 167.5,221.5C 167.5,184.5 167.5,147.5 167.5,110.5C 185.833,110.5 204.167,110.5 222.5,110.5 Z"/></g>
<g><path style="opacity:1" fill="#640271" d="M 222.5,110.5 C 241.167,110.5 259.833,110.5 278.5,110.5C 278.5,147.5 278.5,184.5 278.5,221.5C 259.833,221.5 241.167,221.5 222.5,221.5C 222.5,184.5 222.5,147.5 222.5,110.5 Z"/></g>
<g><path style="opacity:1" fill="#840296" d="M 611.5,221.5 C 574.5,221.5 537.5,221.5 500.5,221.5C 500.5,184.5 500.5,147.5 500.5,110.5C 537.5,110.5 574.5,110.5 611.5,110.5C 611.5,147.5 611.5,184.5 611.5,221.5 Z"/></g>
<g><path style="opacity:1" fill="#121214" d="M 111.5,221.5 C 111.5,258.5 111.5,295.5 111.5,332.5C 130.167,332.5 148.833,332.5 167.5,332.5C 167.5,295.5 167.5,258.5 167.5,221.5C 185.833,221.5 204.167,221.5 222.5,221.5C 241.167,221.5 259.833,221.5 278.5,221.5C 296.833,221.5 315.167,221.5 333.5,221.5C 333.5,332.5 333.5,443.5 333.5,554.5C 315.167,554.5 296.833,554.5 278.5,554.5C 259.833,554.5 241.167,554.5 222.5,554.5C 222.5,517.5 222.5,480.5 222.5,443.5C 204.167,443.5 185.833,443.5 167.5,443.5C 167.5,480.5 167.5,517.5 167.5,554.5C 111.833,554.5 56.1667,554.5 0.5,554.5C 0.5,517.5 0.5,480.5 0.5,443.5C 19.1667,443.5 37.8333,443.5 56.5,443.5C 56.5,406.5 56.5,369.5 56.5,332.5C 37.8333,332.5 19.1667,332.5 0.5,332.5C 0.5,295.5 0.5,258.5 0.5,221.5C 37.5,221.5 74.5,221.5 111.5,221.5 Z"/></g>
<g><path style="opacity:1" fill="#640271" d="M 111.5,221.5 C 130.167,221.5 148.833,221.5 167.5,221.5C 167.5,258.5 167.5,295.5 167.5,332.5C 148.833,332.5 130.167,332.5 111.5,332.5C 111.5,295.5 111.5,258.5 111.5,221.5 Z"/></g>
<g><path style="opacity:1" fill="#18171a" d="M 333.5,221.5 C 352.167,221.5 370.833,221.5 389.5,221.5C 426.5,221.5 463.5,221.5 500.5,221.5C 537.5,221.5 574.5,221.5 611.5,221.5C 667.167,221.5 722.833,221.5 778.5,221.5C 778.5,258.5 778.5,295.5 778.5,332.5C 815.5,332.5 852.5,332.5 889.5,332.5C 889.5,295.5 889.5,258.5 889.5,221.5C 926.167,221.5 962.833,221.5 999.5,221.5C 999.5,295.5 999.5,369.5 999.5,443.5C 962.833,443.5 926.167,443.5 889.5,443.5C 889.5,480.5 889.5,517.5 889.5,554.5C 870.833,554.5 852.167,554.5 833.5,554.5C 796.5,554.5 759.5,554.5 722.5,554.5C 685.5,554.5 648.5,554.5 611.5,554.5C 537.5,554.5 463.5,554.5 389.5,554.5C 370.833,554.5 352.167,554.5 333.5,554.5C 333.5,443.5 333.5,332.5 333.5,221.5 Z"/></g>
<g><path style="opacity:1" fill="#840296" d="M 778.5,221.5 C 796.833,221.5 815.167,221.5 833.5,221.5C 852.167,221.5 870.833,221.5 889.5,221.5C 889.5,258.5 889.5,295.5 889.5,332.5C 852.5,332.5 815.5,332.5 778.5,332.5C 778.5,295.5 778.5,258.5 778.5,221.5 Z"/></g>
<g><path style="opacity:1" fill="#640271" d="M 0.5,332.5 C 19.1667,332.5 37.8333,332.5 56.5,332.5C 56.5,369.5 56.5,406.5 56.5,443.5C 37.8333,443.5 19.1667,443.5 0.5,443.5C 0.5,406.5 0.5,369.5 0.5,332.5 Z"/></g>
<g><path style="opacity:1" fill="#640271" d="M 222.5,443.5 C 222.5,406.5 222.5,369.5 222.5,332.5C 241.167,332.5 259.833,332.5 278.5,332.5C 278.5,369.5 278.5,406.5 278.5,443.5C 259.833,443.5 241.167,443.5 222.5,443.5 Z"/></g>
<g><path style="opacity:1" fill="#840296" d="M 444.5,332.5 C 481.833,332.5 519.167,332.5 556.5,332.5C 556.5,369.5 556.5,406.5 556.5,443.5C 519.167,443.5 481.833,443.5 444.5,443.5C 444.5,406.5 444.5,369.5 444.5,332.5 Z"/></g>
<g><path style="opacity:1" fill="#640271" d="M 222.5,443.5 C 222.5,480.5 222.5,517.5 222.5,554.5C 204.167,554.5 185.833,554.5 167.5,554.5C 167.5,517.5 167.5,480.5 167.5,443.5C 185.833,443.5 204.167,443.5 222.5,443.5 Z"/></g>
<g><path style="opacity:1" fill="#840296" d="M 999.5,443.5 C 999.5,480.5 999.5,517.5 999.5,554.5C 962.833,554.5 926.167,554.5 889.5,554.5C 889.5,517.5 889.5,480.5 889.5,443.5C 926.167,443.5 962.833,443.5 999.5,443.5 Z"/></g>
<g><path style="opacity:1" fill="#090a0a" d="M 167.5,554.5 C 185.833,554.5 204.167,554.5 222.5,554.5C 222.5,591.5 222.5,628.5 222.5,665.5C 204.167,665.5 185.833,665.5 167.5,665.5C 167.5,628.5 167.5,591.5 167.5,554.5 Z"/></g>
<g><path style="opacity:1" fill="#640271" d="M 222.5,554.5 C 241.167,554.5 259.833,554.5 278.5,554.5C 278.5,591.5 278.5,628.5 278.5,665.5C 259.833,665.5 241.167,665.5 222.5,665.5C 222.5,628.5 222.5,591.5 222.5,554.5 Z"/></g>
<g><path style="opacity:1" fill="#090a0a" d="M 278.5,554.5 C 296.833,554.5 315.167,554.5 333.5,554.5C 352.167,554.5 370.833,554.5 389.5,554.5C 389.5,591.5 389.5,628.5 389.5,665.5C 352.5,665.5 315.5,665.5 278.5,665.5C 278.5,628.5 278.5,591.5 278.5,554.5 Z"/></g>
<g><path style="opacity:1" fill="#0c0c0d" d="M 389.5,554.5 C 463.5,554.5 537.5,554.5 611.5,554.5C 611.5,591.5 611.5,628.5 611.5,665.5C 537.5,665.5 463.5,665.5 389.5,665.5C 389.5,628.5 389.5,591.5 389.5,554.5 Z"/></g>
<g><path style="opacity:1" fill="#840296" d="M 611.5,554.5 C 648.5,554.5 685.5,554.5 722.5,554.5C 722.5,591.5 722.5,628.5 722.5,665.5C 685.5,665.5 648.5,665.5 611.5,665.5C 611.5,628.5 611.5,591.5 611.5,554.5 Z"/></g>
<g><path style="opacity:1" fill="#0c0c0d" d="M 722.5,554.5 C 759.5,554.5 796.5,554.5 833.5,554.5C 833.5,591.5 833.5,628.5 833.5,665.5C 796.5,665.5 759.5,665.5 722.5,665.5C 722.5,628.5 722.5,591.5 722.5,554.5 Z"/></g>
</svg>
