<?xml version="1.0" encoding="UTF-8"?>
<!DOCTYPE svg PUBLIC "-//W3C//DTD SVG 1.1//EN" "http://www.w3.org/Graphics/SVG/1.1/DTD/svg11.dtd">
<svg xmlns="http://www.w3.org/2000/svg" version="1.1" width="1000px" height="933px" style="shape-rendering:geometricPrecision; text-rendering:geometricPrecision; image-rendering:optimizeQuality; fill-rule:evenodd; clip-rule:evenodd" xmlns:xlink="http://www.w3.org/1999/xlink">
<g><path style="opacity:1" fill="#aa196d" d="M 266.5,-0.5 C 288.5,-0.5 310.5,-0.5 332.5,-0.5C 332.5,88.5 332.5,177.5 332.5,266.5C 310.5,266.5 288.5,266.5 266.5,266.5C 266.5,177.5 266.5,88.5 266.5,-0.5 Z"/></g>
<g><path style="opacity:1" fill="#e220a4" d="M 332.5,-0.5 C 554.833,-0.5 777.167,-0.5 999.5,-0.5C 999.5,221.5 999.5,443.5 999.5,665.5C 910.5,665.5 821.5,665.5 732.5,665.5C 732.5,532.5 732.5,399.5 732.5,266.5C 599.167,266.5 465.833,266.5 332.5,266.5C 332.5,177.5 332.5,88.5 332.5,-0.5 Z"/></g>
<g><path style="opacity:1" fill="#05965d" d="M -0.5,266.5 C 21.8333,266.5 44.1667,266.5 66.5,266.5C 66.5,488.5 66.5,710.5 66.5,932.5C 44.1667,932.5 21.8333,932.5 -0.5,932.5C -0.5,710.5 -0.5,488.5 -0.5,266.5 Z"/></g>
<g><path style="opacity:1" fill="#06c68e" d="M 66.5,266.5 C 133.167,266.5 199.833,266.5 266.5,266.5C 288.5,266.5 310.5,266.5 332.5,266.5C 332.5,310.833 332.5,355.167 332.5,399.5C 377.167,399.5 421.833,399.5 466.5,399.5C 466.5,443.833 466.5,488.167 466.5,532.5C 510.833,532.5 555.167,532.5 599.5,532.5C 599.5,576.833 599.5,621.167 599.5,665.5C 643.833,665.5 688.167,665.5 732.5,665.5C 732.5,754.5 732.5,843.5 732.5,932.5C 510.5,932.5 288.5,932.5 66.5,932.5C 66.5,710.5 66.5,488.5 66.5,266.5 Z"/></g>
<g><path style="opacity:1" fill="#fefffe" d="M 332.5,266.5 C 465.833,266.5 599.167,266.5 732.5,266.5C 732.5,399.5 732.5,532.5 732.5,665.5C 688.167,665.5 643.833,665.5 599.5,665.5C 599.5,621.167 599.5,576.833 599.5,532.5C 555.167,532.5 510.833,532.5 466.5,532.5C 466.5,488.167 466.5,443.833 466.5,399.5C 421.833,399.5 377.167,399.5 332.5,399.5C 332.5,355.167 332.5,310.833 332.5,266.5 Z"/></g>
<g><path style="opacity:1" fill="#fefffe" d="M 466.5,532.5 C 466.5,576.833 466.5,621.167 466.5,665.5C 421.833,665.5 377.167,665.5 332.5,665.5C 332.5,621.167 332.5,576.833 332.5,532.5C 377.167,532.5 421.833,532.5 466.5,532.5 Z"/></g>
</svg>
