<?xml version="1.0" encoding="UTF-8"?>
<!DOCTYPE svg PUBLIC "-//W3C//DTD SVG 1.1//EN" "http://www.w3.org/Graphics/SVG/1.1/DTD/svg11.dtd">
<svg xmlns="http://www.w3.org/2000/svg" version="1.1" width="140px" height="120px" style="shape-rendering:geometricPrecision; text-rendering:geometricPrecision; image-rendering:optimizeQuality; fill-rule:evenodd; clip-rule:evenodd" xmlns:xlink="http://www.w3.org/1999/xlink">
<g><path style="opacity:1" fill="#bf2f00" d="M 39.5,-0.5 C 46.1667,-0.5 52.8333,-0.5 59.5,-0.5C 59.5,6.16667 59.5,12.8333 59.5,19.5C 52.8333,19.5 46.1667,19.5 39.5,19.5C 39.5,12.8333 39.5,6.16667 39.5,-0.5 Z"/></g>
<g><path style="opacity:1" fill="#fe3e00" d="M 59.5,-0.5 C 86.1667,-0.5 112.833,-0.5 139.5,-0.5C 139.5,12.8333 139.5,26.1667 139.5,39.5C 132.833,39.5 126.167,39.5 119.5,39.5C 119.5,32.8333 119.5,26.1667 119.5,19.5C 106.167,19.5 92.8333,19.5 79.5,19.5C 79.5,26.1667 79.5,32.8333 79.5,39.5C 66.1667,39.5 52.8333,39.5 39.5,39.5C 39.5,46.1667 39.5,52.8333 39.5,59.5C 32.8333,59.5 26.1667,59.5 19.5,59.5C 19.5,46.1667 19.5,32.8333 19.5,19.5C 26.1667,19.5 32.8333,19.5 39.5,19.5C 46.1667,19.5 52.8333,19.5 59.5,19.5C 59.5,12.8333 59.5,6.16667 59.5,-0.5 Z"/></g>
<g><path style="opacity:1" fill="#bf2f00" d="M -0.5,19.5 C 6.16667,19.5 12.8333,19.5 19.5,19.5C 19.5,32.8333 19.5,46.1667 19.5,59.5C 12.8333,59.5 6.16667,59.5 -0.5,59.5C -0.5,46.1667 -0.5,32.8333 -0.5,19.5 Z"/></g>
<g><path style="opacity:1" fill="#fefffe" d="M 119.5,39.5 C 112.833,39.5 106.167,39.5 99.5,39.5C 99.5,46.1667 99.5,52.8333 99.5,59.5C 106.167,59.5 112.833,59.5 119.5,59.5C 119.5,66.1667 119.5,72.8333 119.5,79.5C 106.167,79.5 92.8333,79.5 79.5,79.5C 79.5,86.1667 79.5,92.8333 79.5,99.5C 66.1667,99.5 52.8333,99.5 39.5,99.5C 39.5,92.8333 39.5,86.1667 39.5,79.5C 46.1667,79.5 52.8333,79.5 59.5,79.5C 59.5,72.8333 59.5,66.1667 59.5,59.5C 52.8333,59.5 46.1667,59.5 39.5,59.5C 39.5,52.8333 39.5,46.1667 39.5,39.5C 52.8333,39.5 66.1667,39.5 79.5,39.5C 79.5,32.8333 79.5,26.1667 79.5,19.5C 92.8333,19.5 106.167,19.5 119.5,19.5C 119.5,26.1667 119.5,32.8333 119.5,39.5 Z"/></g>
<g><path style="opacity:1" fill="#fe3e00" d="M 119.5,39.5 C 119.5,46.1667 119.5,52.8333 119.5,59.5C 112.833,59.5 106.167,59.5 99.5,59.5C 99.5,52.8333 99.5,46.1667 99.5,39.5C 106.167,39.5 112.833,39.5 119.5,39.5 Z"/></g>
<g><path style="opacity:1" fill="#bf2f00" d="M 19.5,59.5 C 26.1667,59.5 32.8333,59.5 39.5,59.5C 39.5,66.1667 39.5,72.8333 39.5,79.5C 32.8333,79.5 26.1667,79.5 19.5,79.5C 19.5,72.8333 19.5,66.1667 19.5,59.5 Z"/></g>
<g><path style="opacity:1" fill="#fe3e00" d="M 39.5,59.5 C 46.1667,59.5 52.8333,59.5 59.5,59.5C 59.5,66.1667 59.5,72.8333 59.5,79.5C 52.8333,79.5 46.1667,79.5 39.5,79.5C 39.5,72.8333 39.5,66.1667 39.5,59.5 Z"/></g>
<g><path style="opacity:1" fill="#fe3e00" d="M 119.5,59.5 C 126.167,59.5 132.833,59.5 139.5,59.5C 139.5,72.8333 139.5,86.1667 139.5,99.5C 126.167,99.5 112.833,99.5 99.5,99.5C 99.5,106.167 99.5,112.833 99.5,119.5C 72.8333,119.5 46.1667,119.5 19.5,119.5C 19.5,106.167 19.5,92.8333 19.5,79.5C 26.1667,79.5 32.8333,79.5 39.5,79.5C 39.5,86.1667 39.5,92.8333 39.5,99.5C 52.8333,99.5 66.1667,99.5 79.5,99.5C 79.5,92.8333 79.5,86.1667 79.5,79.5C 92.8333,79.5 106.167,79.5 119.5,79.5C 119.5,72.8333 119.5,66.1667 119.5,59.5 Z"/></g>
<g><path style="opacity:1" fill="#bf2f00" d="M -0.5,79.5 C 6.16667,79.5 12.8333,79.5 19.5,79.5C 19.5,92.8333 19.5,106.167 19.5,119.5C 12.8333,119.5 6.16667,119.5 -0.5,119.5C -0.5,106.167 -0.5,92.8333 -0.5,79.5 Z"/></g>
</svg>
