<?xml version="1.0" encoding="UTF-8"?>
<!DOCTYPE svg PUBLIC "-//W3C//DTD SVG 1.1//EN" "http://www.w3.org/Graphics/SVG/1.1/DTD/svg11.dtd">
<svg xmlns="http://www.w3.org/2000/svg" version="1.1" width="840px" height="1000px" style="shape-rendering:geometricPrecision; text-rendering:geometricPrecision; image-rendering:optimizeQuality; fill-rule:evenodd; clip-rule:evenodd" xmlns:xlink="http://www.w3.org/1999/xlink">
<g><path style="opacity:1" fill="#93a2a1" d="M 399.5,-0.5 C 412.833,-0.5 426.167,-0.5 439.5,-0.5C 439.5,52.8333 439.5,106.167 439.5,159.5C 426.167,159.5 412.833,159.5 399.5,159.5C 399.5,106.167 399.5,52.8333 399.5,-0.5 Z"/></g>
<g><path style="opacity:1" fill="#c3d6d5" d="M 439.5,-0.5 C 519.5,-0.5 599.5,-0.5 679.5,-0.5C 679.5,79.5 679.5,159.5 679.5,239.5C 666.167,239.5 652.833,239.5 639.5,239.5C 626.167,239.5 612.833,239.5 599.5,239.5C 599.5,212.833 599.5,186.167 599.5,159.5C 599.5,132.833 599.5,106.167 599.5,79.5C 586.167,79.5 572.833,79.5 559.5,79.5C 546.167,79.5 532.833,79.5 519.5,79.5C 519.5,106.167 519.5,132.833 519.5,159.5C 519.5,186.167 519.5,212.833 519.5,239.5C 492.833,239.5 466.167,239.5 439.5,239.5C 439.5,212.833 439.5,186.167 439.5,159.5C 439.5,106.167 439.5,52.8333 439.5,-0.5 Z M 559.5,79.5 C"/></g>
<g><path style="opacity:1" fill="#93a2a1" d="M 559.5,79.5 C 572.833,79.5 586.167,79.5 599.5,79.5C 599.5,106.167 599.5,132.833 599.5,159.5C 586.167,159.5 572.833,159.5 559.5,159.5C 559.5,132.833 559.5,106.167 559.5,79.5 Z"/></g>
<g><path style="opacity:1" fill="#9b8252" d="M 359.5,159.5 C 359.5,332.833 359.5,506.167 359.5,679.5C 346.167,679.5 332.833,679.5 319.5,679.5C 319.5,652.833 319.5,626.167 319.5,599.5C 319.5,492.833 319.5,386.167 319.5,279.5C 319.5,252.833 319.5,226.167 319.5,199.5C 319.5,186.167 319.5,172.833 319.5,159.5C 332.833,159.5 346.167,159.5 359.5,159.5 Z"/></g>
<g><path style="opacity:1" fill="#cdac6c" d="M 359.5,159.5 C 372.833,159.5 386.167,159.5 399.5,159.5C 412.833,159.5 426.167,159.5 439.5,159.5C 439.5,186.167 439.5,212.833 439.5,239.5C 426.167,239.5 412.833,239.5 399.5,239.5C 399.5,266.167 399.5,292.833 399.5,319.5C 452.833,319.5 506.167,319.5 559.5,319.5C 559.5,292.833 559.5,266.167 559.5,239.5C 546.167,239.5 532.833,239.5 519.5,239.5C 519.5,212.833 519.5,186.167 519.5,159.5C 532.833,159.5 546.167,159.5 559.5,159.5C 572.833,159.5 586.167,159.5 599.5,159.5C 599.5,186.167 599.5,212.833 599.5,239.5C 599.5,386.167 599.5,532.833 599.5,679.5C 519.5,679.5 439.5,679.5 359.5,679.5C 359.5,506.167 359.5,332.833 359.5,159.5 Z"/></g>
<g><path style="opacity:1" fill="#1c1a13" d="M -0.5,199.5 C 106.167,199.5 212.833,199.5 319.5,199.5C 319.5,226.167 319.5,252.833 319.5,279.5C 292.833,279.5 266.167,279.5 239.5,279.5C 239.5,386.167 239.5,492.833 239.5,599.5C 266.167,599.5 292.833,599.5 319.5,599.5C 319.5,626.167 319.5,652.833 319.5,679.5C 332.833,679.5 346.167,679.5 359.5,679.5C 359.5,786.167 359.5,892.833 359.5,999.5C 279.5,999.5 199.5,999.5 119.5,999.5C 119.5,892.833 119.5,786.167 119.5,679.5C 79.5,679.5 39.5,679.5 -0.5,679.5C -0.5,519.5 -0.5,359.5 -0.5,199.5 Z"/></g>
<g><path style="opacity:1" fill="#7b623d" d="M 439.5,239.5 C 466.167,239.5 492.833,239.5 519.5,239.5C 532.833,239.5 546.167,239.5 559.5,239.5C 559.5,266.167 559.5,292.833 559.5,319.5C 506.167,319.5 452.833,319.5 399.5,319.5C 399.5,292.833 399.5,266.167 399.5,239.5C 412.833,239.5 426.167,239.5 439.5,239.5 Z"/></g>
<g><path style="opacity:1" fill="#1c1a13" d="M 599.5,239.5 C 612.833,239.5 626.167,239.5 639.5,239.5C 639.5,386.167 639.5,532.833 639.5,679.5C 626.167,679.5 612.833,679.5 599.5,679.5C 599.5,532.833 599.5,386.167 599.5,239.5 Z"/></g>
<g><path style="opacity:1" fill="#855106" d="M 39.5,279.5 C 66.1667,279.5 92.8333,279.5 119.5,279.5C 119.5,386.167 119.5,492.833 119.5,599.5C 92.8333,599.5 66.1667,599.5 39.5,599.5C 39.5,492.833 39.5,386.167 39.5,279.5 Z"/></g>
<g><path style="opacity:1" fill="#683f04" d="M 319.5,279.5 C 319.5,386.167 319.5,492.833 319.5,599.5C 292.833,599.5 266.167,599.5 239.5,599.5C 239.5,492.833 239.5,386.167 239.5,279.5C 266.167,279.5 292.833,279.5 319.5,279.5 Z"/></g>
<g><path style="opacity:1" fill="#7b623d" d="M 479.5,399.5 C 506.167,399.5 532.833,399.5 559.5,399.5C 559.5,479.5 559.5,559.5 559.5,639.5C 506.167,639.5 452.833,639.5 399.5,639.5C 399.5,612.833 399.5,586.167 399.5,559.5C 426.167,559.5 452.833,559.5 479.5,559.5C 479.5,506.167 479.5,452.833 479.5,399.5 Z"/></g>
<g><path style="opacity:1" fill="#443c2e" d="M 359.5,679.5 C 439.5,679.5 519.5,679.5 599.5,679.5C 612.833,679.5 626.167,679.5 639.5,679.5C 706.167,679.5 772.833,679.5 839.5,679.5C 839.5,786.167 839.5,892.833 839.5,999.5C 679.5,999.5 519.5,999.5 359.5,999.5C 359.5,892.833 359.5,786.167 359.5,679.5 Z"/></g>
<g><path style="opacity:1" fill="#855106" d="M 159.5,759.5 C 212.833,759.5 266.167,759.5 319.5,759.5C 319.5,812.833 319.5,866.167 319.5,919.5C 266.167,919.5 212.833,919.5 159.5,919.5C 159.5,866.167 159.5,812.833 159.5,759.5 Z"/></g>
<g><path style="opacity:1" fill="#a66e1e" d="M 439.5,759.5 C 546.167,759.5 652.833,759.5 759.5,759.5C 759.5,812.833 759.5,866.167 759.5,919.5C 652.833,919.5 546.167,919.5 439.5,919.5C 439.5,866.167 439.5,812.833 439.5,759.5 Z"/></g>
</svg>
