<?xml version="1.0" encoding="UTF-8"?>
<!DOCTYPE svg PUBLIC "-//W3C//DTD SVG 1.1//EN" "http://www.w3.org/Graphics/SVG/1.1/DTD/svg11.dtd">
<svg xmlns="http://www.w3.org/2000/svg" version="1.1" width="1000px" height="928px" style="shape-rendering:geometricPrecision; text-rendering:geometricPrecision; image-rendering:optimizeQuality; fill-rule:evenodd; clip-rule:evenodd" xmlns:xlink="http://www.w3.org/1999/xlink">
<g><path style="opacity:1" fill="#3e3eb3" d="M -0.5,-0.5 C 70.8333,-0.5 142.167,-0.5 213.5,-0.5C 213.5,142.167 213.5,284.833 213.5,427.5C 142.167,427.5 70.8333,427.5 -0.5,427.5C -0.5,284.833 -0.5,142.167 -0.5,-0.5 Z"/></g>
<g><path style="opacity:1" fill="#3e3eb3" d="M 285.5,-0.5 C 356.833,-0.5 428.167,-0.5 499.5,-0.5C 499.5,142.167 499.5,284.833 499.5,427.5C 428.167,427.5 356.833,427.5 285.5,427.5C 285.5,284.833 285.5,142.167 285.5,-0.5 Z"/></g>
<g><path style="opacity:1" fill="#5c4de6" d="M 570.5,-0.5 C 713.5,-0.5 856.5,-0.5 999.5,-0.5C 999.5,142.167 999.5,284.833 999.5,427.5C 856.5,427.5 713.5,427.5 570.5,427.5C 570.5,284.833 570.5,142.167 570.5,-0.5 Z"/></g>
<g><path style="opacity:1" fill="#3e3eb3" d="M 499.5,927.5 C 428.167,927.5 356.833,927.5 285.5,927.5C 285.5,784.833 285.5,642.167 285.5,499.5C 356.833,499.5 428.167,499.5 499.5,499.5C 499.5,642.167 499.5,784.833 499.5,927.5 Z"/></g>
</svg>
