<?xml version="1.0" encoding="UTF-8"?>
<!DOCTYPE svg PUBLIC "-//W3C//DTD SVG 1.1//EN" "http://www.w3.org/Graphics/SVG/1.1/DTD/svg11.dtd">
<svg xmlns="http://www.w3.org/2000/svg" version="1.1" width="999px" height="736px" style="shape-rendering:geometricPrecision; text-rendering:geometricPrecision; image-rendering:optimizeQuality; fill-rule:evenodd; clip-rule:evenodd" xmlns:xlink="http://www.w3.org/1999/xlink">
<g><path style="opacity:1" fill="#85311c" d="M -0.5,-0.5 C 17.1667,-0.5 34.8333,-0.5 52.5,-0.5C 52.5,244.833 52.5,490.167 52.5,735.5C 34.8333,735.5 17.1667,735.5 -0.5,735.5C -0.5,490.167 -0.5,244.833 -0.5,-0.5 Z"/></g>
<g><path style="opacity:1" fill="#9b4220" d="M 52.5,-0.5 C 122.5,-0.5 192.5,-0.5 262.5,-0.5C 262.5,34.5 262.5,69.5 262.5,104.5C 244.833,104.5 227.167,104.5 209.5,104.5C 192.167,104.5 174.833,104.5 157.5,104.5C 157.5,279.833 157.5,455.167 157.5,630.5C 192.5,630.5 227.5,630.5 262.5,630.5C 262.5,665.5 262.5,700.5 262.5,735.5C 192.5,735.5 122.5,735.5 52.5,735.5C 52.5,490.167 52.5,244.833 52.5,-0.5 Z"/></g>
<g><path style="opacity:1" fill="#85311c" d="M 735.5,-0.5 C 753.167,-0.5 770.833,-0.5 788.5,-0.5C 788.5,34.5 788.5,69.5 788.5,104.5C 770.833,104.5 753.167,104.5 735.5,104.5C 735.5,69.5 735.5,34.5 735.5,-0.5 Z"/></g>
<g><path style="opacity:1" fill="#9b4220" d="M 788.5,-0.5 C 858.5,-0.5 928.5,-0.5 998.5,-0.5C 998.5,244.833 998.5,490.167 998.5,735.5C 928.5,735.5 858.5,735.5 788.5,735.5C 788.5,700.5 788.5,665.5 788.5,630.5C 805.833,630.5 823.167,630.5 840.5,630.5C 858.167,630.5 875.833,630.5 893.5,630.5C 893.5,455.167 893.5,279.833 893.5,104.5C 875.833,104.5 858.167,104.5 840.5,104.5C 823.167,104.5 805.833,104.5 788.5,104.5C 788.5,69.5 788.5,34.5 788.5,-0.5 Z"/></g>
<g><path style="opacity:1" fill="#696a69" d="M 209.5,104.5 C 227.167,104.5 244.833,104.5 262.5,104.5C 262.5,139.5 262.5,174.5 262.5,209.5C 244.833,209.5 227.167,209.5 209.5,209.5C 209.5,174.5 209.5,139.5 209.5,104.5 Z"/></g>
<g><path style="opacity:1" fill="#8b8c8b" d="M 262.5,104.5 C 420.167,104.5 577.833,104.5 735.5,104.5C 753.167,104.5 770.833,104.5 788.5,104.5C 788.5,139.5 788.5,174.5 788.5,209.5C 718.167,209.5 647.833,209.5 577.5,209.5C 577.5,349.833 577.5,490.167 577.5,630.5C 542.5,630.5 507.5,630.5 472.5,630.5C 472.5,490.167 472.5,349.833 472.5,209.5C 455.167,209.5 437.833,209.5 420.5,209.5C 367.833,209.5 315.167,209.5 262.5,209.5C 262.5,174.5 262.5,139.5 262.5,104.5 Z"/></g>
<g><path style="opacity:1" fill="#85311c" d="M 840.5,104.5 C 858.167,104.5 875.833,104.5 893.5,104.5C 893.5,279.833 893.5,455.167 893.5,630.5C 875.833,630.5 858.167,630.5 840.5,630.5C 840.5,455.167 840.5,279.833 840.5,104.5 Z"/></g>
<g><path style="opacity:1" fill="#696a69" d="M 420.5,209.5 C 437.833,209.5 455.167,209.5 472.5,209.5C 472.5,349.833 472.5,490.167 472.5,630.5C 455.167,630.5 437.833,630.5 420.5,630.5C 420.5,490.167 420.5,349.833 420.5,209.5 Z"/></g>
<g><path style="opacity:1" fill="#85311c" d="M 788.5,630.5 C 788.5,665.5 788.5,700.5 788.5,735.5C 770.833,735.5 753.167,735.5 735.5,735.5C 735.5,700.5 735.5,665.5 735.5,630.5C 753.167,630.5 770.833,630.5 788.5,630.5 Z"/></g>
</svg>
