<?xml version="1.0" encoding="UTF-8"?>
<!DOCTYPE svg PUBLIC "-//W3C//DTD SVG 1.1//EN" "http://www.w3.org/Graphics/SVG/1.1/DTD/svg11.dtd">
<svg xmlns="http://www.w3.org/2000/svg" version="1.1" width="916px" height="1000px" style="shape-rendering:geometricPrecision; text-rendering:geometricPrecision; image-rendering:optimizeQuality; fill-rule:evenodd; clip-rule:evenodd" xmlns:xlink="http://www.w3.org/1999/xlink">
<g><path style="opacity:1" fill="#9a5b39" d="M 166.5,-0.5 C 249.5,-0.5 332.5,-0.5 415.5,-0.5C 415.5,110.5 415.5,221.5 415.5,332.5C 415.5,360.5 415.5,388.5 415.5,416.5C 415.5,444.167 415.5,471.833 415.5,499.5C 415.5,555.167 415.5,610.833 415.5,666.5C 332.5,666.5 249.5,666.5 166.5,666.5C 166.5,596.833 166.5,527.167 166.5,457.5C 166.5,429.833 166.5,402.167 166.5,374.5C 166.5,305.167 166.5,235.833 166.5,166.5C 166.5,110.833 166.5,55.1667 166.5,-0.5 Z"/></g>
<g><path style="opacity:1" fill="#b27b61" d="M 415.5,-0.5 C 582.167,-0.5 748.833,-0.5 915.5,-0.5C 915.5,110.5 915.5,221.5 915.5,332.5C 748.833,332.5 582.167,332.5 415.5,332.5C 415.5,221.5 415.5,110.5 415.5,-0.5 Z"/></g>
<g><path style="opacity:1" fill="#892518" d="M -0.5,166.5 C 55.1667,166.5 110.833,166.5 166.5,166.5C 166.5,235.833 166.5,305.167 166.5,374.5C 152.5,374.5 138.5,374.5 124.5,374.5C 124.5,332.833 124.5,291.167 124.5,249.5C 96.8333,249.5 69.1667,249.5 41.5,249.5C 41.5,291.167 41.5,332.833 41.5,374.5C 27.5,374.5 13.5,374.5 -0.5,374.5C -0.5,305.167 -0.5,235.833 -0.5,166.5 Z"/></g>
<g><path style="opacity:1" fill="#7b120c" d="M 124.5,374.5 C 96.8333,374.5 69.1667,374.5 41.5,374.5C 41.5,332.833 41.5,291.167 41.5,249.5C 69.1667,249.5 96.8333,249.5 124.5,249.5C 124.5,291.167 124.5,332.833 124.5,374.5 Z"/></g>
<g><path style="opacity:1" fill="#472817" d="M 415.5,332.5 C 582.167,332.5 748.833,332.5 915.5,332.5C 915.5,360.5 915.5,388.5 915.5,416.5C 887.833,416.5 860.167,416.5 832.5,416.5C 804.5,416.5 776.5,416.5 748.5,416.5C 693.167,416.5 637.833,416.5 582.5,416.5C 554.833,416.5 527.167,416.5 499.5,416.5C 471.5,416.5 443.5,416.5 415.5,416.5C 415.5,388.5 415.5,360.5 415.5,332.5 Z"/></g>
<g><path style="opacity:1" fill="#a3962c" d="M -0.5,374.5 C 13.5,374.5 27.5,374.5 41.5,374.5C 69.1667,374.5 96.8333,374.5 124.5,374.5C 138.5,374.5 152.5,374.5 166.5,374.5C 166.5,402.167 166.5,429.833 166.5,457.5C 152.5,457.5 138.5,457.5 124.5,457.5C 96.8333,457.5 69.1667,457.5 41.5,457.5C 27.5,457.5 13.5,457.5 -0.5,457.5C -0.5,429.833 -0.5,402.167 -0.5,374.5 Z"/></g>
<g><path style="opacity:1" fill="#fefffe" d="M 415.5,416.5 C 443.5,416.5 471.5,416.5 499.5,416.5C 499.5,444.167 499.5,471.833 499.5,499.5C 471.5,499.5 443.5,499.5 415.5,499.5C 415.5,471.833 415.5,444.167 415.5,416.5 Z"/></g>
<g><path style="opacity:1" fill="#009610" d="M 499.5,416.5 C 527.167,416.5 554.833,416.5 582.5,416.5C 582.5,444.167 582.5,471.833 582.5,499.5C 554.833,499.5 527.167,499.5 499.5,499.5C 499.5,471.833 499.5,444.167 499.5,416.5 Z"/></g>
<g><path style="opacity:1" fill="#b27b61" d="M 582.5,416.5 C 637.833,416.5 693.167,416.5 748.5,416.5C 748.5,444.167 748.5,471.833 748.5,499.5C 720.833,499.5 693.167,499.5 665.5,499.5C 637.833,499.5 610.167,499.5 582.5,499.5C 582.5,471.833 582.5,444.167 582.5,416.5 Z"/></g>
<g><path style="opacity:1" fill="#009610" d="M 748.5,416.5 C 776.5,416.5 804.5,416.5 832.5,416.5C 832.5,444.167 832.5,471.833 832.5,499.5C 804.5,499.5 776.5,499.5 748.5,499.5C 748.5,471.833 748.5,444.167 748.5,416.5 Z"/></g>
<g><path style="opacity:1" fill="#fefffe" d="M 832.5,416.5 C 860.167,416.5 887.833,416.5 915.5,416.5C 915.5,444.167 915.5,471.833 915.5,499.5C 887.833,499.5 860.167,499.5 832.5,499.5C 832.5,471.833 832.5,444.167 832.5,416.5 Z"/></g>
<g><path style="opacity:1" fill="#892518" d="M -0.5,457.5 C 13.5,457.5 27.5,457.5 41.5,457.5C 41.5,499.167 41.5,540.833 41.5,582.5C 69.1667,582.5 96.8333,582.5 124.5,582.5C 124.5,540.833 124.5,499.167 124.5,457.5C 138.5,457.5 152.5,457.5 166.5,457.5C 166.5,527.167 166.5,596.833 166.5,666.5C 110.833,666.5 55.1667,666.5 -0.5,666.5C -0.5,596.833 -0.5,527.167 -0.5,457.5 Z"/></g>
<g><path style="opacity:1" fill="#7b120c" d="M 41.5,457.5 C 69.1667,457.5 96.8333,457.5 124.5,457.5C 124.5,499.167 124.5,540.833 124.5,582.5C 96.8333,582.5 69.1667,582.5 41.5,582.5C 41.5,540.833 41.5,499.167 41.5,457.5 Z"/></g>
<g><path style="opacity:1" fill="#b27b61" d="M 415.5,499.5 C 443.5,499.5 471.5,499.5 499.5,499.5C 527.167,499.5 554.833,499.5 582.5,499.5C 582.5,527.167 582.5,554.833 582.5,582.5C 554.833,582.5 527.167,582.5 499.5,582.5C 499.5,610.5 499.5,638.5 499.5,666.5C 471.5,666.5 443.5,666.5 415.5,666.5C 415.5,610.833 415.5,555.167 415.5,499.5 Z"/></g>
<g><path style="opacity:1" fill="#743d1e" d="M 582.5,499.5 C 610.167,499.5 637.833,499.5 665.5,499.5C 665.5,610.5 665.5,721.5 665.5,832.5C 637.833,832.5 610.167,832.5 582.5,832.5C 582.5,804.833 582.5,777.167 582.5,749.5C 582.5,721.833 582.5,694.167 582.5,666.5C 582.5,638.5 582.5,610.5 582.5,582.5C 582.5,554.833 582.5,527.167 582.5,499.5 Z"/></g>
<g><path style="opacity:1" fill="#885132" d="M 665.5,499.5 C 693.167,499.5 720.833,499.5 748.5,499.5C 776.5,499.5 804.5,499.5 832.5,499.5C 832.5,555.167 832.5,610.833 832.5,666.5C 832.5,721.833 832.5,777.167 832.5,832.5C 776.833,832.5 721.167,832.5 665.5,832.5C 665.5,721.5 665.5,610.5 665.5,499.5 Z"/></g>
<g><path style="opacity:1" fill="#b27b61" d="M 832.5,499.5 C 860.167,499.5 887.833,499.5 915.5,499.5C 915.5,555.167 915.5,610.833 915.5,666.5C 887.833,666.5 860.167,666.5 832.5,666.5C 832.5,610.833 832.5,555.167 832.5,499.5 Z"/></g>
<g><path style="opacity:1" fill="#92431f" d="M 582.5,582.5 C 582.5,610.5 582.5,638.5 582.5,666.5C 554.833,666.5 527.167,666.5 499.5,666.5C 499.5,638.5 499.5,610.5 499.5,582.5C 527.167,582.5 554.833,582.5 582.5,582.5 Z"/></g>
<g><path style="opacity:1" fill="#892518" d="M 166.5,666.5 C 249.5,666.5 332.5,666.5 415.5,666.5C 415.5,749.833 415.5,833.167 415.5,916.5C 401.833,916.5 388.167,916.5 374.5,916.5C 374.5,860.833 374.5,805.167 374.5,749.5C 318.833,749.5 263.167,749.5 207.5,749.5C 207.5,805.167 207.5,860.833 207.5,916.5C 193.833,916.5 180.167,916.5 166.5,916.5C 166.5,833.167 166.5,749.833 166.5,666.5 Z"/></g>
<g><path style="opacity:1" fill="#b53020" d="M 415.5,666.5 C 443.5,666.5 471.5,666.5 499.5,666.5C 527.167,666.5 554.833,666.5 582.5,666.5C 582.5,694.167 582.5,721.833 582.5,749.5C 554.833,749.5 527.167,749.5 499.5,749.5C 499.5,805.167 499.5,860.833 499.5,916.5C 471.5,916.5 443.5,916.5 415.5,916.5C 415.5,833.167 415.5,749.833 415.5,666.5 Z"/></g>
<g><path style="opacity:1" fill="#b53020" d="M 832.5,666.5 C 860.167,666.5 887.833,666.5 915.5,666.5C 915.5,749.833 915.5,833.167 915.5,916.5C 887.833,916.5 860.167,916.5 832.5,916.5C 832.5,888.5 832.5,860.5 832.5,832.5C 832.5,777.167 832.5,721.833 832.5,666.5 Z"/></g>
<g><path style="opacity:1" fill="#7b120c" d="M 374.5,916.5 C 318.833,916.5 263.167,916.5 207.5,916.5C 207.5,860.833 207.5,805.167 207.5,749.5C 263.167,749.5 318.833,749.5 374.5,749.5C 374.5,805.167 374.5,860.833 374.5,916.5 Z"/></g>
<g><path style="opacity:1" fill="#a31710" d="M 582.5,749.5 C 582.5,777.167 582.5,804.833 582.5,832.5C 610.167,832.5 637.833,832.5 665.5,832.5C 721.167,832.5 776.833,832.5 832.5,832.5C 832.5,860.5 832.5,888.5 832.5,916.5C 721.5,916.5 610.5,916.5 499.5,916.5C 499.5,860.833 499.5,805.167 499.5,749.5C 527.167,749.5 554.833,749.5 582.5,749.5 Z"/></g>
<g><path style="opacity:1" fill="#390300" d="M 166.5,916.5 C 180.167,916.5 193.833,916.5 207.5,916.5C 263.167,916.5 318.833,916.5 374.5,916.5C 388.167,916.5 401.833,916.5 415.5,916.5C 415.5,944.167 415.5,971.833 415.5,999.5C 332.5,999.5 249.5,999.5 166.5,999.5C 166.5,971.833 166.5,944.167 166.5,916.5 Z"/></g>
<g><path style="opacity:1" fill="#4b0300" d="M 415.5,916.5 C 443.5,916.5 471.5,916.5 499.5,916.5C 610.5,916.5 721.5,916.5 832.5,916.5C 860.167,916.5 887.833,916.5 915.5,916.5C 915.5,944.167 915.5,971.833 915.5,999.5C 748.833,999.5 582.167,999.5 415.5,999.5C 415.5,971.833 415.5,944.167 415.5,916.5 Z"/></g>
</svg>
