<?xml version="1.0" encoding="UTF-8"?>
<!DOCTYPE svg PUBLIC "-//W3C//DTD SVG 1.1//EN" "http://www.w3.org/Graphics/SVG/1.1/DTD/svg11.dtd">
<svg xmlns="http://www.w3.org/2000/svg" version="1.1" width="1000px" height="1090px" style="shape-rendering:geometricPrecision; text-rendering:geometricPrecision; image-rendering:optimizeQuality; fill-rule:evenodd; clip-rule:evenodd" xmlns:xlink="http://www.w3.org/1999/xlink">
<g><path style="opacity:1" fill="#9a5b39" d="M 180.5,-0.5 C 271.5,-0.5 362.5,-0.5 453.5,-0.5C 453.5,120.833 453.5,242.167 453.5,363.5C 453.5,393.5 453.5,423.5 453.5,453.5C 453.5,483.833 453.5,514.167 453.5,544.5C 453.5,604.833 453.5,665.167 453.5,725.5C 362.5,725.5 271.5,725.5 180.5,725.5C 180.5,544.167 180.5,362.833 180.5,181.5C 180.5,120.833 180.5,60.1667 180.5,-0.5 Z"/></g>
<g><path style="opacity:1" fill="#b27b61" d="M 453.5,-0.5 C 635.167,-0.5 816.833,-0.5 998.5,-0.5C 998.5,120.833 998.5,242.167 998.5,363.5C 816.833,363.5 635.167,363.5 453.5,363.5C 453.5,242.167 453.5,120.833 453.5,-0.5 Z"/></g>
<g><path style="opacity:1" fill="#1c1a13" d="M -0.5,181.5 C 59.8333,181.5 120.167,181.5 180.5,181.5C 180.5,362.833 180.5,544.167 180.5,725.5C 120.167,725.5 59.8333,725.5 -0.5,725.5C -0.5,544.167 -0.5,362.833 -0.5,181.5 Z"/></g>
<g><path style="opacity:1" fill="#855106" d="M 45.5,272.5 C 75.8333,272.5 106.167,272.5 136.5,272.5C 136.5,393.5 136.5,514.5 136.5,635.5C 106.167,635.5 75.8333,635.5 45.5,635.5C 45.5,514.5 45.5,393.5 45.5,272.5 Z"/></g>
<g><path style="opacity:1" fill="#472817" d="M 453.5,363.5 C 635.167,363.5 816.833,363.5 998.5,363.5C 998.5,393.5 998.5,423.5 998.5,453.5C 968.5,453.5 938.5,453.5 908.5,453.5C 878.167,453.5 847.833,453.5 817.5,453.5C 756.833,453.5 696.167,453.5 635.5,453.5C 605.167,453.5 574.833,453.5 544.5,453.5C 514.167,453.5 483.833,453.5 453.5,453.5C 453.5,423.5 453.5,393.5 453.5,363.5 Z"/></g>
<g><path style="opacity:1" fill="#fefffe" d="M 453.5,453.5 C 483.833,453.5 514.167,453.5 544.5,453.5C 544.5,483.833 544.5,514.167 544.5,544.5C 514.167,544.5 483.833,544.5 453.5,544.5C 453.5,514.167 453.5,483.833 453.5,453.5 Z"/></g>
<g><path style="opacity:1" fill="#009610" d="M 544.5,453.5 C 574.833,453.5 605.167,453.5 635.5,453.5C 635.5,483.833 635.5,514.167 635.5,544.5C 605.167,544.5 574.833,544.5 544.5,544.5C 544.5,514.167 544.5,483.833 544.5,453.5 Z"/></g>
<g><path style="opacity:1" fill="#b27b61" d="M 635.5,453.5 C 696.167,453.5 756.833,453.5 817.5,453.5C 817.5,483.833 817.5,514.167 817.5,544.5C 787.167,544.5 756.833,544.5 726.5,544.5C 696.167,544.5 665.833,544.5 635.5,544.5C 635.5,514.167 635.5,483.833 635.5,453.5 Z"/></g>
<g><path style="opacity:1" fill="#009610" d="M 817.5,453.5 C 847.833,453.5 878.167,453.5 908.5,453.5C 908.5,483.833 908.5,514.167 908.5,544.5C 908.167,544.5 907.833,544.5 907.5,544.5C 877.5,544.5 847.5,544.5 817.5,544.5C 817.5,514.167 817.5,483.833 817.5,453.5 Z"/></g>
<g><path style="opacity:1" fill="#fefffe" d="M 908.5,453.5 C 938.5,453.5 968.5,453.5 998.5,453.5C 998.5,483.833 998.5,514.167 998.5,544.5C 968.5,544.5 938.5,544.5 908.5,544.5C 908.5,514.167 908.5,483.833 908.5,453.5 Z"/></g>
<g><path style="opacity:1" fill="#b27b61" d="M 453.5,544.5 C 483.833,544.5 514.167,544.5 544.5,544.5C 574.833,544.5 605.167,544.5 635.5,544.5C 635.5,574.833 635.5,605.167 635.5,635.5C 605.167,635.5 574.833,635.5 544.5,635.5C 544.5,665.5 544.5,695.5 544.5,725.5C 514.167,725.5 483.833,725.5 453.5,725.5C 453.5,665.167 453.5,604.833 453.5,544.5 Z"/></g>
<g><path style="opacity:1" fill="#743d1e" d="M 635.5,544.5 C 665.833,544.5 696.167,544.5 726.5,544.5C 726.5,665.5 726.5,786.5 726.5,907.5C 696.167,907.5 665.833,907.5 635.5,907.5C 635.5,877.167 635.5,846.833 635.5,816.5C 635.5,786.167 635.5,755.833 635.5,725.5C 635.5,695.5 635.5,665.5 635.5,635.5C 635.5,605.167 635.5,574.833 635.5,544.5 Z"/></g>
<g><path style="opacity:1" fill="#885132" d="M 726.5,544.5 C 756.833,544.5 787.167,544.5 817.5,544.5C 847.5,544.5 877.5,544.5 907.5,544.5C 907.5,604.833 907.5,665.167 907.5,725.5C 907.5,755.833 907.5,786.167 907.5,816.5C 907.5,846.833 907.5,877.167 907.5,907.5C 847.167,907.5 786.833,907.5 726.5,907.5C 726.5,786.5 726.5,665.5 726.5,544.5 Z"/></g>
<g><path style="opacity:1" fill="#b27b61" d="M 907.5,544.5 C 907.833,544.5 908.167,544.5 908.5,544.5C 938.5,544.5 968.5,544.5 998.5,544.5C 998.5,604.833 998.5,665.167 998.5,725.5C 968.167,725.5 937.833,725.5 907.5,725.5C 907.5,665.167 907.5,604.833 907.5,544.5 Z"/></g>
<g><path style="opacity:1" fill="#92431f" d="M 635.5,635.5 C 635.5,665.5 635.5,695.5 635.5,725.5C 605.167,725.5 574.833,725.5 544.5,725.5C 544.5,695.5 544.5,665.5 544.5,635.5C 574.833,635.5 605.167,635.5 635.5,635.5 Z"/></g>
<g><path style="opacity:1" fill="#1c1a13" d="M 180.5,725.5 C 271.5,725.5 362.5,725.5 453.5,725.5C 453.5,846.5 453.5,967.5 453.5,1088.5C 362.5,1088.5 271.5,1088.5 180.5,1088.5C 180.5,967.5 180.5,846.5 180.5,725.5 Z"/></g>
<g><path style="opacity:1" fill="#443c2e" d="M 453.5,725.5 C 483.833,725.5 514.167,725.5 544.5,725.5C 574.833,725.5 605.167,725.5 635.5,725.5C 635.5,755.833 635.5,786.167 635.5,816.5C 605.167,816.5 574.833,816.5 544.5,816.5C 544.5,877.167 544.5,937.833 544.5,998.5C 665.833,998.5 787.167,998.5 908.5,998.5C 908.832,937.664 908.499,876.998 907.5,816.5C 907.5,786.167 907.5,755.833 907.5,725.5C 937.833,725.5 968.167,725.5 998.5,725.5C 998.5,846.5 998.5,967.5 998.5,1088.5C 816.833,1088.5 635.167,1088.5 453.5,1088.5C 453.5,967.5 453.5,846.5 453.5,725.5 Z"/></g>
<g><path style="opacity:1" fill="#855106" d="M 226.5,816.5 C 287.167,816.5 347.833,816.5 408.5,816.5C 408.5,877.167 408.5,937.833 408.5,998.5C 347.833,998.5 287.167,998.5 226.5,998.5C 226.5,937.833 226.5,877.167 226.5,816.5 Z"/></g>
<g><path style="opacity:1" fill="#a66e1e" d="M 635.5,816.5 C 635.5,846.833 635.5,877.167 635.5,907.5C 665.833,907.5 696.167,907.5 726.5,907.5C 786.833,907.5 847.167,907.5 907.5,907.5C 907.5,877.167 907.5,846.833 907.5,816.5C 908.499,876.998 908.832,937.664 908.5,998.5C 787.167,998.5 665.833,998.5 544.5,998.5C 544.5,937.833 544.5,877.167 544.5,816.5C 574.833,816.5 605.167,816.5 635.5,816.5 Z"/></g>
</svg>
