<?xml version="1.0" encoding="UTF-8"?>
<!DOCTYPE svg PUBLIC "-//W3C//DTD SVG 1.1//EN" "http://www.w3.org/Graphics/SVG/1.1/DTD/svg11.dtd">
<svg xmlns="http://www.w3.org/2000/svg" version="1.1" width="1000px" height="954px" style="shape-rendering:geometricPrecision; text-rendering:geometricPrecision; image-rendering:optimizeQuality; fill-rule:evenodd; clip-rule:evenodd" xmlns:xlink="http://www.w3.org/1999/xlink">
<g><path style="opacity:1" fill="#757675" d="M 499.5,0.5 C 499.5,30.8333 499.5,61.1667 499.5,91.5C 484.5,91.5 469.5,91.5 454.5,91.5C 439.5,91.5 424.5,91.5 409.5,91.5C 394.167,91.5 378.833,91.5 363.5,91.5C 363.5,76.1667 363.5,60.8333 363.5,45.5C 363.5,30.5 363.5,15.5 363.5,0.5C 408.833,0.5 454.167,0.5 499.5,0.5 Z"/></g>
<g><path style="opacity:1" fill="#a4a5a4" d="M 499.5,0.5 C 529.833,0.5 560.167,0.5 590.5,0.5C 590.5,15.5 590.5,30.5 590.5,45.5C 590.5,60.8333 590.5,76.1667 590.5,91.5C 575.5,91.5 560.5,91.5 545.5,91.5C 530.167,91.5 514.833,91.5 499.5,91.5C 499.5,61.1667 499.5,30.8333 499.5,0.5 Z"/></g>
<g><path style="opacity:1" fill="#1c1a13" d="M 363.5,45.5 C 363.5,60.8333 363.5,76.1667 363.5,91.5C 348.5,91.5 333.5,91.5 318.5,91.5C 303.167,91.5 287.833,91.5 272.5,91.5C 227.167,91.5 181.833,91.5 136.5,91.5C 136.5,106.5 136.5,121.5 136.5,136.5C 106.167,136.5 75.8333,136.5 45.5,136.5C 45.5,257.5 45.5,378.5 45.5,499.5C 75.8333,499.5 106.167,499.5 136.5,499.5C 136.5,423.833 136.5,348.167 136.5,272.5C 181.833,272.5 227.167,272.5 272.5,272.5C 272.5,348.167 272.5,423.833 272.5,499.5C 287.833,499.5 303.167,499.5 318.5,499.5C 318.5,514.833 318.5,530.167 318.5,545.5C 363.833,545.5 409.167,545.5 454.5,545.5C 454.5,560.5 454.5,575.5 454.5,590.5C 454.5,711.5 454.5,832.5 454.5,953.5C 363.5,953.5 272.5,953.5 181.5,953.5C 181.5,832.5 181.5,711.5 181.5,590.5C 121.167,590.5 60.8333,590.5 0.5,590.5C 0.5,408.833 0.5,227.167 0.5,45.5C 121.5,45.5 242.5,45.5 363.5,45.5 Z"/></g>
<g><path style="opacity:1" fill="#1c1a13" d="M 590.5,45.5 C 636.167,45.5 681.833,45.5 727.5,45.5C 727.5,60.8333 727.5,76.1667 727.5,91.5C 697.167,91.5 666.833,91.5 636.5,91.5C 636.5,106.5 636.5,121.5 636.5,136.5C 606.167,136.5 575.833,136.5 545.5,136.5C 545.5,121.5 545.5,106.5 545.5,91.5C 560.5,91.5 575.5,91.5 590.5,91.5C 590.5,76.1667 590.5,60.8333 590.5,45.5 Z"/></g>
<g><path style="opacity:1" fill="#2dc4b1" d="M 272.5,91.5 C 272.5,121.833 272.5,152.167 272.5,182.5C 227.167,182.5 181.833,182.5 136.5,182.5C 136.5,167.167 136.5,151.833 136.5,136.5C 136.5,121.5 136.5,106.5 136.5,91.5C 181.833,91.5 227.167,91.5 272.5,91.5 Z"/></g>
<g><path style="opacity:1" fill="#6bf3e2" d="M 272.5,91.5 C 287.833,91.5 303.167,91.5 318.5,91.5C 318.5,121.833 318.5,152.167 318.5,182.5C 303.167,182.5 287.833,182.5 272.5,182.5C 272.5,152.167 272.5,121.833 272.5,91.5 Z"/></g>
<g><path style="opacity:1" fill="#fe2120" d="M 318.5,91.5 C 333.5,91.5 348.5,91.5 363.5,91.5C 378.833,91.5 394.167,91.5 409.5,91.5C 409.5,121.833 409.5,152.167 409.5,182.5C 379.167,182.5 348.833,182.5 318.5,182.5C 318.5,152.167 318.5,121.833 318.5,91.5 Z"/></g>
<g><path style="opacity:1" fill="#2dc4b1" d="M 409.5,91.5 C 424.5,91.5 439.5,91.5 454.5,91.5C 454.5,121.833 454.5,152.167 454.5,182.5C 439.5,182.5 424.5,182.5 409.5,182.5C 409.5,152.167 409.5,121.833 409.5,91.5 Z"/></g>
<g><path style="opacity:1" fill="#6bf3e2" d="M 454.5,91.5 C 469.5,91.5 484.5,91.5 499.5,91.5C 514.833,91.5 530.167,91.5 545.5,91.5C 545.5,106.5 545.5,121.5 545.5,136.5C 545.5,151.833 545.5,167.167 545.5,182.5C 515.167,182.5 484.833,182.5 454.5,182.5C 454.5,152.167 454.5,121.833 454.5,91.5 Z"/></g>
<g><path style="opacity:1" fill="#2dc4b1" d="M 727.5,91.5 C 727.5,121.833 727.5,152.167 727.5,182.5C 697.167,182.5 666.833,182.5 636.5,182.5C 636.5,167.167 636.5,151.833 636.5,136.5C 636.5,121.5 636.5,106.5 636.5,91.5C 666.833,91.5 697.167,91.5 727.5,91.5 Z"/></g>
<g><path style="opacity:1" fill="#6bf3e2" d="M 727.5,91.5 C 757.833,91.5 788.167,91.5 818.5,91.5C 818.5,121.833 818.5,152.167 818.5,182.5C 788.167,182.5 757.833,182.5 727.5,182.5C 727.5,152.167 727.5,121.833 727.5,91.5 Z"/></g>
<g><path style="opacity:1" fill="#2dc4b1" d="M 818.5,91.5 C 833.5,91.5 848.5,91.5 863.5,91.5C 863.5,121.833 863.5,152.167 863.5,182.5C 848.5,182.5 833.5,182.5 818.5,182.5C 818.5,152.167 818.5,121.833 818.5,91.5 Z"/></g>
<g><path style="opacity:1" fill="#fe2120" d="M 863.5,91.5 C 893.833,91.5 924.167,91.5 954.5,91.5C 954.5,121.833 954.5,152.167 954.5,182.5C 924.167,182.5 893.833,182.5 863.5,182.5C 863.5,152.167 863.5,121.833 863.5,91.5 Z"/></g>
<g><path style="opacity:1" fill="#6bf3e2" d="M 954.5,91.5 C 969.5,91.5 984.5,91.5 999.5,91.5C 999.5,121.833 999.5,152.167 999.5,182.5C 984.5,182.5 969.5,182.5 954.5,182.5C 954.5,152.167 954.5,121.833 954.5,91.5 Z"/></g>
<g><path style="opacity:1" fill="#855106" d="M 136.5,136.5 C 136.5,151.833 136.5,167.167 136.5,182.5C 136.5,212.5 136.5,242.5 136.5,272.5C 136.5,348.167 136.5,423.833 136.5,499.5C 106.167,499.5 75.8333,499.5 45.5,499.5C 45.5,378.5 45.5,257.5 45.5,136.5C 75.8333,136.5 106.167,136.5 136.5,136.5 Z"/></g>
<g><path style="opacity:1" fill="#683f04" d="M 545.5,136.5 C 575.833,136.5 606.167,136.5 636.5,136.5C 636.5,151.833 636.5,167.167 636.5,182.5C 606.167,182.5 575.833,182.5 545.5,182.5C 545.5,167.167 545.5,151.833 545.5,136.5 Z"/></g>
<g><path style="opacity:1" fill="#9d0b0a" d="M 136.5,182.5 C 181.833,182.5 227.167,182.5 272.5,182.5C 272.5,212.5 272.5,242.5 272.5,272.5C 227.167,272.5 181.833,272.5 136.5,272.5C 136.5,242.5 136.5,212.5 136.5,182.5 Z"/></g>
<g><path style="opacity:1" fill="#d00e0d" d="M 272.5,182.5 C 287.833,182.5 303.167,182.5 318.5,182.5C 348.833,182.5 379.167,182.5 409.5,182.5C 409.5,212.5 409.5,242.5 409.5,272.5C 379.167,272.5 348.833,272.5 318.5,272.5C 303.167,272.5 287.833,272.5 272.5,272.5C 272.5,242.5 272.5,212.5 272.5,182.5 Z"/></g>
<g><path style="opacity:1" fill="#9d0b0a" d="M 409.5,182.5 C 424.5,182.5 439.5,182.5 454.5,182.5C 454.5,273.167 454.5,363.833 454.5,454.5C 439.5,454.5 424.5,454.5 409.5,454.5C 409.5,393.833 409.5,333.167 409.5,272.5C 409.5,242.5 409.5,212.5 409.5,182.5 Z"/></g>
<g><path style="opacity:1" fill="#d00e0d" d="M 454.5,182.5 C 484.833,182.5 515.167,182.5 545.5,182.5C 545.5,242.833 545.5,303.167 545.5,363.5C 545.5,393.833 545.5,424.167 545.5,454.5C 515.167,454.5 484.833,454.5 454.5,454.5C 454.5,363.833 454.5,273.167 454.5,182.5 Z"/></g>
<g><path style="opacity:1" fill="#6bf3e2" d="M 545.5,182.5 C 575.833,182.5 606.167,182.5 636.5,182.5C 666.833,182.5 697.167,182.5 727.5,182.5C 727.5,242.833 727.5,303.167 727.5,363.5C 666.833,363.5 606.167,363.5 545.5,363.5C 545.5,303.167 545.5,242.833 545.5,182.5 Z"/></g>
<g><path style="opacity:1" fill="#d00e0d" d="M 727.5,182.5 C 757.833,182.5 788.167,182.5 818.5,182.5C 818.5,212.5 818.5,242.5 818.5,272.5C 818.5,333.167 818.5,393.833 818.5,454.5C 788.167,454.5 757.833,454.5 727.5,454.5C 727.5,424.167 727.5,393.833 727.5,363.5C 727.5,303.167 727.5,242.833 727.5,182.5 Z"/></g>
<g><path style="opacity:1" fill="#9d0b0a" d="M 818.5,182.5 C 833.5,182.5 848.5,182.5 863.5,182.5C 863.5,212.5 863.5,242.5 863.5,272.5C 848.5,272.5 833.5,272.5 818.5,272.5C 818.5,242.5 818.5,212.5 818.5,182.5 Z"/></g>
<g><path style="opacity:1" fill="#d00e0d" d="M 863.5,182.5 C 893.833,182.5 924.167,182.5 954.5,182.5C 969.5,182.5 984.5,182.5 999.5,182.5C 999.5,212.5 999.5,242.5 999.5,272.5C 954.167,272.5 908.833,272.5 863.5,272.5C 863.5,242.5 863.5,212.5 863.5,182.5 Z"/></g>
<g><path style="opacity:1" fill="#683f04" d="M 272.5,272.5 C 287.833,272.5 303.167,272.5 318.5,272.5C 318.5,348.167 318.5,423.833 318.5,499.5C 303.167,499.5 287.833,499.5 272.5,499.5C 272.5,423.833 272.5,348.167 272.5,272.5 Z"/></g>
<g><path style="opacity:1" fill="#2dc4b1" d="M 318.5,272.5 C 348.833,272.5 379.167,272.5 409.5,272.5C 409.5,333.167 409.5,393.833 409.5,454.5C 424.5,454.5 439.5,454.5 454.5,454.5C 454.5,484.833 454.5,515.167 454.5,545.5C 409.167,545.5 363.833,545.5 318.5,545.5C 318.5,530.167 318.5,514.833 318.5,499.5C 318.5,423.833 318.5,348.167 318.5,272.5 Z"/></g>
<g><path style="opacity:1" fill="#fe2120" d="M 545.5,363.5 C 606.167,363.5 666.833,363.5 727.5,363.5C 727.5,393.833 727.5,424.167 727.5,454.5C 666.833,454.5 606.167,454.5 545.5,454.5C 545.5,424.167 545.5,393.833 545.5,363.5 Z"/></g>
<g><path style="opacity:1" fill="#6bf3e2" d="M 454.5,454.5 C 484.833,454.5 515.167,454.5 545.5,454.5C 545.5,484.833 545.5,515.167 545.5,545.5C 515.167,545.5 484.833,545.5 454.5,545.5C 454.5,515.167 454.5,484.833 454.5,454.5 Z"/></g>
<g><path style="opacity:1" fill="#d00e0d" d="M 545.5,454.5 C 606.167,454.5 666.833,454.5 727.5,454.5C 727.5,484.833 727.5,515.167 727.5,545.5C 666.833,545.5 606.167,545.5 545.5,545.5C 545.5,515.167 545.5,484.833 545.5,454.5 Z"/></g>
<g><path style="opacity:1" fill="#6bf3e2" d="M 727.5,454.5 C 757.833,454.5 788.167,454.5 818.5,454.5C 818.5,484.833 818.5,515.167 818.5,545.5C 788.167,545.5 757.833,545.5 727.5,545.5C 727.5,515.167 727.5,484.833 727.5,454.5 Z"/></g>
<g><path style="opacity:1" fill="#2dc4b1" d="M 454.5,545.5 C 484.833,545.5 515.167,545.5 545.5,545.5C 545.5,560.5 545.5,575.5 545.5,590.5C 515.167,590.5 484.833,590.5 454.5,590.5C 454.5,575.5 454.5,560.5 454.5,545.5 Z"/></g>
<g><path style="opacity:1" fill="#6bf3e2" d="M 545.5,545.5 C 606.167,545.5 666.833,545.5 727.5,545.5C 727.5,560.5 727.5,575.5 727.5,590.5C 666.833,590.5 606.167,590.5 545.5,590.5C 545.5,575.5 545.5,560.5 545.5,545.5 Z"/></g>
<g><path style="opacity:1" fill="#443c2e" d="M 454.5,590.5 C 484.833,590.5 515.167,590.5 545.5,590.5C 606.167,590.5 666.833,590.5 727.5,590.5C 818.167,590.5 908.833,590.5 999.5,590.5C 999.5,711.5 999.5,832.5 999.5,953.5C 817.833,953.5 636.167,953.5 454.5,953.5C 454.5,832.5 454.5,711.5 454.5,590.5 Z"/></g>
<g><path style="opacity:1" fill="#855106" d="M 227.5,681.5 C 288.167,681.5 348.833,681.5 409.5,681.5C 409.5,742.167 409.5,802.833 409.5,863.5C 348.833,863.5 288.167,863.5 227.5,863.5C 227.5,802.833 227.5,742.167 227.5,681.5 Z"/></g>
<g><path style="opacity:1" fill="#a66e1e" d="M 545.5,681.5 C 666.5,681.5 787.5,681.5 908.5,681.5C 908.5,742.167 908.5,802.833 908.5,863.5C 787.5,863.5 666.5,863.5 545.5,863.5C 545.5,802.833 545.5,742.167 545.5,681.5 Z"/></g>
</svg>
