<?xml version="1.0" encoding="UTF-8"?>
<!DOCTYPE svg PUBLIC "-//W3C//DTD SVG 1.1//EN" "http://www.w3.org/Graphics/SVG/1.1/DTD/svg11.dtd">
<svg xmlns="http://www.w3.org/2000/svg" version="1.1" width="1000px" height="667px" style="shape-rendering:geometricPrecision; text-rendering:geometricPrecision; image-rendering:optimizeQuality; fill-rule:evenodd; clip-rule:evenodd" xmlns:xlink="http://www.w3.org/1999/xlink">
<g><path style="opacity:1" fill="#2dc4b1" d="M -0.5,-0.5 C 36.8333,-0.5 74.1667,-0.5 111.5,-0.5C 111.5,36.8333 111.5,74.1667 111.5,111.5C 74.1667,111.5 36.8333,111.5 -0.5,111.5C -0.5,74.1667 -0.5,36.8333 -0.5,-0.5 Z"/></g>
<g><path style="opacity:1" fill="#6bf3e2" d="M 111.5,-0.5 C 148.5,-0.5 185.5,-0.5 222.5,-0.5C 222.5,36.8333 222.5,74.1667 222.5,111.5C 185.5,111.5 148.5,111.5 111.5,111.5C 111.5,74.1667 111.5,36.8333 111.5,-0.5 Z"/></g>
<g><path style="opacity:1" fill="#ef0000" d="M 222.5,-0.5 C 259.5,-0.5 296.5,-0.5 333.5,-0.5C 333.5,36.8333 333.5,74.1667 333.5,111.5C 296.5,111.5 259.5,111.5 222.5,111.5C 222.5,74.1667 222.5,36.8333 222.5,-0.5 Z"/></g>
<g><path style="opacity:1" fill="#6bf3e2" d="M 333.5,-0.5 C 370.5,-0.5 407.5,-0.5 444.5,-0.5C 444.5,36.8333 444.5,74.1667 444.5,111.5C 407.5,111.5 370.5,111.5 333.5,111.5C 333.5,74.1667 333.5,36.8333 333.5,-0.5 Z"/></g>
<g><path style="opacity:1" fill="#6bf3e2" d="M 667.5,-0.5 C 704.5,-0.5 741.5,-0.5 778.5,-0.5C 778.5,36.8333 778.5,74.1667 778.5,111.5C 741.5,111.5 704.5,111.5 667.5,111.5C 667.5,74.1667 667.5,36.8333 667.5,-0.5 Z"/></g>
<g><path style="opacity:1" fill="#ef0000" d="M 778.5,-0.5 C 815.5,-0.5 852.5,-0.5 889.5,-0.5C 889.5,36.8333 889.5,74.1667 889.5,111.5C 852.5,111.5 815.5,111.5 778.5,111.5C 778.5,74.1667 778.5,36.8333 778.5,-0.5 Z"/></g>
<g><path style="opacity:1" fill="#6bf3e2" d="M 889.5,-0.5 C 926.167,-0.5 962.833,-0.5 999.5,-0.5C 999.5,36.8333 999.5,74.1667 999.5,111.5C 962.833,111.5 926.167,111.5 889.5,111.5C 889.5,74.1667 889.5,36.8333 889.5,-0.5 Z"/></g>
<g><path style="opacity:1" fill="#d70000" d="M -0.5,111.5 C 36.8333,111.5 74.1667,111.5 111.5,111.5C 111.5,148.5 111.5,185.5 111.5,222.5C 74.1667,222.5 36.8333,222.5 -0.5,222.5C -0.5,185.5 -0.5,148.5 -0.5,111.5 Z"/></g>
<g><path style="opacity:1" fill="#ef0000" d="M 111.5,111.5 C 148.5,111.5 185.5,111.5 222.5,111.5C 222.5,148.5 222.5,185.5 222.5,222.5C 185.5,222.5 148.5,222.5 111.5,222.5C 111.5,185.5 111.5,148.5 111.5,111.5 Z"/></g>
<g><path style="opacity:1" fill="#d70000" d="M 222.5,111.5 C 259.5,111.5 296.5,111.5 333.5,111.5C 333.5,148.5 333.5,185.5 333.5,222.5C 296.5,222.5 259.5,222.5 222.5,222.5C 222.5,185.5 222.5,148.5 222.5,111.5 Z"/></g>
<g><path style="opacity:1" fill="#ef0000" d="M 333.5,111.5 C 370.5,111.5 407.5,111.5 444.5,111.5C 444.5,148.5 444.5,185.5 444.5,222.5C 407.5,222.5 370.5,222.5 333.5,222.5C 333.5,185.5 333.5,148.5 333.5,111.5 Z"/></g>
<g><path style="opacity:1" fill="#6bf3e2" d="M 444.5,111.5 C 518.833,111.5 593.167,111.5 667.5,111.5C 667.5,148.5 667.5,185.5 667.5,222.5C 593.167,222.5 518.833,222.5 444.5,222.5C 444.5,185.5 444.5,148.5 444.5,111.5 Z"/></g>
<g><path style="opacity:1" fill="#ef0000" d="M 667.5,111.5 C 704.5,111.5 741.5,111.5 778.5,111.5C 778.5,148.5 778.5,185.5 778.5,222.5C 741.5,222.5 704.5,222.5 667.5,222.5C 667.5,185.5 667.5,148.5 667.5,111.5 Z"/></g>
<g><path style="opacity:1" fill="#d70000" d="M 778.5,111.5 C 815.5,111.5 852.5,111.5 889.5,111.5C 889.5,148.5 889.5,185.5 889.5,222.5C 852.5,222.5 815.5,222.5 778.5,222.5C 778.5,185.5 778.5,148.5 778.5,111.5 Z"/></g>
<g><path style="opacity:1" fill="#ef0000" d="M 889.5,111.5 C 926.167,111.5 962.833,111.5 999.5,111.5C 999.5,148.5 999.5,185.5 999.5,222.5C 962.833,222.5 926.167,222.5 889.5,222.5C 889.5,185.5 889.5,148.5 889.5,111.5 Z"/></g>
<g><path style="opacity:1" fill="#2dc4b1" d="M 222.5,222.5 C 259.5,222.5 296.5,222.5 333.5,222.5C 333.5,296.5 333.5,370.5 333.5,444.5C 333.5,481.5 333.5,518.5 333.5,555.5C 296.5,555.5 259.5,555.5 222.5,555.5C 222.5,444.5 222.5,333.5 222.5,222.5 Z"/></g>
<g><path style="opacity:1" fill="#d70000" d="M 333.5,222.5 C 370.5,222.5 407.5,222.5 444.5,222.5C 444.5,259.5 444.5,296.5 444.5,333.5C 444.5,370.5 444.5,407.5 444.5,444.5C 407.5,444.5 370.5,444.5 333.5,444.5C 333.5,370.5 333.5,296.5 333.5,222.5 Z"/></g>
<g><path style="opacity:1" fill="#4aedd8" d="M 444.5,222.5 C 518.833,222.5 593.167,222.5 667.5,222.5C 667.5,259.5 667.5,296.5 667.5,333.5C 593.167,333.5 518.833,333.5 444.5,333.5C 444.5,296.5 444.5,259.5 444.5,222.5 Z"/></g>
<g><path style="opacity:1" fill="#d70000" d="M 667.5,222.5 C 704.5,222.5 741.5,222.5 778.5,222.5C 778.5,296.5 778.5,370.5 778.5,444.5C 741.5,444.5 704.5,444.5 667.5,444.5C 667.5,407.5 667.5,370.5 667.5,333.5C 667.5,296.5 667.5,259.5 667.5,222.5 Z"/></g>
<g><path style="opacity:1" fill="#ef0000" d="M 444.5,333.5 C 518.833,333.5 593.167,333.5 667.5,333.5C 667.5,370.5 667.5,407.5 667.5,444.5C 593.167,444.5 518.833,444.5 444.5,444.5C 444.5,407.5 444.5,370.5 444.5,333.5 Z"/></g>
<g><path style="opacity:1" fill="#4aedd8" d="M 333.5,444.5 C 370.5,444.5 407.5,444.5 444.5,444.5C 444.5,481.5 444.5,518.5 444.5,555.5C 407.5,555.5 370.5,555.5 333.5,555.5C 333.5,518.5 333.5,481.5 333.5,444.5 Z"/></g>
<g><path style="opacity:1" fill="#d70000" d="M 444.5,444.5 C 518.833,444.5 593.167,444.5 667.5,444.5C 667.5,481.5 667.5,518.5 667.5,555.5C 593.167,555.5 518.833,555.5 444.5,555.5C 444.5,518.5 444.5,481.5 444.5,444.5 Z"/></g>
<g><path style="opacity:1" fill="#4aedd8" d="M 667.5,444.5 C 704.5,444.5 741.5,444.5 778.5,444.5C 778.5,481.5 778.5,518.5 778.5,555.5C 741.5,555.5 704.5,555.5 667.5,555.5C 667.5,518.5 667.5,481.5 667.5,444.5 Z"/></g>
<g><path style="opacity:1" fill="#2dc4b1" d="M 333.5,555.5 C 370.5,555.5 407.5,555.5 444.5,555.5C 444.5,592.5 444.5,629.5 444.5,666.5C 407.5,666.5 370.5,666.5 333.5,666.5C 333.5,629.5 333.5,592.5 333.5,555.5 Z"/></g>
<g><path style="opacity:1" fill="#4aedd8" d="M 444.5,555.5 C 518.833,555.5 593.167,555.5 667.5,555.5C 667.5,592.5 667.5,629.5 667.5,666.5C 593.167,666.5 518.833,666.5 444.5,666.5C 444.5,629.5 444.5,592.5 444.5,555.5 Z"/></g>
</svg>
