<?xml version="1.0" encoding="UTF-8"?>
<!DOCTYPE svg PUBLIC "-//W3C//DTD SVG 1.1//EN" "http://www.w3.org/Graphics/SVG/1.1/DTD/svg11.dtd">
<svg xmlns="http://www.w3.org/2000/svg" version="1.1" width="1000px" height="857px" style="shape-rendering:geometricPrecision; text-rendering:geometricPrecision; image-rendering:optimizeQuality; fill-rule:evenodd; clip-rule:evenodd" xmlns:xlink="http://www.w3.org/1999/xlink">
<g><path style="opacity:1" fill="#887e4d" d="M 70.5,-0.5 C 94.5,-0.5 118.5,-0.5 142.5,-0.5C 142.5,23.1667 142.5,46.8333 142.5,70.5C 118.5,70.5 94.5,70.5 70.5,70.5C 70.5,46.8333 70.5,23.1667 70.5,-0.5 Z"/></g>
<g><path style="opacity:1" fill="#d1d2b1" d="M 142.5,-0.5 C 356.833,-0.5 571.167,-0.5 785.5,-0.5C 785.5,23.1667 785.5,46.8333 785.5,70.5C 594.833,70.5 404.167,70.5 213.5,70.5C 189.833,70.5 166.167,70.5 142.5,70.5C 142.5,46.8333 142.5,23.1667 142.5,-0.5 Z"/></g>
<g><path style="opacity:1" fill="#887e4d" d="M -0.5,70.5 C 23.1667,70.5 46.8333,70.5 70.5,70.5C 70.5,118.167 70.5,165.833 70.5,213.5C 46.8333,213.5 23.1667,213.5 -0.5,213.5C -0.5,165.833 -0.5,118.167 -0.5,70.5 Z"/></g>
<g><path style="opacity:1" fill="#73693a" d="M 70.5,70.5 C 94.5,70.5 118.5,70.5 142.5,70.5C 142.5,118.167 142.5,165.833 142.5,213.5C 118.5,213.5 94.5,213.5 70.5,213.5C 70.5,165.833 70.5,118.167 70.5,70.5 Z"/></g>
<g><path style="opacity:1" fill="#887e4d" d="M 142.5,70.5 C 166.167,70.5 189.833,70.5 213.5,70.5C 213.5,308.833 213.5,547.167 213.5,785.5C 189.833,785.5 166.167,785.5 142.5,785.5C 142.5,594.833 142.5,404.167 142.5,213.5C 142.5,165.833 142.5,118.167 142.5,70.5 Z"/></g>
<g><path style="opacity:1" fill="#bdbe9d" d="M 213.5,70.5 C 404.167,70.5 594.833,70.5 785.5,70.5C 809.167,70.5 832.833,70.5 856.5,70.5C 856.5,284.833 856.5,499.167 856.5,713.5C 689.833,713.5 523.167,713.5 356.5,713.5C 332.833,713.5 309.167,713.5 285.5,713.5C 285.5,737.5 285.5,761.5 285.5,785.5C 261.5,785.5 237.5,785.5 213.5,785.5C 213.5,547.167 213.5,308.833 213.5,70.5 Z"/></g>
<g><path style="opacity:1" fill="#23a2d9" d="M 785.5,213.5 C 713.833,213.5 642.167,213.5 570.5,213.5C 570.5,237.5 570.5,261.5 570.5,285.5C 546.833,285.5 523.167,285.5 499.5,285.5C 499.5,261.5 499.5,237.5 499.5,213.5C 428.167,213.5 356.833,213.5 285.5,213.5C 285.5,189.833 285.5,166.167 285.5,142.5C 452.167,142.5 618.833,142.5 785.5,142.5C 785.5,166.167 785.5,189.833 785.5,213.5 Z"/></g>
<g><path style="opacity:1" fill="#fefffe" d="M 285.5,213.5 C 356.833,213.5 428.167,213.5 499.5,213.5C 499.5,237.5 499.5,261.5 499.5,285.5C 475.833,285.5 452.167,285.5 428.5,285.5C 428.5,380.5 428.5,475.5 428.5,570.5C 404.5,570.5 380.5,570.5 356.5,570.5C 356.5,475.5 356.5,380.5 356.5,285.5C 332.833,285.5 309.167,285.5 285.5,285.5C 285.5,261.5 285.5,237.5 285.5,213.5 Z"/></g>
<g><path style="opacity:1" fill="#fefffe" d="M 785.5,213.5 C 785.5,237.5 785.5,261.5 785.5,285.5C 713.833,285.5 642.167,285.5 570.5,285.5C 570.5,261.5 570.5,237.5 570.5,213.5C 642.167,213.5 713.833,213.5 785.5,213.5 Z"/></g>
<g><path style="opacity:1" fill="#23a2d9" d="M 285.5,285.5 C 309.167,285.5 332.833,285.5 356.5,285.5C 356.5,380.5 356.5,475.5 356.5,570.5C 380.5,570.5 404.5,570.5 428.5,570.5C 428.5,475.5 428.5,380.5 428.5,285.5C 452.167,285.5 475.833,285.5 499.5,285.5C 499.5,309.167 499.5,332.833 499.5,356.5C 523.167,356.5 546.833,356.5 570.5,356.5C 570.5,380.5 570.5,404.5 570.5,428.5C 618.167,428.5 665.833,428.5 713.5,428.5C 713.5,452.167 713.5,475.833 713.5,499.5C 737.5,499.5 761.5,499.5 785.5,499.5C 785.5,547.167 785.5,594.833 785.5,642.5C 618.833,642.5 452.167,642.5 285.5,642.5C 285.5,523.5 285.5,404.5 285.5,285.5 Z"/></g>
<g><path style="opacity:1" fill="#fefffe" d="M 499.5,285.5 C 523.167,285.5 546.833,285.5 570.5,285.5C 570.5,309.167 570.5,332.833 570.5,356.5C 546.833,356.5 523.167,356.5 499.5,356.5C 499.5,332.833 499.5,309.167 499.5,285.5 Z"/></g>
<g><path style="opacity:1" fill="#23a2d9" d="M 570.5,285.5 C 642.167,285.5 713.833,285.5 785.5,285.5C 785.5,333.167 785.5,380.833 785.5,428.5C 761.5,428.5 737.5,428.5 713.5,428.5C 713.5,404.5 713.5,380.5 713.5,356.5C 665.833,356.5 618.167,356.5 570.5,356.5C 570.5,332.833 570.5,309.167 570.5,285.5 Z"/></g>
<g><path style="opacity:1" fill="#fefffe" d="M 570.5,356.5 C 618.167,356.5 665.833,356.5 713.5,356.5C 713.5,380.5 713.5,404.5 713.5,428.5C 665.833,428.5 618.167,428.5 570.5,428.5C 570.5,404.5 570.5,380.5 570.5,356.5 Z"/></g>
<g><path style="opacity:1" fill="#fefffe" d="M 713.5,428.5 C 737.5,428.5 761.5,428.5 785.5,428.5C 785.5,452.167 785.5,475.833 785.5,499.5C 761.5,499.5 737.5,499.5 713.5,499.5C 713.5,475.833 713.5,452.167 713.5,428.5 Z"/></g>
<g><path style="opacity:1" fill="#fefffe" d="M 713.5,499.5 C 713.5,523.167 713.5,546.833 713.5,570.5C 642.167,570.5 570.833,570.5 499.5,570.5C 499.5,546.833 499.5,523.167 499.5,499.5C 570.833,499.5 642.167,499.5 713.5,499.5 Z"/></g>
<g><path style="opacity:1" fill="#887e4d" d="M 356.5,713.5 C 356.5,737.5 356.5,761.5 356.5,785.5C 332.833,785.5 309.167,785.5 285.5,785.5C 285.5,761.5 285.5,737.5 285.5,713.5C 309.167,713.5 332.833,713.5 356.5,713.5 Z"/></g>
<g><path style="opacity:1" fill="#d1d2b1" d="M 356.5,713.5 C 523.167,713.5 689.833,713.5 856.5,713.5C 904.167,713.5 951.833,713.5 999.5,713.5C 999.5,737.5 999.5,761.5 999.5,785.5C 975.833,785.5 952.167,785.5 928.5,785.5C 737.833,785.5 547.167,785.5 356.5,785.5C 356.5,761.5 356.5,737.5 356.5,713.5 Z"/></g>
<g><path style="opacity:1" fill="#887e4d" d="M 213.5,785.5 C 237.5,785.5 261.5,785.5 285.5,785.5C 285.5,809.167 285.5,832.833 285.5,856.5C 261.5,856.5 237.5,856.5 213.5,856.5C 213.5,832.833 213.5,809.167 213.5,785.5 Z"/></g>
<g><path style="opacity:1" fill="#bdbe9d" d="M 285.5,785.5 C 309.167,785.5 332.833,785.5 356.5,785.5C 547.167,785.5 737.833,785.5 928.5,785.5C 928.5,809.167 928.5,832.833 928.5,856.5C 714.167,856.5 499.833,856.5 285.5,856.5C 285.5,832.833 285.5,809.167 285.5,785.5 Z"/></g>
</svg>
