<?xml version="1.0" encoding="UTF-8"?>
<!DOCTYPE svg PUBLIC "-//W3C//DTD SVG 1.1//EN" "http://www.w3.org/Graphics/SVG/1.1/DTD/svg11.dtd">
<svg xmlns="http://www.w3.org/2000/svg" version="1.1" width="1000px" height="954px" style="shape-rendering:geometricPrecision; text-rendering:geometricPrecision; image-rendering:optimizeQuality; fill-rule:evenodd; clip-rule:evenodd" xmlns:xlink="http://www.w3.org/1999/xlink">
<g><path style="opacity:1" fill="#757675" d="M 499.5,0.5 C 499.5,30.8333 499.5,61.1667 499.5,91.5C 454.167,91.5 408.833,91.5 363.5,91.5C 363.5,76.1667 363.5,60.8333 363.5,45.5C 363.5,30.5 363.5,15.5 363.5,0.5C 408.833,0.5 454.167,0.5 499.5,0.5 Z"/></g>
<g><path style="opacity:1" fill="#a4a5a4" d="M 499.5,0.5 C 529.833,0.5 560.167,0.5 590.5,0.5C 590.5,15.5 590.5,30.5 590.5,45.5C 590.5,60.8333 590.5,76.1667 590.5,91.5C 560.167,91.5 529.833,91.5 499.5,91.5C 499.5,61.1667 499.5,30.8333 499.5,0.5 Z"/></g>
<g><path style="opacity:1" fill="#1c1a13" d="M 363.5,45.5 C 363.5,60.8333 363.5,76.1667 363.5,91.5C 408.833,91.5 454.167,91.5 499.5,91.5C 529.833,91.5 560.167,91.5 590.5,91.5C 590.5,76.1667 590.5,60.8333 590.5,45.5C 636.167,45.5 681.833,45.5 727.5,45.5C 727.5,91.1667 727.5,136.833 727.5,182.5C 697.167,182.5 666.833,182.5 636.5,182.5C 636.5,167.167 636.5,151.833 636.5,136.5C 515.167,136.5 393.833,136.5 272.5,136.5C 272.5,257.5 272.5,378.5 272.5,499.5C 287.833,499.5 303.167,499.5 318.5,499.5C 318.5,529.833 318.5,560.167 318.5,590.5C 333.5,590.5 348.5,590.5 363.5,590.5C 393.833,590.5 424.167,590.5 454.5,590.5C 454.5,711.5 454.5,832.5 454.5,953.5C 363.5,953.5 272.5,953.5 181.5,953.5C 181.5,832.5 181.5,711.5 181.5,590.5C 121.167,590.5 60.8333,590.5 0.5,590.5C 0.5,408.833 0.5,227.167 0.5,45.5C 121.5,45.5 242.5,45.5 363.5,45.5 Z"/></g>
<g><path style="opacity:1" fill="#855106" d="M 45.5,136.5 C 75.8333,136.5 106.167,136.5 136.5,136.5C 136.5,257.5 136.5,378.5 136.5,499.5C 106.167,499.5 75.8333,499.5 45.5,499.5C 45.5,378.5 45.5,257.5 45.5,136.5 Z"/></g>
<g><path style="opacity:1" fill="#683f04" d="M 636.5,182.5 C 545.5,182.5 454.5,182.5 363.5,182.5C 348.5,182.5 333.5,182.5 318.5,182.5C 318.5,288.167 318.5,393.833 318.5,499.5C 303.167,499.5 287.833,499.5 272.5,499.5C 272.5,378.5 272.5,257.5 272.5,136.5C 393.833,136.5 515.167,136.5 636.5,136.5C 636.5,151.833 636.5,167.167 636.5,182.5 Z"/></g>
<g><path style="opacity:1" fill="#959695" d="M 363.5,182.5 C 363.5,318.5 363.5,454.5 363.5,590.5C 348.5,590.5 333.5,590.5 318.5,590.5C 318.5,560.167 318.5,529.833 318.5,499.5C 318.5,393.833 318.5,288.167 318.5,182.5C 333.5,182.5 348.5,182.5 363.5,182.5 Z"/></g>
<g><path style="opacity:1" fill="#c5c6c5" d="M 363.5,182.5 C 454.5,182.5 545.5,182.5 636.5,182.5C 666.833,182.5 697.167,182.5 727.5,182.5C 787.833,182.5 848.167,182.5 908.5,182.5C 908.5,318.5 908.5,454.5 908.5,590.5C 878.5,590.5 848.5,590.5 818.5,590.5C 818.5,484.5 818.5,378.5 818.5,272.5C 697.167,272.5 575.833,272.5 454.5,272.5C 454.5,378.5 454.5,484.5 454.5,590.5C 424.167,590.5 393.833,590.5 363.5,590.5C 363.5,454.5 363.5,318.5 363.5,182.5 Z"/></g>
<g><path style="opacity:1" fill="#8a8b8a" d="M 818.5,590.5 C 697.167,590.5 575.833,590.5 454.5,590.5C 454.5,484.5 454.5,378.5 454.5,272.5C 575.833,272.5 697.167,272.5 818.5,272.5C 818.5,378.5 818.5,484.5 818.5,590.5 Z"/></g>
<g><path style="opacity:1" fill="#443c2e" d="M 454.5,590.5 C 575.833,590.5 697.167,590.5 818.5,590.5C 848.5,590.5 878.5,590.5 908.5,590.5C 938.833,590.5 969.167,590.5 999.5,590.5C 999.5,711.5 999.5,832.5 999.5,953.5C 817.833,953.5 636.167,953.5 454.5,953.5C 454.5,832.5 454.5,711.5 454.5,590.5 Z"/></g>
<g><path style="opacity:1" fill="#855106" d="M 227.5,681.5 C 288.167,681.5 348.833,681.5 409.5,681.5C 409.5,742.167 409.5,802.833 409.5,863.5C 348.833,863.5 288.167,863.5 227.5,863.5C 227.5,802.833 227.5,742.167 227.5,681.5 Z"/></g>
<g><path style="opacity:1" fill="#a66e1e" d="M 545.5,681.5 C 666.5,681.5 787.5,681.5 908.5,681.5C 908.5,742.167 908.5,802.833 908.5,863.5C 787.5,863.5 666.5,863.5 545.5,863.5C 545.5,802.833 545.5,742.167 545.5,681.5 Z"/></g>
</svg>
