<?xml version="1.0" encoding="UTF-8"?>
<!DOCTYPE svg PUBLIC "-//W3C//DTD SVG 1.1//EN" "http://www.w3.org/Graphics/SVG/1.1/DTD/svg11.dtd">
<svg xmlns="http://www.w3.org/2000/svg" version="1.1" width="1000px" height="909px" style="shape-rendering:geometricPrecision; text-rendering:geometricPrecision; image-rendering:optimizeQuality; fill-rule:evenodd; clip-rule:evenodd" xmlns:xlink="http://www.w3.org/1999/xlink">
<g><path style="opacity:1" fill="#4a6192" d="M -0.5,-0.5 C 29.8333,-0.5 60.1667,-0.5 90.5,-0.5C 90.5,120.833 90.5,242.167 90.5,363.5C 60.1667,363.5 29.8333,363.5 -0.5,363.5C -0.5,242.167 -0.5,120.833 -0.5,-0.5 Z"/></g>
<g><path style="opacity:1" fill="#628bc1" d="M 90.5,-0.5 C 151.167,-0.5 211.833,-0.5 272.5,-0.5C 272.5,120.833 272.5,242.167 272.5,363.5C 242.167,363.5 211.833,363.5 181.5,363.5C 151.167,363.5 120.833,363.5 90.5,363.5C 90.5,242.167 90.5,120.833 90.5,-0.5 Z"/></g>
<g><path style="opacity:1" fill="#43506b" d="M 726.5,-0.5 C 756.833,-0.5 787.167,-0.5 817.5,-0.5C 817.5,120.833 817.5,242.167 817.5,363.5C 787.167,363.5 756.833,363.5 726.5,363.5C 726.5,242.167 726.5,120.833 726.5,-0.5 Z"/></g>
<g><path style="opacity:1" fill="#58708e" d="M 817.5,-0.5 C 878.167,-0.5 938.833,-0.5 999.5,-0.5C 999.5,120.833 999.5,242.167 999.5,363.5C 938.833,363.5 878.167,363.5 817.5,363.5C 817.5,242.167 817.5,120.833 817.5,-0.5 Z"/></g>
<g><path style="opacity:1" fill="#4a6192" d="M 181.5,363.5 C 211.833,363.5 242.167,363.5 272.5,363.5C 272.5,484.5 272.5,605.5 272.5,726.5C 242.167,726.5 211.833,726.5 181.5,726.5C 181.5,605.5 181.5,484.5 181.5,363.5 Z"/></g>
<g><path style="opacity:1" fill="#628bc1" d="M 272.5,363.5 C 333.167,363.5 393.833,363.5 454.5,363.5C 454.5,484.5 454.5,605.5 454.5,726.5C 424.167,726.5 393.833,726.5 363.5,726.5C 333.167,726.5 302.833,726.5 272.5,726.5C 272.5,605.5 272.5,484.5 272.5,363.5 Z"/></g>
<g><path style="opacity:1" fill="#43506b" d="M 635.5,363.5 C 635.5,484.5 635.5,605.5 635.5,726.5C 605.167,726.5 574.833,726.5 544.5,726.5C 544.5,605.5 544.5,484.5 544.5,363.5C 574.833,363.5 605.167,363.5 635.5,363.5 Z"/></g>
<g><path style="opacity:1" fill="#58708e" d="M 635.5,363.5 C 665.833,363.5 696.167,363.5 726.5,363.5C 756.833,363.5 787.167,363.5 817.5,363.5C 817.5,484.5 817.5,605.5 817.5,726.5C 756.833,726.5 696.167,726.5 635.5,726.5C 635.5,605.5 635.5,484.5 635.5,363.5 Z"/></g>
<g><path style="opacity:1" fill="#4a6192" d="M 363.5,726.5 C 393.833,726.5 424.167,726.5 454.5,726.5C 454.5,787.167 454.5,847.833 454.5,908.5C 424.167,908.5 393.833,908.5 363.5,908.5C 363.5,847.833 363.5,787.167 363.5,726.5 Z"/></g>
<g><path style="opacity:1" fill="#628bc1" d="M 454.5,726.5 C 484.5,726.5 514.5,726.5 544.5,726.5C 574.833,726.5 605.167,726.5 635.5,726.5C 635.5,787.167 635.5,847.833 635.5,908.5C 575.167,908.5 514.833,908.5 454.5,908.5C 454.5,847.833 454.5,787.167 454.5,726.5 Z"/></g>
</svg>
