<?xml version="1.0" encoding="UTF-8"?>
<!DOCTYPE svg PUBLIC "-//W3C//DTD SVG 1.1//EN" "http://www.w3.org/Graphics/SVG/1.1/DTD/svg11.dtd">
<svg xmlns="http://www.w3.org/2000/svg" version="1.1" width="1000px" height="769px" style="shape-rendering:geometricPrecision; text-rendering:geometricPrecision; image-rendering:optimizeQuality; fill-rule:evenodd; clip-rule:evenodd" xmlns:xlink="http://www.w3.org/1999/xlink">
<g><path style="opacity:1" fill="#6c47a0" d="M 153.5,-0.5 C 179.167,-0.5 204.833,-0.5 230.5,-0.5C 230.5,50.8333 230.5,102.167 230.5,153.5C 204.833,153.5 179.167,153.5 153.5,153.5C 153.5,102.167 153.5,50.8333 153.5,-0.5 Z"/></g>
<g><path style="opacity:1" fill="#955dd4" d="M 230.5,-0.5 C 281.833,-0.5 333.167,-0.5 384.5,-0.5C 384.5,102.167 384.5,204.833 384.5,307.5C 358.833,307.5 333.167,307.5 307.5,307.5C 281.833,307.5 256.167,307.5 230.5,307.5C 230.5,358.5 230.5,409.5 230.5,460.5C 179.167,460.5 127.833,460.5 76.5,460.5C 76.5,358.167 76.5,255.833 76.5,153.5C 102.167,153.5 127.833,153.5 153.5,153.5C 179.167,153.5 204.833,153.5 230.5,153.5C 230.5,102.167 230.5,50.8333 230.5,-0.5 Z"/></g>
<g><path style="opacity:1" fill="#6c47a0" d="M 768.5,-0.5 C 794.167,-0.5 819.833,-0.5 845.5,-0.5C 845.5,102.167 845.5,204.833 845.5,307.5C 819.833,307.5 794.167,307.5 768.5,307.5C 768.5,204.833 768.5,102.167 768.5,-0.5 Z"/></g>
<g><path style="opacity:1" fill="#955dd4" d="M 845.5,-0.5 C 896.833,-0.5 948.167,-0.5 999.5,-0.5C 999.5,102.167 999.5,204.833 999.5,307.5C 948.167,307.5 896.833,307.5 845.5,307.5C 845.5,204.833 845.5,102.167 845.5,-0.5 Z"/></g>
<g><path style="opacity:1" fill="#6c47a0" d="M -0.5,153.5 C 25.1667,153.5 50.8333,153.5 76.5,153.5C 76.5,255.833 76.5,358.167 76.5,460.5C 50.8333,460.5 25.1667,460.5 -0.5,460.5C -0.5,358.167 -0.5,255.833 -0.5,153.5 Z"/></g>
<g><path style="opacity:1" fill="#6c47a0" d="M 307.5,307.5 C 333.167,307.5 358.833,307.5 384.5,307.5C 384.5,409.833 384.5,512.167 384.5,614.5C 358.833,614.5 333.167,614.5 307.5,614.5C 307.5,512.167 307.5,409.833 307.5,307.5 Z"/></g>
<g><path style="opacity:1" fill="#955dd4" d="M 384.5,307.5 C 435.5,307.5 486.5,307.5 537.5,307.5C 537.5,409.833 537.5,512.167 537.5,614.5C 512.167,614.5 486.833,614.5 461.5,614.5C 435.833,614.5 410.167,614.5 384.5,614.5C 384.5,512.167 384.5,409.833 384.5,307.5 Z"/></g>
<g><path style="opacity:1" fill="#6c47a0" d="M 691.5,307.5 C 691.5,409.833 691.5,512.167 691.5,614.5C 665.833,614.5 640.167,614.5 614.5,614.5C 614.5,512.167 614.5,409.833 614.5,307.5C 640.167,307.5 665.833,307.5 691.5,307.5 Z"/></g>
<g><path style="opacity:1" fill="#955dd4" d="M 691.5,307.5 C 717.167,307.5 742.833,307.5 768.5,307.5C 794.167,307.5 819.833,307.5 845.5,307.5C 845.5,409.833 845.5,512.167 845.5,614.5C 794.167,614.5 742.833,614.5 691.5,614.5C 691.5,512.167 691.5,409.833 691.5,307.5 Z"/></g>
<g><path style="opacity:1" fill="#6c47a0" d="M 461.5,614.5 C 486.833,614.5 512.167,614.5 537.5,614.5C 537.5,665.833 537.5,717.167 537.5,768.5C 512.167,768.5 486.833,768.5 461.5,768.5C 461.5,717.167 461.5,665.833 461.5,614.5 Z"/></g>
<g><path style="opacity:1" fill="#955dd4" d="M 537.5,614.5 C 563.167,614.5 588.833,614.5 614.5,614.5C 640.167,614.5 665.833,614.5 691.5,614.5C 691.5,665.833 691.5,717.167 691.5,768.5C 640.167,768.5 588.833,768.5 537.5,768.5C 537.5,717.167 537.5,665.833 537.5,614.5 Z"/></g>
</svg>
