<?xml version="1.0" encoding="UTF-8"?>
<!DOCTYPE svg PUBLIC "-//W3C//DTD SVG 1.1//EN" "http://www.w3.org/Graphics/SVG/1.1/DTD/svg11.dtd">
<svg xmlns="http://www.w3.org/2000/svg" version="1.1" width="900px" height="1000px" style="shape-rendering:geometricPrecision; text-rendering:geometricPrecision; image-rendering:optimizeQuality; fill-rule:evenodd; clip-rule:evenodd" xmlns:xlink="http://www.w3.org/1999/xlink">
<g><path style="opacity:1" fill="#b24f17" d="M 199.5,-0.5 C 232.833,-0.5 266.167,-0.5 299.5,-0.5C 299.5,132.833 299.5,266.167 299.5,399.5C 266.167,399.5 232.833,399.5 199.5,399.5C 199.5,266.167 199.5,132.833 199.5,-0.5 Z"/></g>
<g><path style="opacity:1" fill="#ec7b1e" d="M 299.5,-0.5 C 366.167,-0.5 432.833,-0.5 499.5,-0.5C 499.5,132.833 499.5,266.167 499.5,399.5C 466.167,399.5 432.833,399.5 399.5,399.5C 366.167,399.5 332.833,399.5 299.5,399.5C 299.5,266.167 299.5,132.833 299.5,-0.5 Z"/></g>
<g><path style="opacity:1" fill="#b24f17" d="M 399.5,399.5 C 432.833,399.5 466.167,399.5 499.5,399.5C 499.5,466.167 499.5,532.833 499.5,599.5C 466.167,599.5 432.833,599.5 399.5,599.5C 399.5,532.833 399.5,466.167 399.5,399.5 Z"/></g>
<g><path style="opacity:1" fill="#ec7b1e" d="M 499.5,399.5 C 566.167,399.5 632.833,399.5 699.5,399.5C 699.5,466.167 699.5,532.833 699.5,599.5C 666.167,599.5 632.833,599.5 599.5,599.5C 566.167,599.5 532.833,599.5 499.5,599.5C 499.5,532.833 499.5,466.167 499.5,399.5 Z"/></g>
<g><path style="opacity:1" fill="#b24f17" d="M 299.5,599.5 C 299.5,666.167 299.5,732.833 299.5,799.5C 266.167,799.5 232.833,799.5 199.5,799.5C 199.5,732.833 199.5,666.167 199.5,599.5C 232.833,599.5 266.167,599.5 299.5,599.5 Z"/></g>
<g><path style="opacity:1" fill="#ec7b1e" d="M 299.5,599.5 C 332.833,599.5 366.167,599.5 399.5,599.5C 432.833,599.5 466.167,599.5 499.5,599.5C 499.5,666.167 499.5,732.833 499.5,799.5C 432.833,799.5 366.167,799.5 299.5,799.5C 299.5,732.833 299.5,666.167 299.5,599.5 Z"/></g>
<g><path style="opacity:1" fill="#b24f17" d="M 599.5,599.5 C 632.833,599.5 666.167,599.5 699.5,599.5C 699.5,732.833 699.5,866.167 699.5,999.5C 666.167,999.5 632.833,999.5 599.5,999.5C 599.5,866.167 599.5,732.833 599.5,599.5 Z"/></g>
<g><path style="opacity:1" fill="#ec7b1e" d="M 699.5,599.5 C 766.167,599.5 832.833,599.5 899.5,599.5C 899.5,732.833 899.5,866.167 899.5,999.5C 832.833,999.5 766.167,999.5 699.5,999.5C 699.5,866.167 699.5,732.833 699.5,599.5 Z"/></g>
<g><path style="opacity:1" fill="#b24f17" d="M -0.5,799.5 C 32.8333,799.5 66.1667,799.5 99.5,799.5C 99.5,866.167 99.5,932.833 99.5,999.5C 66.1667,999.5 32.8333,999.5 -0.5,999.5C -0.5,932.833 -0.5,866.167 -0.5,799.5 Z"/></g>
<g><path style="opacity:1" fill="#ec7b1e" d="M 99.5,799.5 C 132.833,799.5 166.167,799.5 199.5,799.5C 232.833,799.5 266.167,799.5 299.5,799.5C 299.5,866.167 299.5,932.833 299.5,999.5C 232.833,999.5 166.167,999.5 99.5,999.5C 99.5,932.833 99.5,866.167 99.5,799.5 Z"/></g>
</svg>
