<?xml version="1.0" encoding="UTF-8"?>
<!DOCTYPE svg PUBLIC "-//W3C//DTD SVG 1.1//EN" "http://www.w3.org/Graphics/SVG/1.1/DTD/svg11.dtd">
<svg xmlns="http://www.w3.org/2000/svg" version="1.1" width="1000px" height="1000px" style="shape-rendering:geometricPrecision; text-rendering:geometricPrecision; image-rendering:optimizeQuality; fill-rule:evenodd; clip-rule:evenodd" xmlns:xlink="http://www.w3.org/1999/xlink">
<g><path style="opacity:1" fill="#757675" d="M 380.5,-0.5 C 428.167,-0.5 475.833,-0.5 523.5,-0.5C 523.5,15.5 523.5,31.5 523.5,47.5C 507.5,47.5 491.5,47.5 475.5,47.5C 475.5,63.1667 475.5,78.8333 475.5,94.5C 443.833,94.5 412.167,94.5 380.5,94.5C 380.5,78.8333 380.5,63.1667 380.5,47.5C 380.5,31.5 380.5,15.5 380.5,-0.5 Z"/></g>
<g><path style="opacity:1" fill="#a4a5a4" d="M 523.5,-0.5 C 555.167,-0.5 586.833,-0.5 618.5,-0.5C 618.5,15.5 618.5,31.5 618.5,47.5C 586.833,47.5 555.167,47.5 523.5,47.5C 523.5,31.5 523.5,15.5 523.5,-0.5 Z"/></g>
<g><path style="opacity:1" fill="#1c1a13" d="M -0.5,47.5 C 126.5,47.5 253.5,47.5 380.5,47.5C 380.5,63.1667 380.5,78.8333 380.5,94.5C 412.167,94.5 443.833,94.5 475.5,94.5C 475.5,110.5 475.5,126.5 475.5,142.5C 459.833,142.5 444.167,142.5 428.5,142.5C 412.5,142.5 396.5,142.5 380.5,142.5C 348.833,142.5 317.167,142.5 285.5,142.5C 285.5,269.5 285.5,396.5 285.5,523.5C 348.833,523.5 412.167,523.5 475.5,523.5C 491.5,523.5 507.5,523.5 523.5,523.5C 539.167,523.5 554.833,523.5 570.5,523.5C 570.5,555.167 570.5,586.833 570.5,618.5C 538.833,618.5 507.167,618.5 475.5,618.5C 475.5,745.5 475.5,872.5 475.5,999.5C 380.167,999.5 284.833,999.5 189.5,999.5C 189.5,872.5 189.5,745.5 189.5,618.5C 126.167,618.5 62.8333,618.5 -0.5,618.5C -0.5,428.167 -0.5,237.833 -0.5,47.5 Z"/></g>
<g><path style="opacity:1" fill="#972014" d="M 523.5,47.5 C 523.5,79.1667 523.5,110.833 523.5,142.5C 507.5,142.5 491.5,142.5 475.5,142.5C 475.5,126.5 475.5,110.5 475.5,94.5C 475.5,78.8333 475.5,63.1667 475.5,47.5C 491.5,47.5 507.5,47.5 523.5,47.5 Z"/></g>
<g><path style="opacity:1" fill="#c82a1a" d="M 523.5,47.5 C 555.167,47.5 586.833,47.5 618.5,47.5C 682.167,47.5 745.833,47.5 809.5,47.5C 809.5,79.1667 809.5,110.833 809.5,142.5C 841.167,142.5 872.833,142.5 904.5,142.5C 904.5,237.833 904.5,333.167 904.5,428.5C 872.833,428.5 841.167,428.5 809.5,428.5C 809.5,460.167 809.5,491.833 809.5,523.5C 793.5,523.5 777.5,523.5 761.5,523.5C 745.5,523.5 729.5,523.5 713.5,523.5C 713.5,555.167 713.5,586.833 713.5,618.5C 681.833,618.5 650.167,618.5 618.5,618.5C 618.5,586.833 618.5,555.167 618.5,523.5C 602.5,523.5 586.5,523.5 570.5,523.5C 554.833,523.5 539.167,523.5 523.5,523.5C 523.5,491.833 523.5,460.167 523.5,428.5C 507.5,428.5 491.5,428.5 475.5,428.5C 459.833,428.5 444.167,428.5 428.5,428.5C 428.5,333.167 428.5,237.833 428.5,142.5C 444.167,142.5 459.833,142.5 475.5,142.5C 491.5,142.5 507.5,142.5 523.5,142.5C 523.5,110.833 523.5,79.1667 523.5,47.5 Z"/></g>
<g><path style="opacity:1" fill="#855106" d="M 47.5,142.5 C 79.1667,142.5 110.833,142.5 142.5,142.5C 142.5,269.5 142.5,396.5 142.5,523.5C 110.833,523.5 79.1667,523.5 47.5,523.5C 47.5,396.5 47.5,269.5 47.5,142.5 Z"/></g>
<g><path style="opacity:1" fill="#683f04" d="M 380.5,142.5 C 380.5,237.833 380.5,333.167 380.5,428.5C 396.5,428.5 412.5,428.5 428.5,428.5C 444.167,428.5 459.833,428.5 475.5,428.5C 475.5,460.167 475.5,491.833 475.5,523.5C 412.167,523.5 348.833,523.5 285.5,523.5C 285.5,396.5 285.5,269.5 285.5,142.5C 317.167,142.5 348.833,142.5 380.5,142.5 Z"/></g>
<g><path style="opacity:1" fill="#972014" d="M 380.5,142.5 C 396.5,142.5 412.5,142.5 428.5,142.5C 428.5,237.833 428.5,333.167 428.5,428.5C 412.5,428.5 396.5,428.5 380.5,428.5C 380.5,333.167 380.5,237.833 380.5,142.5 Z"/></g>
<g><path style="opacity:1" fill="#683f04" d="M 666.5,142.5 C 666.5,174.167 666.5,205.833 666.5,237.5C 666.5,269.167 666.5,300.833 666.5,332.5C 666.5,364.5 666.5,396.5 666.5,428.5C 650.5,428.5 634.5,428.5 618.5,428.5C 618.5,396.5 618.5,364.5 618.5,332.5C 586.833,332.5 555.167,332.5 523.5,332.5C 523.5,300.833 523.5,269.167 523.5,237.5C 555.167,237.5 586.833,237.5 618.5,237.5C 618.5,205.833 618.5,174.167 618.5,142.5C 634.5,142.5 650.5,142.5 666.5,142.5 Z"/></g>
<g><path style="opacity:1" fill="#972014" d="M 666.5,142.5 C 682.167,142.5 697.833,142.5 713.5,142.5C 713.5,174.167 713.5,205.833 713.5,237.5C 697.833,237.5 682.167,237.5 666.5,237.5C 666.5,205.833 666.5,174.167 666.5,142.5 Z"/></g>
<g><path style="opacity:1" fill="#1c1a13" d="M 666.5,237.5 C 682.167,237.5 697.833,237.5 713.5,237.5C 729.5,237.5 745.5,237.5 761.5,237.5C 761.5,269.167 761.5,300.833 761.5,332.5C 745.5,332.5 729.5,332.5 713.5,332.5C 697.833,332.5 682.167,332.5 666.5,332.5C 666.5,300.833 666.5,269.167 666.5,237.5 Z"/></g>
<g><path style="opacity:1" fill="#972014" d="M 761.5,237.5 C 777.5,237.5 793.5,237.5 809.5,237.5C 809.5,269.167 809.5,300.833 809.5,332.5C 793.5,332.5 777.5,332.5 761.5,332.5C 761.5,300.833 761.5,269.167 761.5,237.5 Z"/></g>
<g><path style="opacity:1" fill="#972014" d="M 666.5,332.5 C 682.167,332.5 697.833,332.5 713.5,332.5C 713.5,364.5 713.5,396.5 713.5,428.5C 697.833,428.5 682.167,428.5 666.5,428.5C 666.5,396.5 666.5,364.5 666.5,332.5 Z"/></g>
<g><path style="opacity:1" fill="#972014" d="M 475.5,428.5 C 491.5,428.5 507.5,428.5 523.5,428.5C 523.5,460.167 523.5,491.833 523.5,523.5C 507.5,523.5 491.5,523.5 475.5,523.5C 475.5,491.833 475.5,460.167 475.5,428.5 Z"/></g>
<g><path style="opacity:1" fill="#972014" d="M 570.5,523.5 C 586.5,523.5 602.5,523.5 618.5,523.5C 618.5,555.167 618.5,586.833 618.5,618.5C 602.5,618.5 586.5,618.5 570.5,618.5C 570.5,586.833 570.5,555.167 570.5,523.5 Z"/></g>
<g><path style="opacity:1" fill="#1c1a13" d="M 761.5,523.5 C 761.5,555.167 761.5,586.833 761.5,618.5C 745.5,618.5 729.5,618.5 713.5,618.5C 713.5,586.833 713.5,555.167 713.5,523.5C 729.5,523.5 745.5,523.5 761.5,523.5 Z"/></g>
<g><path style="opacity:1" fill="#443c2e" d="M 570.5,618.5 C 586.5,618.5 602.5,618.5 618.5,618.5C 650.167,618.5 681.833,618.5 713.5,618.5C 729.5,618.5 745.5,618.5 761.5,618.5C 840.833,618.5 920.167,618.5 999.5,618.5C 999.5,745.5 999.5,872.5 999.5,999.5C 824.833,999.5 650.167,999.5 475.5,999.5C 475.5,872.5 475.5,745.5 475.5,618.5C 507.167,618.5 538.833,618.5 570.5,618.5 Z"/></g>
<g><path style="opacity:1" fill="#855106" d="M 237.5,713.5 C 301.167,713.5 364.833,713.5 428.5,713.5C 428.5,777.167 428.5,840.833 428.5,904.5C 364.833,904.5 301.167,904.5 237.5,904.5C 237.5,840.833 237.5,777.167 237.5,713.5 Z"/></g>
<g><path style="opacity:1" fill="#a66e1e" d="M 570.5,713.5 C 697.5,713.5 824.5,713.5 951.5,713.5C 951.5,777.167 951.5,840.833 951.5,904.5C 824.5,904.5 697.5,904.5 570.5,904.5C 570.5,840.833 570.5,777.167 570.5,713.5 Z"/></g>
</svg>
