<?xml version="1.0" encoding="utf-8"?>
<!-- Generator: Adobe Illustrator 25.4.1, SVG Export Plug-In . SVG Version: 6.00 Build 0)  -->
<svg version="1.1" id="Слой_1" xmlns="http://www.w3.org/2000/svg" xmlns:xlink="http://www.w3.org/1999/xlink" x="0px" y="0px"
	 viewBox="0 0 256 256" style="enable-background:new 0 0 256 256;" xml:space="preserve">
<style type="text/css">
	.st0{fill-rule:evenodd;clip-rule:evenodd;fill:#91908F;}
	.st1{fill-rule:evenodd;clip-rule:evenodd;fill:#C0BEBD;}
	.st2{fill-rule:evenodd;clip-rule:evenodd;fill:#FEFFFE;}
	.st3{fill-rule:evenodd;clip-rule:evenodd;fill:#111415;}
	.st4{fill-rule:evenodd;clip-rule:evenodd;fill:#A68F7D;}
	.st5{fill-rule:evenodd;clip-rule:evenodd;fill:#D2CFCE;}
	.st6{fill-rule:evenodd;clip-rule:evenodd;fill:#ABA3A3;}
	.st7{fill-rule:evenodd;clip-rule:evenodd;fill:#E3D8D8;}
	.st8{fill-rule:evenodd;clip-rule:evenodd;fill:#7D6C5E;}
	.st9{fill-rule:evenodd;clip-rule:evenodd;fill:#2A2E2F;}
	.st10{fill-rule:evenodd;clip-rule:evenodd;fill:#383C3E;}
</style>
<g>
	<path class="st0" d="M-0.5,50.5c6,0,12,0,18,0c0,11.3,0,22.7,0,34c11.3,0,22.7,0,34,0c5.7,0,11.3,0,17,0c0,11.3,0,22.7,0,34
		s0,22.7,0,34s0,22.7,0,34c-5.7,0-11.3,0-17,0c0,11.3,0,22.7,0,34c-17.3,0-34.7,0-52,0C-0.5,163.8-0.5,107.2-0.5,50.5z"/>
</g>
<g>
	<path class="st0" d="M119.5,50.5c0,11.3,0,22.7,0,34c-5.7,0-11.3,0-17,0c0-11.3,0-22.7,0-34C108.2,50.5,113.8,50.5,119.5,50.5z"/>
</g>
<g>
	<path class="st1" d="M119.5,50.5c11.3,0,22.7,0,34,0c0,11.3,0,22.7,0,34c28.3,0,56.7,0,85,0c0,11.3,0,22.7,0,34
		c-11.3,0-22.7,0-34,0s-22.7,0-34,0s-22.7,0-34,0s-22.7,0-34,0c-11.3,0-22.7,0-34,0c0-11.3,0-22.7,0-34c11.3,0,22.7,0,34,0
		c5.7,0,11.3,0,17,0C119.5,73.2,119.5,61.8,119.5,50.5z"/>
</g>
<g>
	<path class="st1" d="M17.5,84.5c0-11.3,0-22.7,0-34c11.3,0,22.7,0,34,0c0,11.3,0,22.7,0,34"/>
</g>
<g>
	<path class="st2" d="M68.5,118.5c11.3,0,22.7,0,34,0c0,11.3,0,22.7,0,34c-11.3,0-22.7,0-34,0C68.5,141.2,68.5,129.8,68.5,118.5z"/>
</g>
<g>
	<path class="st3" d="M102.5,118.5c11.3,0,22.7,0,34,0c0,11.3,0,22.7,0,34c-11.3,0-22.7,0-34,0C102.5,141.2,102.5,129.8,102.5,118.5
		z"/>
</g>
<g>
	<path class="st4" d="M136.5,118.5c11.3,0,22.7,0,34,0c0,11.3,0,22.7,0,34c-5.7,0-11.3,0-17,0s-11.3,0-17,0
		C136.5,141.2,136.5,129.8,136.5,118.5z"/>
</g>
<g>
	<path class="st3" d="M170.5,118.5c11.3,0,22.7,0,34,0c0,11.3,0,22.7,0,34c5.7,0,11.3,0,17,0c0,11.3,0,22.7,0,34
		c-11.3,0-22.7,0-34,0c0-11.3,0-22.7,0-34c-5.7,0-11.3,0-17,0C170.5,141.2,170.5,129.8,170.5,118.5z"/>
</g>
<g>
	<path class="st2" d="M204.5,118.5c11.3,0,22.7,0,34,0c0,11.3,0,22.7,0,34c-5.7,0-11.3,0-17,0s-11.3,0-17,0
		C204.5,141.2,204.5,129.8,204.5,118.5z"/>
</g>
<g>
	<path class="st5" d="M68.5,152.5c11.3,0,22.7,0,34,0c0,11.3,0,22.7,0,34c-11.3,0-22.7,0-34,0C68.5,175.2,68.5,163.8,68.5,152.5z"/>
</g>
<g>
	<path class="st6" d="M102.5,152.5c11.3,0,22.7,0,34,0c5.7,0,11.3,0,17,0c0,11.3,0,22.7,0,34c-11.3,0-22.7,0-34,0
		c-5.7,0-11.3,0-17,0C102.5,175.2,102.5,163.8,102.5,152.5z"/>
</g>
<g>
	<path class="st7" d="M153.5,152.5c5.7,0,11.3,0,17,0s11.3,0,17,0c0,11.3,0,22.7,0,34c-11.3,0-22.7,0-34,0
		C153.5,175.2,153.5,163.8,153.5,152.5z"/>
</g>
<g>
	<path class="st7" d="M221.5,152.5c5.7,0,11.3,0,17,0s11.3,0,17,0c0,11.3,0,22.7,0,34c-11.3,0-22.7,0-34,0
		C221.5,175.2,221.5,163.8,221.5,152.5z"/>
</g>
<g>
	<path class="st8" d="M68.5,186.5c0,11.3,0,22.7,0,34c-5.7,0-11.3,0-17,0c0-11.3,0-22.7,0-34C57.2,186.5,62.8,186.5,68.5,186.5z"/>
</g>
<g>
	<path class="st4" d="M68.5,186.5c11.3,0,22.7,0,34,0c0,11.3,0,22.7,0,34c-11.3,0-22.7,0-34,0C68.5,209.2,68.5,197.8,68.5,186.5z"/>
</g>
<g>
	<path class="st8" d="M102.5,186.5c5.7,0,11.3,0,17,0c0,11.3,0,22.7,0,34c-5.7,0-11.3,0-17,0C102.5,209.2,102.5,197.8,102.5,186.5z"
		/>
</g>
<g>
	<path class="st9" d="M119.5,186.5c11.3,0,22.7,0,34,0c0,11.3,0,22.7,0,34c-11.3,0-22.7,0-34,0C119.5,209.2,119.5,197.8,119.5,186.5
		z"/>
</g>
<g>
	<path class="st10" d="M153.5,186.5c11.3,0,22.7,0,34,0s22.7,0,34,0s22.7,0,34,0c0,11.3,0,22.7,0,34c-34,0-68,0-102,0
		C153.5,209.2,153.5,197.8,153.5,186.5z"/>
</g>
</svg>
