<?xml version="1.0" encoding="UTF-8"?>
<!DOCTYPE svg PUBLIC "-//W3C//DTD SVG 1.1//EN" "http://www.w3.org/Graphics/SVG/1.1/DTD/svg11.dtd">
<svg xmlns="http://www.w3.org/2000/svg" version="1.1" width="256px" height="256px" style="shape-rendering:geometricPrecision; text-rendering:geometricPrecision; image-rendering:optimizeQuality; fill-rule:evenodd; clip-rule:evenodd" xmlns:xlink="http://www.w3.org/1999/xlink">
<g><path style="opacity:1" fill="#757675" d="M 127.5,10.5 C 127.5,18.5 127.5,26.5 127.5,34.5C 116.167,34.5 104.833,34.5 93.5,34.5C 93.5,30.5 93.5,26.5 93.5,22.5C 93.5,18.5 93.5,14.5 93.5,10.5C 104.833,10.5 116.167,10.5 127.5,10.5 Z"/></g>
<g><path style="opacity:1" fill="#a4a5a4" d="M 127.5,10.5 C 135.5,10.5 143.5,10.5 151.5,10.5C 151.5,14.5 151.5,18.5 151.5,22.5C 151.5,26.5 151.5,30.5 151.5,34.5C 143.5,34.5 135.5,34.5 127.5,34.5C 127.5,26.5 127.5,18.5 127.5,10.5 Z"/></g>
<g><path style="opacity:1" fill="#1c1a13" d="M -0.5,22.5 C 30.8333,22.5 62.1667,22.5 93.5,22.5C 93.5,26.5 93.5,30.5 93.5,34.5C 104.833,34.5 116.167,34.5 127.5,34.5C 135.5,34.5 143.5,34.5 151.5,34.5C 151.5,30.5 151.5,26.5 151.5,22.5C 163.167,22.5 174.833,22.5 186.5,22.5C 186.5,38.1667 186.5,53.8333 186.5,69.5C 182.5,69.5 178.5,69.5 174.5,69.5C 174.5,61.5 174.5,53.5 174.5,45.5C 166.833,45.5 159.167,45.5 151.5,45.5C 147.5,45.5 143.5,45.5 139.5,45.5C 127.833,45.5 116.167,45.5 104.5,45.5C 96.8333,45.5 89.1667,45.5 81.5,45.5C 77.5,45.5 73.5,45.5 69.5,45.5C 69.5,84.5 69.5,123.5 69.5,162.5C 81.1667,162.5 92.8333,162.5 104.5,162.5C 108.5,162.5 112.5,162.5 116.5,162.5C 116.5,193.167 116.5,223.833 116.5,254.5C 93.1667,254.5 69.8333,254.5 46.5,254.5C 46.5,223.833 46.5,193.167 46.5,162.5C 30.8333,162.5 15.1667,162.5 -0.5,162.5C -0.5,115.833 -0.5,69.1667 -0.5,22.5 Z"/></g>
<g><path style="opacity:1" fill="#855106" d="M 11.5,45.5 C 19.1667,45.5 26.8333,45.5 34.5,45.5C 34.5,76.5 34.5,107.5 34.5,138.5C 26.8333,138.5 19.1667,138.5 11.5,138.5C 11.5,107.5 11.5,76.5 11.5,45.5 Z"/></g>
<g><path style="opacity:1" fill="#91908f" d="M 81.5,45.5 C 81.5,53.5 81.5,61.5 81.5,69.5C 89.1667,69.5 96.8333,69.5 104.5,69.5C 108.5,69.5 112.5,69.5 116.5,69.5C 116.5,77.1667 116.5,84.8333 116.5,92.5C 116.5,100.167 116.5,107.833 116.5,115.5C 116.5,123.167 116.5,130.833 116.5,138.5C 112.5,138.5 108.5,138.5 104.5,138.5C 104.5,146.5 104.5,154.5 104.5,162.5C 92.8333,162.5 81.1667,162.5 69.5,162.5C 69.5,123.5 69.5,84.5 69.5,45.5C 73.5,45.5 77.5,45.5 81.5,45.5 Z"/></g>
<g><path style="opacity:1" fill="#c0bebd" d="M 81.5,45.5 C 89.1667,45.5 96.8333,45.5 104.5,45.5C 104.5,53.5 104.5,61.5 104.5,69.5C 96.8333,69.5 89.1667,69.5 81.5,69.5C 81.5,61.5 81.5,53.5 81.5,45.5 Z"/></g>
<g><path style="opacity:1" fill="#683f04" d="M 104.5,45.5 C 116.167,45.5 127.833,45.5 139.5,45.5C 139.5,53.5 139.5,61.5 139.5,69.5C 131.833,69.5 124.167,69.5 116.5,69.5C 112.5,69.5 108.5,69.5 104.5,69.5C 104.5,61.5 104.5,53.5 104.5,45.5 Z"/></g>
<g><path style="opacity:1" fill="#91908f" d="M 139.5,45.5 C 143.5,45.5 147.5,45.5 151.5,45.5C 151.5,53.5 151.5,61.5 151.5,69.5C 147.5,69.5 143.5,69.5 139.5,69.5C 139.5,61.5 139.5,53.5 139.5,45.5 Z"/></g>
<g><path style="opacity:1" fill="#c0bebd" d="M 151.5,45.5 C 159.167,45.5 166.833,45.5 174.5,45.5C 174.5,53.5 174.5,61.5 174.5,69.5C 178.5,69.5 182.5,69.5 186.5,69.5C 201.833,69.5 217.167,69.5 232.5,69.5C 232.5,77.1667 232.5,84.8333 232.5,92.5C 224.833,92.5 217.167,92.5 209.5,92.5C 201.833,92.5 194.167,92.5 186.5,92.5C 178.5,92.5 170.5,92.5 162.5,92.5C 154.833,92.5 147.167,92.5 139.5,92.5C 131.833,92.5 124.167,92.5 116.5,92.5C 116.5,84.8333 116.5,77.1667 116.5,69.5C 124.167,69.5 131.833,69.5 139.5,69.5C 143.5,69.5 147.5,69.5 151.5,69.5C 151.5,61.5 151.5,53.5 151.5,45.5 Z"/></g>
<g><path style="opacity:1" fill="#fefffe" d="M 116.5,92.5 C 124.167,92.5 131.833,92.5 139.5,92.5C 139.5,100.167 139.5,107.833 139.5,115.5C 131.833,115.5 124.167,115.5 116.5,115.5C 116.5,107.833 116.5,100.167 116.5,92.5 Z"/></g>
<g><path style="opacity:1" fill="#111415" d="M 139.5,92.5 C 147.167,92.5 154.833,92.5 162.5,92.5C 162.5,100.167 162.5,107.833 162.5,115.5C 154.833,115.5 147.167,115.5 139.5,115.5C 139.5,107.833 139.5,100.167 139.5,92.5 Z"/></g>
<g><path style="opacity:1" fill="#a68f7d" d="M 162.5,92.5 C 170.5,92.5 178.5,92.5 186.5,92.5C 186.5,100.167 186.5,107.833 186.5,115.5C 182.5,115.5 178.5,115.5 174.5,115.5C 170.5,115.5 166.5,115.5 162.5,115.5C 162.5,107.833 162.5,100.167 162.5,92.5 Z"/></g>
<g><path style="opacity:1" fill="#111415" d="M 186.5,92.5 C 194.167,92.5 201.833,92.5 209.5,92.5C 209.5,100.167 209.5,107.833 209.5,115.5C 213.5,115.5 217.5,115.5 221.5,115.5C 221.5,123.167 221.5,130.833 221.5,138.5C 213.5,138.5 205.5,138.5 197.5,138.5C 197.5,130.833 197.5,123.167 197.5,115.5C 193.833,115.5 190.167,115.5 186.5,115.5C 186.5,107.833 186.5,100.167 186.5,92.5 Z"/></g>
<g><path style="opacity:1" fill="#fefffe" d="M 209.5,92.5 C 217.167,92.5 224.833,92.5 232.5,92.5C 232.5,100.167 232.5,107.833 232.5,115.5C 228.833,115.5 225.167,115.5 221.5,115.5C 217.5,115.5 213.5,115.5 209.5,115.5C 209.5,107.833 209.5,100.167 209.5,92.5 Z"/></g>
<g><path style="opacity:1" fill="#d2cfce" d="M 116.5,115.5 C 124.167,115.5 131.833,115.5 139.5,115.5C 139.5,123.167 139.5,130.833 139.5,138.5C 131.833,138.5 124.167,138.5 116.5,138.5C 116.5,130.833 116.5,123.167 116.5,115.5 Z"/></g>
<g><path style="opacity:1" fill="#aba3a3" d="M 139.5,115.5 C 147.167,115.5 154.833,115.5 162.5,115.5C 166.5,115.5 170.5,115.5 174.5,115.5C 174.5,123.167 174.5,130.833 174.5,138.5C 166.833,138.5 159.167,138.5 151.5,138.5C 147.5,138.5 143.5,138.5 139.5,138.5C 139.5,130.833 139.5,123.167 139.5,115.5 Z"/></g>
<g><path style="opacity:1" fill="#e3d8d8" d="M 174.5,115.5 C 178.5,115.5 182.5,115.5 186.5,115.5C 190.167,115.5 193.833,115.5 197.5,115.5C 197.5,123.167 197.5,130.833 197.5,138.5C 189.833,138.5 182.167,138.5 174.5,138.5C 174.5,130.833 174.5,123.167 174.5,115.5 Z"/></g>
<g><path style="opacity:1" fill="#e3d8d8" d="M 221.5,115.5 C 225.167,115.5 228.833,115.5 232.5,115.5C 236.5,115.5 240.5,115.5 244.5,115.5C 244.5,123.167 244.5,130.833 244.5,138.5C 236.833,138.5 229.167,138.5 221.5,138.5C 221.5,130.833 221.5,123.167 221.5,115.5 Z"/></g>
<g><path style="opacity:1" fill="#7d6c5e" d="M 116.5,138.5 C 116.5,146.5 116.5,154.5 116.5,162.5C 112.5,162.5 108.5,162.5 104.5,162.5C 104.5,154.5 104.5,146.5 104.5,138.5C 108.5,138.5 112.5,138.5 116.5,138.5 Z"/></g>
<g><path style="opacity:1" fill="#a68f7d" d="M 116.5,138.5 C 124.167,138.5 131.833,138.5 139.5,138.5C 139.5,146.5 139.5,154.5 139.5,162.5C 131.833,162.5 124.167,162.5 116.5,162.5C 116.5,154.5 116.5,146.5 116.5,138.5 Z"/></g>
<g><path style="opacity:1" fill="#7d6c5e" d="M 139.5,138.5 C 143.5,138.5 147.5,138.5 151.5,138.5C 151.5,146.5 151.5,154.5 151.5,162.5C 147.5,162.5 143.5,162.5 139.5,162.5C 139.5,154.5 139.5,146.5 139.5,138.5 Z"/></g>
<g><path style="opacity:1" fill="#2a2e2f" d="M 151.5,138.5 C 159.167,138.5 166.833,138.5 174.5,138.5C 174.5,146.5 174.5,154.5 174.5,162.5C 166.833,162.5 159.167,162.5 151.5,162.5C 151.5,154.5 151.5,146.5 151.5,138.5 Z"/></g>
<g><path style="opacity:1" fill="#383c3e" d="M 174.5,138.5 C 182.167,138.5 189.833,138.5 197.5,138.5C 205.5,138.5 213.5,138.5 221.5,138.5C 229.167,138.5 236.833,138.5 244.5,138.5C 244.5,146.5 244.5,154.5 244.5,162.5C 221.167,162.5 197.833,162.5 174.5,162.5C 174.5,154.5 174.5,146.5 174.5,138.5 Z"/></g>
<g><path style="opacity:1" fill="#443c2e" d="M 116.5,162.5 C 124.167,162.5 131.833,162.5 139.5,162.5C 143.5,162.5 147.5,162.5 151.5,162.5C 159.167,162.5 166.833,162.5 174.5,162.5C 197.833,162.5 221.167,162.5 244.5,162.5C 248.167,162.5 251.833,162.5 255.5,162.5C 255.5,193.167 255.5,223.833 255.5,254.5C 209.167,254.5 162.833,254.5 116.5,254.5C 116.5,223.833 116.5,193.167 116.5,162.5 Z"/></g>
<g><path style="opacity:1" fill="#855106" d="M 58.5,185.5 C 73.8333,185.5 89.1667,185.5 104.5,185.5C 104.5,200.833 104.5,216.167 104.5,231.5C 89.1667,231.5 73.8333,231.5 58.5,231.5C 58.5,216.167 58.5,200.833 58.5,185.5 Z"/></g>
<g><path style="opacity:1" fill="#a66e1e" d="M 139.5,185.5 C 170.5,185.5 201.5,185.5 232.5,185.5C 232.5,200.833 232.5,216.167 232.5,231.5C 201.5,231.5 170.5,231.5 139.5,231.5C 139.5,216.167 139.5,200.833 139.5,185.5 Z"/></g>
</svg>
