<?xml version="1.0" encoding="UTF-8"?>
<!DOCTYPE svg PUBLIC "-//W3C//DTD SVG 1.1//EN" "http://www.w3.org/Graphics/SVG/1.1/DTD/svg11.dtd">
<svg xmlns="http://www.w3.org/2000/svg" version="1.1" width="1000px" height="666px" style="shape-rendering:geometricPrecision; text-rendering:geometricPrecision; image-rendering:optimizeQuality; fill-rule:evenodd; clip-rule:evenodd" xmlns:xlink="http://www.w3.org/1999/xlink">
<g><path style="opacity:1" fill="#317a1e" d="M 0.5,-0.5 C 111.5,-0.5 222.5,-0.5 333.5,-0.5C 333.5,110.5 333.5,221.5 333.5,332.5C 315.167,332.5 296.833,332.5 278.5,332.5C 278.5,295.5 278.5,258.5 278.5,221.5C 241.5,221.5 204.5,221.5 167.5,221.5C 167.5,258.5 167.5,295.5 167.5,332.5C 148.833,332.5 130.167,332.5 111.5,332.5C 111.5,295.5 111.5,258.5 111.5,221.5C 93.1667,221.5 74.8333,221.5 56.5,221.5C 56.5,258.5 56.5,295.5 56.5,332.5C 37.8333,332.5 19.1667,332.5 0.5,332.5C 0.5,221.5 0.5,110.5 0.5,-0.5 Z"/></g>
<g><path style="opacity:1" fill="#44aa2b" d="M 333.5,-0.5 C 555.5,-0.5 777.5,-0.5 999.5,-0.5C 999.5,110.5 999.5,221.5 999.5,332.5C 962.833,332.5 926.167,332.5 889.5,332.5C 889.5,295.5 889.5,258.5 889.5,221.5C 815.5,221.5 741.5,221.5 667.5,221.5C 667.5,258.5 667.5,295.5 667.5,332.5C 630.5,332.5 593.5,332.5 556.5,332.5C 556.5,295.5 556.5,258.5 556.5,221.5C 519.167,221.5 481.833,221.5 444.5,221.5C 444.5,258.5 444.5,295.5 444.5,332.5C 407.5,332.5 370.5,332.5 333.5,332.5C 333.5,221.5 333.5,110.5 333.5,-0.5 Z"/></g>
<g><path style="opacity:1" fill="#563d28" d="M 333.5,332.5 C 333.5,443.5 333.5,554.5 333.5,665.5C 222.5,665.5 111.5,665.5 0.5,665.5C 0.5,554.5 0.5,443.5 0.5,332.5C 19.1667,332.5 37.8333,332.5 56.5,332.5C 56.5,295.5 56.5,258.5 56.5,221.5C 74.8333,221.5 93.1667,221.5 111.5,221.5C 111.5,258.5 111.5,295.5 111.5,332.5C 130.167,332.5 148.833,332.5 167.5,332.5C 167.5,295.5 167.5,258.5 167.5,221.5C 204.5,221.5 241.5,221.5 278.5,221.5C 278.5,258.5 278.5,295.5 278.5,332.5C 296.833,332.5 315.167,332.5 333.5,332.5 Z"/></g>
<g><path style="opacity:1" fill="#785539" d="M 999.5,332.5 C 999.5,443.5 999.5,554.5 999.5,665.5C 777.5,665.5 555.5,665.5 333.5,665.5C 333.5,554.5 333.5,443.5 333.5,332.5C 370.5,332.5 407.5,332.5 444.5,332.5C 444.5,295.5 444.5,258.5 444.5,221.5C 481.833,221.5 519.167,221.5 556.5,221.5C 556.5,258.5 556.5,295.5 556.5,332.5C 593.5,332.5 630.5,332.5 667.5,332.5C 667.5,295.5 667.5,258.5 667.5,221.5C 741.5,221.5 815.5,221.5 889.5,221.5C 889.5,258.5 889.5,295.5 889.5,332.5C 926.167,332.5 962.833,332.5 999.5,332.5 Z"/></g>
</svg>
