<?xml version="1.0" encoding="UTF-8"?>
<!DOCTYPE svg PUBLIC "-//W3C//DTD SVG 1.1//EN" "http://www.w3.org/Graphics/SVG/1.1/DTD/svg11.dtd">
<svg xmlns="http://www.w3.org/2000/svg" version="1.1" width="1000px" height="608px" style="shape-rendering:geometricPrecision; text-rendering:geometricPrecision; image-rendering:optimizeQuality; fill-rule:evenodd; clip-rule:evenodd" xmlns:xlink="http://www.w3.org/1999/xlink">
<g><path style="opacity:1" fill="#b96515" d="M 608.5,-0.5 C 622.833,-0.5 637.167,-0.5 651.5,-0.5C 651.5,28.5 651.5,57.5 651.5,86.5C 637.167,86.5 622.833,86.5 608.5,86.5C 608.5,57.5 608.5,28.5 608.5,-0.5 Z"/></g>
<g><path style="opacity:1" fill="#f6a41c" d="M 651.5,-0.5 C 680.5,-0.5 709.5,-0.5 738.5,-0.5C 738.5,86.5 738.5,173.5 738.5,260.5C 709.5,260.5 680.5,260.5 651.5,260.5C 651.5,231.5 651.5,202.5 651.5,173.5C 637.167,173.5 622.833,173.5 608.5,173.5C 506.833,173.5 405.167,173.5 303.5,173.5C 303.5,144.5 303.5,115.5 303.5,86.5C 405.167,86.5 506.833,86.5 608.5,86.5C 622.833,86.5 637.167,86.5 651.5,86.5C 651.5,57.5 651.5,28.5 651.5,-0.5 Z"/></g>
<g><path style="opacity:1" fill="#b96515" d="M -0.5,86.5 C 13.8333,86.5 28.1667,86.5 42.5,86.5C 42.5,231.167 42.5,375.833 42.5,520.5C 28.1667,520.5 13.8333,520.5 -0.5,520.5C -0.5,375.833 -0.5,231.167 -0.5,86.5 Z"/></g>
<g><path style="opacity:1" fill="#f6a41c" d="M 42.5,86.5 C 100.5,86.5 158.5,86.5 216.5,86.5C 216.5,115.5 216.5,144.5 216.5,173.5C 187.5,173.5 158.5,173.5 129.5,173.5C 129.5,260.167 129.5,346.833 129.5,433.5C 158.5,433.5 187.5,433.5 216.5,433.5C 216.5,462.5 216.5,491.5 216.5,520.5C 158.5,520.5 100.5,520.5 42.5,520.5C 42.5,375.833 42.5,231.167 42.5,86.5 Z"/></g>
<g><path style="opacity:1" fill="#b96515" d="M 303.5,86.5 C 303.5,115.5 303.5,144.5 303.5,173.5C 289.167,173.5 274.833,173.5 260.5,173.5C 260.5,144.5 260.5,115.5 260.5,86.5C 274.833,86.5 289.167,86.5 303.5,86.5 Z"/></g>
<g><path style="opacity:1" fill="#b96515" d="M 825.5,86.5 C 825.5,115.5 825.5,144.5 825.5,173.5C 811.167,173.5 796.833,173.5 782.5,173.5C 782.5,144.5 782.5,115.5 782.5,86.5C 796.833,86.5 811.167,86.5 825.5,86.5 Z"/></g>
<g><path style="opacity:1" fill="#f6a41c" d="M 825.5,86.5 C 883.5,86.5 941.5,86.5 999.5,86.5C 999.5,231.167 999.5,375.833 999.5,520.5C 941.5,520.5 883.5,520.5 825.5,520.5C 825.5,491.5 825.5,462.5 825.5,433.5C 840.167,433.5 854.833,433.5 869.5,433.5C 883.833,433.5 898.167,433.5 912.5,433.5C 912.5,346.833 912.5,260.167 912.5,173.5C 898.167,173.5 883.833,173.5 869.5,173.5C 854.833,173.5 840.167,173.5 825.5,173.5C 825.5,144.5 825.5,115.5 825.5,86.5 Z"/></g>
<g><path style="opacity:1" fill="#b96515" d="M 608.5,173.5 C 622.833,173.5 637.167,173.5 651.5,173.5C 651.5,202.5 651.5,231.5 651.5,260.5C 637.167,260.5 622.833,260.5 608.5,260.5C 608.5,231.5 608.5,202.5 608.5,173.5 Z"/></g>
<g><path style="opacity:1" fill="#b96515" d="M 869.5,173.5 C 883.833,173.5 898.167,173.5 912.5,173.5C 912.5,260.167 912.5,346.833 912.5,433.5C 898.167,433.5 883.833,433.5 869.5,433.5C 869.5,346.833 869.5,260.167 869.5,173.5 Z"/></g>
<g><path style="opacity:1" fill="#b96515" d="M 390.5,260.5 C 390.5,289.167 390.5,317.833 390.5,346.5C 376.167,346.5 361.833,346.5 347.5,346.5C 347.5,317.833 347.5,289.167 347.5,260.5C 361.833,260.5 376.167,260.5 390.5,260.5 Z"/></g>
<g><path style="opacity:1" fill="#f6a41c" d="M 390.5,260.5 C 463.167,260.5 535.833,260.5 608.5,260.5C 622.833,260.5 637.167,260.5 651.5,260.5C 651.5,289.167 651.5,317.833 651.5,346.5C 564.5,346.5 477.5,346.5 390.5,346.5C 390.5,317.833 390.5,289.167 390.5,260.5 Z"/></g>
<g><path style="opacity:1" fill="#b96515" d="M 303.5,346.5 C 303.5,433.5 303.5,520.5 303.5,607.5C 289.167,607.5 274.833,607.5 260.5,607.5C 260.5,520.5 260.5,433.5 260.5,346.5C 274.833,346.5 289.167,346.5 303.5,346.5 Z"/></g>
<g><path style="opacity:1" fill="#f6a41c" d="M 303.5,346.5 C 318.167,346.5 332.833,346.5 347.5,346.5C 361.833,346.5 376.167,346.5 390.5,346.5C 390.5,375.5 390.5,404.5 390.5,433.5C 506.5,433.5 622.5,433.5 738.5,433.5C 738.5,462.5 738.5,491.5 738.5,520.5C 622.5,520.5 506.5,520.5 390.5,520.5C 390.5,549.5 390.5,578.5 390.5,607.5C 361.5,607.5 332.5,607.5 303.5,607.5C 303.5,520.5 303.5,433.5 303.5,346.5 Z"/></g>
<g><path style="opacity:1" fill="#b96515" d="M 825.5,433.5 C 825.5,462.5 825.5,491.5 825.5,520.5C 811.167,520.5 796.833,520.5 782.5,520.5C 782.5,491.5 782.5,462.5 782.5,433.5C 796.833,433.5 811.167,433.5 825.5,433.5 Z"/></g>
</svg>
